<?xml version="1.0" encoding="utf-8"?>
<!-- Generator: Adobe Illustrator 15.0.0, SVG Export Plug-In . SVG Version: 6.00 Build 0)  -->
<!DOCTYPE svg PUBLIC "-//W3C//DTD SVG 1.1//EN" "http://www.w3.org/Graphics/SVG/1.1/DTD/svg11.dtd">
<svg version="1.1" id="Layer_1" xmlns="http://www.w3.org/2000/svg" xmlns:xlink="http://www.w3.org/1999/xlink" x="0px" y="0px"
	 width="595.28px" height="841.89px" viewBox="0 0 595.28 841.89" enable-background="new 0 0 595.28 841.89" xml:space="preserve">
<path fill-rule="evenodd" clip-rule="evenodd" fill="#D77133" d="M570.741,259.198H449.716
	c-12.791-52.013-58.136-90.614-114.425-90.614c-66.12,0-119.714,53.249-119.714,118.934v-0.036l-0.327,360.81l243.985-0.587
	c50.041,0,95.234-13.445,113.404-21.119l11.324,21.72l-129.51,59.337l-238.877-0.325l0.645,119.228H96.689V707.641H7.963
	l87.993-58.525l0.688-413.817c0-80.829-43.856-125.931-88.68-125.759c0,0,297.682-1.676,342.707-1.39
	C479.3,108.969,541.651,143.884,570.741,259.198z"/>
</svg>
