<?xml version="1.0" encoding="UTF-8" standalone="no"?>
<svg
   xmlns:dc="http://purl.org/dc/elements/1.1/"
   xmlns:cc="http://creativecommons.org/ns#"
   xmlns:rdf="http://www.w3.org/1999/02/22-rdf-syntax-ns#"
   xmlns:svg="http://www.w3.org/2000/svg"
   xmlns="http://www.w3.org/2000/svg"
   viewBox="0 0 816.84003 816.84003"
   height="816.84003"
   width="816.84003"
   xml:space="preserve"
   id="svg2"
   version="1.1"><metadata
     id="metadata8"><rdf:RDF><cc:Work
         rdf:about=""><dc:format>image/svg+xml</dc:format><dc:type
           rdf:resource="http://purl.org/dc/dcmitype/StillImage" /></cc:Work></rdf:RDF></metadata><defs
     id="defs6" /><g
     transform="matrix(1.3333333,0,0,-1.3333333,0,816.84)"
     id="g10"><g
       transform="scale(0.1)"
       id="g12"><path
         id="path14"
         style="fill:#c0a64c;fill-opacity:1;fill-rule:nonzero;stroke:none"
         d="m 6086.33,3063.16 c 0,1669.65 -1353.51,3023.17 -3023.16,3023.17 C 1393.52,6086.33 40,4732.81 40,3063.16 40,1393.51 1393.52,40 3063.17,40 4732.82,40 6086.33,1393.51 6086.33,3063.16" /><path
         id="path16"
         style="fill:none;stroke:#100f0d;stroke-width:80;stroke-linecap:butt;stroke-linejoin:miter;stroke-miterlimit:10;stroke-dasharray:none;stroke-opacity:1"
         d="m 6086.33,3063.16 c 0,1669.65 -1353.51,3023.17 -3023.16,3023.17 C 1393.52,6086.33 40,4732.81 40,3063.16 40,1393.51 1393.52,40 3063.17,40 4732.82,40 6086.33,1393.51 6086.33,3063.16 Z" /><path
         id="path18"
         style="fill:#71451a;fill-opacity:1;fill-rule:nonzero;stroke:none"
         d="m 2353.79,5137.95 c 169.54,14.69 297,12.76 368,12 514.16,-5.46 658,-44 658,-44 0,0 26.04,41.48 -10,-264 -10.42,-88.29 -57.82,-191.35 -34.63,-246.13 36.4,-85.96 124.27,-138.13 148.63,-157.87 239.33,-194 494.92,-541.44 550,-634 49.77,-83.64 195.01,-348.02 206,-694 15.88,-500.42 -74,-764.79 -152,-1042 l 5.33,-326.66 c 0,0 -13.25,-19.88 -20.03,-41.13 -12.5,-39.16 -14.17,-24.16 -25.84,-65 -25,-71.66 -146.17,-198.33 -180.46,-219.21 -421.67,-256.66 -819.04,-175.27 -1537,-156 0,0 -243.2,4.24 -623.34,150 -65.06,24.95 -154.66,54.67 -202.66,152 -6.39,12.94 -18.88,34.59 -20,78 -2.92,112.29 -4.37,168.44 0,234 10.42,156.56 -90.67,414.67 -114,710 -28.05,355.01 -50.52,566.97 38,852 33.33,107.34 70.28,149.51 144,351.34 38.11,104.35 37.97,176.32 42,246.66 6.56,114.79 -18.76,167.52 -34,276 -19.04,135.46 -24.74,261.98 9.33,389.34 6.7,25.06 78.67,230.66 272.67,360.66 47.82,32.05 156.37,36.31 364,62 40,4.95 86.83,10.7 148,16" /><path
         id="path20"
         style="fill:none;stroke:#100f0d;stroke-width:40;stroke-linecap:butt;stroke-linejoin:miter;stroke-miterlimit:10;stroke-dasharray:none;stroke-opacity:1"
         d="m 2353.79,5137.95 c 169.54,14.69 297,12.76 368,12 514.16,-5.46 658,-44 658,-44 0,0 26.04,41.48 -10,-264 -10.42,-88.29 -57.82,-191.35 -34.63,-246.13 36.4,-85.96 124.27,-138.13 148.63,-157.87 239.33,-194 494.92,-541.44 550,-634 49.77,-83.64 195.01,-348.02 206,-694 15.88,-500.42 -74,-764.79 -152,-1042 l 5.33,-326.66 c 0,0 -13.25,-19.88 -20.03,-41.13 -12.5,-39.16 -14.17,-24.16 -25.84,-65 -25,-71.66 -146.17,-198.33 -180.46,-219.21 -421.67,-256.66 -819.04,-175.27 -1537,-156 0,0 -243.2,4.24 -623.34,150 -65.06,24.95 -154.66,54.67 -202.66,152 -6.39,12.94 -18.88,34.59 -20,78 -2.92,112.29 -4.37,168.44 0,234 10.42,156.56 -90.67,414.67 -114,710 -28.05,355.01 -50.52,566.97 38,852 33.33,107.34 70.28,149.51 144,351.34 38.11,104.35 37.97,176.32 42,246.66 6.56,114.79 -18.76,167.52 -34,276 -19.04,135.46 -24.74,261.98 9.33,389.34 6.7,25.06 78.67,230.66 272.67,360.66 47.82,32.05 156.37,36.31 364,62 40,4.95 86.83,10.7 148,16 z" /><path
         id="path22"
         style="fill:#c0a64c;fill-opacity:1;fill-rule:nonzero;stroke:none"
         d="m 1797.29,4092.92 c 0,0 63.75,73.09 172.5,181.5 118.4,118.05 223.99,188 223.99,188 56.36,37.34 86.1,50.2 112.01,92 29.35,47.36 42.07,112.96 26,168 -35.68,122.21 -214.92,198.13 -346,156 -163.84,-52.65 -208.93,-275.7 -204,-392 1.45,-34.29 -4.67,-18.67 7.33,-118.67 22.2,-184.99 8.17,-274.83 8.17,-274.83" /><path
         id="path24"
         style="fill:none;stroke:#100f0d;stroke-width:40;stroke-linecap:butt;stroke-linejoin:miter;stroke-miterlimit:10;stroke-dasharray:none;stroke-opacity:1"
         d="m 1797.29,4092.92 c 0,0 63.75,73.09 172.5,181.5 118.4,118.05 223.99,188 223.99,188 56.36,37.34 86.1,50.2 112.01,92 29.35,47.36 42.07,112.96 26,168 -35.68,122.21 -214.92,198.13 -346,156 -163.84,-52.65 -208.93,-275.7 -204,-392 1.45,-34.29 -4.67,-18.67 7.33,-118.67 22.2,-184.99 8.17,-274.83 8.17,-274.83 z" /><path
         id="path26"
         style="fill:#b3651d;fill-opacity:1;fill-rule:nonzero;stroke:none"
         d="m 2546.42,5090.16 c 169.38,-58.45 339.71,-47.75 440,-40 196.76,15.22 255.03,33.68 255.03,33.68 l -722.53,21.32 c 0,0 11.99,-9.65 27.5,-15" /><path
         id="path28"
         style="fill:none;stroke:#100f0d;stroke-width:20;stroke-linecap:butt;stroke-linejoin:miter;stroke-miterlimit:10;stroke-dasharray:none;stroke-opacity:1"
         d="m 2546.42,5090.16 c 169.38,-58.45 339.71,-47.75 440,-40 196.76,15.22 255.03,33.68 255.03,33.68 l -722.53,21.32 c 0,0 11.99,-9.65 27.5,-15 z" /><path
         id="path30"
         style="fill:#d1911c;fill-opacity:1;fill-rule:nonzero;stroke:none"
         d="m 2985.92,3397.15 c 15.94,12.76 28.11,27.87 62.97,38.64 67.5,20.83 100.22,29.99 143.34,35.83 319.94,43.33 244.4,31.37 349.16,39.17 227.63,16.92 337.5,1.66 543.34,-0.84 0,0 257.06,-3.13 459.16,-59.16 23.52,-6.52 52.29,-13.77 55,-15 22.92,-10.43 45.52,-23.22 66.67,-43.34 22.83,-21.71 19.57,-31.86 19.41,-36.08 -0.44,-12.13 -12.74,-30.58 -12.74,-30.58 0,0 2.46,-6.66 0.98,-23.77 -0.95,-10.92 -6.47,-17.84 -5.18,-32.71 1.48,-16.98 -3.76,-47.99 -16.48,-86.64 -4.06,-12.34 -8.96,-10.91 -9.87,-27.71 -0.76,-13.89 -8.94,-32.7 -8.94,-32.7 0,0 3.06,-13.86 -0.47,-30.36 -3.15,-14.7 -19.47,-26.04 -23.53,-40.94 -3.25,-11.91 -7.01,-56.47 -23.18,-138.51 -19.56,-99.29 -16.27,-103.6 -33.33,-193.33 -10.2,-53.64 -21.69,-113.3 -43.34,-190 -8.67,-30.76 -21.72,-76.58 -43.33,-133.33 -28.11,-73.85 -60.11,-138.35 -76.67,-166.67 -100.39,-171.7 -329.01,-244.7 -329.01,-244.7 0,0 2.15,-26.87 -3.69,-36.76 -63.13,-106.87 -128.09,-112.39 -128.09,-112.39 0,0 -10.19,-23.59 -16.29,-56.36 -5.83,-31.31 -7.47,-50.14 -7.47,-50.14 0,0 14.39,-11.37 16.85,-24.23 2.62,-13.76 -8.32,-18.83 -5.63,-32.09 2.58,-12.67 12.61,-9.73 21.88,-25.41 9.27,-15.69 5.92,-40.57 0,-53.75 -8.38,-18.67 -23.96,-36.25 -23.96,-36.25 0,0 11.26,-9.06 8.75,-31.25 -11.92,-26.59 -11.92,-26.59 -11.92,-26.59 0,0 86.85,-9.07 121.92,-20.08 230.83,-72.5 299.19,-193.77 318.33,-224.17 56.67,-90 44.71,-79.49 55,-145.83 17.18,-110.741 -56.63,-198.948 -83.33,-233.331 -134.02,-172.559 -385.03,-216.668 -575.84,-195 -80.72,9.16 -300.83,30.832 -434.16,225 -28.87,42.031 -79.68,138.011 -50,240.001 97.5,335 486.66,350 486.66,350 0,0 -2.77,5.68 -11.66,28.33 -2.69,6.85 5,28.33 5,28.33 0,0 -27.33,26.08 -30,46.67 -7.09,54.58 25.41,73.33 25.41,73.33 0,0 -8.91,19.72 -4.04,33.46 5.58,15.76 18.63,26.54 18.63,26.54 l -19.59,98.34 c 0,0 -29.58,13.48 -51.66,25.41 -82.5,44.59 -93.34,129.59 -93.34,129.59 0,0 -16.1,1.98 -71.25,33.33 0,0 -37.91,11.67 -134.16,83.33 -97.57,72.65 -171.91,216.17 -186.67,250 -115.88,265.68 -163.33,706.67 -163.33,706.67 0,0 -17.73,7.25 -22.08,29.02 -2.78,13.91 -4.59,40.98 -4.59,40.98 0,0 -26.16,25.76 -33.76,54.55 -6.44,24.37 8.85,28.78 1.64,57.65 -5.29,21.21 -8.83,18.53 -8,36.47 0.79,16.88 7.26,30.59 4.95,43.76 -3.02,17.17 -12.32,20.15 -13.89,33.41 -1.11,9.46 5.03,16.9 8.1,21.7 4.22,6.62 9.94,11.37 21.32,20.49" /><path
         id="path32"
         style="fill:none;stroke:#100f0d;stroke-width:20;stroke-linecap:butt;stroke-linejoin:miter;stroke-miterlimit:10;stroke-dasharray:none;stroke-opacity:1"
         d="m 2985.92,3397.15 c 15.94,12.76 28.11,27.87 62.97,38.64 67.5,20.83 100.22,29.99 143.34,35.83 319.94,43.33 244.4,31.37 349.16,39.17 227.63,16.92 337.5,1.66 543.34,-0.84 0,0 257.06,-3.13 459.16,-59.16 23.52,-6.52 52.29,-13.77 55,-15 22.92,-10.43 45.52,-23.22 66.67,-43.34 22.83,-21.71 19.57,-31.86 19.41,-36.08 -0.44,-12.13 -12.74,-30.58 -12.74,-30.58 0,0 2.46,-6.66 0.98,-23.77 -0.95,-10.92 -6.47,-17.84 -5.18,-32.71 1.48,-16.98 -3.76,-47.99 -16.48,-86.64 -4.06,-12.34 -8.96,-10.91 -9.87,-27.71 -0.76,-13.89 -8.94,-32.7 -8.94,-32.7 0,0 3.06,-13.86 -0.47,-30.36 -3.15,-14.7 -19.47,-26.04 -23.53,-40.94 -3.25,-11.91 -7.01,-56.47 -23.18,-138.51 -19.56,-99.29 -16.27,-103.6 -33.33,-193.33 -10.2,-53.64 -21.69,-113.3 -43.34,-190 -8.67,-30.76 -21.72,-76.58 -43.33,-133.33 -28.11,-73.85 -60.11,-138.35 -76.67,-166.67 -100.39,-171.7 -329.01,-244.7 -329.01,-244.7 0,0 2.15,-26.87 -3.69,-36.76 -63.13,-106.87 -128.09,-112.39 -128.09,-112.39 0,0 -10.19,-23.59 -16.29,-56.36 -5.83,-31.31 -7.47,-50.14 -7.47,-50.14 0,0 14.39,-11.37 16.85,-24.23 2.62,-13.76 -8.32,-18.83 -5.63,-32.09 2.58,-12.67 12.61,-9.73 21.88,-25.41 9.27,-15.69 5.92,-40.57 0,-53.75 -8.38,-18.67 -23.96,-36.25 -23.96,-36.25 0,0 11.26,-9.06 8.75,-31.25 -11.92,-26.59 -11.92,-26.59 -11.92,-26.59 0,0 86.85,-9.07 121.92,-20.08 230.83,-72.5 299.19,-193.77 318.33,-224.17 56.67,-90 44.71,-79.49 55,-145.83 17.18,-110.741 -56.63,-198.948 -83.33,-233.331 -134.02,-172.559 -385.03,-216.668 -575.84,-195 -80.72,9.16 -300.83,30.832 -434.16,225 -28.87,42.031 -79.68,138.011 -50,240.001 97.5,335 486.66,350 486.66,350 0,0 -2.77,5.68 -11.66,28.33 -2.69,6.85 5,28.33 5,28.33 0,0 -27.33,26.08 -30,46.67 -7.09,54.58 25.41,73.33 25.41,73.33 0,0 -8.91,19.72 -4.04,33.46 5.58,15.76 18.63,26.54 18.63,26.54 l -19.59,98.34 c 0,0 -29.58,13.48 -51.66,25.41 -82.5,44.59 -93.34,129.59 -93.34,129.59 0,0 -16.1,1.98 -71.25,33.33 0,0 -37.91,11.67 -134.16,83.33 -97.57,72.65 -171.91,216.17 -186.67,250 -115.88,265.68 -163.33,706.67 -163.33,706.67 0,0 -17.73,7.25 -22.08,29.02 -2.78,13.91 -4.59,40.98 -4.59,40.98 0,0 -26.16,25.76 -33.76,54.55 -6.44,24.37 8.85,28.78 1.64,57.65 -5.29,21.21 -8.83,18.53 -8,36.47 0.79,16.88 7.26,30.59 4.95,43.76 -3.02,17.17 -12.32,20.15 -13.89,33.41 -1.11,9.46 5.03,16.9 8.1,21.7 4.22,6.62 9.94,11.37 21.32,20.49 z" /><path
         id="path34"
         style="fill:#751326;fill-opacity:1;fill-rule:nonzero;stroke:none"
         d="m 4552.99,3313.54 128,52.8 c -8.8,-5.4 -22.2,-13 -39,-21.6 -85.4,-43.6 -161.4,-58.6 -210,-70 -64.8,-15 -123.4,-22.8 -335,-31.6 -186.6,-7.8 -279.8,-11.6 -402.4,-9.2 -107.6,2.2 -182,8.2 -330.8,20 0,0 -72.2,5.8 -181.8,25.8 -35.8,6.6 -76.2,16.2 -125.8,36 -44,17.4 -79.2,45 -91.4,59.8 l 121.8,-66 1466.4,4" /><path
         id="path36"
         style="fill:none;stroke:#100f0d;stroke-width:20;stroke-linecap:butt;stroke-linejoin:miter;stroke-miterlimit:10;stroke-dasharray:none;stroke-opacity:1"
         d="m 2964.79,3375.54 c 12.2,-14.8 47.4,-42.4 91.4,-59.8 49.6,-19.8 90,-29.4 125.8,-36 109.6,-20 181.8,-25.8 181.8,-25.8 148.8,-11.8 223.2,-17.8 330.8,-20 122.6,-2.4 215.8,1.4 402.4,9.2 211.6,8.8 270.2,16.6 335,31.6 48.6,11.4 124.6,26.4 210,70 16.8,8.6 30.2,16.2 39,21.6" /><path
         id="path38"
         style="fill:#d1911c;fill-opacity:1;fill-rule:nonzero;stroke:none"
         d="m 3590.92,1986.6 c 16.05,-6.32 40.31,-15.44 70.36,-24.94 50.14,-15.85 90.26,-25.14 144.73,-29.12 18.09,-1.32 56.56,-3.99 101.88,3.75 62.41,10.66 113.33,29.4 151.99,48.13" /><path
         id="path40"
         style="fill:none;stroke:#100f0d;stroke-width:20;stroke-linecap:butt;stroke-linejoin:miter;stroke-miterlimit:10;stroke-dasharray:none;stroke-opacity:1"
         d="m 3590.92,1986.6 c 16.05,-6.32 40.31,-15.44 70.36,-24.94 50.14,-15.85 90.26,-25.14 144.73,-29.12 18.09,-1.32 56.56,-3.99 101.88,3.75 62.41,10.66 113.33,29.4 151.99,48.13" /><path
         id="path42"
         style="fill:#d1911c;fill-opacity:1;fill-rule:nonzero;stroke:none"
         d="m 3737.89,1831.55 c 26.67,-8.38 65.23,-11.52 90.84,-10.89 40.87,1 63.44,6.18 95.6,17.5" /><path
         id="path44"
         style="fill:none;stroke:#100f0d;stroke-width:20;stroke-linecap:butt;stroke-linejoin:miter;stroke-miterlimit:10;stroke-dasharray:none;stroke-opacity:1"
         d="m 3737.89,1831.55 c 26.67,-8.38 65.23,-11.52 90.84,-10.89 40.87,1 63.44,6.18 95.6,17.5" /><path
         id="path46"
         style="fill:#d1911c;fill-opacity:1;fill-rule:nonzero;stroke:none"
         d="m 3748.89,1498.68 c 10.63,-12.68 16.5,-20.52 16.5,-20.52 0,0 -1.16,-47.71 -0.93,-70.31 0.17,-16.91 0.62,-41.87 0.62,-41.87 0,0 36.08,-25.35 46.88,-27.5 11.22,-2.25 42.76,-6.4 68.75,13.43 5.06,3.87 15.31,15.94 15.31,15.94 l -5,119.06 c 0,0 10.52,9.15 19.29,15.18" /><path
         id="path48"
         style="fill:none;stroke:#100f0d;stroke-width:20;stroke-linecap:butt;stroke-linejoin:miter;stroke-miterlimit:10;stroke-dasharray:none;stroke-opacity:1"
         d="m 3748.89,1498.68 c 10.63,-12.68 16.5,-20.52 16.5,-20.52 0,0 -1.16,-47.71 -0.93,-70.31 0.17,-16.91 0.62,-41.87 0.62,-41.87 0,0 36.08,-25.35 46.88,-27.5 11.22,-2.25 42.76,-6.4 68.75,13.43 5.06,3.87 15.31,15.94 15.31,15.94 l -5,119.06 c 0,0 10.52,9.15 19.29,15.18" /><path
         id="path50"
         style="fill:#d1911c;fill-opacity:1;fill-rule:nonzero;stroke:none"
         d="m 3033.52,3063.16 c 11.8,-12.16 29.03,-31.63 55.41,-47.08 109.59,-64.17 213.41,-73.94 317.08,-82.91 111.44,-9.65 179.25,-15.95 402.5,-23.13 175.41,-5.64 290.46,5.56 442.92,31.04 150.84,25.21 279.3,76.23 357.31,112.77" /><path
         id="path52"
         style="fill:none;stroke:#100f0d;stroke-width:20;stroke-linecap:butt;stroke-linejoin:miter;stroke-miterlimit:10;stroke-dasharray:none;stroke-opacity:1"
         d="m 3033.52,3063.16 c 11.8,-12.16 29.03,-31.63 55.41,-47.08 109.59,-64.17 213.41,-73.94 317.08,-82.91 111.44,-9.65 179.25,-15.95 402.5,-23.13 175.41,-5.64 290.46,5.56 442.92,31.04 150.84,25.21 279.3,76.23 357.31,112.77" /><path
         id="path54"
         style="fill:#d1911c;fill-opacity:1;fill-rule:nonzero;stroke:none"
         d="m 3762.06,1392.33 c -13.17,-2.08 -18.54,-7.41 -25,-15.42 -6.55,-8.12 -15.94,-19.76 -17.92,-37.08 -0.3,-2.65 -2.18,-21.57 9.17,-39.17 12.08,-18.72 31.75,-24.48 51.67,-30 16.25,-4.5 65.28,-18.08 113.75,7.09 15.83,8.21 34.61,17.97 42.08,39.58 7.05,20.4 1.71,44.71 -12.5,61.25 -8.37,9.74 -8.33,6.25 -22.5,12.08" /><path
         id="path56"
         style="fill:none;stroke:#100f0d;stroke-width:20;stroke-linecap:butt;stroke-linejoin:miter;stroke-miterlimit:10;stroke-dasharray:none;stroke-opacity:1"
         d="m 3762.06,1392.33 c -13.17,-2.08 -18.54,-7.41 -25,-15.42 -6.55,-8.12 -15.94,-19.76 -17.92,-37.08 -0.3,-2.65 -2.18,-21.57 9.17,-39.17 12.08,-18.72 31.75,-24.48 51.67,-30 16.25,-4.5 65.28,-18.08 113.75,7.09 15.83,8.21 34.61,17.97 42.08,39.58 7.05,20.4 1.71,44.71 -12.5,61.25 -8.37,9.74 -8.33,6.25 -22.5,12.08" /><path
         id="path58"
         style="fill:#d1911c;fill-opacity:1;fill-rule:nonzero;stroke:none"
         d="m 3745.7,1551.92 c 9.83,-4.77 24.76,-10.75 43.75,-13.75 25.91,-4.1 45.27,-2.33 58.44,-1.56 15.93,0.94 40.74,9.49 65.59,23.32" /><path
         id="path60"
         style="fill:none;stroke:#100f0d;stroke-width:20;stroke-linecap:butt;stroke-linejoin:miter;stroke-miterlimit:10;stroke-dasharray:none;stroke-opacity:1"
         d="m 3745.7,1551.92 c 9.83,-4.77 24.76,-10.75 43.75,-13.75 25.91,-4.1 45.27,-2.33 58.44,-1.56 15.93,0.94 40.74,9.49 65.59,23.32" /><path
         id="path62"
         style="fill:#d1911c;fill-opacity:1;fill-rule:nonzero;stroke:none"
         d="m 3766.01,1480.06 c 19.65,-5.82 39.8,-6.07 51.56,-6.58 7.65,-0.33 17.67,-0.71 30.63,1.25 17.11,2.59 32.73,6.06 41.56,10.31" /><path
         id="path64"
         style="fill:none;stroke:#100f0d;stroke-width:20;stroke-linecap:butt;stroke-linejoin:miter;stroke-miterlimit:10;stroke-dasharray:none;stroke-opacity:1"
         d="m 3766.01,1480.06 c 19.65,-5.82 39.8,-6.07 51.56,-6.58 7.65,-0.33 17.67,-0.71 30.63,1.25 17.11,2.59 32.73,6.06 41.56,10.31" /><path
         id="path66"
         style="fill:#d1911c;fill-opacity:1;fill-rule:nonzero;stroke:none"
         d="m 3737.89,1673.17 c 7,-7.13 25.42,-21.65 44.68,-28.13 34.38,-11.56 60.95,-5.35 74.38,-1.87 24.2,6.26 47.06,18.58 58.44,27.81" /><path
         id="path68"
         style="fill:none;stroke:#100f0d;stroke-width:20;stroke-linecap:butt;stroke-linejoin:miter;stroke-miterlimit:10;stroke-dasharray:none;stroke-opacity:1"
         d="m 3737.89,1673.17 c 7,-7.13 25.42,-21.65 44.68,-28.13 34.38,-11.56 60.95,-5.35 74.38,-1.87 24.2,6.26 47.06,18.58 58.44,27.81" /><path
         id="path70"
         style="fill:#d1911c;fill-opacity:1;fill-rule:nonzero;stroke:none"
         d="m 3262.23,1148.68 c -0.2,-28.01 4.45,-54.49 10.66,-86.35 2.56,-13.18 14.52,-48.32 50,-102.498 13.79,-21.07 61.91,-82.133 152.5,-137.5 150.75,-92.141 309.56,-88.273 367.5,-85.832 43.63,1.84 249.84,8.75 414.16,153.332 88.76,78.098 109.39,145.468 114.17,162.498 19.65,70.07 13.82,131.6 4.67,164.17" /><path
         id="path72"
         style="fill:none;stroke:#100f0d;stroke-width:20;stroke-linecap:butt;stroke-linejoin:miter;stroke-miterlimit:10;stroke-dasharray:none;stroke-opacity:1"
         d="m 3262.23,1148.68 c -0.2,-28.01 4.45,-54.49 10.66,-86.35 2.56,-13.18 14.52,-48.32 50,-102.498 13.79,-21.07 61.91,-82.133 152.5,-137.5 150.75,-92.141 309.56,-88.273 367.5,-85.832 43.63,1.84 249.84,8.75 414.16,153.332 88.76,78.098 109.39,145.468 114.17,162.498 19.65,70.07 13.82,131.6 4.67,164.17" /><path
         id="path74"
         style="fill:#751326;fill-opacity:1;fill-rule:nonzero;stroke:none"
         d="m 3063.17,3311.51 c 40.31,2.49 108.23,12.78 180.13,16.73 241.23,13.25 460.73,29.74 641.67,30.83 159.6,0.96 397.55,-11.19 674.55,-48.29" /><path
         id="path76"
         style="fill:none;stroke:#100f0d;stroke-width:20;stroke-linecap:butt;stroke-linejoin:miter;stroke-miterlimit:10;stroke-dasharray:none;stroke-opacity:1"
         d="m 3063.17,3311.51 c 40.31,2.49 108.23,12.78 180.13,16.73 241.23,13.25 460.73,29.74 641.67,30.83 159.6,0.96 397.55,-11.19 674.55,-48.29" /></g></g></svg>