<?xml version="1.0" encoding="utf-8"?>
<!-- Generator: Adobe Illustrator 15.1.0, SVG Export Plug-In . SVG Version: 6.00 Build 0)  -->
<!DOCTYPE svg PUBLIC "-//W3C//DTD SVG 1.1//EN" "http://www.w3.org/Graphics/SVG/1.1/DTD/svg11.dtd">
<svg version="1.1" xmlns="http://www.w3.org/2000/svg" xmlns:xlink="http://www.w3.org/1999/xlink" x="0px" y="0px" width="156px"
	 height="155.333px" viewBox="0 0 156 155.333" enable-background="new 0 0 156 155.333" xml:space="preserve">
<g id="Background">
	<circle fill="#C6A860" stroke="#000000" stroke-width="2" stroke-miterlimit="10" cx="78.483" cy="78.798" r="73.983"/>
</g>
<g id="Hammoc">
	<path fill="none" stroke="#000000" stroke-width="0.75" stroke-miterlimit="10" d="M134.375,82.442
		c5.155-4.121,20.566-20.059,16.971-16.542"/>
	<path fill="#A97C50" stroke="#000000" stroke-width="0.5" stroke-miterlimit="10" d="M106.083,88.918
		c3.859-3.45,5.204-3.679,6.892,0.571c1.295,3.262,3.137,4.453,4.188,7.688c1.004,3.091,1.532,12.295,1.563,15.375
		c0.029,3.147-3.25,2.813,0.375,5.063c0.637-0.544,1.733,3.807,1.952,2.955c1.188-4.625,1.647-2.777,1.188-6.75
		c-0.731-6.3,1.093-14.142,0.423-19.955c-0.389-3.37-4.43-8.16-6.662-11.322c-2.334-3.306-3.775-5.818-8.994-2.401
		c-5.365,3.513-1.887,0.524-6.943,4.463"/>
	<path fill="#A97C50" stroke="#000000" stroke-width="0.5" stroke-miterlimit="10" d="M47.946,81.792
		c-2.946,8.5,2.083,2.504,1.743,11.388c-0.25,4.38,5.035,23.087,5.811,27.402c0.413,2.297,0.033,3.66-0.569,5.479
		c-0.612,1.684-0.981,3.186-1.138,4.969c1.1-2.291,2.221-2.083,2.717-3.349c0.509,0.777,1.259,0.861,3.122,4.423
		c-1.55-4.499-4.002-15.717-3.647-20.65c0.381-6.32,1.905-17.944,1.427-22.353c2.129,0.513,9.22,9.677,20.771,12.225"/>
	<path fill="none" stroke="#000000" stroke-width="0.75" stroke-miterlimit="10" d="M6.506,64.585
		c9.16,8.082,13.66,14.915,19.994,18.082"/>
	<path fill="#EDB860" stroke="#000000" stroke-width="0.5" stroke-miterlimit="10" d="M43,81.667
		c6.742,5.5,45.625,14.261,68.492,2.7c8.058-4.074,7.049-5.643,11.758,1.05c10.126,14.394,10.086,11.871,0.126,18.204
		c-9.959,6.333-28.634,11.733-44.3,11.796c-15.705,0.063-46.955-14.237-52.317-19.66"/>
	<path fill="#F4D7B0" stroke="#000000" stroke-width="0.5" stroke-miterlimit="10" d="M36.786,74.119
		c1.159,2.851,0.099,5.06-1.917,7.172c-1.993,2.21-4.371,4.093-6.726,6.073c-1.03,0.958-2.554,2.026-3.319,3.235
		c-0.842,1.33-0.258,2.547-0.342,4.018c-0.409,3.722-3.276,2.499-6.076,2.505c1.612-0.673,0.194-1.677,0.982-2.787
		c0.361-0.704,2.127-0.918,2.18-2.072c0.074-1.053-0.365-1.163-1.189-1.599c-0.968-0.613-3.327-0.498-2.826-1.959
		c0.403-1.438,2.678-0.083,3.885-0.25c0.614-0.035,2.908-0.446,3.049-1.204c0.161-1.592-2.67-1.267-3.252-1.551
		c-1.989-1.005-0.981-2.062,0.786-2.044c1.449-0.014,2.789,0.412,4.292,0.177c1.482-0.333,2.04-1.08,0.994-2.504
		c-0.947-1.447-3.132-1.475-4.462-2.317c2.807-1.356,3.106-0.49,5.654,0.701c1.604,0.677,1.735,0.336,1.919-1.157
		c0.208-0.461-0.123-1.009,0.084-1.471c0.284-0.583,1.042-0.441,1.205-1.1c0.446-2.174-0.777-3.924-1.778-5.152
		c-1.838-2.18-1.562-2.914,0.503-2.03C30.432,68.804,36.112,72.507,36.786,74.119z"/>
	<path fill="#EDB860" stroke="#000000" stroke-width="0.5" stroke-miterlimit="10" d="M26.759,95.756
		c-1.925,1.394-0.425-6.09-0.925-9.923s1.5-4.166,5.833-4.333s15.411-2.007,11.943,0.979C37.609,87.646,26.759,95.756,26.759,95.756
		z"/>
	<path fill="#EDB860" stroke="#000000" stroke-width="0.5" stroke-miterlimit="10" d="M118.276,82.19
		c-1.811-2.413-1.931-1.711,4.826-1.832c6.758-0.121,14.48-1.855,13.153,1.832c-1.328,3.687-3.709,20.512-6.665,15.311
		C126.634,92.301,118.276,82.19,118.276,82.19z"/>
</g>
<g id="TiredMoose">
	<path fill="#FFFFFF" stroke="#000000" stroke-miterlimit="10" d="M125.052,117.569c1.188-4.625,1.647-2.777,1.188-6.75"/>
	<g>
		<path fill="#EB7125" d="M98.5,98.134c-0.5-2.25-3,5.866-4.5,4.116c-2.167-2.417-4.25-4.583-7.25-6.083
			C84.5,95,82.5,91.917,79.833,91.75c-1,0-1.312-0.929-2.312-0.762c-1.083,0.083-1.74-0.848-2.74-1.098
			c-2.167-0.583-3.823-0.966-5.906-1.799c-1.917-0.917-3.938-1.316-5.688-2.566c-2.083-1.417-4.771-2.608-7.104-3.525
			c-2-0.833-4.167-0.583-6.167,0.083c-2.167,0.667-4.417,1.833-6,3.5c-1.333,1.583-1.75,3.667-2.833,5.417c-0.083,0-0.25,0-0.333,0
			L39,93.917c0.167,1.833,2.25,2.583,3.5,3.583c1.917,1.5,4.083,2.583,6.083,3.917c1.083,0.75,2.167,1.333,3,2.333
			c0.667,0.75,1.167,1.583,1.75,2.417c1.333,1.667,1.75,3.667,3.417,5.083c0.75,0.583,1.667,1,2.417,1.583
			c1.167,0.917,2.167,2.167,3.167,3.25c1.917,2,3.417,4,4.5,6.5c1.083,2.667,1.75,5.5,2.833,8.083c1.083,2.667,2.5,5.25,4,7.75
			c0.666,1.25,1.25,1.833,2.666,1.833c1.334,0,1.167-0.417,1.75-1.333c0.417-0.667,1.417-1.167,2.25-1.083
			c0.917,0,1.667,0.833,2.584,1.167c-0.167-1.167-0.917-4.583,1.25-3.75c1.083,0.417,1.916,1.417,3.083,1.583
			c0.833,0.167-1.904-5.672-1.333-5.083c2.75,2.833,7.5,4.417,9.25,4.667c1,0.167,1.537-0.557,3.166-1.417
			c3-1.583,3.965,2.109,4.882,2.193c1.5,0.167,3.709,1.39,6.368-1.014c1.096-0.991-2.249-4.179-0.416-5.346
			c2.583,1.333,5.625-0.042,6.875-2.125c-3.833-2.354-1.708-2.792-3.375-4.208c-0.916-0.833,0.542-0.317-0.625-0.651
			c-1-0.25,0.396-6.391-0.604-6.808c-2.667-0.917,1.167-5.75,0-8c-0.75-1.333-6.729-3.667-7.646-4.833L98.5,98.134z"/>
		<path d="M98.5,98.134c-0.036-0.135-0.07-0.291-0.191-0.374c-0.141-0.066-0.273,0.061-0.368,0.154
			c-0.197,0.209-0.35,0.456-0.501,0.699c-0.3,0.491-0.572,0.998-0.858,1.498c-0.285,0.5-0.576,0.998-0.915,1.465
			c-0.17,0.233-0.354,0.459-0.57,0.653c-0.21,0.184-0.502,0.373-0.808,0.268c-0.29-0.121-0.435-0.393-0.642-0.588l-0.585-0.634
			c-0.391-0.421-0.792-0.834-1.199-1.239c-0.816-0.808-1.679-1.571-2.603-2.251c-0.923-0.692-1.922-1.233-2.948-1.779
			c-0.99-0.617-1.827-1.423-2.703-2.163c-0.871-0.736-1.789-1.461-2.866-1.807c-0.268-0.086-0.543-0.139-0.821-0.163
			c-0.267-0.005-0.617-0.056-0.875-0.205c-0.523-0.294-0.959-0.675-1.504-0.555l-0.003,0.001l-0.008,0
			c-1.018,0.08-1.723-0.707-2.496-1.003c-0.822-0.257-1.715-0.459-2.568-0.698c-0.863-0.234-1.723-0.489-2.569-0.787
			c-0.858-0.278-1.663-0.692-2.487-0.997c-0.83-0.318-1.678-0.605-2.502-0.972c-0.829-0.342-1.606-0.869-2.333-1.35
			c-1.498-0.943-3.11-1.713-4.742-2.416c-0.819-0.338-1.646-0.703-2.474-0.971c-0.834-0.243-1.717-0.323-2.59-0.258
			c-0.875,0.06-1.74,0.248-2.579,0.515c-0.855,0.262-1.674,0.567-2.473,0.952c-0.796,0.38-1.56,0.828-2.267,1.352
			c-0.703,0.54-1.377,1.086-1.846,1.829c-0.963,1.461-1.402,3.232-2.358,4.793l-0.056,0.092h-0.108l-0.333,0l0.167-0.094
			l-1.746,2.919l0.028-0.121c0.051,0.642,0.414,1.211,0.905,1.655c0.491,0.45,1.08,0.806,1.665,1.183
			c0.598,0.372,1.137,0.826,1.7,1.218c0.561,0.389,1.139,0.765,1.729,1.125c1.177,0.724,2.385,1.408,3.55,2.184
			c1.125,0.757,2.401,1.5,3.263,2.642c0.453,0.557,0.834,1.139,1.223,1.711c0.364,0.547,0.84,1.121,1.167,1.741
			c0.688,1.219,1.24,2.497,2.201,3.433c0.938,0.895,2.359,1.383,3.364,2.408c1.047,0.962,1.912,2.051,2.861,3.045
			c1.91,2.03,3.565,4.377,4.523,7.023c0.978,2.621,1.64,5.313,2.746,7.842c1.073,2.545,2.416,4.955,3.833,7.35
			c0.323,0.59,0.71,1.158,1.295,1.396c0.286,0.126,0.61,0.175,0.94,0.188c0.323,0.007,0.687,0.007,0.943-0.093
			c0.257-0.08,0.378-0.364,0.546-0.683c0.164-0.308,0.348-0.646,0.641-0.898c0.562-0.491,1.289-0.787,2.06-0.729l-0.02-0.001
			c0.551,0.004,1.021,0.265,1.43,0.512c0.413,0.251,0.801,0.518,1.22,0.671l-0.255,0.207c-0.138-0.952-0.347-1.929-0.215-2.953
			c0.04-0.254,0.11-0.521,0.282-0.761c0.171-0.246,0.498-0.39,0.781-0.375c0.569,0.026,1.014,0.293,1.441,0.544
			c0.422,0.262,0.81,0.555,1.219,0.787c0.205,0.115,0.414,0.218,0.63,0.289c0.109,0.033,0.218,0.065,0.329,0.083
			c0.012,0.004,0.09,0.013,0.048,0.014c0.013,0.002,0.11-0.006,0.021,0c-0.082,0.069-0.024,0.02-0.034-0.014
			c-0.008-0.401-0.179-0.898-0.321-1.344c-0.151-0.458-0.32-0.912-0.49-1.366l-0.514-1.367c-0.082-0.234-0.169-0.451-0.229-0.722
			l-0.008-0.068l-0.002-0.041c0.003-0.037,0.018-0.081,0.039-0.114c0.013-0.028,0.058-0.071,0.146-0.079
			c0.096,0.002,0.122,0.033,0.122,0.033l0.068,0.056l0.128,0.127l0.26,0.25c0.698,0.65,1.483,1.217,2.305,1.717
			c1.649,0.994,3.446,1.759,5.3,2.277c2.021,1.085,3.27-1.114,5.296-1.518c0.508-0.084,1.059-0.006,1.513,0.246
			c0.458,0.245,0.824,0.607,1.145,0.982c0.323,0.373,0.598,0.79,0.915,1.118c0.18,0.182,0.277,0.215,0.562,0.243
			c0.249,0.042,0.486,0.096,0.725,0.15c0.938,0.226,1.894,0.386,2.82,0.187c0.926-0.186,1.761-0.694,2.468-1.331
			c0.305-0.261,0.176-0.781,0.021-1.21c-0.161-0.445-0.377-0.882-0.57-1.332c-0.191-0.45-0.383-0.913-0.446-1.428
			c-0.09-0.503,0.129-1.129,0.612-1.396l0.075-0.042l0.066,0.035c1.134,0.597,2.507,0.661,3.722,0.251
			c1.215-0.402,2.309-1.223,2.976-2.317l0.044,0.179c-0.702-0.443-1.407-0.903-1.985-1.534c-0.287-0.311-0.519-0.712-0.599-1.139
			c-0.075-0.424-0.124-0.804-0.373-1.114c-0.116-0.156-0.256-0.299-0.407-0.43c-0.081-0.076-0.155-0.147-0.229-0.234
			c-0.035-0.045-0.071-0.088-0.102-0.147c-0.021-0.049-0.082-0.149,0.006-0.266c0.09-0.085,0.168-0.07,0.219-0.077
			c-0.033,0.053,0.074-0.119-0.087,0.121c0.059,0.116,0.069,0.063,0.063,0.077l-0.014-0.004l-0.036-0.01l-0.075-0.021l-0.3-0.087
			c-0.05-0.014-0.118-0.041-0.16-0.074c-0.063-0.049-0.108-0.105-0.132-0.155c-0.062-0.104-0.09-0.211-0.115-0.317
			c-0.15-0.847-0.059-1.673-0.022-2.499c0.048-0.825,0.116-1.649,0.107-2.469c-0.014-0.402-0.02-0.836-0.185-1.173
			c-0.064-0.175-0.28-0.172-0.471-0.306c-0.195-0.109-0.352-0.272-0.463-0.461c-0.415-0.808-0.139-1.692,0.053-2.475
			c0.222-0.799,0.5-1.578,0.707-2.375c0.195-0.786,0.374-1.636,0.102-2.41c-0.135-0.384-0.481-0.639-0.803-0.888
			c-0.331-0.243-0.681-0.462-1.035-0.673c-1.422-0.839-2.915-1.552-4.351-2.375c-0.357-0.208-0.713-0.421-1.046-0.668
			c-0.348-0.235-0.592-0.582-0.867-0.885l-1.625-1.872L98.5,98.134z M98.5,98.134l3.265,3.731l1.632,1.866
			c0.278,0.306,0.521,0.647,0.866,0.876c0.333,0.243,0.688,0.454,1.046,0.659c1.438,0.813,2.936,1.517,4.367,2.349
			c0.356,0.209,0.709,0.427,1.046,0.671c0.322,0.246,0.688,0.511,0.837,0.921c0.292,0.81,0.112,1.674-0.075,2.47
			c-0.202,0.805-0.474,1.587-0.687,2.382c-0.189,0.774-0.428,1.656-0.048,2.36c0.098,0.164,0.239,0.309,0.406,0.399
			c0.075,0.054,0.178,0.089,0.271,0.129c0.103,0.034,0.221,0.135,0.266,0.236c0.2,0.412,0.191,0.838,0.212,1.252
			c0.012,0.833-0.054,1.659-0.099,2.483c-0.033,0.818-0.115,1.66,0.028,2.445c0.022,0.094,0.051,0.189,0.095,0.263
			c0.021,0.044,0.046,0.063,0.062,0.084c0.038,0.027,0.068,0.044,0.118,0.055l0.298,0.078l0.074,0.018l0.039,0.01l0.023,0.006
			c-0.001,0.016,0.019-0.035,0.078,0.084c-0.167,0.243-0.066,0.07-0.105,0.124c-0.05-0.001-0.087,0.018-0.071,0.01
			c0.004-0.062,0.037,0.074,0.104,0.128c0.062,0.07,0.139,0.14,0.21,0.204c0.161,0.138,0.314,0.29,0.447,0.464
			c0.286,0.345,0.355,0.822,0.426,1.202c0.078,0.388,0.274,0.729,0.546,1.023c0.543,0.59,1.24,1.046,1.933,1.479l0.11,0.069
			l-0.066,0.11c-0.703,1.158-1.84,2.014-3.114,2.441c-1.272,0.435-2.731,0.375-3.938-0.257l0.142-0.006
			c-0.392,0.229-0.546,0.669-0.479,1.124c0.055,0.454,0.236,0.904,0.427,1.344c0.19,0.442,0.407,0.879,0.579,1.348
			c0.084,0.235,0.159,0.479,0.18,0.746c0.04,0.247-0.066,0.607-0.278,0.782c-0.73,0.661-1.612,1.206-2.604,1.408
			c-0.992,0.216-2.011,0.042-2.95-0.182c-0.237-0.053-0.474-0.107-0.704-0.145c-0.112-0.026-0.229-0.013-0.395-0.081
			c-0.142-0.065-0.246-0.156-0.339-0.248c-0.358-0.373-0.619-0.775-0.935-1.136c-0.589-0.734-1.44-1.304-2.366-1.118
			c-0.895,0.166-1.709,0.786-2.529,1.284c-0.409,0.252-0.876,0.538-1.44,0.523c-0.518-0.034-0.986-0.16-1.464-0.282
			c-1.891-0.526-3.707-1.296-5.391-2.306c-0.839-0.51-1.64-1.084-2.366-1.758L85.924,132l-0.132-0.13l-0.001-0.002
			c-0.011-0.013,0.001,0.014,0.081,0.018c0.072-0.009,0.1-0.056,0.112-0.063c0.019-0.02,0.028-0.049,0.027-0.071
			c0-0.007,0.001,0.004,0.002,0.005l0.002,0.022c0.047,0.204,0.136,0.442,0.216,0.666l0.515,1.362
			c0.172,0.456,0.343,0.913,0.497,1.378c0.145,0.477,0.326,0.91,0.34,1.484c-0.024,0.08,0.021,0.173-0.168,0.309
			c-0.133,0.057-0.105,0.022-0.151,0.034c-0.102-0.008-0.084-0.013-0.131-0.019c-0.13-0.02-0.254-0.057-0.378-0.094
			c-0.246-0.08-0.476-0.193-0.695-0.315c-0.438-0.247-0.828-0.541-1.233-0.79c-0.397-0.24-0.839-0.474-1.251-0.485
			c-0.418-0.031-0.635,0.369-0.693,0.824c-0.118,0.917,0.078,1.879,0.225,2.841l0.048,0.318l-0.303-0.111
			c-0.481-0.177-0.887-0.459-1.289-0.7c-0.399-0.241-0.811-0.453-1.229-0.451h-0.007l-0.013-0.001
			c-0.618-0.05-1.283,0.213-1.753,0.634c-0.237,0.205-0.394,0.489-0.552,0.79c-0.148,0.274-0.316,0.713-0.751,0.873
			c-0.397,0.144-0.747,0.126-1.111,0.125c-0.36-0.013-0.734-0.066-1.086-0.218c-0.728-0.3-1.164-0.969-1.499-1.573
			c-1.414-2.37-2.787-4.813-3.876-7.378c-1.126-2.558-1.806-5.274-2.775-7.845c-0.944-2.581-2.559-4.858-4.445-6.852
			c-0.97-1.006-1.83-2.104-2.827-3.021c-0.949-0.989-2.286-1.418-3.373-2.435c-1.04-1.025-1.601-2.36-2.269-3.543
			c-0.323-0.611-0.738-1.107-1.143-1.713c-0.387-0.576-0.768-1.155-1.188-1.676c-0.826-1.101-2.005-1.783-3.165-2.571
			c-1.141-0.765-2.345-1.453-3.527-2.185c-0.593-0.363-1.176-0.745-1.753-1.148c-0.574-0.403-1.096-0.847-1.676-1.209
			c-0.577-0.376-1.183-0.741-1.716-1.231c-0.531-0.479-0.971-1.158-1.027-1.917l-0.005-0.067l0.033-0.054l1.754-2.914l0.057-0.095
			l0.109,0l0.333,0l-0.165,0.091c0.923-1.486,1.368-3.261,2.379-4.794c0.491-0.775,1.23-1.379,1.939-1.915
			c0.729-0.537,1.514-0.992,2.329-1.379c0.81-0.388,1.67-0.705,2.521-0.962c0.861-0.271,1.752-0.463,2.66-0.521
			c0.906-0.064,1.828,0.02,2.708,0.279c0.868,0.285,1.676,0.646,2.505,0.991c1.641,0.713,3.259,1.491,4.78,2.455
			c0.759,0.506,1.463,0.987,2.289,1.335c0.806,0.362,1.649,0.651,2.484,0.973c0.849,0.318,1.635,0.727,2.478,1.002
			c0.836,0.298,1.688,0.553,2.546,0.79c0.863,0.246,1.715,0.438,2.594,0.716c0.854,0.352,1.515,1.075,2.381,0.994l-0.011,0.001
			c0.306-0.052,0.644,0,0.912,0.147c0.274,0.138,0.497,0.323,0.741,0.447c0.249,0.137,0.48,0.176,0.787,0.189
			c0.295,0.028,0.587,0.088,0.867,0.181c1.128,0.375,2.052,1.126,2.922,1.873c0.872,0.752,1.699,1.561,2.662,2.172
			c1,0.543,2.025,1.111,2.94,1.813c0.924,0.693,1.783,1.467,2.595,2.286c0.404,0.41,0.803,0.827,1.19,1.252l0.58,0.64
			c0.202,0.199,0.356,0.473,0.609,0.577c0.267,0.097,0.546-0.071,0.753-0.251c0.214-0.188,0.397-0.41,0.568-0.64
			c0.342-0.462,0.636-0.957,0.926-1.454c0.29-0.497,0.567-1.001,0.871-1.491c0.154-0.242,0.31-0.488,0.51-0.696
			c0.095-0.093,0.23-0.221,0.375-0.152C98.433,97.843,98.465,97.999,98.5,98.134z"/>
	</g>
	<path fill="#A97C50" stroke="#000000" stroke-width="0.5" stroke-miterlimit="10" d="M37.25,83.542
		c4.907,8.855,1.636,5.705,0.595,14.534c-0.595,4.346,1.723,24.978,2.155,29.341c0.23,2.323-0.256,3.651-1,5.417
		c-0.744,1.63-1.23,3.098-1.528,4.864c1.278-2.197,2.379-1.901,2.974-3.124c0.446,0.815,1.188,0.958,2.763,4.656
		c-1.189-4.607-1.276-17.549-0.532-22.438c0.88-6.27,2.639-15.316,2.511-19.749c2.082,0.679,9.105,7.955,20.417,11.408
		c14.709,4.49,20.185,4.881,24.499,3.795c5.947-1.358,16.328-3.803,21.561-6.384c7.437-3.667,5.005-3.721,9.912-7.388
		c2.975-2.173,1.921-2.93,3.111,0.195c1.933,4.754,1.234,10.579,1.383,15.605c0,1.222-2.86,7.511-0.07,6.52
		c1.004-0.357,4.317,2.467,4.453,1.781c0.226-1.142-1.305-4.533-1.305-5.297c-0.298-5.569,1.486-11.002,1.19-16.572
		c-0.15-2.037-0.035-4.618-0.928-6.52c-0.594-1.223-0.892-3.396-1.784-4.347c-1.486-1.63-4.461-1.358-6.245-0.543
		c-2.23,1.086-5.711,1.762-8.069,2.935c-6.278,3.122-9.563,6.313-18.75,7.625c0,0,5.181-4.591,9.938-8.938
		c4.611-4.211,1.125-1.014,5.583-4.998c3.859-3.45,7.664-4.417,7.136-5.471l0,0c-2.772-4.66-7.232-2.957-9.59-1.651
		c-3.035,1.682-10.128,7.06-15.879,11.682c-3.864,3.124-3.724,3.339-8.04,3.699C79.43,94.536,63.252,87.952,61.319,87
		c-1.19-0.679,1.207-3.494-2.191-5.964c-3.69-2.683-5.69-2.245-8.202-0.493c-3.127,2.182-7.292,1.28-8.917-0.127"/>
	<path fill="#A97C50" stroke="#000000" stroke-width="0.5" stroke-miterlimit="10" d="M35.172,64.354
		c-0.579,8.937-4.389,10.863-5.087,14.824c-0.603,3.418,0.603,6.152,2.485,7.589c4.93,3.456,7.895,1.511,11.094-2.331
		c3.485-4.081,2.624-4.647,1.393-9.837c-1.231-5.189,2.041-10.79-1.229-14.468C42.672,58.864,35.359,61.453,35.172,64.354z"/>
	<path fill="none" stroke="#000000" stroke-width="0.5" stroke-miterlimit="10" d="M61.686,87.171
		c-1.708-0.685-5.436-2.192-6.248-2.504"/>
	<path fill="#F4D7B0" stroke="#000000" stroke-width="0.5" stroke-miterlimit="10" d="M31.036,78.135
		c0.688-0.094,0.875-0.438,1.25,0s0.702,0.625,0.57,1.25s1.062,0.282-0.289,1s-2.875,1.188-3.25,0.438S31.036,78.135,31.036,78.135z
		"/>
	<path fill="#F4D7B0" stroke="#000000" stroke-width="0.5" stroke-miterlimit="10" d="M30.896,76.315
		c1.432,3.522,0.123,6.25-2.367,8.858c-2.461,2.731-5.398,5.056-8.308,7.502c-1.272,1.183-3.154,2.502-4.1,3.995
		c-1.04,1.643-0.318,3.146-0.423,4.963c-0.505,4.597-4.047,3.086-7.504,3.094c1.991-0.832,0.24-2.072,1.213-3.443
		c0.445-0.869,2.627-1.135,2.692-2.559c0.092-1.302-0.451-1.436-1.469-1.976c-1.195-0.757-4.109-0.615-3.49-2.419
		c0.498-1.777,3.308-0.102,4.799-0.309c0.759-0.042,3.592-0.55,3.766-1.486c0.199-1.966-3.298-1.565-4.018-1.917
		c-2.457-1.242-1.212-2.546,0.971-2.524c1.79-0.018,3.445,0.508,5.302,0.219c1.83-0.411,2.519-1.334,1.227-3.094
		c-1.17-1.787-3.868-1.822-5.511-2.862c3.467-1.675,3.836-0.605,6.984,0.866c1.981,0.836,2.143,0.416,2.37-1.429
		c0.256-0.57-0.152-1.247,0.104-1.817c0.351-0.719,1.287-0.545,1.488-1.359c0.55-2.686-1.22-4.771-2.458-6.287
		c-2.27-2.693-1.669-3.676,0.882-2.583C23.049,69.75,30.065,74.324,30.896,76.315z"/>
	<path display="none" fill="#FFFFFF" stroke="#000000" stroke-miterlimit="10" d="M46.604,82.125
		c3.167,5.208,4.062,2.625,7.562,8.792s1.917,6.833,6.5,10.5s3.667,7.833,7.333,10.25s4.968,10.75,7.083,12.5s5.5,2.5,9.167,3.917
		s4.25-3.667,6.833,0.583c2.395,3.939,10.417,0.27,11.167,3.437c0.536,2.262,5.392,6.714,4.583,1.98
		c-1.666-9.75-3.583-5.167-7.166-13.403c-3.001-6.899-2.916-8.207-2.25-12.373s4.333-3.724,4.5-7.891
		c0.164-4.099,7.947-2.688-3.75-5.833c-9.917-2.667-6.168-5.25-11.834-2.583s-1,2.333-7.083,1.167s-7.086-3.294-10.67-3.21
		c-3.583,0.083,3.67,0.377,0.67,2.627s0.833,8.583-3.5,4.333c-4.503-4.416-7.401-6.702-10.771-11.167
		c-3.208-4.25-2.979-3.585-4.813-5.063S46.604,82.125,46.604,82.125z"/>
	<g display="none">
		<g display="inline">
			<path d="M48.524,83.006c4.298,3.714,7.322,8.375,10.178,13.242c0.93,1.585,1.782,3.158,2.875,4.636
				c1.286,1.738,3.988,2.588,5.6,4.171c1.921,1.887,4.219,3.403,6.225,5.204c2.073,1.863,3.419,4.355,4.909,6.668
				c1.427,2.214,2.931,4.196,4.89,5.963c1.89,1.704,4.317,2.533,6.156,4.365c0.107,0.106,0.561-0.071,0.451-0.18
				c-3.322-3.309-7.307-4.94-10.136-8.915c-1.644-2.309-2.915-4.712-4.697-6.918c-2.012-2.489-4.944-4.285-7.347-6.367
				c-1.371-1.188-2.402-2.371-4.07-3.114c-2.527-1.125-3.763-4.603-5.101-6.883c-2.61-4.448-5.56-8.663-9.482-12.053
				C48.859,82.727,48.414,82.911,48.524,83.006L48.524,83.006z"/>
		</g>
	</g>
	<g display="none">
		<g display="inline">
			<path d="M66.632,98.314c1.83,2.716,3.516,4.989,6.646,6.18c4.294,1.634,10.056,1.022,13.545,4.242
				c1.157,1.068,2.002,3.27,2.938,4.659c0.912,1.354,2.638,2.522,3.876,3.583c1.682,1.439,3.901,0.56,3.715,4.175
				c-0.043,0.835,2.149,1.559,2.259,1.638c0.254,0.185,1.124-0.198,0.902-0.359c-0.913-0.664-2.017-1.298-2.138-2.64
				c-0.045-0.491-0.003-1.35-0.599-1.631c-4.638-2.195-6.309-4.612-9.246-8.67c-2.126-2.936-4.76-3.227-8.146-3.867
				c-6.013-1.136-9.482-2.669-12.851-7.669C67.376,97.72,66.438,98.026,66.632,98.314L66.632,98.314z"/>
		</g>
	</g>
	<g display="none">
		<g display="inline">
			<path d="M82.926,113.398c0.851,3.823,4.291,6.305,7.592,8.007c2.232,1.152,4.431,0.865,5.927,3.231
				c1.243,1.964,1.694,4.385,2.814,6.429c0.063,0.114,0.519-0.065,0.482-0.13c-1.48-2.703-1.985-7.711-5.458-8.63
				c-4.518-1.194-9.773-4.083-10.875-9.036C83.387,113.171,82.901,113.291,82.926,113.398L82.926,113.398z"/>
		</g>
	</g>
	<g display="none">
		<g display="inline">
			<path d="M73.34,96.359c0.01,2.606,1.942,3.665,4.209,4.361c4.032,1.238,9.04,0.971,11.562,4.963
				c0.098,0.155,0.564-0.01,0.445-0.198c-1.667-2.641-4.488-3.447-7.393-4.131c-3.053-0.719-8.321-0.84-8.337-5.045
				C73.825,96.083,73.34,96.178,73.34,96.359L73.34,96.359z"/>
		</g>
	</g>
	<g display="none">
		<g display="inline">
			<path d="M88.315,95.227c2.009,1.914,4.096,3.777,5.714,6.048c0.134,0.188,0.592-0.005,0.441-0.217
				c-1.637-2.297-3.754-4.182-5.786-6.118C88.521,94.784,88.107,95.03,88.315,95.227L88.315,95.227z"/>
		</g>
	</g>
	<g display="none">
		<g display="inline">
			<path d="M48.759,80.896c1.999,3.134,5.254,5.108,7.271,8.213c2.183,3.362,3.866,6.638,7.119,9.119
				c0.181,0.139,0.597-0.116,0.369-0.289c-3.195-2.438-5.045-5.65-7.048-9.048c-1.876-3.183-5.278-5.09-7.271-8.213
				C49.075,80.482,48.618,80.674,48.759,80.896L48.759,80.896z"/>
		</g>
	</g>
	<g display="none">
		<g display="inline">
			<path d="M66.842,101.398c1.488,3.401,4.857,3.625,7.682,5.44c0.128,0.082,0.55-0.113,0.453-0.176
				c-2.786-1.791-6.179-2.028-7.651-5.393C67.263,101.128,66.792,101.284,66.842,101.398L66.842,101.398z"/>
		</g>
	</g>
	<g display="none">
		<g display="inline">
			<path d="M87.842,98.815c0.487,1.915,1.845,3.098,3.479,4.098c0.978,0.599,2.042,1.059,3.075,1.553
				c1.475,0.705,2.5,1.929,3.55,3.137c0.134,0.154,0.594-0.033,0.443-0.206c-1.499-1.726-2.833-2.819-4.897-3.807
				c-2.211-1.057-4.52-2.365-5.167-4.905C88.271,98.478,87.788,98.606,87.842,98.815L87.842,98.815z"/>
		</g>
	</g>
	<g>
		<g>
			<path d="M117.349,81.091c-1.481,0.903-2.635,2.164-4.195,2.972c-0.297,0.153-0.023,0.32,0.193,0.208
				c0.821-0.425,1.599-0.897,2.315-1.484c0.656-0.538,1.259-1.099,1.989-1.544C117.931,81.072,117.509,80.993,117.349,81.091
				L117.349,81.091z"/>
		</g>
	</g>
	<g>
		<g>
			<path d="M53.982,100.045c-0.115,0.356-0.388,0.57-0.657,0.814c-0.407,0.37-0.746,0.784-1.041,1.248
				c-0.204,0.321,0.709,0.245,0.786,0.232c0.383-0.064,0.902-0.203,1.125-0.553c0.292-0.459,0.658-0.827,1.058-1.189
				c0.271-0.246,0.525-0.519,0.639-0.873C56.036,99.28,54.149,99.526,53.982,100.045L53.982,100.045z"/>
		</g>
	</g>
	<g>
		<g>
			<path d="M66.742,107.276c-0.028,0.45-0.142,0.854-0.125,1.313c0.037,0.998,1.985,0.679,1.954-0.157
				c-0.017-0.458,0.097-0.862,0.125-1.313C68.757,106.134,66.794,106.428,66.742,107.276L66.742,107.276z"/>
		</g>
	</g>
	<g>
		<g>
			<path d="M60.498,104.985c-0.313,0.456-0.357,0.896-0.354,1.435c0.007,1.046,1.962,0.78,1.962-0.131c0-0.063,0-0.125,0-0.188
				c0-1.047-1.962-0.78-1.962,0.131c0,0.063,0,0.125,0,0.188c0.654-0.043,1.308-0.087,1.962-0.131
				c-0.001-0.169-0.04-0.602,0.021-0.69C62.829,104.574,61.023,104.219,60.498,104.985L60.498,104.985z"/>
		</g>
	</g>
	<g>
		<g>
			<path d="M74.368,108.463c-0.739,0.688-0.553,1.875-0.553,2.775c0,0.399,1.932,0.095,1.932-0.518c0-0.702-0.199-1.807,0.385-2.35
				c0.338-0.314-0.292-0.397-0.476-0.387C75.209,108.006,74.703,108.151,74.368,108.463L74.368,108.463z"/>
		</g>
	</g>
	<g>
		<g>
			<path d="M50,95.465c-1.16,0.618-1.693,1.897-2.659,2.729c-0.348,0.3,0.303,0.361,0.465,0.35c0.448-0.031,0.945-0.173,1.291-0.47
				c0.397-0.342,0.71-0.795,1.042-1.198c0.207-0.252,0.417-0.5,0.636-0.742c0.095-0.104,0.194-0.203,0.295-0.301
				c0.045-0.044,0.239-0.169,0.056-0.071c0.163-0.086,0.665-0.42,0.228-0.535C50.936,95.117,50.369,95.269,50,95.465L50,95.465z"/>
		</g>
	</g>
	<g>
		<path fill="#504942" d="M45.083,94.5c0.476,0.357,3.274,0.077,3.75,0.479c0.822,0.625,4.926,7.625,15.26,11.313
			c0.904,0.322,8.125,2.406,11.531,2.016c1.406,1.625,3.23,3.088,3.031,2.554c-1.001-2.684-1.094-9.351-0.156-11.788
			c1.1-2.859,2.974-3.695,4.781-5.375c-1.938-0.594-1.977,0.289-3.313-0.136c-2.08-0.66-14.438-6.958-22.031-7.644
			c-0.526-0.047-1.158-0.81-1.634-1.033c-0.822-0.402-0.866-0.219-0.981-0.871"/>
		<path d="M45.083,94.5c0.324,0.17,0.706,0.155,1.063,0.185l1.088,0.031c0.363,0.011,0.727,0.022,1.088,0.072
			c0.179,0.031,0.366,0.053,0.527,0.168c0.142,0.115,0.26,0.263,0.377,0.399c0.915,1.129,1.842,2.245,2.868,3.271
			c2.04,2.062,4.372,3.827,6.899,5.241c2.534,1.411,5.236,2.488,8.071,3.116c1.407,0.345,2.825,0.649,4.253,0.876
			c1.423,0.214,2.877,0.402,4.287,0.257l0.1-0.01l0.066,0.075c0.639,0.721,1.333,1.402,2.072,2.014
			c0.186,0.151,0.375,0.3,0.565,0.426c0.081,0.057,0.224,0.13,0.23,0.127c-0.027,0.001-0.021-0.014-0.109,0.028
			c-0.063,0.03-0.088,0.146-0.083,0.142c0.004,0.051,0.001,0.02-0.011-0.007l-0.06-0.173c-0.164-0.482-0.271-0.964-0.363-1.451
			c-0.349-1.947-0.438-3.915-0.387-5.879c0.03-0.982,0.102-1.966,0.267-2.945c0.146-0.986,0.504-1.965,1.026-2.815
			c1.027-1.785,2.821-2.822,4.221-4.104l0.081,0.353c-0.584-0.186-1.172-0.291-1.753-0.151c-0.292,0.065-0.643,0.15-0.987,0.108
			c-0.345-0.036-0.655-0.151-0.952-0.266c-1.175-0.476-2.31-1.005-3.46-1.511c-2.294-1.021-4.598-2.016-6.937-2.924
			c-2.338-0.906-4.708-1.737-7.129-2.387c-1.21-0.32-2.437-0.587-3.68-0.741c-0.157-0.021-0.307-0.028-0.471-0.058
			c-0.171-0.038-0.313-0.12-0.447-0.208c-0.267-0.179-0.499-0.392-0.743-0.586c-0.237-0.202-0.519-0.329-0.807-0.459
			c-0.138-0.068-0.304-0.11-0.405-0.246c-0.089-0.139-0.1-0.301-0.127-0.454c0.035,0.151,0.058,0.315,0.148,0.438
			c0.098,0.118,0.262,0.152,0.404,0.212c0.292,0.108,0.595,0.231,0.842,0.436c0.505,0.383,0.95,0.848,1.62,0.791
			c1.254,0.132,2.492,0.379,3.715,0.679c2.448,0.598,4.83,1.427,7.18,2.32c2.35,0.897,4.666,1.879,6.968,2.887
			c1.151,0.499,2.298,1.024,3.454,1.484c0.589,0.254,1.118,0.313,1.732,0.112c0.649-0.171,1.349-0.061,1.957,0.124l0.347,0.105
			l-0.266,0.248c-1.447,1.345-3.157,2.369-4.088,4.045c-1.016,1.63-1.138,3.6-1.23,5.528c-0.058,1.932,0.024,3.884,0.356,5.78
			c0.088,0.471,0.191,0.944,0.34,1.386l0.06,0.173c0.006,0.031,0.031,0.057,0.033,0.169c0.009,0.024-0.027,0.178-0.118,0.22
			c-0.112,0.063-0.14,0.039-0.197,0.042c-0.232-0.057-0.293-0.132-0.417-0.204c-0.214-0.146-0.406-0.303-0.596-0.463
			c-0.752-0.645-1.442-1.346-2.085-2.095l0.165,0.065c-1.49,0.134-2.945-0.079-4.383-0.31c-1.438-0.246-2.858-0.568-4.268-0.931
			c-2.835-0.663-5.563-1.796-8.092-3.229c-2.528-1.446-4.854-3.242-6.881-5.329c-1.019-1.039-1.939-2.169-2.842-3.304
			c-0.118-0.14-0.227-0.279-0.366-0.395c-0.136-0.102-0.324-0.133-0.499-0.165c-0.357-0.055-0.721-0.07-1.083-0.087l-1.088-0.047
			C45.789,94.666,45.406,94.676,45.083,94.5z"/>
	</g>
	<g>
		<g>
			<path d="M76.046,107.912c-0.611-4.94,0.194-11.261,4.857-14.16c0.415-0.257-0.561-0.161-0.744-0.047
				c-4.786,2.974-5.717,9.315-5.08,14.465C75.105,108.38,76.079,108.182,76.046,107.912L76.046,107.912z"/>
		</g>
	</g>
	<g>
		<path fill="#EB7125" d="M49,87.25c-0.667-0.25-1.5-0.083-2.083,0.333c-0.917,0.583-2.25,1.083-3.333,1.083
			c-0.917,0-2.563-0.437-3.333,0.083s-1.75,7.729-1.75,7.729c0-0.5,1.937-2.917,2.354-3.25c1-0.667,2.125-0.646,3.292-0.813
			c1.083-0.167,1.822-1.139,2.979-0.848c2.125,0.535,0.978-1.098,2.958-1.777"/>
		<path d="M49,87.25c-1.498-0.447-2.458,1.072-3.917,1.393c-0.688,0.235-1.469,0.347-2.203,0.26
			c-0.712-0.047-1.425-0.145-2.035-0.034c-0.144,0.035-0.286,0.075-0.384,0.145c-0.025-0.007-0.108,0.138-0.168,0.282
			c-0.124,0.296-0.22,0.634-0.308,0.969c-0.173,0.676-0.313,1.37-0.442,2.064c-0.248,1.393-0.478,2.797-0.689,4.197l-0.712-0.048
			c0.045-0.371,0.15-0.457,0.234-0.64c0.091-0.158,0.186-0.306,0.283-0.45c0.194-0.289,0.397-0.564,0.606-0.836
			s0.421-0.538,0.642-0.8c0.232-0.267,0.422-0.509,0.736-0.788l0.007-0.006l0.016-0.011c0.809-0.533,1.767-0.671,2.621-0.73
			c0.429-0.042,0.875-0.047,1.223-0.163c0.379-0.116,0.754-0.332,1.172-0.504c0.412-0.174,0.917-0.288,1.376-0.152
			c0.422,0.11,0.843,0.237,1.185,0.075c0.325-0.179,0.438-0.674,0.731-1.004c0.286-0.35,0.695-0.558,1.108-0.678
			c-0.401,0.159-0.775,0.403-1.011,0.752c-0.267,0.326-0.293,0.803-0.72,1.115c-0.453,0.254-0.951,0.101-1.352,0.044
			c-0.395-0.061-0.774,0.058-1.143,0.236c-0.371,0.183-0.734,0.431-1.174,0.603c-0.468,0.184-0.903,0.2-1.329,0.272
			c-0.851,0.121-1.671,0.241-2.313,0.696l0.023-0.017c-0.189,0.17-0.427,0.454-0.63,0.699c-0.211,0.255-0.416,0.517-0.615,0.782
			c-0.199,0.265-0.393,0.534-0.572,0.806c-0.089,0.136-0.175,0.273-0.251,0.408c-0.071,0.111-0.148,0.324-0.138,0.292l-0.712-0.048
			c0.185-1.421,0.402-2.832,0.688-4.237c0.142-0.703,0.293-1.405,0.484-2.107c0.099-0.352,0.2-0.7,0.355-1.06
			c0.091-0.169,0.144-0.388,0.434-0.579c0.201-0.128,0.411-0.179,0.612-0.224c0.803-0.129,1.522,0.018,2.22,0.113
			c0.682,0.123,1.346,0.068,2.021-0.11c0.666-0.177,1.325-0.437,1.93-0.775C47.528,87.067,48.338,86.952,49,87.25z"/>
	</g>
	<g>
		<path fill="#EB7125" d="M51.917,88.583c0.083,0.333,0.667,0.167,1,0.083c0.75-0.167,1-0.75,1-1.5c0-2.083,0-5,3.083-4.167
			c0.5,0.083,1.681,2.416,3.953,3.166c1.193-8.062-9.365-8.221-11.094-5.7c-3.306-0.088-3.296,2.513-2.671,1.825
			c2.583-0.333,2.5,2.667,2.5,4.333"/>
		<path d="M51.917,88.583c0.065,0.214,0.326,0.202,0.503,0.175c0.194-0.03,0.384-0.087,0.573-0.142
			c0.377-0.102,0.676-0.402,0.772-0.773c0.115-0.367,0.067-0.762,0.067-1.16c-0.007-0.396-0.005-0.794,0.021-1.194
			c0.061-0.783,0.187-1.649,0.8-2.284c0.65-0.645,1.637-0.583,2.396-0.382l-0.018-0.004c0.35,0.118,0.431,0.301,0.602,0.455
			l0.431,0.48c0.284,0.316,0.571,0.623,0.876,0.907c0.609,0.568,1.307,1.04,2.084,1.291l-0.293,0.181
			c0.186-1.29,0.086-2.643-0.521-3.776c-0.598-1.133-1.652-1.983-2.854-2.472c-1.203-0.496-2.535-0.688-3.842-0.624
			c-0.654,0.035-1.305,0.138-1.925,0.328c-0.611,0.191-1.225,0.486-1.588,0.974l-0.058,0.078l-0.088-0.003
			c-0.693-0.025-1.406,0.062-2,0.395c-0.292,0.167-0.551,0.398-0.715,0.684c-0.165,0.25-0.221,0.773-0.036,0.498l0.021-0.032
			l0.05-0.005c0.496-0.053,1.04,0,1.47,0.296c0.433,0.292,0.684,0.764,0.823,1.234c0.277,0.956,0.238,1.947,0.221,2.917
			c-0.021-0.97-0.024-1.965-0.331-2.882c-0.153-0.451-0.411-0.88-0.808-1.124c-0.394-0.25-0.884-0.279-1.347-0.213l0.071-0.037
			c-0.072,0.061-0.148,0.195-0.363,0.14c-0.179-0.105-0.164-0.252-0.171-0.351c0.006-0.213,0.076-0.399,0.168-0.571
			c0.186-0.342,0.477-0.61,0.8-0.806c0.659-0.389,1.425-0.495,2.157-0.486l-0.146,0.074c0.434-0.612,1.1-0.933,1.745-1.161
			c0.656-0.228,1.341-0.337,2.025-0.381c1.368-0.08,2.76,0.104,4.046,0.619c1.276,0.507,2.468,1.414,3.108,2.683
			c0.658,1.26,0.741,2.722,0.533,4.069l-0.041,0.265l-0.252-0.084c-0.854-0.286-1.602-0.805-2.235-1.407
			c-0.32-0.299-0.61-0.625-0.888-0.955l-0.413-0.487c-0.123-0.146-0.313-0.333-0.376-0.35l-0.038-0.01l0.021,0.006
			c-0.718-0.208-1.555-0.264-2.09,0.247c-0.533,0.506-0.689,1.325-0.781,2.085c-0.043,0.388-0.064,0.781-0.077,1.175
			c-0.019,0.388,0.013,0.803-0.13,1.194c-0.121,0.396-0.47,0.709-0.866,0.793c-0.193,0.045-0.386,0.094-0.584,0.114
			C52.243,88.806,51.971,88.802,51.917,88.583z"/>
	</g>
	<g>
		<path fill="#FCEE22" d="M49.708,86.292c-1.241,0.438-1.521,2.417,0.063,3.417c0.917,0.583,2.417-0.333,2.333-1.417
			c-0.083-1-2.188-2.266-2.667-1.708"/>
		<path d="M49.708,86.292c-0.858,0.415-1.067,1.495-0.711,2.236c0.177,0.378,0.46,0.7,0.816,0.925
			c0.061,0.038,0.064,0.045,0.123,0.072c0.048,0.021,0.11,0.062,0.146,0.067c0.071,0.023,0.156,0.041,0.253,0.05
			c0.188,0.01,0.383-0.026,0.568-0.096c0.752-0.251,1.33-1.174,0.732-1.822c-0.248-0.345-0.595-0.642-0.97-0.876
			c-0.186-0.121-0.384-0.229-0.595-0.298c-0.204-0.061-0.449-0.118-0.633,0.035c0.147-0.199,0.439-0.201,0.664-0.163
			c0.237,0.037,0.463,0.117,0.681,0.212c0.427,0.208,0.823,0.482,1.153,0.853c0.162,0.19,0.311,0.396,0.374,0.696
			c0.042,0.268,0.005,0.553-0.101,0.8c-0.227,0.49-0.646,0.845-1.129,1.031c-0.245,0.088-0.51,0.135-0.782,0.115
			c-0.132-0.014-0.271-0.041-0.417-0.099c-0.074-0.025-0.108-0.053-0.164-0.08c-0.047-0.021-0.135-0.083-0.17-0.109
			c-0.402-0.29-0.747-0.692-0.904-1.174c-0.163-0.474-0.161-1.002,0.027-1.458C48.863,86.761,49.25,86.389,49.708,86.292z"/>
	</g>
	<g>
		<path fill="#625D55" d="M37.6,96.497c0.267,0.745,0.82,2.959,1.163,3.678c0.122,0.222,1.252,1.719,1.352,1.64
			c0,0,0.309-1.394,0.497-1.815c0.308-0.686,0.93-1.439,1.538-1.878c0.546-0.373,1.163-0.549,1.765-0.765
			c0.453-0.162,1.318-0.472,1.318-0.472c-0.432-0.376-0.698-1.476-0.805-2.013c-0.117-0.445-0.017-0.879-0.059-1.351
			c-0.033-0.209-0.616-0.996-0.607-1.088"/>
		<path d="M37.6,96.497c0.385,0.927,0.661,1.894,1.018,2.822c0.088,0.231,0.182,0.462,0.279,0.678
			c0.084,0.183,0.268,0.369,0.418,0.563l0.484,0.56l0.249,0.264l0.123,0.118l0.053,0.042c0-0.002-0.002-0.005-0.005-0.006
			c-0.017-0.005,0.039,0.014-0.062-0.023c-0.08-0.024-0.189,0.013-0.232,0.06l-0.108,0.172c0.131-0.651,0.225-1.229,0.487-1.938
			c0.285-0.611,0.711-1.177,1.205-1.643c0.494-0.491,1.203-0.783,1.8-0.978l1.822-0.588l-0.096,0.508
			c-0.37-0.395-0.466-0.802-0.59-1.201c-0.106-0.402-0.185-0.803-0.229-1.208c-0.03-0.451,0.089-0.841,0.062-1.208
			c-0.125-0.336-0.381-0.689-0.516-1.06c0.189,0.357,0.48,0.619,0.671,1.02c0.095,0.425,0.045,0.842,0.129,1.187
			c0.099,0.381,0.201,0.762,0.34,1.123c0.133,0.349,0.316,0.728,0.527,0.897l0.386,0.309l-0.482,0.199
			c-0.591,0.245-1.188,0.469-1.788,0.697c-0.602,0.222-1.11,0.429-1.528,0.854c-0.437,0.407-0.806,0.87-1.07,1.413
			c-0.21,0.479-0.369,1.162-0.536,1.75l-0.032,0.113l-0.076,0.059c-0.059,0.046-0.184,0.081-0.279,0.055
			c-0.117-0.034-0.072-0.03-0.103-0.042l-0.082-0.06l-0.085-0.084l-0.133-0.156l-0.237-0.308l-0.438-0.623
			c-0.134-0.214-0.294-0.406-0.408-0.684c-0.098-0.245-0.163-0.488-0.23-0.732C38.049,98.445,37.844,97.468,37.6,96.497z"/>
	</g>
	<g>
		<path fill="#625D55" d="M38.009,92.712c-0.073,0.788-0.515,3.028-0.504,3.824c0.019,0.253,0.436,2.09,0.564,2.061
			c0,0,0.899-1.131,1.261-1.432c0.589-0.49,1.506-0.908,2.272-1.046c0.679-0.105,1.339-0.002,2.003,0.059
			c0.498,0.046,1.452,0.134,1.452,0.134c-0.244-0.525-0.017-1.634,0.116-2.166c0.083-0.453,0.366-0.803,0.533-1.248
			c0.061-0.204-0.149-1.164-0.1-1.244"/>
		<path d="M38.009,92.712c-0.044,1.005-0.206,2-0.275,2.994c-0.018,0.247-0.031,0.497-0.032,0.732c0,0.184,0.094,0.456,0.15,0.685
			l0.211,0.711l0.119,0.344l0.064,0.157l0.03,0.059c0.001,0,0.011,0.016,0.001,0c-0.004-0.004,0-0.004-0.033-0.037
			c-0.019-0.014-0.016-0.014-0.055-0.035c-0.054-0.029-0.132-0.037-0.188-0.021l-0.17,0.107c0.415-0.542,0.765-1.043,1.332-1.568
			c0.55-0.437,1.192-0.757,1.862-0.965c0.726-0.235,1.431-0.177,2.1-0.105l1.959,0.244l-0.298,0.422
			c-0.179-0.514-0.094-0.928-0.038-1.343c0.074-0.411,0.173-0.808,0.307-1.195c0.167-0.422,0.447-0.723,0.58-1.065
			c0.028-0.357-0.063-0.786-0.03-1.18c0.022,0.405,0.183,0.763,0.188,1.21c-0.098,0.426-0.327,0.781-0.398,1.127
			c-0.074,0.387-0.144,0.776-0.171,1.161c-0.027,0.373-0.02,0.794,0.104,1.033l0.23,0.445l-0.528-0.022
			c-0.66-0.028-1.313-0.079-1.975-0.127c-0.632-0.058-1.282-0.084-1.815,0.113c-0.588,0.174-1.153,0.44-1.639,0.815
			c-0.424,0.344-0.871,0.906-1.295,1.375l-0.078,0.086l-0.092,0.021c-0.063,0.015-0.149,0.005-0.21-0.025
			c-0.046-0.024-0.048-0.031-0.073-0.05c-0.046-0.042-0.05-0.055-0.063-0.072c-0.029-0.042-0.031-0.055-0.046-0.082l-0.044-0.113
			l-0.059-0.198l-0.09-0.378l-0.146-0.749c-0.036-0.26-0.1-0.475-0.092-0.794c0.014-0.265,0.058-0.514,0.1-0.764
			C37.587,94.671,37.818,93.698,38.009,92.712z"/>
	</g>
	<g>
		<path fill="#625D55" d="M39.474,89.175c0.008-0.083-0.208,0.441-0.257,0.521c-0.306,0.6-0.612,1.199-0.835,1.806
			c-0.182,0.611-0.405,1.218-0.583,1.787c-0.216,0.524-0.167,0.906-0.175,1.449c0.34-0.053,1.203-0.246,1.433-0.475
			c0.328-0.388,0.732-0.686,1.136-0.983c0.528-0.286,1.419-0.414,2.007-0.443c0.671-0.022,1.328,0.122,1.992,0.183
			c0.498,0.046,1.124,0.061,1.482,0.262c-1.003-0.009-0.262-2.158,0.157-2.622c-0.946-0.171-1.992-0.183-2.946-0.271
			c-0.581-0.053-2.861-0.367-3.139-0.979"/>
		<path d="M39.474,89.175c-0.022,0.007-0.04,0.081-0.058,0.119l-0.052,0.14c-0.036,0.095-0.064,0.186-0.109,0.285l0.001-0.003
			c-0.254,0.594-0.52,1.183-0.707,1.789c-0.079,0.294-0.158,0.621-0.255,0.929l-0.271,0.925l-0.002,0.007l-0.005,0.013
			c-0.166,0.415-0.123,0.846-0.107,1.363l-0.331-0.288c0.231-0.047,0.473-0.111,0.7-0.185c0.113-0.038,0.226-0.075,0.327-0.119
			c0.098-0.039,0.203-0.102,0.218-0.121l-0.019,0.021c0.351-0.429,0.778-0.754,1.175-1.058l0.02-0.015l0.022-0.011
			c0.49-0.252,0.973-0.352,1.456-0.427c0.248-0.038,0.469-0.06,0.745-0.074c0.219-0.006,0.502,0.005,0.735,0.028
			c0.484,0.051,0.935,0.134,1.382,0.171c0.458,0.059,0.938,0.024,1.506,0.308l1.299,0.647l-1.475,0.016
			c-0.185,0.002-0.437-0.079-0.594-0.257c-0.155-0.175-0.201-0.367-0.226-0.528c-0.04-0.327,0.009-0.604,0.069-0.874
			c0.064-0.268,0.148-0.524,0.26-0.771c0.118-0.249,0.223-0.481,0.444-0.733l0.157,0.462c-0.998-0.222-2.058-0.242-3.113-0.416
			c-0.526-0.087-1.046-0.198-1.557-0.347c-0.485-0.166-1.073-0.299-1.365-0.763c0.335,0.417,0.916,0.472,1.405,0.601
			c0.512,0.101,1.033,0.166,1.552,0.206c1.039,0.049,2.097,0.022,3.177,0.168l0.463,0.063l-0.305,0.4
			c-0.105,0.138-0.211,0.374-0.289,0.59c-0.079,0.223-0.148,0.451-0.192,0.677c-0.044,0.224-0.065,0.457-0.034,0.633
			c0.06,0.197,0.047,0.167,0.154,0.18l-0.176,0.664c-0.276-0.136-0.764-0.162-1.223-0.196c-0.482-0.035-0.949-0.114-1.392-0.155
			c-0.229-0.022-0.413-0.035-0.659-0.032c-0.188,0.009-0.433,0.027-0.645,0.058c-0.436,0.057-0.876,0.162-1.221,0.327l0.042-0.026
			c-0.41,0.289-0.797,0.567-1.097,0.909l-0.015,0.017l-0.004,0.003c-0.174,0.152-0.306,0.195-0.441,0.252
			c-0.134,0.051-0.263,0.092-0.394,0.124c-0.261,0.065-0.515,0.114-0.785,0.15l-0.343,0.045l0.013-0.333
			c0.018-0.455,0.003-1.037,0.244-1.534l-0.007,0.02l0.681-1.824c0.267-0.603,0.59-1.165,0.921-1.72l0.003-0.005l-0.001,0.002
			c0.049-0.076,0.097-0.17,0.145-0.256l0.073-0.131C39.42,89.25,39.446,89.179,39.474,89.175z"/>
	</g>
	<g>
		<path fill="#625D55" d="M46.375,90.333c-0.5,0.708-0.875,1.542-1,2.417c-0.125,0.833,0.167,2.083,1.292,1.667
			c1-0.375,1.417-1.583,1.083-2.5c-0.167-0.333-0.875-1.667-1.417-1.208"/>
		<path d="M46.375,90.333c-0.298,0.635-0.526,1.274-0.636,1.925c-0.063,0.314-0.095,0.666-0.066,0.943
			c0.022,0.299,0.118,0.597,0.256,0.77c0.188,0.322,0.854,0.092,1.203-0.327c0.361-0.423,0.525-1.066,0.375-1.64l0.012,0.027
			c-0.119-0.312-0.271-0.614-0.437-0.9c-0.087-0.14-0.184-0.275-0.307-0.373c-0.118-0.096-0.283-0.149-0.442-0.05
			c0.104-0.149,0.352-0.186,0.525-0.094c0.178,0.078,0.323,0.2,0.457,0.326c0.271,0.253,0.472,0.555,0.666,0.861l0,0l0.012,0.027
			c0.313,0.731,0.201,1.615-0.298,2.271c-0.242,0.314-0.629,0.594-1.018,0.706c-0.201,0.064-0.453,0.088-0.703,0.026
			c-0.252-0.06-0.483-0.229-0.618-0.421c-0.503-0.785-0.333-1.614-0.112-2.283C45.486,91.442,45.885,90.829,46.375,90.333z"/>
	</g>
	<g>
		<path fill="#615D55" d="M51.328,80.057c-1.575-0.496,3.063-0.859,3.188-0.859c0.542-0.083,1.193-0.17,1.734-0.17
			c0.375,0,2.625,0.347,2.583,0.805L59,80.083c0.083-0.083,0.208,0.375,0.25,0.5c0.125,0.417,0.208,0.792,0.208,1.208
			c0,0.458,0.042,0.833-0.125,1.25c-0.042,0.292-0.125,0.875-0.375,0.958l-0.552,0.526c-0.953-1.763-3.865-0.859-3.865-0.859
			c-0.667,0-0.677-0.271-1.302-0.063c-0.542,0.208-0.289,1.574-0.465,1.563c-1.181-0.078-1.844-2.734-2.149-3.063
			c-0.849-0.913-3.4-1.344-3.608-0.844l1.28-0.828c0.042-0.25,0.948-0.302,1.156-0.594c0.417-0.583,2.234-1.136,2.859-1.219
			c0.292-0.042,1.833-0.12,1.875-0.453c-0.042,0-0.438,0.708-0.438,0.708c0,0.667-0.042,1.375,0.042,2.042
			c0.042,0.417,0.083,0.833,0.333,1.167c0.208,0.25,0.542,0.375,0.75,0.542"/>
		<path d="M51.328,80.057c-0.08-0.026-0.159-0.053-0.233-0.094c-0.083-0.026-0.134-0.145-0.042-0.198
			c0.139-0.1,0.307-0.138,0.468-0.185c0.326-0.084,0.658-0.139,0.99-0.191c0.666-0.099,1.33-0.175,2.005-0.228l-0.005,0
			c0.372-0.076,0.746-0.141,1.125-0.186c0.371-0.049,0.776-0.069,1.156-0.012c0.38,0.043,0.758,0.102,1.136,0.188
			c0.189,0.043,0.377,0.094,0.567,0.164c0.095,0.037,0.191,0.077,0.289,0.14c0.083,0.063,0.239,0.143,0.244,0.396l-0.032-0.125
			l0.172,0.246l-0.31-0.032c0.061-0.096,0.277-0.068,0.301-0.023c0.056,0.042,0.068,0.067,0.085,0.089
			c0.032,0.047,0.046,0.08,0.063,0.116c0.032,0.069,0.056,0.134,0.079,0.198c0.043,0.121,0.086,0.253,0.123,0.378
			c0.077,0.244,0.138,0.525,0.171,0.794c0.023,0.288,0.03,0.525,0.037,0.796c0.003,0.27-0.024,0.574-0.131,0.855l0.017-0.062
			c-0.022,0.178-0.046,0.366-0.096,0.561c-0.026,0.098-0.056,0.198-0.11,0.307c-0.056,0.103-0.132,0.248-0.345,0.333l0.11-0.066
			L58.62,84.75l-0.277,0.273l-0.209-0.351c-0.154-0.258-0.359-0.473-0.625-0.616c-0.264-0.146-0.572-0.229-0.895-0.264
			c-0.641-0.071-1.344,0.026-1.969,0.205l-0.046,0.013l-0.057,0.002c-0.248,0.01-0.566-0.056-0.753-0.113
			c-0.087-0.02-0.132-0.022-0.206-0.013c-0.037,0.006-0.076,0.014-0.119,0.026l-0.066,0.02l-0.033,0.01l-0.008,0.003
			c0.027-0.012-0.063,0.028,0.06-0.027l-0.002,0.001l-0.005,0.002l-0.018,0.011c-0.046,0.007-0.087,0.12-0.122,0.316
			c-0.024,0.189-0.041,0.397-0.052,0.633l-0.019,0.198c-0.008,0.046-0.012,0.084-0.037,0.158c-0.026,0.06-0.042,0.1-0.099,0.164
			c-0.053,0.054-0.141,0.103-0.225,0.116l-0.06,0.007l-0.054-0.003l-0.011-0.001c-0.08,0-0.328-0.066-0.437-0.129
			c-0.271-0.14-0.465-0.335-0.627-0.532c-0.321-0.398-0.53-0.825-0.726-1.248c-0.191-0.414-0.356-0.875-0.528-1.22
			c-0.128-0.207-0.551-0.459-0.92-0.609c-0.388-0.161-0.806-0.276-1.224-0.345c-0.208-0.033-0.418-0.054-0.615-0.051
			c-0.098,0-0.192,0.01-0.266,0.026c-0.082,0.006-0.107,0.071-0.046-0.025l-0.491-0.41l1.283-0.823l-0.145,0.221
			c0.08-0.286,0.232-0.318,0.306-0.371c0.09-0.047,0.162-0.07,0.234-0.096l0.391-0.115c0.118-0.032,0.235-0.073,0.29-0.107
			c0.017-0.008,0.021-0.014,0.024-0.014l0.075-0.083c0.035-0.045,0.119-0.115,0.185-0.17c0.504-0.368,1.02-0.538,1.547-0.717
			c0.517-0.162,1.078-0.31,1.63-0.333c0.266-0.022,0.53-0.048,0.787-0.089c0.126-0.022,0.255-0.045,0.368-0.081
			c0.112-0.015,0.225-0.128,0.19-0.059l0.189,0.213c0.037,0.004,0.086-0.014,0.114-0.041c0.014-0.013,0.003-0.002,0.006-0.005
			l-0.006,0.007l-0.025,0.034l-0.054,0.081l-0.109,0.173l-0.213,0.354l0.022-0.084c-0.027,0.708-0.094,1.396-0.032,2.089
			c0.021,0.347,0.053,0.692,0.213,0.99c0.155,0.306,0.504,0.446,0.771,0.671c-0.282-0.195-0.652-0.297-0.862-0.616
			c-0.204-0.308-0.261-0.681-0.309-1.025c-0.116-0.7-0.102-1.417-0.127-2.108l-0.001-0.042l0.023-0.043l0.202-0.37l0.106-0.185
			l0.059-0.094L54,78.091l0.027-0.034l0.023-0.025c0.035-0.032,0.091-0.054,0.136-0.055l0.271-0.008l-0.083,0.221
			c-0.125,0.337-0.318,0.31-0.447,0.383c-0.143,0.048-0.279,0.077-0.417,0.104c-0.274,0.052-0.546,0.086-0.816,0.116
			c-0.528,0.035-1.011,0.196-1.514,0.373c-0.483,0.181-0.995,0.395-1.35,0.684c-0.189,0.418-1.347,0.8-1.21,0.636l-0.23,0.276
			l0.084-0.055l-1.276,0.833l-1.091,0.712l0.6-1.123c0.164-0.306,0.377-0.327,0.509-0.371c0.147-0.034,0.279-0.044,0.406-0.047
			c0.255-0.005,0.496,0.019,0.734,0.054c0.474,0.074,0.934,0.197,1.382,0.377c0.443,0.208,0.891,0.364,1.273,0.912
			c0.232,0.463,0.367,0.858,0.558,1.263c0.183,0.395,0.384,0.783,0.634,1.087c0.124,0.151,0.262,0.277,0.395,0.343
			c0.094,0.034,0.064,0.042,0.21,0.058l0.01,0.001l0.003,0l-0.047-0.004l-0.05,0.002c-0.071,0.007-0.147,0.05-0.187,0.099
			c-0.041,0.043-0.046,0.055-0.06,0.089c-0.008,0.021-0.003,0.002-0.002-0.007l0.008-0.139c0.009-0.216,0.002-0.46,0.049-0.718
			c0.029-0.133,0.053-0.266,0.126-0.417c0.03-0.074,0.081-0.149,0.147-0.232c0.045-0.048,0.095-0.093,0.147-0.131
			c0.041-0.028,0.054-0.031,0.082-0.047l0.019-0.01l0.072-0.032l0.012-0.003l0.047-0.014l0.097-0.027
			c0.066-0.017,0.138-0.03,0.213-0.04c0.151-0.02,0.334,0,0.466,0.037c0.245,0.074,0.373,0.103,0.579,0.106l-0.103,0.016
			c0.744-0.198,1.479-0.29,2.254-0.198c0.383,0.048,0.775,0.155,1.132,0.359c0.357,0.202,0.667,0.515,0.854,0.883l-0.486-0.077
			l0.562-0.516l0.03-0.027l0.081-0.039c-0.043,0.021-0.007,0.012,0.018-0.04c0.028-0.049,0.054-0.118,0.077-0.19
			c0.045-0.148,0.076-0.313,0.104-0.485l0.006-0.038l0.01-0.024c0.085-0.199,0.119-0.415,0.127-0.659
			c0.006-0.244,0.009-0.522,0.001-0.749c-0.021-0.243-0.056-0.469-0.123-0.72c-0.03-0.124-0.061-0.238-0.099-0.362l-0.056-0.165
			l-0.026-0.055c0-0.005-0.008-0.005,0.022,0.017c0,0.019,0.178,0.053,0.215-0.022l-0.125,0.26l-0.185-0.292l-0.161-0.254
			l-0.344-0.543l0.313,0.418c0.047,0.064-0.133-0.123-0.283-0.168c-0.161-0.073-0.335-0.133-0.512-0.187
			c-0.354-0.106-0.721-0.19-1.089-0.259c-0.718-0.16-1.487-0.028-2.234,0.032l-0.005,0h-0.001c-0.664,0.041-1.336,0.105-2,0.191
			c-0.332,0.045-0.664,0.094-0.99,0.172c-0.16,0.042-0.33,0.079-0.466,0.174c-0.088,0.049-0.044,0.156,0.038,0.187
			C51.169,80,51.249,80.029,51.328,80.057z"/>
	</g>
	<g>
		<path fill="#625D55" d="M53.25,83.458c0-0.042,0-0.083,0-0.125c-0.625,0.292-0.583,1.333-0.167,1.75
			c0.667,0.708,1.542,0.542,1.958-0.333c0.208-0.542,0.375-1.5-0.125-1.875c-0.417-0.25-1.167-0.083-1.125,0.5"/>
		<path d="M53.25,83.458l-0.028-0.125l0.04,0.025c-0.294,0.229-0.325,0.59-0.274,0.898c0.025,0.156,0.084,0.306,0.154,0.43
			c0.075,0.129,0.152,0.182,0.307,0.302c0.222,0.165,0.499,0.216,0.709,0.146c0.221-0.071,0.413-0.279,0.553-0.542L54.7,84.619
			c0.201-0.523,0.354-1.233,0.07-1.548l0.021,0.014c-0.124-0.11-0.347-0.164-0.554-0.142c-0.21,0.02-0.404,0.168-0.445,0.432
			c-0.036-0.121-0.04-0.271,0.034-0.4c0.068-0.131,0.189-0.231,0.32-0.298c0.266-0.134,0.587-0.154,0.897-0.011l-0.008-0.004
			l0.029,0.018c0.197,0.121,0.328,0.326,0.401,0.52c0.076,0.198,0.104,0.396,0.106,0.587c0.006,0.383-0.058,0.742-0.188,1.095
			l-0.002,0.007l-0.009,0.019c-0.177,0.392-0.509,0.79-1.009,0.927c-0.504,0.148-1.013-0.059-1.342-0.374
			c-0.124-0.119-0.308-0.338-0.376-0.551c-0.08-0.212-0.096-0.431-0.081-0.642c0.025-0.411,0.275-0.864,0.673-0.96l0.048-0.012
			l-0.008,0.037L53.25,83.458z"/>
	</g>
	<g>
		<path d="M59.719,108.698c0.281,0.604,0.672,1.154,1.162,1.602c0.486,0.452,1.06,0.796,1.663,1.065
			c0.604,0.271,1.241,0.459,1.882,0.632c0.633,0.2,1.312,0.261,1.902,0.718l-0.005-0.005c0.568,0.535,0.798,1.243,1.079,1.899
			c0.265,0.668,0.496,1.346,0.784,1.986c0.145,0.314,0.307,0.639,0.517,0.861c0.239,0.243,0.52,0.452,0.806,0.659l1.762,1.221
			c0.574,0.438,1.183,0.846,1.612,1.532c0.181,0.315,0.35,0.693,0.381,1.096c0.041,0.408-0.073,0.802-0.162,1.134
			c-0.206,0.644-0.084,1.306,0.254,1.853c0.37,0.437,1.088,0.734,1.717,1.006c0.654,0.275,1.328,0.522,1.985,0.846
			c0.328,0.165,0.656,0.343,0.953,0.605c0.149,0.142,0.281,0.266,0.387,0.521c0.053,0.15,0.097,0.384,0.096,0.583
			c-0.044,1.526-0.74,2.833-0.852,4.214c-0.053,0.673,0.299,1.298,0.689,1.881c0.398,0.576,0.861,1.135,1.295,1.689
			c1.01,0.964,2.397,1.578,3.293,2.704c-0.941-1.092-2.32-1.625-3.415-2.588c-0.473-0.549-0.965-1.059-1.393-1.65
			c-0.411-0.571-0.839-1.267-0.803-2.05c0.098-1.479,0.733-2.836,0.756-4.189c-0.004-0.159-0.02-0.28-0.083-0.468
			c-0.034-0.076-0.147-0.226-0.263-0.32c-0.241-0.21-0.546-0.379-0.857-0.531c-0.628-0.303-1.301-0.544-1.966-0.818
			c-0.66-0.301-1.355-0.506-1.937-1.161c-0.234-0.354-0.353-0.691-0.429-1.092c-0.067-0.395,0.002-0.811,0.104-1.16
			c0.102-0.353,0.192-0.661,0.166-0.972c-0.021-0.314-0.14-0.611-0.308-0.916c-0.325-0.542-0.921-0.983-1.476-1.404l-1.739-1.254
			c-0.287-0.219-0.577-0.445-0.834-0.719c-0.273-0.309-0.418-0.644-0.566-0.979c-0.282-0.671-0.496-1.353-0.742-2.021
			c-0.253-0.652-0.491-1.358-0.956-1.836l-0.003-0.003l-0.003-0.002c-0.462-0.388-1.174-0.51-1.793-0.714
			c-0.639-0.191-1.278-0.399-1.883-0.69c-0.603-0.29-1.176-0.655-1.655-1.125C60.361,109.874,59.983,109.309,59.719,108.698z"/>
	</g>
	<g>
		<path d="M69.688,113.948c0.367,0.476,0.788,0.919,1.297,1.238c0.504,0.324,1.105,0.488,1.699,0.452
			c0.298-0.013,0.587-0.078,0.887-0.135c0.317-0.058,0.636,0.017,0.916,0.177c0.559,0.329,0.881,0.889,1.255,1.333l0.001,0.001
			l0.006,0.008c0.931,1.286,1.806,2.627,2.502,4.071c0.72,1.402,1.483,2.783,2.25,4.167c0.744,1.376,1.752,2.602,2.599,3.958
			c0.364,0.693,1.058,1.075,1.686,1.567c0.634,0.472,1.297,0.943,1.779,1.579c-0.529-0.595-1.216-1.004-1.883-1.425
			c-0.336-0.21-0.678-0.414-1.001-0.655c-0.329-0.227-0.641-0.556-0.847-0.888c-0.911-1.279-1.953-2.496-2.737-3.904
			c-0.808-1.366-1.563-2.768-2.258-4.201c-0.675-1.416-1.481-2.771-2.336-4.102l0.007,0.009c-0.374-0.489-0.649-1.03-1.116-1.369
			c-0.224-0.156-0.526-0.27-0.805-0.215c-0.293,0.048-0.596,0.108-0.901,0.114c-0.612,0.022-1.225-0.163-1.726-0.504
			C70.453,114.888,70.042,114.433,69.688,113.948z"/>
	</g>
	<g>
		<path d="M83,119.542c0.542-0.19,1.082-0.399,1.665-0.478c0.579-0.087,1.209,0.041,1.71,0.377c0.944,0.711,1.714,1.595,2.387,2.549
			c0.657,0.914,1.411,1.81,2.041,2.778c0.624,0.926,1.492,1.658,2.52,2.075c0.507,0.222,1.049,0.374,1.6,0.49
			c0.566,0.11,1.161,0.309,1.682,0.593c1.055,0.566,1.914,1.393,2.677,2.259l1.124,1.314c0.397,0.457,0.626,1.034,0.748,1.602
			c0.12,1.164,0.497,2.239,1.122,3.219c-0.679-0.92-1.124-2.052-1.32-3.167c-0.167-0.539-0.392-1.057-0.771-1.457l-1.171-1.261
			c-0.794-0.814-1.632-1.597-2.618-2.11c-0.495-0.259-1.003-0.423-1.566-0.527c-0.574-0.114-1.148-0.265-1.698-0.497
			c-1.11-0.45-2.058-1.287-2.704-2.275c-0.604-0.975-1.351-1.832-1.987-2.82c-0.609-0.947-1.341-1.85-2.204-2.56
			c-0.436-0.338-0.991-0.499-1.558-0.458C84.11,119.222,83.554,119.39,83,119.542z"/>
	</g>
	<g>
		<path d="M87.563,115.854c0.744,0.384,1.662,0.112,2.437,0.679c0.736,0.538,1.127,1.348,1.44,2.13
			c0.33,0.795,0.475,1.637,0.734,2.388c0.257,0.769,0.679,1.448,1.252,2.02c1.227,1.076,2.587,2.074,3.909,3.072
			c1.34,0.983,2.649,2.028,4.103,2.836c-0.77-0.326-1.462-0.803-2.165-1.248c-0.7-0.454-1.391-0.92-2.078-1.392
			c-1.365-0.967-2.722-1.906-4.03-2.992c-0.666-0.549-1.138-1.333-1.438-2.132c-0.323-0.812-0.417-1.637-0.713-2.391
			c-0.29-0.75-0.625-1.524-1.205-2.039C89.232,116.258,88.257,116.366,87.563,115.854z"/>
	</g>
	<g>
		<path d="M94.688,112.354c0.323-0.051,0.652-0.096,0.986-0.063c0.332,0.024,0.67,0.191,0.881,0.464
			c0.44,0.539,0.553,1.249,0.618,1.897c0.063,0.653,0.13,1.313,0.119,1.984c-0.01,0.339-0.035,0.667-0.105,1.02
			c-0.075,0.319-0.19,0.657-0.307,0.958c-0.246,0.61-0.455,1.204-0.404,1.81c0.016,0.572,0.475,1.049,0.925,1.497
			c0.23,0.226,0.476,0.448,0.711,0.699c0.226,0.229,0.446,0.422,0.708,0.603c0.512,0.372,1.091,0.67,1.667,0.987l-0.019-0.009
			c0.923,0.403,1.864,0.806,2.744,1.343c0.883,0.526,1.677,1.249,2.244,2.11c0.56,0.853,0.895,1.895,1.877,2.181
			c0.98,0.33,1.83,0.885,2.686,1.419c-0.88-0.485-1.772-0.993-2.729-1.255c-0.519-0.111-0.977-0.465-1.273-0.89
			c-0.31-0.418-0.542-0.873-0.828-1.266c-1.161-1.633-3.062-2.441-4.906-3.209l-0.009-0.003l-0.011-0.006
			c-0.576-0.308-1.174-0.603-1.731-0.997c-0.282-0.188-0.551-0.437-0.781-0.679c-0.211-0.231-0.449-0.454-0.685-0.691
			c-0.444-0.462-1.006-1.017-1.038-1.804c-0.051-0.72,0.211-1.4,0.458-1.996c0.598-1.175,0.489-2.468,0.42-3.785
			c-0.045-0.641-0.088-1.311-0.461-1.832C96.087,112.278,95.313,112.291,94.688,112.354z"/>
	</g>
	<g>
		<path d="M56.828,79.115c-0.399,0.157-0.609,0.438-0.689,0.785c-0.087,0.344-0.088,0.714-0.096,1.112
			c0.001,0.103-0.03,0.249-0.015,0.275l0.037,0.264l0.085,0.584l0.153,1.188c-0.246-0.336-0.378-0.723-0.516-1.1
			c-0.073-0.189-0.126-0.383-0.178-0.58c-0.027-0.105-0.047-0.184-0.066-0.324c-0.017-0.172,0.01-0.224,0.002-0.319
			c0.009-0.393,0.025-0.836,0.226-1.24c0.102-0.199,0.243-0.387,0.431-0.517C56.406,79.131,56.629,79.087,56.828,79.115z"/>
	</g>
	<g>
		<path d="M51.715,89.15l1.712-0.155c0.585-0.058,1.167,0.083,1.728,0.167c1.13,0.206,2.247,0.471,3.353,0.78
			c2.205,0.626,4.388,1.404,6.391,2.574c1.983,1.2,3.729,2.692,5.702,3.778c1.989,1.057,4.202,1.679,6.4,2.303
			c-2.248-0.38-4.53-0.842-6.608-1.907c-2.081-1.053-3.802-2.611-5.718-3.796c-1.948-1.142-4.09-1.957-6.264-2.618
			c-1.09-0.326-2.194-0.609-3.309-0.833C53.992,89.178,52.873,89.223,51.715,89.15z"/>
	</g>
	<g>
		<path fill="#EB7125" d="M77,92.198c2.512,0.813,4.188,3.969,5,5.219c1.063,1.688,3.063,1.875,4.563,3.125
			c1.563,1.313-0.188,4.906,1.188,6.406c1.25,1.375,1.625,5.622,2.688,7.247c0.938,1.5,1.938,0.91,2.5,2.535
			c0.5,1.625,2.042,5.125,3.604,6.063c1.667-4.792,3.958-4.406,3.646-7.313c-0.209-1.942,3.774,6.37,4.188,4.438
			c1.531-7.156,3.506-2.429,3.75-4.708c0.219-2.042-1.822-2.316,1.74-3.503c-0.581-0.924-2.797-3.999-3.031-8.372
			c-0.026-0.5,0.07-6.042-5-6.854c-0.764-0.123-1.388-4.477-4.334-5.109c-3.666-0.787-6.317-0.137-7.333,0.005
			c-1.985,0.278-6.105,2.417-8.042,1.385"/>
		<path d="M77,92.198c1.539,0.504,2.683,1.753,3.62,3.021c0.979,1.244,1.537,2.894,3.032,3.574c0.69,0.383,1.438,0.669,2.142,1.07
			c0.354,0.199,0.688,0.429,0.992,0.712c0.308,0.328,0.46,0.734,0.535,1.142c0.279,1.616-0.31,3.276,0.264,4.703
			c0.137,0.324,0.475,0.587,0.668,0.973c0.205,0.36,0.357,0.738,0.495,1.118c0.271,0.761,0.474,1.536,0.682,2.306
			c0.208,0.769,0.408,1.54,0.681,2.275c0.266,0.729,0.649,1.428,1.273,1.842c0.305,0.213,0.688,0.352,1.035,0.633
			c0.349,0.282,0.568,0.686,0.707,1.077c0.243,0.762,0.54,1.485,0.873,2.204c0.334,0.715,0.703,1.414,1.131,2.069
			c0.428,0.645,0.915,1.29,1.531,1.676l-0.339,0.123c0.375-1.091,0.87-2.156,1.538-3.114c0.632-0.976,1.598-1.736,1.965-2.698
			c0.086-0.243,0.13-0.501,0.143-0.766c0.007-0.132,0.003-0.267-0.003-0.402c-0.006-0.148-0.033-0.233-0.022-0.467
			c0.012-0.049-0.002-0.132,0.121-0.256c0.18-0.134,0.347-0.033,0.377-0.013c0.109,0.07,0.155,0.128,0.213,0.189
			c0.106,0.12,0.194,0.238,0.28,0.357c0.17,0.238,0.327,0.479,0.482,0.719c0.62,0.961,1.203,1.941,1.866,2.847
			c0.167,0.223,0.339,0.444,0.524,0.632c0.091,0.091,0.192,0.182,0.274,0.222c0.04,0.022,0.067,0.019,0.044,0.021
			c-0.024,0.009-0.017,0.016,0.002-0.022c0.117-0.459,0.256-1.094,0.422-1.625c0.169-0.553,0.362-1.103,0.646-1.626
			c0.273-0.494,0.688-1.096,1.403-1.17c0.337-0.032,0.646,0.076,0.901,0.138c0.284,0.062,0.311,0.034,0.396-0.239
			c0.115-0.52,0.063-1.056-0.126-1.578c-0.078-0.264-0.229-0.534-0.188-0.907c0.069-0.387,0.382-0.589,0.625-0.736
			c0.523-0.293,1.068-0.472,1.613-0.654l-0.078,0.216c-0.947-1.417-1.776-2.954-2.308-4.593c-0.268-0.818-0.473-1.659-0.596-2.511
			c-0.149-0.852-0.114-1.725-0.219-2.553c-0.207-1.657-0.859-3.338-2.173-4.396c-0.646-0.526-1.427-0.876-2.245-1.057l-0.309-0.061
			c-0.071,0.005-0.28-0.081-0.343-0.178c-0.163-0.181-0.257-0.377-0.356-0.57l-0.539-1.164c-0.362-0.766-0.771-1.517-1.339-2.135
			c-0.56-0.627-1.312-1.057-2.152-1.173c-1.665-0.337-3.383-0.425-5.075-0.246c-0.842,0.097-1.697,0.219-2.524,0.391
			c-0.825,0.207-1.633,0.49-2.447,0.745c-0.814,0.255-1.635,0.502-2.478,0.65c-0.829,0.134-1.738,0.225-2.514-0.172
			c0.778,0.389,1.683,0.288,2.509,0.146c0.839-0.156,1.655-0.411,2.467-0.675c0.812-0.263,1.614-0.554,2.444-0.771
			c0.842-0.183,1.679-0.314,2.53-0.423c1.701-0.202,3.436-0.134,5.12,0.186c0.86,0.105,1.684,0.563,2.264,1.208
			c0.597,0.638,1.02,1.404,1.393,2.174l0.547,1.155c0.096,0.185,0.196,0.376,0.321,0.512c0.054,0.116,0.335,0.113,0.533,0.167
			c0.849,0.184,1.669,0.545,2.352,1.096c1.384,1.114,2.056,2.862,2.271,4.558c0.109,0.866,0.074,1.712,0.226,2.547
			c0.123,0.837,0.328,1.661,0.594,2.464c0.53,1.613,1.342,3.107,2.295,4.523l0.103,0.153l-0.181,0.063
			c-0.531,0.187-1.072,0.379-1.54,0.653c-0.229,0.137-0.437,0.313-0.459,0.511c-0.027,0.204,0.094,0.472,0.188,0.743
			c0.209,0.543,0.294,1.185,0.161,1.782c-0.042,0.15-0.086,0.339-0.288,0.479c-0.216,0.129-0.418,0.074-0.561,0.047
			c-0.294-0.072-0.541-0.148-0.777-0.122c-0.474,0.041-0.828,0.501-1.078,0.974c-0.255,0.482-0.438,1.015-0.596,1.553
			c-0.17,0.56-0.255,1.045-0.427,1.686c-0.04,0.089-0.124,0.222-0.289,0.271c-0.162,0.042-0.281-0.011-0.366-0.051
			c-0.173-0.089-0.281-0.198-0.394-0.305c-0.216-0.217-0.395-0.447-0.57-0.679c-0.689-0.932-1.277-1.911-1.897-2.861
			c-0.155-0.237-0.312-0.473-0.474-0.697c-0.081-0.111-0.165-0.221-0.249-0.314c-0.038-0.043-0.09-0.092-0.102-0.097
			c-0.026-0.017,0.057,0.054,0.18-0.032c0.073-0.075,0.043-0.082,0.05-0.062c0.043,0.463,0.082,1.176-0.133,1.746
			c-0.207,0.598-0.606,1.071-0.977,1.5c-0.375,0.432-0.736,0.856-1.056,1.313c-0.644,0.91-1.125,1.929-1.497,2.989l-0.098,0.279
			l-0.242-0.156c-0.738-0.476-1.221-1.156-1.668-1.831c-0.438-0.684-0.811-1.401-1.146-2.133c-0.333-0.73-0.636-1.487-0.872-2.247
			c-0.122-0.357-0.298-0.682-0.571-0.909c-0.27-0.231-0.647-0.38-0.996-0.625c-0.715-0.491-1.12-1.28-1.393-2.033
			c-0.276-0.763-0.472-1.54-0.675-2.311c-0.425-1.547-0.729-3.087-1.795-4.355c-0.613-1.624,0.021-3.255-0.249-4.783
			c-0.063-0.375-0.211-0.742-0.449-1.002c-0.275-0.264-0.603-0.489-0.938-0.69c-0.672-0.409-1.412-0.716-2.107-1.126
			c-0.693-0.396-1.334-0.967-1.721-1.669c-0.417-0.681-0.824-1.365-1.285-2.014C79.644,93.986,78.529,92.727,77,92.198z"/>
	</g>
	<g>
		<path d="M86.667,96.458c0.481-0.133,0.944,0.042,1.328,0.287c0.396,0.24,0.741,0.569,1.008,0.946
			c0.269,0.378,0.442,0.809,0.554,1.241c0.142,0.425,0.109,0.884,0.276,1.275c-0.178-0.148-0.232-0.383-0.324-0.576l-0.247-0.596
			c-0.175-0.386-0.384-0.746-0.636-1.064c-0.249-0.321-0.556-0.585-0.893-0.812C87.377,96.956,87.038,96.762,86.667,96.458z"/>
	</g>
	<g>
		<path d="M90.583,99.167c0.674,0.572,0.98,1.458,1.207,2.288c0.202,0.846,0.375,1.689,0.638,2.5
			c0.257,0.804,0.629,1.561,1.23,2.126c0.608,0.608,1.282,1.1,1.982,1.605l1.06,0.743c0.345,0.246,0.726,0.478,1.062,0.787
			c0.334,0.296,0.638,0.619,0.921,0.954c0.269,0.318,0.578,0.634,0.847,0.991c0.255,0.374,0.533,0.715,0.583,1.243
			c-0.01,0.506-0.273,0.871-0.335,1.276c-0.162,0.837,0.493,1.583,1.081,2.173c-0.334-0.273-0.661-0.566-0.913-0.929
			c-0.256-0.354-0.429-0.81-0.37-1.272c0.041-0.457,0.276-0.866,0.259-1.238c-0.032-0.343-0.327-0.729-0.576-1.036
			c-0.27-0.321-0.584-0.607-0.892-0.933c-0.283-0.317-0.577-0.622-0.896-0.893c-0.306-0.275-0.671-0.488-1.034-0.737l-1.078-0.728
			c-0.71-0.492-1.414-1.058-2.022-1.68c-0.649-0.642-1.07-1.489-1.286-2.342c-0.225-0.85-0.352-1.713-0.505-2.558
			C91.397,100.671,91.167,99.819,90.583,99.167z"/>
	</g>
	<g>
		<path d="M94.875,97.125c0.455,0.061,0.923-0.079,1.39,0.122c0.453,0.225,0.714,0.633,1,0.998c0.53,0.778,0.94,1.597,1.37,2.419
			c0.209,0.418,0.416,0.801,0.611,1.25c0.186,0.443,0.311,0.894,0.449,1.327c0.272,0.858,0.621,1.701,1.094,2.458
			c0.47,0.765,1.04,1.466,1.721,2.057c0.706,0.607,1.299,1.305,2.073,1.764c0.386,0.239,0.804,0.5,1.116,0.874l0.853,1.089
			c0.59,0.718,0.998,1.559,1.401,2.38c-0.432-0.808-0.845-1.646-1.507-2.29c-0.311-0.331-0.645-0.671-0.938-1.011
			c-0.3-0.32-0.687-0.538-1.093-0.759c-0.842-0.444-1.509-1.131-2.195-1.717c-0.721-0.604-1.34-1.335-1.846-2.129
			c-0.528-0.794-0.844-1.685-1.122-2.58c-0.133-0.446-0.248-0.886-0.411-1.295c-0.159-0.399-0.395-0.827-0.568-1.245
			c-0.378-0.83-0.753-1.683-1.221-2.451c-0.246-0.369-0.479-0.798-0.85-1.014C95.82,97.161,95.319,97.239,94.875,97.125z"/>
	</g>
	<g>
		<path d="M89.333,93.75c0.549,0.102,1.063,0.029,1.601-0.082c0.56-0.071,1.105-0.09,1.654-0.086
			c0.561,0.012,1.068-0.011,1.663,0.07c0.591,0.096,1.111,0.345,1.597,0.629c0.967,0.578,1.78,1.322,2.591,2.046
			c0.82,0.708,1.608,1.465,2.604,1.923c-1.066-0.297-1.964-1.001-2.824-1.657c-0.869-0.659-1.702-1.361-2.616-1.892
			c-0.454-0.261-0.94-0.473-1.428-0.563c-0.482-0.074-1.07-0.068-1.598-0.11c-0.539-0.019-1.085-0.066-1.611-0.045
			C90.433,94.042,89.824,93.997,89.333,93.75z"/>
	</g>
	<rect x="-23" y="81" display="none" fill="#757576" width="237.334" height="327.333"/>
</g>
<g id="shield">
</g>
<g id="ZZZ">
	
		<text transform="matrix(0.9973 0.0736 -0.0736 0.9973 47.5352 59.7407)" display="none" font-family="'GreekHouseSymbolized'" font-size="6.9196">Z</text>
	
		<text transform="matrix(0.9839 -0.1785 0.1785 0.9839 53.3423 57.7417)" display="none" font-family="'GreekHouseSymbolized'" font-size="9.3852">Z</text>
	
		<text transform="matrix(0.964 0.2659 -0.2659 0.964 76.792 36.4961)" display="none" font-family="'GreekHouseSymbolized'" font-size="23.7924">Z</text>
	
		<text transform="matrix(0.8607 -0.5091 0.5091 0.8607 59.8628 50.7524)" display="none" font-family="'GreekHouseSymbolized'" font-size="14.2595">Z</text>
	
		<text transform="matrix(0.9696 -0.2447 0.2447 0.9696 63.5107 38.2495)" display="none" font-family="'GreekHouseSymbolized'" font-size="15.5441">Z</text>
	<g>
		<g>
			<g>
				<path d="M38.255,54.557c0.494-0.149,1.004-0.295,1.643-0.246c0.449,0.034,0.897,0.103,1.343,0.103
					c-0.155-0.168-0.312-0.336-0.472-0.503c-0.59,0.688-1.028,1.409-1.356,2.134c-0.126,0.329-0.433,0.803-0.3,1.269
					c0.071,0.238,0.344,0.331,0.476,0.362c0.347,0.084,0.614-0.155,0.869-0.273c0.585-0.263,1.243-0.492,2.024-0.526
					c0.579-0.029,0.394-0.7-0.202-0.664c-0.708,0.039-1.332,0.208-1.899,0.416c-0.238,0.088-0.458,0.191-0.672,0.29
					c-0.063,0.03-0.127,0.059-0.189,0.087c-0.053,0.024-0.256,0.015-0.072,0.054c0.161,0.12,0.32,0.241,0.477,0.362
					c-0.038-0.19,0.236-0.745,0.337-0.984c0.36-0.749,0.846-1.481,1.473-2.181c0.256-0.268-0.147-0.511-0.461-0.506
					c-0.554,0.006-1.122-0.083-1.675-0.098c-0.762-0.022-1.411,0.176-1.998,0.353C37.02,54.179,37.83,54.686,38.255,54.557
					L38.255,54.557z"/>
			</g>
		</g>
		<g>
			<g>
				<path d="M47.739,51.225c1.001-0.241,2.021-0.044,3.192,0.001c-0.103-0.064-0.206-0.128-0.31-0.192
					c-0.5,0.583-0.886,1.195-1.204,1.8c-0.145,0.313-0.27,0.623-0.387,0.923c-0.047,0.131-0.095,0.257-0.146,0.378
					c-0.054,0.135-0.194,0.13,0.12,0.085c-0.087,0.012-0.497,0.194-0.102,0.294c0.417,0.104,0.735-0.052,1.062-0.148
					c0.68-0.198,1.421-0.436,2.28-0.466c0.378-0.015,0.887-0.396,0.163-0.36c-0.691,0.03-1.324,0.151-1.917,0.292
					c-0.32,0.076-0.622,0.164-0.914,0.249c-0.112,0.033-0.222,0.064-0.33,0.096c-0.15,0.042-0.337-0.033,0.064,0.06
					c-0.04,0.1-0.078,0.198-0.114,0.297c0.408-0.058,0.532-0.395,0.711-0.788c0.478-0.866,1.005-1.826,1.805-2.702
					c0.163-0.167-0.183-0.189-0.306-0.193c-0.638-0.018-1.299-0.154-1.93-0.166c-0.833-0.019-1.557,0.12-2.232,0.282
					C46.571,51.129,47.37,51.313,47.739,51.225L47.739,51.225z"/>
			</g>
		</g>
		<g>
			<g>
				<path d="M54.286,47.698c1.143-0.193,2.295,0.05,3.592,0.157c-0.131-0.122-0.264-0.243-0.398-0.364
					c-0.506,0.568-0.895,1.173-1.238,1.758c-0.148,0.281-0.289,0.554-0.426,0.816c-0.074,0.149-0.154,0.287-0.239,0.416
					c-0.043,0.07-0.281,0.141-0.034,0.149c-0.274-0.009-0.604,0.372,0.008,0.539c0.475,0.13,0.889-0.054,1.286-0.117
					c0.73-0.12,1.508-0.274,2.365-0.279c0.474-0.005,0.86-0.632,0.101-0.614c-0.807,0.015-1.553,0.13-2.262,0.243
					c-0.32,0.049-0.63,0.103-0.934,0.152c-0.115,0.019-0.229,0.037-0.342,0.053c-0.089,0.014-0.411-0.035-0.102,0.041
					c-0.003,0.181-0.003,0.361,0,0.541c0.599,0.028,0.843-0.445,1.125-0.935c0.551-0.813,1.091-1.773,1.898-2.633
					c0.198-0.197-0.225-0.355-0.387-0.366c-1.594-0.108-3.003-0.345-4.405-0.103C53.228,47.265,53.639,47.806,54.286,47.698
					L54.286,47.698z"/>
			</g>
		</g>
		<g>
			<g>
				<path d="M63.693,48.341c1.255-0.146,2.581,0.143,3.969,0.282c-0.067-0.067-0.135-0.133-0.203-0.2
					c-0.496,0.554-0.878,1.147-1.223,1.717c-0.193,0.357-0.378,0.698-0.566,1.013c-0.055,0.096-0.113,0.186-0.175,0.271
					c-0.035,0.055-0.405,0.236-0.111,0.256c-0.132-0.009-0.844,0.197-0.334,0.333c0.521,0.141,0.979-0.02,1.424-0.062
					c0.85-0.084,1.742-0.206,2.713-0.204c0.42-0.001,0.983-0.409,0.179-0.398c-0.775,0.005-1.504,0.093-2.208,0.164
					c-0.406,0.039-0.801,0.08-1.188,0.118c-0.129,0.012-0.257,0.024-0.384,0.036c-0.08,0.007-0.391-0.045-0.095,0.028
					c-0.119,0.113-0.231,0.225-0.34,0.334c1.737,0.13,2.25-2.21,3.539-3.615c0.133-0.132-0.039-0.188-0.194-0.202
					c-1.67-0.15-3.204-0.432-4.722-0.249C63.307,48.02,62.852,48.436,63.693,48.341L63.693,48.341z"/>
			</g>
		</g>
		<g>
			<g>
				<path d="M75.996,48.188c1.356-0.077,2.799,0.265,4.25,0.446c-0.078-0.087-0.157-0.174-0.235-0.262
					c-0.494,0.538-0.873,1.122-1.23,1.674c-0.268,0.464-0.618,1.659-1.216,1.606c-0.162-0.014-0.876,0.262-0.304,0.419
					c0.634,0.177,1.203,0.023,1.762,0.005c0.886-0.036,1.804-0.104,2.781-0.077c0.47,0.011,1.002-0.496,0.161-0.505
					c-0.878-0.014-1.711,0.049-2.521,0.088c-0.428,0.019-0.848,0.039-1.259,0.055c-0.133,0.004-0.843-0.05-0.502,0.036
					c-0.109,0.142-0.213,0.282-0.311,0.42c1.939,0.193,2.522-2.158,3.95-3.689c0.149-0.145-0.057-0.246-0.223-0.265
					c-1.75-0.197-3.427-0.531-5.071-0.428C75.47,47.746,75.068,48.237,75.996,48.188L75.996,48.188z"/>
			</g>
		</g>
		<g>
			<g>
				<path d="M81.655,43.847c1.486,0.021,3.03,0.42,4.569,0.671c-0.168-0.28-0.338-0.559-0.513-0.836
					c-1.048,1.108-1.653,3.417-3.226,3.261c-0.506-0.053-0.471,0.768,0.267,0.994c0.673,0.21,1.291,0.098,1.896,0.117
					c0.951,0.024,1.929,0.014,2.952,0.093c0.676,0.049,0.857-1.086-0.01-1.129c-0.953-0.051-1.869-0.028-2.768-0.031
					c-0.527-0.004-1.046-0.008-1.558-0.016c-0.174-0.003-0.346-0.007-0.519-0.012c-0.055-0.002-0.377-0.054-0.102,0.021
					c0.081,0.333,0.165,0.666,0.255,0.997c1.998,0.254,2.704-2.164,4.16-3.681c0.293-0.277-0.071-0.785-0.482-0.844
					c-1.77-0.248-3.541-0.659-5.259-0.656C80.457,42.793,80.695,43.83,81.655,43.847L81.655,43.847z"/>
			</g>
		</g>
		<g>
			<g>
				<path d="M75.918,34.485c1.608,0.1,3.289,0.551,4.912,0.833c-0.151-0.231-0.306-0.463-0.463-0.692
					c-1.179,1.232-1.766,3.522-3.526,3.339c-0.463-0.05-0.612,0.602,0.169,0.844c0.774,0.245,1.504,0.128,2.204,0.169
					c0.984,0.053,1.988,0.07,3.034,0.179c0.646,0.065,0.964-0.883,0.055-0.956c-1.035-0.086-2.036-0.088-3.02-0.122
					c-0.553-0.022-1.098-0.043-1.638-0.067c-0.182-0.009-0.362-0.018-0.542-0.028c-0.067-0.004-0.391-0.074-0.104,0.006
					c0.048,0.283,0.101,0.565,0.158,0.846c2.199,0.279,2.948-2.092,4.561-3.742c0.315-0.291-0.041-0.637-0.437-0.699
					c-1.854-0.285-3.732-0.718-5.577-0.806C74.846,33.548,74.854,34.417,75.918,34.485L75.918,34.485z"/>
			</g>
		</g>
		<g>
			<g>
				<path d="M66.589,31.922c1.828,0.188,3.705,0.659,5.508,0.976c-0.084-0.09-0.169-0.179-0.253-0.268
					c-1.264,1.31-1.945,3.312-3.615,3.396c-0.141,0.006-0.787,0.365-0.217,0.455c1.811,0.276,3.533,0.177,5.453,0.438
					c0.253,0.034,1.438-0.42,0.795-0.496c-1.076-0.128-2.123-0.156-3.151-0.216c-0.591-0.037-1.174-0.073-1.751-0.11
					c-0.206-0.013-0.412-0.027-0.616-0.041c-0.05-0.003-0.488-0.044-0.234-0.009c-0.082,0.154-0.159,0.306-0.231,0.457
					c2.208-0.098,3.196-2.042,5.056-3.875c0.189-0.167-0.074-0.242-0.24-0.27c-1.858-0.306-3.772-0.768-5.664-0.943
					C67.077,31.385,65.763,31.838,66.589,31.922L66.589,31.922z"/>
			</g>
		</g>
		<g>
			<g>
				<path d="M58.464,31.171c1.908,0.322,3.819,0.848,5.665,1.23c-0.136-0.332-0.274-0.664-0.416-0.994
					c-1.543,1.47-2.344,3.543-4.446,3.486c-0.681-0.024-0.436,0.924,0.447,1.089c1.949,0.36,3.816,0.309,5.865,0.729
					c0.75,0.154,0.989-1.021,0.015-1.191c-2.201-0.386-4.224-0.301-6.326-0.626c0.146,0.364,0.295,0.727,0.447,1.089
					c2.39,0.111,3.35-1.907,5.237-3.716c0.379-0.327,0.288-0.876-0.378-1.002c-1.947-0.36-3.953-0.865-5.965-1.164
					C57.717,29.971,57.251,30.971,58.464,31.171L58.464,31.171z"/>
			</g>
		</g>
		<g>
			<g>
				<path d="M52.621,25.525c0.927,0.181,1.849,0.389,2.762,0.601c0.562,0.133,1.118,0.257,1.669,0.379
					c0.385,0.085,1.56,0.12,1.317,0.363c-1.266,1.403-1.979,3.32-3.894,3.212c-0.196-0.012-1.034,0.37-0.405,0.471
					c2.049,0.323,4.055,0.274,6.24,0.811c0.27,0.068,1.556-0.354,0.858-0.517c-2.157-0.494-4.925-0.519-6.549-0.749
					c-0.145,0.159-0.282,0.316-0.412,0.472c2.767,0.185,3.809-1.916,6.032-3.975c0.112-0.093,0.092-0.212-0.092-0.249
					c-2.03-0.389-4.118-0.902-6.253-1.307C53.44,24.955,52.15,25.434,52.621,25.525L52.621,25.525z"/>
			</g>
		</g>
		<g>
			<g>
				<path d="M53.691,16.13c2.247,0.581,4.403,1.156,6.507,1.634c-0.179-0.284-0.362-0.567-0.548-0.85
					c-1.734,1.557-2.493,3.804-5.01,3.456c0.14,0.356,0.282,0.711,0.428,1.066c2.055,0.309,4.252,0.313,6.461,1.054
					c0.631,0.219,1.463-0.778,0.425-1.106c-2.483-0.75-4.984-0.722-7.313-1.014c-0.774-0.1-0.512,0.909,0.428,1.066
					c2.893,0.471,3.967-1.999,6.169-3.942c0.424-0.337-0.096-0.768-0.515-0.856c-2.057-0.425-4.153-0.942-6.329-1.466
					C53.601,14.989,52.469,15.828,53.691,16.13L53.691,16.13z"/>
			</g>
		</g>
		<g>
			<g>
				<path d="M60.055,15.595c2.399,0.695,4.655,1.252,6.87,1.752c-0.069-0.161-0.138-0.322-0.208-0.483
					c-1.794,1.564-2.478,3.947-5.031,3.588c-0.071,0.22-0.135,0.439-0.193,0.657c1.035,0.161,2.08,0.326,3.131,0.495
					c1.104,0.175,2.507,0.167,3.608,0.629c0.376,0.163,1.631-0.37,1.156-0.568c-1.247-0.501-2.602-0.493-3.812-0.666
					c-1.308-0.189-2.605-0.371-3.891-0.546c-0.424-0.059-1.145,0.503-0.193,0.657c1.433,0.228,2.541-0.17,3.555-0.868
					c1.173-0.735,1.911-2.094,3.185-3.126c0.274-0.21,0.22-0.4-0.181-0.488c-2.162-0.462-4.35-0.986-6.663-1.637
					C60.833,14.841,59.356,15.402,60.055,15.595L60.055,15.595z"/>
			</g>
		</g>
		<g>
			<g>
				<path d="M71.208,16.98c2.489,0.863,4.806,1.445,7.097,2.012c-0.146-0.359-0.292-0.718-0.443-1.077
					c-2.142,1.725-2.923,4.07-5.916,3.638c-0.863-0.126-0.531,0.999,0.495,1.183c1.063,0.19,2.134,0.383,3.208,0.582
					c1.071,0.196,2.998,0.307,3.847,0.782c0.603,0.349,1.782-0.54,0.809-1.076c-1.271-0.662-2.842-0.606-4.082-0.805
					c-1.434-0.23-2.858-0.45-4.276-0.666c0.162,0.395,0.327,0.789,0.495,1.183c1.547,0.265,2.737-0.173,3.822-0.967
					c1.086-0.729,1.792-2.012,2.995-2.939c0.504-0.371,0.303-0.921-0.403-1.085c-2.244-0.507-4.495-1.039-6.899-1.828
					C71.042,15.632,69.823,16.528,71.208,16.98L71.208,16.98z"/>
			</g>
		</g>
		<g>
			<g>
				<path d="M82.695,16.024c2.586,1.025,4.973,1.636,7.35,2.262c-0.181-0.458-0.364-0.916-0.553-1.373
					c-2.363,1.755-3.173,4.105-6.429,3.625c-0.994-0.148-0.387,1.282,0.683,1.493c1.193,0.235,2.39,0.47,3.591,0.714
					c0.867,0.176,1.737,0.358,2.608,0.553c0.312,0.069,1.291,0.326,1.258,0.302c0.753,0.584,1.808-0.568,0.786-1.323
					c-1.224-0.844-3.161-0.761-4.381-0.975c-1.521-0.267-3.034-0.515-4.545-0.765c0.226,0.499,0.452,0.996,0.683,1.493
					c1.75,0.312,3.079-0.153,4.316-1.066c1.063-0.722,1.768-1.983,2.964-2.842c0.556-0.382,0.23-1.204-0.503-1.383
					c-2.334-0.555-4.671-1.078-7.165-2.012C82.188,14.314,81.202,15.47,82.695,16.024L82.695,16.024z"/>
			</g>
		</g>
		<g>
			<g>
				<path d="M90.887,8.82c2.824,1.196,5.39,1.806,7.964,2.482c-0.149-0.374-0.301-0.747-0.454-1.119
					c-0.912,0.613-1.489,1.542-2.207,2.212c-1.167,1.206-2.614,1.771-4.529,1.492c-0.701-0.103-0.721,0.992,0.293,1.194
					c1.276,0.255,2.55,0.503,3.83,0.767c0.919,0.189,1.84,0.386,2.762,0.596c0.313,0.072,0.626,0.148,0.939,0.229
					c0.254,0.066,0.725,0.387,0.412,0.078c0.563,0.564,1.996-0.106,1.214-0.897c-1.051-0.985-3.356-0.894-4.447-1.095
					c-1.599-0.294-3.188-0.561-4.78-0.838c0.086,0.4,0.18,0.799,0.278,1.197c1.855,0.314,3.314-0.132,4.638-1.089
					c1.104-0.732,1.821-2.056,3.075-2.902c0.585-0.379,0.303-0.949-0.412-1.127c-2.35-0.569-4.726-1.066-7.238-2.103
					C91.314,7.542,89.679,8.341,90.887,8.82L90.887,8.82z"/>
			</g>
		</g>
	</g>
</g>
</svg>
