<?xml version="1.0" encoding="utf-8"?>
<!-- Generator: Adobe Illustrator 15.1.0, SVG Export Plug-In . SVG Version: 6.00 Build 0)  -->
<!DOCTYPE svg PUBLIC "-//W3C//DTD SVG 1.1//EN" "http://www.w3.org/Graphics/SVG/1.1/DTD/svg11.dtd">
<svg version="1.1" id="Layer_1" xmlns="http://www.w3.org/2000/svg" xmlns:xlink="http://www.w3.org/1999/xlink" x="0px" y="0px"
	 width="156px" height="155.333px" viewBox="0 0 156 155.333" enable-background="new 0 0 156 155.333" xml:space="preserve">
<g>
	<defs>
		<rect id="SVGID_1_" width="156" height="155.333"/>
	</defs>
	<clipPath id="SVGID_2_">
		<use xlink:href="#SVGID_1_"  overflow="visible"/>
	</clipPath>
	<path clip-path="url(#SVGID_2_)" fill="#C5A860" d="M152.592,76.944c0,40.86-33.123,73.983-73.983,73.983
		c-40.859,0-73.983-33.123-73.983-73.983c0-40.86,33.124-73.984,73.983-73.984C119.469,2.96,152.592,36.084,152.592,76.944"/>
	
		<circle clip-path="url(#SVGID_2_)" fill="none" stroke="#010101" stroke-width="2" stroke-miterlimit="10" cx="78.608" cy="76.944" r="73.983"/>
</g>
<g>
	<defs>
		<rect id="SVGID_3_" width="156" height="155.333"/>
	</defs>
	<clipPath id="SVGID_4_">
		<use xlink:href="#SVGID_3_"  overflow="visible"/>
	</clipPath>
	<path clip-path="url(#SVGID_4_)" fill="#F1F1D5" d="M140.374,69.097c0,0-13.716,11.52-29.729,24.691
		c-0.336,0.277-3.021-0.122-3.021-0.122s1.179,1.637,0.762,1.979c-2.38,1.954-4.766,3.906-7.111,5.816
		c-0.649,0.53-7.963-1.233-7.963-1.233s5.046,3.606,4.563,4c-7.589,6.156-14.483,11.644-19.01,15.028
		c-0.259,0.193-0.51,0.38-0.752,0.56c-0.253,0.187-2.641-0.713-2.641-0.713s1.152,1.785,0.805,2.01
		c-3.452,2.241-4.879,1.803-4.879,1.803l-53.939-21.13l23.658-17.62l5.788,1.938l-4.059-3.225l1.459-1.087l2.85,0.78l-1.116-2.071
		l26.075-19.419L75.736,61l-1.33-1.624L87,49.996l31.38,9.12c0.39-1.34,1.12-2.53,2.08-3.49c1.47-1.48,3.51-2.4,5.75-2.4h10.33
		c3.324,0,6.202,2.02,7.466,4.892c0.181,0.41,0.328,0.838,0.439,1.28c0.159,0.634-0.445,2.336-0.445,3.018
		c0,0.076-3.438,0.25-3.438,0.25s3.164,1.451,2.837,2.192c-0.665,1.508-3.065,0.474-3.065,0.474S141.163,68.478,140.374,69.097"/>
	<path clip-path="url(#SVGID_4_)" fill="none" stroke="#000000" stroke-miterlimit="10" d="M140.374,69.097
		c0,0-13.716,11.52-29.729,24.691c-0.336,0.277-3.021-0.122-3.021-0.122s1.179,1.637,0.762,1.979
		c-2.38,1.954-4.766,3.906-7.111,5.816c-0.649,0.53-7.963-1.233-7.963-1.233s5.046,3.606,4.563,4
		c-7.589,6.156-14.483,11.644-19.01,15.028c-0.259,0.193-0.51,0.38-0.752,0.56c-0.253,0.187-2.641-0.713-2.641-0.713
		s1.152,1.785,0.805,2.01c-3.452,2.241-4.879,1.803-4.879,1.803l-53.939-21.13l23.658-17.62l5.788,1.938l-4.059-3.225l1.459-1.087
		l2.85,0.78l-1.116-2.071l26.075-19.419L75.736,61l-1.33-1.624L87,49.996l31.38,9.12c0.39-1.34,1.12-2.53,2.08-3.49
		c1.47-1.48,3.51-2.4,5.75-2.4h10.33c3.324,0,6.202,2.02,7.466,4.892c0.181,0.41,0.328,0.838,0.439,1.28
		c0.159,0.634-0.445,2.336-0.445,3.018c0,0.076-3.438,0.25-3.438,0.25s3.164,1.451,2.837,2.192
		c-0.665,1.508-3.065,0.474-3.065,0.474S141.163,68.478,140.374,69.097z"/>
	<path clip-path="url(#SVGID_4_)" fill="#F1F1D5" d="M141.023,54.583c0,0,3.135-0.876-53.83-15.917
		c-2.29-0.89-4.364,0.593-5.701,2.91c-0.26,0.448,1.342,2.174,1.342,2.174s-2.251-0.166-2.344,0.131
		c-1.146,3.655-0.626,7.991,2.874,9.118C97.072,56.96,119.398,62.685,135,67.541c0,0-1.331-1.513-1.744-3
		c-0.213-0.768-2.881-3.375-2.881-3.375s2.583-0.704,2.581-1.041c-0.003-0.592-0.005-1.141-0.019-1.584
		c-0.032-1.082-1.375-2.187-1.375-2.187s1.658-0.247,1.857-0.597c0.887-1.561,1.839-2.187,2.58-2.507
		C136.894,52.864,141.023,54.583,141.023,54.583"/>
	<path clip-path="url(#SVGID_4_)" fill="none" stroke="#000000" stroke-miterlimit="10" d="M141.023,54.583
		c0,0,3.135-0.876-53.83-15.917c-2.29-0.89-4.364,0.593-5.701,2.91c-0.26,0.448,1.342,2.174,1.342,2.174s-2.251-0.166-2.344,0.131
		c-1.146,3.655-0.626,7.991,2.874,9.118C97.072,56.96,119.398,62.685,135,67.541c0,0-1.331-1.513-1.744-3
		c-0.213-0.768-2.881-3.375-2.881-3.375s2.583-0.704,2.581-1.041c-0.003-0.592-0.005-1.141-0.019-1.584
		c-0.032-1.082-1.375-2.187-1.375-2.187s1.658-0.247,1.857-0.597c0.887-1.561,1.839-2.187,2.58-2.507
		C136.894,52.864,141.023,54.583,141.023,54.583z"/>
	<path clip-path="url(#SVGID_4_)" fill="#F1F1D5" d="M77.38,110.366c0,0,0.69-1.91-56.274-16.949
		c-2.157-0.84-4.123,0.428-5.462,2.514c-0.153,0.239,1.481,1.548,1.481,1.548s-2.228-0.171-2.365,0.161
		c-0.071,0.172-0.138,0.348-0.202,0.524c-0.063,0.177,1.536,1.096,1.536,1.096s-1.919,0.169-1.996,0.539
		c-0.699,3.36,0.045,6.94,3.178,7.95c14.687,4.267,52.546,14.768,52.546,14.768c-0.054-0.298,2.613,0.521,1.577,0.4
		c-0.982-0.116-1.857-1.133-2.545-2.372c-0.137-0.248-6.041-1.691-6.041-1.691s5.333,0.208,5.198-0.148
		c-0.422-1.111-0.682-2.154-0.729-2.706c-0.13-1.522-0.073-2.762,0.119-3.766c0.14-0.729-1.526-2.63-1.526-2.63
		s2.56,0.115,2.805-0.146c1.711-1.825,4.441-1.184,5.513-0.611C76.17,109.9,77.38,110.366,77.38,110.366"/>
	<path clip-path="url(#SVGID_4_)" fill="none" stroke="#000000" stroke-miterlimit="10" d="M77.38,110.366
		c0,0,0.69-1.91-56.274-16.949c-2.157-0.84-4.123,0.428-5.462,2.514c-0.153,0.239,1.481,1.548,1.481,1.548s-2.228-0.171-2.365,0.161
		c-0.071,0.172-0.138,0.348-0.202,0.524c-0.063,0.177,1.536,1.096,1.536,1.096s-1.919,0.169-1.996,0.539
		c-0.699,3.36,0.045,6.94,3.178,7.95c14.687,4.267,52.546,14.768,52.546,14.768c-0.054-0.298,2.613,0.521,1.577,0.4
		c-0.982-0.116-1.857-1.133-2.545-2.372c-0.137-0.248-6.041-1.691-6.041-1.691s5.333,0.208,5.198-0.148
		c-0.422-1.111-0.682-2.154-0.729-2.706c-0.13-1.522-0.073-2.762,0.119-3.766c0.14-0.729-1.526-2.63-1.526-2.63
		s2.56,0.115,2.805-0.146c1.711-1.825,4.441-1.184,5.513-0.611C76.17,109.9,77.38,110.366,77.38,110.366z"/>
	<path clip-path="url(#SVGID_4_)" d="M79.568,60.033c3.249-0.097,6.204-0.944,9.402-1.459c-0.185-0.38-0.368-0.76-0.553-1.14
		c-0.426,0.3-0.852,0.6-1.277,0.899c-0.699,0.492-0.164,1.206,0.553,1.139c0.775-0.105,1.555-0.141,2.337-0.106
		c-0.278-0.271-0.558-0.541-0.836-0.812c-0.235,0.377-0.47,0.754-0.705,1.13c-0.105,0.169-0.061,0.378,0.038,0.533
		c0.658,1.028-0.344,1.647-0.236,2.937c0.015,0.176,0.253,0.352,0.407,0.389c1.293,0.306,2.24,1.048,3.429,1.391
		c1.931,0.557,5.994,0.266,7.449,1.272c1.162,0.804,2.381,0.928,3.775,1.053c3.227,0.291,5.339,0.813,8.152,2.446
		c1.615,0.939,2.561,1.046,3.578,2.7c0.351,0.571,2.603,0.692,2.614,0.753c0.484,2.493,8.12,2.417,9.751,2.541
		c0.938,0.071,1.979-1.297,0.672-1.396c-1.705-0.13-8.177-0.045-8.587-2.155c-0.075-0.387-0.571-0.444-0.879-0.444
		c-1.954,0.001-2.321-0.908-3.192-2.214c-0.43-0.644-2.839-1.111-3.363-1.415c-1.984-1.153-3.507-1.917-5.88-2.1
		c-2.788-0.215-4.778-1.482-7.479-1.711c-1.505-0.126-9.122-0.668-7.74-3.671c0.109-0.237,0.055-0.52-0.178-0.664
		c-0.244-0.44-0.171-0.826,0.22-1.158c0.349-0.559-0.451-0.812-0.836-0.811c-0.781-0.034-1.562,0.002-2.337,0.107
		c0.185,0.38,0.368,0.76,0.553,1.14c0.426-0.3,0.852-0.599,1.277-0.899c0.671-0.472,0.185-1.258-0.553-1.139
		c-3.15,0.507-6.193,1.363-9.402,1.459C78.646,58.66,78.252,60.072,79.568,60.033"/>
	<path clip-path="url(#SVGID_4_)" d="M70.795,66.868c7.804,1.298,16.037,2.424,23.96,2.564c0.424,0.008,2.058-0.748,0.996-0.967
		C90.57,67.398,81.07,65.951,76.27,69.18c-0.344,0.231-0.202,0.529,0.157,0.589c1.014,0.365,2.024,0.379,3.033,0.04
		c-0.347,0.105-1.392,0.731-0.493,0.894c0.482-0.009,0.906,0.137,1.27,0.44c0.021,0.154,0.25,0.194,0.361,0.219
		c5.203,1.123,10.74,1.541,15.269,4.19c0.431,0.253,2.148-0.46,1.679-0.794c-0.049-0.035-0.098-0.07-0.147-0.105
		c-0.502,0.279-1.004,0.559-1.506,0.838c0.654,0.146,1.373,0.37,1.971,0.681c0.46-0.303,0.921-0.607,1.382-0.911
		c-0.113-0.023-0.226-0.046-0.338-0.07c-0.403,0.319-0.806,0.637-1.209,0.955c1.881,0.375,3.734,0.52,5.642,0.683
		c0.157-0.718-0.234-0.891-1.173-0.518c-1.092-0.019-2.177-0.055-3.269-0.038c-0.416,0.006-2.058,0.851-0.995,0.968
		c1.936,0.211,3.844,0.533,5.768,0.831c2.249,0.347,4.242,0.389,6.307,0.329c-0.396,0.012-2.074,0.809-0.996,0.968
		c2.688,0.395,5.388,0.655,8.066,1.108c0.537,0.091,2.267-0.776,1.209-0.955c-2.679-0.452-5.38-0.712-8.066-1.108
		c-0.332,0.323-0.665,0.645-0.996,0.968c0.854-0.024,1.377-0.073,2.187-0.25c0.379-0.083,1.368-0.737,0.493-0.894
		c-4.224-0.761-8.496-1.486-12.762-1.953c-0.333,0.323-0.665,0.646-0.997,0.968c2.447-0.038,5.045,0.392,7.435-0.264
		c0.34-0.093,1.396-0.76,0.493-0.894c-2.383-0.352-4.771-0.432-7.136-0.904c-0.534-0.106-2.269,0.737-1.209,0.955
		c0.113,0.023,0.226,0.047,0.338,0.07c0.369,0.076,2.161-0.506,1.382-0.911c-0.711-0.371-1.535-0.595-2.317-0.769
		c-0.273-0.061-2.045,0.455-1.506,0.838c0.05,0.035,0.1,0.07,0.148,0.105c0.56-0.265,1.119-0.529,1.679-0.794
		c-0.504-0.489-1.008-0.977-1.512-1.466c-0.007-0.151-0.263-0.198-0.361-0.219c-1.536-0.318-13.163-0.89-13.438-2.775
		c-0.021-0.149-0.25-0.203-0.362-0.219c-1.669-0.244-1.516,1.063-0.511-0.246c0.195-0.254-0.029-0.433-0.286-0.465
		c-4.68-0.578,2.198-0.729,3.274-0.791c3.464-0.197,6.932,0.219,10.317,0.916c0.332-0.323,0.664-0.645,0.996-0.968
		c-7.761-0.137-15.886-1.266-23.535-2.539C71.467,65.824,69.737,66.692,70.795,66.868"/>
	<path clip-path="url(#SVGID_4_)" d="M68.558,70.165c-0.554,1.85-2.632,3.442-4.315,4.218c-0.906,0.419-0.092,1.101,0.62,0.773
		c2.087-0.964,4.473-2.841,5.157-5.124C70.208,69.4,68.731,69.583,68.558,70.165"/>
	<path clip-path="url(#SVGID_4_)" d="M68.584,70.492c0.35-0.226,1.649,0.416,2.041,0.526c0.735,0.206,0.879,0.373,0.537,1.104
		c-0.349,0.749,1.114,0.74,1.385,0.162c0.211-0.451,0.442-0.997,0.187-1.478c-0.243-0.459-0.806-0.623-1.271-0.76
		c-1.275-0.376-2.598-1.012-3.838-0.209c-0.259,0.167-0.366,0.548-0.08,0.744C67.862,70.797,68.29,70.682,68.584,70.492"/>
	<path clip-path="url(#SVGID_4_)" d="M65.925,73.02c-0.342-0.08-0.403-0.057-0.184,0.07c0.117,0.097,0.221,0.218,0.329,0.324
		c0.251,0.246,0.574,0.411,0.9,0.534c0.646,0.243,1.353,0.166,2.025,0.114c0.722-0.056,1.196-0.9,0.193-0.822
		c-0.426,0.033-0.839,0.082-1.248-0.072c-0.403-0.151-0.645-0.476-0.964-0.741c-0.573-0.475-1.405-0.24-1.954,0.145
		C64.217,73.136,65.46,73.346,65.925,73.02"/>
	<path clip-path="url(#SVGID_4_)" d="M74.029,73.252c-0.477,0.365-0.892,0.824-1.342,1.222c-0.317,0.279-0.645,0.55-0.995,0.788
		c-0.117,0.079-0.245,0.17-0.377,0.221c0.543-0.211,0.318,0.061,0.146-0.316c-0.156-0.339-1.555,0.159-1.45,0.388
		c0.46,1.006,2.168,0.125,2.785-0.272c0.946-0.609,1.656-1.479,2.542-2.155c0.268-0.206-0.24-0.226-0.337-0.217
		C74.666,72.943,74.3,73.045,74.029,73.252"/>
	<path clip-path="url(#SVGID_4_)" d="M75.293,73.723c-1.002,0.493-2.532,1.095-2.519,2.425c0.026,0.069,0.075,0.116,0.145,0.142
		c0.621,0.193,1.25,0.128,1.845-0.13c0.149-0.065,0.628-0.322,0.395-0.548c-0.223-0.218-0.71-0.101-0.954,0.005
		c-0.042,0.039-0.084,0.039-0.126,0c0.048,0.047,0.097,0.095,0.145,0.142c-0.01-0.915,1.291-1.326,1.956-1.653
		c0.193-0.095,0.442-0.397,0.136-0.529C75.989,73.437,75.59,73.577,75.293,73.723"/>
	<path clip-path="url(#SVGID_4_)" d="M73.64,73.322c0.081-0.101,0.171-0.248,0.289-0.312c-0.179,0.098-0.129,0.035,0.064,0.154
		c0.302,0.186,0.566,0.44,0.849,0.654c0.672,0.505,1.459,0.663,2.27,0.437c0.886-0.247,0.635-1.194-0.254-0.946
		c-0.687,0.191-1.391-0.779-1.947-1.076c-0.909-0.486-1.874-0.054-2.474,0.694C71.865,73.639,73.246,73.813,73.64,73.322"/>
	<path clip-path="url(#SVGID_4_)" d="M76.854,75.251c-0.509,0.655-1.094,1.181-1.814,1.595c0.333,0.073,0.666,0.146,1,0.219
		c0.906-0.598,1.829-1.149,2.948-1.116c-0.14-0.079-0.279-0.158-0.42-0.237c-0.339,0.824-1.407,1.307-1.899,2.053
		c-0.744,1.13,1.445,0.845,1.941,0.772c0.253-0.037,0.736-0.158,0.837-0.44c0.102-0.286-0.479-0.238-0.601-0.22
		c-0.087,0.013-0.918,0.196-0.883-0.041c0.043-0.296,0.419-0.585,0.616-0.78c0.473-0.469,1.166-0.929,1.427-1.565
		c0.093-0.224-0.311-0.234-0.42-0.237c-1.735-0.052-3.27,0.748-4.681,1.677c-0.153,0.1-0.24,0.303-0.02,0.38
		c0.31,0.108,0.746-0.005,1.02-0.162c0.888-0.511,1.649-1.131,2.279-1.942C78.529,74.763,77.099,74.938,76.854,75.251"/>
	<path clip-path="url(#SVGID_4_)" d="M81.999,79.427c3.476-1.269,7.019-0.833,10.436-2.333c-0.26-0.285-0.52-0.569-0.779-0.854
		c-1.378,0.671-2.449,1.35-3.557,2.413c-0.678,0.65,0.488,0.787,0.918,0.694c1.788-0.387,3.257-0.952,4.918-1.753
		c-0.431-0.155-0.862-0.309-1.293-0.463c-0.111,0.167-0.223,0.333-0.333,0.5c-0.13,0.195-0.067,0.413,0.139,0.519
		c1.022,0.522,1.751,0.664,1.464,1.963c-0.073,0.329,0.351,0.467,0.599,0.461c1.904-0.039,0.985,0.615,0.401,2.206
		c-0.119,0.324,0.39,0.461,0.599,0.461c1.986,0,1.689,2.604,3.875,3.312c3.238,1.05,6.811-1.086,10.074-0.173
		c0.649,0.182,2.28-0.782,1.172-1.093c-3.251-0.91-12.005,2.5-11.618-2.732c0.025-0.334-0.311-0.463-0.599-0.463
		c-1.65,0.366-1.806-0.375-0.466-2.223c0.236-0.519-0.377-0.652-0.779-0.6c-1.109,0.262-1.438-0.032-0.989-0.882
		c0.058-0.259-0.186-0.368-0.382-0.433c-0.45-0.251-0.899-0.501-1.35-0.752c0.478-0.715-0.994-0.606-1.293-0.462
		c-1.381,0.761-2.852,1.287-4.414,1.58c0.306,0.231,0.611,0.462,0.918,0.693c0.925-0.64,1.851-1.279,2.775-1.919
		c1.212-0.59,0.106-1.243-0.779-0.854c-3.35,1.471-7.012,1.084-10.436,2.333C79.953,79.034,81.105,79.752,81.999,79.427"/>
	<path clip-path="url(#SVGID_4_)" d="M55.213,78.756c1.305-0.539,2.692-0.792,4-1.333c-0.498,0.031-0.997,0.061-1.496,0.092
		c-0.507,0.716-1.736,2.225-0.99,3.148c0.542,0.671,1.925,0.435,2.643,0.339c2.481-0.333,4.869-1.318,7.177-2.246
		c1.173-0.472-0.675-0.348-1.094-0.18c-1.568,0.631-3.155,1.264-4.807,1.638c-2.893,0.654-2.234-1.363-1.03-3.062
		c0.213-0.3-1.38,0.043-1.496,0.091c-1.304,0.539-2.692,0.793-4,1.333C52.95,79.059,54.795,78.929,55.213,78.756"/>
</g>
<g>
	<defs>
		<rect id="SVGID_5_" width="156" height="155.333"/>
	</defs>
	<clipPath id="SVGID_6_">
		<use xlink:href="#SVGID_5_"  overflow="visible"/>
	</clipPath>
	<path clip-path="url(#SVGID_6_)" fill="#ABAAA8" d="M52.472,50.83c-0.494-0.456-0.884-0.771-1.303-1.042
		c-0.383-0.712-0.942-1.194-1.575-1.653c-0.038-0.725-0.5-1.424-1.623-1.938c-0.926-0.322-1.742-0.814-2.454-1.47
		c0.373-1.417,0.078-2.852-1.503-3.866c-3.493-2.239-6.712-6.336-9.894-9.102c-1.808-1.572-3.112-3.636-4.898-5.179
		c-2.085-1.801-4.425-3.282-6.591-4.988c-4.186-3.298-6.87-6.933-9.93-11.224c-2.074-2.906-9.426,0.125-7.068,3.429
		c2.109,2.956,3.772,5.956,6.482,8.416c2.704,2.454,5.609,4.751,8.58,6.873c3.213,2.295,5.813,5.729,8.833,8.354
		c0.768,0.668,7.812,7.996,8.48,7.054c-0.594,0.837-1.051,1.962-0.292,2.887c1.12,1.364,2.206,2.205,3.493,2.933
		c0.139,0.342,0.371,0.685,0.736,1.022c1.903,1.761,2.122,1.727,4.583,4C49.094,57.705,55.79,53.894,52.472,50.83"/>
	<path clip-path="url(#SVGID_6_)" fill="#ABAAA8" d="M56.444,60.68c-0.64-0.631-1.039-1.429-1.65-2.083
		c-0.564-0.606-1.279-1.059-1.853-1.66c-1.142-1.196-1.227-2.855-3.136-3.239c-0.956-0.193-2.036-0.014-2.732,0.732
		c-0.55,0.589-0.426,1.526,0.456,1.704c1.001,0.201,1.4,1.963,2.078,2.671c0.5,0.524,1.101,0.943,1.633,1.431
		c0.655,0.599,1.014,1.455,1.65,2.083C54.041,63.454,57.704,61.923,56.444,60.68"/>
	<path clip-path="url(#SVGID_6_)" fill="#ABAAA8" d="M57.707,66.218c-3.061-8-4.463-17.271-8.288-25.104
		c-2.296-4.667-5.101-9.334-8.033-13.5c-2.678-3.834-5.484-8.667-8.671-11.834c1.147,2.834,8.049,14.375,8.686,17.375
		C34.771,21.322,26.1,8.51,15.389,8.843c5.356,2,11.253,9.917,14.823,15.75C20.027,10.218,11.372,6.78,3.626,11.218
		c5.116,1.812,10.711,7.75,15.445,11c3.315,2.167,2.939,0.763,6.254,3.097"/>
	<path clip-path="url(#SVGID_6_)" d="M58.19,66.089c-3.245-8.846-4.805-18.191-9.072-26.659
		c-4.152-8.241-9.624-17.112-15.953-23.832c-0.172-0.182-1.056,0.029-0.933,0.312c2.555,5.853,6.994,11.178,8.687,17.375
		c0.321-0.086,0.644-0.172,0.965-0.259C36.322,23.19,28.51,8.791,15.583,8.589c-0.143-0.001-0.984,0.298-0.581,0.476
		c5.343,2.363,9.081,7.381,12.361,12.025c0.285,0.42,0.569,0.84,0.853,1.261c0.412,1.47,0.852,1.639,1.321,0.507
		c-1.035-1.428-2.165-2.78-3.303-4.126c-1.871-2.214-3.995-4.185-6.29-5.948C14.903,8.911,8.939,8.109,3.332,11.095
		c-0.121,0.065-0.303,0.259-0.094,0.345c4.558,1.873,8.225,5.27,11.984,8.365c3.091,2.546,6.401,3.574,9.653,5.693
		c0.271,0.176,1.134-0.214,0.9-0.366c-3.209-2.091-6.561-3.209-9.652-5.692c-3.533-2.837-6.864-5.875-10.921-7.955
		c0.11-1.066,0.772-1.564,1.987-1.492c1.706-0.5,3.441-0.362,5.149-0.063c2.452,0.43,4.706,1.827,6.706,3.22
		c4.319,3.008,7.665,7.415,10.718,11.626c0.173,0.239,1.094-0.055,0.9-0.365c-2.453-3.93-5.143-7.643-8.32-11.022
		c-1.302-1.386-2.776-2.558-4.339-3.632c-2.617-1.798,1.791,0.034,2.952,0.474c9.308,3.528,15.395,14.975,19.964,23.054
		c0.154,0.273,1.052,0.06,0.965-0.259c-1.084-3.969-3.585-7.712-5.534-11.299c-0.909-1.672-1.822-3.343-2.678-5.044
		c-0.763-1.515,0.369,1.259,0.664,1.61c1.429,1.697,2.638,3.596,3.87,5.436c4.429,6.614,8.95,13.145,12.059,20.514
		c3.003,7.119,4.301,14.858,6.959,22.105C57.339,66.66,58.294,66.374,58.19,66.089"/>
	<path clip-path="url(#SVGID_6_)" fill="#ABAAA8" d="M55.667,65.281c-2.933-4.167-6.121-7.667-9.819-10.5
		c-3.315-2.667-8.957-8.27-12.528-10.437c3.491,0,10.615,6.187,13.293,7.687c-1.275-0.667-5.977-5.5-7.794-6.625
		c-1.55-0.96-3.204-2.667-4.734-3.5c-2.55-1.667-1.243-1.875-5.594-5.187c-3.806-2.898-7.093-6.876-11.429-7.876
		c3.29,0.832,13.724,5.876,15.875,7.001c-7.268-4.938-18.17-8.563-25.438-14.688c2.439,1.375,3.778,1.312,8.75,3.562
		C6.16,19.656,5.013,14.593,4.869,12.156"/>
	<path clip-path="url(#SVGID_6_)" d="M56.11,65.071c-4.812-6.648-11.061-11.599-17.192-16.963c-1.38-1.208-2.807-2.349-4.29-3.428
		c0.829,0.604,2.594,1.518,3.734,2.209c2.728,1.654,5.152,3.761,7.877,5.414c0.344,0.208,1.206-0.247,0.748-0.545
		c-3.237-2.112-5.799-5.212-8.972-7.46c-3.783-2.679-6.793-5.969-10.402-8.853c-2.482-1.984-4.686-4.16-7.424-5.812
		c-2.783-1.677-0.255,0.435-2.796-0.297c0.841,0.242,1.658,0.592,2.47,0.913c4.327,1.705,8.567,3.741,12.701,5.866
		c0.334,0.172,1.221-0.235,0.748-0.545c-6.061-3.961-12.799-6.72-19.078-10.302c-1.362-0.776-2.661-1.646-3.954-2.529
		c-0.353-0.242-3.767-1.531-1.547-0.522c2.348,1.067,4.866,1.78,7.235,2.818c0.318,0.139,1.104-0.353,0.656-0.59
		c-4.96-2.621-10.767-6.256-11.272-12.419c-0.034-0.425-1.003-0.195-0.966,0.259c0.278,3.4,2.199,5.97,4.637,8.242
		c0.715,0.667,1.517,1.221,2.303,1.798c0.449,0.294,0.898,0.589,1.347,0.883c0.732,0.984,1.508,1.158,2.328,0.524
		c-2.351-1.029-4.852-1.65-7.128-2.849c-0.329-0.173-1.201,0.181-0.748,0.545c7.335,5.902,16.285,9.053,24.262,13.918
		c1.652,0.225,1.959,0.13,0.922-0.285c-0.495-0.246-0.992-0.491-1.49-0.732c-1.333-0.652-2.678-1.283-4.023-1.911
		c-3.066-1.433-6.191-2.953-9.452-3.892c-0.395-0.114-1.146,0.452-0.563,0.634c5.145,1.6,11.543,6.981,14.912,11.197
		c2.271,2.842,5.994,4.543,8.755,6.909c1.631,1.398,3.164,2.908,4.794,4.307c0.821,0.705,1.56,0.098,0.456-0.639
		c-0.875-0.584-1.718-1.22-2.571-1.836c-2.834-2.045-6.032-4.712-9.637-5.095c-0.258-0.028-0.974,0.331-0.544,0.612
		c3.885,2.539,7.229,5.829,10.697,8.89c4.288,3.783,8.21,7.327,11.581,11.985C55.473,65.833,56.396,65.466,56.11,65.071"/>
	<path clip-path="url(#SVGID_6_)" d="M63.901,76.355c-0.023-0.015-0.048-0.028-0.071-0.044c0,0,0.001,0,0.002,0
		c-1.453-0.872-2.705-3.546-3.149-5.475c-0.068-0.246-0.524-0.174-0.831,0.005c-0.086-0.417-0.199-0.817-0.38-1.172
		c-0.202-0.396-1.228,0.154-1.109,0.389c0.696,1.366,0.498,3.105,1.282,4.422c0.738,1.239,2.191,1.714,3.216,2.393
		c0.002-0.001,0.004-0.003,0.006-0.004c0.022,0.014,0.042,0.035,0.063,0.048C63.193,77.075,64.103,76.488,63.901,76.355"/>
	<path clip-path="url(#SVGID_6_)" d="M11.117,17.199c9.354,6.154,19.086,11.167,26.419,19.825
		c4.953,5.847,9.042,12.668,13.173,19.105c3.806,5.933,6.951,12.406,8.329,19.346c0.041,0.204,0.29,0.318,0.475,0.333
		c2.314,0.19,3.482,2.904,5.924,2.878c0.425-0.004,1.142-0.553,0.622-0.949c-2.585-1.968-4.396-6.144-6.089-8.832
		c-1.949-3.094-3.928-6.205-5.655-9.431c-0.306-0.572-1.686-0.035-1.326,0.639c1.9,3.548,4.096,6.957,6.24,10.36
		c1.595,2.532,3.277,6.246,5.714,8.101c0.207-0.316,0.414-0.633,0.622-0.949c-0.821,0.008-5.064-2.515-5.243-3.276
		c-0.575-2.444-1.043-5.306-2.191-7.554c-4.6-9.005-9.942-17.48-15.707-25.785c-7.9-11.378-18.913-17.228-30.191-24.648
		C11.698,16.01,10.428,16.745,11.117,17.199"/>
</g>
</svg>
