<?xml version="1.0" encoding="utf-8"?>
<!-- Generator: Adobe Illustrator 15.1.0, SVG Export Plug-In . SVG Version: 6.00 Build 0)  -->
<!DOCTYPE svg PUBLIC "-//W3C//DTD SVG 1.1//EN" "http://www.w3.org/Graphics/SVG/1.1/DTD/svg11.dtd">
<svg version="1.1" id="Trumpet" xmlns="http://www.w3.org/2000/svg" xmlns:xlink="http://www.w3.org/1999/xlink" x="0px" y="0px"
	 width="664.467px" height="691.465px" viewBox="0 0 664.467 691.465" enable-background="new 0 0 664.467 691.465"
	 xml:space="preserve">
<g>
	<g>
		<path fill="#565554" d="M141.205,348.241c2.601,1.429,4.256,3.344,5.974,5.674c1.418,2.035,2.626,3.805,2.088,6.396
			c-0.681,3.039-3.142,3.629-5.907,3.629c-2.466-0.004-4.93,0.29-7.397,0.286l-0.268-0.087c-2.39-1.164-3.232-4.988-3.318-7.484
			c-0.077-1.604,0.055-3.24,0.454-4.789c0.256-1.103,0.447-2.514,1.36-3.208C134.192,348.659,138.665,346.93,141.205,348.241z"/>
		<g>
			<path fill="#565554" d="M140.303,348.602c3.232,1.935,5.716,4.821,7.497,8.128c1.314,2.441,0.715,6.099-2.679,6.654
				c-2.404,0.395-5.092,0.227-7.532,0.332c-3.38,0.146-4.089-4.734-4.245-7.318c-0.132-2.205,0.31-4.319,0.883-6.428
				c0.596-2.193,4.566-1.93,6.2-1.295c0.521,0.203,2.286-0.583,1.556-0.867c-2.125-0.826-8.102-1.068-9.313,1.629
				c-1.567,3.488-2.765,13.512,2.383,15.181c2.423,0.785,6.187-0.146,8.736-0.206c1.913-0.045,3.751-0.585,5.188-1.863
				c5.039-4.488-3.314-12.539-6.869-14.667C141.563,347.556,139.87,348.343,140.303,348.602z"/>
		</g>
	</g>
	<g>
		<path fill="#565554" d="M78.263,354.55c-0.892,2.773-1.484,5.842,0.475,8.348c1.537,1.975,4.402,3.193,6.812,3.375
			c2.409,0.183,6.976-0.816,7.091-3.938c-0.06-2.882-3.766-4.864-5.858-6.03c-2.898-1.426-5.403-2.232-8.58-1.871"/>
	</g>
	<g>
		<path fill="#FEEB00" d="M12.549,371.343c3.247,0.082,6.464-2.735,9.351-3.925c7.269-3.438,129.663-8.522,137.547-8.49
			c6.377-0.066,13.221,0.209,19.721,0.952c7.081,0.737,13.605,3.799,19.789,7.328c5.721,3.767,10.649,9.396,16.708,12.115
			c7.454,3.168,13.314-1.879,16.146-8.287c5.43-12.695,2.58-36.791-4.838-48.438c-3.836-5.863-10.436-9.893-17.277-5.558
			c-5.537,3.667-9.488,10.021-14.521,14.665c-5.528,4.486-11.47,8.565-18.337,10.442c-6.293,1.788-13.003,3.17-19.305,4.138
			c-7.776,1.312-129.461,15.071-137.191,12.857c-3.041-0.706-6.672-2.964-9.863-2.356c-1.518,0.354-2.61,2.425-2.195,7.238
			C8.672,368.547,11.088,371.246,12.549,371.343z"/>
		<g>
			<path d="M12.414,371.866c5.241-0.488,9.264-4.252,14.574-4.975c5.243-0.715,10.531-1.125,15.804-1.545
				c16.442-1.309,32.92-2.195,49.391-3.048c15.951-0.826,31.908-1.559,47.868-2.198c12.882-0.518,25.656-1.086,38.524,0.295
				c7.785,0.836,15.813,4.391,22.076,9.041c5.136,3.813,9.564,8.672,15.713,10.874c8.16,2.921,14.788-4.651,17.201-11.494
				c3.562-10.099,2.287-22.281-0.082-32.47c-1.833-7.886-6.415-21.024-16.286-21.585c-11.405-0.647-17.549,12.756-25.378,18.829
				c-10.273,7.968-22.88,10.621-35.522,12.375c-10.594,1.47-21.249,2.569-31.877,3.755c-26.468,2.953-52.965,5.805-79.514,7.943
				c-7.575,0.609-15.465,1.658-23.076,1.108c-4.157-0.3-9.146-4.688-13.167-1.532c-3.785,2.971-1.227,13.413,3.293,14.619
				c0.599,0.16,2.274-0.742,1.188-1.031c-3.768-1.007-4.027-7.113-3.942-10.039c0.153-5.283,5.999-2.654,9.032-1.568
				c1.334,0.477,2.568,0.637,3.962,0.684c4.168,0.143,8.374-0.202,12.53-0.467c15.237-0.973,30.445-2.501,45.635-4.021
				c25.608-2.564,51.625-4.43,77.036-8.606c12.318-2.025,24.447-4.313,34.65-11.935c5.304-3.962,9.146-8.901,13.683-13.664
				c4.464-4.688,10.852-6.846,16.44-2.661c2.784,2.084,4.562,5.303,6.024,8.372c5.005,10.505,6.333,23.49,5.016,34.927
				c-0.67,5.821-2.526,11.568-6.93,15.635c-8.147,7.521-19.013-5.219-25.117-9.75c-14.045-10.426-32.573-9.701-49.212-9.129
				c-13.75,0.474-27.497,1.092-41.24,1.74c-19.75,0.934-39.501,1.954-59.226,3.33c-7.265,0.508-14.537,1.043-21.775,1.866
				c-2.029,0.231-4.067,0.479-6.069,0.89c-3.916,0.805-6.879,4.01-10.955,4.389C11.748,370.907,11.073,371.991,12.414,371.866z"/>
		</g>
	</g>
	<g>
		<path fill="#F9A11B" d="M12.727,371.343c3.247,0.082,5.374-1.844,8.261-3.033c7.269-3.439,131.507-7.403,139.392-7.37
			c6.377-0.067,13.221,0.208,19.721,0.951c7.082,0.737,13.606,3.8,19.789,7.329c5.722,3.766,10.65,9.396,16.708,12.115
			c7.453,3.167,13.314-1.88,16.145-8.287c5.431-12.695,2.58-36.792-4.838-48.438c4.57,13.141,3.67,36.332,0.972,43.97
			c-4.426,12.529-18.489,5.504-27.629-0.859c-5.844-4.066-9.509-7.27-19.916-9.697c-6.372-1.485-15.517-2.096-23.715-1.573
			c-7.869,0.501-130.214,9.571-137.944,7.356c-2.659,3.357-3.712,6.621-6.592,6.172c-1.54-0.24-3.129-3.902-4.682-7.448
			C9.242,370.324,11.266,371.245,12.727,371.343z"/>
	</g>
	<g>
		<path fill="#080705" d="M134.194,348.552c3.425,1.628,5.228,1.81,7.4,4.877c1.371,2.284,2.049,6.536,1.869,9.664
			c-2.275,2.163-37.028,2.493-40.624,2.521c0.161-1.626-0.657-5.016-1.321-7.861c-0.902-2.923-1.644-3.904-4.116-5.324
			c-3.994,0.854-19.06,2.081-19.06,2.081c7.309,1.627,4.288,9.13,6.558,12.245c1.433,1.967,9.259,14.693,10.11,20.232
			c2.017,10.916,2.066,23.041-1.312,33.539c-3.3,10.258-7.87,20.372-12.439,30.486c-2.089,4.856-4.254,9.95-5.704,15.276
			c-1.526,5.563-0.675,11.104-0.14,16.803c1.165,12.748-2.442,23.961-5.964,35.727c2.446-1.055,5.02-4.965,6.818-7.283
			c2.429-2.641,4.62-5.357,7.21-7.684c5.966-5.453,14.834-34.455,17.656-37.496c-6.211,6.625-0.224,29.545-0.429,32.639
			c-0.556,7.455,3.776,12.402,3.297,19.621c-0.35,4.361,0.255,11.072,0.459,15.352c2.429-2.643,19.371-57.15,25.513-60.9
			c-3.356,4.668-4.886,61.02-4.282,65.688c6.922-12.516,23.84-56.104,28.887-66.066c5.813-12.346,13.497-31.724,14.147-45.204
			c0.796-14.749-13.302-62.703-10.683-66.514c3.211-4.674-4.255-14.308-4.826-15.807
			C153.219,345.163,139.077,345.648,134.194,348.552z"/>
	</g>
	<g>
		<g>
			<path fill="#F9A11B" d="M135.735,348.313c3.383,1.805,6.733,4.459,7.755,8.308c0.471,1.775,0.738,3.681,1.02,5.495
				c0.268,1.719,1.265,2.883-0.633,3.18c-5.048,0.788-10.261,0.861-15.357,1.084c-9.196,0.4-18.408,0.641-27.612,0.723
				c0.369,0.19,0.737,0.381,1.105,0.571c0.562-6.092-0.878-11.704-6.109-15.417c-1.057-0.75-3.603,0.219-4.704,0.361
				c-2.442,0.314-4.917,0.47-7.376,0.605c-0.419,0.023-3.873,1.223-2.38,1.689c5.021,1.568,4.903,7.477,5.848,11.754
				c0.814,3.686,4.252,7.457,6.02,10.754c2.806,5.233,3.911,10.213,5.024,16.014c1.671,8.707,3.006,17.548,1.054,26.323
				c-3.149,14.153-13.324,25.854-17.562,39.6c-0.874,2.834-1.837,5.635-2.197,8.588c-0.421,3.457,0.295,7.158,0.232,10.652
				c-0.158,8.809-2.395,17.547-4.87,25.947c-0.331,1.123,2.708,0.254,3.055,0.049c7.113-4.215,11.308-13.824,14.159-21.309
				c1.686-4.426,3.249-8.891,5.139-13.236c1.44-3.309,4.324-10.824,8.483-11.516c0.046-0.516,0.091-1.029,0.137-1.545
				c-8.027,1.834-5.143,16-4.572,21.66c0.476,4.717,0.391,9.703,1.658,14.252c2.216,7.955,1.989,15.938,2.447,24.174
				c0.059,1.066,3.338-0.141,3.697-0.602c1.551-2.002,2.122-5.129,2.913-7.473c1.778-5.268,3.553-10.535,5.488-15.748
				c2.167-5.838,4.557-11.607,7.436-17.135c1.683-3.232,5.629-11.539,10.039-11.725c-0.369-0.189-0.737-0.381-1.105-0.57
				c-1.298,3.201-1.491,7.08-1.972,10.461c-0.946,6.648-1.696,13.324-2.412,20c-0.65,6.055-1.235,12.117-1.742,18.186
				c-0.298,3.572-0.927,7.426-0.577,11.016c0.111,1.141,3.498-0.186,3.846-0.826c7.901-14.564,13.055-30.844,19.158-46.209
				c2.601-6.547,5.719-12.906,8.186-19.496c3.938-10.519,6.398-21.868,7.421-33.044c0.601-6.559-0.502-13.104-1.547-19.563
				c-1.388-8.585-3.103-17.116-4.692-25.665c-1.103-5.936-2.614-12.133-2.619-18.202c-0.001-2.271,1.22-3.622,0.667-6.122
				c-0.782-3.529-3.465-6.145-5.043-9.27c-0.201-0.398-0.748-0.363-1.123-0.362c-4.956,0.014-10.007,0.62-14.668,2.346
				c-2.57,0.952-0.159,1.683,1.397,1.106c2.79-1.033,5.693-1.375,8.642-1.586c0.82-0.059,1.643-0.081,2.465-0.101
				c0.994-0.024-0.778-0.638-0.155,0.37c2.054,3.319,4.54,6.433,4.929,10.454c0.164,1.688-1.032,3.715-0.934,5.629
				c0.152,2.962,0.686,5.92,1.167,8.842c2.648,16.07,7.405,32.342,7.857,48.684c0.532,19.245-8.008,37.245-14.991,54.626
				c-6.427,15.998-11.706,32.992-19.946,48.182c1.282-0.275,2.564-0.551,3.846-0.826c-0.324-3.32,0.245-6.863,0.508-10.168
				c0.523-6.572,1.186-13.133,1.89-19.688c0.678-6.318,1.419-12.633,2.297-18.928c0.471-3.379,0.675-7.264,1.972-10.461
				c0.231-0.572-0.826-0.584-1.105-0.572c-10.58,0.443-15.914,14.334-19.403,22.402c-2.813,6.506-5.159,13.213-7.436,19.922
				c-1.163,3.426-1.921,8.766-4.185,11.686c1.232-0.201,2.465-0.402,3.697-0.604c-0.339-6.1,0.123-12.703-0.893-18.689
				c-0.562-3.313-1.964-6.41-2.496-9.746c-0.275-1.727-0.043-3.531-0.212-5.283c-0.378-3.902-0.851-7.787-1.065-11.705
				c-0.095-1.734-0.875-11.617,1.653-12.193c1.676-0.383,2.399-1.922,0.137-1.545c-8.432,1.402-11.94,11.031-14.716,17.994
				c-1.718,4.307-3.134,8.736-4.985,12.99c-2.33,5.352-5.857,12.959-11.018,16.018c1.018,0.016,2.036,0.031,3.055,0.049
				c2.187-7.424,4.141-15.035,4.696-22.781c0.301-4.199,0.152-8.297-0.085-12.492c-0.21-3.715,1.525-7.646,2.598-11.129
				c2.022-6.558,5.991-12.973,9.013-19.13c3.849-7.842,7.977-15.484,9.033-24.285c0.937-7.805-0.752-15.854-2.217-23.484
				c-1.168-6.088-2.869-10.98-5.871-16.423c-1.876-3.401-4.463-6.399-5.175-10.268c-0.814-4.417-1.357-9.118-6.227-10.64
				c-0.793,0.563-1.587,1.125-2.38,1.688c3.179-0.176,6.353-0.453,9.511-0.86c2.542-0.327,4.239,3.292,5.356,5.222
				c1.578,2.728,1.393,5.918,1.113,8.946c-0.055,0.597,0.669,0.575,1.105,0.571c11.806-0.105,23.637-0.4,35.421-1.125
				c3.925-0.242,8.766-0.09,12.404-1.841c2.787-1.342,0.907-6.917,0.464-9.035c-0.978-4.677-4.039-7.695-8.22-9.927
				C138.307,346.373,135.069,347.958,135.735,348.313z"/>
		</g>
	</g>
	<g>
		<path fill="#EB7125" d="M145.262,429.033l-7.371,2.134l-12.561-1.799l-0.905,6.324l-6.337-0.906l0.906-6.324l-4.737-0.68
			l5.143-2.426c0,0,1.272-7.406,1.511-10.549c0.289-3.805-0.175-12.702-0.175-12.702c-0.197-2.392-1.082-4.197-2.652-5.419
			c-0.632-0.498-1.252-0.754-1.862-0.771l-0.762-0.025l16.283-1.343c0.142-0.012,0.247-0.021,0.314-0.025l0.843-0.069
			c3.221-0.266,5.593-0.191,7.113,0.224c1.451,0.395,2.826,1.314,4.129,2.759c0.807,0.895,1.486,2.209,2.035,3.943l-6.425,0.529
			c-0.404-0.994-0.854-1.758-1.355-2.289c-1.396-1.485-3.087-2.146-5.075-1.982c-1.576,0.129-2.884,0.697-3.923,1.703
			c-0.54,0.525-1.037,1.26-1.491,2.201c-0.323,0.676-0.497,1.443-0.52,2.298c-0.008,0.313,0.004,0.657,0.035,1.034
			c0.021,0.252,0.034,0.416,0.041,0.492c0,0,0.31,3.968,0.042,8.191c-0.357,5.625-1.725,12.664-1.725,12.664l10.374,1.484
			c2.042,0.293,3.667,0.457,4.878,0.494c1.354,0.041,2.619-0.093,3.794-0.4L145.262,429.033z"/>
	</g>
</g>
<g>
	<g>
		<path fill="#565554" d="M229.033,292.855c4.377,1.62,7.394,4.215,10.606,7.441c2.677,2.838,4.966,5.312,4.73,9.467
			c-0.356,4.884-4.047,6.373-8.347,7.012c-3.837,0.565-7.602,1.593-11.44,2.158l-0.438-0.073c-3.986-1.256-6.183-7.011-6.894-10.873
			c-0.491-2.478-0.665-5.053-0.403-7.556c0.143-1.773,0.113-4.013,1.373-5.303C218.222,295.129,224.779,291.404,229.033,292.855z"/>
		<g>
			<path fill="#565554" d="M228.255,293.289c5.345,2.182,9.666,6.02,13.218,10.515c2,2.532,2.333,5.638,1.343,8.642
				c-1.368,4.153-9.051,4.252-12.625,4.992c-4.037,0.836-6.047,1.529-8.798-1.785c-1.79-2.156-2.61-5.241-3.176-7.924
				c-0.431-2.045-1.821-11.044,0.72-12.444c2.838-1.563,6.264-2.711,9.492-1.953c0.538,0.126,2.264-0.707,1.208-0.955
				c-4.444-1.044-12.093,0.428-13.482,5.36c-1.585,5.627-0.051,20.364,7.605,21.638c1.436,0.239,3.103-0.387,4.493-0.656
				c3.036-0.587,6.143-1.04,9.151-1.747c2.384-0.561,5.488-1.462,6.78-3.8c4.908-8.877-7.291-17.862-14.373-20.751
				C229.293,292.209,227.523,292.99,228.255,293.289z"/>
		</g>
	</g>
	<g>
		<path fill="#565554" d="M132.59,317.246c-0.746,4.521-0.956,9.43,2.671,12.874c2.848,2.716,7.587,3.947,11.378,3.673
			c3.79-0.274,10.662-2.886,10.118-7.769c-0.761-4.469-6.985-6.694-10.51-8.024c-4.838-1.547-8.921-2.22-13.778-0.923"/>
	</g>
	<g>
		<path fill="#FEEB00" d="M34.261,358.586c5.07-0.624,9.421-5.752,13.636-8.271c10.51-7.032,199.715-43.287,211.987-45.062
			c9.904-1.581,20.613-2.737,30.896-3.086c11.186-0.493,22.043,2.758,32.479,6.816c9.771,4.534,18.74,12.148,28.795,14.976
			c12.328,3.201,20.273-6.007,23.195-16.629c5.506-21.006-4.508-57.827-18.744-74.225c-7.324-8.232-18.523-12.972-28.162-4.644
			c-7.764,6.985-12.438,17.784-19.191,26.174c-7.561,8.258-15.857,15.98-26.105,20.489c-9.375,4.239-19.492,7.943-29.07,10.908
			c-11.792,3.841-197.885,53.425-210.422,51.771c-4.894-0.394-11.065-3.065-15.888-1.38c-2.279,0.902-3.499,4.375-1.738,11.768
			C27.583,355.135,31.966,358.774,34.261,358.586z"/>
		<g>
			<path d="M34.388,359.058c6.557-1.328,10.313-7.222,16.358-9.477c3.387-1.265,6.93-2.159,10.421-3.082
				c12.251-3.236,24.645-5.955,37.021-8.664c33.554-7.344,67.247-14.071,100.957-20.657c20.736-4.052,41.48-8.413,62.36-11.676
				c16.162-2.527,32.801-4.469,48.799-0.199c7.625,2.035,14.514,5.077,21.262,9.109c5.863,3.505,11.721,7.551,18.314,9.577
				c8.668,2.663,16.535-0.005,21.939-7.243c5.822-7.797,6.26-18.505,5.791-27.83c-0.588-11.688-3.547-23.317-7.729-34.208
				c-3.703-9.64-8.869-19.666-17.049-26.237c-7.803-6.27-17.527-6.307-25.262-0.162c-4.596,3.651-7.875,9.226-10.992,14.087
				c-4.23,6.6-8.43,12.592-14.027,18.138c-14.551,14.417-34.559,21.075-53.9,26.55c-9.938,2.813-19.919,5.479-29.896,8.151
				c-32.213,8.626-64.493,17.02-96.848,25.097c-15.081,3.765-30.182,7.459-45.336,10.919c-9.562,2.184-19.201,4.542-28.939,5.807
				c-6.998,0.91-14.504-4.016-21.109-0.633c-4.292,2.198-2.022,10.359-1.132,13.566c1.041,3.752,4.111,8.941,8.492,9.131
				c0.718,0.03,2.063-1.02,0.757-1.076c-6.09-0.262-8.075-10.487-8.538-14.946c-0.575-5.541,2.586-7.156,8.136-6.382
				c2.979,0.416,5.862,1.279,8.858,1.616c2.239,0.251,4.637-0.256,6.837-0.601c10.373-1.628,20.638-4.09,30.861-6.451
				c32.589-7.526,64.993-15.884,97.358-24.317c24.187-6.303,48.415-12.542,72.446-19.421c18.783-5.376,37.805-12.021,52.289-25.545
				c4.561-4.259,8.467-8.802,11.918-13.998c4.178-6.291,7.859-12.87,13.168-18.315c13.965-14.328,29.16,3.763,35.51,15.676
				c5.477,10.274,8.908,21.709,10.926,33.138c1.883,10.658,2.545,22.421-1.393,32.697c-2.697,7.038-8.438,12.818-16.338,12.858
				c-7.768,0.04-15.717-5.791-22.082-9.663c-12.066-7.34-25.506-12.167-39.723-12.794c-14.65-0.646-29.596,2.1-43.998,4.727
				c-11.406,2.08-22.794,4.261-34.179,6.453c-33.008,6.355-65.98,12.912-98.872,19.847c-14.558,3.069-29.105,6.208-43.585,9.629
				c-8.264,1.952-16.814,3.702-24.766,6.748c-5.666,2.17-9.196,7.867-15.341,9.111C32.95,358.354,33.229,359.292,34.388,359.058z"/>
		</g>
	</g>
	<g>
		<path fill="#F9A11B" d="M34.538,358.544c5.07-0.623,7.932-4.112,12.147-6.631c10.51-7.032,202.843-41.972,215.115-43.747
			c9.904-1.581,20.613-2.738,30.896-3.088c11.186-0.492,22.045,2.759,32.479,6.817c9.771,4.534,18.742,12.148,28.795,14.976
			c12.328,3.2,20.275-6.007,23.195-16.629c5.508-21.006-4.508-57.828-18.744-74.225c10.152,19.381,14.123,55.664,11.695,68.168
			c-3.982,20.514-27.484,12.844-43.176,5.064c-10.031-4.973-16.475-9.107-33.225-10.472c-10.256-0.835-24.621,0.334-37.253,3.045
			c-12.124,2.602-200.331,45.045-212.868,43.391c-3.359,5.837-4.24,11.159-8.825,11.127c-2.451-0.017-5.771-5.345-9.006-10.502
			C28.881,357.768,32.242,358.731,34.538,358.544z"/>
	</g>
	<g>
		<path fill="#080705" d="M218.201,294.963c5.705,1.74,8.551,1.604,12.641,5.873c2.662,3.235,4.702,9.692,5.146,14.599
			c-3.037,3.893-57.019,12.454-62.605,13.33c-0.126-2.567-2.184-7.649-3.876-11.923c-2.08-4.338-3.461-5.692-7.636-7.33
			c-6.014,2.254-29.166,7.652-29.166,7.652c11.746,0.839,8.785,13.209,13.038,17.529c2.684,2.727,17.806,20.711,20.412,29.13
			c5.666,16.512,8.549,35.361,5.728,52.473c-2.757,16.722-7.523,33.512-12.289,50.302c-2.124,8.039-4.313,16.465-5.334,25.084
			c-1.085,9.008,1.521,17.428,3.673,26.17c4.765,19.559,1.75,37.836-1.002,56.955c3.56-2.209,6.659-8.889,8.919-12.91
			c3.167-4.67,5.945-9.404,9.437-13.623c8.017-9.861,15.094-57.027,18.779-62.41c-8.127,11.74,6.494,46.006,6.891,50.865
			c0.863,11.727,8.747,18.42,9.673,29.758c0.465,6.865,2.961,17.164,4.269,23.771c3.167-4.672,16.895-93.381,25.582-100.637
			c-4.139,8.039,6.531,96.045,8.552,103.168c7.868-21.07,24.089-92.791,29.632-109.455c6.184-20.55,13.646-52.474,11.537-73.592
			c-2.178-23.128-35.213-94.454-32.021-100.988c3.912-8.015-9.934-21.27-11.168-23.47
			C247.009,285.284,225.123,289.314,218.201,294.963z"/>
	</g>
	<g>
		<g>
			<path fill="#F9A11B" d="M221.629,293.55c7.237,2.452,12.218,6.672,14.797,13.821c0.58,1.607,4.255,9.751,2.465,11.194
				c-0.511,0.412-1.396,0.576-2.004,0.768c-7.423,2.341-15.224,3.671-22.849,5.158c-14.627,2.852-29.322,5.442-44.043,7.763
				c0.534,0.104,1.069,0.208,1.603,0.311c-0.452-8.694-3.723-17.881-12.307-21.877c-2.826-1.316-6.612,0.967-9.405,1.699
				c-3.202,0.84-6.438,1.571-9.68,2.236c-0.562,0.115-3.564,1.45-1.559,1.701c8.315,1.043,9.32,11.17,11.954,17.429
				c0.75,1.782,2.127,3.052,3.373,4.482c2.52,2.891,4.898,5.906,7.218,8.959c5.95,7.83,9.134,15.332,12.371,24.555
				c4.125,11.752,7.968,23.771,8.212,36.33c0.262,13.531-5.265,26.786-9.292,39.465c-3.125,9.838-7.087,19.892-8.91,30.058
				c-0.76,4.24-1.459,8.643-1.676,12.949c-0.305,6.08,2.074,12.34,2.841,18.352c1.77,13.871,0.438,28.033-1.505,41.803
				c-0.18,1.277,2.972,0.16,3.416-0.168c6.816-5.035,10.042-14.996,12.547-22.672c1.92-5.883,3.607-11.512,4.88-17.609
				c1.509-7.232,3.031-14.467,5.249-21.521c1.676-5.334,4.61-14.951,10.736-16.775c-0.297-0.424-0.594-0.848-0.891-1.271
				c-5.113,1.781-5.129,7.551-4.9,12.145c0.406,8.162,2.66,16.277,4.715,24.145c1.942,7.436,3.051,14.643,6.427,21.656
				c2.59,5.383,3.607,10.32,4.429,16.178c0.86,6.129,2.475,12.141,3.708,18.199c0.243,1.195,3.468-0.195,3.846-0.826
				c2.2-3.668,2.242-9.791,2.973-13.887c1.643-9.211,3.329-18.41,5.353-27.545c2.162-9.756,4.694-19.49,8.341-28.805
				c2.135-5.455,6.257-16.543,13.059-17.725c-0.528-0.172-1.057-0.346-1.585-0.52c-1.297,5.084-0.695,11.033-0.667,16.211
				c0.056,10.34,0.413,20.678,0.828,31.008c0.403,10.045,0.907,20.086,1.563,30.117c0.359,5.48,0.231,11.545,1.629,16.898
				c0.283,1.086,3.555-0.037,3.846-0.826c11.693-31.828,14.318-66.398,24.84-98.561c3.664-11.201,4.943-23.407,5.928-35.091
				c0.936-11.123,1.455-22.725-0.068-33.822c-2.219-16.17-8.955-32.17-14.27-47.496c-4.508-12.999-9.58-25.989-12.893-39.361
				c-0.385-1.557-0.723-3.138-0.855-4.738c-0.15-1.819,0.814-3.4,0.717-5.288c-0.36-6.947-7.498-11.47-10.995-16.718
				c-0.33-0.496-1.091-0.387-1.603-0.311c-7.339,1.095-14.992,2.965-21.473,6.66c-2.245,1.28,1.273,1.29,2.281,0.715
				c5.599-3.191,12.191-4.771,18.535-5.717c-0.534-0.104-1.069-0.208-1.603-0.311c3.761,5.646,13.563,12.157,10.468,20.024
				c-1.239,3.149,1.062,8.388,1.92,11.36c4.88,16.905,11.292,33.377,16.882,50.053c2.688,8.017,5.301,16.077,7.387,24.274
				c2.064,8.122,2.477,16.295,2.463,24.662c-0.021,13.343-1.326,26.75-3.795,39.858c-1.432,7.602-3.883,14.928-5.77,22.416
				c-3.939,15.627-7.342,31.391-11.016,47.08c-3.201,13.666-6.058,27.727-10.908,40.93c1.281-0.275,2.563-0.551,3.846-0.826
				c-1.33-5.092-1.219-10.838-1.572-16.053c-0.676-9.951-1.16-19.918-1.576-29.885c-0.422-10.117-0.75-20.244-0.857-30.371
				c-0.06-5.559-0.774-12.053,0.617-17.508c0.189-0.74-1.227-0.582-1.585-0.52c-6.754,1.172-10.873,6.572-13.995,12.258
				c-4.99,9.092-7.743,19.482-10.233,29.48c-2.586,10.389-4.559,20.922-6.447,31.455c-0.692,3.859-1.357,7.727-2.108,11.576
				c-0.334,1.713-0.509,3.934-1.428,5.465c1.282-0.275,2.564-0.551,3.846-0.826c-1.044-5.131-2.265-10.223-3.232-15.371
				c-0.974-5.182-1.157-10.191-3.139-15.152c-1.975-4.943-4.673-9.4-5.895-14.639c-0.556-2.383-0.721-4.795-1.332-7.182
				c-1.707-6.664-3.498-13.293-4.711-20.07c-0.603-3.369-3.369-16.082,1.465-17.766c2.174-0.756,0.747-1.758-0.891-1.27
				c-12.624,3.76-15.425,22.029-17.85,32.918c-1.492,6.699-2.539,13.563-4.58,20.125c-1.269,4.08-2.803,8.182-4.274,12.197
				c-1.73,4.723-5.278,11.5-9.328,14.49c1.139-0.055,2.277-0.111,3.416-0.168c1.804-12.785,2.874-25.635,1.91-38.541
				c-0.49-6.563-2.377-12.824-3.127-19.32c-0.611-5.285,0.855-11.328,1.787-16.527c1.948-10.864,6.439-21.86,9.828-32.358
				c4.003-12.402,8.402-24.807,8.146-38.01c-0.253-13.049-5.077-25.826-9.362-37.981c-2.999-8.506-6.7-15.313-12.164-22.503
				c-3.819-5.026-8.787-9.307-10.814-15.371c-2.188-6.547-4.279-13.907-12.158-14.896c-0.52,0.567-1.04,1.134-1.559,1.701
				c5.74-1.178,11.474-2.488,17.047-4.306c-0.361,0.117,2.94,2.876,3.164,3.072c1.926,1.69,3.587,3.733,5.038,5.834
				c2.492,3.608,2.716,8.478,2.937,12.72c0.027,0.53,1.35,0.351,1.603,0.311c17.65-2.783,35.288-5.88,52.781-9.52
				c6.142-1.278,13.684-2.058,19.237-5.211c4.17-2.367-0.466-11.182-1.575-14.255c-2.42-6.71-8.398-10.754-15.009-12.993
				C223.812,291.608,220.322,293.108,221.629,293.55z"/>
		</g>
	</g>
	<g>
		<path fill="#EB7125" d="M254.056,417.587l-10.972,5.025l-19.954,0.111l0.056,10.047l-10.066,0.059l-0.056-10.048l-7.525,0.041
			l7.438-4.966c0,0,0.265-11.814-0.092-16.757c-0.432-5.987-3.215-19.719-3.215-19.719c-0.86-3.673-2.653-6.278-5.379-7.815
			c-1.099-0.627-2.123-0.883-3.075-0.77l-1.191,0.137l25.017-5.857c0.217-0.051,0.379-0.089,0.482-0.113l1.296-0.303
			c4.949-1.158,8.655-1.593,11.116-1.299c2.349,0.277,4.701,1.39,7.062,3.334c1.463,1.205,2.823,3.092,4.079,5.662l-9.872,2.311
			c-0.858-1.452-1.736-2.535-2.638-3.246c-2.515-1.986-5.299-2.623-8.353-1.908c-2.422,0.566-4.325,1.754-5.708,3.559
			c-0.718,0.943-1.321,2.199-1.81,3.77c-0.347,1.127-0.438,2.358-0.276,3.693c0.06,0.49,0.159,1.023,0.294,1.602
			c0.09,0.387,0.15,0.639,0.177,0.756c0,0,1.401,6.1,1.962,12.732c0.748,8.832,0.249,20.097,0.249,20.097l16.48-0.092
			c3.243-0.019,5.809-0.139,7.702-0.362c2.117-0.248,4.053-0.75,5.809-1.501L254.056,417.587z"/>
	</g>
</g>
<g>
	<g>
		<path fill="#565554" d="M372.835,170.452c7.75,1.5,13.5,5,19.75,9.5c5.25,4,9.75,7.5,10.5,14.5c0.75,8.25-5,11.75-12,14
			c-6.25,2-12.25,4.75-18.5,6.75h-0.75c-7-1-12.25-10-14.5-16.25c-1.5-4-2.5-8.25-2.75-12.5c-0.25-3-0.917-6.729,0.833-9.229
			C355.418,177.223,365.335,169.202,372.835,170.452z"/>
		<g>
			<path fill="#565554" d="M372.231,170.93c6.747,1.455,12.479,4.528,18.12,8.434c4.333,3,8.618,6.364,10.799,11.29
				c6.396,14.442-12.814,18.198-22.186,21.808c-2.864,1.104-5.568,2.718-8.618,1.691c-2.728-0.918-4.868-3.315-6.641-5.468
				c-3.57-4.337-5.604-9.901-7.038-15.253c-0.849-3.17-3.352-13.869-0.202-16.321C360.811,173.728,366.565,170.333,372.231,170.93
				c0.532,0.056,2.26-0.845,1.209-0.955c-4.935-0.52-9.471,1.352-13.705,3.722c-4.135,2.315-6.371,3.831-6.443,8.91
				c-0.122,8.521,2.508,17.311,6.99,24.512c2.528,4.061,6.747,8.575,11.913,8.575c2.855,0,6.534-2.193,9.17-3.209
				c4.141-1.595,8.338-3.008,12.495-4.55c5.136-1.905,9.337-5.254,10.19-10.9c1.091-7.222-4.307-12.581-9.451-16.591
				c-6.326-4.933-13.279-8.77-21.159-10.468C372.902,169.858,371.174,170.702,372.231,170.93z"/>
		</g>
	</g>
	<g>
		<path fill="#565554" d="M218.585,237.702c0,7.75,1,16,8,20.75c5.5,3.75,13.75,4.5,20,3s17-7.75,14.75-15.75
			c-2.5-7.25-13.5-9.25-19.75-10.5c-8.5-1.25-15.5-1.25-23.25,2.25"/>
	</g>
	<g>
		<path fill="#FEEB00" d="M65.853,333.758c8.291-2.438,14.142-12.192,20.482-17.556c15.604-14.629,321.407-127.207,341.402-133.547
			c16.092-5.364,33.648-10.241,50.715-13.654c18.531-3.901,37.551-1.463,56.082,2.438c17.555,4.877,34.623,15.118,52.18,17.069
			c21.455,1.95,32.186-15.605,34.137-34.137c3.412-36.575-23.438-95.272-51.713-118.721c-14.484-11.724-34.484-16.551-48.277,0
			C509.828,49.444,505,68.754,496.035,84.616c-10.346,15.862-22.07,31.034-37.932,41.379c-14.482,9.655-30.345,18.621-45.518,26.207
			c-18.621,9.655-315.563,143.624-336.942,144.313c-8.276,0.69-19.311-2.069-26.896,2.069c-3.556,2.134-4.636,8.266,0.338,20.117
			C53.758,329.836,62.074,334.703,65.853,333.758z"/>
		<g>
			<path d="M66.231,334.144c11.105-3.798,16.232-15.819,26.418-21.259c7.288-3.892,14.928-7.163,22.502-10.447
				c25.746-11.164,51.893-21.423,78.027-31.636c61.503-24.035,123.35-47.213,185.344-69.947
				c16.001-5.868,31.971-11.917,48.133-17.333c25.952-8.696,53.701-17.539,81.337-15.556c8.103,0.582,16.14,2.001,24.094,3.604
				c8.112,1.634,15.931,5.207,23.578,8.289c11.186,4.508,24.244,10.467,36.625,9.225c20.56-2.062,29.48-21.979,29.816-40.6
				c0.406-22.534-7.734-45.359-17.389-65.384c-9.15-18.979-21.634-39.288-39.427-51.285c-7.89-5.319-18.283-8.864-27.845-6.866
				c-11.159,2.333-18.086,10.331-23.599,19.83c-6.831,11.77-10.942,24.912-17.169,36.99c-6.397,12.41-16.302,24.22-26.355,33.801
				c-11.159,10.635-25.265,18.363-38.608,25.897c-7.143,4.032-14.401,7.892-21.778,11.479c-16.205,7.881-32.704,15.19-49.114,22.629
				c-60.436,27.398-121.095,54.336-182.114,80.413c-25.238,10.786-50.522,21.535-76.158,31.349
				c-7.229,2.767-14.502,5.574-21.959,7.673c-3.053,0.86-5.669,1.098-8.908,1.074c-7.19-0.054-20.546-2.825-25.642,4.261
				c-4.334,6.026,1.137,17.981,4.348,23.121c3.008,4.815,8.733,11.92,15.329,10.815c0.908-0.152,1.605-1.271,0.27-1.047
				c-4.878,0.817-9.557-4.608-12.158-8.014c-4.054-5.311-6.708-12.794-7.142-19.459c-0.867-13.318,21.013-8.055,29.245-8.751
				c5.123-0.433,10.347-2.695,15.142-4.382c22.768-8.012,45.037-17.546,67.271-26.908c61.992-26.101,123.482-53.416,184.804-81.047
				c20.273-9.136,40.552-18.274,60.69-27.705c9.305-4.357,18.425-9.051,27.418-14.029c12.703-7.032,25.745-14.414,36.912-23.763
				c10.251-8.582,18.512-19.371,25.989-30.368c7.431-10.927,11.646-23.614,17.153-35.544c6.351-13.756,15.383-28.192,32.393-27.721
				c23.881,0.661,41.427,26.755,52.177,45.102c11.947,20.39,20.933,43.558,23.696,67.121c2.754,23.475-6.06,54.344-35.663,49.746
				c-15.171-2.357-29.105-10.097-43.526-14.982c-13.445-4.554-28.754-6.084-42.9-6.038c-14.601,0.048-29.034,3.931-43.055,7.638
				c-9.56,2.528-19.031,5.418-28.403,8.572c-16.201,5.451-32.218,11.496-48.266,17.379
				c-61.996,22.729-123.836,45.923-185.343,69.947c-26.137,10.208-52.272,20.49-78.028,31.635
				c-7.525,3.257-15.063,6.554-22.336,10.349c-1.939,1.012-3.872,2.067-5.648,3.35c-7.562,5.456-11.656,14.834-20.936,18.008
				C64.193,333.811,65.369,334.438,66.231,334.144z"/>
		</g>
	</g>
	<g>
		<path fill="#F9A11B" d="M66.303,333.612c8.291-2.438,12.108-9.047,18.449-14.41c15.604-14.629,326.99-125.874,346.985-132.213
			c16.092-5.364,33.648-10.241,50.715-13.654c18.531-3.901,37.551-1.463,56.082,2.438c17.555,4.877,34.623,15.118,52.18,17.069
			c21.455,1.95,32.186-15.605,34.137-34.137c3.412-36.575-23.438-95.272-51.713-118.721c22.281,29.552,38.891,89.015,38.281,110.552
			c-1,35.333-42.334,29-70.667,20.333c-18.109-5.54-30-10.667-58.333-8.333c-17.347,1.429-41,7.333-61.334,15.333
			c-19.52,7.679-321.954,130.311-343.333,131c-4,10.667-4.006,19.79-11.667,21c-4.096,0.646-11.103-7.333-17.921-15.049
			C56.649,333.873,62.524,334.558,66.303,333.612z"/>
	</g>
	<g>
		<path fill="#080705" d="M355.335,176.952c10,1.333,14.713,0.323,22.713,6.323c5.334,4.667,10.516,14.883,12.607,22.95
			c-4,7.333-91.737,36.478-100.82,39.478c-0.917-4.25-5.75-12.167-9.75-18.833c-4.666-6.667-7.345-8.547-14.762-10.131
			c-9.417,5.417-46.571,20.797-46.571,20.797c19.833-1.833,18.297,19.627,26.583,25.667c5.23,3.813,35.417,29.667,42.084,43
			c14,26,24,56.667,24,86c0,28.667-3.334,58-6.667,87.334c-1.333,14-2.667,28.666-2,43.333c0.667,15.333,7.333,28.667,13.333,42.667
			c13.334,31.333,13.334,62.666,14,95.333c5.334-4.667,8.667-16.667,11.334-24c4-8.667,7.333-17.333,12-25.333
			c10.666-18.667,9.499-99.334,14.166-109.334c-10.333,21.833,23.5,75,25.5,83c4.667,19.334,19.667,28.334,24.334,47
			c2.666,11.334,9.666,27.833,13.666,38.5c4-8.667,2.5-160.5,15-175c-4.693,14.557,37.334,158.5,42.667,169.834
			c7.333-37.334,14.666-161.5,19.333-190.834c4.666-36,8.334-91.334-1-126c-10-38-84.763-147.951-81.236-159.734
			c4.326-14.455-22.43-32.766-25.097-36.099C400.752,152.869,365.335,165.619,355.335,176.952z"/>
	</g>
	<g>
		<g>
			<path fill="#F9A11B" d="M361.837,172.742c11.238,1.699,21.979,7.023,27.453,17.197c2.917,5.422,6.385,10.531,7.816,16.602
				c0.72,3.056,0.392,4.027-1.982,5.396c-10.822,6.238-23.279,10.228-34.922,14.605c-25.159,9.461-50.559,18.391-76.078,26.835
				c0.876,0.012,1.753,0.024,2.63,0.036c-1.67-7.695-3.701-15.426-9.19-21.302c-4.876-5.22-11.603-10.376-18.633-12.171
				c-1.887-0.482-3.854,1.098-5.396,1.9c-3.484,1.813-7.101,3.382-10.708,4.931c-4.385,1.883-8.814,3.674-13.272,5.379
				c-1.075,0.411-1.825,1.537-0.11,1.433c10.258-0.62,15.777,8.845,19.938,16.765c2.99,5.694,5.414,10.438,10.426,14.5
				c6.923,5.611,13.506,11.687,19.833,17.957c7.464,7.396,13.169,14.91,18.201,24.102c14.102,25.757,29.388,52.021,30.258,82.144
				c0.459,15.882-2.447,31.733-4.84,47.37c-2.021,13.206-3.669,26.455-5.706,39.661c-1.663,10.779-1.779,21.104-1.73,31.976
				c0.021,4.933,0.275,9.741,1.431,14.554c1.446,6.024,4.41,11.69,6.45,17.531c8.735,25.006,10.872,51.947,11.449,78.246
				c0.024,1.125,3.335-0.253,3.696-0.603c5.233-5.055,7.231-12.715,9.562-19.381c3.071-8.786,3.596-17.716,5.882-26.675
				c2.352-9.212,1.901-19.453,2.302-28.875c0.565-13.293,1.207-26.659,3.686-39.758c1.735-9.178,4.748-22.163,14.112-26.535
				c-0.761-0.238-1.521-0.477-2.281-0.715c-8.448,4.313-4.784,17.205-2.889,24.235c3.439,12.756,8.984,24.933,14.358,36.963
				c1.511,3.381,3.266,6.775,4.355,10.325c2.791,9.085,7.411,16.313,12.794,24.056c2.666,3.836,5.063,7.795,6.921,12.088
				c1.81,4.182,2.629,8.776,4.05,13.1c3.135,9.536,7.232,18.728,10.785,28.108c0.412,1.09,3.508-0.022,3.846-0.826
				c0.903-2.149,0.711-5.051,0.811-7.324c0.227-5.169,0.261-10.347,0.329-15.52c0.204-15.393,0.442-30.783,1.229-46.159
				c0.867-16.973,2.303-34.02,5.672-50.698c2.329-11.526,5.54-25.526,14.474-33.9c1.468-1.376,3.203-2.399,5.104-3.036
				c-0.87-0.082-1.741-0.163-2.612-0.245c-0.845,8.789,1.849,18.597,3.317,27.184c2.811,16.441,6.068,32.81,9.427,49.146
				c3.421,16.64,7.003,33.248,10.83,49.799c2.238,9.683,4.132,19.756,7.52,29.125c0.117,0.323,0.246,0.642,0.389,0.954
				c0.438,0.965,3.666,0.104,3.846-0.826c2.852-14.763,3.85-29.937,5.039-44.901c1.633-20.549,2.877-41.128,4.167-61.7
				c1.106-17.652,2.102-35.327,3.745-52.939c0.607-6.503,1.625-12.955,2.188-19.461c1.021-11.8,0.975-23.688,0.52-35.516
				c-0.917-23.893-3.456-48.472-9.938-71.556c-3.863-13.763-10.991-26.842-17.45-39.509c-16.082-31.536-34.571-61.908-49.7-93.922
				c-1.707-3.613-3.36-7.275-4.646-11.063c-1.05-3.094-0.684-4.9-0.495-8.06c0.404-6.786-6.066-13.184-10.523-17.44
				c-4.045-3.865-9.314-6.806-13.01-10.98c-0.377-0.427-1.573-0.165-2.004-0.027c-11.523,3.688-23.614,8.634-32.994,16.409
				c-1.588,1.317,2.264,0.895,3.004,0.281c8.461-7.014,21.061-12.276,30.375-15.258c-0.668-0.009-1.336-0.018-2.004-0.027
				c4.69,5.299,11.279,8.974,16.192,14.177c3.033,3.212,5.684,6.899,6.811,11.219c0.622,2.387-0.394,4.53-0.179,6.862
				c0.351,3.816,2.341,7.687,3.862,11.133c2.729,6.176,5.817,12.196,8.922,18.189c16.782,32.405,35.536,63.823,51.054,96.877
				c6.98,14.869,11.245,29.55,13.996,45.79c4.254,25.111,6.041,50.968,4.815,76.416c-0.711,14.755-3.024,29.479-4.093,44.23
				c-1.422,19.641-2.549,39.302-3.813,58.952c-1.761,27.342-2.46,55.475-7.67,82.44c1.282-0.275,2.564-0.551,3.846-0.826
				c-3.608-7.936-4.945-17.465-6.929-25.884c-3.812-16.176-7.321-32.424-10.712-48.692c-3.476-16.679-6.806-33.394-9.779-50.171
				c-1.744-9.841-4.249-20.268-4.134-30.322c0.002-0.24,0.013-0.481,0.036-0.721c0.103-1.07-2.145-0.401-2.612-0.245
				c-9.861,3.302-14.694,13.763-17.845,22.875c-5.093,14.729-6.964,30.617-8.401,46.057c-2.614,28.079-1.589,56.197-3.115,84.3
				c-0.089,1.632-0.041,3.591-0.688,5.131c1.282-0.275,2.564-0.551,3.846-0.826c-3.214-8.485-6.781-16.829-9.842-25.373
				c-3.033-8.469-4.757-16.764-9.619-24.491c-4.766-7.575-10.459-14.343-13.686-22.803c-1.481-3.884-2.526-7.729-4.217-11.553
				c-4.918-11.115-9.948-22.182-13.844-33.71c-2.061-6.1-9.206-24.878-0.75-29.195c2.326-1.188-1.293-1.177-2.281-0.715
				c-8.781,4.1-12.339,14.074-14.558,22.836c-3.178,12.551-3.88,25.742-4.523,38.623c-0.553,11.063-0.265,22.458-2.215,33.394
				c-1.423,7.981-2.282,16.442-4.653,24.196c-2.295,7.505-5.079,17.493-10.842,23.06c1.231-0.2,2.464-0.401,3.696-0.603
				c-0.645-29.352-3.488-59.091-14.567-86.542c-9.671-23.965-3.366-50.128-0.052-74.787c3.825-28.461,11.451-58.576,5.299-87.188
				c-3.098-14.408-9.462-28.014-16.152-41.054c-5.555-10.826-10.947-22.579-17.991-32.52c-9.26-13.068-22.471-24.099-34.942-34.011
				c-2.568-2.042-4.076-5.593-5.555-8.431c-1.875-3.598-3.693-7.211-5.904-10.619c-4.232-6.521-10.094-10.86-18.089-10.377
				c-0.037,0.478-0.074,0.956-0.11,1.433c9.326-3.566,18.833-7.252,27.549-12.15c-0.904,0.15-1.809,0.301-2.713,0.451
				c6.968,1.779,13.184,6.924,18.152,11.934c5.475,5.52,7.351,13.587,8.95,20.958c0.179,0.822,2.224,0.17,2.63,0.036
				c25.842-8.55,51.55-17.611,77.026-27.191c11.675-4.39,23.943-8.516,34.859-14.641c1.123-0.63,2.215-1.309,3.174-2.174
				c2.411-2.174-0.523-8.299-1.487-10.577c-4.256-10.055-9.673-19.334-19.784-24.16c-4.782-2.283-9.765-3.951-15.011-4.744
				C363.351,170.854,359.804,172.435,361.837,172.742z"/>
		</g>
	</g>
	<g>
		<path fill="#EB7125" d="M448.926,371.741l-16.929,11.407l-33.274,5.678l2.859,16.753l-16.784,2.865l-2.859-16.753l-12.548,2.141
			l11.047-10.335c0,0-2.81-19.793-4.765-27.941c-2.369-9.875-10.793-32.026-10.793-32.026c-2.446-5.894-6.156-9.747-11.129-11.563
			c-2.006-0.743-3.787-0.889-5.345-0.438l-1.951,0.557l40.141-16.661c0.35-0.146,0.609-0.253,0.776-0.321l2.078-0.862
			c7.941-3.297,14.006-5.039,18.194-5.229c3.997-0.183,8.229,1.026,12.704,3.622c2.775,1.608,5.564,4.384,8.366,8.328l-15.842,6.574
			c-1.83-2.189-3.594-3.755-5.294-4.694c-4.745-2.623-9.567-2.919-14.466-0.886c-3.886,1.612-6.735,4.117-8.547,7.511
			c-0.938,1.771-1.599,4.033-1.981,6.787c-0.27,1.978-0.083,4.059,0.555,6.242c0.235,0.801,0.547,1.664,0.933,2.593
			c0.257,0.62,0.425,1.024,0.503,1.212c0,0,4.017,9.796,6.779,20.711c3.679,14.534,5.945,33.472,5.945,33.472l27.479-4.689
			c5.408-0.924,9.659-1.83,12.755-2.723c3.463-0.998,6.558-2.367,9.283-4.104L448.926,371.741z"/>
	</g>
</g>
</svg>
