<?xml version="1.0" encoding="utf-8"?>
<!-- Generator: Adobe Illustrator 15.1.0, SVG Export Plug-In . SVG Version: 6.00 Build 0)  -->
<!DOCTYPE svg PUBLIC "-//W3C//DTD SVG 1.1//EN" "http://www.w3.org/Graphics/SVG/1.1/DTD/svg11.dtd">
<svg version="1.1" id="Trumpet" xmlns="http://www.w3.org/2000/svg" xmlns:xlink="http://www.w3.org/1999/xlink" x="0px" y="0px"
	 width="664.467px" height="691.465px" viewBox="0 0 664.467 691.465" enable-background="new 0 0 664.467 691.465"
	 xml:space="preserve">
<g>
	<g>
		<path fill="#565554" d="M492.133,348.241c-2.602,1.429-4.256,3.344-5.975,5.674c-1.418,2.035-2.626,3.805-2.088,6.396
			c0.681,3.039,3.142,3.629,5.906,3.629c2.466-0.004,4.93,0.29,7.397,0.286l0.268-0.087c2.39-1.164,3.232-4.988,3.318-7.484
			c0.076-1.604-0.056-3.24-0.454-4.789c-0.257-1.103-0.447-2.514-1.36-3.208C499.146,348.659,494.672,346.93,492.133,348.241z"/>
		<g>
			<path fill="#565554" d="M491.549,348.012c-4.274,2.558-10.566,8.669-7.834,14.103c0.883,1.757,3.286,2.255,5.052,2.297
				c2.69,0.064,6.415,0.98,8.986,0.146c4.792-1.557,4.521-9.167,3.719-12.949c-0.486-2.291-0.947-3.351-3.188-3.883
				c-2.234-0.53-4.354-0.656-6.515,0.184c-1.269,0.493-0.093,0.985,0.729,0.666c10.229-3.974,8.895,15.221,4.034,15.142
				c-3.834-0.063-10.11,0.879-11.495-3.663c-1.311-4.298,4.523-9.692,7.681-11.582C493.833,347.802,492.107,347.678,491.549,348.012
				z"/>
		</g>
	</g>
	<g>
		<path fill="#565554" d="M555.075,354.55c0.892,2.773,1.483,5.842-0.475,8.348c-1.537,1.975-4.402,3.193-6.813,3.375
			c-2.409,0.183-6.976-0.816-7.091-3.938c0.06-2.882,3.767-4.864,5.858-6.03c2.898-1.426,5.403-2.232,8.58-1.871"/>
	</g>
	<g>
		<path fill="#FEEB00" d="M620.789,371.343c-3.247,0.082-6.464-2.735-9.351-3.925c-7.269-3.438-129.663-8.522-137.548-8.49
			c-6.377-0.066-13.221,0.209-19.721,0.952c-7.081,0.737-13.605,3.799-19.789,7.328c-5.721,3.767-10.649,9.396-16.708,12.115
			c-7.454,3.168-13.313-1.879-16.146-8.287c-5.43-12.695-2.58-36.791,4.838-48.438c3.836-5.863,10.436-9.893,17.277-5.558
			c5.537,3.667,9.488,10.021,14.521,14.665c5.528,4.486,11.47,8.565,18.338,10.442c6.293,1.788,13.003,3.17,19.305,4.138
			c7.776,1.312,129.462,15.071,137.191,12.857c3.041-0.706,6.672-2.964,9.863-2.356c1.519,0.354,2.61,2.425,2.195,7.238
			C624.666,368.547,622.25,371.246,620.789,371.343z"/>
		<g>
			<path d="M621.167,370.806c-3.925-0.365-6.556-3.321-10.206-4.245c-1.507-0.382-3.073-0.566-4.611-0.77
				c-5.165-0.68-10.369-1.091-15.562-1.505c-16.17-1.287-32.376-2.164-48.574-3.008c-16.049-0.835-32.102-1.574-48.159-2.223
				c-11.478-0.463-22.891-0.998-34.372-0.205c-13.094,0.904-23.671,5.822-33.679,14.144c-4.301,3.576-9.423,8.14-15.649,6.165
				c-3.298-1.046-5.646-4.268-7.256-7.12c-2.65-4.696-3.161-10.682-3.391-15.948c-0.499-11.465,1.689-25.15,8.417-34.704
				c8.022-11.391,17.535-2.24,23.661,4.826c4.391,5.065,9.221,9.125,14.977,12.566c12.065,7.214,27.827,8.054,41.644,9.687
				c14.956,1.768,29.927,3.408,44.903,4.991c19.088,2.018,38.192,3.972,57.331,5.46c5.965,0.464,11.953,0.937,17.939,1.002
				c1.404,0.015,2.868,0.044,4.251-0.238c2.676-0.547,7.882-3.715,10.174-1.916c2.851,2.237,1.191,12.163-2.343,13.106
				c-1.157,0.31-0.905,1.252,0.252,0.943c4.87-1.301,8.377-14.409,2.54-15.545c-4.942-0.961-9.82,2.645-14.959,2.563
				c-12.641-0.202-25.314-1.619-37.891-2.79c-29.947-2.789-59.898-5.914-89.742-9.667c-6.84-0.86-13.606-2.143-20.299-3.809
				c-7.695-1.916-13.978-5.368-20.219-10.208c-5.488-4.256-9.148-10.414-14.555-14.8c-7.557-6.132-16.473-1.291-20.899,5.972
				c-5.302,8.695-7.154,20.258-7.146,30.284c0.008,9.453,1.322,21.797,11.068,26.269c9.525,4.369,19.472-7.989,26.163-12.598
				c14.694-10.12,34.114-8.27,51.173-7.632c25.422,0.95,50.84,2.165,76.235,3.655c11.667,0.686,23.34,1.41,34.979,2.478
				c3.558,0.326,7.127,0.671,10.653,1.257c4.493,0.747,7.799,4.211,12.393,4.638C621.135,371.948,622.469,370.927,621.167,370.806z"
				/>
		</g>
	</g>
	<g>
		<path fill="#F9A11B" d="M620.611,371.343c-3.247,0.082-5.374-1.844-8.261-3.033c-7.269-3.439-131.507-7.403-139.392-7.37
			c-6.378-0.067-13.222,0.208-19.722,0.951c-7.081,0.737-13.606,3.8-19.789,7.329c-5.722,3.766-10.649,9.396-16.708,12.115
			c-7.453,3.167-13.314-1.88-16.146-8.287c-5.431-12.695-2.58-36.792,4.838-48.438c-4.57,13.141-3.67,36.332-0.972,43.97
			c4.426,12.529,18.489,5.504,27.629-0.859c5.844-4.066,9.509-7.27,19.916-9.697c6.372-1.485,15.517-2.096,23.716-1.573
			c7.868,0.501,130.214,9.571,137.944,7.356c2.659,3.357,3.712,6.621,6.592,6.172c1.54-0.24,3.13-3.902,4.682-7.448
			C624.095,370.324,622.072,371.245,620.611,371.343z"/>
	</g>
	<g>
		<path fill="#080705" d="M499.143,348.552c-3.425,1.628-5.228,1.81-7.4,4.877c-1.371,2.284-2.049,6.536-1.869,9.664
			c2.275,2.163,37.028,2.493,40.624,2.521c-0.161-1.626,0.657-5.016,1.321-7.861c0.902-2.923,1.645-3.904,4.116-5.324
			c3.994,0.854,19.061,2.081,19.061,2.081c-7.309,1.627-4.288,9.13-6.559,12.245c-1.433,1.967-9.259,14.693-10.11,20.232
			c-2.017,10.916-2.065,23.041,1.312,33.539c3.3,10.258,7.87,20.372,12.439,30.486c2.089,4.856,4.254,9.95,5.704,15.276
			c1.526,5.563,0.676,11.104,0.141,16.803c-1.165,12.748,2.441,23.961,5.964,35.727c-2.446-1.055-5.021-4.965-6.818-7.283
			c-2.43-2.641-4.62-5.357-7.211-7.684c-5.966-5.453-14.834-34.455-17.655-37.496c6.211,6.625,0.224,29.545,0.429,32.639
			c0.556,7.455-3.775,12.402-3.297,19.621c0.35,4.361-0.256,11.072-0.459,15.352c-2.43-2.643-19.371-57.15-25.514-60.9
			c3.356,4.668,4.887,61.02,4.282,65.688c-6.922-12.516-23.84-56.104-28.887-66.066c-5.813-12.346-13.496-31.724-14.147-45.204
			c-0.796-14.749,13.302-62.703,10.684-66.514c-3.212-4.674,4.255-14.308,4.826-15.807
			C480.119,345.163,494.26,345.648,499.143,348.552z"/>
	</g>
	<g>
		<g>
			<path fill="#F9A11B" d="M494.65,347.266c-2.91,1.554-6.333,3.847-7.813,6.915c-0.841,1.746-3.615,10.372-1.412,11.956
				c2.819,2.028,8.842,1.45,12.074,1.648c11.619,0.715,23.29,0.974,34.93,1.077c0.644,0.006,2.83-0.433,2.741-1.397
				c-0.52-5.646,0.673-10.896,5.578-14.378c-1.024,0.223-2.049,0.445-3.073,0.668c3.765,0.712,7.597,1.01,11.418,1.223
				c0.347-0.53,0.692-1.06,1.038-1.59c-3.931,1.229-5.854,3.503-6.88,7.499c-0.533,2.08-0.669,4.235-1.261,6.304
				c-0.482,1.688-2.009,3.381-2.902,4.862c-7.149,11.853-9.955,25.564-10.029,39.38c-0.045,8.256,3.282,15.775,6.849,23.04
				c3.47,7.067,7.136,14.091,10.361,21.272c1.385,3.084,2.254,6.464,3.15,9.716c1.152,4.179,0.115,8.858,0.191,13.137
				c0.16,8.883,2.393,17.685,4.889,26.156c1.248-0.402,2.495-0.805,3.743-1.207c-8.69-5.15-12.45-18.405-15.84-27.391
				c-2.444-6.481-5.942-17.985-13.991-19.324c-0.795-0.132-4.122,1.38-2.802,1.682c6.147,1.404,2.493,19.891,2.053,23.983
				c-0.531,4.941-1.069,9.448-2.444,14.285c-0.822,2.893-0.647,5.708-0.616,8.676c0.041,3.872-0.412,7.753-0.626,11.616
				c1.248-0.402,2.495-0.805,3.743-1.207c-1.973-2.545-2.655-7.111-3.659-10.096c-2.108-6.265-4.296-12.502-6.769-18.634
				c-2.979-7.39-8.611-24.08-18.604-24.497c-0.477-0.02-3.567,0.393-3.162,1.391c1.298,3.201,1.491,7.081,1.972,10.462
				c0.896,6.292,1.612,12.609,2.298,18.927c0.688,6.342,1.309,12.692,1.839,19.05c0.291,3.491,0.938,7.296,0.595,10.806
				c1.282-0.275,2.564-0.551,3.846-0.826c-7.729-14.246-12.799-30.157-18.754-45.19c-2.563-6.468-5.569-12.755-8.106-19.223
				c-4.111-10.481-6.595-21.863-7.786-33.041c-1.613-15.143,3.374-31.325,6.12-46.106c1.098-5.901,2.464-11.952,2.637-17.975
				c0.066-2.333-1.234-3.866-0.685-6.348c0.781-3.528,3.466-6.146,5.044-9.271c-0.908,0.396-1.815,0.792-2.724,1.188
				c4.178,0.012,8.472,0.494,12.398,1.948c0.949,0.352,4.456-1.13,3.143-1.617c-4.42-1.637-9.233-2.077-13.922-2.09
				c-0.832-0.002-2.308,0.366-2.724,1.188c-1.443,2.857-3.5,5.265-4.723,8.276c-1.143,2.814,0.108,4.314,0.314,6.931
				c0.468,5.943-1.518,12.595-2.587,18.387c-2.695,14.599-7.402,30.267-6.274,45.229c0.844,11.201,3.645,22.492,7.42,33.044
				c2.365,6.608,5.584,12.968,8.186,19.496c6.123,15.361,11.255,31.641,19.159,46.209c0.483,0.892,3.75,0.151,3.846-0.826
				c0.918-9.415-1.292-19.862-2.283-29.201c-0.678-6.39-1.421-12.774-2.292-19.141c-0.499-3.646-0.693-7.87-2.093-11.32
				c-1.054,0.464-2.107,0.927-3.162,1.391c4.704,0.196,8.061,5.749,10.215,9.27c3.351,5.479,5.826,11.508,8.159,17.472
				c2.222,5.679,4.177,11.458,6.119,17.235c0.922,2.742,1.562,6.543,3.376,8.883c0.633,0.817,3.688-0.2,3.743-1.207
				c0.414-7.446-0.181-15.465,2.013-22.602c1.417-4.611,1.371-9.118,1.888-13.852c0.515-4.717,3.834-21.131-2.987-22.689
				c-0.934,0.561-1.868,1.121-2.802,1.682c8.07,1.342,11.771,16.359,14.111,22.703c2.935,7.954,6.958,19.141,14.558,23.645
				c0.657,0.39,4.086-0.045,3.743-1.207c-2.183-7.408-3.936-14.872-4.678-22.572c-0.7-7.263,0.557-13.825-1.658-20.898
				c-4.331-13.833-13.289-25.816-17.619-39.677c-2.472-7.913-1.43-16.366-0.08-24.377c1.011-5.999,1.912-11.857,4.545-17.37
				c1.854-3.88,4.235-7.399,6.392-11.095c1.985-3.403,0.58-11.449,5.252-12.908c0.517-0.162,2.863-1.488,1.038-1.59
				c-2.216-0.123-4.428-0.304-6.636-0.521c-2.219-0.219-4.688-1.216-6.813-0.121c-5.819,2.998-7.339,10.049-6.799,15.911
				c0.913-0.466,1.827-0.932,2.741-1.397c-9.407-0.084-18.82-0.351-28.218-0.761c-4.758-0.207-9.54-0.418-14.269-1.015
				c-3.313-0.418-3.068-2.004-2.529-5.463c0.85-5.459,2.824-9.174,7.898-11.883C499.208,346.765,495.664,346.725,494.65,347.266z"/>
		</g>
	</g>
	<g>
		<path fill="#EB7125" d="M519.353,423.299l-7.014,4.333l-13.528,1.777l0.896,6.784l-6.823,0.899l-0.896-6.784l-5.101,0.67
			l4.622-3.99c0,0-0.937-9.694-1.124-13.063c-0.233-4.193,1.244-13.575,1.244-13.575c0.192-2.563-0.445-4.622-1.907-6.175
			c-0.588-0.632-1.204-1.006-1.85-1.126l-0.805-0.153l17.518,1.28c0.152,0.01,0.265,0.018,0.338,0.022l0.907,0.067
			c3.466,0.253,5.971,0.726,7.517,1.416c1.475,0.657,2.781,1.857,3.924,3.604c0.708,1.081,1.209,2.584,1.5,4.511l-6.912-0.505
			c-0.262-1.119-0.614-2.003-1.054-2.647c-1.235-1.803-2.921-2.783-5.06-2.939c-1.694-0.124-3.181,0.262-4.452,1.152
			c-0.66,0.467-1.312,1.161-1.95,2.082c-0.457,0.662-0.771,1.445-0.937,2.347c-0.063,0.33-0.982,6.536-0.997,11.07
			c-0.021,6.359,0.958,11.675,0.958,11.675l11.173-1.469c2.196-0.288,3.928-0.59,5.192-0.901c1.413-0.35,2.686-0.854,3.813-1.511
			L519.353,423.299z"/>
	</g>
</g>
<g>
	<g>
		<path fill="#565554" d="M404.304,292.855c-4.377,1.62-7.394,4.215-10.606,7.441c-2.677,2.838-4.966,5.312-4.73,9.467
			c0.356,4.884,4.047,6.373,8.348,7.012c3.837,0.565,7.602,1.593,11.439,2.158l0.438-0.073c3.986-1.256,6.184-7.011,6.895-10.873
			c0.49-2.478,0.665-5.053,0.402-7.556c-0.143-1.773-0.112-4.013-1.373-5.303C415.116,295.129,408.559,291.404,404.304,292.855z"/>
		<g>
			<path fill="#565554" d="M403.94,292.522c-6.87,2.803-15.797,9.408-15.938,17.5c-0.063,3.569,3.064,5.982,6.224,6.725
				c2.71,0.637,5.478,1.02,8.205,1.585c1.931,0.4,4.411,1.366,6.394,1.036c7.114-1.183,8.643-11.701,8.748-17.307
				c0.069-3.688-0.113-6.704-3.536-8.278c-3.128-1.439-6.47-2.138-9.843-1.345c-1.162,0.273-0.926,1.104,0.223,0.834
				c2.818-0.663,5.508,0.307,8.065,1.379c2.643,1.108,2.854,3.355,3.042,6.04c0.315,4.523-0.827,18.649-8.078,17.449
				c-6.097-1.01-16.378-1.052-17.512-8.635c-1.053-7.041,9.344-14.117,14.735-16.317
				C405.927,292.674,404.759,292.188,403.94,292.522z"/>
		</g>
	</g>
	<g>
		<path fill="#565554" d="M500.748,317.246c0.746,4.521,0.956,9.43-2.671,12.874c-2.848,2.716-7.587,3.947-11.378,3.673
			c-3.789-0.274-10.661-2.886-10.118-7.769c0.761-4.469,6.985-6.694,10.511-8.024c4.838-1.547,8.921-2.22,13.778-0.923"/>
	</g>
	<g>
		<path fill="#FEEB00" d="M599.077,358.586c-5.07-0.624-9.422-5.752-13.636-8.271c-10.51-7.032-199.715-43.287-211.987-45.062
			c-9.904-1.581-20.613-2.737-30.896-3.086c-11.186-0.493-22.043,2.758-32.479,6.816c-9.771,4.534-18.74,12.148-28.795,14.976
			c-12.328,3.201-20.273-6.007-23.195-16.629c-5.506-21.006,4.508-57.827,18.744-74.225c7.324-8.232,18.523-12.972,28.162-4.644
			c7.764,6.985,12.438,17.784,19.191,26.174c7.561,8.258,15.857,15.98,26.105,20.489c9.375,4.239,19.492,7.943,29.07,10.908
			c11.791,3.841,197.885,53.425,210.422,51.771c4.894-0.394,11.064-3.065,15.888-1.38c2.279,0.902,3.499,4.375,1.738,11.768
			C605.754,355.135,601.372,358.774,599.077,358.586z"/>
		<g>
			<path d="M599.67,358.069c-6.483-1.313-10.376-7.361-16.49-9.538c-3.364-1.197-6.839-2.108-10.289-3.02
				c-12.251-3.237-24.645-5.955-37.021-8.664c-33.324-7.294-66.785-13.977-100.264-20.523c-20.445-3.998-40.938-8.556-61.559-11.588
				c-13.865-2.039-28.437-4.385-42.428-2.447c-13.776,1.908-25.436,7.969-37.174,14.988c-7.186,4.297-15.568,8.957-23.972,5.364
				c-5.761-2.463-9.146-8.692-11.044-14.305c-3.504-10.357-1.981-22.516,0.008-33.006c2.217-11.696,6.275-23.249,12.21-33.578
				c2.78-4.838,6.162-9.25,10.527-12.757c9.457-7.598,19.257-3.873,26.251,4.438c4.217,5.009,7.407,10.863,11.019,16.302
				c4.004,6.03,9.168,11.115,14.609,15.852c10.729,9.341,24.434,14.154,37.704,18.692c20.509,7.013,41.852,11.913,62.786,17.44
				c33.023,8.718,66.101,17.26,99.3,25.289c12.885,3.116,25.791,6.185,38.779,8.846c7.25,1.485,14.18,3.213,21.523,1.725
				c3.337-0.676,8.65-2.495,11.67-0.109c1.602,1.265,1.482,4.294,1.421,6.015c-0.141,3.934-2.414,14.333-7.781,14.563
				c-0.697,0.029-2.057,1.131-0.758,1.074c7.482-0.32,10.777-11.37,10.517-17.326c-0.46-10.494-12.928-5.231-19.432-4.5
				c-2.445,0.275-5.23-0.476-7.62-0.882c-4.706-0.801-9.382-1.786-14.049-2.788c-30.841-6.62-61.42-14.549-91.964-22.404
				c-28.166-7.243-56.308-14.604-84.347-22.328c-12.736-3.509-25.224-7.565-37.404-12.757
				c-13.301-5.669-24.979-15.192-33.159-27.149c-6.563-9.594-12.558-23.871-25.609-25.369c-9.26-1.063-17.426,6.128-22.484,13.014
				c-6.33,8.617-10.343,19.026-13.303,29.214c-4.866,16.745-9.96,46.034,8.021,57.162c8.959,5.545,19.928-0.588,27.774-5.177
				c6.607-3.865,12.819-7.815,20.071-10.411c9.187-3.288,18.523-5.021,28.288-4.646c13.636,0.525,27.084,2.58,40.475,5.044
				c59.522,10.954,119.252,22.191,178.087,36.426c5.737,1.388,11.492,2.792,17.126,4.561c7.029,2.207,11.6,8.839,18.798,10.297
				C599.083,359.224,600.762,358.291,599.67,358.069z"/>
		</g>
	</g>
	<g>
		<path fill="#F9A11B" d="M598.799,358.544c-5.069-0.623-7.932-4.112-12.146-6.631c-10.51-7.032-202.843-41.972-215.115-43.747
			c-9.904-1.581-20.613-2.738-30.896-3.088c-11.186-0.492-22.045,2.759-32.479,6.817c-9.771,4.534-18.742,12.148-28.795,14.976
			c-12.328,3.2-20.275-6.007-23.195-16.629c-5.508-21.006,4.508-57.828,18.744-74.225c-10.152,19.381-14.123,55.664-11.695,68.168
			c3.982,20.514,27.484,12.844,43.176,5.064c10.031-4.973,16.475-9.107,33.225-10.472c10.256-0.835,24.621,0.334,37.253,3.045
			c12.123,2.602,200.33,45.045,212.867,43.391c3.359,5.837,4.24,11.159,8.825,11.127c2.451-0.017,5.771-5.345,9.007-10.502
			C604.457,357.768,601.095,358.731,598.799,358.544z"/>
	</g>
	<g>
		<path fill="#080705" d="M415.137,294.963c-5.705,1.74-8.551,1.604-12.641,5.873c-2.662,3.235-4.702,9.692-5.146,14.599
			c3.037,3.893,57.019,12.454,62.605,13.33c0.126-2.567,2.184-7.649,3.876-11.923c2.08-4.338,3.462-5.692,7.636-7.33
			c6.015,2.254,29.166,7.652,29.166,7.652c-11.745,0.839-8.784,13.209-13.037,17.529c-2.685,2.727-17.806,20.711-20.412,29.13
			c-5.666,16.512-8.55,35.361-5.728,52.473c2.757,16.722,7.523,33.512,12.289,50.302c2.124,8.039,4.313,16.465,5.334,25.084
			c1.086,9.008-1.521,17.428-3.673,26.17c-4.765,19.559-1.751,37.836,1.002,56.955c-3.56-2.209-6.658-8.889-8.919-12.91
			c-3.167-4.67-5.944-9.404-9.437-13.623c-8.017-9.861-15.094-57.027-18.779-62.41c8.128,11.74-6.494,46.006-6.891,50.865
			c-0.863,11.727-8.747,18.42-9.674,29.758c-0.465,6.865-2.961,17.164-4.269,23.771c-3.167-4.672-16.896-93.381-25.582-100.637
			c4.139,8.039-6.531,96.045-8.552,103.168c-7.868-21.07-24.089-92.791-29.632-109.455c-6.184-20.55-13.646-52.474-11.537-73.592
			c2.178-23.128,35.213-94.454,32.021-100.988c-3.912-8.015,9.934-21.27,11.168-23.47
			C386.329,285.284,408.214,289.314,415.137,294.963z"/>
	</g>
	<g>
		<g>
			<path fill="#F9A11B" d="M409.439,292.188c-5.178,1.754-11.685,5.108-14.435,10.103c-1.475,2.678-7.071,14.526-3.871,17.105
				c1.637,1.319,4.401,1.734,6.359,2.258c4.211,1.128,8.487,2.023,12.754,2.911c17.297,3.599,34.744,6.639,52.195,9.391
				c0.819,0.129,3.106-0.303,3.162-1.39c0.447-8.633,3.6-17.194,12.036-21.122c-0.904,0.15-1.808,0.301-2.712,0.451
				c5.49,1.954,11.261,3.195,16.962,4.366c0.633-0.546,1.267-1.091,1.899-1.637c-6.94,0.871-10.261,5.712-12.469,11.931
				c-1.047,2.947-1.61,6.61-3.698,9.042c-2.066,2.406-4.163,4.77-6.148,7.248c-4.988,6.228-9.989,12.764-12.616,20.369
				c-4.47,12.937-9.458,25.783-10.889,39.498c-1.357,13.019,2.731,25.65,6.718,37.859c3.718,11.39,7.936,22.97,10.72,34.625
				c1.174,4.913,1.917,10.311,2.17,15.356c0.329,6.548-2.312,13.455-3.023,19.98c-1.467,13.43-0.174,27.064,1.706,40.382
				c1.248-0.402,2.495-0.805,3.743-1.207c-7.728-5.709-10.199-17.369-13.494-25.806c-2.354-6.027-3.164-12.814-4.508-19.112
				c-1.602-7.509-3.372-15.046-6.302-22.163c-2.046-4.973-5.168-10.557-10.658-12.192c-0.914-0.272-4.487,1.148-3.143,1.617
				c5.345,1.86,3.255,12.432,2.686,16.324c-1.062,7.244-3.021,14.34-4.868,21.413c-0.552,2.114-1.012,4.144-1.242,6.315
				c-0.564,5.3-3.4,10.128-5.593,14.877c-2.262,4.9-2.615,9.776-3.451,15.013c-0.902,5.649-2.345,11.205-3.485,16.808
				c1.282-0.275,2.564-0.551,3.846-0.826c-2.43-4.052-2.441-10.91-3.249-15.437c-1.854-10.394-3.801-20.771-6.243-31.044
				c-2.374-9.986-5.166-20.047-9.615-29.331c-2.743-5.726-6.781-12.465-13.562-13.642c-0.586-0.102-3.422,0.372-3.162,1.391
				c1.345,5.271,0.683,11.482,0.644,16.853c-0.073,10.056-0.417,20.11-0.821,30.158c-0.403,10.043-0.906,20.085-1.563,30.115
				c-0.355,5.424-0.228,11.396-1.611,16.69c1.282-0.275,2.564-0.551,3.846-0.826c-11.693-31.828-14.319-66.399-24.84-98.561
				c-3.802-11.623-5.09-24.337-6.031-36.465c-0.848-10.909-1.419-22.445,0.372-33.291c2.727-16.512,9.363-32.688,14.83-48.427
				c4.322-12.444,9.21-24.913,12.27-37.749c0.343-1.44,0.613-2.892,0.735-4.368c0.177-2.123-0.949-3.766-0.58-6.015
				c1.083-6.59,7.382-10.592,10.84-15.782c-1.048,0.394-2.097,0.788-3.145,1.181c6.62,0.987,13.578,2.674,19.423,6.005
				c1.032,0.589,4.308-0.989,3.623-1.379c-6.236-3.555-13.522-5.318-20.585-6.372c-1.013-0.151-2.56,0.304-3.145,1.181
				c-3.938,5.912-11.604,10.705-10.99,18.739c0.147,1.933,0.833,2.833,0.516,4.872c-0.409,2.631-1.176,5.219-1.913,7.773
				c-4.879,16.905-11.292,33.377-16.882,50.053c-5.321,15.874-9.766,30.821-9.87,47.667c-0.08,12.922,1.105,25.911,3.281,38.643
				c1.378,8.061,3.856,15.764,5.884,23.658c4.045,15.757,7.448,31.681,11.149,47.521c3.287,14.069,6.2,28.559,11.194,42.15
				c0.375,1.021,3.617,0.049,3.846-0.826c1.277-4.891,1.188-10.42,1.534-15.429c0.707-10.229,1.205-20.473,1.632-30.717
				c0.423-10.119,0.75-20.244,0.857-30.371c0.061-5.632,0.775-12.189-0.636-17.718c-1.054,0.464-2.107,0.927-3.162,1.391
				c7.078,1.228,11.056,10.266,13.578,16.033c4.082,9.333,6.62,19.361,8.906,29.259c2.201,9.534,3.955,19.165,5.673,28.796
				c0.769,4.31,0.795,10.795,3.109,14.654c0.539,0.899,3.645,0.163,3.846-0.826c1.141-5.608,2.496-11.168,3.485-16.808
				c1.01-5.763,1.55-10.894,4.043-16.295c2.359-5.113,4.552-9.782,5.199-15.446c0.257-2.246,1.053-4.503,1.625-6.681
				c1.995-7.602,3.959-15.263,4.779-23.096c0.438-4.18,1.187-11.667-3.863-13.425c-1.048,0.539-2.095,1.078-3.143,1.617
				c6.155,1.834,9.019,9.007,11.062,14.477c2.707,7.252,4.268,14.932,5.853,22.488c1.176,5.603,1.966,11.622,4.24,16.916
				c3.566,8.303,5.555,19.413,13.327,25.154c0.708,0.523,3.907-0.045,3.743-1.207c-1.708-12.104-2.744-24.259-2.03-36.485
				c0.389-6.654,1.961-12.959,3.078-19.489c0.807-4.719-0.297-9.481-0.985-14.138c-3.401-23.027-15.784-44.059-18.364-67.319
				c-1.372-12.368,2.326-24.804,6.18-36.41c3.168-9.542,6.073-18.402,11.909-26.64c3.685-5.201,8.439-9.726,11.995-14.96
				c3.59-5.284,3.12-17.139,11.229-18.157c0.346-0.043,3.31-1.348,1.899-1.637c-3.418-0.702-6.818-1.492-10.201-2.348
				c-2.903-0.735-6.521-2.94-9.473-1.566c-4.019,1.871-7.174,5.228-9.816,8.708c-3.101,4.083-3.545,9.198-3.802,14.163
				c1.054-0.463,2.107-0.927,3.162-1.39c-14.945-2.356-29.86-5-44.71-7.896c-7.48-1.458-15.061-2.859-22.362-5.074
				c-4.368-1.325-3.862-3.566-2.533-8.212c0.948-3.318,2.118-7.336,4.118-10.169c2.595-3.675,7.267-6.157,11.42-7.564
				C413.434,292.415,410.996,291.661,409.439,292.188z"/>
		</g>
	</g>
	<g>
		<path fill="#EB7125" d="M429.932,419.734l-12.216,5.763l-22.348,0.41l0.208,11.208l-11.273,0.207l-0.209-11.207l-8.427,0.153
			l8.258-5.646c0,0,0.258-15.955,0.571-21.473c0.389-6.869,4.521-21.871,4.521-21.871c0.783-4.138,0.123-7.604-1.972-10.401
			c-0.841-1.137-1.775-1.86-2.804-2.173l-1.281-0.398l28.282,5.303c0.246,0.044,0.429,0.078,0.545,0.102l1.466,0.274
			c5.595,1.05,9.586,2.279,11.976,3.686c2.28,1.343,4.187,3.539,5.724,6.589c0.954,1.89,1.495,4.429,1.614,7.618l-11.159-2.094
			c-0.221-1.868-0.631-3.371-1.23-4.502c-1.677-3.162-4.242-5.066-7.694-5.714c-2.736-0.514-5.224-0.16-7.459,1.059
			c-1.163,0.637-2.349,1.647-3.559,3.03c-0.867,0.994-1.52,2.21-1.957,3.647c-0.16,0.525-2.801,10.46-3.656,17.839
			c-1.202,10.348-0.586,19.181-0.586,19.181l18.456-0.338c3.632-0.066,6.505-0.237,8.62-0.514c2.366-0.308,4.53-0.894,6.485-1.757
			L429.932,419.734z"/>
	</g>
</g>
<g>
	<g>
		<path fill="#565554" d="M260.502,170.452c-7.75,1.5-13.5,5-19.75,9.5c-5.25,4-9.75,7.5-10.5,14.5c-0.75,8.25,5,11.75,12,14
			c6.25,2,12.25,4.75,18.5,6.75h0.75c7-1,12.25-10,14.5-16.25c1.5-4,2.5-8.25,2.75-12.5c0.25-3,0.917-6.729-0.833-9.229
			C277.919,177.223,268.002,169.202,260.502,170.452z"/>
		<g>
			<path fill="#565554" d="M260.391,170.035c-7.083,1.527-13.147,4.757-19.068,8.856c-5.769,3.994-10.943,8.439-12.031,15.699
				c-0.865,5.768,2.757,9.935,7.518,12.454c3.55,1.878,7.664,2.832,11.408,4.249c3.451,1.306,8.438,4.4,12.144,4.4
				c12.257,0,17.963-18.193,19.2-27.559c0.434-3.283,0.866-6.811-0.065-10.029c-0.486-1.679-2.466-2.578-3.79-3.449
				c-4.47-2.942-9.615-5.247-15.054-4.675c-0.888,0.093-1.646,1.083-0.298,0.941c5.425-0.571,10.692,2.473,14.998,5.427
				c4,2.745,2.644,7.807,2.288,12.062c-0.506,6.042-2.733,12.088-5.731,17.322c-1.292,2.254-2.93,4.288-4.797,6.088
				c-3.743,3.609-6.386,2.738-10.648,1.173c-5.649-2.074-11.436-4.007-16.993-6.304c-5.445-2.251-8.535-6.424-8.256-12.377
				c0.277-5.91,4.869-10.03,9.188-13.398c6.049-4.717,12.672-8.42,20.212-10.046C261.784,170.617,261.54,169.788,260.391,170.035z"
				/>
		</g>
	</g>
	<g>
		<path fill="#565554" d="M414.752,237.702c0,7.75-1,16-8,20.75c-5.5,3.75-13.75,4.5-20,3s-17-7.75-14.75-15.75
			c2.5-7.25,13.5-9.25,19.75-10.5c8.5-1.25,15.5-1.25,23.25,2.25"/>
	</g>
	<g>
		<path fill="#FEEB00" d="M567.485,333.758c-8.291-2.438-14.142-12.192-20.482-17.556
			C531.398,301.573,225.595,188.995,205.6,182.655c-16.092-5.364-33.648-10.241-50.715-13.654
			c-18.531-3.901-37.551-1.463-56.082,2.438c-17.555,4.877-34.623,15.118-52.18,17.069c-21.455,1.95-32.186-15.605-34.137-34.137
			C9.075,117.796,35.924,59.099,64.2,35.65c14.484-11.724,34.484-16.551,48.277,0c11.033,13.793,15.861,33.104,24.826,48.966
			c10.346,15.862,22.07,31.034,37.932,41.379c14.482,9.655,30.345,18.621,45.518,26.207
			c18.621,9.655,315.563,143.624,336.941,144.313c8.276,0.69,19.311-2.069,26.896,2.069c3.557,2.134,4.636,8.266-0.338,20.117
			C579.58,329.836,571.264,334.703,567.485,333.758z"/>
		<g>
			<path d="M568.255,333.296c-10.991-3.759-16.278-15.893-26.498-21.307c-7.275-3.854-14.874-7.126-22.422-10.399
				c-25.747-11.164-51.894-21.422-78.028-31.635c-61.503-24.035-123.349-47.213-185.343-69.947
				c-16.026-5.877-32.022-11.913-48.203-17.357c-23.223-7.814-48.326-16.081-73.031-16.162c-14.229-0.047-29.343,2.038-42.827,6.605
				c-14.496,4.91-28.178,12.304-43.448,14.676c-13.257,2.059-24.32-4.979-30.238-16.508c-4.938-9.618-5.561-20.768-4.711-31.341
				c1.921-23.915,11.444-47.562,23.155-68.258c10.988-19.419,28.706-45.468,53.525-46.154c15.413-0.426,24.318,13.005,30.435,25.217
				c5.845,11.669,9.513,24.703,16.7,35.663c7.607,11.602,16.104,22.653,26.47,31.932c10.75,9.622,23.968,16.829,36.465,23.884
				c9.426,5.321,19.051,10.25,28.848,14.841c20.136,9.437,40.417,18.567,60.69,27.705c61.32,27.637,122.819,54.931,184.804,81.047
				c22.091,9.308,44.223,18.723,66.821,26.749c4.853,1.724,10.081,3.93,15.254,4.459c7.697,0.786,26.487-4.196,29.62,5.623
				c1.629,5.106-1.133,11.56-3.008,16.199c-2.068,5.119-8.366,15.561-15.209,14.415c-0.599-0.1-2.278,0.85-1.188,1.032
				c6.876,1.152,12.896-6.107,16.058-11.168c3.45-5.524,9.483-18.971,3.054-24.545c-3.134-2.717-8.775-2.774-12.646-2.852
				c-5.209-0.105-10.445,0.779-15.648,0.248c-2.039-0.208-4.06-0.85-6.016-1.432c-19.889-5.915-39.161-14.513-58.298-22.439
				c-61.962-25.663-123.281-52.912-184.472-80.353c-23.204-10.406-46.39-20.858-69.478-31.521
				c-5.555-2.565-11.125-5.111-16.615-7.814c-22.519-11.086-46.818-23.468-64.379-41.724c-9.795-10.183-18.571-22.211-24.598-34.988
				c-5.574-11.816-9.793-24.241-16.824-35.329c-5.999-9.46-14.681-15.735-26.085-15.924c-9.626-0.16-18.889,4.55-26.391,10.178
				C47.4,47.48,35.568,68.451,26.717,87.506c-9.264,19.944-16.481,42.626-15.368,64.857c1.004,20.036,13.566,38.193,35.139,36.668
				c13.566-0.959,26.727-7.722,39.183-12.594c15.875-6.209,33.146-8.923,50.178-8.868c16.159,0.053,32.353,4.747,47.814,9.05
				c7.923,2.206,15.789,4.643,23.573,7.297c6.307,2.151,12.572,4.429,18.84,6.69c57.023,20.572,113.797,41.869,170.41,63.542
				c30.267,11.587,60.487,23.304,90.513,35.505c18.315,7.443,37.268,14.5,54.641,24.024c9.657,5.294,14.385,16.884,25.074,20.54
				C567.291,334.416,569.042,333.565,568.255,333.296z"/>
		</g>
	</g>
	<g>
		<path fill="#F9A11B" d="M567.035,333.612c-8.291-2.438-12.108-9.047-18.449-14.41c-15.604-14.629-326.99-125.874-346.985-132.213
			c-16.092-5.364-33.648-10.241-50.715-13.654c-18.531-3.901-37.551-1.463-56.082,2.438c-17.555,4.877-34.623,15.118-52.18,17.069
			c-21.455,1.95-32.186-15.605-34.137-34.137C5.075,122.13,31.924,63.433,60.2,39.984c-22.281,29.552-38.891,89.015-38.281,110.552
			c1,35.333,42.334,29,70.667,20.333c18.109-5.54,30-10.667,58.333-8.333c17.347,1.429,41,7.333,61.334,15.333
			c19.52,7.679,321.954,130.311,343.333,131c4,10.667,4.006,19.79,11.667,21c4.096,0.646,11.103-7.333,17.921-15.049
			C576.689,333.873,570.814,334.558,567.035,333.612z"/>
	</g>
	<g>
		<path fill="#080705" d="M278.002,176.952c-10,1.333-14.713,0.323-22.713,6.323c-5.334,4.667-10.516,14.883-12.607,22.95
			c4,7.333,91.737,36.478,100.82,39.478c0.917-4.25,5.75-12.167,9.75-18.833c4.666-6.667,7.345-8.547,14.762-10.131
			c9.417,5.417,46.571,20.797,46.571,20.797c-19.833-1.833-18.298,19.627-26.583,25.667c-5.23,3.813-35.417,29.667-42.084,43
			c-14,26-24,56.667-24,86c0,28.667,3.334,58,6.667,87.334c1.333,14,2.667,28.666,2,43.333
			c-0.667,15.333-7.333,28.667-13.333,42.667c-13.334,31.333-13.334,62.666-14,95.333c-5.334-4.667-8.667-16.667-11.334-24
			c-4-8.667-7.333-17.333-12-25.333c-10.666-18.667-9.499-99.334-14.166-109.334c10.333,21.833-23.5,75-25.5,83
			c-4.667,19.334-19.667,28.334-24.334,47c-2.666,11.334-9.666,27.833-13.666,38.5c-4-8.667-2.5-160.5-15-175
			c4.693,14.557-37.334,158.5-42.667,169.834c-7.333-37.334-14.666-161.5-19.333-190.834c-4.666-36-8.334-91.334,1-126
			c10-38,84.763-147.951,81.236-159.734c-4.326-14.455,22.43-32.766,25.097-36.099C232.585,152.869,268.002,165.619,278.002,176.952
			z"/>
	</g>
	<g>
		<g>
			<path fill="#F9A11B" d="M270.599,171.041c-9.197,1.391-18.579,5.176-25.512,11.468c-3.623,3.289-5.56,8.413-7.927,12.588
				c-1.726,3.043-7.268,11.824-4.929,15.58c1.435,2.306,5.379,3.582,7.687,4.68c5.697,2.709,11.577,5.045,17.44,7.362
				c28.16,11.129,56.857,20.984,85.541,30.666c1.348,0.455,2.695,0.909,4.046,1.356c0.771,0.255,3.265-0.103,3.485-1.117
				c1.411-6.504,2.998-13.799,7.271-19.081c4.435-5.482,11.54-11.308,18.47-13.077c-0.668-0.009-1.336-0.018-2.004-0.027
				c8.661,4.867,18.082,8.53,27.348,12.074c0.934-0.561,1.868-1.121,2.802-1.681c-18.209-1.101-21.302,17.35-30.192,28.782
				c-1.468,1.887-3.779,3.287-5.604,4.809c-3.211,2.676-6.341,5.45-9.435,8.26c-7.347,6.67-14.633,13.654-20.666,21.56
				c-2.703,3.542-4.636,7.562-6.768,11.456c-3.699,6.755-7.434,13.49-11.009,20.312c-6.855,13.079-13.005,26.613-16.594,40.982
				c-7.188,28.781,1.413,58.83,4.71,87.551c2.878,25.066,10.334,51.731,0.148,76.095c-11.393,27.247-13.944,57.525-14.585,86.751
				c1.248-0.402,2.496-0.805,3.744-1.207c-5.866-5.667-7.257-14.386-10.333-21.618c-3.271-7.692-3.354-16.98-5.081-25.116
				c-2.195-10.34-1.758-21.448-2.239-31.956c-0.606-13.266-1.394-26.673-4.375-39.651c-2.024-8.815-5.565-19.327-14.381-23.443
				c-0.914-0.427-4.082,1.142-3.383,1.498c8.541,4.36,2.896,20.21,0.879,26.779c-3.724,12.128-9.036,23.73-14.195,35.296
				c-1.458,3.27-2.96,6.487-3.867,9.957c-2.434,9.309-8.732,16.682-13.872,24.568c-5.009,7.686-6.983,15.712-9.889,24.267
				c-3.076,9.053-6.939,17.815-10.324,26.752c1.282-0.275,2.564-0.551,3.846-0.826c-0.938-2.23-0.715-5.235-0.812-7.593
				c-0.215-5.264-0.25-10.534-0.319-15.801c-0.203-15.482-0.458-30.963-1.273-46.428c-0.88-16.699-2.32-33.47-5.636-49.88
				c-2.322-11.492-5.529-24.822-13.946-33.53c-2.005-2.074-4.475-3.645-7.208-4.56c-0.745-0.249-3.615,0.164-3.503,1.326
				c0.88,9.154-2.06,19.513-3.608,28.451c-2.872,16.586-6.169,33.099-9.573,49.582c-3.408,16.5-6.971,32.972-10.788,49.382
				c-2.144,9.216-3.845,19.003-7.29,27.854c-0.068,0.176-0.145,0.349-0.223,0.521c1.282-0.275,2.564-0.551,3.846-0.826
				c-2.911-15.071-3.91-30.573-5.112-45.851c-1.619-20.572-2.861-41.173-4.153-61.768c-1.086-17.313-2.075-34.648-3.687-51.923
				c-0.606-6.503-1.624-12.955-2.188-19.461c-1.061-12.249-0.958-24.602-0.436-36.874c1.002-23.557,3.34-48.24,10.189-70.912
				c4.237-14.024,11.447-27.334,18.106-40.313c16.044-31.266,34.503-61.419,49.321-93.299c2.554-5.494,5.524-11.017,4.599-17.131
				c-1.092-7.212,6.294-14.113,11.002-18.484c3.818-3.545,8.738-6.32,12.19-10.22c-1.112,0.298-2.224,0.596-3.336,0.894
				c11.015,3.526,22.488,8.29,31.444,15.714c0.883,0.732,4.374-0.758,3.624-1.379c-9.066-7.516-20.78-12.385-31.925-15.953
				c-0.968-0.31-2.659,0.128-3.336,0.894c-4.684,5.292-11.283,8.977-16.192,14.177c-2.713,2.873-5.084,6.132-6.548,9.818
				c-1.161,2.924-0.45,5.181-0.33,8.115c0.141,3.442-2.053,7.444-3.367,10.494c-2.594,6.024-5.583,11.881-8.582,17.71
				c-16.692,32.447-35.433,63.845-51.103,96.818c-6.911,14.542-11.465,28.742-14.313,44.638
				c-4.426,24.705-6.294,50.149-5.508,75.232c0.477,15.201,2.924,30.334,4.055,45.505c1.445,19.374,2.553,38.772,3.79,58.16
				c1.828,28.647,2.472,58.176,7.93,86.431c0.217,1.125,3.519-0.107,3.846-0.826c3.608-7.936,4.946-17.465,6.929-25.884
				c3.811-16.176,7.321-32.424,10.711-48.692c3.477-16.679,6.806-33.394,9.78-50.171c1.749-9.866,4.121-20.186,4.155-30.258
				c0.001-0.401-0.019-0.803-0.058-1.203c-1.167,0.442-2.335,0.884-3.503,1.326c10.53,3.525,14.936,16.826,17.732,26.39
				c4.501,15.396,6.202,31.635,7.462,47.57c1.294,16.368,1.742,32.796,2.001,49.209c0.165,10.38-0.212,20.92,0.762,31.267
				c0.086,0.915,0.156,1.917,0.517,2.773c0.444,1.057,3.526,0.018,3.846-0.826c3.213-8.485,6.782-16.829,9.842-25.373
				c3.35-9.354,5.358-18.166,10.988-26.565c5.117-7.634,10.559-14.713,13.255-23.649c1.112-3.686,2.604-7.125,4.176-10.647
				c5.333-11.955,10.716-23.951,14.465-36.519c1.948-6.528,6.656-21.38-1.663-25.627c-1.128,0.499-2.255,0.999-3.383,1.498
				c9.37,4.375,12.408,16.699,14.321,25.882c2.652,12.728,3.234,25.873,3.813,38.826c0.447,10.01,0.166,20.464,2.256,30.311
				c1.827,8.605,2.115,17.866,5.583,26.023c2.97,6.984,4.272,15.018,9.953,20.505c0.725,0.7,3.72-0.118,3.744-1.207
				c0.656-29.865,3.606-60.16,15.233-87.968c4.659-11.145,4.233-22.752,4.316-34.627c0.089-12.599-3.006-25.18-4.768-37.598
				c-2.062-14.537-4.232-29.095-6.106-43.658c-1.984-15.417-2.529-30.894,1.015-46.128c3.346-14.382,9.828-27.942,16.593-40.982
				c5.693-10.972,11.073-23.212,18.746-32.955c9.001-11.429,20.512-21.964,32.078-30.776c9.905-7.547,10.761-30.04,26.562-29.084
				c0.563,0.034,4.31-1.104,2.802-1.681c-4.459-1.705-8.879-3.513-13.272-5.379c-3.683-1.564-7.337-3.205-10.909-5.007
				c-2.556-1.29-3.361-1.99-6.16-1.066c-6.687,2.206-12.534,6.707-17.571,11.516c-6.192,5.91-8.377,14.152-10.142,22.283
				c1.162-0.373,2.323-0.745,3.485-1.117c-25.2-8.338-50.267-17.177-75.127-26.478c-11.962-4.476-24.476-8.685-35.713-14.837
				c-1.067-0.584-2.185-1.21-3.054-2.075c-2.712-2.698,3.431-12.791,4.794-15.253c2.946-5.321,5.332-10.596,10.297-14.332
				c5.302-3.989,12.141-6.464,18.658-7.45C271.591,172.448,273.305,170.631,270.599,171.041z"/>
		</g>
	</g>
	<g>
		<path fill="#EB7125" d="M268.654,378.9l-19.262,6.949l-33.788-2.581l-1.29,16.946l-17.043-1.301l1.29-16.946l-12.741-0.974
			l13.273-7.339c0,0,2.671-24.041,3.934-32.326c1.571-10.312,9.955-32.362,9.955-32.362c1.773-6.13,1.276-11.457-1.486-15.981
			c-1.108-1.833-2.415-3.059-3.919-3.679l-1.879-0.783l41.925,12.049c0.365,0.105,0.637,0.183,0.811,0.234l2.169,0.624
			c8.295,2.383,14.144,4.81,17.548,7.276c3.25,2.353,5.813,5.94,7.697,10.762c1.17,2.989,1.619,6.898,1.346,11.729l-16.545-4.757
			c-0.064-2.853-0.467-5.177-1.212-6.972c-2.08-5.012-5.677-8.254-10.793-9.724c-4.059-1.167-7.863-0.99-11.409,0.53
			c-1.845,0.798-3.781,2.152-5.806,4.064c-1.45,1.377-2.607,3.119-3.475,5.223c-0.317,0.772-5.725,15.388-8.074,26.4
			c-3.295,15.447-3.629,28.867-3.629,28.867l27.903,2.131c5.492,0.419,9.853,0.572,13.084,0.459
			c3.615-0.127,6.963-0.701,10.04-1.724L268.654,378.9z"/>
	</g>
</g>
</svg>
