<?xml version="1.0" standalone="no"?>
<!DOCTYPE svg PUBLIC "-//W3C//DTD SVG 1.1//EN" "http://www.w3.org/Graphics/SVG/1.1/DTD/svg11.dtd" >
<svg xmlns="http://www.w3.org/2000/svg" xmlns:xlink="http://www.w3.org/1999/xlink" version="1.1">
<metadata></metadata>
<defs>
<font id="diogenesregular" horiz-adv-x="1034" >
<font-face units-per-em="2048" ascent="1638" descent="-410" />
<missing-glyph horiz-adv-x="614" />
<glyph horiz-adv-x="0" />
<glyph unicode="&#xd;" horiz-adv-x="1024" />
<glyph unicode=" "  horiz-adv-x="614" />
<glyph unicode="&#x09;" horiz-adv-x="614" />
<glyph unicode="&#xa0;" horiz-adv-x="614" />
<glyph unicode="!" horiz-adv-x="442" d="M106 213q0 -25 7.5 -59.5t15.5 -63.5v2q6 -27 12 -46t18.5 -31.5t33 -18.5t55.5 -6q10 0 22.5 2t22.5 2h12q41 35 43 94l4 102q2 4 2 13l2 39l-10 -13q-2 4 -4 8.5t-6 8.5h-2q-10 10 -26 16t-34 12q-55 -20 -100 -20l-14 8q-23 -4 -38.5 -14t-15.5 -35zM106 1450 q14 -16 17.5 -35.5t3.5 -50.5v-74q0 -63 -6 -123.5t-6 -124.5q12 -66 26 -88l-2 -47q-2 -6 -2 -16v-14q0 -6 2 -13q0 -23 -1 -35t-1 -20v-29q0 -96 8.5 -191t12.5 -165l157 -96v78q0 92 13 243q8 76 13 123t8 76t4 42t1 19v52q4 39 10.5 72.5t6.5 82.5q0 23 -4.5 35 t-8.5 21.5t-8 17.5t-4 20q0 35 19.5 98.5t25.5 149.5q-2 2 -2 10q0 4 2 16.5t2 28.5v58q0 80 -41 86h-10q-92 -51 -131 -91t-49 -63v17h-8q-33 0 -48 -70z" />
<glyph unicode="&#x22;" horiz-adv-x="921" d="M0 1550q0 -31 2 -69.5t2 -73.5l19 -61v-193h-15q33 -29 42 -37t18 -12l8 -6q2 -2 19.5 -18.5t19.5 -18.5v4q59 -59 112.5 -103t79.5 -44h19l114 190q-12 10 -32.5 25.5t-44 36t-44 44t-30.5 52.5q-8 78 -12.5 135t-4.5 94q0 6 1 11t1 12v22q-41 35 -61 37 q-16 -4 -29.5 -13.5t-19.5 -17.5h-19q-10 10 -17 11.5t-28 1.5h-8q-8 0 -13 -1.5t-12.5 -3.5t-22.5 -3t-44 -1zM426 1571q8 -53 9 -75.5t1 -41.5l19 -88v-182q0 -16 6 -24.5t20 -20.5v2q4 -4 18.5 -17.5t28.5 -25.5l35 -35q16 -16 43 -41t43 -31l8 -8q16 -14 40 -31.5 t40 -17.5h21l114 196q-29 16 -63.5 46t-69.5 63l-8 4q0 8 -2 16.5t-6 18.5q-8 88 -12 150.5t-4 99.5v35q-16 12 -32 20t-32 12q-12 -2 -22.5 -3t-18.5 -5h-45q-6 -6 -59 -12h-2q-6 -2 -22.5 -3t-47.5 -1z" />
<glyph unicode="#" horiz-adv-x="1853" d="M18 1139q0 -39 64 -113q8 -2 44 -8t80 -13.5t90 -13.5t75 -8q-4 -90 -10.5 -155.5t-14.5 -106.5h-6q-12 0 -47 4t-74 8t-72.5 8t-42.5 4v-34q0 -10 6.5 -37t13.5 -55.5t14 -51t9 -24.5q18 -27 107 -27q29 0 63.5 1t73.5 5l25 -321q-2 -6 -2 -15q0 -63 143 -63 q72 0 90.5 25.5t18.5 60.5v31q0 18 -6.5 55t-13.5 77t-13 75.5t-6 52.5v16l393 10q2 -8 2 -20t-3 -49t-7 -78t-7.5 -79t-3.5 -52q0 -29 -1 -54.5t12.5 -44t48 -29.5t104.5 -11q100 0 101 41q0 12 -11 22q-18 147 -18 217q0 31 2 62.5t8 60.5q20 -2 41 -2h51q27 0 65 2 t73.5 4t64.5 5t39 3q0 66 14.5 131.5t32.5 128.5q-27 0 -55.5 3.5t-52.5 3.5q-18 0 -54 -2.5t-76 -4.5t-77 -4t-56 -2q0 20 1.5 57t2.5 77t3 77t4 60q29 0 72.5 3t89 8t85 11t60.5 10h6q6 0 20.5 17.5t27.5 42t23.5 52.5t10.5 48q0 63 -64 64l-317 -2v282l12 8 q-8 12 -18 24.5t-27 12.5q-14 0 -36.5 -5t-48 -12t-52.5 -12.5t-49 -5.5l-43 -327q-147 -8 -254 -13.5t-178 -5.5q6 90 14 174t10 150v2q0 66 -127 65q-47 0 -70.5 -16t-23.5 -45v-29q0 -25 -4 -66.5t-8 -86.5t-9 -87t-8 -67q-18 0 -49.5 1t-67.5 2t-69 2t-51 1h-41 q-66 -59 -66 -110zM588 1008q127 16 220 23t153 7h14q39 0 48 -8t9 -57q0 -41 -5 -93.5t-17 -121.5q-80 -18 -158 -24.5t-156 -6.5t-80 6q-10 14 -19 88t-9 187z" />
<glyph unicode="$" horiz-adv-x="663" d="M18 223q27 -8 45.5 -10t34.5 -2q29 0 65 15.5t70 33.5q2 -41 7.5 -84t12.5 -80t17.5 -62.5t22.5 -27.5q8 0 20.5 2t18.5 2q6 -6 16 -8t17 -2h6q4 0 14 4l-2 -2q6 2 17.5 4t21.5 2h27q29 0 44 21.5t15 56.5l2 51q-6 6 -14.5 37t-15.5 68t-11 69.5t-4 38.5l8 39 q4 18 8 37.5t4 28.5v2q20 27 50 48t58 44.5t47 51.5t24 65q-61 94 -144.5 180t-175.5 147l8 8q20 23 47 49.5t52.5 53t47 50.5t36.5 42h14q123 31 141 207q-47 8 -85 16t-73 21q-16 -14 -52 -44t-60 -53q-2 35 -5 75t-3 67q0 29 5 46t5 30v12q0 8 -4 22l-8 4v11l-17 2h-22 l6 -2q-8 2 -15.5 4t-13.5 2q-25 0 -55.5 -3t-59 -10.5t-48 -19.5t-19.5 -33q0 -10 1 -15t3 -13l4 -21q0 -2 -4 -14q0 2 2 -25.5t5 -61.5t7 -63.5t6 -33.5v-54q0 -47 19 -75q-57 -51 -104.5 -102.5t-47.5 -86.5q0 -29 34 -64.5t85 -74.5t108.5 -77t106.5 -71l12 -53 q-23 -39 -44 -65.5t-47.5 -47t-60.5 -39t-77 -38.5q-80 -39 -115.5 -93.5t-40.5 -99.5v-39z" />
<glyph unicode="%" horiz-adv-x="1294" d="M74 1155q0 -53 10 -114.5t27.5 -115t40 -89t47.5 -35.5q2 0 20.5 -11.5t43 -24.5t50 -24.5t41.5 -11.5q150 0 248 203h-4q27 59 38 121t11 123q0 92 -18.5 173t-55 140t-93 93t-132.5 34q-133 0 -227 -193h4q-27 -63 -39 -130.5t-12 -137.5zM217 1149q0 129 137 237 q139 -20 140 -184q0 -45 -12.5 -92t-31 -85t-42 -62.5t-48.5 -24.5h-8q-2 0 -6 1t-6 1l-8 -6q-16 4 -36 25.5t-37 52t-29.5 67.5t-12.5 70zM362 59q2 -33 17.5 -49t34.5 -16q31 0 53 14.5t47 56t53.5 117.5t71.5 201t104.5 305t151.5 428q33 90 55.5 139.5t38 73t24.5 28.5 t13 8t5 11t1 39v51q0 23 -4 33l-14 103q-23 49 -66 49q-31 0 -56.5 -24.5t-48 -66.5t-42 -97.5t-39.5 -114.5q-35 -104 -60.5 -172t-43 -113t-30 -76t-20.5 -60.5t-14 -66.5t-14 -92q-6 -49 -32 -108.5t-56.5 -122t-58 -128t-40.5 -126.5q-8 -41 -16.5 -82t-14.5 -78v-64z M688 426q0 -268 285 -406q68 0 124 39t96 101.5t62.5 142.5t22.5 162q0 154 -39 270q-16 51 -32.5 75t-36 35t-42 16t-53.5 18l2 -2q-40 28 -73 28q-53 0 -108.5 -45t-101.5 -115.5t-76 -155.5t-30 -163zM872 444q0 51 9.5 99.5t25 86.5t36 61.5t40.5 23.5q6 0 13.5 -3 l17.5 -7q18 -12 37.5 -41t34 -68t23.5 -82t9 -82q0 -176 -133 -186h-8q-53 0 -79 56t-26 142z" />
<glyph unicode="&#x26;" horiz-adv-x="1380" d="M45 1053q0 -45 6 -83t22.5 -83t46.5 -100.5t77 -135.5q6 -23 28.5 -74t52 -113.5t63.5 -130t65.5 -125.5t56 -97t35.5 -48l-9 13q4 -6 33 -13.5t70 -13.5t88 -11t88 -9t70.5 -6.5t35.5 -2.5q16 0 26.5 4.5t17.5 4.5q12 0 26 -7.5t70 -11.5v4q12 -4 20 -5t17 -3h22v25 l8 -19q-4 -4 -6 -4q41 0 74 19.5t33 60.5v14q0 29 -3 47.5t-8.5 31t-13.5 21.5t-18 19l-6 4q2 31 4 48.5t3 31.5t2 28.5t1 37.5v67q0 45 7 93.5t23.5 88t43 68.5t67.5 37h-2q29 2 50.5 6t34.5 12.5t20.5 22.5t7.5 41q0 12 -4.5 28.5t-10.5 36.5h2q-18 61 -61 62 q-6 0 -27 -10v2l-118 -35l12 125q-63 88 -133 88q-29 0 -47.5 -12.5t-27.5 -31t-12 -40t-3 -39.5q0 -10 1 -15t1 -10v-86h-6v-55q-8 0 -15.5 1t-15.5 5q-16 -12 -35 -12q-39 -14 -58.5 -22.5t-27.5 -12.5l2 2q-10 -4 -18.5 -8t-38.5 -10v-27l-19 -16q-12 -12 -20 -23.5 t-8 -23.5v-6q2 -4 2 -13q0 -6 2 -10l-2 2q10 -66 23 -95.5t61 -29.5q18 0 30.5 3t34.5 13h-4h2q0 2 2 3l2 -3l19 9q4 0 9 2t9 2h4q8 -6 33 -6q16 27 31 41q0 -63 2 -110.5t2 -76.5v-98t-2 -52.5t-4 -23.5t-7 -12v2l-10 -19q-45 0 -78.5 1.5t-59.5 7.5t-45.5 21.5t-35.5 43.5 q-16 35 -44 44t-52 9q-8 0 -15.5 -1t-13.5 -1h-16q-27 31 -53.5 77t-54 100.5t-53.5 114t-50 116.5q10 -16 30.5 -25.5t43 -15.5t43 -8t30.5 -2q23 6 35 22.5t21.5 35t16.5 33.5t19 21q76 61 136.5 98.5t102.5 68t64.5 65.5t22.5 94h-39q0 2 2 17.5t7 33t10 19.5 q-23 33 -50.5 83t-78.5 128h2q-18 33 -52 61.5t-70 49t-71 32.5t-55 12q-29 0 -44.5 -8t-24.5 -22.5t-16 -31t-20 -30.5q-68 -41 -137.5 -86t-126.5 -95t-94 -105.5t-37 -114.5zM268 1065q8 8 35 34.5t57.5 55.5t58 53.5t38.5 32.5h-2q39 18 82 19h16q37 -29 59.5 -44.5 t37 -28.5t22.5 -30.5t14 -50.5q-16 -35 -49 -66.5t-76 -57.5t-93 -44t-101 -27q-14 -16 -23.5 -35.5t-9.5 -39.5q-18 51 -30.5 91.5t-20.5 69.5l26 9q-37 45 -41 59zM920 1180q4 -4 5 -9.5t5 -9.5q-6 18 -10 19zM930 1161q2 -4 2 -6t2 -6v10h-2q0 2 -2 2zM934 1145 q0 -4 2 -6q0 2 -1 3t-1 3zM977 872l6 7h10q2 0 2 -2zM1143 702q0 14 2 16.5t16 2.5l19 -21l-19 -18z" />
<glyph unicode="'" horiz-adv-x="591" d="M-31 1106l105 -193h18q6 0 10 1t11.5 6.5t23 16.5t41.5 34l103 98q20 8 32.5 25.5t22.5 33.5q-2 -2 -4 -2q-4 0 -9.5 10.5t-5.5 22.5h37q0 8 1 27.5t1 42.5t1 46t1 40q0 4 -1 9t-1 9v15l21 176v4q0 55 -125 55q-92 0 -129 -47v-23q0 -4 1 -10t1 -12q0 -39 -5 -109.5 t-22 -158.5l-2 -2q-37 -33 -73.5 -66t-53.5 -49z" />
<glyph unicode="(" horiz-adv-x="598" d="M-10 807q0 -88 19.5 -168t55 -158t89 -160.5t120.5 -177.5q23 -35 69 -95t124 -111h10q63 0 64 92q0 16 -2 39.5t-5.5 47t-5.5 43t-2 27.5q-55 31 -108 93.5t-96 144.5t-70 176t-29 184v9q0 276 183 553q16 16 55 79.5t100 184.5l-16 30h-111q-12 -10 -50 -49t-87 -100 t-103.5 -140t-99.5 -169t-74.5 -185.5t-29.5 -189.5z" />
<glyph unicode=")" horiz-adv-x="638" d="M4 1524q164 -207 245 -399.5t81 -381.5q0 -80 -6.5 -133t-21.5 -96t-39.5 -84t-60.5 -96t-84 -133t-110 -195l144 -2q381 391 380 799q0 305 -204 637q-15 94 -64 151q-27 33 -52.5 46.5t-55.5 13.5h-117z" />
<glyph unicode="*" horiz-adv-x="671" d="M2 1118q0 -29 14.5 -45t36 -24.5t47 -9.5t47.5 -1h17l-53 -108v-17q0 -37 21.5 -54t49 -23.5t53 -5.5t35.5 1q8 35 16.5 71t18.5 65q27 -45 64 -91.5t61 -70.5l96 102q-47 59 -92 121q6 -2 12.5 -3t24.5 -1q61 0 92 30.5t31 86.5q0 49 -26.5 58t-55.5 9q-10 0 -20.5 -2 t-22.5 -6q23 23 36 42.5t13 41.5q0 25 -11 42t-26.5 28.5t-30 17.5t-20.5 6q-12 0 -25.5 -9t-25.5 -19.5t-22.5 -20.5t-16.5 -12q-25 -4 -55 -45q0 12 -21.5 53t-42.5 76h-20q-27 0 -72 -35v2l-10 -10l-12.5 -12.5t-12.5 -10.5h8q-8 -16 -8 -32v-21q4 -4 10.5 -15.5 t14.5 -25.5t17 -28.5t18 -22.5q-10 2 -17 2h-14q-45 0 -69.5 -8t-36 -20.5t-13.5 -25t-2 -20.5z" />
<glyph unicode="+" horiz-adv-x="946" d="M-14 801q0 -18 9 -38t23.5 -35t32 -24.5t31.5 -9.5q35 0 66.5 9.5t48.5 9.5q23 -4 34 -4q12 0 23 -2v-45q0 -20 6 -54.5t12.5 -68t12.5 -61t6 -36.5q0 -4 -1 -7t-1 -7v-29h157v39q0 37 3 76v47q6 10 7 29.5t1 48.5q-2 23 -2 37v26q12 0 41.5 1.5t61.5 3.5t58.5 5t34.5 7 q8 -4 31 -6t39 -2q27 0 41 18.5t14 48.5q0 18 -5 46t-19 69l-19 14q-111 6 -177.5 10.5t-92.5 8.5q2 10 3 20t1 25q0 14 -2 50t-4 76t-4 74.5t-2 45.5l-160 -35q0 -35 -12.5 -51.5t-12.5 -28.5v-4v-78t-9 -59.5t-32.5 -39t-72.5 -14.5q-16 6 -33 10.5t-29 4.5 q-25 0 -45 -13.5t-33.5 -33t-21.5 -40t-8 -34.5z" />
<glyph unicode="," horiz-adv-x="505" d="M94 82q0 -29 12.5 -52.5t32.5 -27.5l27 -31q-15 -16 -23 -47q-10 -29 -15 -60.5t-5 -70.5q4 -4 8 -12l-2 2q4 -8 6 -8l29 2l-27 -8q2 -4 6 -10.5t11 -12.5l6 -6q6 -10 14 -17.5t12 -11.5v13q4 0 8.5 -1.5t8.5 -1.5q41 0 61.5 27t38.5 62l37 67q57 102 57 156q0 2 -1 7 t-8 21.5t-22.5 51t-43.5 98.5v16q-35 20 -62 21q-35 0 -78 -27l-4 6q-84 -84 -84 -145z" />
<glyph unicode="-" horiz-adv-x="1017" d="M6 631q0 -57 25.5 -71.5t66.5 -14.5q10 0 25.5 2t26.5 2h10q10 0 37 -14q94 68 206 67q37 0 93.5 -11t101.5 -11q37 0 72 6t71 16q8 6 17 6l28 -4q12 -2 35 -3t21 -1q80 0 80 78q0 39 -12.5 62.5t-49.5 23.5q-27 0 -33 -2t-14 -2h-8l-8 2h-101q-14 0 -30.5 1t-32.5 1 q-86 0 -126 -3t-64.5 -6t-46 -6.5t-68.5 -3.5q-39 0 -60 13q-63 0 -112.5 -4t-87.5 -4h-58v-31q0 -4 1 -7t1 -7q0 -23 -1 -31t-5 -43z" />
<glyph unicode="." horiz-adv-x="405" d="M106 51q0 -33 9.5 -44t54.5 -11h29q20 0 37 -6l18 -4h12q45 0 45 86q0 14 -1 28.5t-3 28.5v6q-4 23 -13 35t-18 14l-2 2l-59 11q-18 10 -36.5 17t-22.5 7q-10 0 -28.5 -9t-18.5 -42q0 -20 2 -29q-2 -10 -3.5 -20t-1.5 -21l3 -22q0 -4 -1.5 -8t-1.5 -11v-8z" />
<glyph unicode="/" horiz-adv-x="765" d="M-12 76q0 -18 11 -33.5t26.5 -27t30 -17.5t22.5 -8q6 -2 12 -2h14q23 0 44.5 10t39 23.5t28.5 27.5t13 25q0 16 -6 26l174 342v31q0 49 7.5 95t23.5 95.5t40 102.5t58 117q49 94 80 154.5t47 97.5l-4 6q53 133 95 272t47 285l-33 4q-18 0 -50 -22.5t-65 -53.5 t-58.5 -61.5t-27.5 -46.5v-11q-20 -72 -62 -183.5t-94.5 -241.5t-107.5 -264t-103.5 -248.5t-83.5 -196.5t-43 -107q-4 -4 -16 -30.5t-25.5 -59.5t-23.5 -62.5t-10 -37.5z" />
<glyph unicode="0" horiz-adv-x="1210" d="M98 870q0 -186 48.5 -344.5t124 -275.5t171 -183.5t191.5 -66.5h14q236 86 346 270q27 86 54.5 140.5t51 101.5t38 98.5t14.5 128.5q0 25 -3 73t-8 101.5t-8.5 100.5t-3.5 67q0 59 7 109q-4 10 -7.5 20.5l-5.5 16.5h2v2h-2q-2 4 -6 16l-10 31q-8 16 -8 39q0 6 2 10 q-4 41 -32 62.5t-44 29.5q-33 49 -76 92h10q-18 14 -35.5 24.5t-38 23t-48 30t-68.5 43.5l-125 -31q-39 39 -76 39q-16 0 -40.5 -14t-51 -36.5t-53.5 -47t-46.5 -46t-31.5 -35t-10 -11.5l-6 -6t-9 -12q-66 -90 -107.5 -155t-67 -123t-36 -123.5t-10.5 -158.5zM330 836 q0 74 43 127q6 33 13 57t18.5 52t30 62.5t44.5 86.5l152 143q16 -12 45 -26.5t45 -14.5h14q4 0 7 1t8 1q4 0 6 -2l30 -33h19q25 0 45 -39t33.5 -96t20.5 -125.5t7 -126.5q0 -117 -20.5 -224.5t-59.5 -209.5l-116 -119q-8 -8 -27 -9t-33 -15q-18 -16 -31.5 -27.5t-17.5 -19.5 q-10 0 -20 8q-53 12 -100.5 50t-82 105.5t-54 165t-19.5 228.5zM1018 1421q2 0 2 -2z" />
<glyph unicode="1" horiz-adv-x="468" d="M90 1534q0 -12 2 -30.5t5 -37t5 -34t2 -19.5q0 -6 -1 -15t-7 -24q96 -162 97 -422q0 -25 -2.5 -77t-4.5 -108t-4 -107.5t-2 -75.5q0 -158 25 -265q14 -20 14 -51q0 -6 -2 -24.5t-3 -41t-3 -44t-2 -29.5q0 -111 94 -111q51 0 80 13.5t29 64.5v8t-4 15h2q-6 33 -7 51 q0 16 7 23l2 12v315q0 25 1 51.5t1 51.5q0 182 -12.5 308t-12.5 208q0 35 4 59.5t10 42.5q-4 98 -5 177t-1 136v99q-29 -6 -38 -7t-15 -1t-21.5 2t-34 4t-33.5 4t-17 2q-63 0 -105.5 -34t-42.5 -89z" />
<glyph unicode="2" horiz-adv-x="1179" d="M98 1204q20 -152 86 -200h17q35 0 79 40.5t94 99t102 123t102 111.5q6 -4 16 -11t19.5 -16.5t16.5 -17.5t11 -10h-8q66 -41 94.5 -80t28.5 -74q0 -25 -10.5 -64.5t-18.5 -80.5l-25 -80q-86 -131 -169.5 -253t-149.5 -224t-106.5 -182t-40.5 -125q0 -72 36 -160 q43 0 100.5 6t117 13.5t113.5 13.5t89 6q29 0 54.5 -5t48.5 -11h-2q23 -6 47 -10.5t53 -4.5q35 0 94.5 9.5t110.5 9.5l22 20v213q-43 20 -85 28.5t-83 8.5q-29 0 -76 -7t-98 -14.5t-96 -14.5t-68 -7q-47 0 -96 12q18 31 52 84t76 117.5t87 135.5t87 137.5t76 124t50 96.5 q66 59 66 135q0 68 -47 157.5t-125 182.5q-27 31 -56.5 66.5t-63.5 66t-69 50t-71 19.5q-25 0 -47.5 -12t-45 -29.5t-42 -36t-37.5 -30.5l-9 -8q-18 -31 -59 -72t-87 -84t-89 -85t-66 -77z" />
<glyph unicode="3" horiz-adv-x="987" d="M76 1454q82 -51 155.5 -88t136 -67.5t112.5 -59.5t87 -65l15 -33q-29 -33 -76 -63.5t-95.5 -55.5t-86 -43t-45.5 -27q-12 -35 -13 -63q0 -76 62 -76h16q8 -4 15.5 -9t17.5 -9h-2q78 -43 152.5 -87t109.5 -104q-29 -23 -56.5 -56.5t-55 -69.5t-55.5 -67.5t-58 -48.5 q-76 -23 -143.5 -90t-114.5 -159q10 -43 46 -71t101 -42q35 12 62.5 31.5t50.5 48.5l58.5 64.5t38.5 40t48 44t84 78.5q92 92 162 127q125 61 125 146q0 39 -5 62.5t-34 52t-90.5 70.5t-173.5 116l-9 41h3l24 20t25 21h-2q61 51 110 109t53 136q-35 55 -89 95t-124 59 q-92 98 -201.5 169t-240.5 111q-23 -10 -35 -31.5t-21 -48t-18.5 -55t-25.5 -53.5z" />
<glyph unicode="4" horiz-adv-x="1339" d="M98 475q57 -98 211 -98q84 23 178 22q20 0 57.5 -3t80.5 -6t85 -5t72 -2l-8 -213q-6 -16 -7 -29.5t-1 -23.5q0 -98 149 -117q31 23 47.5 41t23.5 36.5t9 40t2 50.5v119q0 16 -2 33.5t-2 33.5t9 26.5t38 10.5q23 0 53.5 -4t65.5 -4q102 0 121 88q-12 104 -106 104 q-45 0 -86 -8t-54 -8q-18 0 -26 2l-2 2q-4 41 -9.5 122t-11.5 175t-10 184.5t-4 149.5v41q0 12 -1 25.5t-1 25.5q0 37 8 88t8 90q0 20 -6 52t-18.5 61t-32 49.5t-47.5 20.5q-20 0 -41 -21.5t-35 -32.5q-16 -45 -52 -109.5t-82 -136t-97.5 -145.5t-97.5 -138.5t-83 -115.5 t-53 -76q-23 -31 -40 -57.5t-35.5 -52t-42 -55t-54.5 -68.5v2q-70 -78 -70 -166zM401 612l177 287h-3q49 78 95.5 147.5t91.5 129.5q-4 -14 -10.5 -34.5t-12.5 -43.5q-8 -35 -16 -66t-8 -53q0 -25 8 -46.5t19.5 -42t19.5 -38.5t8 -37q0 -10 -6 -37.5t-13.5 -59.5 t-15.5 -64.5t-10 -55.5q-16 -4 -33 -4h-30q-16 0 -49 3t-70 6t-71 6t-48 3h-23z" />
<glyph unicode="5" horiz-adv-x="1069" d="M92 59q76 -29 118 -44t56 -15q29 0 60.5 19.5t59.5 44t48.5 48t26.5 33.5l385 406q6 16 32.5 41.5t56.5 54.5t52.5 58t22.5 49q0 41 -51.5 78.5t-126 72.5t-161.5 65.5t-159 57.5q-12 14 -31.5 32.5t-48.5 45.5l-6 6q-29 29 -41 46.5t-12 41.5q0 59 5 126t30 108h30 q117 0 235 -8.5t220 -59.5q0 25 16.5 37t35 22.5t34.5 24.5t16 43q0 2 -6 17.5t-43 74.5v-4q-16 20 -45 21h-16q-4 0 -9.5 -1.5t-11.5 -1.5q-217 8 -360.5 23.5t-220.5 15.5h-39q-88 -55 -88 -135q0 -14 4 -35.5t9 -45t11 -43t10 -31.5q-25 -39 -34 -93.5t-9 -93.5 q27 -27 31 -57q0 -2 -2 -17.5t-4 -34t-4 -35t-2 -20.5q0 -86 92 -127h33q76 0 154.5 -45t168.5 -135q-20 -94 -108 -192.5t-227 -227.5q-143 -94 -187 -211z" />
<glyph unicode="6" horiz-adv-x="1099" d="M98 602q2 -23 5 -41t14.5 -37.5t34 -46t63.5 -67.5q41 -76 121 -162t215 -182q35 -20 73 -43t66 -23q33 0 68 23l8 8q129 193 201.5 319.5t72.5 198.5q0 66 -42 114t-107 107v-2q-6 6 -14.5 11t-12.5 12l-28 22q-33 74 -88.5 125t-141.5 51q-18 0 -28.5 -2t-20.5 -14 q55 82 80 127t42 78.5t40.5 68.5t79.5 94q121 133 164 238q-31 25 -62 38t-56.5 17t-45.5 4h-29q-25 -16 -48.5 -42.5t-44 -54.5t-36.5 -52.5t-29 -32.5q-14 -35 -53 -98.5t-91 -141t-110.5 -164.5t-111.5 -170t-93 -157t-55 -123zM365 602q4 102 112 258q10 10 17 25 q-4 -12 -8.5 -21.5t-4.5 -17.5q16 -41 61.5 -74t95.5 -60.5t91 -55t47 -58.5q25 -47 25 -94q0 -111 -119 -273q-92 41 -133 127q-31 18 -48.5 30.5t-34.5 35t-40 63.5t-61 115z" />
<glyph unicode="7" horiz-adv-x="1044" d="M98 1505q0 -33 17.5 -48t42 -20t52.5 -4t48 1q27 0 72 1t93 3t92 3t67 1q4 0 18 -2t35 -6q-29 -123 -56.5 -229.5t-74.5 -217.5q-27 -31 -56.5 -93.5t-60.5 -133t-59.5 -136t-53.5 -100.5q-4 -14 -5 -39.5t-5 -56.5t-12 -62.5t-23 -58.5h-18q-35 -59 -43 -110.5t-8 -94.5 q0 -41 3 -62.5t11 -30.5t21.5 -10t31.5 -1q53 0 90 28.5t70 82.5q47 139 100.5 291.5t112.5 309t126 313.5t138 302q-10 6 8.5 36t43 69.5t47 82.5t24.5 74q-47 23 -91 33t-85 10q-12 0 -18.5 -2t-16.5 -6t-28.5 -10t-53.5 -13h-2q-23 0 -47 8.5t-47 8.5q-27 0 -63.5 3 t-76.5 8t-82 8t-77 3q-41 0 -77 -15t-63.5 -36.5t-44 -44t-16.5 -37.5z" />
<glyph unicode="8" horiz-adv-x="1126" d="M98 430q16 -57 57.5 -116.5t110.5 -114.5v-2q8 -4 67.5 -48.5t174.5 -121.5q27 -16 47 -17q12 0 30.5 8.5t37 18.5t33 18t18.5 11l4 2q59 51 119.5 106t114 111.5t94.5 112t63 104.5q-94 193 -348 393q4 4 9 10t11 13l9 8h-2q29 31 61.5 71.5t66 83.5t67.5 85t65 75 q-6 39 -19.5 64.5t-37 51t-58.5 60.5t-84 92q-35 43 -64.5 70t-58.5 42t-58.5 21.5t-64.5 6.5h-16q-55 -27 -97 -54.5t-85 -71.5t-96.5 -112t-129.5 -172q-4 -12 -6 -25.5t-2 -33.5q0 -78 72.5 -147.5t208.5 -149.5q-14 -12 -27.5 -26.5t-26.5 -31.5l2 -2q-31 -35 -75.5 -84 t-85.5 -103t-71 -104.5t-30 -87.5v-14zM317 451q25 47 78.5 104t157.5 141l4 -4q33 -41 71 -80t83 -39q16 -16 44.5 -50t39.5 -62l-146 -170q-6 -4 -16.5 -5t-26.5 -5q-37 -6 -53 -23q-41 27 -93 70t-104 90zM387 1190q4 8 8 14t8 17v-2q16 31 38 70.5t47.5 73.5t55 57.5 t60.5 23.5q18 0 40 -18.5t42.5 -44t35.5 -51t26 -40.5q-29 -53 -75 -119.5t-114 -146.5q-119 76 -172 166z" />
<glyph unicode="9" horiz-adv-x="1087" d="M98 1104q0 -31 6.5 -56.5t23.5 -52t51 -56.5t89 -71q29 -20 50.5 -36.5t38 -33t27.5 -36t22 -45.5q12 -23 28.5 -41.5t38.5 -28.5h66q16 0 36 10q-53 -88 -105 -174t-97 -159.5t-78 -130t-47 -87.5q16 -27 24.5 -48t16.5 -35.5t21.5 -22.5t37.5 -8q63 0 109.5 48 t58.5 134q76 102 128 189.5t89 155t61.5 116.5t41.5 74v-2q70 104 108.5 165.5t57 102.5t22.5 73.5t4 79.5t-27.5 94.5t-72.5 94.5t-102.5 95t-116.5 97q-35 14 -45.5 37t-17.5 42.5t-23.5 33.5t-63.5 14q-72 0 -137.5 -61.5t-155.5 -183.5q-143 -197 -155 -209 q-12 -43 -13 -78zM344 1096q16 76 67.5 139t131.5 117h4q29 0 47 -6.5t38.5 -23.5t49.5 -49t80 -83q18 -18 31.5 -32.5t13.5 -24.5q0 -12 -39 -48l20 -18q-16 -47 -48.5 -111.5t-73.5 -138.5q-2 12 -8.5 26.5t-16.5 28.5q-47 12 -94 35t-87 52.5t-71 64.5t-45 72z" />
<glyph unicode=":" horiz-adv-x="493" d="M125 905q0 -14 2 -22v-4q0 -16 4 -23l-2 8q0 -2 1 -3t1 -3t-4 -14v-80q0 -41 13.5 -64.5t29.5 -27.5h12t17 2h6q10 0 15 -4t13 -4t19 4l-2 -2q6 2 16 4t21 2h22q25 0 40.5 21.5t15.5 56.5v24q-25 20 -25 35l6 39q4 18 7 36.5t3 28.5v15q0 8 -4 20l-8 4v11l-14 2h-21l6 -2 q-8 2 -14 4t-12 2q-20 0 -49 -3t-54.5 -10.5t-43 -19.5t-17.5 -33zM145 86q0 -41 12.5 -56.5t51.5 -15.5h31q18 0 36 -12q8 4 15 4q0 -2 4 -6h14q49 0 49 84v18q0 78 -14 103.5t-27 34.5l-57 12q-57 29 -63 29q-29 0 -39.5 -16.5t-10.5 -45.5v-20t3 -21q-2 -10 -3.5 -19 t-1.5 -22v-51z" />
<glyph unicode=";" horiz-adv-x="591" d="M-18 -92l112 -174h19q12 0 24.5 7t23.5 16.5t20 16.5t14 7q2 2 14 10t26.5 20.5t27.5 24.5t22 23l12 8q4 4 10 8q14 10 42 32.5t28 43.5q-2 25 -2 49v43v53l16 58q0 29 2 64.5t2 64.5q-49 0 -75.5 4t-41 10t-21.5 10t-15 4h-29v-8h-12q-16 0 -60 -27v-28q0 -23 -4 -76 t-10 -141h4q-6 -10 -10 -21l-21 -14q-41 -35 -71.5 -57.5t-46.5 -30.5zM135 920q0 -4 3 -23t7 -25q-4 -4 -6 -8v-12q0 -4 1 -7t1 -9v-19q0 -6 -1 -12t-1 -17v-10q0 -35 15.5 -61.5t35.5 -34.5q8 0 20.5 2t20.5 2h5l3 -1t7 -3h-2q4 -4 9 -5l5 -1h4q4 0 14 4l-2 -2q8 2 19.5 4 t21.5 2h27q29 0 43 22.5t14 57.5v24q-25 20 -24 37q0 2 3 16.5t6 32l6 35t3 23.5t-1 14t-5 23l-8 2v10l-14 2h-25l6 -2l-12 4t-17 2q-10 0 -20 -3t-25 -7h-8q-18 0 -40.5 -1t-42 -6t-33 -17.5t-13.5 -32.5zM143 881q0 -2 1 -3t1 -4v-2z" />
<glyph unicode="&#x3c;" horiz-adv-x="1224" d="M-25 768q455 -223 943 -336q37 -33 118 -33h29q115 63 115 117q0 20 -51.5 43t-115 43.5t-118.5 34.5t-64 18q-152 47 -265 79t-195 54q33 10 71.5 20.5t78.5 23t78 25.5t69 32l2 -2q12 6 73.5 22.5t138 43t152.5 60.5t115 72v17q0 27 -24.5 58.5t-75.5 31.5 q-82 0 -168 -23.5t-172 -58.5t-172 -74t-168 -67q-117 -14 -213.5 -64.5t-180.5 -136.5z" />
<glyph unicode="=" horiz-adv-x="1187" d="M6 643q0 -66 13.5 -97.5t48.5 -31.5q10 0 38.5 7t38.5 7q20 0 67.5 -1t101 -3t100.5 -3t65 -1q78 0 131.5 6t98.5 6q66 2 120 5.5t94 14.5t62.5 33.5t22.5 63.5q0 25 -11.5 42.5t-25 28.5t-26.5 16t-17 5h-13q-6 0 -14 -4h-2q-6 0 -17.5 6.5t-33.5 24.5q-39 -12 -82 -16 t-90 -4q-59 0 -132 5t-132 5q-127 0 -205 -23q-10 -10 -21 -10q-4 0 -16 2t-28.5 5t-32 5t-23.5 2q-80 0 -80 -96zM10 954q0 -41 15 -67h2q23 -59 59 -60q6 0 19.5 4.5t29 10.5t30.5 11t23 7q8 -4 11 -4q4 0 14 -2q59 18 119.5 26.5t118.5 8.5q16 0 45.5 -1t62.5 -2t62.5 -2 t48.5 -1q47 0 82.5 4t68.5 12q4 0 17.5 -2t29 -5t30.5 -5t24 -2q88 0 88 135q0 80 -72 80h-18q-8 0 -11 6l-22 8q-12 -2 -29 -2h-35q-39 0 -97 2t-97 2q-98 0 -171 -12t-128 -12q-31 0 -56 14q-63 0 -112 -3t-88 -3h-58v-35q0 -4 1 -9t1 -9q0 -27 -4 -48.5t-4 -44.5z" />
<glyph unicode="&#x3e;" horiz-adv-x="1282" d="M6 510q0 -57 117 -117h29q41 0 68.5 8.5t45.5 22.5q244 59 480.5 143t465.5 195q-86 86 -183 136t-208 65q-176 76 -339.5 137t-323.5 84h-11q-4 0 -6 1t-4 1q-47 0 -72.5 -32t-25.5 -60v-17q37 -37 112.5 -70.5t153.5 -60t139.5 -45t73.5 -20.5v2q31 -18 70 -31.5 t79 -25t78.5 -21.5t71.5 -23q-125 -35 -319.5 -92t-489.5 -149q0 -2 -1 -11.5t-1 -13.5v-6z" />
<glyph unicode="?" horiz-adv-x="856" d="M47 584q0 -8 13.5 -46t34 -81t47 -78t55.5 -35q45 0 153 74l-2 4q2 2 2 4q0 10 -18 26.5t-45 43.5q-43 43 -43 59q0 2 16 16.5t35.5 30.5t36.5 30l16 13q27 25 69 47.5t105 42.5q37 12 72 28.5t65.5 35t54 35t36.5 26.5q25 20 46 66.5t38.5 101.5t27.5 110.5t10 96.5 q0 178 -299 319q-115 55 -212 82t-177 27h-32q-20 16 -41 16q-39 0 -39 -45t45 -155q76 -18 148.5 -41t107.5 -33q8 23 10 22q35 0 76 -21.5t76.5 -54t59 -71.5t23.5 -72q0 -55 -11 -103t-46 -91t-100.5 -85t-173.5 -87q-88 -37 -127 -74v14q-29 -45 -49.5 -72.5t-35 -47 t-21.5 -37t-7 -41.5zM100 195q0 -31 6.5 -64t24.5 -70v-14q18 -16 33.5 -23.5t32.5 -11.5v2q20 -6 37.5 -10t33.5 -4q68 0 115 61q-6 43 -6 91q0 51 4 57h2q4 4 10 13t6 22q0 47 -186 47h-57q-55 -23 -56 -96zM383 211q0 2 2 2z" />
<glyph unicode="@" horiz-adv-x="1595" d="M25 711q0 -326 211 -559q283 -199 544 -199q135 0 265.5 53t238 144.5t185 212t108.5 253.5q-2 10 -5 131t-32 343h-20q-12 0 -31 14t-39 31.5t-43 32t-41 14.5q-23 0 -33 -16.5t-10 -57.5q0 -31 9 -54.5t9 -39.5q0 -25 -18 -62q33 -57 45 -93t12 -58q0 -25 -10 -41.5 t-22.5 -31.5t-22.5 -33.5t-10 -47.5q0 -162 -189 -338q-4 -4 -13 -12t-21.5 -16.5t-23.5 -15.5t-17 -7t-13 2h-18q-61 0 -66 -53q-47 -23 -87 -31t-109 -8q-51 0 -101.5 5t-97.5 20.5t-88 45t-74 76.5l-18 19q-14 12 -29.5 35.5t-32.5 76.5q-43 16 -58 44t-15 57t7 52.5 t7 62.5q0 27 -3 63.5t-7 72.5t-7 66.5t-3 46.5q2 8 15 44t42 82t76 95.5t118 86.5h11q49 0 98 9t94 9q63 0 101 -25.5t79 -107.5q-25 8 -55.5 13t-44.5 5q-29 -10 -51.5 -33.5t-38.5 -54.5q-33 -57 -89 -101t-111.5 -89t-95.5 -98.5t-40 -127.5l248 -303q37 -25 76 -45 t73 -20q27 0 41.5 9t22.5 21.5t15 28t22 27.5l37 24q66 41 130 84t116.5 90.5t84 98.5t31.5 108q0 43 -6 82t-22.5 84t-46 102.5t-78.5 137.5l-3 -2q-18 51 -34.5 85t-31.5 57.5t-27.5 39.5t-22.5 29l-21 20q-10 23 -34.5 31t-57.5 8h-22q-6 0 -12.5 -1t-10.5 -1h-37 q-33 0 -46 5t-22.5 12.5t-19.5 12.5t-35 5t-49 -4t-45 -4h-22q-29 0 -78 -24.5t-106.5 -70t-116 -111t-105.5 -146t-76.5 -176t-29.5 -201.5zM598 686q18 35 50 66.5t75 58.5t94 45t107 27q25 27 30 61q18 -39 31 -73.5t23 -75.5l-27 -7q18 -23 26.5 -37t12.5 -24 q-29 -35 -64.5 -68.5t-72.5 -61.5t-71 -44t-60 -16q-8 0 -21.5 6t-26 13t-21.5 14l-9 8h2q-41 23 -54.5 42t-23.5 66z" />
<glyph unicode="A" horiz-adv-x="1304" d="M8 113q0 -60 47 -97q27 -16 51 -16q59 0 101 53q37 111 97.5 282t139.5 390q14 10 37 10t64 -11t88 -11q8 0 22.5 1t30.5 1t32.5 1t29.5 1q23 0 42 -4t37 -11q37 -80 88.5 -196.5t116.5 -261.5q-2 -12 -2 -23v-18q0 -27 8.5 -58.5t24.5 -64.5v2l16 -47q35 -6 67 -8t60 -2 q23 0 56.5 2t76.5 10v45q0 47 -27.5 115.5t-59 132t-59.5 110.5t-28 54q-4 16 -10 29.5t-10 25.5q-43 119 -74 206t-58.5 157.5t-55 131t-62.5 127.5q-31 70 -67.5 162t-71.5 191v4q0 10 -12.5 29.5t-29 40t-34.5 35t-31 14.5q-12 0 -24.5 -2.5t-24.5 -12.5h2 q-33 -20 -51.5 -53t-27.5 -67.5t-12 -66.5t-3 -50q0 -4 4 -4q-18 -35 -43 -92.5t-52.5 -120t-57 -121t-58.5 -94.5q-27 -98 -70 -222.5t-108 -281.5q-20 -49 -41 -99.5t-37 -96.5t-26.5 -86t-10.5 -64zM526 909q29 78 63 155t73 126q6 -23 15 -54.5t19 -72.5 q10 -39 21.5 -72t23.5 -59q-18 -2 -47.5 -5t-60.5 -7.5t-58.5 -7.5t-42.5 -3h-6z" />
<glyph unicode="B" horiz-adv-x="1050" d="M76 0h61q293 160 512.5 278.5t364.5 196.5q63 35 63 90q0 25 -18.5 47.5t-68.5 54t-136 82t-221 134.5q0 -2 37 24.5t121 91.5q98 72 100 148q-25 47 -83 98t-121.5 97.5t-117 80t-63.5 43.5q-25 2 -57.5 20.5t-63.5 42t-53.5 45t-26.5 28.5q-12 2 -31.5 8t-42 12t-44 11 t-35.5 5q-6 0 -15.5 -1t-32.5 -9q-24 -158 -24 -338v-14q0 -35 3 -108.5t6 -160.5t6 -172t3 -141q0 -100 -6 -192q0 -10 3 -28.5t11 -31.5l3 -16q-2 -2 -23 -8zM297 1067q0 152 18 274q27 -18 65 -46.5t78 -60.5t77.5 -61.5t66.5 -48.5q-125 -94 -189.5 -164.5t-64.5 -85.5 q0 -4 1 -10t11 -22l121 -64q31 -18 55.5 -39.5t41.5 -44.5q152 -70 208 -108l-467 -260q0 27 1.5 53t1.5 55q0 27 -2.5 77t-4.5 111.5t-6 128t-6 127t-4 110.5t-2 79z" />
<glyph unicode="C" horiz-adv-x="1058" d="M4 756q180 -199 381 -365t424 -305q31 -66 131 -80h10q139 55 144 152q-92 59 -164 112.5t-128.5 97.5t-99.5 79.5t-77 60.5q-117 78 -184.5 140.5t-90.5 133.5q14 25 41 49.5t62 49.5l71 53q8 25 38 58.5t63 66.5l47 45q0 18 25.5 46t64.5 61.5t88 73.5t94 82t83 86 t56 87q-2 8 -6 21h4l-4 4q-6 8 -12 14t-16 14l-11 11q-12 12 -25.5 25t-33.5 13q-16 0 -47 -14v2q-154 -80 -299 -231l-250 -254q-84 -45 -164 -125q-18 -63 -80 -125z" />
<glyph unicode="D" horiz-adv-x="1370" d="M68 0h157q23 29 54.5 45t72.5 27l164 34q94 84 178 143.5t171 115t185.5 116t221.5 144.5q10 10 21.5 18t15.5 12h8q23 23 47 41l39 43h-8q8 20 8 35q0 10 -17 47q-129 133 -245.5 229.5t-225.5 168.5q-31 53 -74.5 91t-103 70.5t-138.5 65.5t-177 76q-66 29 -98.5 50 t-49 36.5t-24.5 22.5t-27 7q-12 0 -40.5 -8t-82.5 -26q-14 -70 -14 -136q0 -27 5 -79t12.5 -107t12.5 -105.5t5 -74.5q0 -61 -5 -141t-11.5 -170.5t-13.5 -189.5t-9 -204q-4 -92 -7 -197.5t-7 -199.5zM319 406q0 53 11.5 106t36.5 102q-14 31 -15 58q0 23 15.5 64.5 t23.5 107.5q-47 158 -47 325q0 37 2 75t8 73q154 -100 312 -143q31 -25 89 -81.5t121.5 -119t122 -119.5t91.5 -86q-29 -35 -80 -70h-2q-18 -10 -32.5 -20t-33.5 -23l-512 -352l-96 -22q-14 55 -15 125z" />
<glyph unicode="E" horiz-adv-x="1136" d="M41 756q180 -199 382 -365t425 -305q31 -61 131 -80h12q135 55 139 152q-201 129 -312 223t-175 143q-47 31 -93 64t-81 67q55 8 142 19.5t177.5 26t170 34t116.5 45.5v84q0 63 -53 86l-8 2q-18 -2 -65.5 -6t-104 -11t-114.5 -17.5t-99 -22.5q-45 -16 -84 -22.5t-74 -6.5 q6 4 16 15l74 51q6 23 36 57.5t65 69.5l45 45q29 37 58.5 64.5t59.5 54.5h-2q37 33 82 72.5t87 81.5t76 84t50 79q-2 8 -6 21h6q-4 4 -10 12t-12 12l-19 19q-12 14 -27.5 26t-35.5 12q-14 0 -45 -14v2q-78 -41 -152 -98t-147 -133l-252 -256q-43 -23 -83 -53.5t-79 -67.5 q-14 -61 -80 -127z" />
<glyph unicode="F" horiz-adv-x="1122" d="M98 940q0 -41 7.5 -80t15.5 -77t15 -75.5t7 -80.5q0 -12 -5 -52t-10 -100.5t-10 -137.5t-5 -163q0 -39 3 -81t13 -95q84 4 164 22.5t160 47.5q-27 47 -27 79q0 35 -14 66v10v8q0 6 2 17v12q0 25 -19 47q-18 135 -30.5 250t-18.5 213l55 10q86 27 136.5 42.5t84 24.5 t61.5 14t71 11q37 4 69.5 10.5t60 21t49 41t38.5 73.5q-10 35 -46 56.5t-102 25.5q-127 -41 -259 -77t-232 -52q16 102 24.5 191t8.5 169q0 25 -1.5 49.5t-3.5 46.5q23 -4 46 -4h47q37 0 91 6.5t109.5 15.5t102.5 17t71 13q59 -37 102.5 -53.5t71.5 -16.5q16 0 26.5 1 t16.5 3l15 8q6 4 12 8.5t12 8.5h-2q29 18 54.5 40.5t25.5 55.5v12q-53 96 -192 96q-31 0 -87.5 -4t-121.5 -26q-10 -4 -20.5 -6.5t-18.5 -2.5q-68 0 -131.5 7.5t-132.5 7.5h-29q-178 -6 -324 -58q23 -49 23 -88v-32q-2 -10 -2 -21v-16q0 -43 11 -77t36 -56 q-6 -18 -18.5 -60.5t-24.5 -91.5t-21.5 -97t-9.5 -77z" />
<glyph unicode="G" horiz-adv-x="1284" d="M12 791q70 -111 197 -220.5t323 -238.5q96 -61 163 -106.5t104 -75.5q31 -6 69.5 -30t81.5 -49.5t84 -47t74 -21.5q20 0 41.5 4t50.5 12q6 176 39 304q-12 16 -16 28t-4 23q0 20 8 43.5t17 47t17.5 48.5t8.5 49q0 18 -8.5 53t-19.5 72t-19.5 68.5t-8.5 44.5 q0 20 12.5 47.5t41.5 60.5q-72 35 -133 35q-35 0 -72 -6l-31 8q-20 12 -30.5 16.5t-14.5 4.5q-8 0 -6 -7.5t-6 -7.5h-2q-23 2 -34 5t-17.5 5.5t-11.5 4.5t-11 2q-14 0 -34.5 -11.5t-20.5 -50.5q0 -20 2 -31q-2 -10 -3 -23t-1 -24l2 -24q0 -4 -1 -9.5t-1 -13.5v-10 q0 -37 10 -49t61 -12h117q0 -57 8.5 -105.5t8.5 -107.5q0 -47 -5.5 -80t-12.5 -57.5t-15 -45t-17 -43.5q-455 231 -700 508q23 33 35 55.5t28 43.5q111 104 275 224t389 259h-2q8 4 11 5t7 3q70 23 123.5 64t67.5 88q-12 20 -31.5 51t-45.5 57.5t-54.5 46t-57.5 19.5h-14 q-57 -43 -95 -72t-66.5 -52.5t-52 -43t-48.5 -41.5h2q-6 -4 -11 -8t-12 -9l-172 -174q-43 -43 -122.5 -105.5t-163.5 -131t-161 -138t-114 -128.5z" />
<glyph unicode="H" horiz-adv-x="1136" d="M57 94q0 -20 6.5 -40.5t16.5 -43.5q6 2 21.5 4t21.5 4h-2q59 8 102 20.5t84 55.5q-12 106 -12 217q0 57 3 125t11 146l13 137q2 27 5 53.5t5 54.5q49 -4 111.5 -22.5t116.5 -39t92 -36.5t42 -16q23 -12 49.5 -23.5t55.5 -21.5h-2q20 -8 36.5 -14.5t26.5 -12.5 q12 -84 12 -176q0 -12 -2 -46t-3 -77t-3 -91t-2 -93q0 -23 1 -38.5t3 -30.5t7.5 -34.5t11.5 -50.5q33 -8 58.5 -10t45.5 -2q84 0 108.5 35.5t24.5 97.5q0 33 -6 61q-23 117 -36 243t-13 265q0 121 12.5 282t28.5 341l25 244q-61 37 -185 77q-53 -10 -69.5 -33.5t-16.5 -68.5 v-35q2 -14 2 -22v-17q0 -6 -1 -13t-5 -26l6 -18q0 -25 16.5 -47.5t22.5 -32.5q-8 -76 -22.5 -178.5t-14.5 -231.5q-31 2 -81 16.5t-103 30t-104.5 29t-88.5 17.5q-20 8 -50.5 15t-60.5 14t-50.5 17.5t-20.5 28.5v17q-4 31 -6 55.5t-2 40.5q0 113 84 162q0 63 -7 105t-6 71 q0 4 0.5 10t0.5 12v31q-33 14 -66 19.5t-67 5.5q-47 0 -115 -6q-16 -37 -17.5 -77t-17.5 -81l45 -98q-4 -53 -6 -115.5t-2 -134.5q0 -25 1 -70t1 -94t1 -93t1 -67q0 -303 -49 -502q4 -20 4 -28q2 -2 -2 -22.5t-9 -46t-10.5 -50.5t-5.5 -33z" />
<glyph unicode="I" horiz-adv-x="346" d="M63 1528q0 -98 41 -162q-24 -307 -24 -551q0 -98 4 -192.5t12 -186.5l-8 -348q27 -45 55.5 -66.5t57.5 -21.5q27 0 42 13.5t23 31.5t12 39.5t3 38.5q0 10 -1 16t-1 11v81q0 68 -1.5 163t-3.5 189.5t-3 172.5t-1 110q0 401 56 672q4 8 5 14.5t1 16.5q0 66 -84 69 q-14 -8 -35 -8q-8 0 -29.5 2t-29.5 2q-49 0 -70 -24.5t-21 -81.5z" />
<glyph unicode="J" horiz-adv-x="878" d="M12 360q14 -45 28.5 -73.5t34 -46t47.5 -25.5t71 -10q47 -2 94 -12.5t88 -51.5t68.5 -56t52 -21.5t48 -9.5t54.5 -17l20 29l6 -8q7 -9 7 -17q0 -6 -10 -6h-7q2 -2 11 -2q10 0 19 -3t18.5 -9.5t15.5 -20.5h33q59 0 85.5 25.5t26.5 97.5q4 29 9.5 43t9.5 24v-2q10 14 10 41 q0 14 -7 27.5t-16.5 29t-16.5 39t-7 60.5q0 66 7 161t11 181q37 38 37 104q0 68 -51 152l-21 229q0 4 1.5 7.5t1.5 7.5q0 25 -3.5 55.5t-3.5 46.5q0 31 8.5 53.5t19.5 41t19.5 36t8.5 39.5q0 66 -46 102.5t-139 36.5q-63 0 -102 -31.5t-39 -99.5t35 -116v-29q0 -59 2 -146.5 t5 -189.5t7 -211.5t8 -210t7.5 -186.5t5.5 -142q-16 6 -31 7h-29q-12 0 -25.5 5t-31.5 23q-27 27 -51.5 36t-48.5 9q-16 0 -27.5 -1t-22.5 -3l-14 -4l-4 12v-2q-12 16 -32.5 41t-49.5 37l-125 37q-29 -10 -44 -34.5t-21 -39.5l-4 -10q-10 -20 -11 -29z" />
<glyph unicode="K" horiz-adv-x="1110" d="M57 1145q4 -57 7.5 -132t3.5 -163q0 -53 -1 -118.5t-3.5 -135.5t-3.5 -135.5t-1 -118.5q0 -78 2 -147.5t9 -128.5q25 0 37 -10.5t21 -23t19.5 -22.5t28.5 -10q10 0 20.5 2t24.5 10l51 54v542q43 -39 114 -102.5t148.5 -130t151.5 -126t121 -87.5q14 -8 36.5 -32 t48.5 -48.5t54.5 -44t57.5 -19.5q12 0 32.5 2.5t42 12.5t36.5 29.5t15 56.5q0 84 -120 137h-17q-14 0 -18 2v6q0 16 -17 33v-10l-24 -11q-18 20 -73.5 75t-129.5 122.5t-158 138t-159 125.5q43 33 91 85t101 120q53 72 110.5 125t117.5 104h-3q35 31 72 64t75 73t77 88 t82 111v17q-4 35 -12.5 61t-45.5 49h-12q-6 2 -11 3t-16 1q-31 0 -51 -17t-37.5 -42t-33 -49.5t-33.5 -38.5q-35 -29 -90.5 -92.5t-116 -133t-116.5 -131t-91 -85.5l-12 -25q-23 -6 -62 -19.5t-69 -46.5l-64 -59q-4 10 -4 23v26v49q4 18 4 33v27v18t-2 19q16 72 25.5 137 t8.5 127q0 31 -1.5 59.5t-5.5 57.5l7 6v14q18 33 19 45q0 37 -53 55h-10q-45 0 -148 -39q-8 -33 -14 -90t-11 -118.5t-10.5 -116.5t-11.5 -86zM948 305q2 -4 10 -8q-2 8 -10 8z" />
<glyph unicode="L" horiz-adv-x="964" d="M57 1483l43 -647q-10 -45 -15 -94.5t-5 -108.5q0 -27 3 -69t7 -91t9 -102.5t9.5 -98.5t7.5 -79.5t3 -47.5q0 -29 -4 -65.5t-13 -79.5q188 4 355.5 6t283.5 2h131l74 43q0 2 2 19.5t11.5 40t29.5 32.5q-14 8 -34.5 19.5t-42 21t-43 15.5t-35.5 6q-12 0 -41 -3t-63 -6 t-66.5 -6.5t-55.5 -3.5h-12q-45 23 -129 29l-115 8q-10 86 -14 156t-7 146.5t-8.5 171t-13.5 229.5q-8 127 -12 223t-4 168v24q41 41 41 111v14q0 12 -3 38t-3 40t5 32.5t13 41.5q-29 10 -49.5 16t-32.5 6q-18 0 -46 -11t-54.5 -25.5t-49 -28.5t-28.5 -19q-12 -29 -20.5 -46 t-8.5 -27z" />
<glyph unicode="M" horiz-adv-x="1906" d="M29 18q23 0 45 -2t45 -6l80 -10q18 0 33.5 3t33.5 13q20 55 40 137.5t36 169.5t32.5 166.5t33.5 126.5l6 41t16 103.5t27.5 137.5t40.5 142l92 -114q86 -229 157.5 -398.5t137.5 -281.5q4 -25 8 -49.5t13 -44t24.5 -30.5t44.5 -11h20q23 27 43.5 66.5t41 80.5t40 76 t41.5 51q6 61 28.5 130t53.5 140.5t69 147.5t79 153l28 60q66 -164 117 -395l102 -480l41 -53q27 -37 56.5 -54.5t76.5 -17.5q98 0 99 105q0 4 -1 12t-5 31q-35 109 -75 252t-83 305t-88 336t-88 344q51 92 51 127q0 33 -27 74h-24q-12 0 -23 -5h-16q-18 0 -47 19v-2 q-16 10 -30.5 17t-39.5 7q-47 -104 -98 -212.5t-97 -213t-81 -201t-47 -175.5q-8 -16 -23.5 -45t-33 -60t-35 -61.5t-29.5 -51.5l-19 44q-35 31 -65.5 85t-58 112.5t-50 110.5t-43.5 77q-16 20 -34.5 79.5t-41 130t-52 140t-68.5 108.5q-4 35 -23.5 63.5t-32.5 39.5 q0 -12 -2 -14.5t-16 -2.5v39h-21q-147 0 -147 -123q0 -12 3 -38.5t8 -55.5t8 -53.5t3 -34.5q0 -35 -16 -61q-25 -238 -64.5 -431.5t-76.5 -333t-65.5 -218t-30.5 -86.5v2q-18 -47 -27.5 -90.5t-9.5 -88.5z" />
<glyph unicode="N" horiz-adv-x="1167" d="M59 205q0 -55 19 -199q31 -4 56.5 -6t49.5 -2q76 0 133 29v86q0 18 -6 30.5t-13 24.5t-13 26.5t-6 32.5q0 23 4 52.5t9 59.5t9 58.5t6 48.5q-14 12 -15 33t3 44.5t9 47t5 39.5q0 47 13.5 104.5t13.5 119.5v36q0 4 -1 8.5t-1 8.5v20q0 23 -5 40.5t-10 41.5 q43 -55 100.5 -131t112 -153.5t99.5 -150.5t63 -118q72 -66 116 -107.5t67.5 -74.5t30.5 -61.5t7 -67.5q0 -66 44.5 -94.5t121.5 -28.5h21q25 0 35 16.5t14 40t3 50t-1 45.5q0 70 -4 156.5t-10 178t-10.5 182.5t-4.5 169q0 106 8.5 192t26.5 154q-22 58 -22 144v7q0 12 2 37 t4 56.5t4 67.5t2 71v35l-39 41q-43 -16 -85 -18.5t-73.5 -10.5t-52 -29.5t-20.5 -75.5q0 -57 39 -88l-9 -786l-49 45q-12 53 -54 99t-91 69q-27 51 -69 105.5t-91 114.5t-102.5 128t-98.5 143v2q-41 74 -92 148t-145 127q0 -51 3 -96t6 -89t6 -89.5t3 -96.5q0 -31 -2 -66.5 t-6 -72.5q-16 -152 -24.5 -263.5t-8.5 -187.5l-2 -286q-18 -35 -25.5 -77t-7.5 -89z" />
<glyph unicode="O" horiz-adv-x="1628" d="M57 760q0 -330 213 -561q279 -201 545 -201q80 0 146 14q113 25 218 86.5t192 149.5t149.5 194.5t89.5 221.5q-2 10 -8.5 87.5t-12.5 229.5q-8 186 -66.5 310t-154.5 200t-225 107.5t-279 31.5q-104 0 -204.5 -23.5t-194.5 -68.5q-14 -31 -55 -60.5t-86 -57t-84 -53.5 t-47 -50q-66 -143 -101 -282.5t-35 -274.5zM289 672q24 53 24 125v6q0 18 -4 56t-4 83v39q35 88 84 168t111 158q20 2 56 10t74 17t71.5 17.5t50.5 8.5q20 0 51 -8q61 28 134 28h5q57 0 107.5 -11t95.5 -35.5t90 -66.5t94 -104q23 -33 34 -56.5t11 -43.5q0 -14 -4 -25.5 t-8 -21.5l-4 -8q-2 -35 -17.5 -80t-31.5 -84q41 -74 41 -150q0 -82 -49.5 -167t-141.5 -171q-10 -10 -33 -10q-8 0 -14 2h-18q-61 0 -66 -53q-51 -23 -111.5 -35t-132.5 -12q-43 0 -93 4t-99 16.5t-92 35t-70 58.5v-2q-10 18 -24.5 58.5t-33 87.5t-40 92t-43.5 74z" />
<glyph unicode="P" horiz-adv-x="901" d="M55 84q0 -18 5.5 -37.5t21.5 -42.5q10 0 31.5 1t46.5 1t48 1t38 1q25 0 49 -6l-2 2q12 -6 35 -6q14 25 17 34l5 15v53q0 18 11.5 48t11.5 57q0 18 -9.5 28.5t-20.5 22.5t-20.5 30.5t-9.5 51.5q0 18 8.5 57t18.5 84t18.5 87t8.5 65q0 33 -7 61q195 68 336.5 157t235.5 198 v26q-111 123 -220.5 215t-219.5 150q-8 -2 -13.5 -4t-9.5 -4v2q0 35 -13.5 53t-39 30.5t-62.5 24.5t-84 37q-47 23 -93 42t-93 19l-4 -198q20 -115 34.5 -245t14.5 -275v-265v-127q0 -63 2 -125q-20 -18 -28.5 -41.5t-11.5 -50t-6 -51t-11 -43.5v-12q0 -23 -9.5 -53.5 t-9.5 -67.5zM319 1309v14l17 -2q35 -23 66.5 -46.5t68.5 -54t82 -69.5t106 -94q-145 -102 -307 -146q6 37 6 74q0 23 -6 68t-13 94t-13.5 94t-6.5 68z" />
<glyph unicode="Q" horiz-adv-x="1341" d="M63 866q0 -72 6.5 -158.5t24 -164.5t48 -133.5t79.5 -63.5q29 -4 45 -6l15 -2q39 -41 89 -64.5t108.5 -38t121 -23.5t125.5 -22q27 0 54.5 6.5t52 13.5t43 13t26.5 6q16 0 42 -23.5t46 -82.5v2q8 -20 15.5 -37.5t15.5 -32.5h-8q25 -29 47 -42t39 -13q14 0 27.5 10 t25.5 22.5t27.5 24t38.5 15.5v28q0 4 1 6.5t1 6.5q0 59 -54 137q-59 41 -59 80q0 16 20.5 49t47 69.5t54 71.5t40.5 55l18 7v28q0 6 4 13l2 4q6 10 12.5 17t18.5 20q-4 59 -13.5 121.5t-21.5 125.5l-24 97q-4 12 -7.5 24t-7.5 25l-16 59q4 16 6 34.5t2 37.5q0 68 -27.5 118 t-79 98t-126 102.5t-166.5 127.5q-12 2 -25.5 3t-36.5 1q-37 0 -91 -14t-111.5 -31.5t-109.5 -34t-83 -20.5q-82 -78 -161 -194.5t-152 -276.5q-4 -53 -6.5 -103.5t-2.5 -97.5zM209 870q12 4 34.5 36t26.5 100q51 160 134 265t200 161h12q4 0 9.5 1t9.5 1q61 0 124.5 -17.5 t119 -53.5t96.5 -91t59 -129q4 -23 10.5 -39.5t10.5 -28.5l-11 -6q0 -18 1.5 -26.5t3.5 -18.5l18 -125q0 -16 -18 -74q53 -18 53 -30q0 -6 -8.5 -34t-8.5 -50v-4q-23 -59 -52 -111.5t-68 -101.5q-12 12 -27 28.5t-31 32.5q-29 29 -56.5 58.5t-68.5 64.5l-135 -137 q0 -4 7.5 -21.5t20.5 -42t30.5 -53.5t37.5 -53h-16q-100 0 -183 23.5t-143.5 80.5t-96.5 153.5t-38 241.5h-57z" />
<glyph unicode="R" horiz-adv-x="1142" d="M55 61l51 -59q20 -6 41 -8t46 -2q41 0 77.5 11t75.5 34q2 27 2 61v70q0 31 -2 96.5t-4 138t-4 138t-2 96.5v74q29 -4 52.5 -15.5t48 -32t52 -54.5t64.5 -85q72 -106 127 -147q23 -4 35 -31t26.5 -65.5t36 -80.5t64.5 -77q29 -23 50 -46.5t39.5 -42t36 -30.5t36.5 -12 q8 0 20 4t29 10h-2q12 4 22 8t17 4h14q29 18 41 37t18 41h-2l13 31q-117 98 -208.5 193.5t-162 182.5t-122.5 162.5t-93 135.5l2 -2q-4 6 -7 12t-8 12v21q23 12 67 27.5t93 31t95.5 32.5t72.5 34q111 80 180 172q-29 90 -75.5 158.5t-124.5 122t-195 94t-285 77.5 q-53 10 -108 22.5t-100 24.5q-68 -20 -84.5 -68t-16.5 -108v-75q18 -49 19 -142q0 -25 -3.5 -57.5t-6.5 -68.5t-5 -72.5t-2 -69.5q0 -55 7.5 -102.5t23.5 -83.5q-41 -70 -41 -152q0 -23 7 -66t15.5 -91t15.5 -92t7 -68q-63 -43 -63 -127v-37q2 -10 2 -19v-10q0 -33 -15 -70z M330 1204q0 100 28 158q66 -8 120 -12t108.5 -22.5t117 -57.5t144.5 -117q-199 -90 -316 -136.5t-180 -66.5l-18 -6q2 14 2 33v41q0 37 -3 85t-3 101z" />
<glyph unicode="S" horiz-adv-x="845" d="M39 18q29 -10 48 -14t34 -4q66 0 118 36t123 97l44 37q12 12 26 19.5t27.5 15.5t26 18t22.5 33t29.5 39t42.5 29q4 20 36.5 42.5t70.5 52.5t68.5 68.5t32.5 87.5q-35 61 -80.5 121t-97 115t-106.5 104.5t-109 88.5q20 20 58.5 63t80 94t82.5 102.5t68 88.5h21 q63 18 98 80.5t51 164.5q-23 4 -47.5 11.5t-49 13.5t-44 12t-31.5 11l-236 -222q-51 -49 -82.5 -86t-58 -70.5t-55.5 -67.5t-74 -75q-25 -25 -37 -47t-12 -51q0 -35 34 -76t80 -82t94 -76.5t77 -58.5q35 -27 67.5 -50.5t59.5 -45.5l12 -78q-25 -49 -63.5 -87t-86 -69.5 t-99.5 -59.5t-103 -52q-82 -57 -121 -117.5t-39 -120.5v-35z" />
<glyph unicode="T" horiz-adv-x="1378" d="M43 1473q0 -59 24.5 -74t55.5 -15h22q29 -10 49.5 1.5t24.5 11.5q2 0 5 -1t7 -1q43 -6 70 -8.5t40 -3.5t17 0l4 1h52q84 0 143 -16q-4 -14 -8 -31.5t-8 -33.5q-4 -10 -5 -22.5t-4 -16.5q49 -111 50 -244q0 -33 -4.5 -89.5t-9.5 -115.5t-9 -110.5t-6 -71.5q4 -29 6 -65 t2 -79q0 -29 -1 -66.5t-3 -77.5t-3 -78t-1 -66v-49q0 -70 11 -111t71 -41l43 6q10 2 19.5 3t13.5 1t11 -1t21 -5q53 76 65.5 171t16.5 206q10 31 15.5 62.5t5.5 66.5q0 23 -5 68t-12 92v-2q-6 45 -12 87t-6 58q0 53 14.5 97t14.5 100q0 20 -5.5 58t-10.5 78t-10 75.5 t-5 50.5q0 57 22 102l130 10q45 16 110 17q16 0 39 -2t47.5 -3t47 -3t40.5 -2q29 0 51.5 2t44.5 10l15 18q0 12 2 15q4 18 10 46.5t6 41.5q0 31 -14 48t-37 25.5t-52.5 10.5t-60.5 2q-20 0 -68 -4t-103.5 -10.5t-108.5 -10.5t-82 -4h-17q-54 15 -130 15h-10h-35 q-73 0 -171 3q-111 4 -191.5 12.5t-133.5 18.5h2q-16 4 -37 6t-31 4q-51 -111 -51 -167z" />
<glyph unicode="U" horiz-adv-x="1214" d="M49 1096q39 -98 39 -250q0 -18 -1 -59.5t-3 -87.5t-3 -91t-1 -71q0 -113 24.5 -211.5t84 -170t160 -113.5t251.5 -42q76 0 134.5 7t104.5 29.5t82.5 62.5t71.5 106q18 37 32.5 55.5t26 38.5t20.5 53t22 99q6 39 15 81.5t17.5 87t13.5 84.5q4 29 4 55q0 10 -1 19v53 q0 4 -1 10.5t-1 12.5q0 57 14 157.5t30.5 211t31 214t14.5 167.5q-53 18 -106.5 26t-106.5 8h-27q-45 -6 -71.5 -12t-40 -14t-17.5 -20.5t-4 -30.5q0 -16 2 -25q-4 -10 -4 -31q0 -16 12.5 -40.5t40.5 -55.5q16 -23 17 -35q0 -37 -4 -79t-4 -83q0 -31 2 -94t3 -133t3 -133.5 t2 -93.5q0 -59 -4 -126t-11 -138q-55 -98 -86.5 -146.5t-61.5 -69t-70 -24.5t-115 -12q-80 4 -134.5 26.5t-78.5 63.5q-12 59 -23.5 150t-21 194.5t-15.5 210t-12 198t-10 157t-6 87.5v12q0 12 4 37t9 51.5t9 52t4 38.5q0 18 -4 36.5t-16 47.5l-197 -45 q-20 -150 -29.5 -258.5t-9.5 -180.5v-24z" />
<glyph unicode="V" horiz-adv-x="1267" d="M18 1585q20 -45 23.5 -94t9.5 -91t28.5 -72t86.5 -34q197 -459 332 -1058q18 -35 20 -73t10.5 -72t34 -60.5t92.5 -34.5q51 125 113.5 285.5t129.5 339t135.5 362.5t131.5 354l2 6q2 4 18.5 25t36 47.5t37 55t21.5 49.5q-53 96 -131 96h-16q-57 -23 -92 -57.5 t-57.5 -81.5t-40 -107.5t-38.5 -132.5h2q-10 -27 -17 -57.5t-17.5 -61.5t-22.5 -55.5t-31 -38.5q-12 -47 -29.5 -85t-35 -78t-32.5 -89t-24 -121v2q-18 -80 -51 -129q-61 123 -93 217.5t-55.5 183.5t-49 182t-72.5 212q-33 84 -63.5 162t-30.5 135q-31 0 -40.5 -3t-11.5 -7 q-23 23 -54.5 27.5t-53.5 4.5q-63 0 -105 -53z" />
<glyph unicode="W" horiz-adv-x="1830" d="M31 1526q14 -115 51 -209t84 -197.5t98 -233.5t98 -317q47 -193 91.5 -337t91.5 -248q104 215 190 396t146 304q14 -31 32.5 -75t36 -86t29.5 -73.5t14 -35.5q12 -41 16.5 -63.5t4.5 -45.5q0 -20 -2 -46t-2 -71q0 -59 7 -96t24.5 -57.5t45 -27.5t70.5 -7 q45 78 72.5 144.5t52.5 134t50.5 141.5t68.5 166q29 68 46 123t23 96q141 158 211 399q113 94 113 201q0 14 -4 31l39 57q-29 47 -57.5 63.5t-53.5 16.5q-35 0 -56.5 -17.5t-23.5 -19.5l-102 -127l-78 -137q-23 -41 -48.5 -107.5t-48 -136.5t-39.5 -128t-26 -79 q-29 -37 -49 -81t-36.5 -87t-32 -83t-35.5 -70q-8 45 -25.5 114.5t-36 145.5t-36 148.5t-25.5 123.5q12 16 24.5 46t24.5 61.5t23.5 59.5t23.5 42q33 39 57.5 80t47 82t46 81t56.5 79q-53 0 -76.5 2t-40 5t-34 5t-54.5 2q-31 0 -62.5 -37t-60 -88t-52 -106.5t-38.5 -92.5 q-23 39 -42 91.5t-39.5 106.5t-44 104.5t-52.5 86.5q-59 -12 -118.5 -34.5t-119.5 -61.5q14 -51 52.5 -119.5t83.5 -135t87 -123t64 -81.5l-20 -6q24 -45 24 -90q0 -33 -17.5 -82t-39 -100t-41.5 -97t-27 -71q-20 -41 -33.5 -70.5t-23.5 -50.5q-18 49 -37.5 103.5t-36 107.5 t-30 101.5t-19.5 85.5l-24 131q-10 53 -30 100t-40.5 89t-34.5 82t-16 79q-2 51 -8.5 86t-19.5 57.5t-32.5 37.5t-50.5 28q-29 -6 -54.5 -11.5t-49 -13.5t-45 -20.5t-39.5 -36.5zM860 725q0 2 4 -6z" />
<glyph unicode="X" horiz-adv-x="1124" d="M16 1522q20 -125 136 -258q35 -6 61.5 -35t44.5 -61.5t30.5 -61.5t16.5 -35q4 -18 33 -56t62.5 -82t60 -88t26.5 -73q0 -12 -22.5 -53t-52 -91t-60 -101.5t-47.5 -84.5l-35 -73q0 -16 -14 -33t-33.5 -32t-39 -26.5t-29.5 -19.5q0 -51 -18.5 -117.5t-18.5 -130.5 q45 0 85 -7t72 -7q78 0 111 74v12q0 4 8 15.5t18.5 23.5t18.5 26.5t8 24.5q0 18 -12 35l168 311q35 -55 81 -134t92 -159t88 -150.5t71 -109.5q90 0 142 2t87 15q-162 221 -273.5 415.5t-174.5 372.5q84 172 151.5 323.5t124.5 290.5q57 25 90 101h-6q4 14 8 31.5t8 39.5 l-32 46l-181 2q-33 -31 -57.5 -79t-48 -100.5t-50 -102.5t-63.5 -85q43 -31 43 -45q0 -6 -11 -34t-26.5 -62.5t-33 -72.5t-31.5 -65q-29 53 -51.5 106.5t-44 103t-43 92.5t-47.5 73q-43 51 -65 93t-38 72t-34.5 46.5t-55.5 16.5q-41 0 -93 -19.5t-104 -19.5z" />
<glyph unicode="Y" horiz-adv-x="1179" d="M29 1479q51 -27 87 -49.5t68.5 -57.5t68.5 -88t91 -141q27 -45 56.5 -79t56 -61.5t48 -51t32.5 -48.5l4 -289q2 -96 10 -192t18 -201q-47 -58 -47 -160q0 -59 21.5 -82.5t81.5 -23.5h14q12 0 23 2h32q14 0 23.5 -1t19.5 -5q96 4 97 69q0 8 -1.5 10.5t-3.5 6.5v6 q-67 266 -67 672v12l-2 8v66t-2 63q45 74 87 158t81 161t73.5 136t63.5 82h8q35 0 54.5 11t29.5 32.5t14.5 52.5t8.5 72v-2q0 10 2 29.5t4 29.5q-63 6 -101.5 8t-42.5 2q-86 0 -133 -34l-141 -291v2q-35 -66 -66.5 -125.5t-60.5 -108.5q-6 14 -7 19.5t-5 15.5t-14.5 31.5 t-37.5 64.5q-25 43 -59.5 101.5t-76.5 118t-88 114.5t-93 92q-23 -6 -35 -6q-27 0 -63.5 5t-44.5 5q-16 0 -32.5 -4t-45.5 -16v-25q0 -10 4 -18v2q2 -8 2 -14q0 -8 -4 -30t-10 -56z" />
<glyph unicode="Z" horiz-adv-x="1406" d="M35 72l98 -72q4 0 28.5 1t61.5 7t62 17q43 -4 93 -7.5t109 -3.5q39 0 114 4.5t154 9.5t149.5 9t101.5 4q55 -23 116 -23q14 0 41 3.5t57.5 7.5t59.5 7t49 3h39q6 29 13.5 63.5t13.5 68.5t11 61.5t7 43.5l-149 5q-182 -49 -402 -50q-20 0 -127.5 5.5t-308.5 17.5 q29 35 59.5 83t53.5 114h2q78 139 210 341.5t322 477.5q63 35 108.5 116.5t102.5 196.5q-207 45 -326 45h-34t-31 -2l-43 -20h-41t-92 1t-122 3t-132.5 6t-122.5 9t-92 13q-23 -8 -38 -21t-44 -18h-16q-10 0 -17.5 1.5t-13.5 1.5h-17q-33 0 -38 -13.5t-5 -38.5v-6 q0 -12 4.5 -33.5t9.5 -43t9 -40t4 -22.5q0 -12 -14 -39l41 -41l82 6q92 10 175 22.5t136 53.5q31 10 55 10q25 0 40 -5t30.5 -10t34 -10.5t45.5 -5.5q6 0 21.5 1.5t33.5 1.5t35.5 1t29.5 1q14 0 35 -5l-20 -59q-29 -27 -66 -79t-75.5 -109.5t-76.5 -107.5t-67 -75 q-33 -45 -80 -120.5t-99 -164.5t-106.5 -184.5t-102.5 -178.5t-85 -146.5t-53 -89.5z" />
<glyph unicode="[" horiz-adv-x="643" d="M39 983q10 -37 28.5 -65.5t18.5 -47.5q0 -37 2 -111.5t5 -154.5t5 -151.5t2 -104.5q0 -82 -6 -159.5t-22 -155.5q139 -20 216 -29.5t99 -9.5q86 0 170 18l16 21l19 256q-57 -27 -111.5 -40t-113.5 -13h-31q6 18 6 47q0 78 -53 196q0 12 7 52t15 89.5t15.5 98.5t7.5 84 q0 16 -1 29.5t-3 27.5l-33 180v-2q-2 10 -2 31v47q0 31 1 57.5t2 60.5t3 79t4 110l180 -22l80 94v145l-487 -47v-61q0 -10 1 -21.5t1 -21.5q0 -61 -3 -104.5t-9.5 -93.5t-13.5 -120.5t-15 -187.5z" />
<glyph unicode="\" horiz-adv-x="765" d="M-16 1698q4 -145 46 -284.5t97 -272.5l-4 -6q14 -37 45 -97.5t82 -154.5q33 -63 57.5 -116.5t41 -103t23.5 -95.5t7 -95v-31l172 -342q-6 -6 -6 -26q2 -10 14 -24.5t29.5 -28t38 -23.5t43.5 -10q-6 0 12 1t40.5 9t43 25.5t20.5 52.5q0 14 -10 38.5t-23.5 52.5t-25.5 53.5 t-16 43.5q-6 10 -39 87t-81 191.5t-104.5 253t-109.5 272.5t-96 251t-64 188q2 4 2 11q-4 16 -28.5 46.5t-57.5 61.5t-65.5 53.5t-49.5 22.5z" />
<glyph unicode="]" horiz-adv-x="643" d="M35 1317q106 53 225 53h29q-4 -10 -4 -20v-25q0 -39 11 -89t40 -110q0 -12 -7 -51t-15.5 -88t-15.5 -99t-7 -85q0 -16 1 -28.5t3 -26.5l33 -183v2q2 -10 2 -30v-48q0 -29 -1 -57.5t-2 -64t-3 -79.5t-5 -104l-180 21l-80 -92v-148l488 49v60q0 12 -1 23.5t-1 21.5 q0 61 3 105t8 95.5t13.5 121t18.5 182.5q-25 53 -37 129.5t-18.5 164t-7.5 176.5t-1 167q0 80 7.5 158.5t21.5 156.5q-137 20 -215 28.5t-100 8.5q-43 0 -85 -4t-83 -13l-19 -20z" />
<glyph unicode="^" horiz-adv-x="980" d="M10 698q0 -59 72 -59l72 14q31 35 59.5 79t51 85t36.5 75t14 46l11 59q0 27 8 60t49 92q6 29 11 50.5t9 41.5q47 -78 104.5 -220t131.5 -335l4 -8q41 -41 88 -41q12 0 30.5 13.5t47.5 13.5h20l27 32q2 0 4 2h-6q-4 2 -5 3l-1 1v7l-6 6q-47 98 -89 200.5t-87 202.5 q-135 297 -277 393q-41 -12 -63.5 -36.5t-36 -50t-21.5 -46t-16 -24.5q-8 -16 -22.5 -43t-28.5 -49h2q-23 -35 -39.5 -67t-16.5 -62q-25 -41 -59.5 -143.5t-75.5 -270.5h2q-4 -10 -4 -21z" />
<glyph unicode="_" horiz-adv-x="1202" d="M-8 84q0 -33 39 -51l10 -4q117 -18 208 -28.5t157 -10.5q20 0 30 4l230 20q14 0 33.5 1t48.5 1q47 0 95 -1t88 -2t66.5 -2t32.5 -1q70 25 70 72q0 41 -58 86h-14q-2 0 -6 -1t-15.5 -2t-37.5 -3h-21q-18 -2 -33 -2h-30q-49 23 -144 22h-30q-12 0 -27 -2l-258 -16h2 q-6 0 -25.5 1t-42 2t-44 2t-33.5 1q-33 0 -61.5 -1t-53.5 -1h-125q-51 -59 -51 -84z" />
<glyph unicode="`" horiz-adv-x="542" d="M2 1331q0 -20 10.5 -37.5t26.5 -31t35.5 -20.5t36.5 -7h14l197 -96l71 96l-241 213q-76 -16 -113 -43t-37 -74z" />
<glyph unicode="a" d="M98 328l29 -74q4 -18 23.5 -58t47 -84t59.5 -83t60 -52h-2q6 -4 14.5 -9t10.5 -5v2l-2 2q37 -25 76 -47t73 -22q10 0 18.5 2t18.5 6v2q18 6 25.5 18.5t15.5 26.5t19.5 28.5t36.5 26.5q63 41 127.5 84t114.5 89t82 97.5t32 108.5q0 43 -6 80t-22.5 82t-46.5 102.5 t-77 136.5l-2 -2q-18 51 -34.5 85t-31 57.5t-26.5 39t-22 27.5l-21 21q-8 23 -32.5 31t-57.5 8h-20q-6 0 -12.5 -1t-12.5 -1h-35q-33 0 -46 5t-21.5 12t-18.5 12t-35 5t-49 -4t-43 -4h-20q-88 0 -156 -86q4 -84 34 -108.5t83 -24.5q51 0 98 9.5t92 9.5q31 0 54.5 -5.5 t44 -20.5t38 -41t37.5 -64q-12 6 -30 8q-8 0 -11 2h2q-6 2 -13 -4t-14 -14.5t-15.5 -15.5t-16.5 -7q-29 -10 -49 -10t-37 -29q-35 -55 -91 -91t-108.5 -70t-90.5 -76t-38 -113zM344 330q16 35 49 71.5t75 68.5t93 55.5t105 31.5q10 12 16 13t10 18q20 -39 31.5 -73t21.5 -75 l9 -30q8 -12 9 -17.5t0 -8.5t-4 -5t-1 -6q-29 -37 -65 -72t-71.5 -60.5t-69.5 -42t-56 -16.5q-10 0 -22.5 6.5t-25 13.5t-21.5 14l-9 7h2q-18 12 -31.5 21.5t-22 20.5t-13.5 26.5t-9 38.5z" />
<glyph unicode="b" horiz-adv-x="923" d="M55 1548l11 -59q4 -18 6 -34.5t2 -27.5v-14q10 -23 21 -72t11 -88l5 -16q2 -8 7 -20.5t15 -22.5q-2 -63 -2 -125v-125v-264q0 -147 -14.5 -277.5t-36.5 -244.5l4 -199q43 0 88 18.5t88 40t81 40t69 20.5q29 8 45 35.5t16 52.5v2q12 -4 23 -8q215 117 438 366v27 q-92 109 -233.5 196t-338.5 158q6 25 7 60q0 29 -8.5 74.5t-17.5 94t-17.5 92.5t-8.5 66q0 35 9.5 52.5t19.5 28.5t19.5 21.5t9.5 30.5q0 25 -13 56h2q-4 16 -8 28.5t-4 22.5v49q-2 6 -5 16.5t-17 34.5q-25 -4 -38.5 -10t-19.5 -11t-11 -8t-13 -3l-8 2q-7 2 -15 6h2 q-35 12 -80 15t-63 3q-16 -23 -21.5 -42t-5.5 -38zM322 276v15q0 20 6 65t12 94.5t12 95.5t6 68q0 16 -2 35t-6 37q84 -20 160 -56t149 -89q-47 -43 -78.5 -71t-48.5 -44l-2 -2q-6 -6 -10 -8l-6 -6q-51 -47 -95 -80t-79 -49z" />
<glyph unicode="c" horiz-adv-x="858" d="M23 494q84 -92 166.5 -180.5t146.5 -139.5l2 6l16 -24q6 -2 11.5 -4t14.5 -7.5t24.5 -15.5t44.5 -29l120 -71q86 -29 123 -60v2l111 -100q65 25 65 88q0 8 -2 24.5t-3 35t-3 35t-2 22.5l-33 -19q-6 4 -18 18.5t-27 28.5h29q-8 4 -24.5 15.5t-32.5 21.5l-2 2 q-57 31 -118 68t-108 82q-8 10 -22.5 22.5t-28.5 24.5t-27.5 21.5t-17.5 11.5l10 -2q-47 35 -85 66.5t-38 54.5v8q8 14 27.5 34.5t61.5 54.5t113 86t181 130q47 23 86 65.5t56 83.5q-4 45 -34 72t-71 27q-14 0 -45 -15v2q-100 -51 -225 -163q-37 -20 -80 -48t-72 -57 q-4 -16 -30.5 -41.5t-55 -49.5t-53.5 -41l-24 -17q-6 -8 -13.5 -15.5l-17.5 -17.5zM344 199l2 6v-6h-2zM750 139v2h2v-2h-2z" />
<glyph unicode="d" horiz-adv-x="907" d="M39 526q111 -123 220.5 -215t219.5 -151q4 4 8 4t9 2q0 -33 14 -51.5t39.5 -30.5t61.5 -24.5t81 -32.5q47 -23 94.5 -45.5t100.5 -22.5l4 199q-29 166 -40 362.5t-11 423.5v252q10 12 18 33.5t14 36.5h-8q0 37 11.5 83t21.5 64v14q0 10 2 26.5t6 35.5l10 59q0 18 -5 38 t-21 42h-25q-16 0 -36.5 -1t-43 -5t-39.5 -12q-8 -4 -13 -6t-9 -2q-10 0 -24.5 13t-53.5 19q-16 -27 -19 -36l-5 -15v-49q0 -23 -11.5 -51.5t-11.5 -55.5q0 -18 9 -30.5t20.5 -24.5t20.5 -29.5t9 -48.5q0 -23 -8 -66.5t-18 -93t-18.5 -95.5t-8.5 -72v-33q0 -14 4 -27 q-197 -72 -339 -160t-230 -192v-29zM309 543q76 53 151 89t158 56q-4 -20 -5 -39t-1 -35q0 -25 6.5 -70.5t13.5 -95t13 -93.5t6 -64v-15l-18 3q-78 43 -176 131v-2q-18 18 -32.5 31.5t-31 27.5t-37 31.5t-47.5 44.5z" />
<glyph unicode="e" horiz-adv-x="921" d="M43 567q0 -45 6 -83t22.5 -83t45 -100t76.5 -135q12 -51 39.5 -99.5t58.5 -85t57.5 -59t36.5 -22.5q20 0 40.5 -13.5t31.5 -13.5q8 0 40.5 -18.5t75.5 -22.5h17q45 0 85 21.5t75 68.5q-14 41 -35 58.5t-46.5 24.5t-55 12.5t-62.5 21.5t-66.5 50t-66.5 101q-4 4 -8 17 q29 -10 60.5 -14.5t41.5 -4.5q20 6 32.5 21.5t20.5 33t16.5 33t20.5 23.5q74 61 133.5 98t101.5 68t64.5 65.5t22.5 92.5q0 8 -5.5 19t-10.5 22.5t-7 18.5t2 9q-14 29 -45 79t-82 130h2q-18 33 -51 61.5t-68.5 49t-69.5 33t-54 12.5q-16 0 -29 -6v2q-23 -4 -35 -21t-18 -35 q-4 -8 -8.5 -15t-12.5 -17q-66 -41 -135.5 -86t-125.5 -94.5t-92 -103.5t-36 -114zM262 580q8 8 34 33.5t56.5 54t57 53t39.5 33.5h-3q33 16 80 16h17q35 -25 57.5 -40t36.5 -29.5t22.5 -33t14.5 -49.5q-35 -72 -97.5 -132t-166.5 -76q-6 -6 -19.5 -11.5t-27 -9.5t-24.5 -10 t-11 -14q-18 37 -31 71.5t-21 75.5q2 29 -4 43t-10 25z" />
<glyph unicode="f" horiz-adv-x="716" d="M43 35l18 -27q41 -4 74 -4h58q29 0 45 2t30 19q0 66 -6 104.5t-6 79.5v14q0 18 16.5 44t16.5 67v61q0 4 1 10.5t1 12.5q0 18 -12.5 32.5t-26.5 18.5q0 12 12 24.5t12 41.5q0 10 -5 34.5t-5 34.5q0 -2 2 6t3 19.5t3 23t2 17.5l9 176q10 0 23.5 -1t29.5 -1h27q31 -2 59 -2 h51h37q47 2 85 9t60 17q-10 35 -10 41q0 2 1 14.5t3 27t4 27.5t2 17q0 59 -49 62q-8 0 -27.5 -4t-42 -9.5t-42 -9.5t-25.5 -4q-8 0 -20.5 -3t-40.5 -3q-12 0 -38 12.5t-55 7.5q16 94 24.5 158t35 101.5t82 54t168.5 16.5h53q61 80 61 139q0 104 -133 140h-14 q-23 0 -69 -15.5t-94 -35t-84 -34.5l-36 -16l4 -2q-10 4 -16 6.5t-8 2.5h-2q-41 0 -77 -47.5t-61.5 -110t-42 -126t-20.5 -95.5q0 -68 -12.5 -133.5t-12.5 -133.5q0 -23 8.5 -55.5t8.5 -81.5q0 -29 -9.5 -68.5t-9.5 -84.5v-121q0 -59 -2 -113q0 -45 5.5 -58.5t5.5 -27.5 q0 -25 -4.5 -64.5t-8.5 -80.5t-8 -75t-6 -48z" />
<glyph unicode="g" horiz-adv-x="952" d="M14 -626.5q4 -12.5 11 -22.5l4 -4q4 -15 8 -15q16 -25 50 -81t75 -134q20 -43 56 -72.5t73 -49t69.5 -28.5t49.5 -9q12 0 28 6v-2q23 6 32 19t17.5 29.5t20.5 34t43 33.5q68 45 131 88t111.5 89.5t78 95.5t29.5 108v54q0 27 -4 51t-19.5 63t-46 96.5t-81.5 147.5 q-41 109 -73 153t-52 66q76 55 135 97t101 82t63.5 84t21.5 102v18q0 37 -2 63.5t-16.5 63.5t-44 96.5t-84.5 163.5q-29 92 -60.5 155.5t-65.5 102.5t-69 56.5t-67 17.5q-37 0 -68 -17.5t-54.5 -45t-36.5 -61.5t-13 -67q0 -57 38.5 -100t131.5 -43h26q37 -68 60.5 -115 t41 -86t28.5 -73.5t22 -73.5q0 -29 4 -44t8 -26l-2 -4q-10 -18 -37 -37.5t-65 -58.5q-29 -31 -49.5 -50.5t-39 -28.5t-35 -12t-36.5 -3h-19q-37 31 -59.5 46t-37.5 27.5t-22.5 27.5t-13.5 50q37 72 129 133h-2q12 12 41 13.5t58.5 6.5t52 22.5t22.5 60.5q0 29 -11 56.5 t-28.5 49t-38 35.5t-38.5 17q-20 0 -32.5 4t-31.5 4q-31 -12 -51.5 -34t-37.5 -45.5t-34.5 -45t-44.5 -33.5q-61 -39 -99 -67.5t-60.5 -55t-31 -55.5t-8.5 -68q-4 -12 -7 -23.5t-7 -23.5q20 -53 49 -92t60.5 -72.5t63.5 -66.5t57 -74q10 -4 20 -16.5t23.5 -25.5t34 -25.5 t51.5 -18.5v-2q41 -6 58 -21.5t30 -37.5l16 -25q41 -76 67.5 -127t44 -93t29 -80t21.5 -85v-12q4 -20 6 -29h-2v-2v-2q-10 -16 -36 -36.5t-64 -61.5q-31 -33 -52.5 -51.5t-39 -27.5t-33 -11.5t-35.5 -2.5q-27 0 -52.5 14.5t-46 36t-35 49t-18.5 54.5q16 35 49 66.5t78 62.5 l-2 -2q23 12 53.5 19.5t58 17.5t46 28.5t18.5 53.5q0 16 -6 30.5t-16 32.5q-10 14 -15.5 26.5t-9.5 20.5v-2q-12 25 -26.5 38.5t-59.5 13.5h-2l2 4q0 2 -10 2h-43q-25 -10 -38 -29.5t-28.5 -43.5t-38 -49.5t-63.5 -49.5q-57 -35 -94 -62.5t-58.5 -55.5t-31 -57.5t-9.5 -66.5 q-10 -16 -6 -28.5zM29 -653q10 -15 8 -15q-2 4 -4 7.5t-4 7.5z" />
<glyph unicode="h" horiz-adv-x="978" d="M55 1550l23 -233q16 -180 28.5 -341t12.5 -282q0 -279 -51 -508q-2 -14 -3.5 -29.5t-1.5 -31.5q0 -31 5.5 -55.5t19.5 -42t41 -26.5t68 -9h43t41 13t29.5 48t11.5 105q0 45 -2.5 94t-3.5 92t-3 76t-2 45q0 47 2 90t9 84q16 6 39.5 15.5t49 20.5t48 21.5t39.5 20.5l-9 14 q4 0 6.5 1t4.5 1h2q10 4 22 12h-2q98 35 168 41l12 -108q12 -119 18.5 -224.5t8.5 -183.5q0 -49 -3 -104t-11 -115q25 -27 50.5 -43t59.5 -22l49 -6q6 0 30 -4.5t40 -8.5q20 43 21 84q0 18 -4.5 41t-9.5 45.5t-9 40t-4 25.5q0 10 4 30q-23 100 -35 224.5t-12 277.5 q0 12 15.5 48t15.5 67q0 6 -15.5 29.5t-40 52.5t-55.5 54.5t-61 31.5q2 -2 2 -4q0 -8 -13 -23l-24 31q-10 -6 -30.5 -13.5t-45.5 -14.5t-50.5 -15t-43.5 -14v14l-55 -18q-47 -25 -97.5 -35.5t-81.5 -10.5q-14 123 -19 227.5t-15 180.5q6 10 22 35.5t16 46.5v2q4 0 7.5 1 t5.5 1q-6 16 -10.5 31.5t-4.5 21.5t3.5 30t3.5 46q0 41 -18.5 66.5t-72.5 35.5q-45 -12 -89 -32.5t-78 -38.5zM750 1020l1 -1t3 -1h-2q0 2 -2 2z" />
<glyph unicode="i" horiz-adv-x="360" d="M61 999q0 -14 7 -26q29 -135 42 -304t15 -374l2 -203q0 -18 3 -39.5t11.5 -40t23.5 -32t40 -13.5q59 0 112 90l-2 312q0 104 -13 207.5t-13 218.5q41 63 41 163q0 57 -19.5 82t-68.5 25q-10 0 -31 -2t-31 -2q-20 0 -35 8q-84 -4 -84 -70zM88 1257q0 -45 15.5 -59 t50.5 -14h30q23 0 39 -10q4 2 15 2q-4 -4 -5 -7h25q49 0 49 86v19q0 74 -11 102.5t-24 34.5v4l-67 10q-51 31 -64 31q-51 0 -51 -63v-37q-2 -10 -2 -23v-24l2 -13q-2 -6 -2 -16v-23z" />
<glyph unicode="j" horiz-adv-x="446" d="M-248 -297q27 -74 58.5 -106.5t70.5 -52t84 -40t96 -71.5l78 20q16 -8 21 -8q18 0 26 16l2 -2q2 -4 20.5 -9t33.5 -34h32q57 0 83 28t28 93q6 35 11 51.5t9.5 25.5t6.5 14t2 18q0 14 -7.5 28.5t-16.5 32t-16 41t-7 55.5q0 72 6 165t12 177v2q35 41 35 107q0 37 -11.5 76 t-37.5 78l-21 229q0 4 1 8t1 8q0 6 -1 16.5t-1 20.5v64q0 33 8.5 56.5t18.5 41.5t18 34.5t8 39.5q0 66 -49 103.5t-135 37.5q-59 0 -98 -33t-39 -102q0 -31 7 -58.5t28 -54.5v-33q0 -57 2 -142t6 -184.5t8 -207t8 -206.5t6.5 -184t2.5 -143q-39 -47 -56 -47 q-10 0 -21.5 12.5t-26.5 29t-35.5 33.5t-49.5 28l-131 45q-16 -10 -29.5 -25.5t-22.5 -31t-14 -26.5l-6 -11q-6 -12 -6 -23zM100 1272q0 -47 16.5 -62.5t57.5 -15.5h37q23 0 41 -12q10 2 13 3t5 1v-2q0 -2 2 -2h19q57 0 57 88v16q0 78 -17.5 105.5t-29.5 35.5l-72 13 q-59 33 -71 33q-27 0 -41.5 -18.5t-14.5 -49.5v-16q0 -6 2 -17q-4 -12 -4 -26v-23v-51z" />
<glyph unicode="k" horiz-adv-x="1007" d="M57 70q0 -31 23.5 -49.5t73.5 -20.5q14 8 41 8q10 0 34.5 -2t34.5 -2q57 0 80 24.5t23 82.5q0 100 -52 163q4 20 5.5 41t5.5 43q35 -37 69.5 -71.5t63.5 -48.5l8 -13q8 -2 13 -4t14.5 -7t24.5 -15.5t44 -28.5l123 -76q86 -29 123 -55l109 -102q70 25 69 90q0 -2 -2 16 t-3 40.5t-3 40t-2 13.5q-20 12 -29.5 21.5t-18.5 16.5t-21.5 16.5t-39.5 21.5l-2 -6q-23 23 -52.5 42t-60 37.5t-59 36t-49.5 35.5q0 8 -3 15.5t-13.5 15.5t-28.5 20.5t-51 34.5h2q-47 33 -84 67t-37 54v6q8 18 26.5 36t61.5 50.5t113.5 87t183.5 144.5q49 33 86 66.5 t55 80.5q-4 45 -32.5 73t-69.5 28q-18 0 -47 -15v2q-51 -27 -107.5 -67.5t-119.5 -100.5q-41 -20 -83 -47.5t-69 -58.5q-8 -18 -29.5 -44t-50.5 -48v65q0 100 -4 194.5t-14 186.5l10 350q-61 86 -131 86q-31 0 -48.5 -11t-27.5 -28.5t-13 -38t-3 -38.5q0 -10 1 -19.5 t1 -13.5v-82q0 -63 2 -157.5t3 -189.5t3 -175t2 -115q0 -399 -66 -678q-6 -10 -6 -24z" />
<glyph unicode="l" horiz-adv-x="315" d="M35 70q0 -66 84 -70q14 8 35 8q10 0 30.5 -2t30.5 -2q49 0 68.5 24.5t19.5 82.5q0 96 -41 159q12 154 19.5 292t7.5 261q0 98 -3 192.5t-14 186.5l9 348q-51 88 -113 88q-27 0 -42 -12t-23.5 -30.5t-11.5 -40t-3 -39.5v-109q0 -68 2 -163t3 -189t3 -172t2 -111 q0 -205 -14 -374t-43 -304q-6 -10 -6 -24z" />
<glyph unicode="m" horiz-adv-x="1660" d="M68 696q0 -43 2 -98t7 -114.5t11 -121t14 -118.5q4 -37 6.5 -58.5t2.5 -35.5q0 -61 -25 -113q61 -90 129 -90q31 0 53.5 21.5t36.5 56t21.5 82t7.5 98.5q0 74 -9.5 140.5t-13.5 125.5q-6 68 -6 120q-1 49 5 83q12 70 42.5 103.5t77.5 37.5t109 4q8 0 27.5 -2t39 -5 t35.5 -5t18 -2h5q23 -16 38 -34.5t25 -58.5t14 -106.5t4 -177.5v-410q18 -6 30.5 -17t25 -22.5t26 -19.5t29.5 -8q51 0 121 78q2 12 2 26q0 16 2 29l6 59q0 12 1 21.5t1 17.5v23v33q0 16 -7 37.5t-13 43.5v-2q-14 33 -15 56h7q10 4 16 10t6 29v4q0 41 9 106.5t9 118.5v16 q-2 23 -6 34t-10 22q14 29 27.5 51t36.5 39h6l16 2t35.5 5t39 5t28.5 2q200 0 200 -351q0 -62 -11 -122.5t-11 -130.5q0 -51 10 -96t29.5 -80t46 -55.5t59.5 -20.5q68 0 129 90q-24 47 -24 108q0 32 14 120t14 208q0 63 -19.5 145.5t-53 158t-80.5 135t-103 82.5h2 q-43 23 -97 31t-112 8q-33 0 -73.5 -10.5t-82.5 -29t-83 -44t-74 -56.5q-41 20 -66.5 45t-55.5 46.5t-72 36t-115 14.5q-66 0 -124.5 -10.5t-113.5 -63.5v12q-74 68 -123 68q-43 0 -67.5 -38t-34.5 -92.5t-12 -117t-2 -111.5z" />
<glyph unicode="n" horiz-adv-x="1003" d="M63 678q0 -90 9.5 -214t25.5 -241q4 -35 6 -57.5t2 -34.5q0 -74 -22 -113q59 -90 123 -90q61 0 101 71t40 181q0 70 -11 138.5t-11 125.5q0 358 196 359q8 0 26.5 -2t38 -5t35 -5.5t17.5 -2.5h4q23 -18 38 -38.5t24.5 -60.5t13.5 -105.5t4 -173.5v-412q16 -4 24.5 -12.5 t18.5 -16.5v2q16 -16 31.5 -27.5t33.5 -11.5q12 0 32 6.5t38.5 22.5t32.5 42t18 67l6 55q2 23 3 37v55q0 35 -7.5 65.5t-7.5 53.5v-2h2l2 2q8 4 6 19.5t-2 37.5v2q0 43 9.5 107.5t9.5 120.5v14q-2 27 -7 40t-12.5 22.5t-14.5 18.5t-13 30q-20 49 -37 76.5t-34 43t-36.5 23.5 t-44.5 20q-49 117 -248 117q-61 0 -119.5 -9t-109.5 -61v11q-73 67 -120 67h-1q-41 0 -63.5 -37.5t-33.5 -93t-13.5 -117t-2.5 -110.5z" />
<glyph unicode="o" horiz-adv-x="1071" d="M49 440q0 -78 37 -159.5t103.5 -149.5t158.5 -112t203 -44q43 0 102.5 22.5t113.5 49.5t91 49l37 21h-2q72 25 95.5 102.5t39.5 190.5v-2q2 8 2 14q0 8 2 16l12 84q4 18 6.5 37t2.5 41v21q-4 51 -23.5 80.5t-42 51t-46 40t-38.5 49.5q-25 74 -81 116.5t-117.5 65.5 t-115.5 30t-75 7q-193 0 -328 -141h-2q-29 -35 -52 -91.5t-34 -128.5v2l-39 -180q-10 -41 -10 -82zM291 514q0 121 31.5 207t107.5 100q27 6 46.5 13.5t34.5 14.5t29.5 12t30.5 5q49 0 92.5 -22.5t75 -65.5t51 -106.5t19.5 -143.5q0 -166 -70.5 -260t-187.5 -94 q-16 0 -43 13.5t-55.5 29.5t-56 30.5t-46.5 18.5q-16 2 -27.5 15.5t-18.5 42t-10 74.5t-3 116z" />
<glyph unicode="p" horiz-adv-x="894" d="M49 -508q0 -16 5 -35.5t20 -42.5q10 0 32.5 1t47.5 1q27 0 50 1t38 1q23 0 47 -6l-2 2q12 -6 35 -6q14 23 17 32l5 15v53q0 16 5 37t9 37l-2 -2q4 10 6.5 19.5t2.5 13.5q0 20 -9.5 30.5t-19.5 21.5t-19.5 29.5t-9.5 53.5q0 23 8.5 67t17.5 93t17 94t8 72q0 33 -6 57 q197 72 338 161t236 195v29q-113 123 -221.5 214t-219.5 151q-8 -2 -13 -4.5l-9 -4.5v2q0 33 -12.5 50.5t-37 30t-61.5 24.5t-84 37q-47 23 -93 44t-99 21l-4 -198q23 -115 37 -245t14 -276v-264v-125q0 -61 2 -125q-10 -10 -14.5 -25.5t-8.5 -27.5l-16 -86q-6 -55 -20 -84 v-10q0 -4 -3.5 -19.5t-6.5 -36t-5 -39t-2 -28.5zM313 752v12l15 -2q68 -37 142.5 -100.5t180.5 -161.5q-74 -53 -149.5 -90t-157.5 -58q6 37 6 76q0 23 -6 68t-12 94t-12.5 94t-6.5 68z" />
<glyph unicode="q" horiz-adv-x="880" d="M12 485q88 -106 231.5 -194t338.5 -160q-4 -12 -4 -27v-30q0 -27 8 -73t18 -94t18.5 -92t8.5 -67q0 -29 -9.5 -47t-20.5 -31.5t-20.5 -26t-9.5 -30.5q0 -47 10.5 -64.5t10.5 -40.5v-53l5 -15t19 -32q23 0 43.5 5t36.5 5q12 0 36 -1t48 -1q27 0 48.5 -1t31.5 -1 q16 23 22.5 41.5t6.5 36.5q0 8 -3 24.5t-7.5 35t-7.5 36t-3 25.5v12q-8 16 -11 36t-7 46l-12 68h4q-6 16 -14.5 36.5t-16.5 34.5v252q0 217 11.5 419t39.5 366l-4 198q-45 0 -91 -18.5t-88 -40t-80 -39.5t-64 -20q-12 -2 -24.5 -11.5t-22 -21.5t-14.5 -26.5t-5 -26.5v-3 q-8 4 -16 7q-225 -121 -441 -365v-31zM285 498q43 43 77 73.5t50 46.5q6 6 10 9l10 8q51 47 94 76.5t78 50.5l21 2v-12q0 -23 -6.5 -67t-13.5 -93t-13 -94t-6 -70v-39q0 -18 4 -37q-82 20 -158 57t-147 89z" />
<glyph unicode="r" horiz-adv-x="710" d="M55 -29q0 -27 27 -55.5t70 -28.5q27 0 49 7.5t39.5 31t28 67.5t10.5 118q0 29 -1.5 82t-3.5 116.5t-5 128t-5 115.5t-3 82t-1 24q-4 33 -2 58.5t-12 30.5q25 2 48 11t41.5 20.5t33 20.5t22.5 13l250 -14q47 4 65.5 28.5t18.5 67.5q0 80 -74 121l-8 2h-39 q-135 0 -223 -20.5t-133 -20.5q-10 0 -56.5 -5t-105.5 -5q-10 -131 -15 -223.5t-5 -151.5q0 -47 2 -91t2 -104q0 -100 -3.5 -214.5t-11.5 -211.5z" />
<glyph unicode="s" horiz-adv-x="661" d="M45 6q25 -8 43 -10t35 -2q37 0 62.5 9t54.5 26h-2l10 9t25.5 18.5t34 17.5t34.5 8h2q23 8 43.5 24.5t54.5 63.5l7 4q8 20 42.5 47t71.5 58.5t66.5 67.5t32.5 75q-63 94 -145.5 178t-174.5 145q47 49 84 88t63 72h15q123 31 141 205q-47 10 -85 17.5t-73 19.5 q-59 -47 -133.5 -104.5t-140.5 -114t-111 -107.5t-45 -84q0 -29 34 -64.5t84 -73.5t108.5 -76t105.5 -68l12 -54q-25 -39 -43 -60.5t-38.5 -36.5t-49 -29.5t-71.5 -38.5q-76 -43 -116 -93.5t-38 -99.5v-37z" />
<glyph unicode="t" horiz-adv-x="897" d="M31 1126q29 -61 37 -105t14 -71.5t18.5 -41t46.5 -13.5q16 0 28.5 3t35.5 13h-4h2q0 2 2 2v-2h2q0 2 2 2l-4 -2l20 9q4 0 8.5 2t8.5 2h4q4 -4 13 -5t20 -1q8 12 15 21t15 19q0 -63 2 -110t2 -76q0 -205 -17 -374t-52 -304q-4 -8 -4 -24q0 -31 23.5 -49.5t74.5 -20.5 q14 8 39 8q10 0 33.5 -2t34.5 -2q59 0 80.5 24.5t21.5 82.5q0 98 -49 159q16 154 23.5 292t7.5 261q0 59 -2.5 120t-4.5 120q8 0 18.5 1t20.5 3l2 -8h19q31 0 58.5 11t52 24.5t45 27t36.5 19.5q55 8 82 19t27 63q0 27 -17 65h2q-14 63 -57 64q-10 0 -31 -13v2 q-25 -12 -34 -12l-11 2q-16 -4 -44.5 -12t-60.5 -17.5t-63.5 -18.5t-54.5 -17l10 284q-63 88 -131 88q-29 0 -47 -12t-27.5 -30.5t-12.5 -40t-3 -39.5q0 -8 1 -14.5t1 -10.5v-76v-98q0 -51 2 -111v-12q-8 0 -14 1t-14 5q-18 -12 -53 -23.5t-74 -22.5t-74 -18.5t-51 -9.5z " />
<glyph unicode="u" horiz-adv-x="946" d="M57 848q0 -39 5.5 -75t12.5 -77t12 -89t5 -111q0 -43 -6 -85t-6 -100q0 -74 44 -138t106.5 -110.5t133 -73t125.5 -26.5q39 0 82 5t84 17.5t76 36t60 60.5q31 45 57 100.5t45.5 113.5t31 115.5t11.5 108.5q0 123 -13.5 209t-13.5 115q0 63 25 112q-61 90 -125 91 q-33 0 -59.5 -21.5t-45 -56.5t-28.5 -80t-10 -94q0 -68 11 -128.5t11 -119.5q0 -356 -194 -357q-6 0 -22.5 2.5t-34 4.5l-35 4t-25.5 2h-4q-23 16 -39.5 37.5t-25.5 61.5t-13 106.5t-4 173.5v397q-16 4 -25.5 11t-19.5 16v-2q-14 14 -28.5 26t-33.5 12q-45 0 -118 -75v-29 q0 -14 -3 -27l-6 -59v-4z" />
<glyph unicode="v" horiz-adv-x="1013" d="M45 1065q25 -41 26 -88t6 -88t26.5 -71t89.5 -38q31 -70 50 -112.5t33.5 -76.5t23.5 -65.5t19.5 -74.5t23.5 -107.5t36 -163.5q14 -35 16 -72.5t11.5 -71.5t36 -59.5t89.5 -33.5q16 41 22.5 57t5.5 23v3l-1 1h8q14 0 43 57t65 145t77 195.5t77 210.5v-2q20 55 38 105 t34 91q6 14 23.5 37t36 48.5t34 51t19.5 44.5q-49 96 -129 96h-17q-166 -66 -174 -260q-29 -35 -46 -88t-34 -140q-4 -37 -14 -60t-23.5 -48t-27.5 -53.5t-27 -73.5q-12 63 -18 107.5t-17.5 87.5t-30 94t-55.5 127q-84 178 -96 299q-43 0 -75.5 10t-79.5 10q-29 0 -56.5 -12 t-48.5 -41z" />
<glyph unicode="w" horiz-adv-x="1402" d="M37 1065q23 -43 23.5 -89t7 -88t29 -72t89.5 -38q27 -63 45.5 -105t31.5 -74t23.5 -58.5t19.5 -60.5t20.5 -81t27.5 -118q8 -41 21.5 -89.5t19.5 -95.5q4 -27 9.5 -51.5t18.5 -46t38.5 -36.5t70.5 -21q18 41 25.5 59t7.5 23l6 2q12 0 22.5 8t25 39.5t38 94t62.5 169.5 q29 -86 56.5 -144.5t49 -95.5t35.5 -53l14 -16l5 -2q0 -4 7 -21.5t27 -60.5q59 8 88 40.5t42.5 76.5t18.5 94.5t19 93.5l-2 -2q14 35 20.5 63.5t10.5 52.5q14 74 25.5 117t25 83t36 87t60.5 131q66 8 95.5 46t33.5 135q2 61 23 106q-23 27 -50.5 39t-55.5 12q-37 0 -76 -10 t-84 -10q-6 -55 -37 -134t-64.5 -159t-61.5 -149.5t-28 -106.5v2q-2 -8 -7 -26.5t-9 -41t-9 -48t-7 -48.5q-16 45 -33 83t-31 58q2 6 4 11.5t2 11.5t-1 14t-7 27l-6 24v-2q-2 4 -4 11.5t-6 19.5l18 53q2 4 5 10.5t5 12.5l-2 -2q2 4 2 6t6 12v2q2 8 19.5 30t37 48.5t37 54 t21.5 46.5q-53 96 -133 96h-12q-45 -16 -61.5 -36t-22.5 -42.5t-11.5 -46t-25.5 -45.5q-25 33 -28 55.5t-6 39.5t-16.5 33.5t-58.5 35.5h-14q-82 0 -131 -97q4 -23 22.5 -51.5t38 -54t36 -46t16.5 -24.5q8 -33 19 -60.5t22 -56.5q-2 -31 -11.5 -52t-23 -44.5t-30.5 -55.5 t-34 -83q-16 66 -22 110t-15.5 84.5t-28 91t-57.5 128.5q-20 45 -36.5 88t-28.5 80h2q-23 63 -43.5 95t-44 45t-49.5 13h-56q-63 0 -106 -53zM813 520q0 6 2 8l4 -12z" />
<glyph unicode="x" horiz-adv-x="892" d="M25 987q10 -51 34.5 -97t65.5 -93q20 -4 36.5 -21.5t28 -38t18.5 -37t7 -18.5q4 -10 22.5 -34.5t40 -52.5t38 -55.5t16.5 -45.5q0 -23 -30 -58t-52 -78q-29 -66 -43 -89t-14 -33v-5q0 -10 -11 -18l-18 -12l2 2q-31 -18 -46.5 -46t-21.5 -57.5t-5 -58.5t1 -47q47 0 87 -4 t79 -4q57 0 80 57v8l18 21q17 20 17 37q0 12 -6 24l98 178q14 -29 39.5 -69.5t50.5 -83.5h2q35 -59 65.5 -110.5t47.5 -80.5h61q33 0 63.5 2t57.5 7.5t45 13.5q-109 141 -179.5 266t-111.5 236q53 109 96.5 206t77.5 183q29 8 43.5 34t20.5 89l-23 34h-188 q-23 -23 -38 -54.5t-30.5 -65t-35 -68.5t-48.5 -64q37 -18 37 -22q0 -6 -6 -21.5t-14 -34t-18.5 -39t-18.5 -34.5q-23 43 -42.5 91t-29.5 91q-53 61 -75.5 99t-34 59.5t-21.5 29t-39 7.5q-16 0 -41.5 -4t-53.5 -8.5t-54.5 -8.5t-46.5 -4z" />
<glyph unicode="y" horiz-adv-x="1189" d="M31 883q39 -20 72.5 -41t61.5 -46.5t52.5 -60.5t46.5 -84q39 -82 86 -160.5t62 -146.5q6 -37 23.5 -64.5t34.5 -51t30.5 -46t13.5 -49.5v-14q-35 -72 -47 -116t-25.5 -80t-40 -73.5t-88.5 -95.5q-151 -138 -151 -252q0 -22 4 -43.5t12 -50.5l230 -4q66 160 158.5 368 t195.5 418l119 242q8 12 25.5 63.5t43 113t57 122t68.5 94.5h10q43 0 62.5 16.5t28 45t10.5 70.5t10 94q-63 6 -100 8t-41 2q-90 0 -135 -37l-142 -285q-18 -33 -40.5 -85t-47 -107t-47 -107.5t-37.5 -85.5q-10 16 -18 49t-23 101q-31 158 -105.5 298t-197.5 238 q-10 -4 -20 -4h-17l-86 6h2q-10 2 -24 2q-16 0 -31.5 -4t-44.5 -14q0 -35 3 -43t3 -14q0 -16 -16 -86z" />
<glyph unicode="z" horiz-adv-x="880" d="M43 41l98 -70l17 1q18 1 40.5 3t47 7.5t41.5 13.5q23 -8 40 -9t50 -3h102v12q0 2 4 2q23 -8 47.5 -13t49.5 -5q14 0 39.5 3t55.5 7t58.5 7t50.5 3h37q8 33 14.5 56.5t10.5 45t9 46t9 63.5l-143 8q-242 -47 -320 -47h-32q10 16 36.5 49t43.5 62l12 16q41 63 59.5 108.5 t34.5 67.5l-6 4q12 8 46 49t112 150q59 35 105 117t99 192q-104 23 -162.5 34t-113.5 11h-35q-16 0 -29 -2l-53 -22q-20 2 -59 5t-80 7h-10q-39 0 -63.5 -14.5t-26.5 -18.5v41h-13q-6 2 -14 4l-16 4q-12 0 -42 -3t-61 -13t-54.5 -28.5t-23.5 -47.5q0 -31 10.5 -50.5 t14.5 -25.5v-4q0 -16 -12 -41l43 -45q68 10 101.5 20.5t40.5 16.5l7 6q10 4 59 4h31q10 -2 19.5 -3t23.5 -1q8 0 24.5 1t35.5 1q18 0 33.5 1t23.5 1q14 0 35 -4l-23 -86l-14 -14q-23 -16 -44.5 -40t-53.5 -77l-2 2l-7 -14q-8 -4 -8 -10q0 -4 1 -10.5t0 -13.5t-11 -11 q-2 -12 -8 -29.5t-23 -40.5q-117 -141 -194.5 -258t-114.5 -178zM532 502l3 2q8 0 11 -1l3 -1h-17z" />
<glyph unicode="{" horiz-adv-x="651" d="M-14 817q0 -29 28 -86q51 -2 84 -12t53.5 -33.5t28.5 -64.5t8 -103v-51q0 -104 14.5 -189t47.5 -152t86 -118t133 -90q123 18 123 105q0 31 -23 69q-49 20 -83.5 56t-60.5 94.5t-44.5 142.5t-34.5 205q-23 145 -47 209q20 16 36.5 39.5t33 65.5t36 108.5t46.5 169.5 q-8 10 -13.5 22.5t-5.5 28.5q0 41 12.5 88t32 89t45 74t51.5 42l7 10q4 14 5 21.5t1 13.5q0 20 -8 43h6q-53 115 -160 133q-55 -43 -92 -110.5t-63.5 -154.5t-48 -191.5t-48.5 -223.5q-16 -68 -47 -98.5t-61.5 -50t-54 -39t-23.5 -62.5z" />
<glyph unicode="|" horiz-adv-x="417" d="M10 31q0 -49 15.5 -77t58.5 -28q27 0 58.5 10.5t58 28t44 42t17.5 52.5q-16 57 -26.5 106.5t-10.5 94.5q0 12 2 33.5t4 46.5t4.5 48.5t2.5 37.5q0 16 -1 30.5t-4 28.5q12 150 13 301q0 96 -8.5 243t-24.5 347v2q0 2 2 20.5t4 45.5t2 43q4 31 7 58.5t3 45.5v25 q-8 12 -11 38.5t-9 55.5t-17.5 55.5t-35.5 36.5q-23 -2 -47.5 -9t-47 -19.5t-37 -27.5t-14.5 -32q0 -16 6 -24q39 -193 39 -476q0 -41 -3 -116.5t-7 -169.5t-8 -197.5t-8 -200t-7.5 -177.5t-3.5 -128v-55q0 -10 -2 -30.5t-3 -42t-3 -40t-2 -26.5z" />
<glyph unicode="}" horiz-adv-x="651" d="M8 1585q0 -51 39 -91t117 -99q16 29 16 28q8 -2 13.5 -21.5t10.5 -65.5t10 -124.5t13 -197.5q27 -37 27 -53q0 -4 -2 -11v-18q0 -57 96 -111q-23 -27 -42.5 -63.5t-35.5 -89.5q-23 -63 -34 -124t-13 -120q-4 -145 -42 -245.5t-115 -155.5l-10 -3q-9 -4 -9 -10v-2 q0 -2 -4 -14h-8q0 -10 11 -25.5t32.5 -29t53.5 -23.5t73 -10q66 0 125 125t119 360q18 68 33.5 125t34 100t43 67t58.5 24q14 41 19.5 72.5t5.5 54.5q0 55 -51 151q-68 14 -109 65.5t-64.5 123t-34.5 157.5t-19 168q-49 201 -222 244q-59 -10 -97 -54t-38 -104z" />
<glyph unicode="~" horiz-adv-x="1161" d="M4 598q0 -45 35 -131q61 18 102 50t56 46l8 8q4 2 11.5 6.5t21.5 14.5q14 4 32.5 9t40.5 5q70 0 160 -35.5t213 -93.5q27 -12 53 -12q86 0 139.5 6t87 16.5t54 25.5t41.5 32l14 12q59 72 60 100q0 12 -8.5 28.5t-19.5 33t-23.5 32t-18.5 23.5l8 62q-47 -41 -99 -73 t-100.5 -54.5t-88.5 -33.5t-64 -11l1 -2q1 -3 1 -5q-25 37 -82 64t-119.5 44t-119 26.5t-81.5 11.5q-82 0 -141 -18.5t-98 -48t-57.5 -66.5t-18.5 -72zM1061 776q2 0 2 -2q-2 2 -2 4v-2z" />
<glyph unicode="&#xa1;" horiz-adv-x="362" d="M63 -494q0 -39 12.5 -59t30.5 -25h7q-4 0 14 8.5t44 21.5t51.5 32.5t39.5 44.5l29 31h16q33 0 43 65q-12 29 -14 55.5t-2 83.5v25q0 66 6 125t6 125q-8 31 -15 51.5t-12 30.5l3 176q0 104 -8.5 197.5t-12.5 158.5l-156 101v-80q0 -49 -4 -108.5t-8 -135.5 q-10 -72 -15 -119t-7 -76.5t-3.5 -44t-1.5 -20.5v-55q-4 -45 -11 -77t-7 -77q0 -23 4 -36t8 -21t8.5 -15.5t4.5 -19.5q0 -57 -18.5 -116.5t-24.5 -127.5v-6q0 -2 1 -4t1 -6q0 -23 -4.5 -51.5t-4.5 -51.5zM104 838l7 8q2 -2 4 -3t4 -3l2 -2q31 -23 63 -33q33 10 57.5 15 t45.5 5l14 -8q31 4 41 19l18 -21q-4 12 -6 23.5t-4 23.5v15q0 45 -6 83.5t-21.5 67.5t-42 45.5t-67.5 16.5q-10 0 -22.5 -1.5t-24.5 -3.5h-14q-39 -35 -39 -94l-7 -106v-15z" />
<glyph unicode="&#xa2;" horiz-adv-x="1050" d="M98 842q0 -78 27 -154t72 -140.5t101 -111.5t118 -65q10 -41 15 -81t5 -75q0 -86 -35 -141q59 -92 150 -92q43 0 129 57q-16 14 -23.5 31.5t-7.5 35.5q0 29 3 66t12 84q24 -8 55 -8q29 0 51.5 5t49 22.5t62.5 49t91 87.5q0 18 5 29.5t9 39.5l6 21q0 4 -1 8t-1 8v17l-4 -5 q-23 41 -117 64q-70 -57 -170 -57q-70 0 -138 23.5t-123.5 63.5t-89.5 91t-34 106q0 213 500 355h-2q31 6 44 25.5t13 47.5q0 57 -73 154q-125 -29 -195 -55l4 251h-203q8 -53 11.5 -85.5t3.5 -67.5q0 -123 -31 -129q-141 -100 -215 -219t-74 -256z" />
<glyph unicode="&#xa3;" horiz-adv-x="1161" d="M98 690q0 -43 70 -145q35 0 69.5 4t63.5 4h49q0 -41 4 -66.5t4 -33.5q0 -31 -10 -53.5t-29 -45.5l5 -2q-29 -45 -45.5 -100t-25.5 -106.5t-13 -91.5t-9 -54q6 0 54.5 -1t120 -2t157.5 -2t168 -2t150.5 -2t105.5 -1h57q27 16 42.5 39.5t15.5 54.5q0 53 -26.5 84t-68.5 46 t-90.5 19.5t-91.5 4.5q-31 0 -75.5 -5.5t-92 -11.5t-90.5 -12t-71 -10q23 78 41 170t36 200q35 0 98.5 2t126 8.5t108.5 17.5t46 30q0 25 -28 88q-145 55 -226 55q-39 0 -90 -6l4 12l-2 -2q4 8 4 10q0 4 2 11q12 82 32 140t50.5 100t75.5 72t111 54q4 0 20.5 12.5t42 28 t56 27.5t61.5 14q14 51 14 88q0 57 -59 135q-51 -2 -109.5 -20.5t-117 -48t-112.5 -67.5t-97 -78t-70 -78.5t-31 -71.5q-10 -88 -31.5 -142.5t-80.5 -91.5h32q-10 -20 -17 -51t-11 -72q-47 -4 -95.5 -5t-95.5 -3q-16 4 -32 4q-53 0 -54 -51z" />
<glyph unicode="&#xa5;" horiz-adv-x="1347" d="M96 1499q49 -25 112.5 -78t131.5 -124.5t136.5 -156.5t127.5 -173v-23q0 -10 -1 -22.5t-3 -28.5h-295q-25 0 -29 -9.5t-4 -25.5q0 -10 3.5 -43t13.5 -80l309 -33l-6 -94q-39 4 -72 4h-57q-84 0 -118 -6t-32 -6v39q-16 0 -27.5 -19.5t-23.5 -54.5h2q-4 -10 -4 -18v-12v-19 q0 -16 8 -32.5t42 -29t101.5 -19.5t184.5 -7h14q-2 -29 -5 -86t-7 -117.5t-8 -108.5t-6 -61q31 -61 100 -61q33 0 80 10t104 29q-6 47 -8 79.5t-2 61.5v29q0 14 2 28q-18 129 -18 187q0 14 8 19t41 5q10 0 38.5 -2t62.5 -5t66 -5t48 -2q168 0 168 72q0 14 -9.5 32.5t-31 34 t-54 26.5t-77.5 11q-20 0 -49 -1t-62 -1q-31 0 -60.5 -1t-51.5 -1h-31q2 0 2 4v39q0 14 2 30.5t2 26.5l61 9q29 4 56.5 8t44.5 4q23 0 82 -14.5t170 -20.5l20 21q-4 57 -17.5 94t-42 57.5t-72.5 27.5t-109 7q-43 0 -91.5 -3t-105.5 -11v6q0 53 19.5 120.5t55.5 140.5 t85 145.5t108 138.5h8q33 0 51.5 16t29 39.5t13.5 50.5t3 47q0 10 -1 17.5t-1 11.5v20q-39 4 -67 5t-50 1q-47 0 -80 -7t-53 -25q-55 -104 -121 -218t-137 -235q-31 70 -79 140.5t-106.5 137t-124 129t-129.5 117.5q0 -35 -24.5 -46t-56 -22.5t-60.5 -34t-37 -75.5z" />
<glyph unicode="&#xa6;" horiz-adv-x="223" d="M41 166q0 -252 76 -252q8 0 22.5 2t28.5 24.5t24.5 75t10.5 152.5v55q0 31 -1 69t-1 73q0 37 -1 65.5t-1 38.5q0 55 6 59v90v31q0 16 4 29l-16 29q-10 0 -22.5 10t-26 21.5t-26 21.5t-20.5 10q-20 0 -29.5 -22.5t-15.5 -65.5q8 -10 8 -41q0 -10 -3 -72.5t-7 -139.5 t-7 -151.5t-3 -111.5zM45 1085q0 -68 2 -125t6 -104h27q14 0 27.5 -9t25.5 -9q18 0 47 26.5t72 79.5h-47q2 0 4 27.5t4 64.5t3 76t1 62q0 47 -4 105t-4 128v96q-8 8 -8 27q0 16 2 40.5t2 43.5q0 63 -37 63q-12 0 -40 -24.5t-48 -48.5q-16 -29 -25.5 -154t-9.5 -365z" />
<glyph unicode="&#xa7;" horiz-adv-x="1069" d="M76 655q0 -156 133 -278q27 -51 76 -85t131 -63q49 -18 106.5 -54t108.5 -80t85 -89t34 -78q0 -63 -52.5 -101t-124.5 -38q-31 0 -59 27l-27 28q-12 10 -23 22.5t-26 22.5h2q-37 33 -52 59.5t-26.5 45t-29 28t-58.5 9.5q-25 0 -51 -7.5t-53 -23.5h-10q-80 0 -80 -68 q0 -10 13 -39.5t41 -68.5t68 -82t95 -78t125 -58.5t153 -23.5q78 0 151 23.5t129 68.5t90 109.5t34 146.5q0 147 -125 263q63 43 104 80.5t63.5 78.5t27 89t-4.5 112v12q0 31 -24.5 67t-62 70.5t-86 68.5t-95.5 62.5t-89 49t-69 32.5q-66 39 -100.5 74t-62.5 70v-2 q-2 4 -4 6t-5 6l-30 35q-20 29 -21.5 58.5t-11.5 64.5v-2q-6 27 -6 32q0 2 26.5 9.5t59.5 14.5t60.5 13t31.5 6q10 0 23.5 -10t25.5 -24l-2 2q18 -25 34.5 -34t31 -17.5t22.5 -21.5t8 -46v-2l-10 8v-39t2 -23.5t6 -15.5t13 -14l133 -47l121 110q-10 88 -21.5 146.5t-28 94.5 t-39 54.5t-53.5 28.5q-92 29 -161.5 41t-120.5 12q-80 0 -147.5 -24.5t-117 -69.5t-78 -105.5t-28.5 -134.5q0 -117 96 -227q-94 -37 -141 -119t-47 -168zM152 -47l2 12l14 -2zM287 674q0 41 26.5 79t83.5 72q68 -41 154 -108.5t170 -128.5q-2 2 13.5 -8.5t34.5 -29 t35.5 -45t16.5 -59.5q0 -84 -106 -145q-37 27 -93.5 64.5t-109.5 68.5h-2q-23 10 -41 35t-37.5 51.5t-41 47t-48.5 22.5q-23 4 -39 32.5t-16 51.5z" />
<glyph unicode="&#xa8;" horiz-adv-x="827" d="M63 1423l7 -10q4 -12 10 -16l2 2q16 -14 37.5 -22.5t43 -11.5t37 -4t19.5 -1t15.5 3t11.5 7h2q4 0 17.5 -2t31.5 -2q31 8 40 36t9 52v70l-10 6q12 20 12 37q0 18 -27.5 29.5t-63.5 16.5t-66.5 6t-36.5 1q-14 0 -23 -2h-4q-10 0 -14 -2h-11l-18 -10q-8 -20 -8 -31 q0 -8 3 -21.5t7 -28t7 -26.5t3 -14q0 -12 -14 -23.5t-14 -29.5zM543 1565q0 -4 1 -18.5t5 -20.5l-4 -4v-68q0 -29 6 -51.5t31 -32.5l-4 -4h14q6 -2 20 -2q8 0 17 4h4q6 2 12 2l4 -1t8 -3h-2q4 -4 9 -5l6 -1h22q23 0 57.5 5t59.5 32h2q4 4 8 13t6 13l-4 7q0 20 -14 32.5 t-14 22.5q0 2 3 13t7 25.5t7 29t3 20.5t-2 15t-6 20l-21 4q-10 4 -13 5t-7 1h-6l6 -2q-8 2 -14.5 3t-14.5 1q-27 0 -51 -8h-25q-20 0 -40.5 -1t-38 -6.5t-27.5 -14.5t-10 -25zM549 1526v4v-2q2 0 2 -2h-2z" />
<glyph unicode="&#xa9;" horiz-adv-x="1548" d="M25 668q0 -178 70.5 -310.5t178 -219.5t233.5 -130t236 -45h25q172 45 269.5 72.5t152.5 59.5t82.5 81t60.5 137q10 35 26.5 59.5t35.5 43.5q80 104 80 237q0 25 -2.5 51.5t-6.5 59.5q-10 72 -35.5 172t-68.5 198.5t-103.5 176.5t-136.5 104q-23 6 -38 10.5t-30.5 9.5 t-34 11t-44.5 18q-199 0 -379 -22.5t-350 -95.5q-221 -391 -221 -678zM219 737v17q0 41 15.5 73.5t44.5 57.5q12 39 43.5 95t69.5 108.5t76 91.5t62 43q41 8 82 12l82 8q119 0 193 -10t124 -37t92 -74t101 -121q20 -20 33.5 -51.5t22 -64.5t11.5 -65t3 -52q0 -39 -7 -78 t-23.5 -83t-43 -95t-63.5 -115l-172 -129q-47 -35 -102.5 -63.5t-98.5 -28.5q-102 0 -191.5 27.5t-159 86t-117.5 150.5t-69 219q-4 29 -6 48.5t-2 29.5zM336 733q59 -66 117.5 -128t103.5 -99l2 4l12 -16q4 -2 7.5 -3.5t9.5 -5.5t17 -11t32 -19l86 -52q61 -23 88 -43v2 l78 -71q25 10 43 38.5t18 51.5q0 10 -4 41t-4 41l-22 -12q-4 4 -13.5 13t-19.5 19h20q-4 4 -16.5 11.5t-24.5 15.5v2q-41 23 -84 48.5t-75 55.5q-10 14 -35 33t-35 25l8 -2q-35 25 -51 34t-16 25v6q6 10 19 24.5t44 39t81 61.5t128 92q35 16 62.5 47t37.5 60 q-2 33 -33.5 64.5t-60.5 31.5q-12 0 -33 -10v2q-35 -18 -75.5 -47t-83.5 -70q-27 -14 -56.5 -34.5t-52.5 -39.5q-4 -14 -33.5 -40.5t-53.5 -45t-28 -20.5q-4 -6 -10 -11t-12 -14zM563 524l2 4v-4h-2z" />
<glyph unicode="&#xaa;" horiz-adv-x="1265" d="M43 35l18 -27q41 -4 74 -4h58q29 0 45 2t30 19q0 66 -6 104.5t-6 79.5v14q0 18 16.5 44t16.5 67v61q0 4 1 10.5t1 12.5q0 18 -12.5 32.5t-26.5 18.5q0 12 12 24.5t12 41.5q0 10 -5 34.5t-5 34.5q0 -2 2 6t3 19.5t3 23t2 17.5l9 176q10 0 23.5 -1t29.5 -1h27q31 -2 59 -2 h51h37q80 4 125 18q4 -16 6 -37.5t2 -46.5q0 -29 -9 -68.5t-9 -84.5v-121q0 -59 -2 -113q0 -45 5 -58.5t5 -27.5q0 -25 -4 -64.5t-8.5 -80.5t-8.5 -75t-6 -48l19 -27q41 -4 73 -4h58q29 0 45 2t31 19q0 66 -6.5 104.5t-6.5 79.5v14q0 18 16.5 44t16.5 67v61q0 4 1 10.5 t1 12.5q0 18 -12.5 32.5t-26.5 18.5q0 12 12.5 24.5t12.5 41.5q0 10 -5.5 34.5t-5.5 34.5q0 -2 2.5 6t3.5 19.5t3 23t2 17.5l8 176q10 0 23.5 -1t29.5 -1h27q31 -2 59 -2h51h37q47 2 85 9t61 17q-10 35 -11 41q0 2 1 14.5t3.5 27t4.5 27.5t2 17q0 59 -49 62q-8 0 -28 -4 t-42.5 -9.5t-42 -9.5t-25.5 -4q-8 0 -21.5 13.5t-41.5 13.5q-12 0 -37 -4t-53 -9q6 119 13 208t36 148.5t89 90.5t173 31h53q61 80 62 139q0 104 -133 139h-15q-23 0 -62.5 -9t-78.5 -20.5t-68 -20.5l-30 -9l-23 -19q-8 -6 -23.5 -11t-17.5 -5h-2q-29 0 -52.5 -20.5 t-43.5 -55.5q-18 8 -54 13.5t-98 9.5h-14q-23 0 -69 -15.5t-94 -35t-84 -34.5l-36 -16l4 -2q-10 4 -16 6.5t-8 2.5h-2q-41 0 -77 -47.5t-61.5 -110t-42 -126t-20.5 -95.5q0 -68 -12.5 -133.5t-12.5 -133.5q0 -23 8.5 -55.5t8.5 -81.5q0 -29 -9.5 -68.5t-9.5 -84.5v-121 q0 -59 -2 -113q0 -45 5.5 -58.5t5.5 -27.5q0 -25 -4.5 -64.5t-8.5 -80.5t-8 -75t-6 -48zM317 1044q16 94 24.5 158t35 101.5t82 54t168.5 16.5h37q-4 -14 -6.5 -25.5t-2.5 -21.5q0 -45 -7 -124t-13 -154q-7 4 -27 8q-8 0 -27.5 -4t-42 -9.5t-42 -9.5t-25.5 -4 q-8 0 -21.5 13.5t-41.5 13.5q-12 0 -37 -4t-54 -9z" />
<glyph unicode="&#xab;" horiz-adv-x="929" d="M0 735q0 -29 3 -47t16.5 -36.5t44 -45t86.5 -74.5q6 -10 18 -35.5t27.5 -56t31 -58.5t29.5 -42q127 27 127 109q0 6 -21.5 43.5t-50 84t-57.5 90.5t-41 62q58 98 70 98h4q20 0 61 35l51 51q29 27 49.5 53.5t20.5 65.5q0 70 -68 70q-59 0 -113.5 -32t-98.5 -73 t-72.5 -78.5t-36.5 -50.5l-2 -2q-78 -66 -78 -131zM336 739q137 -240 371 -397q80 18 79 74q0 10 -6 28l23 17q-51 47 -121 118.5t-141 149.5q39 27 60.5 50.5t37.5 49t36.5 55t59.5 68.5q25 25 36 39.5t15.5 22.5t3 13t-1.5 11q0 88 -139 107q-43 -57 -80 -110.5 t-72.5 -101.5t-73.5 -90t-81 -79z" />
<glyph unicode="&#xac;" horiz-adv-x="2097" d="M37 1348h100l8 118h224v-641h-285v-833h1688q68 0 121 17.5t89.5 48t56 70.5t19.5 85q0 88 -46 139t-122 76q51 25 83 71t32 109q0 35 -8 64.5t-31 56.5h6v287h-96l-8 -191h-598v385h-473v256h108v99h-850zM184 90v639h287v737h221v-354h475v-285h-108v-98h4l154 -381 h-394l-41 -96h471l66 -162h-1135zM692 829l27 -364h98l25 364h-150zM1163 729h545q61 0 98 -13.5t58.5 -32.5t29 -40.5t7.5 -38.5q0 -57 -51.5 -95t-123.5 -38h-233v-98h211q16 0 57 -3t83 -16.5t75 -43t33 -83.5q0 -53 -25.5 -80.5t-65.5 -41t-86 -15.5t-89 -2h-254v2h-7z M1358 1110h313v-104h96v309h-96v-107h-211v256h395l17 -188h94l-6 287h-602v-453z" />
<glyph unicode="&#xad;" horiz-adv-x="1017" d="M6 631q0 -57 25.5 -71.5t66.5 -14.5q10 0 25.5 2t26.5 2h10q10 0 37 -14q94 68 206 67q37 0 93.5 -11t101.5 -11q37 0 72 6t71 16q8 6 17 6l28 -4q12 -2 35 -3t21 -1q80 0 80 78q0 39 -12.5 62.5t-49.5 23.5q-27 0 -33 -2t-14 -2h-8l-8 2h-101q-14 0 -30.5 1t-32.5 1 q-86 0 -126 -3t-64.5 -6t-46 -6.5t-68.5 -3.5q-39 0 -60 13q-63 0 -112.5 -4t-87.5 -4h-58v-31q0 -4 1 -7t1 -7q0 -23 -1 -31t-5 -43z" />
<glyph unicode="&#xae;" horiz-adv-x="1609" d="M-6 786q0 -174 57.5 -323.5t160.5 -259t246.5 -172t313.5 -62.5q63 0 143 18.5t155 48.5t136.5 67.5t85.5 78.5q8 18 17.5 47t21.5 61t29.5 64.5t42.5 61.5q37 45 57.5 104.5t20.5 132.5q0 25 -5.5 73t-12.5 100.5t-12 99.5t-5 67q0 53 14 109q-6 14 -34.5 40.5 t-61.5 52.5t-58.5 47.5t-25.5 25.5v14q-31 37 -77 58.5t-93 33.5t-91 19.5t-69 15.5l-4 14h-313q-121 0 -235.5 -56t-204 -147.5t-144.5 -205t-55 -228.5zM223 760q2 70 60 123q10 33 29.5 65.5t42 66.5t46 66.5t43.5 63.5q70 96 258 96q102 0 174 -8t126.5 -29.5 t95.5 -60.5t80 -99l43 -2q23 -53 37 -111.5t14 -119.5q0 -293 -277 -578l9 -10q-18 -6 -45 -12t-52.5 -11t-45 -8.5t-21.5 -3.5v-30l-6 28q-70 -29 -105 -28q-78 0 -151.5 28.5t-136 83t-114 129t-83.5 166.5q0 14 -3 42t-7.5 58.5t-7.5 57.5t-3 37zM440 346q0 -49 86 -49 q23 0 65 6t103 16q-4 45 -7 107.5t-3 126.5q0 31 1 78t2 101t2 111.5t1 108.5q29 0 57.5 -6t52 -15t39 -22.5t15.5 -27.5q0 -74 -147 -152q98 -289 290 -389q33 2 53.5 8t36 19.5t26.5 35t28 54.5q-84 90 -140.5 151.5t-85.5 100.5q12 16 31 46.5t39.5 62.5t42 61.5 t39.5 46.5q-37 61 -73 97t-92 54.5t-146 23.5t-236 5q-59 -55 -59 -127q0 -16 12 -42t27.5 -50.5t29 -43t15.5 -18.5h-39v-399q-66 -49 -66 -80z" />
<glyph unicode="&#xaf;" horiz-adv-x="718" d="M82 1296q0 -33 24 -55l-2 4q8 -12 41 -12l50 4q31 6 72.5 8t66.5 2q55 0 78.5 -14t44.5 -14l28 6q8 0 17 2l8 2h137q47 37 47 71q0 12 -4 26.5t-17.5 27t-42 20.5t-77.5 8q-20 0 -72.5 -3t-110 -7t-107.5 -7t-64 -3q-23 0 -37.5 1t-24.5 1q-55 -27 -55 -68z" />
<glyph unicode="&#xb0;" horiz-adv-x="636" d="M53 1198q0 -45 14.5 -74.5t34 -51t42 -37t38.5 -31.5l11 -11q31 -23 47 -34t29.5 -16t26.5 -6t36 -1q109 0 282 149v19q0 4 -1 6t-1 6v8q0 6 4.5 22.5t10.5 37t10 41t4 32.5q0 18 -15.5 51t-48 69t-85 67t-125.5 47h-11q-49 0 -103 -21.5t-98 -59.5t-73 -92t-29 -120z M219 1208q0 57 41 93t88 36t83 -33.5t36 -78.5q0 -49 -29.5 -92t-72.5 -43q-23 0 -48.5 13t-47 31.5t-36 39t-14.5 34.5z" />
<glyph unicode="&#xb1;" horiz-adv-x="962" d="M63 698q0 -16 5.5 -37.5t21.5 -44.5l14 -10l304 -39q0 -18 1 -36.5t1 -34.5v-222q-53 6 -86 9.5t-55.5 5.5t-42 4t-46.5 4h-16q-39 0 -61.5 -18.5t-22.5 -57.5q0 -14 7 -37.5t18.5 -45t25.5 -38t31 -16.5v41q-4 0 25.5 -4t79.5 -9.5t113.5 -12.5t125 -12t115 -9t84.5 -4 q195 0 237 6l-6 61q-4 29 -7 58.5t-3 33.5q0 -2 15 12.5t32 33.5l-379 -7q6 55 8 134t2 161q23 0 72 3t104.5 7.5t105.5 7.5t72 3q0 16 3.5 40.5t8.5 50.5t12 48.5t17 36.5q-53 43 -107 62.5t-114 19.5q-16 0 -38.5 -1t-47 -3t-48 -3t-40.5 -1q-2 47 -3 130t-1 191l-182 -37 l-3 -20q-3 -19 -7 -31v2q-4 -16 -8.5 -33.5t-7.5 -44t-6 -64.5t-7 -95q-27 -6 -68 -21.5t-63 -15.5q-4 0 -28.5 8t-45.5 8q-35 0 -76 -35v2q-6 -6 -10 -8l-25 -26h7q-6 -23 -7 -50z" />
<glyph unicode="&#xb2;" horiz-adv-x="880" d="M-18 612h176q6 0 24.5 2t38 4.5t35.5 4.5l16 2q33 0 70 -13q66 -4 125 -6t106 -2h68q49 39 49 90q0 43 -22.5 67.5t-53 35t-64.5 12.5t-56 2q-18 0 -40 -3t-48 -7q209 176 208 354q0 70 -36.5 130.5t-101 107.5t-152.5 77.5t-189 40.5l-16 -6q-29 -20 -43.5 -49 t-14.5 -72q0 -18 5.5 -39.5t14.5 -40t23.5 -30.5t34.5 -12v12q12 4 31.5 8t44.5 4q27 0 64.5 -6t71.5 -20.5t57.5 -39t23.5 -61.5t-11 -72.5t-29.5 -64.5t-40 -47.5t-40.5 -18.5h-6q-2 0 -3 1l-1 1h-2q-14 0 -51 -24.5t-79 -57t-83 -67.5t-65.5 -57.5t-26.5 -24.5h2z" />
<glyph unicode="&#xb3;" horiz-adv-x="747" d="M-18 711q0 -45 45 -99q119 2 221 24.5t177 61.5t117 90.5t42 110.5q0 68 -47.5 123t-116.5 84q31 23 60.5 52.5t45.5 60.5q-27 -4 -85 -3.5t-162 -3.5q-8 4 -17.5 9.5t-19.5 5.5t-28.5 -8.5t-40 -19.5t-42 -19.5t-35.5 -8.5q-29 -18 -43 -33.5t-14 -37.5q0 -51 65 -80 q78 -8 120 -12t65.5 -10.5t34 -15.5t24.5 -26l-2 2q8 -10 21.5 -25t13.5 -34q0 -49 -46 -86t-112 -37q-33 0 -76 17.5t-79 17.5q-35 0 -47.5 -16.5t-16.5 -26.5l-2 -2q-20 -23 -20 -55zM63 1372h48q33 0 74.5 -8t79.5 -19.5t63.5 -24.5t25.5 -26l-10 -10l27 -27l19 -3 q18 -3 44.5 -6t55 -7t47.5 -8q-4 -4 -5.5 -7t-5.5 -7q31 2 31 8q0 2 -20 6q10 25 10 41q0 27 -26.5 66.5t-63.5 75.5t-76 61.5t-64 25.5q-10 0 -27.5 -6t-23.5 -6q-14 0 -36.5 7t-47 16.5t-50.5 17.5t-46 10z" />
<glyph unicode="&#xb4;" horiz-adv-x="606" d="M-4 1391h24v-9q0 -51 76 -75q172 45 310 161q-16 45 -40 88t-79 76q-6 -8 -15.5 -16t-13.5 -14l-20 -15q-10 -4 -21 -14l-35 -19h11q-16 -16 -23 -24l-2 2q-10 -16 -45 -47t-84 -66l-2 -2q-10 -6 -20.5 -13t-20.5 -13z" />
<glyph unicode="&#xb5;" horiz-adv-x="968" d="M45 385q0 -29 6 -41t15 -18q23 -41 28.5 -90.5t5.5 -96.5v-92q0 -63 -9 -99t-19 -61v2q-12 -37 -13 -63q0 -27 6.5 -40t6.5 -28l147 -71q23 51 33 100t14 95t6 88t9 79q70 -59 211 -59h10q57 0 111.5 10t107.5 63v-45q70 -70 123 -69q41 0 63.5 39t32.5 95t12 122.5 t2 122.5v18q0 61 -6 155.5t-14 184.5t-14.5 161t-6.5 87q0 63 23 115q-31 45 -60.5 67.5t-64.5 22.5q-33 0 -59.5 -21.5t-45 -57.5t-28.5 -82t-10 -93q0 -78 12 -160t12 -143q0 -360 -194 -361q-10 0 -26.5 2t-35 5t-34 5.5t-21.5 2.5h-8q-23 14 -37 34.5t-23.5 60.5 t-13.5 108.5t-4 176.5v455q-23 6 -31 14.5t-16 16.5v-2q-16 16 -30.5 25.5t-31.5 9.5q-45 0 -118 -76q0 -29 -2.5 -59.5t-6.5 -57.5v-2q-2 -23 -2 -55v-74q0 -16 5.5 -35.5t13.5 -42.5l-2 2q4 -16 10 -33.5t8 -25.5q0 2 -2 2q-10 0 -18.5 -15.5t-8.5 -27.5v-4 q0 -41 -9 -103.5t-9 -128.5v-14z" />
<glyph unicode="&#xb6;" horiz-adv-x="1210" d="M57 889q0 -94 22.5 -164t70 -120t120 -84t170.5 -54q8 -86 15.5 -137t12.5 -88t7 -72t2 -90v-180h-10q-55 0 -55 -70q0 -63 39 -168h258q0 23 -2 88.5t-4.5 157.5t-6.5 202.5t-7 224.5t-7 220.5t-6 192.5t-4 140t-2 62v58q0 16 4 26q25 14 47 41l12 17q33 -12 43 -13 q10 0 29 6q4 -86 7 -218t3 -316q0 -115 1 -176.5t2 -92t2 -45t1 -32.5v-197v-149t2 -181q16 -20 41 -29t66 -9q63 0 109 21.5t46 59.5q0 6 -2 15.5t-6 17.5q-8 72 -12 179.5t-4 250.5l-2 211q-2 211 -7 386t-20 317l107 2q31 6 57.5 21.5t26.5 56.5q0 47 -78 149 q-35 -2 -75 -3t-75 -1q-33 0 -88 2t-112.5 4t-103.5 4t-60 2q-37 0 -61.5 -3t-41.5 -7q-12 0 -28.5 1t-34.5 1t-34.5 1t-27.5 1q-61 0 -105 -18.5t-77 -53t-61.5 -85t-59.5 -113.5q-23 -41 -33 -84t-10 -86z" />
<glyph unicode="&#xb7;" horiz-adv-x="419" d="M133 545l4 -4q0 -4 -1 -7.5t-1 -7.5v-8q0 -29 7.5 -41t54.5 -12h28q18 0 35 -10h10q2 0 3 1t6 1q-2 0 2 -4h14q45 0 45 86q0 12 -1 20t-3 16v29q-16 43 -31 49h-2l-59 13q-20 10 -38 16t-24 6q-10 0 -27.5 -7t-17.5 -46v-29q-4 -12 -4 -28v-33z" />
<glyph unicode="&#xb8;" horiz-adv-x="1538" d="M39 -317q0 -70 133 -115q51 6 112.5 11t113 20.5t86 47t34.5 91.5q0 18 -17.5 50t-40 63.5t-44 60.5t-27.5 45l-12 10q-4 2 -13.5 25.5t-9.5 36.5h107l-215 131q-18 -16 -27.5 -19.5t-19.5 -7.5h2l-21 -8q-84 -53 -84 -113q0 -8 2 -14l2 -10q0 -16 12.5 -35t28 -36 t27.5 -32.5t16 -23.5q131 -25 131 -70v-2q-2 -18 -45 -26.5t-94 -15.5t-94 -20.5t-43 -43.5z" />
<glyph unicode="&#xb9;" horiz-adv-x="546" d="M8 1303q0 -23 20.5 -51.5t61.5 -69.5q25 29 31 36t6 11v2q0 10 6 20.5t12 20.5v-55q0 -76 -9 -108t-9 -54q0 -25 10 -37q-4 -59 -17.5 -124t-13.5 -126h27l-4 -6q-6 0 -11 -9.5t-5 -37.5l-35 -27q86 -31 127 -31q10 0 16 5h17q4 -2 8 -3q6 0 12 -2q53 25 53 88q0 8 -4 37 t-8 64t-8 70.5t-4 60.5v16l24 561q-18 20 -32 21q-23 0 -46.5 -5t-53 -28.5t-67.5 -72t-89 -132.5v-10q-14 -18 -15 -24zM127 782l16 -2l-8 -10z" />
<glyph unicode="&#xba;" horiz-adv-x="860" d="M68 1012q0 -88 42 -144.5t85 -95.5h-9q25 -18 44.5 -32.5t23.5 -18.5l2 -2l16 -13q17 -14 44.5 -30.5t62.5 -30.5t67 -14q150 0 394 225q-12 33 -13 47q0 10 6.5 37t14.5 57.5t14 59t6 45.5q0 45 -16 71.5t-39 51.5v-2q-16 16 -30.5 36.5t-26.5 47.5q-86 92 -260 133h-19 q-66 0 -138.5 -31t-133 -87t-99 -135t-38.5 -175zM240 1006q0 57 21.5 103t55 79t74.5 51t82 18q16 0 32.5 -7t32 -15t26.5 -16.5t18 -10.5l6 -6q109 -29 108 -139q0 -49 -18.5 -95t-51 -82t-74.5 -58.5t-89 -22.5q-61 0 -103.5 30.5t-69 68.5t-38.5 70z" />
<glyph unicode="&#xbb;" horiz-adv-x="931" d="M-8 977q0 -53 47 -53q47 -47 102.5 -106.5t120.5 -131.5q-25 -23 -66.5 -65.5t-82.5 -89t-71 -87.5t-30 -59q0 -84 125 -109l21 9q45 53 84 104t78.5 101.5t84 100.5t99.5 103q-59 72 -94 109t-59.5 62.5t-45 51t-47.5 76.5q-27 45 -72 75t-86 30q-23 0 -42 -11.5 t-33.5 -30t-23.5 -40t-9 -39.5zM379 461q45 -135 102 -135q20 0 43 16l2 2q92 90 132 135t54.5 66.5t17.5 32t22 28.5l2 2q31 39 41 66l16 31q-53 47 -82 80.5t-45 57t-24.5 42t-20.5 38t-34.5 41t-63.5 52.5q-8 8 -20.5 19.5t-24.5 27.5q-55 -12 -83 -33.5t-28 -60.5 q0 -6 2 -17.5t6 -27.5q61 -72 111.5 -131.5t83.5 -106.5q-14 -18 -43 -50t-60.5 -65.5t-61.5 -64.5t-44 -45z" />
<glyph unicode="&#xbc;" horiz-adv-x="1638" d="M2 1327q0 -23 24.5 -53.5t69.5 -71.5q23 25 29 36t16 26l19 30q2 -16 3 -30.5t1 -24.5q0 -63 -13.5 -106t-13.5 -58q0 -31 13 -43q-2 -37 -6.5 -68.5t-9.5 -65.5t-8 -75t-3 -98l-35 -27q51 -16 87 -25t54 -9t31 6h2q4 0 6 2l23 -8q61 33 61 90q0 8 -4 34.5t-10 62.5 t-10 73t-4 63v23q2 74 9 220t17 351q-14 23 -37 23q-16 0 -38.5 -2.5t-49 -11.5t-55.5 -31.5t-57 -61.5l-90 -129l10 -4l-20.5 -20.5t-10.5 -16.5zM59 47q0 -47 68 -47q76 0 213 51q166 246 283.5 424t201.5 308t141.5 223.5t103.5 172t86 154.5t89 170q14 20 15 35 q0 53 -48 64l5 4q-4 -2 -7 -2l-4 -2q-4 2 -14 2t-22.5 -4.5t-26.5 -14.5l4 -10q-47 -29 -111.5 -100.5t-136.5 -164.5t-143.5 -197.5t-132 -198t-102.5 -167t-54 -104.5q-29 -16 -63.5 -57t-82 -109.5t-108.5 -165t-139 -223.5l2 2q-16 -27 -17 -43zM688 240q37 -57 148 -58 q29 6 57.5 8.5t58.5 2.5h43q47 -4 81 -6.5t54 -2.5l-4 -88q0 12 -2 13v-23q-2 -8 -2 -14v-9q0 -66 109 -73q41 29 51 50t10 48v98q0 2 17 2h26q16 0 35 -2h19q74 0 88 54q-4 70 -82 69q-23 0 -50.5 -4t-39.5 -4q-6 0 -12.5 36t-9.5 86t-5 105.5t-2 94.5v45q0 14 4 37.5 t4 37.5q0 25 -14.5 53.5t-38.5 57.5q-18 -12 -66.5 -57t-109 -108.5t-125 -136.5t-118.5 -137.5t-89 -112.5t-35 -62zM950 340q18 18 39 46t44.5 59.5t46 63.5t44.5 54q0 -14 -3 -34.5t-6 -42t-7 -40t-6 -28.5h18q0 -16 1 -38t3 -50h-28q-6 0 -23.5 1t-39 2t-44 3t-39.5 4z " />
<glyph unicode="&#xbd;" horiz-adv-x="1839" d="M2 1352q0 -41 98 -129q8 12 24.5 38.5t35.5 59.5q2 -16 2 -31v-26q0 -72 -12.5 -111t-12.5 -55q0 -27 13 -39q-4 -74 -19.5 -154t-15.5 -151l8 8v-12l-37 -27q51 -16 88 -25.5t53 -9.5q10 0 17.5 1t13.5 3h12q4 -2 11 -2q6 0 12 -2q59 27 59 90q0 10 -6 45v-2 q-6 41 -15 98.5t-9 98.5v571q16 6 16 13q0 6 -16.5 24.5t-38.5 18.5q-31 0 -58.5 -17.5t-57.5 -50.5t-65.5 -80t-85.5 -104v-7q-14 -14 -14 -34zM78 41q0 -47 65 -47q41 0 95.5 13t121.5 38l62 94q164 248 277.5 418t190.5 289t127 199.5t89 149.5t76 138.5t88 165.5 q14 20 14 35q0 53 -49 63v2l-1 -1t-3 -1q-4 2 -14 2q-27 0 -54 -18l6 -10q-47 -29 -111.5 -99.5t-137 -164t-144 -197.5t-132 -199.5t-103.5 -169t-56 -104.5q-53 -35 -149 -174t-246 -381v-2q-12 -23 -12 -39zM963 -4h182q8 0 26.5 2l37 4t36 4t23.5 2q27 0 67 -12 q68 -6 131.5 -8t118.5 -2h66q55 45 55 94q0 43 -21.5 67.5t-54.5 37t-68.5 14.5t-64.5 2q-35 0 -92 -11q219 182 219 363q0 70 -37 133.5t-103.5 112.5t-158.5 80.5t-203 42.5l-18 -7q-55 -43 -55 -127q0 -31 8 -60.5t20 -63.5l4 -23l35 35q14 4 36 9t56 5q27 0 66 -6 t73.5 -21.5t60.5 -40t26 -61.5q0 -41 -12.5 -79t-31 -66.5t-42 -46t-45.5 -17.5h-11q-12 0 -40.5 -17.5t-64.5 -44t-73 -57t-68.5 -57t-51.5 -44.5l-19 -17h2z" />
<glyph unicode="&#xbe;" horiz-adv-x="1640" d="M-12 774q0 -45 49 -100q125 2 233.5 25.5t187.5 61.5t124 91t45 115q0 72 -52.5 128t-121.5 85q25 16 48 38.5t41.5 46t31 47t12.5 44.5q0 33 -31 72.5t-71 75.5t-81 60.5t-59 24.5l-29 -6q-16 -6 -24 -6q-12 0 -35 7t-49.5 16.5t-54 16.5t-52.5 7l-26 -170h51 q33 0 78 -7t85 -18.5t67.5 -25.5t27.5 -29q0 -10 -12.5 -23.5t-27.5 -25.5t-28.5 -21.5t-17.5 -9.5q-8 0 -17.5 2t-17.5 2q-23 0 -57.5 -12t-69.5 -30.5t-59.5 -40t-24.5 -39.5q0 -51 68 -84q164 -14 178 -19q10 -4 29.5 -12t39 -22.5t34 -33t14.5 -38.5q0 -51 -51.5 -87 t-116.5 -36q-16 0 -37 5t-43.5 12t-44 12.5t-39.5 5.5q-25 0 -42 -11.5t-28.5 -27t-17.5 -34t-6 -32.5zM76 18q0 -51 69 -51q74 0 211 53l88 138q172 274 303.5 450t186.5 266q100 164 178 316.5t152 282.5h-2q16 23 16 38q0 63 -66 64q-27 0 -51 -19l4 -10 q-45 -25 -108.5 -94.5t-135 -161.5t-143 -196.5t-133 -199.5t-104.5 -171t-56 -109q-37 -23 -93 -95.5t-138 -201.5v2l-12 -20q-35 -53 -73 -113.5t-79 -130.5q-6 -10 -10 -18t-4 -19zM702 242q37 -59 146 -60q55 12 127 13h35q61 0 86.5 -2.5t46.5 -4.5l-2 -88 q-6 -16 -6 -34q0 -66 110 -74q41 29 51.5 50t10.5 48v98h8h31q18 0 40 -2h11q78 0 96 60q-12 66 -84 65q-25 0 -53.5 -4t-36.5 -4h-10q-2 18 -6.5 57t-7.5 85.5t-5 93.5t-2 84v39q4 16 7 41.5t3 44.5q0 14 -5 32.5t-14 34.5t-23.5 27.5t-34.5 11.5t-43 -23.5t-49.5 -58.5 t-57.5 -77t-67 -81q-53 -57 -85 -92t-55 -59h2q-14 -16 -41.5 -42t-54.5 -55.5t-47.5 -62.5t-20.5 -61zM975 334q18 18 38.5 46t43 59.5t46 63.5t46.5 54q0 -14 -3 -33.5t-6 -41t-7.5 -40t-6.5 -30.5h19q0 -16 1 -38t3 -50h-31q-8 0 -25.5 1t-39 2t-43 3t-35.5 4z" />
<glyph unicode="&#xbf;" horiz-adv-x="856" d="M45 -135q0 -180 301 -322q225 -109 389 -108h19q8 0 14 2q27 -16 39 -17q39 0 39 43q0 20 -10.5 59.5t-32.5 98.5q-76 16 -148.5 39t-107.5 33q-8 -23 -12 -23q-31 0 -71 20.5t-77 52.5t-61.5 72t-24.5 76q0 20 2 52t11.5 64t24.5 59.5t44 42.5q14 10 42 28.5t61.5 40 t71.5 43t75 35.5q78 33 125 74v-13q18 45 37.5 70t36 42t27.5 35.5t11 51.5q0 6 -13 45t-34.5 82t-48 78t-51.5 35q-27 0 -64.5 -19.5t-91.5 -54.5l17 -31l2 4q4 -10 14 -23.5t33 -31.5v2q41 -41 41 -57q0 -2 -2 -5t-11.5 -11.5t-31 -27t-60.5 -50.5q-45 -45 -176 -86 q-72 -25 -134 -64t-89 -61q-25 -20 -47.5 -67.5t-39.5 -103t-27.5 -110.5t-10.5 -94zM516 856q0 -49 191 -49h57q29 12 42 37.5t13 60.5q0 49 -33 131v13q-18 20 -33.5 27t-29.5 11v-2q-23 6 -40 10.5t-34 4.5q-70 0 -112 -62q6 -47 6 -92q0 -41 -8 -57q-10 -8 -14.5 -14.5 t-4.5 -18.5z" />
<glyph unicode="&#xc0;" horiz-adv-x="1302" d="M-14 113q0 -60 47 -97q27 -16 51 -16q59 0 100 53q37 111 97.5 282t140.5 390q14 10 37 10t63.5 -11t87.5 -11q8 0 22.5 1t31.5 1q16 0 32.5 1t28.5 1q23 0 42 -4t38 -11q37 -80 88 -196.5t117 -261.5q-2 -12 -2 -23v-18q0 -27 8 -58.5t24 -64.5v2l17 -47q35 -6 66.5 -8 t60.5 -2q23 0 56.5 2t76.5 10v45q0 47 -27.5 115.5t-59.5 132t-59.5 110.5t-27.5 54q-4 16 -10.5 29.5t-10.5 25.5q-43 119 -73.5 206t-58 157.5t-55.5 131t-63 127.5q-31 70 -67.5 162t-71.5 191v4q0 10 -12 29.5t-28.5 40t-35 35t-30.5 14.5t-24.5 -2.5t-24.5 -12.5h2 q-33 -20 -51.5 -53t-27.5 -67.5t-12.5 -66.5t-3.5 -50q0 -4 4 -4q-18 -35 -42.5 -92.5t-52 -120t-57.5 -121t-58 -94.5q-27 -98 -70 -222.5t-109 -281.5q-20 -49 -40.5 -99.5t-37 -96.5t-26.5 -86t-10 -64zM428 2042q0 -20 10.5 -37.5t26.5 -31t35.5 -20.5t36.5 -7h14 l197 -97l71 97l-241 213q-76 -16 -113 -43t-37 -74zM504 909q29 78 62.5 155t72.5 126q6 -23 15.5 -54.5t19.5 -72.5q10 -39 21.5 -72t23.5 -59q-18 -2 -48 -5t-60.5 -7.5t-58.5 -7.5t-42 -3h-6z" />
<glyph unicode="&#xc1;" horiz-adv-x="1302" d="M-14 113q0 -60 47 -97q27 -16 51 -16q59 0 100 53q37 111 97.5 282t140.5 390q14 10 37 10t63.5 -11t87.5 -11q8 0 22.5 1t31.5 1q16 0 32.5 1t28.5 1q23 0 42 -4t38 -11q37 -80 88 -196.5t117 -261.5q-2 -12 -2 -23v-18q0 -27 8 -58.5t24 -64.5v2l17 -47q35 -6 66.5 -8 t60.5 -2q23 0 56.5 2t76.5 10v45q0 47 -27.5 115.5t-59.5 132t-59.5 110.5t-27.5 54q-4 16 -10.5 29.5t-10.5 25.5q-43 119 -73.5 206t-58 157.5t-55.5 131t-63 127.5q-31 70 -67.5 162t-71.5 191v4q0 10 -12 29.5t-28.5 40t-35 35t-30.5 14.5t-24.5 -2.5t-24.5 -12.5h2 q-33 -20 -51.5 -53t-27.5 -67.5t-12.5 -66.5t-3.5 -50q0 -4 4 -4q-18 -35 -42.5 -92.5t-52 -120t-57.5 -121t-58 -94.5q-27 -98 -70 -222.5t-109 -281.5q-20 -49 -40.5 -99.5t-37 -96.5t-26.5 -86t-10 -64zM416 1919h24v-8q0 -51 76 -76q172 45 309 162q-16 45 -39.5 88 t-78.5 76q-6 -8 -15.5 -16.5t-13.5 -14.5l-21 -14q-10 -4 -20 -15l-35 -18h10q-16 -16 -22 -25l-2 2q-10 -16 -45 -47t-84 -65l-2 -2q-10 -6 -20.5 -13.5t-20.5 -13.5zM504 909q29 78 62.5 155t72.5 126q6 -23 15.5 -54.5t19.5 -72.5q10 -39 21.5 -72t23.5 -59 q-18 -2 -48 -5t-60.5 -7.5t-58.5 -7.5t-42 -3h-6z" />
<glyph unicode="&#xc2;" horiz-adv-x="1302" d="M-14 113q0 -60 47 -97q27 -16 51 -16q59 0 100 53q37 111 97.5 282t140.5 390q14 10 37 10t63.5 -11t87.5 -11q8 0 22.5 1t31.5 1q16 0 32.5 1t28.5 1q23 0 42 -4t38 -11q37 -80 88 -196.5t117 -261.5q-2 -12 -2 -23v-18q0 -27 8 -58.5t24 -64.5v2l17 -47q35 -6 66.5 -8 t60.5 -2q23 0 56.5 2t76.5 10v45q0 47 -27.5 115.5t-59.5 132t-59.5 110.5t-27.5 54q-4 16 -10.5 29.5t-10.5 25.5q-43 119 -73.5 206t-58 157.5t-55.5 131t-63 127.5q-31 70 -67.5 162t-71.5 191v4q0 10 -12 29.5t-28.5 40t-35 35t-30.5 14.5t-24.5 -2.5t-24.5 -12.5h2 q-33 -20 -51.5 -53t-27.5 -67.5t-12.5 -66.5t-3.5 -50q0 -4 4 -4q-18 -35 -42.5 -92.5t-52 -120t-57.5 -121t-58 -94.5q-27 -98 -70 -222.5t-109 -281.5q-20 -49 -40.5 -99.5t-37 -96.5t-26.5 -86t-10 -64zM270 1886q14 -98 105 -98q27 0 60.5 16.5t69.5 40t67.5 49 t52.5 43.5v-2q6 4 12 11q53 -31 105.5 -79t105.5 -108q125 25 137 137l-10 13l-318 237q-39 -10 -94 -37.5t-111.5 -64.5t-105.5 -79t-76 -79zM504 909q29 78 62.5 155t72.5 126q6 -23 15.5 -54.5t19.5 -72.5q10 -39 21.5 -72t23.5 -59q-18 -2 -48 -5t-60.5 -7.5t-58.5 -7.5 t-42 -3h-6z" />
<glyph unicode="&#xc3;" horiz-adv-x="1302" d="M-14 113q0 -60 47 -97q27 -16 51 -16q59 0 100 53q37 111 97.5 282t140.5 390q14 10 37 10t63.5 -11t87.5 -11q8 0 22.5 1t31.5 1q16 0 32.5 1t28.5 1q23 0 42 -4t38 -11q37 -80 88 -196.5t117 -261.5q-2 -12 -2 -23v-18q0 -27 8 -58.5t24 -64.5v2l17 -47q35 -6 66.5 -8 t60.5 -2q23 0 56.5 2t76.5 10v45q0 47 -27.5 115.5t-59.5 132t-59.5 110.5t-27.5 54q-4 16 -10.5 29.5t-10.5 25.5q-43 119 -73.5 206t-58 157.5t-55.5 131t-63 127.5q-31 70 -67.5 162t-71.5 191v4q0 10 -12 29.5t-28.5 40t-35 35t-30.5 14.5t-24.5 -2.5t-24.5 -12.5h2 q-33 -20 -51.5 -53t-27.5 -67.5t-12.5 -66.5t-3.5 -50q0 -4 4 -4q-18 -35 -42.5 -92.5t-52 -120t-57.5 -121t-58 -94.5q-27 -98 -70 -222.5t-109 -281.5q-20 -49 -40.5 -99.5t-37 -96.5t-26.5 -86t-10 -64zM295 1995q0 -68 65 -68q39 0 89 29l20 49q4 0 12 2t19 6 q45 -16 77.5 -29.5t36.5 -13.5q6 -4 13.5 -5t11.5 -5v4q29 -16 54.5 -21.5t41.5 -5.5q47 0 111.5 21.5t120.5 91.5q-12 98 -131 109q-18 -29 -55.5 -48.5t-67.5 -19.5q-27 0 -56 18q-47 23 -88 33t-73 10q-98 0 -201 -145v-12zM504 909q29 78 62.5 155t72.5 126 q6 -23 15.5 -54.5t19.5 -72.5q10 -39 21.5 -72t23.5 -59q-18 -2 -48 -5t-60.5 -7.5t-58.5 -7.5t-42 -3h-6z" />
<glyph unicode="&#xc4;" horiz-adv-x="1302" d="M-14 113q0 -60 47 -97q27 -16 51 -16q59 0 100 53q37 111 97.5 282t140.5 390q14 10 37 10t63.5 -11t87.5 -11q8 0 22.5 1t31.5 1q16 0 32.5 1t28.5 1q23 0 42 -4t38 -11q37 -80 88 -196.5t117 -261.5q-2 -12 -2 -23v-18q0 -27 8 -58.5t24 -64.5v2l17 -47q35 -6 66.5 -8 t60.5 -2q23 0 56.5 2t76.5 10v45q0 47 -27.5 115.5t-59.5 132t-59.5 110.5t-27.5 54q-4 16 -10.5 29.5t-10.5 25.5q-43 119 -73.5 206t-58 157.5t-55.5 131t-63 127.5q-31 70 -67.5 162t-71.5 191v4q0 10 -12 29.5t-28.5 40t-35 35t-30.5 14.5t-24.5 -2.5t-24.5 -12.5h2 q-33 -20 -51.5 -53t-27.5 -67.5t-12.5 -66.5t-3.5 -50q0 -4 4 -4q-18 -35 -42.5 -92.5t-52 -120t-57.5 -121t-58 -94.5q-27 -98 -70 -222.5t-109 -281.5q-20 -49 -40.5 -99.5t-37 -96.5t-26.5 -86t-10 -64zM240 1960l6 -10q4 -12 10 -17l2 2q16 -14 37.5 -22t43 -11.5 t37 -4.5t19.5 -1t15.5 3.5t11.5 7.5h2q4 0 17.5 -2t31.5 -2q31 8 40 35.5t9 52.5v69l-10 6q12 20 12 37q0 18 -27.5 29.5t-63.5 16.5t-66.5 6.5t-36.5 1.5q-14 0 -23 -3h-4q-10 0 -14 -2h-10l-19 -10q-8 -20 -8 -31q0 -8 3 -21t7 -27.5t7 -27t3 -14.5q0 -12 -14 -23t-14 -30 zM504 909q29 78 62.5 155t72.5 126q6 -23 15.5 -54.5t19.5 -72.5q10 -39 21.5 -72t23.5 -59q-18 -2 -48 -5t-60.5 -7.5t-58.5 -7.5t-42 -3h-6zM719 2101q0 -4 1 -18.5t5 -20.5l-4 -4v-67q0 -29 6 -51.5t31 -32.5l-4 -4h14q6 -2 20 -2q8 0 17 4h4q6 2 12 2l4 -1t9 -3h-3 q4 -4 9 -5l6 -2h22q23 0 58 5.5t59 31.5h2q4 4 8 13.5t6 13.5l-4 6q0 20 -14 32.5t-14 22.5q0 2 3 13.5t7 26t7 28.5t3 20t-2 15.5t-6 19.5l-20 4q-10 4 -13.5 5t-7.5 1h-6l6 -2l-14 3.5t-15 1.5q-27 0 -51 -9h-24q-20 0 -41 -1t-38.5 -6t-27.5 -14t-10 -26zM725 2062v4v-2 q2 0 2 -2h-2z" />
<glyph unicode="&#xc5;" horiz-adv-x="1302" d="M-14 113q0 -60 47 -97q27 -16 51 -16q59 0 100 53q37 111 97.5 282t140.5 390q14 10 37 10t63.5 -11t87.5 -11q8 0 22.5 1t31.5 1q16 0 32.5 1t28.5 1q23 0 42 -4t38 -11q37 -80 88 -196.5t117 -261.5q-2 -12 -2 -23v-18q0 -27 8 -58.5t24 -64.5v2l17 -47q35 -6 66.5 -8 t60.5 -2q23 0 56.5 2t76.5 10v45q0 47 -27.5 115.5t-59.5 132t-59.5 110.5t-27.5 54q-4 16 -10.5 29.5t-10.5 25.5q-43 119 -73.5 206t-58 157.5t-55.5 131t-63 127.5q-31 70 -67.5 162t-71.5 191v4q0 10 -12 29.5t-28.5 40t-35 35t-30.5 14.5t-24.5 -2.5t-24.5 -12.5h2 q-33 -20 -51.5 -53t-27.5 -67.5t-12.5 -66.5t-3.5 -50q0 -4 4 -4q-18 -35 -42.5 -92.5t-52 -120t-57.5 -121t-58 -94.5q-27 -98 -70 -222.5t-109 -281.5q-20 -49 -40.5 -99.5t-37 -96.5t-26.5 -86t-10 -64zM406 2023q0 -51 17 -90t46 -64.5t65.5 -37.5t77.5 -12 q127 0 222 176q10 0 10 18l-2 10q0 27 -18.5 49.5t-47 40t-67.5 28.5t-78 16h-8q-27 0 -88 -31v2q-37 -20 -50 -21q-2 0 -3 1t-3 1h-12q-61 0 -61 -86zM504 909q29 78 62.5 155t72.5 126q6 -23 15.5 -54.5t19.5 -72.5q10 -39 21.5 -72t23.5 -59q-18 -2 -48 -5t-60.5 -7.5 t-58.5 -7.5t-42 -3h-6zM567 1985q0 20 17.5 34.5t42.5 14.5q45 0 45 -17q0 -4 -6.5 -16t-13.5 -26.5t-15 -26t-14 -11.5q-23 0 -39.5 12.5t-16.5 35.5z" />
<glyph unicode="&#xc6;" horiz-adv-x="1904" d="M-18 2q43 -8 76.5 -10t56.5 -2q29 0 60.5 2t66.5 8l16 47v-2q16 33 24.5 64.5t8.5 58.5v18q0 10 -2 23q66 145 117 262t88 197q18 6 37.5 10t41.5 4q12 0 28.5 -1t33.5 -1q16 0 30.5 -1t22.5 -1q47 0 88 11t64 11q10 0 22 -4l19 -18q78 -215 137 -383t96 -277 q41 -53 100 -53q25 1 52 17q47 37 47 96q0 43 -28 122t-62 165q94 -78 191 -146.5t202 -132.5q31 -61 131 -80h12q135 55 139 152q-201 129 -312 223t-175 143q-47 31 -93 64t-81 67q55 8 142 19.5t177.5 26t170 34t116.5 45.5v84q0 63 -53 86l-8 2q-18 -2 -65.5 -6 t-104 -11t-114.5 -17.5t-99 -22.5q-45 -16 -84 -22.5t-74 -6.5q6 4 16 15l74 51q6 23 36 57.5t65 69.5l45 45q29 37 58.5 64.5t59.5 54.5h-2q37 33 82 72.5t87 81.5t76 84t50 79q-2 8 -6 21h6q-4 4 -10 12t-12 12l-19 19q-12 14 -27.5 26t-35.5 12q-14 0 -45 -14v2 q-78 -41 -152 -98t-147 -133l-252 -256q-43 -23 -83 -53.5t-79 -67.5q-10 -37 -29 -64q-27 41 -53 96.5t-51 112t-46.5 107.5t-37.5 82q4 0 4 4q0 18 -3 50t-12.5 66.5t-27.5 67.5t-51 53h2q-12 10 -24.5 12.5t-24.5 2.5t-30.5 -14.5t-35 -35t-29 -40t-12.5 -29.5v-4 q-35 -98 -71.5 -190.5t-67.5 -161.5q-35 -68 -62.5 -128.5t-55 -131t-58.5 -157.5t-74 -206q-4 -12 -10 -25.5t-10 -29.5q0 -6 -28 -53.5t-59.5 -111t-59 -132t-27.5 -115.5v-45zM580 897q12 27 23.5 59.5t21.5 71.5q10 41 19 73t15 54q39 -49 73 -126t63 -155h-7 q-14 0 -41.5 3.5t-58.5 7.5t-60.5 7t-47.5 5z" />
<glyph unicode="&#xc7;" horiz-adv-x="1175" d="M-80 754q80 -88 135.5 -144.5t113.5 -105.5t136 -102.5t203 -133.5q-98 -55 -98 -123q0 -12 2 -20v-2q0 -16 19.5 -46t39.5 -52v2q10 -14 21 -29l12 -16q139 -25 139 -72v-2q-4 -49 -240 -62q-55 -4 -55 -55q0 -68 139 -123l62 6q47 4 102.5 11.5t101.5 26t76.5 50 t30.5 86.5q0 23 -23.5 60t-52 76t-54 74.5t-30.5 54.5l-14 8q-10 6 -10 37q0 6 2 6h8l-6 2q37 -12 68.5 -26.5t50.5 -33.5l110 -100q70 25 70 90q0 6 -2 22.5t-3 35t-3 35t-2 20.5l-33 -14l-36.5 36.5t-33.5 34.5l4 13q-176 100 -286.5 176.5t-177 135t-97 104.5t-43.5 87 q25 35 71 72t105 80q6 20 31 49t53.5 58.5t54 57t37.5 48.5h3q18 18 71 63t114.5 102.5t116 119t76.5 112.5q-4 45 -34.5 74t-71.5 29q-14 0 -45 -15v2q-78 -41 -150.5 -98t-144.5 -131l-254 -260q-82 -39 -164 -125q-12 -49 -48 -90t-89 -94zM856 283q0 2 4 0l-2 -7 q-2 2 -2 7z" />
<glyph unicode="&#xc8;" horiz-adv-x="1138" d="M25 743q180 -199 381.5 -364.5t424.5 -304.5q31 -61 132 -80h12q135 55 139 151q-201 129 -312.5 223.5t-174.5 143.5q-47 31 -93.5 63.5t-80.5 67.5q55 8 142 19.5t177 25.5t170 33.5t117 46.5v84q0 63 -53 86l-9 2q-18 -2 -65 -6t-103.5 -11.5t-115 -17.5t-99.5 -22 q-45 -16 -83.5 -22.5t-73.5 -6.5q6 4 16 14l74 52q6 23 35.5 57.5t64.5 69.5l45 45q29 37 58.5 64.5t60.5 53.5h-2q37 33 82 73t87 82t75.5 84t50.5 79q-2 8 -6 20h6q-4 4 -10.5 12.5t-12.5 12.5l-18 18q-12 14 -27.5 26.5t-36.5 12.5q-14 0 -45 -14v2q-78 -41 -151.5 -98.5 t-147.5 -133.5l-252 -256q-43 -23 -82.5 -53t-78.5 -67q-14 -61 -80 -127zM365 2042q0 -20 10 -37.5t26.5 -31t36 -20.5t35.5 -7h14l197 -97l72 97l-242 213q-76 -16 -112.5 -43t-36.5 -74z" />
<glyph unicode="&#xc9;" horiz-adv-x="1138" d="M25 750q180 -199 381.5 -365t424.5 -305q31 -61 132 -80h12q135 55 139 152q-201 129 -312.5 223t-174.5 143q-47 31 -93.5 63.5t-80.5 67.5q55 8 142 19.5t177 26t170 34t117 45.5v84q0 63 -53 86l-9 2q-18 -2 -65 -6t-103.5 -11t-115 -17.5t-99.5 -22.5 q-45 -16 -83.5 -22.5t-73.5 -6.5q6 4 16 14l74 52q6 23 35.5 57.5t64.5 69.5l45 45q29 37 58.5 64.5t60.5 54.5h-2q37 33 82 72.5t87 81.5t75.5 84t50.5 79q-2 8 -6 20h6q-4 4 -10.5 12.5t-12.5 12.5l-18 18q-12 14 -27.5 26.5t-36.5 12.5q-14 0 -45 -14v2 q-78 -41 -151.5 -98.5t-147.5 -132.5l-252 -256q-43 -23 -82.5 -53.5t-78.5 -67.5q-14 -61 -80 -127zM334 1919h24v-8q0 -51 76 -76q172 45 309 162q-16 45 -39.5 88t-78.5 76q-6 -8 -15.5 -16.5t-13.5 -14.5l-21 -14q-10 -4 -20 -15l-35 -18h10q-16 -16 -22 -25l-2 2 q-10 -16 -45 -47t-84 -65l-2 -2q-10 -6 -20.5 -13.5t-20.5 -13.5z" />
<glyph unicode="&#xca;" horiz-adv-x="1138" d="M25 756q180 -199 381.5 -365t424.5 -305q31 -61 132 -80h12q135 55 139 152q-201 129 -312.5 223t-174.5 143q-47 31 -93.5 64t-80.5 67q55 8 142 19.5t177 26t170 34t117 45.5v84q0 63 -53 86l-9 2q-18 -2 -65 -6t-103.5 -11t-115 -17.5t-99.5 -22.5 q-45 -16 -83.5 -22.5t-73.5 -6.5q6 4 16 15l74 51q6 23 35.5 57.5t64.5 69.5l45 45q29 37 58.5 64.5t60.5 54.5h-2q37 33 82 72.5t87 81.5t75.5 84t50.5 79q-2 8 -6 21h6q-4 4 -10.5 12t-12.5 12l-18 19q-12 14 -27.5 26t-36.5 12q-14 0 -45 -14v2q-78 -41 -151.5 -98 t-147.5 -133l-252 -256q-43 -23 -82.5 -53.5t-78.5 -67.5q-14 -61 -80 -127zM209 1886q14 -98 104 -98q27 0 61 16.5t69.5 40t67.5 49t52 43.5v-2q6 4 12 11q53 -31 105.5 -79t105.5 -108q125 25 138 137l-11 13l-317 237q-39 -10 -94.5 -37.5t-111.5 -64.5t-105 -79 t-76 -79z" />
<glyph unicode="&#xcb;" horiz-adv-x="1138" d="M25 756q180 -199 381.5 -365t424.5 -305q31 -61 132 -80h12q135 55 139 152q-201 129 -312.5 223t-174.5 143q-47 31 -93.5 64t-80.5 67q55 8 142 19.5t177 26t170 34t117 45.5v84q0 63 -53 86l-9 2q-18 -2 -65 -6t-103.5 -11t-115 -17.5t-99.5 -22.5 q-45 -16 -83.5 -22.5t-73.5 -6.5q6 4 16 15l74 51q6 23 35.5 57.5t64.5 69.5l45 45q29 37 58.5 64.5t60.5 54.5h-2q37 33 82 72.5t87 81.5t75.5 84t50.5 79q-2 8 -6 21h6q-4 4 -10.5 12t-12.5 12l-18 19q-12 14 -27.5 26t-36.5 12q-14 0 -45 -14v2q-78 -41 -151.5 -98 t-147.5 -133l-252 -256q-43 -23 -82.5 -53.5t-78.5 -67.5q-14 -61 -80 -127zM180 1960l6 -10q4 -12 11 -17l2 2q16 -14 37.5 -22t43 -11.5t37 -4.5t19.5 -1t15 3.5t11 7.5h3q4 0 17 -2t32 -2q31 8 40 35.5t9 52.5v69l-10 6q12 20 12 37q0 18 -27.5 29.5t-63.5 16.5t-67 6.5 t-37 1.5q-14 0 -22 -3h-4q-10 0 -15 -2h-10l-18 -10q-8 -20 -8 -31q0 -8 3 -21t7 -27.5t7 -27t3 -14.5q0 -12 -14.5 -23t-14.5 -30zM659 2101q0 -4 1.5 -18.5t5.5 -20.5l-4 -4v-67q0 -29 6 -51.5t30 -32.5l-4 -4h15q6 -2 20 -2q8 0 16 4h5q6 2 12 2l4 -1t8 -3h-2q4 -4 9 -5 l5 -2h23q23 0 57.5 5.5t59.5 31.5h2q4 4 8 13.5t6 13.5l-4 6q0 20 -14.5 32.5t-14.5 22.5q0 2 3 13.5t7.5 26t7.5 28.5t3 20t-2 15.5t-6 19.5l-21 4q-10 4 -13 5t-7 1h-7l7 -2q-8 2 -14.5 3.5t-14.5 1.5q-27 0 -51 -9h-25q-20 0 -40.5 -1t-38 -6t-28 -14t-10.5 -26z M666 2062v4v-2q2 0 2 -2h-2z" />
<glyph unicode="&#xcc;" horiz-adv-x="344" d="M-23 2042q0 -20 10.5 -37.5t27 -31t36 -20.5t35.5 -7h14l197 -97l72 97l-242 213q-76 -16 -113 -43t-37 -74zM8 1518q0 -98 41 -162q-24 -307 -24 -551q0 -98 4 -192.5t12 -186.5l-8 -348q27 -45 55.5 -66.5t56.5 -21.5q27 0 42.5 13t23.5 31.5t11 40t3 38.5q0 10 -1 16 t-1 10v82q0 68 -1 163t-3 189.5t-3 172t-1 110.5q0 401 55 672q4 8 5 14t1 17q0 66 -83 69q-14 -8 -35 -8q-8 0 -30 2t-30 2q-49 0 -69.5 -24.5t-20.5 -81.5z" />
<glyph unicode="&#xcd;" horiz-adv-x="344" d="M-33 1919h25v-8q0 -51 76 -76q172 45 309 162q-16 45 -40 88t-79 76q-6 -8 -15.5 -16.5t-13.5 -14.5l-20 -14q-10 -4 -21 -15l-34 -18h10q-16 -16 -23 -25l-2 2q-10 -16 -45 -47t-84 -65l-2 -2q-10 -6 -20.5 -13.5t-20.5 -13.5zM100 1524q0 -98 41 -162 q-24 -307 -24 -551q0 -98 4 -192.5t12 -186.5l-8 -348q27 -45 55.5 -66.5t57.5 -21.5q27 0 42 13.5t23 31.5t11 39.5t3 38.5q0 10 -1 16t-1 10v82q0 68 -1 163t-3 189.5t-3 172t-1 110.5q0 401 55 672q4 8 5.5 14t1.5 17q0 66 -84 69q-14 -8 -35 -8q-8 0 -29.5 2t-30.5 2 q-49 0 -69.5 -24.5t-20.5 -81.5z" />
<glyph unicode="&#xce;" horiz-adv-x="344" d="M-184 1886q14 -98 104 -98q27 0 60.5 16.5t69.5 40t68 49t52 43.5v-2q6 4 12 11q53 -31 105.5 -79t105.5 -108q125 25 137 137l-10 13l-317 237q-39 -10 -94.5 -37.5t-111.5 -64.5t-105.5 -79t-75.5 -79zM49 1522q0 -98 41 -162q-24 -307 -24 -551q0 -98 4 -192.5 t12 -186.5l-8 -348q27 -45 55.5 -66.5t56.5 -21.5q27 0 42.5 13t23.5 31.5t11 40t3 38.5q0 10 -1 16t-1 10v82q0 68 -1 163t-3 189.5t-3 172t-1 110.5q0 401 55 672q4 8 5 14t1 17q0 66 -84 69q-14 -8 -34 -8q-8 0 -30 2t-30 2q-49 0 -69.5 -24.5t-20.5 -81.5z" />
<glyph unicode="&#xcf;" horiz-adv-x="344" d="M-209 1960l6 -10q4 -12 10 -17l3 2q16 -14 37.5 -22t43 -11.5t37 -4.5t19.5 -1t15 3.5t11 7.5h2q4 0 17.5 -2t32.5 -2q31 8 40 35.5t9 52.5v69l-11 6q12 20 13 37q0 18 -28 29.5t-63.5 16.5t-66.5 6.5t-37 1.5q-14 0 -22 -3h-4q-10 0 -15 -2h-10l-18 -10q-8 -20 -9 -31 q0 -8 3.5 -21t7.5 -27.5t7 -27t3 -14.5q0 -12 -14.5 -23t-14.5 -30zM37 1528q0 -98 41 -162q-25 -307 -25 -551q0 -98 4 -192.5t13 -186.5l-9 -348q27 -45 55.5 -66.5t57.5 -21.5q27 0 42 13.5t23.5 31.5t11.5 39.5t3 38.5q0 10 -1 16t-1 11v81q0 68 -1 163t-3 189.5 t-3 172.5t-1 110q0 401 55 672q4 8 5 14.5t1 16.5q0 66 -84 69q-14 -8 -35 -8q-8 0 -29.5 2t-29.5 2q-49 0 -69.5 -24.5t-20.5 -81.5zM270 2101q0 -4 1 -18.5t5 -20.5l-4 -4v-67q0 -29 6.5 -51.5t30.5 -32.5l-4 -4h14q6 -2 21 -2q8 0 16 4h4q6 2 13 2l4 -1t8 -3h-2 q4 -4 9 -5l5 -2h23q23 0 57.5 5.5t59.5 31.5h2q4 4 8 13.5t6 13.5l-4 6q0 20 -14.5 32.5t-14.5 22.5q0 2 3 13.5t7.5 26t7.5 28.5t3 20t-2 15.5t-7 19.5l-20 4q-10 4 -13 5t-7 1h-7l7 -2q-8 2 -14.5 3.5t-14.5 1.5q-27 0 -51 -9h-25q-20 0 -40.5 -1t-38 -6t-28 -14 t-10.5 -26zM276 2062v4v-2q2 0 3 -2h-3z" />
<glyph unicode="&#xd0;" horiz-adv-x="1474" d="M59 764q0 -53 19.5 -77.5t75.5 -24.5q12 0 26.5 3t24.5 3h8v-131l-4 2q-8 -135 -8 -271q0 -133 -11 -268h160q23 29 53.5 45t75.5 27l164 34q92 80 179 139.5t181.5 118t201 127t237.5 164.5h4q23 23 47 41h-2l55 43h-20q8 20 8 35q0 10 -16 47q-129 131 -246 228.5 t-228 169.5q-31 51 -75.5 90t-105 72.5t-138.5 66.5t-176 74q-61 25 -93 47t-50.5 37.5t-29.5 23.5t-28 8q-12 0 -40.5 -8t-82.5 -26q-14 -66 -14 -136q0 -27 5 -78t12.5 -107t12.5 -106.5t5 -74.5q0 -47 -8.5 -91t-12.5 -91q-29 -2 -54.5 -3.5t-45.5 -1.5h-62v-36 q0 -6 1.5 -10.5t1.5 -8.5q0 -20 -2.5 -43.5t-4.5 -38.5v-14zM444 406q0 111 50 208q-10 16 -12.5 30.5t-2.5 27.5q0 18 5 27.5t15.5 13.5t26 7t35.5 11q8 8 19 8l28 -4q14 -2 37 -4t21 -2q80 0 79 96q0 49 -12 78t-49 29q-27 0 -34 -4t-15 -4h-6l-6 6h-95h-18q-6 0 -16 2 q-12 57 -17.5 116.5t-5.5 120.5q0 39 2 76t6 72q78 -47 156 -84t158 -59q45 -37 111.5 -97.5t146.5 -140.5q55 -55 96 -99t70 -67q-27 -31 -68 -57.5t-80 -57.5l-514 -350l-96 -24q-8 29 -11.5 59.5t-3.5 65.5z" />
<glyph unicode="&#xd1;" horiz-adv-x="1165" d="M33 205q0 -55 18 -199q31 -4 56.5 -6t50.5 -2q76 0 133 29v86q0 18 -6 30.5t-13.5 24.5t-13.5 26.5t-6 32.5q0 23 13.5 62t28.5 80t28.5 77.5t15.5 57.5q-55 45 -55 106q0 47 13 104.5t13 119.5v36q0 4 -1 8.5t-1 8.5v20q0 23 -5 40.5t-9 41.5q43 -55 100.5 -131 t111.5 -153.5t99 -150.5t64 -118q72 -66 115.5 -107.5t67 -74.5t31 -61.5t7.5 -67.5q0 -66 44 -94.5t122 -28.5h20q25 0 35 16.5t14 40t3 50t-1 45.5q0 70 -4 156.5t-10 178t-10 182.5t-4 169q0 106 8 192t27 154q-23 61 -23 151q0 12 2 37t4 56.5t4 67.5t2 71v35l-39 41 q-43 -16 -85 -18.5t-73.5 -10.5t-52 -29.5t-20.5 -75.5q0 -57 39 -88l-8 -786l-49 45q-12 53 -54.5 99t-91.5 69q-27 51 -68.5 105.5t-91 114.5t-102.5 128t-98 143v2q-41 74 -92.5 148t-145.5 127q0 -51 3 -96t6 -89t6.5 -89.5t3.5 -96.5q0 -31 -2.5 -66.5t-6.5 -72.5 q-16 -152 -24 -263.5t-8 -187.5l-2 -286q-18 -35 -25.5 -77t-7.5 -89zM254 1995q0 -68 65 -68q39 0 89 29l20 49q4 0 12.5 2t18.5 6q45 -16 77.5 -29.5t36.5 -13.5q6 -4 13.5 -5t11.5 -5v4q29 -16 54.5 -21.5t41.5 -5.5q47 0 111.5 21.5t120.5 91.5q-12 98 -131 109 q-18 -29 -55.5 -48.5t-67.5 -19.5q-27 0 -56 18q-47 23 -88 33t-73 10q-98 0 -201 -145v-12z" />
<glyph unicode="&#xd2;" horiz-adv-x="1630" d="M39 762q0 -330 213 -561q279 -201 545 -201q79 0 145 14q113 25 218.5 86.5t192.5 149.5t149.5 194.5t88.5 221.5q-2 10 -8 87.5t-12 229.5q-8 186 -66.5 310t-155 200t-225.5 107.5t-278 31.5q-104 0 -204.5 -23.5t-195.5 -68.5q-14 -31 -55 -60.5t-86 -57t-84 -53.5 t-47 -50q-66 -143 -100.5 -282.5t-34.5 -274.5zM270 674q25 55 25 131q0 18 -4 56t-4 83v39q35 88 84 168t110 158q20 2 56 10t74 17.5t72 17.5t50 8q20 0 51 -8q63 29 140 28q57 0 107 -11t95 -35.5t90.5 -66.5t94.5 -104q23 -33 34 -56.5t11 -43.5q0 -14 -4 -25.5 t-9 -21.5l-4 -8q-2 -35 -17 -80t-32 -84q41 -74 41 -150q0 -82 -49 -167t-141 -171q-10 -10 -33 -10q-8 0 -14 2h-19q-61 0 -65 -53q-51 -23 -111.5 -35t-132.5 -12q-43 0 -93 4t-99.5 16.5t-92.5 35t-69 59.5v-3q-10 18 -24.5 58.5t-33 87.5t-40 92t-44.5 74zM621 2042 q0 -20 10 -37.5t26.5 -31t36 -20.5t35.5 -7h14l197 -97l72 97l-242 213q-76 -16 -112.5 -43t-36.5 -74z" />
<glyph unicode="&#xd3;" horiz-adv-x="1630" d="M39 760q0 -330 213 -561q279 -201 545 -201q79 0 145 14q113 25 218.5 86.5t192.5 149.5t149.5 194.5t88.5 221.5q-2 10 -8 87.5t-12 229.5q-8 186 -66.5 310t-155 200t-225.5 107.5t-278 31.5q-104 0 -204.5 -23.5t-195.5 -68.5q-14 -31 -55 -60.5t-86 -57t-84 -53.5 t-47 -50q-66 -143 -100.5 -282.5t-34.5 -274.5zM270 672q25 55 25 131q0 18 -4 56t-4 83v39q35 88 84 168t110 158q20 2 56 10t74 17t72 17.5t50 8.5q20 0 51 -8q63 29 140 28q57 0 107 -11t95 -35.5t90.5 -66.5t94.5 -104q23 -33 34 -56.5t11 -43.5q0 -14 -4 -25.5 t-9 -21.5l-4 -8q-2 -35 -17 -80t-32 -84q41 -74 41 -150q0 -82 -49 -167t-141 -171q-10 -10 -33 -10q-8 0 -14 2h-19q-61 0 -65 -53q-51 -23 -111.5 -35t-132.5 -12q-43 0 -93 4t-99.5 16.5t-92.5 35t-69 58.5v-2q-10 18 -24.5 58.5t-33 87.5t-40 92t-44.5 74zM608 1919h25 v-8q0 -51 76 -76q172 45 309 162q-16 45 -40 88t-79 76q-6 -8 -15.5 -16.5t-13.5 -14.5l-20 -14q-10 -4 -21 -15l-34 -18h10q-16 -16 -23 -25l-2 2q-10 -16 -45 -47t-84 -65l-2 -2q-10 -6 -20.5 -13.5t-20.5 -13.5z" />
<glyph unicode="&#xd4;" horiz-adv-x="1630" d="M39 766q0 -330 213 -561q279 -201 545 -201q79 0 145 14q113 25 218.5 86.5t192.5 149.5t149.5 194.5t88.5 221.5q-2 10 -8 88t-12 229q-8 186 -66.5 310t-155 200t-225.5 107.5t-278 31.5q-104 0 -204.5 -23.5t-195.5 -68.5q-14 -31 -55 -60.5t-86 -57t-84 -53 t-47 -50.5q-66 -143 -100.5 -282.5t-34.5 -274.5zM270 678q25 55 25 131q0 18 -4 56t-4 83v39q35 88 84 168t110 158q20 2 56 10t74 17.5t72 17.5t50 8q20 0 51 -8q63 29 140 28q57 0 107 -11t95 -35.5t90.5 -66.5t94.5 -104q23 -33 34 -56t11 -44q0 -14 -4 -25.5t-9 -21.5 l-4 -8q-2 -35 -17 -80t-32 -84q41 -74 41 -150q0 -82 -49 -166.5t-141 -171.5q-10 -10 -33 -10q-8 0 -14 2h-19q-61 0 -65 -53q-51 -23 -111.5 -35t-132.5 -12q-43 0 -93 4t-99.5 16.5t-92.5 35t-69 59.5v-2q-10 18 -24.5 58t-33 87t-40 92t-44.5 74zM457 1886 q14 -98 104 -98q27 0 60.5 16.5t69.5 40t68 49t52 43.5v-2q6 4 12 11q53 -31 105.5 -79t105.5 -108q125 25 137 137l-10 13l-317 237q-39 -10 -94.5 -37.5t-111.5 -64.5t-105.5 -79t-75.5 -79z" />
<glyph unicode="&#xd5;" horiz-adv-x="1630" d="M39 768q0 -330 213 -561q279 -201 545 -201q79 0 145 14q113 25 218.5 86.5t192.5 149.5t149.5 194.5t88.5 221.5q-2 10 -8 88t-12 229q-8 186 -66.5 310t-155 200t-225.5 107.5t-278 31.5q-104 0 -204.5 -23.5t-195.5 -68.5q-14 -31 -55 -60.5t-86 -57t-84 -53 t-47 -50.5q-66 -143 -100.5 -282.5t-34.5 -274.5zM270 680q25 55 25 131q0 18 -4 56t-4 83v39q35 88 84 168t110 158q20 2 56 10t74 17.5t72 17.5t50 8q20 0 51 -8q63 29 140 29q57 0 107 -11.5t95 -36t90.5 -66.5t94.5 -104q23 -33 34 -56t11 -44q0 -14 -4 -25.5t-9 -21.5 l-4 -8q-2 -35 -17 -80t-32 -84q41 -74 41 -150q0 -82 -49 -166.5t-141 -170.5q-10 -10 -33 -11q-8 0 -14 2h-19q-61 0 -65 -53q-51 -23 -111.5 -35t-132.5 -12q-43 0 -93 4t-99.5 16.5t-92.5 35t-69 59.5v-2q-10 18 -24.5 58t-33 87t-40 92t-44.5 74zM477 1995q0 -68 66 -68 q39 0 88 29l20 49q4 0 12.5 2t18.5 6q45 -16 78 -29.5t37 -13.5q6 -4 13 -5t11 -5v4q29 -16 54.5 -21.5t42.5 -5.5q47 0 111.5 21.5t119.5 91.5q-12 98 -131 109q-18 -29 -55 -48.5t-68 -19.5q-27 0 -55 18q-47 23 -88 33t-74 10q-98 0 -201 -145v-12z" />
<glyph unicode="&#xd6;" horiz-adv-x="1630" d="M39 760q0 -330 213 -561q279 -201 545 -201q79 0 145 14q113 25 218.5 86.5t192.5 149.5t149.5 194.5t88.5 221.5q-2 10 -8 87.5t-12 229.5q-8 186 -66.5 310t-155 200t-225.5 107.5t-278 31.5q-104 0 -204.5 -23.5t-195.5 -68.5q-14 -31 -55 -60.5t-86 -57t-84 -53.5 t-47 -50q-66 -143 -100.5 -282.5t-34.5 -274.5zM270 672q25 55 25 131q0 18 -4 56t-4 83v39q35 88 84 168t110 158q20 2 56 10t74 17t72 17.5t50 8.5q20 0 51 -8q63 29 140 28q57 0 107 -11t95 -35.5t90.5 -66.5t94.5 -104q23 -33 34 -56.5t11 -43.5q0 -14 -4 -25.5 t-9 -21.5l-4 -8q-2 -35 -17 -80t-32 -84q41 -74 41 -150q0 -82 -49 -167t-141 -171q-10 -10 -33 -10q-8 0 -14 2h-19q-61 0 -65 -53q-51 -23 -111.5 -35t-132.5 -12q-43 0 -93 4t-99.5 16.5t-92.5 35t-69 58.5v-2q-10 18 -24.5 58.5t-33 87.5t-40 92t-44.5 74zM424 1960 l6 -10q4 -12 10 -17l2 2q16 -14 38 -22t43.5 -11.5t36.5 -4.5t20 -1q4 0 15 3.5t11 7.5h2q4 0 17.5 -2t31.5 -2q31 8 40.5 35.5t9.5 52.5v69l-11 6q12 20 13 37q0 18 -28 29.5t-63.5 16.5t-66.5 6.5t-37 1.5q-14 0 -22 -3h-5q-10 0 -14 -2h-10l-19 -10q-8 -20 -8 -31 q0 -8 3 -21t7.5 -27.5t7.5 -27t3 -14.5q0 -12 -14.5 -23t-14.5 -30zM903 2101q0 -4 1 -18.5t5 -20.5l-4 -4v-67q0 -29 6.5 -51.5t30.5 -32.5l-4 -4h14q6 -2 21 -2q8 0 16 4h4q6 2 13 2l4 -1t8 -3h-2q4 -4 9 -5l5 -2h23q23 0 57.5 5.5t58.5 31.5h2q4 4 8.5 13.5t6.5 13.5 l-4 6q0 20 -14.5 32.5t-14.5 22.5q0 2 3 13.5t7 26t7.5 28.5t3.5 20t-2.5 15.5t-6.5 19.5l-20 4q-10 4 -13.5 5t-7.5 1h-6l6 -2l-14 3.5t-14 1.5q-27 0 -52 -9h-24q-20 0 -41 -1t-38 -6t-27.5 -14t-10.5 -26zM909 2062v4v-2q2 0 2 -2h-2z" />
<glyph unicode="&#xd7;" horiz-adv-x="1001" d="M-14 1028q0 -29 6 -47q72 -61 116 -104t74.5 -74t52 -53.5t48.5 -44.5q-20 -16 -49 -45t-62 -67t-64.5 -85t-58.5 -98q-10 -10 -12 -16.5t-2 -16.5v-27q0 -72 63 -71h23q10 2 16 2q23 0 47 -19q10 4 20.5 11.5t20.5 17.5v-4q31 39 55.5 77.5t45 71.5t38 58.5t35.5 40.5 l27 20q16 -20 57 -69.5t92.5 -100.5t105.5 -91t97 -40q88 0 88 115q0 14 -4 34q4 8 4 15q0 25 -73.5 98.5t-221.5 202.5q14 18 54.5 50t86.5 70t89 78.5t63 79.5q-35 70 -143 148q-131 -98 -197.5 -166t-103.5 -115l-270 277q-164 -4 -164 -113z" />
<glyph unicode="&#xd8;" horiz-adv-x="1630" d="M39 760q0 -82 14.5 -166t45 -162t76.5 -144.5t110 -113.5q-33 -33 -57.5 -74t-24.5 -69q0 -31 18.5 -50.5t42 -29.5t43 -13.5t21.5 -3.5q27 0 43 1.5t27.5 8.5t21.5 21.5t29 42.5q0 8 -5 21l31 37q162 -68 320 -68q82 0 145 14q113 25 218.5 86.5t192.5 149.5 t150.5 194.5t89.5 221.5q-2 10 -8 88.5t-14 230.5q-4 100 -18.5 176t-39 134.5t-61.5 103.5t-86 84q29 86 47 166l-31 10h2q-6 4 -18 4q-10 0 -30.5 -8t-45 -20.5t-51.5 -29t-45 -32.5q-170 61 -348 61q-104 0 -203.5 -23.5t-196.5 -68.5q-12 -31 -51 -59.5t-85 -57 t-85 -54.5t-51 -50q-133 -289 -133 -559zM270 672q23 53 23 133q0 20 -3 59t-3 80v39q72 174 192 326q20 2 56 10t74 17.5t72 17.5t52 8t49 -8q35 16 70 22t70 6q70 0 141 -22q-72 -121 -164 -262.5t-184 -278.5t-174 -256t-133 -194q-6 10 -12.5 27t-14.5 40 q-20 57 -50 127t-61 109zM623 258l57 74q12 104 59 198.5t146 210.5q72 86 114.5 143.5l59.5 80.5l-4 10q10 16 22.5 35.5t31.5 50.5t49 79t79 120q12 -12 32.5 -37t39 -53.5t33 -57.5t14.5 -47q0 -14 -4 -26.5t-9 -22.5l-4 -8q-4 -33 -18 -78t-31 -86q39 -72 39 -148 q0 -162 -188 -340q-10 -10 -35 -10q-8 0 -14 2h-19q-61 0 -65 -51q-51 -23 -111.5 -36t-132.5 -13q-33 0 -67.5 2t-73.5 8z" />
<glyph unicode="&#xd9;" horiz-adv-x="1214" d="M16 1096q39 -98 39 -250q0 -18 -1 -59.5t-3 -87.5t-3 -91t-1 -71q0 -113 24.5 -211.5t84 -170t160 -113.5t251.5 -42q76 0 134.5 7t104.5 29.5t83 62.5t72 106q18 37 32.5 55.5t25.5 38.5t20.5 53t21.5 99q6 39 15 81.5t17.5 87t13.5 85t3 73.5v53q0 4 -1 10.5t-1 12.5 q0 57 14.5 157.5t30.5 211t30.5 214t14.5 167.5q-53 18 -106.5 26t-106.5 8h-27q-45 -6 -71.5 -12t-39.5 -14t-17.5 -20.5t-4.5 -30.5q0 -16 2 -25q-4 -10 -4 -31q0 -16 12.5 -40.5t41.5 -55.5q16 -23 16 -35q0 -37 -4 -79t-4 -83q0 -31 2 -94t3 -133t3 -133.5t2 -93.5 q0 -59 -4 -126t-10 -138q-55 -98 -87 -146.5t-62 -69t-69.5 -24.5t-115.5 -12q-80 4 -134.5 26.5t-78.5 63.5q-12 59 -23.5 150t-20.5 194.5t-15.5 210t-12.5 198t-10 157t-6 87.5v12q0 12 4 37t9 51.5t9 52t4 38.5q0 18 -4 36.5t-16 47.5l-197 -45q-20 -150 -29.5 -258.5 t-9.5 -180.5v-24zM418 2042q0 -20 10 -37.5t26.5 -31t36 -20.5t35.5 -7h15l196 -97l72 97l-242 213q-76 -16 -112.5 -43t-36.5 -74z" />
<glyph unicode="&#xda;" horiz-adv-x="1214" d="M16 1096q39 -98 39 -250q0 -18 -1 -59.5t-3 -87.5t-3 -91t-1 -71q0 -113 24.5 -211.5t84 -170t160 -113.5t251.5 -42q76 0 134.5 7t104.5 29.5t83 62.5t72 106q18 37 32.5 55.5t25.5 38.5t20.5 53t21.5 99q6 39 15 81.5t17.5 87t13.5 85t3 73.5v53q0 4 -1 10.5t-1 12.5 q0 57 14.5 157.5t30.5 211t30.5 214t14.5 167.5q-53 18 -106.5 26t-106.5 8h-27q-45 -6 -71.5 -12t-39.5 -14t-17.5 -20.5t-4.5 -30.5q0 -16 2 -25q-4 -10 -4 -31q0 -16 12.5 -40.5t41.5 -55.5q16 -23 16 -35q0 -37 -4 -79t-4 -83q0 -31 2 -94t3 -133t3 -133.5t2 -93.5 q0 -59 -4 -126t-10 -138q-55 -98 -87 -146.5t-62 -69t-69.5 -24.5t-115.5 -12q-80 4 -134.5 26.5t-78.5 63.5q-12 59 -23.5 150t-20.5 194.5t-15.5 210t-12.5 198t-10 157t-6 87.5v12q0 12 4 37t9 51.5t9 52t4 38.5q0 18 -4 36.5t-16 47.5l-197 -45q-20 -150 -29.5 -258.5 t-9.5 -180.5v-24zM406 1919h24v-8q0 -51 76 -76q172 45 309 162q-16 45 -39.5 88t-79.5 76q-6 -8 -15 -16.5t-13 -14.5l-21 -14q-10 -4 -20 -15l-35 -18h10q-16 -16 -22 -25l-2 2q-10 -16 -45 -47t-84 -65l-3 -2q-10 -6 -20 -13.5t-20 -13.5z" />
<glyph unicode="&#xdb;" horiz-adv-x="1214" d="M16 1096q39 -98 39 -250q0 -18 -1 -59.5t-3 -87.5t-3 -91t-1 -71q0 -113 24.5 -211.5t84 -170t160 -113.5t251.5 -42q76 0 134.5 7t104.5 29.5t83 62.5t72 106q18 37 32.5 55.5t25.5 38.5t20.5 53t21.5 99q6 39 15 81.5t17.5 87t13.5 85t3 73.5v53q0 4 -1 10.5t-1 12.5 q0 57 14.5 157.5t30.5 211t30.5 214t14.5 167.5q-53 18 -106.5 26t-106.5 8h-27q-45 -6 -71.5 -12t-39.5 -14t-17.5 -20.5t-4.5 -30.5q0 -16 2 -25q-4 -10 -4 -31q0 -16 12.5 -40.5t41.5 -55.5q16 -23 16 -35q0 -37 -4 -79t-4 -83q0 -31 2 -94t3 -133t3 -133.5t2 -93.5 q0 -59 -4 -126t-10 -138q-55 -98 -87 -146.5t-62 -69t-69.5 -24.5t-115.5 -12q-80 4 -134.5 26.5t-78.5 63.5q-12 59 -23.5 150t-20.5 194.5t-15.5 210t-12.5 198t-10 157t-6 87.5v12q0 12 4 37t9 51.5t9 52t4 38.5q0 18 -4 36.5t-16 47.5l-197 -45q-20 -150 -29.5 -258.5 t-9.5 -180.5v-24zM260 1886q14 -98 105 -98q27 0 60.5 16.5t69 40t67.5 49t52 43.5v-2q6 4 13 11q53 -31 105 -79t106 -108q125 25 137 137l-10 13l-318 237q-39 -10 -94 -37.5t-111.5 -64.5t-105.5 -79t-76 -79z" />
<glyph unicode="&#xdc;" horiz-adv-x="1214" d="M16 1096q39 -98 39 -250q0 -18 -1 -59.5t-3 -87.5t-3 -91t-1 -71q0 -113 24.5 -211.5t84 -170t160 -113.5t251.5 -42q76 0 134.5 7t104.5 29.5t83 62.5t72 106q18 37 32.5 55.5t25.5 38.5t20.5 53t21.5 99q6 39 15 81.5t17.5 87t13.5 85t3 73.5v53q0 4 -1 10.5t-1 12.5 q0 57 14.5 157.5t30.5 211t30.5 214t14.5 167.5q-53 18 -106.5 26t-106.5 8h-27q-45 -6 -71.5 -12t-39.5 -14t-17.5 -20.5t-4.5 -30.5q0 -16 2 -25q-4 -10 -4 -31q0 -16 12.5 -40.5t41.5 -55.5q16 -23 16 -35q0 -37 -4 -79t-4 -83q0 -31 2 -94t3 -133t3 -133.5t2 -93.5 q0 -59 -4 -126t-10 -138q-55 -98 -87 -146.5t-62 -69t-69.5 -24.5t-115.5 -12q-80 4 -134.5 26.5t-78.5 63.5q-12 59 -23.5 150t-20.5 194.5t-15.5 210t-12.5 198t-10 157t-6 87.5v12q0 12 4 37t9 51.5t9 52t4 38.5q0 18 -4 36.5t-16 47.5l-197 -45q-20 -150 -29.5 -258.5 t-9.5 -180.5v-24zM229 1960l7 -10q4 -12 10 -17l2 2q16 -14 37.5 -22t43 -11.5t37 -4.5t19.5 -1t15.5 3.5t11.5 7.5h2q4 0 17 -2t32 -2q31 8 40 35.5t9 52.5v69l-10 6q12 20 12 37q0 18 -27.5 29.5t-63.5 16.5t-66.5 6.5t-37.5 1.5q-14 0 -22 -3h-4q-10 0 -14 -2h-11 l-18 -10q-8 -20 -8 -31q0 -8 3 -21t7 -27.5t7 -27t3 -14.5q0 -12 -14.5 -23t-14.5 -30zM709 2101q0 -4 1 -18.5t5 -20.5l-4 -4v-67q0 -29 6 -51.5t31 -32.5l-5 -4h15q6 -2 20 -2q8 0 17 4h4q6 2 12 2l4 -1t8 -3h-2q4 -4 9 -5l6 -2h22q23 0 57.5 5.5t59.5 31.5h2q4 4 8 13.5 t6 13.5l-4 6q0 20 -14.5 32.5t-14.5 22.5q0 2 3.5 13.5t7.5 26t7 28.5t3 20t-2 15.5t-6 19.5l-21 4q-10 4 -13 5t-7 1h-6l6 -2q-8 2 -14.5 3.5t-14.5 1.5q-27 0 -51 -9h-25q-20 0 -40.5 -1t-38 -6t-27.5 -14t-10 -26zM715 2062v4v-2q2 0 2 -2h-2z" />
<glyph unicode="&#xdd;" horiz-adv-x="1169" d="M6 1485q51 -27 87 -49.5t69 -57.5t68.5 -88t91.5 -141q27 -45 56.5 -79t56 -61.5t48 -51t31.5 -48.5l4 -288q2 -96 10.5 -192.5t18.5 -201.5q-47 -57 -47 -159q0 -59 21.5 -83t80.5 -24h14q12 0 23 2h33q14 0 23.5 -1t19.5 -5q96 4 96 70q0 8 -1 10l-3 6v6 q-68 270 -68 684l-2 8v66t-2 63q45 74 87 158t81 161t74 136t63 82h9q35 0 54 11.5t29.5 33t14.5 52t8 71.5q0 10 2 28.5t4 28.5q-63 6 -101 8t-42 2q-86 0 -133 -34l-142 -291v2q-35 -66 -66.5 -125t-60.5 -109q-6 14 -7 19.5t-5 15.5t-14 32t-37 65q-25 43 -59.5 101 t-76.5 117.5t-88 115t-93 91.5q-23 -6 -35 -6q-27 0 -64 5.5t-45 5.5q-16 0 -32.5 -4.5t-45.5 -16.5v-24q0 -10 4 -19v2q2 -8 2 -14q0 -8 -4 -29.5t-10 -56.5zM367 1919h24v-8q0 -51 76 -76q172 45 309 162q-16 45 -39.5 88t-79.5 76q-6 -8 -15 -16.5t-13 -14.5l-21 -14 q-10 -4 -20 -15l-35 -18h10q-16 -16 -22 -25l-2 2q-10 -16 -45 -47t-84 -65l-2 -2q-10 -6 -20.5 -13.5t-20.5 -13.5z" />
<glyph unicode="&#xde;" horiz-adv-x="905" d="M-2 1419q0 -293 29 -461q-2 -10 -3 -19t-1 -19q0 -43 10 -80q-4 -18 -5 -74.5t-3 -127.5t-2 -144v-129q0 -119 1 -233t5 -204q147 -66 184 -65q74 0 74 76v6q0 8 -4 16l2 -2q-4 10 -9.5 29.5t-5.5 42.5v8h-20l20 2q-6 23 -8 40t-2 30l16 127q51 10 116 36.5t131.5 62.5 t131 76t114.5 79.5t81 75.5t31 61q0 20 -3.5 30.5t-3.5 20.5t4.5 36.5t8.5 58.5t8 63t4 49q0 74 -64.5 143.5t-162 124.5t-212 90t-216.5 39l-13 76q-18 100 -18 174q0 82 45 127q-37 27 -60.5 45t-42 29.5t-35 16.5t-36.5 5q-33 0 -50.5 -22.5t-25.5 -63.5t-9 -97t-1 -126 v-29zM248 483v31q0 18 2 72.5t3 118t3 121t2 85.5q0 45 -2 81t-4 65q96 -2 159.5 -9.5t96.5 -17.5h2q35 -12 58.5 -58t36.5 -102.5t19.5 -110.5t6.5 -85q0 -45 -50.5 -79t-117 -56.5t-129 -37t-86.5 -18.5z" />
<glyph unicode="&#xdf;" horiz-adv-x="1079" d="M66 1020q18 -135 25 -242.5t7 -175.5l4 -49l-5 -32t-9 -82t-8 -110.5t-4 -113.5v-12q0 -72 5 -156t19 -184q47 -20 72 -31.5t64 -11.5q117 0 116 86q0 29 -16 49l-66 1040q-8 39 -8 78q0 55 16.5 103.5t44 85t64.5 58t78 21.5q59 0 102 -58t58 -165q-29 -31 -59.5 -74 t-59.5 -96q-12 -20 -21.5 -32.5t-15.5 -24.5t-9 -26.5t-3 -39.5h20q0 -49 19.5 -76.5t27.5 -41.5v2l11 -33q326 -152 325 -322q0 -31 -11 -45t-27.5 -23.5t-38 -19.5t-40.5 -33q-16 -18 -26 -18q-53 0 -77 29.5t-52 93.5v8q0 37 -28 52.5t-58 15.5q-121 0 -121 -156 q10 -25 21.5 -48.5t25.5 -45.5h-2q18 -33 37 -58v7q49 -53 116.5 -76t141.5 -23q51 0 88 4.5t69.5 18.5t65.5 40.5t78 72.5h-4q76 98 76 219q0 39 -23.5 93t-59.5 105t-81 92t-88 54q-158 47 -158 112q0 14 29.5 63.5t65.5 109t65.5 116.5t32.5 90q0 51 -38 109.5 t-95.5 107.5t-125 82t-126.5 33q-96 0 -141.5 -10t-69 -27.5t-42 -43t-57.5 -56.5q-41 -31 -63.5 -62.5t-33.5 -73.5t-14 -100.5t-5 -142.5z" />
<glyph unicode="&#xe0;" d="M78 328l28 -74q4 -18 24 -58t47.5 -84t59 -83t60.5 -52h-2q6 -4 14 -9t10 -5v2l-2 2q37 -25 76 -47t74 -22q10 0 18.5 2t18.5 6v2q18 6 25.5 18.5t15.5 26.5t19 28.5t36 26.5q63 41 128 84t115 89t81.5 97.5t31.5 108.5q0 43 -6 80t-22.5 82t-46 102.5t-76.5 136.5l-2 -2 q-18 51 -34.5 85t-31 57.5t-27 39t-22.5 27.5l-20 21q-8 23 -33 31t-57 8h-21q-6 0 -12 -1t-13 -1h-34q-33 0 -46.5 5t-21.5 12t-18.5 12t-34.5 5q-25 0 -49.5 -4t-42.5 -4h-21q-88 0 -155 -86q4 -84 33.5 -108.5t82.5 -24.5q51 0 98.5 9.5t92.5 9.5q31 0 54.5 -5.5 t44 -20.5t37.5 -41t38 -64q-13 6 -31 8q-8 0 -10 2h2q-14 4 -26.5 5t-30.5 1q-29 -10 -50.5 -33.5t-37.5 -52.5q-35 -55 -91.5 -91t-108.5 -70t-90 -76t-38 -113zM289 1524q0 -20 10 -38t26.5 -31t36 -20.5t35.5 -7.5h15l196 -96l72 96l-242 213q-76 -16 -112.5 -42.5 t-36.5 -73.5zM324 330q16 35 49 71.5t74.5 68.5t93 55.5t104.5 31.5q10 12 16.5 13t10.5 18q20 -39 31.5 -73t21.5 -75l8 -30q8 -12 9 -17.5t0 -8.5t-4 -5t-1 -6q-29 -37 -64.5 -72t-71.5 -60.5t-69.5 -42t-56.5 -16.5q-10 0 -22.5 6.5t-24.5 13.5t-22 14l-9 7h2 q-18 12 -31.5 21.5t-21.5 20.5t-13 26.5t-9 38.5z" />
<glyph unicode="&#xe1;" d="M78 328l28 -74q4 -18 24 -58t47.5 -84t59 -83t60.5 -52h-2q6 -4 14 -9t10 -5v2l-2 2q37 -25 76 -47t74 -22q10 0 18.5 2t18.5 6v2q18 6 25.5 18.5t15.5 26.5t19 28.5t36 26.5q63 41 128 84t115 89t81.5 97.5t31.5 108.5q0 43 -6 80t-22.5 82t-46 102.5t-76.5 136.5l-2 -2 q-18 51 -34.5 85t-31 57.5t-27 39t-22.5 27.5l-20 21q-8 23 -33 31t-57 8h-21q-6 0 -12 -1t-13 -1h-34q-33 0 -46.5 5t-21.5 12t-18.5 12t-34.5 5q-25 0 -49.5 -4t-42.5 -4h-21q-88 0 -155 -86q4 -84 33.5 -108.5t82.5 -24.5q51 0 98.5 9.5t92.5 9.5q31 0 54.5 -5.5 t44 -20.5t37.5 -41t38 -64q-13 6 -31 8q-8 0 -10 2h2q-14 4 -26.5 5t-30.5 1q-29 -10 -50.5 -33.5t-37.5 -52.5q-35 -55 -91.5 -91t-108.5 -70t-90 -76t-38 -113zM281 1407h24v-8q0 -51 76 -76q172 45 309 162q-16 45 -39.5 88t-79.5 76q-6 -8 -15 -16.5t-13 -14.5l-21 -14 q-10 -4 -20 -15l-35 -18h10q-16 -16 -22 -25l-2 2q-10 -16 -45 -47t-84 -65l-2 -2q-10 -6 -20.5 -13.5t-20.5 -13.5zM324 330q16 35 49 71.5t74.5 68.5t93 55.5t104.5 31.5q10 12 16.5 13t10.5 18q20 -39 31.5 -73t21.5 -75l8 -30q8 -12 9 -17.5t0 -8.5t-4 -5t-1 -6 q-29 -37 -64.5 -72t-71.5 -60.5t-69.5 -42t-56.5 -16.5q-10 0 -22.5 6.5t-24.5 13.5t-22 14l-9 7h2q-18 12 -31.5 21.5t-21.5 20.5t-13 26.5t-9 38.5z" />
<glyph unicode="&#xe2;" d="M78 328l28 -74q4 -18 24 -58t47.5 -84t59 -83t60.5 -52h-2q6 -4 14 -9t10 -5v2l-2 2q37 -25 76 -47t74 -22q10 0 18.5 2t18.5 6v2q18 6 25.5 18.5t15.5 26.5t19 28.5t36 26.5q63 41 128 84t115 89t81.5 97.5t31.5 108.5q0 43 -6 80t-22.5 82t-46 102.5t-76.5 136.5l-2 -2 q-18 51 -34.5 85t-31 57.5t-27 39t-22.5 27.5l-20 21q-8 23 -33 31t-57 8h-21q-6 0 -12 -1t-13 -1h-34q-33 0 -46.5 5t-21.5 12t-18.5 12t-34.5 5q-25 0 -49.5 -4t-42.5 -4h-21q-88 0 -155 -86q4 -84 33.5 -108.5t82.5 -24.5q51 0 98.5 9.5t92.5 9.5q31 0 54.5 -5.5 t44 -20.5t37.5 -41t38 -64q-13 6 -31 8q-8 0 -10 2h2q-14 4 -26.5 5t-30.5 1q-29 -10 -50.5 -33.5t-37.5 -52.5q-35 -55 -91.5 -91t-108.5 -70t-90 -76t-38 -113zM143 1374q14 -98 105 -98q27 0 60.5 16.5t69.5 40t67.5 49t52.5 43.5v-2q6 4 12 11q53 -31 105.5 -79 t105.5 -108q125 25 137 137l-10 13l-318 237q-39 -10 -94 -37.5t-111.5 -64.5t-105.5 -79t-76 -79zM324 330q16 35 49 71.5t74.5 68.5t93 55.5t104.5 31.5q10 12 16.5 13t10.5 18q20 -39 31.5 -73t21.5 -75l8 -30q8 -12 9 -17.5t0 -8.5t-4 -5t-1 -6q-29 -37 -64.5 -72 t-71.5 -60.5t-69.5 -42t-56.5 -16.5q-10 0 -22.5 6.5t-24.5 13.5t-22 14l-9 7h2q-18 12 -31.5 21.5t-21.5 20.5t-13 26.5t-9 38.5z" />
<glyph unicode="&#xe3;" d="M78 324l28 -74q4 -18 24 -58t47.5 -84.5t59 -83t60.5 -51.5h-2q6 -4 14 -9t10 -5v2l-2 2q37 -25 76 -47t74 -22q10 0 18.5 2t18.5 6v2q18 6 25.5 18t15.5 26.5t19 29t36 26.5q63 41 128 84t115 89t81.5 97.5t31.5 108.5q0 43 -6 80t-22.5 82t-46 102.5t-76.5 136.5l-2 -2 q-18 51 -34.5 85t-31 57.5t-27 39t-22.5 27.5l-20 21q-8 23 -33 31t-57 8h-21q-6 0 -12 -1t-13 -1h-34q-33 0 -46.5 5t-21.5 12t-18.5 12t-34.5 5q-25 0 -49.5 -4t-42.5 -4h-21q-88 0 -155 -86q4 -84 33.5 -108.5t82.5 -24.5q51 0 98.5 9t92.5 9q31 0 54.5 -5t44 -20 t37.5 -41t38 -65q-13 7 -31 9q-8 0 -10 2h2q-14 4 -26.5 5t-30.5 1q-29 -10 -50.5 -34t-37.5 -52q-35 -55 -91.5 -91t-108.5 -70t-90 -76t-38 -113zM154 1483q0 -68 65 -68q39 0 88 29l21 49q4 0 12 2t18 6q45 -16 78 -29.5t37 -13.5q6 -4 13.5 -5t11.5 -5v4 q29 -16 54.5 -21.5t41.5 -5.5q47 0 111.5 21.5t119.5 91.5q-12 98 -131 109q-18 -29 -55 -48.5t-68 -19.5q-27 0 -55 18q-47 23 -88 33t-74 10q-98 0 -200 -145v-12zM324 326q16 35 49 71.5t74.5 68.5t93 55.5t104.5 31.5q10 12 16.5 13t10.5 18q20 -39 31.5 -73t21.5 -75 l8 -30q8 -12 9 -17.5t0 -8.5t-4 -5t-1 -6q-29 -37 -64.5 -72t-71.5 -60.5t-69.5 -42t-56.5 -16.5q-10 0 -22.5 6t-24.5 13.5t-22 14.5l-9 7h2q-18 12 -31.5 21.5t-21.5 20.5t-13 26.5t-9 38.5z" />
<glyph unicode="&#xe4;" d="M78 332l28 -74q4 -18 24 -58t47.5 -84t59 -83t60.5 -51h-2q6 -4 14 -9.5t10 -5.5v2l-2 2q37 -25 76 -47t74 -22q10 0 18.5 2t18.5 6v2q18 6 25.5 18.5t15.5 26.5t19 28.5t36 26.5q63 41 128 84t115 89t81.5 97.5t31.5 108.5q0 43 -6 80t-22.5 82t-46 102.5t-76.5 137.5 l-2 -2q-18 51 -34.5 84.5t-31 57t-27 39t-22.5 27.5l-20 21q-8 23 -33 31t-57 8h-21q-6 0 -12 -1t-13 -1h-34q-33 0 -46.5 5t-21.5 12t-18.5 12.5t-34.5 5.5q-25 0 -49.5 -4.5t-42.5 -4.5h-21q-88 0 -155 -86q4 -84 33.5 -108.5t82.5 -24.5q51 0 98.5 9.5t92.5 9.5 q31 0 54.5 -5.5t44 -20.5t37.5 -40.5t38 -64.5q-13 6 -31 8q-8 0 -10 2h2q-14 4 -26.5 5t-30.5 1q-29 -10 -50.5 -33.5t-37.5 -52.5q-35 -55 -91.5 -91t-108.5 -70t-90 -76t-38 -113zM109 1448l6 -10q4 -12 10 -17l2 2q16 -14 37.5 -22t43 -11.5t37 -4.5t19.5 -1t15.5 3.5 t11.5 7.5h2q4 0 17.5 -2t31.5 -2q31 8 40 35.5t9 52.5v69l-10 6q12 20 12 37q0 18 -27.5 29.5t-63.5 16.5t-66.5 6.5t-36.5 1.5q-14 0 -23 -3h-4q-10 0 -14 -2h-11l-18 -10q-8 -20 -8 -31q0 -8 3 -21t7 -27.5t7 -27t3 -14.5q0 -12 -14 -23t-14 -30zM324 334q16 35 49 71.5 t74.5 68.5t93 55.5t104.5 31.5q10 12 16.5 13t10.5 18q20 -39 31.5 -73t21.5 -75l8 -30q8 -12 9 -17.5t0 -8.5t-4 -5t-1 -6q-29 -37 -64.5 -72t-71.5 -60.5t-69.5 -42t-56.5 -16.5q-10 0 -22.5 6.5t-24.5 13.5t-22 14l-9 7h2q-18 12 -31.5 21.5t-21.5 21t-13 26.5t-9 38z M588 1589q0 -4 1 -18.5t5 -20.5l-4 -4v-67q0 -29 6 -51.5t31 -32.5l-4 -4h14q6 -2 20 -2q8 0 17 4h4q6 2 12 2l4 -1t8 -3h-2q4 -4 10 -5l5 -2h22q23 0 57.5 5.5t59.5 31.5h2q4 4 8 13.5t6 13.5l-4 6q0 20 -14 32.5t-14 22.5q0 2 3 13.5t7 26t7 28.5t3 20t-2 15.5t-6 19.5 l-21 4q-10 4 -13 5t-7 1h-6l6 -2q-8 2 -14.5 3.5t-14.5 1.5q-27 0 -51 -9h-24q-20 0 -41 -1t-38.5 -6t-27.5 -14t-10 -26zM594 1550v4v-2q2 0 2 -2h-2z" />
<glyph unicode="&#xe5;" d="M78 322l28 -74q4 -18 24 -58t47.5 -84.5t59 -83t60.5 -51.5h-2q6 -4 14 -9t10 -5v2l-2 2q37 -25 76 -47.5t74 -22.5q10 0 18.5 2.5t18.5 6.5v2q18 6 25.5 18t15.5 26.5t19 29t36 26.5q63 41 128 84t115 89t81.5 97.5t31.5 108.5q0 43 -6 80t-22.5 82t-46 102t-76.5 137 l-2 -2q-18 51 -34.5 85t-31 57.5t-27 39t-22.5 27.5l-20 21q-8 23 -33 31t-57 8h-21q-6 0 -12 -1t-13 -1h-34q-33 0 -46.5 5t-21.5 12t-18.5 12t-34.5 5q-25 0 -49.5 -4t-42.5 -4h-21q-88 0 -155 -86q4 -84 33.5 -108.5t82.5 -24.5q51 0 98.5 9t92.5 9q31 0 54.5 -5 t44 -20.5t37.5 -41t38 -64.5q-13 7 -31 9q-8 0 -10 2h2q-14 4 -26.5 5t-30.5 1q-29 -10 -50.5 -34t-37.5 -52q-35 -55 -91.5 -91t-108.5 -70t-90 -76t-38 -113zM289 1511q0 -51 17.5 -90t46 -64.5t65.5 -37.5t78 -12q127 0 221 176q10 0 10 18l-2 10q0 27 -18.5 49.5t-47 40 t-67.5 28.5t-78 16h-8q-27 0 -88 -31v2q-37 -20 -49 -21q-2 0 -3 1t-4 1h-12q-61 0 -61 -86zM324 324q16 35 49 71.5t74.5 68.5t93 55.5t104.5 31.5q10 12 16.5 13t10.5 18q20 -39 31.5 -73t21.5 -75l8 -31q8 -12 9 -17t0 -8t-4 -5t-1 -6q-29 -37 -64.5 -72t-71.5 -60.5 t-69.5 -42t-56.5 -16.5q-10 0 -22.5 6t-24.5 13.5t-22 14.5l-9 7h2q-18 12 -31.5 21.5t-21.5 20.5t-13 26.5t-9 38.5zM451 1473q0 20 17 34.5t42 14.5q45 0 45 -17q0 -4 -6 -16t-13.5 -26.5t-15.5 -26t-14 -11.5q-23 0 -39 12.5t-16 35.5z" />
<glyph unicode="&#xe6;" horiz-adv-x="1673" d="M100 330h39v-41h6v20q2 -10 19.5 -58t42 -104.5t55.5 -106.5t62 -63h-2q6 -4 15 -9t11 -5l-4 4q39 -25 78 -47t76 -22q8 0 17 2t20 4v2q14 6 22 15t13 19.5t10.5 21.5t15.5 24q72 41 148.5 89t138.5 101q16 -37 42.5 -87t56.5 -97t59.5 -80t54.5 -33q16 0 34.5 4t28.5 4 q4 0 16.5 -11t29 -24.5t38 -25.5t43.5 -14h17q96 0 163 92q-16 39 -36.5 56t-47 24.5t-56.5 12.5t-62.5 21.5t-67.5 51t-70 100.5q-6 6 -6 16q29 -10 60.5 -14t44.5 -4q23 6 35 22.5t21 35t16.5 33.5t19.5 22q74 59 134 96t103 67.5t67 65.5t24 94h-41q0 2 2 16.5t7 33 t11 18.5q-23 33 -50.5 81t-78.5 130h2q-20 33 -53 61.5t-70 49t-71.5 32.5t-55.5 12q-37 0 -52 -14t-24.5 -32.5t-20.5 -38t-42 -29.5v2q-63 -41 -131 -83t-117 -87q-4 10 -9 17t-9 18l-2 -3q-18 51 -35 85t-32 57.5t-27.5 39t-22.5 27.5l-21 21q-10 23 -33.5 31t-58.5 8 h-22q-6 0 -11.5 -1t-11.5 -1h-37q-33 0 -46 5t-22 12t-19.5 12.5t-34.5 5.5q-25 0 -48.5 -4.5t-46.5 -4.5h-22q-90 0 -158 -86q4 -84 36 -108.5t85 -24.5q49 0 99 9.5t93 9.5q61 0 100.5 -27t80.5 -106q-27 10 -57 14t-44 4q-29 -10 -51 -33.5t-39 -54.5q-33 -59 -89 -93 t-110.5 -66t-94.5 -74t-40 -115zM104 307q0 -10 2 -14q0 8 -2 14zM106 289q6 -31 12.5 -55.5t10.5 -24.5t7 18.5t3 61.5h-33zM350 332q18 33 50 65.5t75 59t94.5 45t106.5 26.5q10 10 17 23.5t12 28.5q10 -23 17 -43t15 -43q4 -10 8.5 -24.5t10.5 -29.5l-23 -6 q18 -23 26.5 -37t12.5 -24q-29 -35 -64.5 -69t-72.5 -60.5t-72 -44t-59 -17.5q-8 0 -19.5 5.5t-22.5 12.5t-21.5 14t-14.5 9h2q-41 23 -54.5 42.5t-23.5 66.5zM969 559q8 8 34.5 35t57.5 55.5t58.5 53t39.5 32.5h-2q20 8 38.5 12.5t43.5 4.5h16q37 -29 60.5 -44.5t37 -27.5 t21.5 -29.5t15 -50.5q-35 -72 -125 -124t-197 -68q-12 -12 -19.5 -29t-11.5 -33q-18 37 -30.5 71t-22.5 75l29 8q-37 43 -43 59zM1624 672q4 -4 5 -8.5t5 -8.5q-4 16 -10 17zM1634 655q2 -4 2 -6t2 -6v10h-2q0 2 -2 2zM1638 639q0 -4 2 -6q0 2 -1 3t-1 3z" />
<glyph unicode="&#xe7;" horiz-adv-x="858" d="M23 494q80 -88 160.5 -174.5t142.5 -139.5q-10 -6 -16.5 -8t-10.5 -4l-20 -8q-84 -53 -84 -113q0 -8 2 -14l2 -10q0 -16 12 -35t27.5 -36.5t28 -32.5t16.5 -23q131 -25 131 -70v-2q-2 -18 -45 -26.5t-94.5 -15.5t-94.5 -20.5t-43 -44.5q0 -70 133 -114q51 6 112.5 11 t113 20.5t86 47t34.5 91.5q0 18 -17 50t-39.5 63.5t-44 60t-28.5 45.5l-12 10q-4 2 -13 25.5t-9 35.5h57l59 -34q86 -29 123 -60v2l111 -100q66 25 65 90q0 6 -2 22.5t-3 35t-3 35t-2 22.5l-33 -19q-6 4 -18 18.5t-27 28.5h29q-8 4 -24.5 15.5t-32.5 21.5l-2 2 q-57 31 -118 68t-108 82q-8 10 -22.5 22.5t-28.5 24.5t-27.5 21.5t-17.5 11.5l10 -2q-47 35 -85 66.5t-38 54.5v8q8 14 27.5 34.5t61.5 54.5t113 86t181 130q47 23 86 65.5t56 83.5q-4 45 -34 72t-71 27q-14 0 -45 -15v2q-100 -51 -225 -163q-37 -20 -80 -48t-72 -57 q-4 -16 -30.5 -41.5t-55 -49.5t-53.5 -41l-24 -17q-6 -8 -13.5 -15.5l-17.5 -17.5zM344 199l2 6v-6h-2zM750 139v2h2v-2h-2z" />
<glyph unicode="&#xe8;" horiz-adv-x="923" d="M20 575q0 -45 6.5 -82.5t23 -82.5t45 -100.5t75.5 -135.5q12 -51 40 -99t58.5 -85t57 -59.5t36.5 -22.5q20 0 37 4t27 4q4 0 16.5 -11t28.5 -24.5t36.5 -26t43.5 -14.5h16q45 0 85 21.5t75 68.5q-14 41 -34.5 58.5t-46 24.5t-55.5 12.5t-62.5 21.5t-66.5 50t-67 102 q-4 4 -8 16q29 -10 60.5 -14t41.5 -4q20 6 33 21t21 32.5t16 33t21 23.5q74 61 133 98t101 68t64.5 65.5t22.5 92.5q0 8 -5 19.5t-10 22.5t-7 18t2 9q-14 29 -45 79t-82 130h2q-18 33 -51 61.5t-69 49t-70 33t-54 12.5q-16 0 -29 -6v2q-23 -4 -35 -20.5t-18 -34.5 q-4 -8 -8 -15.5t-12 -17.5q-66 -41 -135.5 -86t-126 -94.5t-92.5 -103.5t-36 -114zM240 588l33.5 33.5t56 54.5t57.5 53.5t39 32.5h-2q33 16 80 16h16q35 -25 57.5 -40t37 -29.5t22.5 -33t14 -48.5q-35 -72 -97 -132.5t-167 -76.5q-6 -6 -19.5 -11.5t-26.5 -9.5t-24.5 -10 t-11.5 -14q-18 37 -30.5 71.5t-20.5 75.5q2 29 -4 43.5t-10 24.5zM246 1524q0 -20 10 -38t26.5 -31t36 -20.5t35.5 -7.5h15l196 -96l72 96l-242 213q-76 -16 -112.5 -42.5t-36.5 -73.5z" />
<glyph unicode="&#xe9;" horiz-adv-x="923" d="M20 561q0 -45 6.5 -83t23 -83t45 -100t75.5 -135q12 -51 40 -99.5t58.5 -85t57 -59t36.5 -22.5q20 0 37 4t27 4q4 0 16.5 -11.5t28.5 -24.5t36.5 -25.5t43.5 -14.5h16q45 0 85 21.5t75 68.5q-14 41 -34.5 58.5t-46 24.5t-55.5 12t-62.5 21.5t-66.5 50.5t-67 101 q-4 4 -8 17q29 -10 60.5 -14.5t41.5 -4.5q20 6 33 21.5t21 33t16 33t21 23.5q74 61 133 98t101 67.5t64.5 65.5t22.5 92q0 8 -5 19.5l-10 23t-7 18.5t2 9q-14 29 -45 79t-82 130h2q-18 33 -51 61.5t-69 49t-70 33t-54 12.5q-16 0 -29 -7v3q-23 -4 -35 -21t-18 -35 q-4 -8 -8 -15t-12 -18q-66 -41 -135.5 -86t-126 -94t-92.5 -103t-36 -114zM233 1407h25v-8q0 -51 76 -76q172 45 309 162q-16 45 -39.5 88t-79.5 76q-6 -8 -15 -16.5t-13 -14.5l-21 -14q-10 -4 -20 -15l-35 -18h10q-16 -16 -22 -25l-2 2q-10 -16 -45 -47t-85 -65l-2 -2 q-10 -6 -20 -13.5t-21 -13.5zM240 573q8 8 33.5 34t56 54.5t57.5 53t39 33.5h-2q33 16 80 16h16q35 -25 57.5 -40t37 -29.5t22.5 -33t14 -49.5q-35 -72 -97 -132t-167 -77q-6 -6 -19.5 -11t-26.5 -9t-24.5 -10t-11.5 -15q-18 37 -30.5 72t-20.5 76q2 29 -4 43t-10 24z" />
<glyph unicode="&#xea;" horiz-adv-x="923" d="M20 567q0 -45 6.5 -83t23 -83t45 -100t75.5 -135q12 -51 40 -99.5t58.5 -85t57 -59t36.5 -22.5q20 0 37 4t27 4q4 0 16.5 -11.5t28.5 -24.5t36.5 -25.5t43.5 -14.5h16q45 0 85 21.5t75 68.5q-14 41 -34.5 58.5t-46 24.5t-55.5 12.5t-62.5 21.5t-66.5 50t-67 101 q-4 4 -8 17q29 -10 60.5 -14.5t41.5 -4.5q20 6 33 21.5t21 33t16 33t21 23.5q74 61 133 98t101 68t64.5 65.5t22.5 92.5q0 8 -5 19t-10 22.5t-7 18.5t2 9q-14 29 -45 79t-82 130h2q-18 33 -51 61.5t-69 49t-70 33t-54 12.5q-16 0 -29 -6v2q-23 -4 -35 -21t-18 -35 q-4 -8 -8 -15t-12 -17q-66 -41 -135.5 -86t-126 -94.5t-92.5 -103.5t-36 -114zM80 1374q14 -98 104 -98q27 0 61 16.5t69.5 40t67.5 49t52 43.5v-2q6 4 12 11q53 -31 105.5 -79t105.5 -108q125 25 138 137l-11 13l-317 237q-39 -10 -94.5 -37.5t-111.5 -64.5t-105.5 -79 t-75.5 -79zM240 580l33.5 33.5t56 54t57.5 53t39 33.5h-2q33 16 80 16h16q35 -25 57.5 -40t37 -29.5t22.5 -33t14 -49.5q-35 -72 -97 -132t-167 -76q-6 -6 -19.5 -11.5t-26.5 -9.5t-24.5 -10t-11.5 -14q-18 37 -30.5 71.5t-20.5 75.5q2 29 -4 43t-10 25z" />
<glyph unicode="&#xeb;" horiz-adv-x="923" d="M20 557q0 -45 6.5 -83t23 -83t45 -100t75.5 -135q12 -51 40 -99.5t58.5 -85.5t57 -59.5t36.5 -22.5q20 0 37 4.5t27 4.5q4 0 16.5 -11.5t28.5 -25t36.5 -25.5t43.5 -14h16q45 0 85 21.5t75 68.5q-14 41 -34.5 58.5t-46 24.5t-55.5 12t-62.5 21.5t-66.5 50.5t-67 101 q-4 4 -8 17q29 -10 60.5 -14.5t41.5 -4.5q20 6 33 21.5t21 33t16 33t21 23.5q74 61 133 98t101 67.5t64.5 65.5t22.5 92q0 8 -5 19.5l-10 23t-7 18.5t2 9q-14 29 -45 79t-82 130h2q-18 33 -51 61.5t-69 49t-70 33t-54 12.5q-16 0 -29 -7v2q-23 -4 -35 -20.5t-18 -34.5 q-4 -8 -8 -15t-12 -18q-66 -41 -135.5 -86t-126 -94t-92.5 -103.5t-36 -113.5zM78 1448l6 -10q4 -12 10 -17l2 2q16 -14 38 -22t43.5 -11.5t36.5 -4.5t19 -1t15.5 3.5t11.5 7.5h2q4 0 17.5 -2t31.5 -2q31 8 40 35.5t9 52.5v69l-10 6q12 20 12 37q0 18 -27.5 29.5t-63 16.5 t-66.5 6.5t-37 1.5q-14 0 -23 -3h-4q-10 0 -14 -2h-10l-19 -10q-8 -20 -8 -31q0 -8 3 -21t7 -27.5t7.5 -27t3.5 -14.5q0 -12 -14.5 -23t-14.5 -30zM240 569q8 8 33.5 34t56 54.5t57.5 53t39 32.5h-2q33 16 80 17h16q35 -25 57.5 -40t37 -29.5t22.5 -33t14 -49.5 q-35 -72 -97 -132t-167 -77q-6 -6 -19.5 -11t-26.5 -9t-24.5 -10.5t-11.5 -14.5q-18 37 -30.5 72t-20.5 76q2 29 -4 43t-10 24zM557 1589q0 -4 1 -18.5t5 -20.5l-4 -4v-67q0 -29 6 -51.5t31 -32.5l-4 -4h14q6 -2 21 -2q8 0 16 4h4q6 2 12 2l5 -1q4 -1 8 -3h-2q4 -4 9 -5 l5 -2h23q23 0 57.5 5.5t58.5 31.5h2q4 4 8.5 13.5t6.5 13.5l-4 6q0 20 -14.5 32.5t-14.5 22.5q0 2 3 13.5t7 26t7 28.5t3 20t-2 15.5t-6 19.5l-20 4q-10 4 -13.5 5t-7.5 1h-6l6 -2l-14 3.5t-14 1.5q-27 0 -52 -9h-24q-20 0 -41 -1t-38 -6t-27.5 -14t-10.5 -26zM563 1550v4 v-2q2 0 2 -2h-2z" />
<glyph unicode="&#xec;" horiz-adv-x="309" d="M-41 1530q0 -20 10.5 -37.5t26.5 -31t35.5 -20.5t36.5 -7h14l197 -97l71 97l-241 213q-76 -16 -113 -43t-37 -74zM29 985q0 -10 4 -27q57 -260 57 -667l2 -8v-88t2 -74q-2 -10 -2 -15v-18q0 -16 3 -36.5t11.5 -39t23.5 -31t40 -12.5q59 0 115 88l-2 305q0 94 -6.5 183.5 t-16.5 187.5l-6 53q43 56 43 158q0 53 -17.5 79t-70.5 26q-10 0 -30.5 -2.5t-31.5 -2.5q-20 0 -34 9q-84 -4 -84 -68z" />
<glyph unicode="&#xed;" horiz-adv-x="309" d="M-49 1407h24v-8q0 -51 76 -76q172 45 309 162q-16 45 -39.5 88t-78.5 76q-6 -8 -15.5 -16.5t-13.5 -14.5l-20 -14q-10 -4 -21 -15l-35 -18h10q-16 -16 -22 -25l-2 2q-10 -16 -45 -47t-84 -65l-2 -2q-10 -6 -20.5 -13.5t-20.5 -13.5zM29 985q0 -10 4 -27q57 -260 57 -667 l2 -8v-88t2 -74q-2 -10 -2 -15v-18q0 -16 3 -36.5t11.5 -39t23.5 -31t40 -12.5q59 0 115 88l-2 305q0 94 -6.5 183.5t-16.5 187.5l-6 53q43 56 43 158q0 53 -17.5 79t-70.5 26q-10 0 -30.5 -2.5t-31.5 -2.5q-20 0 -34 9q-84 -4 -84 -68z" />
<glyph unicode="&#xee;" horiz-adv-x="309" d="M-203 1374q14 -98 105 -98q27 0 60.5 16.5t69.5 40t67.5 49t52.5 43.5v-2q6 4 12 11q53 -31 105.5 -79t105.5 -108q125 25 137 137l-10 13l-318 237q-39 -10 -94 -37.5t-111.5 -64.5t-105.5 -79t-76 -79zM29 985q0 -10 4 -27q57 -260 57 -667l2 -8v-88t2 -74 q-2 -10 -2 -15v-18q0 -16 3 -36.5t11.5 -39t23.5 -31t40 -12.5q59 0 115 88l-2 305q0 94 -6.5 183.5t-16.5 187.5l-6 53q43 56 43 158q0 53 -17.5 79t-70.5 26q-10 0 -30.5 -2.5t-31.5 -2.5q-20 0 -34 9q-84 -4 -84 -68z" />
<glyph unicode="&#xef;" horiz-adv-x="309" d="M-225 1448l6 -10q4 -12 10 -17l2 2q16 -14 38 -22t43.5 -11.5t36.5 -4.5t19 -1t15.5 3.5t11.5 7.5h2q4 0 17.5 -2t31.5 -2q31 8 40 35.5t9 52.5v69l-10 6q12 20 12 37q0 18 -27.5 29.5t-63.5 16.5t-66.5 6.5t-36.5 1.5q-14 0 -23 -3h-4q-10 0 -14 -2h-10l-19 -10 q-8 -20 -8 -31q0 -8 3 -21t7 -27.5t7 -27t3 -14.5q0 -12 -14 -23t-14 -30zM29 985q0 -10 4 -27q57 -260 57 -667l2 -8v-88t2 -74q-2 -10 -2 -15v-18q0 -16 3 -36.5t11.5 -39t23.5 -31t40 -12.5q59 0 115 88l-2 305q0 94 -6.5 183.5t-16.5 187.5l-6 53q43 56 43 158 q0 53 -17.5 79t-70.5 26q-10 0 -30.5 -2.5t-31.5 -2.5q-20 0 -34 9q-84 -4 -84 -68zM254 1589q0 -4 1 -18.5t5 -20.5l-4 -4v-67q0 -29 6 -51.5t31 -32.5l-4 -4h14q6 -2 21 -2q8 0 16 4h4q6 2 12 2l4 -1q5 -1 9 -3h-2q4 -4 9 -5l5 -2h22q23 0 58 5.5t59 31.5h2q4 4 8.5 13.5 t6.5 13.5l-5 6q0 20 -14 32.5t-14 22.5q0 2 3 13.5t7 26t7 28.5t3 20t-2 15.5t-6 19.5l-20 4q-10 4 -13.5 5t-7.5 1h-6l6 -2l-14 3.5t-15 1.5q-27 0 -51 -9h-24q-20 0 -41 -1t-38.5 -6t-27.5 -14t-10 -26zM260 1550v4v-2q2 0 2 -2h-2z" />
<glyph unicode="&#xf0;" horiz-adv-x="1124" d="M14 446q0 -80 38 -163.5t104.5 -152.5t159 -112t200.5 -43q41 0 94.5 19.5t103.5 44t91 48.5t55 30h-2q39 14 68.5 65t50 123t31 156t10.5 168q0 264 -289 614h10q66 14 98.5 27.5t34.5 52.5h7l-64 154l-215 -101q-27 23 -54.5 46.5t-56.5 45.5q-33 6 -64.5 10.5 t-64.5 4.5q-12 0 -36.5 -4t-65.5 -13l-14 -34q12 -20 32.5 -41t44 -40.5t48 -37t43.5 -29.5l-187 -84q-10 -18 -16 -33.5t-6 -25.5q0 -53 82 -99l252 119q20 -27 38.5 -52.5t34.5 -53.5q-68 25 -133 24q-70 0 -138.5 -20.5t-124.5 -64.5t-96 -113.5t-55 -167.5v2l-38 -183 q-10 -45 -11 -86zM256 522q0 61 7 114.5t23.5 94.5t43 68.5t65.5 34.5q51 10 79 27.5t61 17.5q49 0 93 -22.5t75.5 -67t51 -107.5t19.5 -145q0 -162 -68.5 -261.5t-189.5 -99.5q-16 0 -43 13.5t-56.5 30t-57 30.5t-44.5 18q-33 6 -46 60.5t-13 193.5z" />
<glyph unicode="&#xf1;" horiz-adv-x="1003" d="M47 692q0 -90 9.5 -214t25.5 -240q4 -35 6 -57.5t2 -35.5q0 -74 -22 -112q59 -90 122 -90q61 0 101.5 70.5t40.5 181.5q0 70 -11.5 138t-11.5 126q0 358 197 358q8 0 26.5 -2t38 -5t35 -5t17.5 -2h4q23 -18 38 -39t24 -60.5t13.5 -105.5t4.5 -174v-412q16 -4 24 -12 t19 -16v2q16 -16 31.5 -27.5t33.5 -11.5q12 0 31.5 6t38 22.5t33 42t18.5 66.5l6 55q2 23 2 37v55q0 35 -7 66t-7 53v-2h2l2 2q8 4 6 19.5t-2 38.5v2q0 43 9 107.5t9 119.5v14q-2 27 -7 40.5t-12 22.5t-14.5 18t-13.5 30q-20 49 -36.5 76.5t-34 43t-37 23.5t-43.5 21 q-49 117 -248 116q-61 0 -119.5 -9t-109.5 -60v10q-74 68 -121 68q-41 0 -63.5 -38t-34 -93.5t-13.5 -117t-2 -110.5zM141 1483q0 -68 66 -68q39 0 88 29l20 49q4 0 12.5 2t18.5 6q45 -16 78 -29.5t37 -13.5q6 -4 13 -5t11 -5v4q29 -16 54.5 -21.5t42.5 -5.5 q47 0 111.5 21.5t119.5 91.5q-12 98 -131 109q-18 -29 -55 -48.5t-68 -19.5q-27 0 -55 18q-47 23 -88 33t-74 10q-98 0 -201 -145v-12z" />
<glyph unicode="&#xf2;" horiz-adv-x="1073" d="M35 440q0 -78 37 -159.5t103.5 -149.5t158.5 -112t203 -44q43 0 102 22.5t113.5 49.5t91.5 49l37 21h-2q72 25 95 102.5t40 190.5v-2q2 8 2 14q0 8 2 16l12 84q4 18 6 37t2 41v21q-4 51 -23.5 80.5t-42 51t-46 40t-37.5 49.5q-25 74 -81 116.5t-117.5 65.5t-116 30 t-74.5 7q-193 0 -328 -141h-2q-29 -35 -52.5 -91.5t-33.5 -128.5v2l-39 -180q-10 -41 -10 -82zM276 514q0 121 32 207t108 100q27 6 46 13.5t34.5 14.5t30 12t30.5 5q49 0 92 -22.5t75 -65.5t51.5 -106.5t19.5 -143.5q0 -166 -71 -260t-187 -94q-16 0 -43 13.5t-55.5 29.5 t-56.5 30.5t-46 18.5q-16 2 -27.5 15.5t-18.5 42t-10.5 74.5t-3.5 116zM295 1524q0 -20 10 -38t26.5 -31t36 -20.5t35.5 -7.5h15l196 -96l72 96l-242 213q-76 -16 -112.5 -42.5t-36.5 -73.5z" />
<glyph unicode="&#xf3;" horiz-adv-x="1073" d="M35 412q0 -78 37 -160t103.5 -149.5t158.5 -111.5t203 -44q43 0 102 22.5t113.5 49t91.5 47.5l37 22h-2q72 25 95 102.5t40 190.5v-2q2 8 2 14q0 8 2 17l12 84q4 18 6 36.5t2 40.5v21q-4 51 -23.5 80.5t-42 51t-46 40t-37.5 49.5q-25 74 -81 117t-117.5 65.5t-116 29.5 t-74.5 7q-193 0 -328 -141h-2q-29 -35 -52.5 -91.5t-33.5 -127.5v2l-39 -180q-10 -41 -10 -82zM276 485q0 121 32 207t108 101q27 6 46 13t34.5 14t30 12.5t30.5 5.5q49 0 92 -22.5t75 -65.5t51.5 -106.5t19.5 -143.5q0 -166 -71 -260.5t-187 -94.5q-16 0 -43 13.5t-55.5 30 t-56.5 30.5t-46 19q-16 2 -27.5 15t-18.5 42t-10.5 75t-3.5 115zM334 1407h24v-8q0 -51 76 -76q172 45 309 162q-16 45 -39.5 88t-78.5 76q-6 -8 -15.5 -16.5t-13.5 -14.5l-21 -14q-10 -4 -20 -15l-35 -18h10q-16 -16 -22 -25l-2 2q-10 -16 -45 -47t-84 -65l-2 -2 q-10 -6 -20.5 -13.5t-20.5 -13.5z" />
<glyph unicode="&#xf4;" horiz-adv-x="1073" d="M35 440q0 -78 37 -159.5t103.5 -149.5t158.5 -112t203 -44q43 0 102 22.5t113.5 49.5t91.5 49l37 21h-2q72 25 95 102.5t40 190.5v-2q2 8 2 14q0 8 2 16l12 84q4 18 6 37t2 41v21q-4 51 -23.5 80.5t-42 51t-46 40t-37.5 49.5q-25 74 -81 116.5t-117.5 65.5t-116 30 t-74.5 7q-193 0 -328 -141h-2q-29 -35 -52.5 -91.5t-33.5 -128.5v2l-39 -180q-10 -41 -10 -82zM164 1374q14 -98 104 -98q27 0 60.5 16.5t69.5 40t68 49t52 43.5v-2q6 4 12 11q53 -31 105.5 -79t105.5 -108q125 25 138 137l-11 13l-317 237q-39 -10 -94.5 -37.5 t-111.5 -64.5t-105.5 -79t-75.5 -79zM276 514q0 121 32 207t108 100q27 6 46 13.5t34.5 14.5t30 12t30.5 5q49 0 92 -22.5t75 -65.5t51.5 -106.5t19.5 -143.5q0 -166 -71 -260t-187 -94q-16 0 -43 13.5t-55.5 29.5t-56.5 30.5t-46 18.5q-16 2 -27.5 15.5t-18.5 42 t-10.5 74.5t-3.5 116z" />
<glyph unicode="&#xf5;" horiz-adv-x="1073" d="M35 426q0 -78 37 -160t103.5 -149.5t158.5 -111.5t203 -44q43 0 102 22.5t113.5 49t91.5 47.5l37 22h-2q72 25 95 103t40 190v-2q2 8 2 15q0 8 2 16l12 84q4 18 6 36.5t2 41.5v20q-4 51 -23.5 81t-42 51.5t-46 40t-37.5 48.5q-25 74 -81 117t-117.5 65.5t-116 30 t-74.5 7.5q-193 0 -328 -142h-2q-29 -35 -52.5 -91t-33.5 -128v2l-39 -180q-10 -41 -10 -82zM199 1483q0 -68 65 -68q39 0 88 29l21 49q4 0 12 2t18 6q45 -16 78 -29.5t37 -13.5q6 -4 13.5 -5t11.5 -5v4q29 -16 54.5 -21.5t41.5 -5.5q47 0 111.5 21.5t119.5 91.5 q-12 98 -131 109q-18 -29 -55 -48.5t-68 -19.5q-27 0 -55 18q-47 23 -88 33t-74 10q-98 0 -200 -145v-12zM276 500q0 121 32 207t108 100q27 6 46 13t34.5 14.5t30 12.5t30.5 5q49 0 92 -22.5t75 -65.5t51.5 -106.5t19.5 -143.5q0 -166 -71 -260t-187 -94q-16 0 -43 13 t-55.5 29.5t-56.5 31t-46 18.5q-16 2 -27.5 15.5t-18.5 42t-10.5 74.5t-3.5 116z" />
<glyph unicode="&#xf6;" horiz-adv-x="1073" d="M35 434q0 -78 37 -159.5t103.5 -149.5t158.5 -112t203 -44q43 0 102 22.5t113.5 49.5t91.5 49l37 21h-2q72 25 95 102.5t40 189.5v-2q2 8 2 15q0 8 2 16l12 84q4 18 6 36.5t2 41.5v20q-4 51 -23.5 81t-42 51.5t-46 40t-37.5 49.5q-25 74 -81 116.5t-117.5 65t-116 30 t-74.5 7.5q-193 0 -328 -142h-2q-29 -35 -52.5 -91t-33.5 -128v2l-39 -180q-10 -41 -10 -82zM150 1448l6 -10q4 -12 10 -17l2 2q16 -14 37.5 -22t43 -11.5t37 -4.5t19.5 -1t15.5 3.5t11.5 7.5h2q4 0 17.5 -2t31.5 -2q31 8 40 35.5t9 52.5v69l-10 6q12 20 12 37 q0 18 -27.5 29.5t-63.5 16.5t-66.5 6.5t-36.5 1.5q-14 0 -23 -3h-4q-10 0 -14 -2h-11l-18 -10q-8 -20 -8 -31q0 -8 3 -21t7 -27.5t7 -27t3 -14.5q0 -12 -14 -23t-14 -30zM276 508q0 121 32 207t108 100q27 6 46 13.5t34.5 14.5t30 12t30.5 5q49 0 92 -22.5t75 -65.5 t51.5 -106.5t19.5 -143.5q0 -166 -71 -260t-187 -94q-16 0 -43 13.5t-55.5 29.5t-56.5 30.5t-46 18.5q-16 2 -27.5 15.5t-18.5 42t-10.5 74.5t-3.5 116zM629 1589q0 -4 1 -18.5t5 -20.5l-4 -4v-67q0 -29 6 -51.5t31 -32.5l-4 -4h14q6 -2 20 -2q8 0 17 4h4q6 2 12 2l4 -1 t8 -3h-2q4 -4 9 -5l6 -2h22q23 0 57.5 5.5t59.5 31.5h2q4 4 8 13.5t6 13.5l-4 6q0 20 -14 32.5t-14 22.5q0 2 3 13.5t7 26t7 28.5t3 20t-2 15.5t-6 19.5l-21 4q-10 4 -13 5t-7 1h-6l6 -2q-8 2 -14.5 3.5t-14.5 1.5q-27 0 -51 -9h-25q-20 0 -40.5 -1t-38 -6t-27.5 -14 t-10 -26zM635 1550v4v-2q2 0 2 -2h-2z" />
<glyph unicode="&#xf7;" horiz-adv-x="1140" d="M0 690q0 -59 22.5 -90t57.5 -31q2 0 16.5 2t32.5 4.5t21 2.5h4q6 -4 24 -5q98 70 232 70q27 0 59.5 -1t65.5 -3h-3q25 -2 48.5 -3t35.5 -1q92 0 166 24q6 6 15 7q8 0 23.5 -3.5t31.5 -3.5h25q76 0 75 80q0 39 -11 64.5t-46 25.5t-43 -6v4q-4 0 -17.5 1t-19.5 1 q-27 4 -68.5 7.5t-89.5 3.5q-86 0 -176 -15.5t-176 -15.5q-35 0 -53 12q-111 -6 -180 -6h-68v-33q0 -4 1 -8t1 -8v-18q0 -8 -2 -21v-8q-4 -4 -4 -14v-15zM301 1108q0 -12 2 -24.5t6 -22.5q-2 0 -6 -4v-80q0 -29 8 -58.5t41 -44.5q12 0 28.5 2.5t20.5 2.5h5l3 -1t7 -4h-2 q4 -4 10 -5l6 -1h6q8 0 24.5 1t36 5.5t40 14.5t34.5 26l2 -4q4 6 9 19l6 10l-4 8q0 23 -15.5 35t-15.5 31q0 4 3 16t8 28.5t8 33t3 26.5q0 4 -3 13.5t-7 21.5h-2v14h-35q-2 0 -3 1t-3 1h-24q-18 0 -52 -1t-66 -7t-55.5 -18.5t-23.5 -34.5zM315 494q0 -10 1 -17.5t3 -15.5 l5 -15q0 -6 -5 -14v-70q0 -45 12.5 -73.5t53.5 -28.5q2 0 15.5 2t17.5 2l8 -4q4 -4 7 -5t13 -1h7q8 0 24.5 1t37 6t39.5 14.5t36 27.5l2 -4q4 8 6 15.5t6 15.5l-4 6q0 20 -14.5 33.5t-14.5 23.5q2 6 5.5 22.5t6.5 33l6 33t3 22.5q0 4 -1 12t-7 25l-17 6v-2q-14 8 -18 9t-8 1 h-6l6 -2q-8 2 -14.5 4t-14.5 2q-20 0 -54 -2t-66 -9t-54.5 -20.5t-22.5 -33.5zM543 528h20l-4 -18q-12 0 -14 2t-2 16zM547 530l18 13l-2 -13h-16z" />
<glyph unicode="&#xf8;" horiz-adv-x="1067" d="M31 442q0 -72 36.5 -160.5t112.5 -168.5q-29 -49 -60.5 -85t-31.5 -71q0 -31 18.5 -50.5t41 -29.5t42 -13t21.5 -3q27 0 43 1t27.5 8t21.5 21.5t29 42.5q0 8 -4 21l37 47q78 -27 167 -27q43 0 102.5 22.5t114 49.5t91.5 49l37 21h-3q72 27 95.5 104.5t40.5 190.5v-2 q2 8 2 14q0 8 2 16l12 84q4 18 6 37t2 41v21q-4 47 -19.5 75.5t-34.5 48t-42 36t-43 38.5q35 63 57.5 132t36.5 137l-31 10h3q-8 4 -19 4q-12 0 -37.5 -11.5t-53.5 -26.5t-54.5 -33.5t-42.5 -33.5q-35 23 -76 36.5t-78 20.5t-65.5 9t-40.5 2q-195 0 -326 -143h-2 q-29 -35 -52.5 -91.5t-33.5 -127.5v2l-39 -181q-4 -20 -7 -40.5t-3 -43.5zM272 516q0 121 32 208t108 101q55 12 82.5 28.5t56.5 16.5q66 0 141 -57q-53 -43 -109.5 -110.5t-110.5 -141.5t-100 -144.5t-79 -117.5q-2 8 -4 18.5t-4 24.5q-12 51 -13 174zM500 180l59 76 q10 96 58.5 201.5t150.5 216.5q0 -18 8 -21q6 -29 10.5 -58.5t4.5 -64.5q0 -166 -71 -261t-188 -95q-18 0 -32 6z" />
<glyph unicode="&#xf9;" horiz-adv-x="946" d="M33 848q0 -39 5 -75t12 -77t12.5 -89t5.5 -111q0 -43 -6.5 -85t-6.5 -100q0 -74 44 -138t106.5 -110.5t133.5 -73t126 -26.5q39 0 82 5t84 17.5t75.5 36t59.5 60.5q31 45 57.5 100.5t46 113.5t30.5 115.5t11 108.5q0 123 -13 209t-13 115q0 63 24 112q-61 90 -125 91 q-33 0 -59.5 -21.5t-44.5 -56.5t-28.5 -80t-10.5 -94q0 -68 11.5 -128.5t11.5 -119.5q0 -356 -195 -357q-6 0 -22.5 2.5t-34 4.5l-35 4t-25.5 2h-4q-23 16 -39 37.5t-25.5 61.5t-13.5 106.5t-4 173.5v397q-16 4 -25.5 11t-19.5 16v-2q-14 14 -28.5 26t-32.5 12 q-45 0 -119 -75v-29q0 -14 -2 -27l-6 -59v-4zM285 1524q0 -20 10 -38t26.5 -31t36 -20.5t35.5 -7.5h15l196 -96l72 96l-242 213q-76 -16 -112.5 -42.5t-36.5 -73.5z" />
<glyph unicode="&#xfa;" horiz-adv-x="946" d="M33 834q0 -39 5 -75t12 -77t12.5 -89t5.5 -112q0 -43 -6.5 -85t-6.5 -99q0 -74 44 -138.5t106.5 -110.5t133.5 -72.5t126 -26.5q39 0 82 5t84 17.5t75.5 36t59.5 60.5q31 45 57.5 100t46 113.5t30.5 116t11 108.5q0 123 -13 209t-13 114q0 63 24 113q-61 90 -125 90 q-33 0 -59.5 -21.5t-44.5 -56t-28.5 -80t-10.5 -94.5q0 -68 11.5 -128t11.5 -120q0 -356 -195 -356q-6 0 -22.5 2t-34 4l-35 4t-25.5 2h-4q-23 16 -39 38t-25.5 62t-13.5 106.5t-4 172.5v398q-16 4 -25.5 11t-19.5 15v-2q-14 14 -28.5 26.5t-32.5 12.5q-45 0 -119 -76v-28 t-2 -27l-6 -59v-4zM270 1407h25v-8q0 -51 76 -76q172 45 309 162q-16 45 -40 88t-79 76q-6 -8 -15 -16.5t-14 -14.5l-20 -14q-10 -4 -20 -15l-35 -18h10q-16 -16 -23 -25l-2 2q-10 -16 -45 -47t-84 -65l-2 -2q-10 -6 -20 -13.5t-21 -13.5z" />
<glyph unicode="&#xfb;" horiz-adv-x="946" d="M33 834q0 -39 5 -75t12 -77t12.5 -89t5.5 -112q0 -43 -6.5 -85t-6.5 -99q0 -74 44 -138.5t106.5 -110.5t133.5 -72.5t126 -26.5q39 0 82 5t84 17.5t75.5 36t59.5 60.5q31 45 57.5 100t46 113.5t30.5 116t11 108.5q0 123 -13 209t-13 114q0 63 24 113q-61 90 -125 90 q-33 0 -59.5 -21.5t-44.5 -56t-28.5 -80t-10.5 -94.5q0 -68 11.5 -128t11.5 -120q0 -356 -195 -356q-6 0 -22.5 2t-34 4l-35 4t-25.5 2h-4q-23 16 -39 38t-25.5 62t-13.5 106.5t-4 172.5v398q-16 4 -25.5 11t-19.5 15v-2q-14 14 -28.5 26.5t-32.5 12.5q-45 0 -119 -76v-28 t-2 -27l-6 -59v-4zM109 1374q14 -98 104 -98q27 0 60.5 16.5t69.5 40t67.5 49t52.5 43.5v-2q6 4 12 11q53 -31 105.5 -79t105.5 -108q125 25 137 137l-10 13l-317 237q-39 -10 -94.5 -37.5t-112 -64.5t-105.5 -79t-75 -79z" />
<glyph unicode="&#xfc;" horiz-adv-x="946" d="M33 829q0 -39 5 -74.5t12 -76.5t12.5 -89t5.5 -112q0 -43 -6.5 -85t-6.5 -99q0 -74 44 -138.5t106.5 -110.5t133.5 -72.5t126 -26.5q39 0 82 5t84 17.5t75.5 36t59.5 59.5q31 45 57.5 100.5t46 114t30.5 116t11 108.5q0 123 -13 209t-13 114q0 63 24 113q-61 90 -125 90 q-33 0 -59.5 -21.5t-44.5 -56.5t-28.5 -80t-10.5 -94q0 -68 11.5 -128t11.5 -120q0 -356 -195 -356q-6 0 -22.5 2t-34 4l-35 4t-25.5 2h-4q-23 16 -39 38t-25.5 62t-13.5 106.5t-4 172.5v398q-16 4 -25.5 11t-19.5 15v-2q-14 14 -28.5 26.5t-32.5 12.5q-45 0 -119 -76v-28 t-2 -27l-6 -59v-5zM84 1448l6 -10q4 -12 10 -17l2 2q16 -14 38 -22t43.5 -11.5t37 -4.5t19.5 -1t15 3.5t11 7.5h2q4 0 17.5 -2t31.5 -2q31 8 40.5 35.5t9.5 52.5v69l-11 6q12 20 13 37q0 18 -28 29.5t-63.5 16.5t-66.5 6.5t-37 1.5q-14 0 -22 -3h-5q-10 0 -14 -2h-10 l-19 -10q-8 -20 -8 -31q0 -8 3 -21t7.5 -27.5t7.5 -27t3 -14.5q0 -12 -14.5 -23t-14.5 -30zM563 1589q0 -4 1 -18.5t5 -20.5l-4 -4v-67q0 -29 6.5 -51.5t30.5 -32.5l-4 -4h14q6 -2 21 -2q8 0 16 4h4q6 2 13 2l4 -1t8 -3h-2q4 -4 9 -5l5 -2h23q23 0 57.5 5.5t58.5 31.5h2 q4 4 8.5 13.5t6.5 13.5l-4 6q0 20 -14.5 32.5t-14.5 22.5q0 2 3 13.5t7 26t7.5 28.5t3.5 20t-2.5 15.5t-6.5 19.5l-20 4q-10 4 -13.5 5t-7.5 1h-6l6 -2l-14 3.5t-14 1.5q-27 0 -51 -9h-25q-20 0 -41 -1t-38 -6t-27.5 -14t-10.5 -26zM569 1550v4v-2q2 0 2 -2h-2z" />
<glyph unicode="&#xfd;" horiz-adv-x="1189" d="M12 877q39 -20 73 -41t61.5 -46.5t52 -60.5t47.5 -84q39 -82 86 -160.5t61 -146.5q6 -37 23.5 -64.5t35 -51t31 -46t13.5 -49.5v-14q-35 -72 -47.5 -116t-25.5 -80t-40 -74t-88 -95q-152 -139 -152 -254q0 -20 4.5 -41.5t12.5 -50.5l229 -4q66 160 159 367.5t195 418.5 l119 242q8 12 25.5 63.5t43 113t57.5 121.5t69 95h10q43 0 62.5 16.5t27.5 45t10 70.5t11 93q-63 6 -100.5 8.5t-41.5 2.5q-90 0 -135 -37l-141 -285q-18 -33 -41 -85t-47.5 -107.5t-47 -107.5t-36.5 -85q-10 16 -18.5 49t-22.5 101q-31 158 -105.5 298t-197.5 238 q-10 -4 -21 -4h-16l-86 6h2q-10 2 -25 2q-16 0 -31.5 -4t-43.5 -14q0 -35 3 -43t3 -14q0 -16 -17 -86zM371 1407h24v-8q0 -51 76 -76q172 45 309 162q-16 45 -39.5 88t-78.5 76q-6 -8 -15.5 -16.5t-13.5 -14.5l-21 -14q-10 -4 -20 -15l-35 -18h10q-16 -16 -22 -25l-2 2 q-10 -16 -45 -47t-84 -65l-2 -2q-10 -6 -20.5 -13.5t-20.5 -13.5z" />
<glyph unicode="&#xfe;" horiz-adv-x="847" d="M25 -508q0 -49 17 -77.5t64 -28.5q31 0 66 10t64.5 28.5t49 43t19.5 53.5q-41 117 -41 200q0 12 2 34t4 46.5t4 48t2 39.5t-1 32t-3 26l11 71q254 43 401 191l14 14q27 27 53.5 56.5t48 64.5t35 78t13.5 96q0 90 -28.5 171t-97.5 144.5t-182.5 105.5t-283.5 54l-4 447 q0 10 1 45t5 76l-45 45q-33 29 -68 28q-23 0 -44 -12t-50 -37q4 -86 4 -201v-247q0 -92 -1 -228.5t-2 -291t-3 -313.5t-4 -296h2q-6 -100 -8 -181t-2 -140v-56q0 -10 -2 -30.5t-4 -42t-4 -40t-2 -26.5zM252 811q29 -4 68 -13.5t88 -23.5q94 -31 131 -31h12 q18 -18 35.5 -32.5t30 -38t19.5 -63.5t7 -113q0 -55 -34 -98.5t-68 -59.5q-16 -8 -83 -27.5t-188 -52.5q-2 31 -4 86t-5 128t-5 159t-4 180z" />
<glyph unicode="&#xff;" horiz-adv-x="1189" d="M12 877q39 -20 73 -41t61.5 -46.5t52 -60.5t47.5 -84q39 -82 86 -160.5t61 -146.5q6 -37 23.5 -64.5t35 -51t31 -46t13.5 -49.5v-14q-35 -72 -47.5 -116t-25.5 -80t-40 -74t-88 -95q-152 -139 -152 -254q0 -20 4.5 -41.5t12.5 -50.5l229 -4q66 160 159 367.5t195 418.5 l119 242q8 12 25.5 63.5t43 113t57.5 121.5t69 95h10q43 0 62.5 16.5t27.5 45t10 70.5t11 93q-63 6 -100.5 8.5t-41.5 2.5q-90 0 -135 -37l-141 -285q-18 -33 -41 -85t-47.5 -107.5t-47 -107.5t-36.5 -85q-10 16 -18.5 49t-22.5 101q-31 158 -105.5 298t-197.5 238 q-10 -4 -21 -4h-16l-86 6h2q-10 2 -25 2q-16 0 -31.5 -4t-43.5 -14q0 -35 3 -43t3 -14q0 -16 -17 -86zM205 1448l6 -10q4 -12 10 -17l2 2q16 -14 38 -22t43.5 -11.5t36.5 -4.5t19 -1t15.5 3.5t11.5 7.5h2q4 0 17.5 -2t31.5 -2q31 8 40 35.5t9 52.5v69l-10 6q12 20 12 37 q0 18 -27.5 29.5t-63.5 16.5t-66.5 6.5t-36.5 1.5q-14 0 -23 -3h-4q-10 0 -14 -2h-10l-19 -10q-8 -20 -8 -31q0 -8 3 -21t7 -27.5t7.5 -27t3.5 -14.5q0 -12 -14.5 -23t-14.5 -30zM684 1589q0 -4 1 -18.5t5 -20.5l-4 -4v-67q0 -29 6 -51.5t31 -32.5l-4 -4h14q6 -2 21 -2 q8 0 16 4h4q6 2 12 2l4 -1q5 -1 9 -3h-2q4 -4 9 -5l5 -2h23q23 0 57.5 5.5t58.5 31.5h2q4 4 8.5 13.5t6.5 13.5l-4 6q0 20 -14.5 32.5t-14.5 22.5q0 2 3 13.5t7 26t7 28.5t3 20t-2 15.5t-6 19.5l-20 4q-10 4 -13.5 5t-7.5 1h-6l6 -2l-14 3.5t-14 1.5q-27 0 -52 -9h-24 q-20 0 -41 -1t-38 -6t-27.5 -14t-10.5 -26zM690 1550v4v-2q2 0 2 -2h-2z" />
<glyph unicode="&#x152;" horiz-adv-x="1982" d="M55 760q0 -166 54.5 -305.5t158.5 -255.5q281 -201 549 -201q88 0 167 19.5t149.5 54t137 86t132.5 116.5q76 -55 151.5 -107t153.5 -99q33 -61 133 -80h12q139 57 142 151q-201 129 -323 223.5t-171 143.5q-49 31 -95 63.5t-83 67.5q57 8 146.5 19.5t181.5 25.5 t171 34.5t117 47.5v84q0 61 -53 86l-6 -31l-2 33q-18 -2 -66.5 -6t-105.5 -12.5t-116.5 -18.5t-100.5 -22q-47 -16 -87 -21.5t-75 -5.5q4 4 8 6t8 6l74 51q8 23 38 58t65 69l47 47q27 35 58.5 64t62.5 53h-2q39 33 84 73t88 83t77.5 85t51.5 77q-2 10 -4.5 19t-6.5 20h11 q-10 10 -21.5 18t-15.5 16v-2q-43 31 -70 31q-16 0 -47 -14v2q-78 -41 -153.5 -98.5t-151.5 -133.5l-25 -24q-47 74 -118.5 125t-156.5 84.5t-178.5 49t-183.5 15.5q-211 0 -401 -92q-12 -31 -53 -60.5t-86 -57t-84 -53.5t-52 -50q-66 -143 -100.5 -282.5t-34.5 -274.5z M289 672q25 55 24 131q0 16 -4 55t-4 86v37q35 88 84 168t111 158q20 2 56 10t74 17t71.5 17.5t52.5 8.5q16 0 51 -6q35 14 69.5 20t69.5 6q57 0 105.5 -10t93.5 -34.5t88 -63.5t90 -96l-47 -52q-45 -20 -85 -52t-79 -68q-14 -61 -84 -127l-137 -140q80 -88 164 -166.5 t170 -152.5q-25 -31 -60 -62q-10 -10 -35 -10q-8 0 -12 2h-18q-63 0 -68 -53q-51 -23 -111.5 -35t-132.5 -12q-43 0 -94 4t-100 16.5t-91 35t-69 58.5v-2q-10 16 -25.5 56.5t-34 87.5t-39 93t-44.5 75z" />
<glyph unicode="&#x153;" horiz-adv-x="1695" d="M14 442q0 -78 38 -160.5t105.5 -150.5t161 -112t205.5 -44q37 0 79 12.5t82 34t73 49t53 60.5q6 8 6 14q0 2 -4 2h-2q29 8 57.5 37t51.5 58q23 -47 47 -106.5t52 -114t60.5 -91t69.5 -36.5q18 0 36.5 4t28.5 4q2 0 14.5 -11.5t30 -24.5t39 -25.5t43.5 -14.5h17 q47 0 88 21.5t76 68.5q-16 41 -37 58.5t-47.5 24.5t-56 12t-62.5 21.5t-67.5 50.5t-69.5 101q-4 4 -8 17q29 -10 61.5 -14.5t44.5 -4.5q20 6 32.5 21.5t21.5 34t17.5 34t20.5 21.5q74 61 134.5 97t103.5 67.5t66.5 66.5t23.5 92h-41q0 2 2 17.5t7 33t11 19.5 q-23 35 -51.5 83t-77.5 128h2q-20 33 -53 60.5t-69.5 48t-71.5 33t-55 12.5q-35 0 -51.5 -12.5t-29 -31t-25.5 -39t-42 -34.5q-57 -35 -117.5 -72t-103.5 -78q-14 14 -28.5 36t-28.5 44v-2q-29 45 -65 88t-91 66q-76 29 -141.5 40t-94.5 11q-197 0 -331 -143h-2 q-29 -35 -53.5 -91.5t-35.5 -127.5v2l-38 -181q-4 -20 -7.5 -40.5t-3.5 -43.5zM260 516q0 59 7 112.5t24.5 95.5t44 68.5t65.5 32.5q55 10 83 27.5t61 17.5q49 0 93 -22.5t77 -65.5t52 -106.5t19 -145.5q0 -166 -72.5 -261t-189.5 -95q-16 0 -43.5 13.5t-57.5 29.5 t-57.5 31.5t-46.5 19.5q-16 2 -27 15.5t-18.5 42t-10.5 74.5t-3 116zM1030 555q4 18 26.5 47t51.5 57.5t58.5 52t47.5 36.5h-2q37 18 82 18h15q37 -27 59.5 -42t37.5 -28.5t23.5 -32t14.5 -51.5q-18 -35 -50 -65.5t-75 -56t-93 -44t-104 -26.5q-27 -27 -32 -62 q-18 37 -30 72t-22 76l31 8q-33 33 -39 41zM1679 686q4 -4 5.5 -9t5.5 -9q-6 18 -11 18zM1690 668q2 -4 2 -6q0 -3 2 -7v11h-2q0 2 -2 2zM1694 649l2 -2q0 2 -2 2v2v-2z" />
<glyph unicode="&#x178;" horiz-adv-x="1169" d="M6 1470q51 -27 87 -49t69 -57t68.5 -88t91.5 -141q27 -45 56.5 -79t56 -61.5t48 -51t31.5 -48.5l4 -289q2 -96 10.5 -192.5t18.5 -200.5q-47 -58 -47 -160q0 -59 21.5 -82.5t80.5 -23.5h14q12 0 23 2h33q14 0 23.5 -1t19.5 -5q96 4 96 69q0 8 -1 10.5t-3 6.5v6 q-68 270 -68 684l-2 8v66t-2 63q45 74 87 158t81 160.5t74 136t63 82.5h9q35 0 54 11t29.5 32.5t14.5 52.5t8 72q0 10 2 28.5t4 28.5q-63 6 -101 8t-42 2q-86 0 -133 -35l-142 -290v2q-35 -66 -66.5 -125.5t-60.5 -108.5q-6 14 -7 19.5t-5 15.5t-14 31.5t-37 64.5 q-25 43 -59.5 101.5t-76.5 118t-88 114.5t-93 92q-23 -6 -35 -6q-27 0 -64 5t-45 5q-16 0 -32.5 -4t-45.5 -16v-25q0 -10 4 -18v2q2 -8 2 -15q0 -8 -4 -29.5t-10 -56.5zM209 1960l6 -10q4 -12 10 -17l2 2q16 -14 38 -22t43.5 -11.5t36.5 -4.5t20 -1q4 0 15 3.5t11 7.5h2 q4 0 17.5 -2t31.5 -2q31 8 40.5 35.5t9.5 52.5v69l-11 6q12 20 13 37q0 18 -28 29.5t-63.5 16.5t-66.5 6.5t-37 1.5q-14 0 -23 -3h-4q-10 0 -14 -2h-10l-19 -10q-8 -20 -8 -31q0 -8 3 -21t7.5 -27.5t7.5 -27t3 -14.5q0 -12 -14.5 -23t-14.5 -30zM688 2101q0 -4 1 -18.5 t5 -20.5l-4 -4v-67q0 -29 6 -51.5t31 -32.5l-4 -4h14q6 -2 21 -2q8 0 16 4h4q6 2 13 2l4 -1t8 -3h-2q4 -4 9 -5l5 -2h23q23 0 57.5 5.5t58.5 31.5h2q4 4 8.5 13.5t6.5 13.5l-4 6q0 20 -14.5 32.5t-14.5 22.5q0 2 3 13.5t7 26t7 28.5t3 20t-2 15.5t-6 19.5l-20 4 q-10 4 -13.5 5t-7.5 1h-6l6 -2l-14 3.5t-14 1.5q-27 0 -52 -9h-24q-20 0 -41 -1t-38 -6t-27.5 -14t-10.5 -26zM694 2062v4v-2q2 0 2 -2h-2z" />
<glyph unicode="&#x2c6;" horiz-adv-x="915" d="M10 1292q14 -98 105 -98q27 0 60.5 16.5t69.5 40t67.5 49t52.5 43.5v-2q6 4 12 11q53 -31 105.5 -79t105.5 -108q125 25 137 138l-10 12l-318 237q-39 -10 -94 -37.5t-111.5 -64.5t-105.5 -79t-76 -79z" />
<glyph unicode="&#x2dc;" horiz-adv-x="788" d="M12 1280q0 -68 66 -68q39 0 88 29l20 49q4 0 12.5 2t18.5 6q45 -16 78 -29.5t37 -13.5q6 -4 13 -5t11 -5v4q29 -16 54.5 -21t42.5 -5q47 0 111.5 21.5t119.5 90.5q-12 98 -131 109q-18 -29 -55 -48.5t-68 -19.5q-27 0 -55 19q-47 23 -88 33t-74 10q-98 0 -201 -146v-12z " />
<glyph unicode="&#x2000;" horiz-adv-x="1080" />
<glyph unicode="&#x2001;" horiz-adv-x="2161" />
<glyph unicode="&#x2002;" horiz-adv-x="1080" />
<glyph unicode="&#x2003;" horiz-adv-x="2161" />
<glyph unicode="&#x2004;" horiz-adv-x="720" />
<glyph unicode="&#x2005;" horiz-adv-x="540" />
<glyph unicode="&#x2006;" horiz-adv-x="360" />
<glyph unicode="&#x2007;" horiz-adv-x="360" />
<glyph unicode="&#x2008;" horiz-adv-x="270" />
<glyph unicode="&#x2009;" horiz-adv-x="432" />
<glyph unicode="&#x200a;" horiz-adv-x="120" />
<glyph unicode="&#x2010;" horiz-adv-x="1017" d="M6 631q0 -57 25.5 -71.5t66.5 -14.5q10 0 25.5 2t26.5 2h10q10 0 37 -14q94 68 206 67q37 0 93.5 -11t101.5 -11q37 0 72 6t71 16q8 6 17 6l28 -4q12 -2 35 -3t21 -1q80 0 80 78q0 39 -12.5 62.5t-49.5 23.5q-27 0 -33 -2t-14 -2h-8l-8 2h-101q-14 0 -30.5 1t-32.5 1 q-86 0 -126 -3t-64.5 -6t-46 -6.5t-68.5 -3.5q-39 0 -60 13q-63 0 -112.5 -4t-87.5 -4h-58v-31q0 -4 1 -7t1 -7q0 -23 -1 -31t-5 -43z" />
<glyph unicode="&#x2011;" horiz-adv-x="1017" d="M6 631q0 -57 25.5 -71.5t66.5 -14.5q10 0 25.5 2t26.5 2h10q10 0 37 -14q94 68 206 67q37 0 93.5 -11t101.5 -11q37 0 72 6t71 16q8 6 17 6l28 -4q12 -2 35 -3t21 -1q80 0 80 78q0 39 -12.5 62.5t-49.5 23.5q-27 0 -33 -2t-14 -2h-8l-8 2h-101q-14 0 -30.5 1t-32.5 1 q-86 0 -126 -3t-64.5 -6t-46 -6.5t-68.5 -3.5q-39 0 -60 13q-63 0 -112.5 -4t-87.5 -4h-58v-31q0 -4 1 -7t1 -7q0 -23 -1 -31t-5 -43z" />
<glyph unicode="&#x2012;" horiz-adv-x="1017" d="M6 631q0 -57 25.5 -71.5t66.5 -14.5q10 0 25.5 2t26.5 2h10q10 0 37 -14q94 68 206 67q37 0 93.5 -11t101.5 -11q37 0 72 6t71 16q8 6 17 6l28 -4q12 -2 35 -3t21 -1q80 0 80 78q0 39 -12.5 62.5t-49.5 23.5q-27 0 -33 -2t-14 -2h-8l-8 2h-101q-14 0 -30.5 1t-32.5 1 q-86 0 -126 -3t-64.5 -6t-46 -6.5t-68.5 -3.5q-39 0 -60 13q-63 0 -112.5 -4t-87.5 -4h-58v-31q0 -4 1 -7t1 -7q0 -23 -1 -31t-5 -43z" />
<glyph unicode="&#x2013;" horiz-adv-x="1243" d="M-10 539q0 -33 45 -54h4q117 -23 207.5 -32t156.5 -9q20 0 29 2l232 21q12 2 32.5 3t48.5 1q45 0 93.5 -1t87.5 -1q41 0 68.5 -1t33.5 -1q70 25 70 68t-58 86h-28q4 0 -12.5 -1.5t-32.5 -3.5h-21q-18 -2 -32.5 -3t-30.5 -1q-47 25 -144 25h-30q-12 0 -27 -2l-258 -17 q-8 0 -27.5 1.5t-42 3.5t-43 3t-30.5 1q-76 -2 -140.5 -3t-99.5 -3q-51 -57 -51 -82z" />
<glyph unicode="&#x2014;" horiz-adv-x="1869" d="M39 575q0 -47 63 -104h29q25 0 101.5 -2t165.5 -5t173 -5t125 -2q70 0 105 3t71.5 6t92 4t163.5 -5h11q92 4 172 4h145q96 0 161.5 -2t102.5 -6q57 33 58 80q0 6 -4.5 19t-13.5 26.5t-23.5 24t-34.5 10.5l-8 -9q-29 -4 -63 -5t-66 -1h-60q-102 0 -102 6v2 q0 14 -19.5 24.5t-60.5 10.5q-14 0 -42 -1t-56.5 -2t-53 -2t-32.5 -1l-469 -4q-49 0 -92 -3t-91 -3h-43q-37 0 -55 2t-32.5 5t-34 5t-56.5 2h-41q-55 -4 -84 -4h-49l-4 10l-20 -10v-8q-29 -29 -29 -60z" />
<glyph unicode="&#x2018;" horiz-adv-x="346" d="M-6 1245q25 -78 70 -163t108 -179q43 14 68.5 29.5t38.5 28.5l-103 376q-158 -8 -182 -92z" />
<glyph unicode="&#x2019;" horiz-adv-x="319" d="M0 969q12 -31 29.5 -46.5t46.5 -15.5t59.5 43t58 100.5t52 115t43.5 87.5q-31 29 -76 52.5t-109 42.5z" />
<glyph unicode="&#x201a;" horiz-adv-x="266" d="M16 -102l2 -19q27 -33 52 -33q8 0 12 4q2 -10 37 -49q16 59 27.5 90t20.5 48.5t18.5 29t23.5 31.5t34.5 58t53.5 110q-31 94 -152 94h-30q-12 -59 -25.5 -114.5t-21.5 -84.5h2q-18 -47 -32.5 -95t-21.5 -70z" />
<glyph unicode="&#x201c;" horiz-adv-x="802" d="M6 1208q20 -41 45 -67.5t51.5 -47t52 -38t46.5 -37.5v2q53 -41 88 -41q16 0 34.5 7t34.5 24l19 14l6 29l-225 258q-35 -8 -61.5 -10.5t-45 -10.5t-31 -25.5t-14.5 -56.5zM287 1176q72 -41 129 -97.5t104 -117.5q43 2 67.5 19t41.5 48l-4 16l-181 254q-20 12 -46.5 16.5 t-51 -7t-42 -43t-17.5 -88.5z" />
<glyph unicode="&#x201d;" horiz-adv-x="737" d="M-6 1040q16 -35 41.5 -54t68.5 -19q8 8 20.5 21t16.5 24l39 45l-2 -2q33 35 73 65.5t87 59.5q-29 53 -69 83.5t-89 41.5zM233 1042q16 -16 47 -37.5t56 -21.5q27 0 59.5 20.5t64.5 46t57.5 50t35.5 33.5l-2 -3q37 14 67 84q-2 25 -6 40.5t-19 26.5t-45 19.5t-81 14.5z " />
<glyph unicode="&#x201e;" horiz-adv-x="561" d="M33 -41v-33l123 -32q41 57 89 127.5t89 134.5l2 12q-10 25 -19.5 40t-28 24.5t-51 15.5t-92.5 12q-47 -207 -49 -207q-63 0 -63 -94zM256 -49l2 -19q41 -53 88 -53h21q57 70 122.5 142.5t112.5 123.5q-80 92 -180 119q-53 -76 -93 -151.5t-73 -161.5z" />
<glyph unicode="&#x2022;" horiz-adv-x="395" d="M57 795q0 -10 6.5 -33t6.5 -27q0 -6 -9 -14v-14q0 -4 1 -9.5t1 -11.5v-22q0 -10 -1 -17.5t-1 -17.5v-17q0 -49 19.5 -78.5t52.5 -29.5q10 0 23.5 2t21.5 4h6q6 0 12.5 -5t16.5 -5q23 0 37 4t43 4h35q35 0 51 25.5t16 64.5v25q-31 20 -30 63q0 6 3 22.5t6 38t6 42t3 34.5 v39l-27 -8q-6 6 -12 7t-12 1h-6q-10 4 -17 4h-16q-27 0 -60 -12h-10q-27 0 -55.5 -1t-53 -7t-41 -18.5t-16.5 -32.5z" />
<glyph unicode="&#x2026;" horiz-adv-x="1671" d="M37 205q0 -8 10 -33v-6q0 -2 -6 -8v-64q0 -31 7 -53.5t28 -30.5l-19 -16q31 4 47.5 7t24.5 4t10 1h2l29 -8q14 0 25 8h67q27 0 45.5 16.5t18.5 51.5v20q-29 14 -29 29q0 2 5 18.5t10 39t5 34.5q0 4 -1 9t-7 22l-16 12h-2q-6 2 -15 2h-10h-6l6 -2q-8 2 -15 4t-15 2 q-23 0 -57 -2t-65.5 -9t-54 -18.5t-22.5 -29.5zM571 66q0 -25 14.5 -46.5t47.5 -21.5h67q12 -6 25 -6q16 0 27 8h2q8 0 23.5 -2t25.5 -2q18 4 34.5 24.5t16.5 57.5v10q-2 12 -2 21v18q0 14 4 20l-6 9l-2 4v4q10 31 10 37q0 16 -13.5 25.5t-32.5 14.5t-44 6t-47 1h-10 q-35 10 -52 10q-10 0 -26 -4l-2 10l-45 -22q-6 -10 -7 -18.5t-1 -14.5t3 -22.5t6 -32t6 -27.5t5 -12q-2 -8 -9 -13.5t-18 -13.5v-22zM1108 190q0 -4 3 -19t7 -21l-6 -7v-65q0 -68 33 -84l-19 -17q31 4 49.5 8.5t30.5 6.5l-12 -12q53 8 73.5 9t35.5 1h28q29 0 46.5 19.5 t17.5 47.5v25q-29 16 -29 29q0 2 3 13t8 25.5t8.5 29t3.5 22.5q0 4 -1.5 9t-7.5 21l-18 13h-27q-8 0 -14 2t-16 2q-25 0 -59 -1t-64.5 -7.5t-52 -17.5t-21.5 -32zM1116 158q0 -2 1 -3t1 -3v-2z" />
<glyph unicode="&#x202f;" horiz-adv-x="432" />
<glyph unicode="&#x2039;" horiz-adv-x="575" d="M-12 678l45 -84q16 -25 31.5 -39t58.5 -27l-2 2q23 -10 52.5 -44t70.5 -97q20 -37 49 -77t69 -40q39 0 63 34t24 77q0 27 -15 53q-88 90 -144.5 151.5t-80.5 94.5q18 25 55 64.5t75 81.5t68.5 80t36.5 57q-4 68 -27.5 98.5t-66.5 30.5h-18t-21 -4q-96 -125 -180 -233.5 t-143 -178.5z" />
<glyph unicode="&#x203a;" horiz-adv-x="491" d="M55 391q0 -41 24.5 -75.5t61.5 -34.5q20 0 39 16t35 38.5t30.5 47.5t28.5 41q80 107 119 119q47 12 73 55t48 90q-66 76 -143.5 181.5t-177.5 228.5q-10 2 -18.5 4t-20.5 2q-51 0 -69.5 -34t-27.5 -99q6 -16 38 -52t71 -78t74.5 -84t52.5 -67q-23 -29 -82 -90t-141 -151 q-14 -31 -15 -58z" />
<glyph unicode="&#x205f;" horiz-adv-x="540" />
<glyph unicode="&#x20ac;" horiz-adv-x="1239" d="M90 756q180 -199 381 -365t424 -305q27 -61 139 -80q141 55 146 152q-147 94 -249 178t-165 131l22 6q10 0 22 1t24 1q68 2 123 5t96 15.5t63.5 37t22.5 67.5q0 25 -10.5 43.5t-23.5 30.5t-27.5 17t-20.5 5h-10t-15 -4h-2q-6 0 -18.5 7.5t-30.5 25.5q-41 -12 -83 -16 t-93 -4q-29 0 -63.5 2t-70.5 3t-71 3t-61 2q-20 0 -37 -1t-33 -3q-18 33 -33 73q16 31 45 52.5t97 21.5q16 0 46.5 -1t63.5 -3t62.5 -3t48.5 -1q47 0 84 4t67 12q6 0 19.5 -2t29 -5t30.5 -5t24 -2q88 0 88 143q0 84 -70 84h-20q-4 0 -15 17q-29 -4 -45 -4h-39q-37 0 -96 2 t-96 2h-8q39 39 66.5 70.5t62.5 60.5q37 33 81 71.5t84.5 79.5t73.5 83t49 79q-2 8 -6 21h4l-4 4q-4 10 -9 14t-19 14l-11 11q-12 12 -24.5 25t-34.5 13q-12 0 -47 -14v2q-78 -39 -150.5 -98t-146.5 -133l-260 -262q-27 -16 -39 -39t-19 -47h3q-10 -29 -27 -56.5t-70 -50.5 q-49 -16 -82 -49z" />
<glyph unicode="&#x2122;" horiz-adv-x="1970" d="M63 1481q0 -47 19.5 -55.5t48.5 -8.5l12 -51q47 59 52 59v-14q33 2 74.5 3t66.5 1q55 0 90 -6q-4 -14 -8 -27.5t-8 -25.5q37 -72 36 -150q0 -16 -3 -49t-7 -68.5t-7 -69.5t-3 -52q6 -35 6 -82q0 -37 -3 -86t-3 -86v-54q0 -39 10 -62.5t56 -23.5h4q4 0 14 5l-2 -3 q10 2 21.5 4.5t15.5 2.5t5 -1t5 -1h18q20 25 36 71.5t25 95t13 90.5t4 58t-4 44t-9 55.5t-9 52t-4 34.5q0 29 10 58.5t10 58.5q0 14 -3 39t-8 49.5t-8 45t-3 28.5q0 35 10 51l94 6q27 8 74 8h59q16 -2 28.5 -3t26.5 -1q18 0 40 1t40 5l17 21q0 4 6 28.5t6 36.5 q0 23 -11.5 36.5t-27.5 19.5t-36.5 7t-39.5 1h-10q-45 0 -143 -12v-2q-35 -4 -62 -4h-49h-14q-45 10 -118 18t-171 8h-25q-53 0 -92 -5t-73 -5h-21q-10 0 -29 4q-8 -23 -15 -37t-12 -23.5t-8.5 -17.5t-3.5 -20zM920 588q31 0 46 -1t24 -3t17.5 -3t22.5 -1q33 0 56.5 50 t41 118.5t28.5 141.5t18 116q4 31 12 80t14 90l23 -33q20 -66 44.5 -122t47 -108.5t43 -101.5t33.5 -98q0 -70 65 -70h19q16 18 27 42t21.5 47.5t21.5 45t30 39.5q8 49 21.5 101.5t37.5 105.5l56 123q29 -92 54 -219t48 -256q10 -10 20.5 -24.5t24.5 -29t30.5 -23.5t39.5 -9 q37 0 56 19.5t19 53.5v17q0 8 -2 12l-22 94q-53 211 -95 371t-67 277q29 47 29 77q0 41 -41 62.5t-105 21.5q-53 -117 -102 -242.5t-76 -244.5q-14 -25 -27.5 -53.5t-27.5 -42.5q-16 20 -30.5 53t-28 66.5t-25.5 63.5t-25 44q-6 6 -14 39t-20.5 74t-29 84t-38.5 69 q-4 16 -15.5 34.5t-11.5 51.5h-34q-53 0 -81 -24.5t-28 -67.5q0 -6 1 -23.5t3 -36t4 -32.5t4 -17q0 -43 -9 -102t-22.5 -123.5t-27.5 -128t-25 -114.5l-24 -123q0 2 -2 -3.5t-4 -11.5l2 2q-10 -29 -27.5 -80t-17.5 -114z" />
<glyph unicode="&#x25fc;" d="M0 0v1034h1034v-1034h-1034z" />
<glyph unicode="&#xfb01;" horiz-adv-x="897" d="M43 35l18 -27q41 -4 74 -4h58q29 0 45 2t30 19q0 66 -6 104.5t-6 79.5v14q0 18 16.5 44t16.5 67v61q0 4 1 10.5t1 12.5q0 18 -12.5 32.5t-26.5 18.5q0 12 12 24.5t12 41.5q0 10 -5 34.5t-5 34.5q0 -2 2 6t3 19.5t3 23t2 17.5l9 176q10 0 23.5 -1t29.5 -1h27q31 -2 59 -2 h51h37q25 0 48.5 2t41.5 6q18 -115 26.5 -250t8.5 -291l2 -8v-88t2 -74q-2 -10 -2 -14v-19q0 -16 3 -36.5t11.5 -39t23.5 -30.5t40 -12q59 0 114 88l-2 305q0 94 -6 183t-16 188l-6 53q43 56 43 158q0 53 -17.5 78.5t-70.5 25.5q-10 0 -30.5 -2t-31.5 -2q-20 0 -35 8 q-39 -4 -55 -14q-10 0 -29.5 -5t-41 -9.5t-39 -8.5t-23.5 -4q-8 0 -21.5 13.5t-41.5 13.5q-12 0 -37 -4t-54 -9q16 94 24.5 158t35 101.5t82 54t168.5 16.5h53q61 80 61 139q0 104 -133 140h-14q-23 0 -69 -15.5t-94 -35t-84 -34.5l-36 -16l4 -2q-10 4 -16 6.5t-8 2.5h-2 q-41 0 -77 -47.5t-61.5 -110t-42 -126t-20.5 -95.5q0 -68 -12.5 -133.5t-12.5 -133.5q0 -23 8.5 -55.5t8.5 -81.5q0 -29 -9.5 -68.5t-9.5 -84.5v-121q0 -59 -2 -113q0 -45 5.5 -58.5t5.5 -27.5q0 -25 -4.5 -64.5t-8.5 -80.5t-8 -75t-6 -48z" />
<glyph unicode="&#xfb02;" horiz-adv-x="1042" d="M43 35l18 -27q41 -4 74 -4h58q29 0 45 2t30 19q0 66 -6 104.5t-6 79.5v14q0 18 16.5 44t16.5 67v61q0 4 1 10.5t1 12.5q0 18 -12.5 32.5t-26.5 18.5q0 12 12 24.5t12 41.5q0 10 -5 34.5t-5 34.5q0 -2 2 6t3 19.5t3 23t2 17.5l9 176q10 0 23.5 -1t29.5 -1h27q31 -2 59 -2 h51h37q47 2 85 9t60 17q-10 35 -10 41q0 2 1 14.5t3 27t4 27.5t2 17q0 59 -49 62q-8 0 -27.5 -4t-42 -9.5t-42 -9.5t-25.5 -4q-8 0 -21.5 13.5t-41.5 13.5q-12 0 -37 -4t-54 -9q12 154 43 249.5t85.5 139.5t133 42t187.5 -41q0 -70 1 -171.5t3 -201.5t3 -183t1 -114 q0 -205 -14.5 -374t-42.5 -304q-6 -10 -6 -25q0 -66 84 -69q14 8 34 8q10 0 31 -2t31 -2q49 0 68.5 24.5t19.5 81.5q0 96 -41 160q12 154 19.5 292t7.5 261q0 98 -3.5 192.5t-13.5 186.5l8 348q-45 80 -100 86q-29 14 -61 25l-133 10q-23 2 -56 -2t-62.5 -9t-51.5 -10 l-23 -4l-94 -26q-4 -2 -17.5 -10.5t-28 -17.5t-26.5 -17l-12 -8h-2q-41 0 -77 -47.5t-61.5 -110t-42 -126t-20.5 -95.5q0 -68 -12.5 -133.5t-12.5 -133.5q0 -23 8.5 -55.5t8.5 -81.5q0 -29 -9.5 -68.5t-9.5 -84.5v-121q0 -59 -2 -113q0 -45 5.5 -58.5t5.5 -27.5 q0 -25 -4.5 -64.5t-8.5 -80.5t-8 -75t-6 -48z" />
</font>
</defs>
</svg>
