<?xml version="1.0" encoding="utf-8"?>
<!-- Generator: Adobe Illustrator 15.1.0, SVG Export Plug-In . SVG Version: 6.00 Build 0)  -->
<!DOCTYPE svg PUBLIC "-//W3C//DTD SVG 1.1//EN" "http://www.w3.org/Graphics/SVG/1.1/DTD/svg11.dtd">
<svg version="1.1" id="Layer_1" xmlns="http://www.w3.org/2000/svg" xmlns:xlink="http://www.w3.org/1999/xlink" x="0px" y="0px"
	 width="250px" height="250px" viewBox="0 0 250 250" enable-background="new 0 0 250 250" xml:space="preserve">
<g>
	<g>
		<g>
			<g>
				<rect x="254.367" y="-21.181" fill="#EB7125" width="112.1" height="42.165"/>
				<rect x="254.379" y="-6.687" stroke="#000000" stroke-width="0.5" stroke-miterlimit="10" width="115.269" height="12.711"/>
			</g>
		</g>
		<g>
			<g>
				<rect x="235.092" y="-21.181" fill="#EB7125" width="112.101" height="42.165"/>
				<rect x="235.104" y="-6.687" stroke="#000000" stroke-width="0.5" stroke-miterlimit="10" width="115.269" height="12.711"/>
			</g>
		</g>
		<g>
			<g>
				<rect x="215.816" y="-21.181" fill="#EB7125" width="112.1" height="42.165"/>
				<rect x="215.828" y="-6.687" stroke="#000000" stroke-width="0.5" stroke-miterlimit="10" width="115.268" height="12.711"/>
			</g>
		</g>
		<g>
			<g>
				<rect x="196.541" y="-21.181" fill="#EB7125" width="112.1" height="42.165"/>
				<rect x="196.553" y="-6.687" stroke="#000000" stroke-width="0.5" stroke-miterlimit="10" width="115.269" height="12.711"/>
			</g>
		</g>
		<g>
			<g>
				<rect x="177.266" y="-21.181" fill="#EB7125" width="112.101" height="42.165"/>
				<rect x="177.277" y="-6.687" stroke="#000000" stroke-width="0.5" stroke-miterlimit="10" width="115.268" height="12.711"/>
			</g>
		</g>
		<g>
			<g>
				<rect x="157.99" y="-21.181" fill="#EB7125" width="112.1" height="42.165"/>
				<rect x="158.002" y="-6.687" stroke="#000000" stroke-width="0.5" stroke-miterlimit="10" width="115.268" height="12.711"/>
			</g>
		</g>
		<g>
			<g>
				<rect x="138.715" y="-21.181" fill="#EB7125" width="112.1" height="42.165"/>
				<rect x="138.727" y="-6.687" stroke="#000000" stroke-width="0.5" stroke-miterlimit="10" width="115.269" height="12.711"/>
			</g>
		</g>
		<g>
			<g>
				<rect x="119.439" y="-21.181" fill="#EB7125" width="112.1" height="42.165"/>
				<rect x="119.451" y="-6.687" stroke="#000000" stroke-width="0.5" stroke-miterlimit="10" width="115.268" height="12.711"/>
			</g>
		</g>
		<g>
			<g>
				<rect x="100.164" y="-21.181" fill="#EB7125" width="112.1" height="42.165"/>
				<rect x="100.176" y="-6.687" stroke="#000000" stroke-width="0.5" stroke-miterlimit="10" width="115.268" height="12.711"/>
			</g>
		</g>
		<g>
			<g>
				<rect x="80.888" y="-21.181" fill="#EB7125" width="112.1" height="42.165"/>
				<rect x="80.9" y="-6.687" stroke="#000000" stroke-width="0.5" stroke-miterlimit="10" width="115.268" height="12.711"/>
			</g>
		</g>
		<g>
			<g>
				<rect x="61.613" y="-21.181" fill="#EB7125" width="112.1" height="42.165"/>
				<rect x="61.625" y="-6.687" stroke="#000000" stroke-width="0.5" stroke-miterlimit="10" width="115.268" height="12.711"/>
			</g>
		</g>
		<g>
			<g>
				<rect x="42.337" y="-21.181" fill="#EB7125" width="112.101" height="42.165"/>
				<rect x="42.35" y="-6.687" stroke="#000000" stroke-width="0.5" stroke-miterlimit="10" width="115.268" height="12.711"/>
			</g>
		</g>
		<g>
			<g>
				<rect x="23.062" y="-21.181" fill="#EB7125" width="112.1" height="42.165"/>
				<rect x="23.074" y="-6.687" stroke="#000000" stroke-width="0.5" stroke-miterlimit="10" width="115.268" height="12.711"/>
			</g>
		</g>
	</g>
	<g>
		<g>
			<g>
				<rect x="136.721" y="228.818" fill="#EB7125" width="112.1" height="42.166"/>
				<rect x="136.732" y="243.313" stroke="#000000" stroke-width="0.5" stroke-miterlimit="10" width="115.268" height="12.711"/>
			</g>
		</g>
		<g>
			<g>
				<rect x="42.337" y="228.818" fill="#EB7125" width="112.101" height="42.166"/>
				<rect x="42.35" y="243.313" stroke="#000000" stroke-width="0.5" stroke-miterlimit="10" width="115.268" height="12.711"/>
			</g>
		</g>
		<g>
			<g>
				<rect x="23.062" y="228.818" fill="#FF6633" width="112.1" height="42.166"/>
				<rect x="23.074" y="243.313" stroke="#000000" stroke-width="0.5" stroke-miterlimit="10" width="115.268" height="12.711"/>
			</g>
		</g>
	</g>
</g>
<g>
	<g>
		<g>
			<g>
				<rect x="228.917" y="-47.805" fill="#FF6633" width="42.163" height="112.102"/>
				<rect x="243.416" y="-47.805" stroke="#000000" stroke-width="0.5" stroke-miterlimit="10" width="12.709" height="112.102"/>
			</g>
		</g>
		<g>
			<g>
				<rect x="228.917" y="48.572" fill="#FF6633" width="42.163" height="112.102"/>
				<rect x="243.416" y="48.572" stroke="#000000" stroke-width="0.5" stroke-miterlimit="10" width="12.709" height="112.102"/>
			</g>
		</g>
		<g>
			<g>
				<rect x="228.917" y="144.949" fill="#FF6633" width="42.163" height="112.102"/>
				<rect x="243.416" y="144.949" stroke="#000000" stroke-width="0.5" stroke-miterlimit="10" width="12.709" height="112.102"/>
			</g>
		</g>
	</g>
	<g>
		<g>
			<g>
				<rect x="-21.083" y="-86.355" fill="#EB7125" width="42.164" height="112.102"/>
				<rect x="-6.585" y="-86.355" stroke="#000000" stroke-width="0.5" stroke-miterlimit="10" width="12.709" height="112.102"/>
			</g>
		</g>
		<g>
			<g>
				<rect x="-21.083" y="-67.08" fill="#EB7125" width="42.164" height="112.102"/>
				<rect x="-6.585" y="-67.08" stroke="#000000" stroke-width="0.5" stroke-miterlimit="10" width="12.709" height="112.102"/>
			</g>
		</g>
		<g>
			<g>
				<rect x="-21.083" y="-47.805" fill="#EB7125" width="42.164" height="112.102"/>
				<rect x="-6.585" y="-47.805" stroke="#000000" stroke-width="0.5" stroke-miterlimit="10" width="12.709" height="112.102"/>
			</g>
		</g>
		<g>
			<g>
				<rect x="-21.083" y="-28.529" fill="#EB7125" width="42.164" height="112.102"/>
				<rect x="-6.585" y="-28.529" stroke="#000000" stroke-width="0.5" stroke-miterlimit="10" width="12.709" height="112.102"/>
			</g>
		</g>
		<g>
			<g>
				<rect x="-21.083" y="-9.254" fill="#EB7125" width="42.164" height="112.102"/>
				<rect x="-6.585" y="-9.254" stroke="#000000" stroke-width="0.5" stroke-miterlimit="10" width="12.709" height="112.102"/>
			</g>
		</g>
		<g>
			<g>
				<rect x="-21.083" y="10.021" fill="#EB7125" width="42.164" height="112.102"/>
				<rect x="-6.585" y="10.021" stroke="#000000" stroke-width="0.5" stroke-miterlimit="10" width="12.709" height="112.102"/>
			</g>
		</g>
		<g>
			<g>
				<rect x="-21.083" y="29.297" fill="#EB7125" width="42.164" height="112.102"/>
				<rect x="-6.585" y="29.297" stroke="#000000" stroke-width="0.5" stroke-miterlimit="10" width="12.709" height="112.102"/>
			</g>
		</g>
		<g>
			<g>
				<rect x="-21.083" y="48.572" fill="#EB7125" width="42.164" height="112.102"/>
				<rect x="-6.585" y="48.572" stroke="#000000" stroke-width="0.5" stroke-miterlimit="10" width="12.709" height="112.102"/>
			</g>
		</g>
		<g>
			<g>
				<rect x="-21.083" y="67.848" fill="#EB7125" width="42.164" height="112.102"/>
				<rect x="-6.585" y="67.848" stroke="#000000" stroke-width="0.5" stroke-miterlimit="10" width="12.709" height="112.102"/>
			</g>
		</g>
		<g>
			<g>
				<rect x="-21.083" y="87.123" fill="#EB7125" width="42.164" height="112.102"/>
				<rect x="-6.585" y="87.123" stroke="#000000" stroke-width="0.5" stroke-miterlimit="10" width="12.709" height="112.102"/>
			</g>
		</g>
		<g>
			<g>
				<rect x="-21.083" y="106.398" fill="#EB7125" width="42.164" height="112.102"/>
				<rect x="-6.585" y="106.398" stroke="#000000" stroke-width="0.5" stroke-miterlimit="10" width="12.709" height="112.102"/>
			</g>
		</g>
		<g>
			<g>
				<rect x="-21.083" y="125.674" fill="#EB7125" width="42.164" height="112.102"/>
				<rect x="-6.585" y="125.674" stroke="#000000" stroke-width="0.5" stroke-miterlimit="10" width="12.709" height="112.102"/>
			</g>
		</g>
		<g>
			<g>
				<rect x="-21.083" y="144.949" fill="#FF6633" width="42.164" height="112.102"/>
				<rect x="-6.585" y="144.949" stroke="#000000" stroke-width="0.5" stroke-miterlimit="10" width="12.709" height="112.102"/>
			</g>
		</g>
	</g>
</g>
<g>
	<g>
		<g>
			<g>
				<rect x="220.775" y="-27.888" fill="#FF6633" stroke="#000000" stroke-miterlimit="10" width="58.449" height="55.775"/>
				<polygon points="276.602,0.004 250.002,26.606 223.396,0.004 250.002,-26.604 				"/>
			</g>
		</g>
		<g>
			<g>
				<rect x="-29.225" y="-27.888" fill="#FF6633" stroke="#000000" stroke-miterlimit="10" width="58.449" height="55.775"/>
				<polygon points="26.601,0.004 0.001,26.606 -26.604,0.004 0.001,-26.604 				"/>
			</g>
		</g>
	</g>
	<g>
		<g>
			<g>
				<rect x="220.775" y="222.111" fill="#FF6633" stroke="#000000" stroke-miterlimit="10" width="58.449" height="55.775"/>
				<polygon points="276.602,250.004 250.002,276.605 223.396,250.004 250.002,223.396 				"/>
			</g>
		</g>
		<g>
			<g>
				<rect x="-29.225" y="222.111" fill="#FF6633" stroke="#000000" stroke-miterlimit="10" width="58.449" height="55.775"/>
				<polygon points="26.601,250.004 0.001,276.605 -26.604,250.004 0.001,223.396 				"/>
			</g>
		</g>
	</g>
</g>
</svg>
