<?xml version="1.0" encoding="utf-8"?>
<!-- Generator: Adobe Illustrator 15.1.0, SVG Export Plug-In . SVG Version: 6.00 Build 0)  -->
<!DOCTYPE svg PUBLIC "-//W3C//DTD SVG 1.1//EN" "http://www.w3.org/Graphics/SVG/1.1/DTD/svg11.dtd">
<svg version="1.1" xmlns="http://www.w3.org/2000/svg" xmlns:xlink="http://www.w3.org/1999/xlink" x="0px" y="0px" width="156px"
	 height="155.333px" viewBox="0 0 156 155.333" enable-background="new 0 0 156 155.333" xml:space="preserve">
<g id="Background">
	<circle fill="#EB7125" stroke="#000000" stroke-width="4" stroke-miterlimit="10" cx="78.483" cy="78.798" r="73.983"/>
</g>
<g id="Scroll">
	<g id="pile3">
		<g id="handle1_23_">
			<path fill="#CBCB2C" stroke="#000000" stroke-miterlimit="10" d="M85.098,98.928c7.095-0.758,13.133,1.269,13.481,4.528
				c0.349,3.258-5.126,6.513-12.224,7.271c-7.098,0.758-13.135-1.271-13.481-4.527C72.525,102.94,77.998,99.685,85.098,98.928z"/>
			
				<ellipse transform="matrix(-0.1062 -0.9943 0.9943 -0.1062 -8.6303 199.1005)" fill="#CBCB2C" stroke="#000000" stroke-miterlimit="10" cx="85.172" cy="103.429" rx="5.933" ry="12.925"/>
		</g>
		<g id="handle1_24_">
			<path fill="#CBCB2C" stroke="#000000" stroke-miterlimit="10" d="M85.652,93.25c7.095-0.758,13.132,1.269,13.48,4.528
				s-5.126,6.513-12.224,7.271s-13.135-1.271-13.48-4.527C73.08,97.263,78.552,94.008,85.652,93.25z"/>
			
				<ellipse transform="matrix(-0.1062 -0.9943 0.9943 -0.1062 -2.3716 193.372)" fill="#CBCB2C" stroke="#000000" stroke-miterlimit="10" cx="85.727" cy="97.752" rx="5.933" ry="12.924"/>
		</g>
		<g id="handle1_25_">
			
				<ellipse transform="matrix(-0.106 -0.9944 0.9944 -0.106 4.6983 190.0634)" fill="#CBCB2C" stroke="#000000" stroke-miterlimit="10" cx="87.788" cy="92.92" rx="5.933" ry="12.925"/>
			
				<ellipse transform="matrix(-0.1062 -0.9943 0.9943 -0.1062 5.4909 187.9793)" fill="#CBCB2C" stroke="#000000" stroke-miterlimit="10" cx="87.234" cy="91.522" rx="5.933" ry="12.924"/>
		</g>
		<g id="handle1_26_">
			
				<ellipse transform="matrix(-0.106 -0.9944 0.9944 -0.106 -2.1347 176.3405)" fill="#CBCB2C" stroke="#000000" stroke-miterlimit="10" cx="78.203" cy="89.13" rx="5.933" ry="12.926"/>
			
				<ellipse transform="matrix(-0.1062 -0.9943 0.9943 -0.1062 -1.3435 174.2567)" fill="#CBCB2C" stroke="#000000" stroke-miterlimit="10" cx="77.649" cy="87.732" rx="5.933" ry="12.924"/>
		</g>
		<g id="handle1_27_">
			
				<ellipse transform="matrix(-0.106 -0.9944 0.9944 -0.106 13.265 178.0691)" fill="#CBCB2C" stroke="#000000" stroke-miterlimit="10" cx="86.68" cy="83.072" rx="5.933" ry="12.925"/>
			
				<ellipse transform="matrix(-0.1062 -0.9943 0.9943 -0.1062 14.0575 175.9841)" fill="#CBCB2C" stroke="#000000" stroke-miterlimit="10" cx="86.126" cy="81.674" rx="5.933" ry="12.924"/>
		</g>
		<g id="handle1_28_">
			
				<ellipse transform="matrix(-0.106 -0.9944 0.9944 -0.106 26.535 173.6926)" fill="#CBCB2C" stroke="#000000" stroke-miterlimit="10" cx="91.348" cy="74.918" rx="5.933" ry="12.926"/>
			
				<ellipse transform="matrix(-0.1062 -0.9943 0.9943 -0.1062 27.3281 171.6062)" fill="#CBCB2C" stroke="#000000" stroke-miterlimit="10" cx="90.794" cy="73.52" rx="5.933" ry="12.924"/>
		</g>
		<g id="handle1_29_">
			
				<ellipse transform="matrix(-0.106 -0.9944 0.9944 -0.106 28.3714 162.2268)" fill="#CBCB2C" stroke="#000000" stroke-miterlimit="10" cx="87.111" cy="68.36" rx="5.933" ry="12.925"/>
			
				<ellipse transform="matrix(-0.1062 -0.9943 0.9943 -0.1062 29.1706 160.1432)" fill="#CBCB2C" stroke="#000000" stroke-miterlimit="10" cx="86.557" cy="66.962" rx="5.933" ry="12.924"/>
		</g>
		<g id="handle1_30_">
			<path fill="#CBCB2C" stroke="#000000" stroke-miterlimit="10" d="M85.197,56.2c6.812-2.127,13.129-1.316,14.106,1.813
				c0.976,3.128-3.758,7.388-10.572,9.514c-6.813,2.127-13.131,1.314-14.104-1.813C73.649,62.585,78.383,58.326,85.197,56.2z"/>
			
				<ellipse transform="matrix(-0.298 -0.9546 0.9546 -0.298 53.9758 160.8938)" fill="#CBCB2C" stroke="#000000" stroke-miterlimit="10" cx="86.149" cy="60.6" rx="5.933" ry="12.924"/>
		</g>
		<g id="handle1_31_">
			<path fill="#CBCB2C" stroke="#000000" stroke-miterlimit="10" d="M88.105,50.929c6.881-1.885,13.166-0.852,14.031,2.31
				c0.867,3.16-4.015,7.25-10.899,9.135c-6.885,1.886-13.169,0.851-14.033-2.309C76.339,56.904,81.219,52.815,88.105,50.929z"/>
			
				<ellipse transform="matrix(-0.2641 -0.9645 0.9645 -0.2641 58.9816 155.7247)" fill="#CBCB2C" stroke="#000000" stroke-miterlimit="10" cx="88.9" cy="55.361" rx="5.933" ry="12.924"/>
		</g>
		<g id="handle1_32_">
			
				<ellipse transform="matrix(-0.106 -0.9944 0.9944 -0.106 44.9236 141.35)" fill="#CBCB2C" stroke="#000000" stroke-miterlimit="10" cx="86.003" cy="50.48" rx="5.933" ry="12.925"/>
			
				<ellipse transform="matrix(-0.1062 -0.9943 0.9943 -0.1062 45.7222 139.2626)" fill="#CBCB2C" stroke="#000000" stroke-miterlimit="10" cx="85.449" cy="49.083" rx="5.933" ry="12.924"/>
		</g>
		<g id="handle1_33_">
			<path fill="#CBCB2C" stroke="#000000" stroke-miterlimit="10" d="M77.917,37.963c6.858-1.97,13.154-1.015,14.06,2.136
				c0.905,3.149-3.927,7.299-10.787,9.269c-6.86,1.971-13.156,1.013-14.06-2.135C66.226,44.083,71.054,39.933,77.917,37.963z"/>
			
				<ellipse transform="matrix(-0.276 -0.9612 0.9612 -0.276 59.7697 129.7894)" fill="#CBCB2C" stroke="#000000" stroke-miterlimit="10" cx="78.767" cy="42.384" rx="5.933" ry="12.923"/>
		</g>
		<g id="handle1_34_">
			<path fill="#CBCB2C" stroke="#000000" stroke-miterlimit="10" d="M69.197,32.807c6.298-3.354,12.654-3.729,14.196-0.837
				c1.541,2.893-2.322,7.957-8.622,11.312c-6.3,3.355-12.658,3.729-14.195,0.838C59.035,41.226,62.894,36.162,69.197,32.807z"/>
			
				<ellipse transform="matrix(-0.47 -0.8827 0.8827 -0.47 71.673 116.9457)" fill="#CBCB2C" stroke="#000000" stroke-miterlimit="10" cx="70.948" cy="36.954" rx="5.933" ry="12.924"/>
		</g>
		<g id="handle1_35_">
			<path fill="#CBCB2C" stroke="#000000" stroke-miterlimit="10" d="M53.105,31.349c5.61-4.409,11.802-5.896,13.829-3.319
				c2.024,2.577-0.888,8.242-6.5,12.651C54.82,45.09,48.628,46.576,46.604,44C44.579,41.423,47.489,35.76,53.105,31.349z"/>
			
				<ellipse transform="matrix(-0.6178 -0.7863 0.7863 -0.6178 62.2604 100.511)" fill="#CBCB2C" stroke="#000000" stroke-miterlimit="10" cx="55.557" cy="35.125" rx="5.933" ry="12.924"/>
		</g>
		<g id="handle1_36_">
			
				<ellipse transform="matrix(-0.919 -0.3943 0.3943 -0.919 69.7429 86.5602)" fill="#CBCB2C" stroke="#000000" stroke-miterlimit="10" cx="43.764" cy="36.115" rx="5.933" ry="12.925"/>
			
				<ellipse transform="matrix(-0.9191 -0.3941 0.3941 -0.9191 66.9712 85.5826)" fill="#CBCB2C" stroke="#000000" stroke-miterlimit="10" cx="42.273" cy="35.915" rx="5.933" ry="12.924"/>
		</g>
	</g>
	<g id="pile1">
		<g id="handle1">
			
				<ellipse transform="matrix(-0.1061 -0.9944 0.9944 -0.1061 -62.8502 190.1539)" fill="#CBCB2C" stroke="#000000" stroke-miterlimit="10" cx="54.048" cy="123.328" rx="5.203" ry="11.336"/>
			
				<ellipse transform="matrix(-0.1061 -0.9944 0.9944 -0.1061 -62.1695 188.3139)" fill="#CBCB2C" stroke="#000000" stroke-miterlimit="10" cx="53.561" cy="122.102" rx="5.203" ry="11.336"/>
		</g>
		<g id="handle1_2_">
			
				<ellipse transform="matrix(-0.1061 -0.9944 0.9944 -0.1061 -54.1673 187.7019)" fill="#CBCB2C" stroke="#000000" stroke-miterlimit="10" cx="57.287" cy="118.199" rx="5.203" ry="11.336"/>
			
				<ellipse transform="matrix(-0.1061 -0.9944 0.9944 -0.1061 -53.4838 185.866)" fill="#CBCB2C" stroke="#000000" stroke-miterlimit="10" cx="56.8" cy="116.973" rx="5.204" ry="11.335"/>
		</g>
		<g id="handle1_3_">
			
				<ellipse transform="matrix(-0.1061 -0.9944 0.9944 -0.1061 -53.3417 179.045)" fill="#CBCB2C" stroke="#000000" stroke-miterlimit="10" cx="53.805" cy="113.498" rx="5.203" ry="11.335"/>
			
				<ellipse transform="matrix(-0.1062 -0.9943 0.9943 -0.1062 -52.6583 177.2097)" fill="#CBCB2C" stroke="#000000" stroke-miterlimit="10" cx="53.318" cy="112.272" rx="5.203" ry="11.336"/>
		</g>
		<g id="handle1_4_">
			
				<ellipse transform="matrix(-0.1061 -0.9944 0.9944 -0.1061 -43.8708 175.7063)" fill="#CBCB2C" stroke="#000000" stroke-miterlimit="10" cx="57.043" cy="107.573" rx="5.203" ry="11.336"/>
			
				<ellipse transform="matrix(-0.1061 -0.9944 0.9944 -0.1061 -43.1896 173.8669)" fill="#CBCB2C" stroke="#000000" stroke-miterlimit="10" cx="56.557" cy="106.347" rx="5.203" ry="11.334"/>
		</g>
		<g id="handle1_5_">
			
				<ellipse transform="matrix(-0.1061 -0.9944 0.9944 -0.1061 -43.3512 164.3216)" fill="#CBCB2C" stroke="#000000" stroke-miterlimit="10" cx="52.185" cy="101.647" rx="5.203" ry="11.336"/>
			
				<ellipse transform="matrix(-0.1061 -0.9944 0.9944 -0.1061 -42.6711 162.4805)" fill="#CBCB2C" stroke="#000000" stroke-miterlimit="10" cx="51.698" cy="100.421" rx="5.203" ry="11.336"/>
		</g>
		<g id="handle1_6_">
			
				<ellipse transform="matrix(-0.1062 -0.9943 0.9943 -0.1062 -33.8354 163.4789)" fill="#CBCB2C" stroke="#000000" stroke-miterlimit="10" cx="56.558" cy="96.947" rx="5.203" ry="11.333"/>
			
				<ellipse transform="matrix(-0.1061 -0.9944 0.9944 -0.1061 -33.1587 161.634)" fill="#CBCB2C" stroke="#000000" stroke-miterlimit="10" cx="56.071" cy="95.721" rx="5.203" ry="11.336"/>
		</g>
		<g id="handle1_7_">
			
				<ellipse transform="matrix(-0.1061 -0.9944 0.9944 -0.1061 -25.6515 156.5296)" fill="#CBCB2C" stroke="#000000" stroke-miterlimit="10" cx="57.53" cy="89.794" rx="5.203" ry="11.336"/>
			
				<ellipse transform="matrix(-0.1062 -0.9943 0.9943 -0.1062 -24.9686 154.6928)" fill="#CBCB2C" stroke="#000000" stroke-miterlimit="10" cx="57.043" cy="88.569" rx="5.203" ry="11.337"/>
		</g>
		<g id="handle1_8_">
			
				<ellipse transform="matrix(-0.1061 -0.9944 0.9944 -0.1061 -27.8114 147.5822)" fill="#CBCB2C" stroke="#000000" stroke-miterlimit="10" cx="52.428" cy="86.292" rx="5.203" ry="11.336"/>
			
				<ellipse transform="matrix(-0.1062 -0.9943 0.9943 -0.1062 -27.1282 145.7457)" fill="#CBCB2C" stroke="#000000" stroke-miterlimit="10" cx="51.942" cy="85.066" rx="5.203" ry="11.336"/>
		</g>
		<g id="handle1_9_">
			
				<ellipse transform="matrix(-0.1061 -0.9944 0.9944 -0.1061 -21.6157 143.7524)" fill="#CBCB2C" stroke="#000000" stroke-miterlimit="10" cx="53.805" cy="81.592" rx="5.203" ry="11.336"/>
			
				<ellipse transform="matrix(-0.1062 -0.9943 0.9943 -0.1062 -20.9324 141.9157)" fill="#CBCB2C" stroke="#000000" stroke-miterlimit="10" cx="53.318" cy="80.366" rx="5.203" ry="11.336"/>
		</g>
		<g id="handle1_10_">
			
				<ellipse transform="matrix(-0.1061 -0.9944 0.9944 -0.1061 -14.4076 142.9331)" fill="#CBCB2C" stroke="#000000" stroke-miterlimit="10" cx="57.043" cy="77.943" rx="5.203" ry="11.336"/>
			
				<ellipse transform="matrix(-0.1061 -0.9944 0.9944 -0.1061 -13.7264 141.0932)" fill="#CBCB2C" stroke="#000000" stroke-miterlimit="10" cx="56.557" cy="76.717" rx="5.203" ry="11.334"/>
		</g>
		<g id="handle1_11_">
			
				<ellipse transform="matrix(-0.1062 -0.9943 0.9943 -0.1062 -7.7028 137.1097)" fill="#CBCB2C" stroke="#000000" stroke-miterlimit="10" cx="57.772" cy="72.017" rx="5.203" ry="11.336"/>
			
				<ellipse transform="matrix(-0.1061 -0.9944 0.9944 -0.1061 -7.0282 135.2638)" fill="#CBCB2C" stroke="#000000" stroke-miterlimit="10" cx="57.286" cy="70.791" rx="5.203" ry="11.337"/>
		</g>
		<g id="handle1_12_">
			
				<ellipse transform="matrix(-0.1062 -0.9943 0.9943 -0.1062 -1.8111 130.5546)" fill="#CBCB2C" stroke="#000000" stroke-miterlimit="10" cx="57.772" cy="66.091" rx="5.203" ry="11.336"/>
			
				<ellipse transform="matrix(-0.1061 -0.9944 0.9944 -0.1061 -1.1365 128.7088)" fill="#CBCB2C" stroke="#000000" stroke-miterlimit="10" cx="57.286" cy="64.865" rx="5.204" ry="11.337"/>
		</g>
		<g id="handle1_13_">
			
				<ellipse transform="matrix(-0.1061 -0.9944 0.9944 -0.1061 -6.847 124.802)" fill="#CBCB2C" stroke="#000000" stroke-miterlimit="10" cx="52.671" cy="65.479" rx="5.203" ry="11.335"/>
			
				<ellipse transform="matrix(-0.1061 -0.9944 0.9944 -0.1061 -6.1693 122.9592)" fill="#CBCB2C" stroke="#000000" stroke-miterlimit="10" cx="52.185" cy="64.253" rx="5.203" ry="11.336"/>
		</g>
	</g>
	<g id="pile2">
		<g id="handle1_1_">
			
				<ellipse transform="matrix(-0.1062 -0.9943 0.9943 -0.1062 -11.2342 240.5868)" fill="#CBCB2C" stroke="#000000" stroke-miterlimit="10" cx="102.507" cy="125.342" rx="5.933" ry="12.926"/>
			
				<ellipse transform="matrix(-0.106 -0.9944 0.9944 -0.106 -10.4861 238.4614)" fill="#CBCB2C" stroke="#000000" stroke-miterlimit="10" cx="101.953" cy="123.945" rx="5.933" ry="12.926"/>
		</g>
		<g id="handle1_14_">
			
				<ellipse transform="matrix(-0.1062 -0.9943 0.9943 -0.1062 -10.4487 229.1759)" fill="#CBCB2C" stroke="#000000" stroke-miterlimit="10" cx="97.78" cy="119.284" rx="5.933" ry="12.926"/>
			
				<ellipse transform="matrix(-0.106 -0.9944 0.9944 -0.106 -9.689 227.0614)" fill="#CBCB2C" stroke="#000000" stroke-miterlimit="10" cx="97.227" cy="117.886" rx="5.933" ry="12.925"/>
		</g>
		<g id="handle1_15_">
			<path fill="#CBCB2C" stroke="#000000" stroke-miterlimit="10" d="M105.756,108.235c7.098-0.758,13.132,1.269,13.48,4.528
				s-5.123,6.513-12.221,7.271c-7.101,0.758-13.135-1.271-13.484-4.527C93.183,112.248,98.655,108.993,105.756,108.235z"/>
			
				<ellipse transform="matrix(-0.1062 -0.9943 0.9943 -0.1062 4.9661 229.9377)" fill="#CBCB2C" stroke="#000000" stroke-miterlimit="10" cx="105.83" cy="112.737" rx="5.933" ry="12.924"/>
		</g>
		<g id="handle1_16_">
			
				<ellipse transform="matrix(-0.1062 -0.9943 0.9943 -0.1062 5.4027 219.6111)" fill="#CBCB2C" stroke="#000000" stroke-miterlimit="10" cx="101.399" cy="107.377" rx="5.933" ry="12.926"/>
			
				<ellipse transform="matrix(-0.106 -0.9944 0.9944 -0.106 6.1523 217.4903)" fill="#CBCB2C" stroke="#000000" stroke-miterlimit="10" cx="100.845" cy="105.979" rx="5.933" ry="12.926"/>
		</g>
		<g id="handle1_17_">
			<path fill="#CBCB2C" stroke="#000000" stroke-miterlimit="10" d="M97.706,97.517c7.098-0.758,13.135,1.269,13.483,4.528
				c0.349,3.258-5.126,6.513-12.224,7.271c-7.102,0.758-13.136-1.271-13.483-4.527C85.134,101.529,90.606,98.274,97.706,97.517z"/>
			
				<ellipse transform="matrix(-0.1062 -0.9943 0.9943 -0.1062 6.7196 210.076)" fill="#CBCB2C" stroke="#000000" stroke-miterlimit="10" cx="97.78" cy="102.018" rx="5.933" ry="12.927"/>
		</g>
		<g id="handle1_18_">
			<path fill="#CBCB2C" stroke="#000000" stroke-miterlimit="10" d="M105.479,92.157c7.095-0.758,13.132,1.269,13.48,4.528
				c0.349,3.258-5.126,6.513-12.224,7.271c-7.098,0.758-13.135-1.271-13.482-4.527C92.905,96.169,98.379,92.915,105.479,92.157z"/>
			
				<ellipse transform="matrix(-0.1062 -0.9943 0.9943 -0.1062 20.6476 211.8778)" fill="#CBCB2C" stroke="#000000" stroke-miterlimit="10" cx="105.554" cy="96.659" rx="5.933" ry="12.924"/>
		</g>
		<g id="handle1_19_">
			
				<ellipse transform="matrix(-0.106 -0.9944 0.9944 -0.106 32.5941 210.5066)" fill="#CBCB2C" stroke="#000000" stroke-miterlimit="10" cx="110.926" cy="90.601" rx="5.933" ry="12.925"/>
			
				<ellipse transform="matrix(-0.1062 -0.9943 0.9943 -0.1062 33.3902 208.4218)" fill="#CBCB2C" stroke="#000000" stroke-miterlimit="10" cx="110.372" cy="89.203" rx="5.933" ry="12.924"/>
		</g>
		<g id="handle1_20_">
			<path fill="#CBCB2C" stroke="#000000" stroke-miterlimit="10" d="M105.756,79.343c7.095-0.758,13.132,1.269,13.48,4.528
				s-5.126,6.513-12.224,7.271c-7.098,0.758-13.135-1.271-13.481-4.527C93.183,83.355,98.655,80.1,105.756,79.343z"/>
			
				<ellipse transform="matrix(-0.1062 -0.9943 0.9943 -0.1062 33.6954 197.9777)" fill="#CBCB2C" stroke="#000000" stroke-miterlimit="10" cx="105.83" cy="83.844" rx="5.933" ry="12.924"/>
		</g>
		<g id="handle1_21_">
			<path fill="#CBCB2C" stroke="#000000" stroke-miterlimit="10" d="M109.742,70.489c7.095-0.758,13.135,1.269,13.483,4.528
				s-5.129,6.514-12.224,7.271c-7.101,0.758-13.135-1.271-13.483-4.527C97.17,74.501,102.645,71.246,109.742,70.489z"/>
			
				<ellipse transform="matrix(-0.1062 -0.9943 0.9943 -0.1062 46.9081 192.1475)" fill="#CBCB2C" stroke="#000000" stroke-miterlimit="10" cx="109.816" cy="74.99" rx="5.933" ry="12.927"/>
		</g>
		<g id="handle1_22_">
			<path fill="#CBCB2C" stroke="#000000" stroke-miterlimit="10" d="M110.574,67.694c7.095-0.758,13.132,1.269,13.48,4.528
				s-5.126,6.513-12.224,7.271s-13.135-1.271-13.48-4.527C98.002,71.706,103.474,68.451,110.574,67.694z"/>
			
				<ellipse transform="matrix(-0.1062 -0.9943 0.9943 -0.1062 50.6084 189.8831)" fill="#CBCB2C" stroke="#000000" stroke-miterlimit="10" cx="110.648" cy="72.195" rx="5.933" ry="12.924"/>
		</g>
	</g>
</g>
<g id="quill">
</g>
</svg>
