<?xml version="1.0" encoding="utf-8"?>
<!-- Generator: Adobe Illustrator 15.1.0, SVG Export Plug-In . SVG Version: 6.00 Build 0)  -->
<!DOCTYPE svg PUBLIC "-//W3C//DTD SVG 1.1//EN" "http://www.w3.org/Graphics/SVG/1.1/DTD/svg11.dtd">
<svg version="1.1" xmlns="http://www.w3.org/2000/svg" xmlns:xlink="http://www.w3.org/1999/xlink" x="0px" y="0px" width="156px"
	 height="155.333px" viewBox="0 0 156 155.333" enable-background="new 0 0 156 155.333" xml:space="preserve">
<g id="Background">
	<circle fill="#F26739" stroke="#000000" stroke-width="4" stroke-miterlimit="10" cx="78.483" cy="78.798" r="73.983"/>
</g>
<g id="pot">
	<g>
		<g>
			<g>
				<path fill="#F89838" d="M48.732,73.998c8.12-3.77,11.036-6.737,18.895-4.121c9.846,3.137,13.818,8.945,15.62,15.668
					c2.854,10.656,0.399,13.323,8.253,21.497c6.125,6.375,15.16,9.295,24,8.753c4.709-0.043,14.813-5.157,18.5-7.878
					c5.25-3.875,12.25-12.097,13.75-18.75c1.334-5.917,3.422-21.826-1.332-26.491c-6.611-7.061-15.951-10.65-25.369-10.563
					c-9.096,0.153-18.672,3.024-26.26-2.558c-7.586-5.581-14.426-12.274-22.4-17.598"/>
				<g>
					<path d="M49.501,74.814c2.403-1.146,4.765-2.375,7.171-3.514c4.358-2.063,8.237-1.042,12.49,0.666
						c5.496,2.206,9.368,6.44,11.467,11.893c1.591,4.132,1.938,8.646,2.737,12.966c0.812,4.391,3.364,7.776,6.342,10.979
						c14.207,15.287,37.693,9.32,50.747-3.951c6.908-7.022,9.703-14.624,10.607-24.207c0.862-9.133,0.151-16.636-7.893-22.107
						c-9.869-6.713-20.12-6.755-31.564-5.831c-4.307,0.348-8.483,0.201-12.525-1.462c-3.461-1.424-6.573-4.573-9.449-6.935
						c-5.148-4.229-10.201-8.534-15.708-12.3c-1.062-0.726-4.631,0.824-3.068,1.893c5.328,3.644,10.229,7.816,15.191,11.932
						c4.116,3.415,8.045,6.86,13.219,8.467c4.758,1.478,10.198,0.743,15.058,0.315c7.179-0.63,13.684-0.238,20.362,2.665
						c4.366,1.897,9.733,5.334,11.589,9.927c1.711,4.234,1.266,9.486,0.923,13.909c-0.823,10.623-4.802,18.727-12.836,25.927
						c-8.54,7.653-20.245,10.579-31.069,6.754c-5.629-1.989-10.189-6.066-13.599-10.871c-2.362-3.33-2.68-7.459-3.313-11.358
						c-1.415-8.701-4.778-15.594-12.768-19.856c-9.66-5.153-16.605-1.846-25.649,2.468C45.541,74.338,47.765,75.643,49.501,74.814
						L49.501,74.814z"/>
				</g>
			</g>
			<g>
				<path d="M76.197,36.965c2.865,8.254,2.416,14.354-4.771,19.955c-4.417,3.442-8.662,3-12.375,7.25
					c-2.829,3.238-7.82,6.985-10.319,9.829c-1.412-3.644,2.253-9.843,2.546-13.617c0.529-4.924-0.924-9.535,0.064-14.364
					c1.365-6.67,17.402-20.642,23.256-11.776L76.197,36.965z"/>
				<g>
					<path d="M74.266,37.482c1.213,3.7,2.009,7.297,1.231,11.177c-1.099,5.479-6.683,8.564-11.374,10.457
						c-3.084,1.244-5.356,3.052-7.595,5.479c-2.919,3.165-6.47,5.691-9.41,8.843c1.182,0.015,2.364,0.029,3.546,0.043
						c-1.222-4.849,2.377-10.149,2.685-15.083c0.35-5.631-1.674-11.127,1.759-16.143c2.433-3.555,6.007-6.483,9.833-8.406
						c4.748-2.386,7.211,0.086,9.487,3.963c0.871,1.484,4.56,0.043,3.539-1.694c-1.942-3.31-3.971-6.216-8.236-6.132
						c-5.135,0.101-9.914,3.088-13.588,6.477c-4.767,4.397-7.21,8.481-7.072,15.075c0.101,4.78,0.625,8.856-0.889,13.47
						c-1.019,3.106-2.208,6.228-1.381,9.509c0.388,1.54,2.821,0.819,3.546,0.043c3.245-3.479,7.09-6.329,10.319-9.829
						c3.493-3.787,9.246-4.625,13.238-7.935c6.518-5.402,6.693-12.825,4.226-20.348C77.553,34.69,73.699,35.757,74.266,37.482z"/>
				</g>
			</g>
		</g>
		<path fill="none" stroke="#000000" stroke-width="7" stroke-miterlimit="10" d="M99.42,51.933
			c-2.645,11.916-7.244,19.361-19.805,25.843"/>
		<path fill="none" stroke="#000000" stroke-width="7" stroke-miterlimit="10" d="M127.801,52.69
			c-2.385,19.628-22.408,42.241-37.176,52.352"/>
		<path fill="none" stroke="#000000" stroke-width="5" stroke-miterlimit="10" d="M141.66,58.724
			c-2.385,19.628-24.933,44.983-39.7,55.094"/>
		<path fill="none" stroke="#000000" stroke-width="5" stroke-miterlimit="10" d="M82.75,39.844
			c1.875-23.678,28.5-11.553,35.625,12.846"/>
	</g>
</g>
<g id="Wine">
	<g>
		<path fill="#CC2036" d="M70.331,129.585c-1.218,1.036-0.13,2.325-1.196,2.834c-2.504,0.295-2.989-0.302-3.538-0.889
			c-0.954-1.021-0.659-3.112-1.921-3.436c0.926-0.146,0.715,0.425,1.583,0.2c1.018,0.051,0.98-0.196,1.917-0.392
			c3.416,0.549,9.549-1.654,7.466-4.241c0.816-2.269,0.59-5.196-0.189-7.127c-1.523-3.775-5.78-6.322-9.568-6.949
			c-5.094-0.844-7.48-2.747-10.148-5.895c-3.269-3.855-7.028-19.546-6.772-24.481c0.322-6.219,8.712-16.375,13.046-18.291
			c0.647-0.286,6.75-2.417,8.491-4.849c-2.375,1.406-9.784,1.28-12.074,1.974c-7.531,2.281-9.142,6.015-11.031,12.219
			c-2.048,6.722-4.117,17.063-3.156,23.719c1.149,7.963-3.354,25.404-9.557,26.993c-1.419,0.363-14.058,3.435-9.964-3.222
			c1.531-2.489-1.405-4.218-2.75-4.25c-1.881-0.045-0.189,5.679-1.385,6.698c-1.688,1.438-14.74-6.156-15.031,1.719
			c-0.079,2.126,0.552,5.379,2.417,6.75c1.646,1.21,2,2.243,4.003,2.243c2.82,0,4.558,0.142,8.401-0.952
			c2.007-0.571,4.855-1.275,7.043-0.181c1.249,0.625,2.122,2.661,3.22,3.515c1.6,1.245,2.006,4.597,3.792,5.594
			c1.156,2.375,2.133,1.938,4.625,3.531c0.781,0.5,1.403,1.647,2.32,1.702c0.049,0.038,7.774,2.581,11.897,1.624
			c2.406-0.558,5.192-2.128,3.563-4.67c-0.063-0.098-1.581-2.64-1.94-2.105c0.084-0.125,0.188-0.243,0.304-0.357
			c1.763,1.324,3.874,2.238,6.236,2.605c0.956,0.149,1.9,0.208,2.836,0.203c0.125,0.025,0.231,0.099,0.363,0.08
			c6.087-0.873,12.422-1.646,16.038-6.605C84.674,128.027,74.166,126.325,70.331,129.585z"/>
		<g>
			<g>
				<path d="M57.561,57.77C42.086,60.585,43.377,80.72,42.526,92.664c-0.515,7.217-0.372,14.389-3.201,21.174
					c-2.184,5.238-6.449,7.804-12.18,7.17c-2.157-0.238-4.018-1.031-5.602-2.503c-1.745-1.622-1.272-2.648,1.417-3.077
					c0.346,1.016,0.135,1.962-0.631,2.838c-1.112,0.688,0.584,0.933,1.194,0.556c4.575-2.83-1.901-9.579-4.887-3.974
					c-1.688,3.168,2.633,5.837,4.926,6.659c2.834,1.016,6.946,1.223,9.799,0.115c7.795-3.026,10.037-12.285,10.53-19.826
					c0.494-7.563,0.913-15.112,1.76-22.648c0.893-7.947,1.81-18.539,11.64-20.328C58.194,58.655,58.893,57.527,57.561,57.77
					L57.561,57.77z"/>
			</g>
		</g>
		<g>
			<g>
				<path d="M59.472,61.178c-5.709,4.437-11.638,9.605-12.454,17.191c-0.485,4.509,1.29,9.211,2.456,13.482
					c1.12,4.104,2.565,8.052,4.751,11.711c4.511,7.55,15.147,4.604,19.082,12.534c1.057,2.131,1.237,4.545,0.871,6.857
					c-0.832,5.24-7.336,4.828-10.976,3.882c-2.129-0.553-4.143-1.886-5.729-3.365c0.172-3.69,1.582-5.502,4.229-5.435
					c2.833-0.299,5.986,2.779,3.432,4.91c-0.889,0.742,1.022,0.917,1.584,0.448c2.318-1.934,1.115-6.048-1.97-6.468
					c-3.781-0.515-7.744,0.036-9.734,3.552c-2.149,3.796,4.545,6.693,7.04,7.538c3.94,1.334,8.688,0.971,11.959-1.689
					c3.509-2.854,2.629-8.774,0.52-12.16c-3.149-5.053-8.89-4.954-13.915-7.068c-6.989-2.941-8.78-14.084-10.527-20.564
					c-1.275-4.729-1.746-9.398,0.434-13.911c2.101-4.35,6.468-7.82,10.188-10.712C61.75,61.105,60.151,60.651,59.472,61.178
					L59.472,61.178z"/>
			</g>
		</g>
		<g>
			<g>
				<path d="M50.661,114.808c-5.272,7.123-3.233,17.434,3.113,23.221c6.28,5.728,16.892,3.782,23.348-0.443
					c6.114-4.001,5.03-11.047-2.727-10.042c-1.89,0.245-5.396,1.445-6.336,3.279c-1.609,3.138,1.195,5.175,4.093,4.689
					c0.863-0.145,1.642-1.164,0.299-0.938c-3.573-0.938-3.928-2.623-1.066-5.053c1.578-0.955,3.301-1.321,5.168-1.099
					c5.031,0.464,2.246,6.159,0.236,8.042c-4.948,4.639-13.055,5.042-18.965,2.348c-8.46-3.856-10.549-17.052-5.383-24.032
					C52.916,114.14,50.993,114.359,50.661,114.808L50.661,114.808z"/>
			</g>
		</g>
		<g>
			<g>
				<path d="M19.714,120.475c-3.658-1.208-8.087-3.513-12.038-2.442c-5.313,1.44-4.72,6.7-1.58,10.424
					c6.249,7.409,12.249-0.646,19.552,1.702c3.046,0.979,4.952,6.441,6.819,8.802c2.438,3.083,6.009,4.997,9.659,6.234
					c4.134,1.402,9.846,1.879,13.732-0.495c4.598-2.809-2.408-8.097-5.034-8.799c-3.097-0.828-6.871,0.967-7.473,4.172
					c-0.7,3.721,5.635,1.885,6.819,0.63c0.366-0.388-1.439-0.135-1.739,0.183c-1.555,1.648-2.877-0.062-3.148-1.33
					c1.645-2.921,3.625-3.671,5.942-2.25c0.67,0.349,1.277,0.787,1.819,1.314c1.314,1.098,1.998,2.559,2.166,4.199
					c0.417,4.079-8.485,2.375-9.967,2.078c-4.759-0.955-8.804-3.874-11.763-7.615c-1.842-2.33-2.774-5.175-5.021-7.187
					c-1.411-1.263-3.814-1.265-5.561-1.083c-4.367,0.458-8.19,3.231-12.729,0.679c-3.21-1.805-8.552-11.867-0.463-11.027
					c2.823,0.293,5.511,1.565,8.183,2.448C18.425,121.291,19.809,120.506,19.714,120.475L19.714,120.475z"/>
			</g>
		</g>
		<g>
			<g>
				<path d="M46.21,105.553c-0.04,7.649-0.812,14.814-4.273,21.709c-2.299,4.58-8.686,7.706-11.811,2.273
					c-0.15-0.262-1.518-7.158,1.502-4.58c0.336,0.286,0.955,3,1.207,3.057c-0.495-0.112-2.206,0.67-1.569,0.814
					c3.236,0.732,3.879-2.226,2.173-4.564c-0.858-1.177-2.51-0.739-3.614-0.326c-2.657,0.994-2.466,3.973-1.631,6.117
					c1.924,4.942,8.665,4.773,12.081,1.611c7.091-6.563,7.819-17.606,7.867-26.629C48.145,104.62,46.213,104.926,46.21,105.553
					L46.21,105.553z"/>
			</g>
		</g>
	</g>
</g>
</svg>
