<?xml version="1.0" encoding="utf-8"?>
<!-- Generator: Adobe Illustrator 15.1.0, SVG Export Plug-In . SVG Version: 6.00 Build 0)  -->
<!DOCTYPE svg PUBLIC "-//W3C//DTD SVG 1.1//EN" "http://www.w3.org/Graphics/SVG/1.1/DTD/svg11.dtd">
<svg version="1.1" xmlns="http://www.w3.org/2000/svg" xmlns:xlink="http://www.w3.org/1999/xlink" x="0px" y="0px" width="156px"
	 height="155.333px" viewBox="0 0 156 155.333" enable-background="new 0 0 156 155.333" xml:space="preserve">
<g id="Background">
	<circle fill="#EB7125" stroke="#000000" stroke-width="4" stroke-miterlimit="10" cx="78.483" cy="78.798" r="73.983"/>
</g>
<g id="horn">
	<path display="none" fill="none" stroke="#000000" stroke-miterlimit="10" d="M68.125,117.164
		c47-26.247,5.247-64.751-21.375-46.751"/>
	<path display="none" fill="none" stroke="#000000" stroke-miterlimit="10" d="M87.91,98.053
		c24.715-19.762-17.16-41.637-35.073-30.723"/>
	<g>
		<path fill="#FCF9CE" stroke="#000000" stroke-miterlimit="10" d="M125.833,17.921c-2.595-3.51-5.565,1.352-2.208,6.582"/>
		<path fill="#FCF9CE" stroke="#000000" stroke-miterlimit="10" d="M127.727,20.635c-0.733-6.13-6.52,0.656-5.283,6.355"/>
		<path fill="#FCF9CE" stroke="#000000" stroke-miterlimit="10" d="M129.824,23.155c-0.732-6.131-7.69,1.459-7.982,6.441"/>
		<path fill="#FCF9CE" stroke="#000000" stroke-miterlimit="10" d="M132.406,26.275c0.046-7.574-10.133,1.294-12.479,6.239"/>
		<path fill="#FCF9CE" stroke="#000000" stroke-miterlimit="10" d="M133.441,30.274c2.408-8.888-12.674,0.293-16.391,5.053"/>
		<path fill="#FCF9CE" stroke="#000000" stroke-miterlimit="10" d="M135.306,36.357c5.798-12.064-18.73-2.029-23.5,2.177"/>
		<path fill="#FCF9CE" stroke="#000000" stroke-miterlimit="10" d="M137.741,43.124c5.799-12.064-26.133-6.458-30.903-2.253"/>
		<path fill="#FCF9CE" stroke="#000000" stroke-miterlimit="10" d="M138.907,50.765c8.175-13.461-30.634-12.677-35.403-8.472"/>
		<path fill="#FCF9CE" stroke="#000000" stroke-miterlimit="10" d="M139.455,57.569c8.174-13.46-35.876-18.169-40.645-13.964"/>
		<path fill="#FCF9CE" stroke="#000000" stroke-miterlimit="10" d="M139.388,63.758c8.177-13.46-37.965-23.576-42.733-19.371"/>
		<path fill="#FCF9CE" stroke="#000000" stroke-miterlimit="10" d="M137.454,69.977c12.486-13.764-38.837-29.125-43.608-24.92"/>
		<path fill="#FCF9CE" stroke="#000000" stroke-miterlimit="10" d="M135.651,74.848c12.545-11.167-40.6-33.564-45.369-29.358"/>
		<path fill="#FCF9CE" stroke="#000000" stroke-miterlimit="10" d="M131.998,83.758c18.853-13.683-40.004-43.556-48.146-37.875"/>
		<path fill="#FCF9CE" stroke="#000000" stroke-miterlimit="10" d="M125.895,94.83c22.822-13.783-29.043-59.053-48.414-47.572"/>
		<path fill="#FCF9CE" stroke="#000000" stroke-miterlimit="10" d="M117.021,106.743c28.146-12.995-16.116-69.044-45.236-58.204"/>
		<path fill="#FCF9CE" stroke="#000000" stroke-miterlimit="10" d="M102.684,116.886c43.114-12.469-8.426-76.535-39.208-67.586"/>
		<path fill="#666766" stroke="#000000" stroke-miterlimit="10" d="M106.625,116.687c-16.604,18.305-43.921,20.577-61.017,5.07
			C28.512,106.251,28.11,78.843,44.71,60.535c16.604-18.305,43.921-20.575,61.02-5.068
			C122.826,70.972,123.226,98.381,106.625,116.687z"/>
	</g>
	<g>
		<path fill="#FCF9CE" stroke="#000000" stroke-width="0.5" stroke-miterlimit="10" d="M94.274,46.65
			c-7.165,2.595-8.599,4.231-12.04,3.643c-4.351-0.743-4.754-1.848-11.475,0.472c1.024-8.205,5.163-11.032,11.837-10.556
			C89.265,40.689,90.55,43.604,94.274,46.65z"/>
		<path fill="#FCF9CE" stroke="#000000" stroke-width="0.5" stroke-miterlimit="10" d="M109.777,55.949
			c-7.587,0.715-10.949-0.438-14.3-1.422c-4.414-1.297-6.854-0.053-11.077-4.226c4.868-1.542,7.844-6.874,14.186-4.74
			C104.918,47.699,106.937,52.067,109.777,55.949z"/>
		<path fill="#FCF9CE" stroke="#000000" stroke-width="0.5" stroke-miterlimit="10" d="M119.214,71.182
			c-7.095-2.777-8.899-2.818-11.449-5.206c-3.355-3.146-6.389-4.655-8.278-10.28c5.039,0.814,10.503-1.82,15.202,2.939
			C119.382,63.398,118.428,66.438,119.214,71.182z"/>
		<path fill="#FCF9CE" stroke="#000000" stroke-width="0.5" stroke-miterlimit="10" d="M121.304,88.136
			c-5.191-5.577-6.453-6.552-8.065-9.652c-2.168-4.17-3.955-4.969-3.223-10.858c5.182,2.162,10.471,0.916,12.643,7.242
			C124.828,81.193,122.649,83.519,121.304,88.136z"/>
		<path fill="#FCF9CE" stroke="#000000" stroke-width="0.5" stroke-miterlimit="10" d="M115.127,104.957
			c-1.626-7.445-2.595-8.97-2.021-12.416c0.756-4.537,1.793-5.286,2.527-10.502c3.581,4.583,8.776,5.641,7.422,12.19
			C121.697,100.777,118.635,101.667,115.127,104.957z"/>
		<path fill="#FCF9CE" stroke="#000000" stroke-width="0.5" stroke-miterlimit="10" d="M104.664,116.991
			c0.58-7.599,0.719-9.231,2.258-12.366c2.028-4.13,4.063-4.063,6.263-9.58c1.453,5.106,5.334,8.065,2.154,13.951
			C112.155,114.877,108.972,114.851,104.664,116.991z"/>
		<path fill="#FCF9CE" stroke="#000000" stroke-width="0.5" stroke-miterlimit="10" d="M90.263,125.079
			c3.392-6.826,4.698-8.285,7.302-10.613c3.431-3.065,2.871-3.28,8.163-6.076c-0.014,5.188,2.587,9.025-2.569,13.287
			C97.998,125.932,94.993,126.581,90.263,125.079z"/>
		<path fill="#FCF9CE" stroke="#000000" stroke-width="0.5" stroke-miterlimit="10" d="M75.309,129.117
			c5.791-4.956,6.424-5.849,9.731-6.973c4.354-1.48,5.928-2.646,10.5-5.714c-0.808,5.751-0.62,12.694-7.033,14.6
			C82.094,132.928,79.867,130.655,75.309,129.117z"/>
		<path fill="#FCF9CE" stroke="#000000" stroke-width="0.5" stroke-miterlimit="10" d="M59.28,129.482
			c6.941-3.149,8.231-4.413,11.721-4.573c4.595-0.211,6.174-1.311,11.456-1.626c-0.66,6.354-4.341,11.66-11.031,11.707
			C64.739,135.029,63.229,132.227,59.28,129.482z"/>
		<path fill="#FCF9CE" stroke="#000000" stroke-width="0.5" stroke-miterlimit="10" d="M43.588,120.941
			c7.609-0.436,9.269-1.15,12.581-0.041c4.361,1.461,6.17,2.382,11.986,4.501c-5.294,3.735-8.966,7.423-15.224,5.056
			C46.68,128.083,46.282,124.925,43.588,120.941z"/>
		<path fill="#FCF9CE" stroke="#000000" stroke-width="0.5" stroke-miterlimit="10" d="M32.661,107.498
			c7.015,2.979,8.82,3.074,11.298,5.534c3.264,3.242,4.961,3.398,10.071,7.365c-7.57,2.886-12.644,4.665-17.206-0.229
			C32.271,115.271,33.313,112.263,32.661,107.498z"/>
		<path fill="#FCF9CE" stroke="#000000" stroke-width="0.5" stroke-miterlimit="10" d="M29.894,90.03
			c5.238,5.535,6.854,6.344,8.142,9.591c1.694,4.275,3.802,6.681,4.853,12.465c-7.601-0.863-12.021-2.469-14.246-8.78
			C26.427,96.998,28.585,94.659,29.894,90.03z"/>
		<path fill="#FCF9CE" stroke="#000000" stroke-width="0.5" stroke-miterlimit="10" d="M34.372,72.738
			c2.338,7.253,3.446,8.679,3.207,12.165c-0.316,4.587,0.391,7.458-0.402,12.976c-5.776-3.048-10.378-7.052-9.662-13.705
			C28.238,77.527,31.195,76.348,34.372,72.738z"/>
		<path fill="#FCF9CE" stroke="#000000" stroke-width="0.5" stroke-miterlimit="10" d="M56.222,50.489
			c-2.713,7.122-2.74,8.929-5.106,11.498c-3.116,3.383-3.151,4.427-7.834,7.341c-3.084-4.863-4.282-9.459,0.437-14.204
			C48.439,50.391,51.484,51.32,56.222,50.489z"/>
		<path fill="#FCF9CE" stroke="#000000" stroke-width="0.5" stroke-miterlimit="10" d="M69.195,45.645
			c-5.021,5.733-1.656,5.842-4.769,7.428c-4.098,2.087-7.485,5.45-11.921,7.071c-1.647-4.46-2.721-11.7,3.354-14.505
			C61.933,42.845,64.464,44.775,69.195,45.645z"/>
		<path fill="#FCF9CE" stroke="#000000" stroke-width="0.5" stroke-miterlimit="10" d="M70.723,51.053
			c4.945-1.747,6.435-2.034,3.32-1.21c-4.446,1.177-7.156,3.748-12.506,4.936c0.729-6.643-4.901-13.113,14.131-13.5
			C72.991,42.813,71.285,46.307,70.723,51.053z"/>
		<path fill="#FCF9CE" stroke="#000000" stroke-width="0.5" stroke-miterlimit="10" d="M44.217,59.299
			c-0.712,7.588-0.256,9.335-1.851,12.443c-2.101,4.092-3.511,5.207-5.13,9.506c-5.314-4.299-7.114-8.313-3.831-14.145
			C36.691,61.282,39.874,61.363,44.217,59.299z"/>
	</g>
</g>
<g id="harvest">
	<g id="grape_7_">
		
			<ellipse transform="matrix(-0.5464 -0.8375 0.8375 -0.5464 72.7421 221.519)" fill="#673695" stroke="#000000" stroke-miterlimit="10" cx="96.357" cy="91.061" rx="2.958" ry="2.825"/>
		<g>
			<path fill="#016735" d="M65.081,80.91c-0.432-1.916,1.576-6.837,1.396-8.827c-0.097-0.789-0.841-3.297-0.489-3.948
				c0.619-1.134,2.847-0.977,3.775-1.524c0.338-0.236,1.041-0.168,1.379-0.409c0.564-0.85-0.647-1.715,0.532-2.338
				c0.844,1.927,0.793,2.217,2.902,1.051c1.302-0.664,2.282-1.498,3.772-1.528c0.098,0.789-0.595,1.672-0.335,2.55
				c3.029-0.354,8.054-0.885,10.197,1.75c2.07,2.386,3.588,8.887,3.953,11.505c-1.67-1.957-3.335-5.281-5.611-6.517
				c-1.624-0.88-4.129-0.138-5.794,0.222"/>
			<g>
				<path d="M65.805,80.715c-0.2-2.98,1.309-5.759,1.398-8.718c0.037-1.214-1.518-3.75,0.66-4.46
					c1.098-0.357,2.27-0.619,3.383-0.951c0.212-0.063,0.583-0.207,0.622-0.47c0.079-0.522,0.206-1.866,0.484-2.226
					c-0.468,0.056-0.935,0.111-1.402,0.167c0.332,0.754,0.637,1.935,1.66,1.977c1.72,0.069,4.94-3.233,4.679-0.012
					c-0.027,0.333,0.392,0.365,0.633,0.338c4.67-0.52,8.913-0.518,11.124,4.229c1.268,2.722,1.926,5.846,2.395,8.797
					c0.466-0.162,0.931-0.323,1.396-0.484c-1.825-2.322-3.237-4.887-5.709-6.589c-1.724-1.187-4.664-0.208-6.471,0.199
					c-0.888,0.2-0.669,0.967,0.207,0.771c6.521-1.466,7.706,2.479,10.631,6.199c0.295,0.375,1.479,0.042,1.396-0.484
					c-0.663-4.175-1.614-9.352-4.821-12.366c-0.879-0.827-2.595-1.215-3.717-1.306c-2.331-0.189-5.858,1.146-5.276-2.024
					c0.078-0.424-0.609-0.343-0.829-0.3c-1.063,0.206-5.171,2.202-5.847,0.667c-0.229-0.519-1.157-0.149-1.402,0.167
					c-0.792,1.024-0.306,2.031-1.526,2.454c-1.292,0.447-3.297,0.474-4.161,1.817c-0.871,1.353,0.498,4.427,0.238,6.009
					c-0.388,2.356-1.354,4.566-1.192,6.987C64.39,81.609,65.844,81.297,65.805,80.715L65.805,80.715z"/>
			</g>
		</g>
		
			<ellipse transform="matrix(-0.5469 -0.8372 0.8372 -0.5469 64.5204 218.828)" fill="#673695" stroke="#000000" stroke-miterlimit="10" cx="91.476" cy="91.955" rx="2.959" ry="2.824"/>
		
			<ellipse transform="matrix(-0.5469 -0.8372 0.8372 -0.5469 71.1817 213.0547)" fill="#673695" stroke="#000000" stroke-miterlimit="10" cx="93.247" cy="87.264" rx="2.959" ry="2.822"/>
		
			<ellipse transform="matrix(-0.5465 -0.8374 0.8374 -0.5465 54.3301 216.7348)" fill="#673695" stroke="#000000" stroke-miterlimit="10" cx="85.846" cy="93.657" rx="2.958" ry="2.823"/>
		<path fill="#673695" stroke="#000000" stroke-miterlimit="10" d="M85.287,85.397c1.303-0.853,3.085-0.434,3.978,0.934
			c0.896,1.368,0.563,3.168-0.745,4.019c-1.304,0.853-3.085,0.435-3.979-0.933C83.647,88.049,83.979,86.249,85.287,85.397z"/>
		<path fill="#673695" stroke="#000000" stroke-miterlimit="10" d="M80.061,87.717c1.303-0.851,3.087-0.435,3.98,0.935
			c0.893,1.368,0.56,3.167-0.748,4.02c-1.306,0.853-3.086,0.434-3.979-0.934C78.421,90.369,78.755,88.57,80.061,87.717z"/>
		<path fill="#673695" stroke="#000000" stroke-miterlimit="10" d="M89.107,80.928c1.308-0.851,3.088-0.435,3.982,0.933
			c0.893,1.368,0.559,3.168-0.745,4.021c-1.306,0.852-3.088,0.435-3.98-0.934C87.471,83.579,87.806,81.779,89.107,80.928z"/>
		
			<ellipse transform="matrix(-0.5466 -0.8374 0.8374 -0.5466 61.0041 199.5211)" fill="#673695" stroke="#000000" stroke-miterlimit="10" cx="84.514" cy="83.246" rx="2.958" ry="2.822"/>
		
			<ellipse transform="matrix(-0.5468 -0.8373 0.8373 -0.5468 51.0214 199.0512)" fill="#673695" stroke="#000000" stroke-miterlimit="10" cx="79.386" cy="85.716" rx="2.959" ry="2.822"/>
		
			<ellipse transform="matrix(-0.5466 -0.8374 0.8374 -0.5466 69.7314 195.8907)" fill="#673695" stroke="#000000" stroke-miterlimit="10" cx="87.895" cy="79.069" rx="2.958" ry="2.824"/>
		
			<ellipse transform="matrix(-0.5469 -0.8372 0.8372 -0.5469 62.1469 190.0651)" fill="#673695" stroke="#000000" stroke-miterlimit="10" cx="82.506" cy="78.215" rx="2.957" ry="2.823"/>
		
			<ellipse transform="matrix(-0.5466 -0.8374 0.8374 -0.5466 53.4004 190.7751)" fill="#673695" stroke="#000000" stroke-miterlimit="10" cx="78.347" cy="80.931" rx="2.958" ry="2.822"/>
		
			<ellipse transform="matrix(-0.5468 -0.8373 0.8373 -0.5468 56.5564 182.9103)" fill="#673695" stroke="#000000" stroke-miterlimit="10" cx="77.785" cy="76.147" rx="2.958" ry="2.821"/>
		
			<ellipse transform="matrix(-0.5466 -0.8374 0.8374 -0.5466 48.9874 185.9194)" fill="#673695" stroke="#000000" stroke-miterlimit="10" cx="74.823" cy="79.698" rx="2.958" ry="2.824"/>
		
			<ellipse transform="matrix(-0.5464 -0.8375 0.8375 -0.5464 42.3933 192.9125)" fill="#673695" stroke="#000000" stroke-miterlimit="10" cx="73.437" cy="84.976" rx="2.958" ry="2.823"/>
		
			<ellipse transform="matrix(-0.5467 -0.8373 0.8373 -0.5467 40.762 202.1978)" fill="#673695" stroke="#000000" stroke-miterlimit="10" cx="75.114" cy="90.065" rx="2.958" ry="2.824"/>
		
			<ellipse transform="matrix(-0.5467 -0.8373 0.8373 -0.5467 41.4299 210.2791)" fill="#673695" stroke="#000000" stroke-miterlimit="10" cx="77.636" cy="93.925" rx="2.958" ry="2.823"/>
		
			<ellipse transform="matrix(-0.5467 -0.8373 0.8373 -0.5467 34.3028 196.505)" fill="#673695" stroke="#000000" stroke-miterlimit="10" cx="70.341" cy="88.968" rx="2.958" ry="2.823"/>
		<path fill="#673695" stroke="#000000" stroke-miterlimit="10" d="M67.925,79.053c1.306-0.852,3.086-0.435,3.979,0.934
			c0.896,1.368,0.561,3.167-0.746,4.019c-1.304,0.854-3.086,0.434-3.979-0.933C66.286,81.705,66.62,79.904,67.925,79.053z"/>
		<path fill="#673695" stroke="#000000" stroke-miterlimit="10" d="M70.848,73.609c1.306-0.852,3.088-0.435,3.981,0.935
			c0.896,1.368,0.559,3.167-0.747,4.021c-1.303,0.852-3.086,0.433-3.98-0.934C69.209,76.262,69.542,74.461,70.848,73.609z"/>
		
			<ellipse transform="matrix(-0.5468 -0.8373 0.8373 -0.5468 32.0166 187.325)" fill="#673695" stroke="#000000" stroke-miterlimit="10" cx="66.71" cy="84.997" rx="2.959" ry="2.821"/>
		<g>
			<g>
				<path d="M66.9,81.149c1.65-1.248,2.462-2.719,3.201-4.63c1.667-4.308,6.108-5.583,10.156-3.438
					c0.662,0.351,2.401-0.565,1.51-1.038c-2.98-1.58-6.102-1.574-9.224-0.426c-4.242,1.56-3.66,6.339-6.89,8.781
					C64.606,81.191,66.207,81.673,66.9,81.149L66.9,81.149z"/>
			</g>
		</g>
		<g>
			<path fill="#016735" d="M73.561,100.113c-2.857,3.272-2.956,5.991-2.308,10.092c-5.016,1.403-4.149-5.875-5.464-8.607
				c-1.133,0.897-1.869,2.158-2.57,3.239c-1.828-2.083-1.568-6.467-0.641-8.633c1.002-2.528,0.154-4.785,0.978-7.35"/>
			<g>
				<path d="M72.847,100.245c-2.583,3.25-2.883,6.147-2.318,10.155c0.288-0.149,0.575-0.298,0.863-0.448
					c-4.327,0.815-3.872-6.011-4.878-8.548c-0.133-0.335-1.214,0.095-1.378,0.256c-1.056,1.04-1.816,2.053-2.629,3.308
					c0.479-0.108,0.958-0.217,1.438-0.326c-1.256-1.818-1.423-3.732-1.293-5.895c0.083-1.378,0.687-2.84,1.049-4.165
					c0.499-1.823,0.172-3.999,0.57-5.86c0.064-0.3-1.354-0.081-1.427,0.263c-0.645,3.02-0.757,6.046-1.481,9.073
					c-0.564,2.36-0.245,4.977,1.133,6.973c0.221,0.32,1.267-0.062,1.438-0.326c0.684-1.171,1.521-2.228,2.51-3.169
					c-0.459,0.085-0.919,0.171-1.378,0.256c1.424,3.592,0.568,9.699,6.05,8.667c0.159-0.03,0.901-0.179,0.863-0.448
					c-0.55-3.903-0.194-6.897,2.297-10.029C74.352,99.885,73.111,99.913,72.847,100.245L72.847,100.245z"/>
			</g>
		</g>
		<g>
			<path fill="#016735" d="M74.535,100.414c1.077,1.169,2.373,2.197,4,2.539c-0.414-2.071,0.224-4.204-1.539-5.706
				c-1.834-1.612-4.08-1.705-6.107-1.944c-4.708-0.515-2.87-7.023-8.025-6.311"/>
			<g>
				<path d="M73.86,100.69c1.245,1.257,2.401,2.088,4.095,2.6c0.32,0.097,1.378-0.003,1.305-0.531
					c-0.369-2.663-0.071-4.658-2.398-6.391c-2.201-1.64-5.346-0.63-7.445-2.264c-1.349-1.049-1.71-3.108-2.76-4.437
					c-0.891-1.127-2.395-1.147-3.686-1.05c-0.691,0.052-1.219,0.826-0.212,0.75c3.91-0.294,3.178,4.225,5.829,5.681
					c1.396,0.767,2.988,0.73,4.531,0.987c4.334,0.721,4.226,3.73,4.693,7.112c0.436-0.177,0.87-0.354,1.305-0.531
					c-1.596-0.482-2.753-1.314-3.905-2.479C74.871,99.796,73.504,100.33,73.86,100.69L73.86,100.69z"/>
			</g>
		</g>
		<g>
			<g>
				<path d="M64.037,82.119c-0.445,1.873-1.673,3.33-2.044,5.237c-0.421,2.162,1.109,4.611,2.182,6.338
					c0.862,1.389,1.875,2.346,3.339,3.033c2.039,0.957,3.808,0.429,3.925,3.309c0.021,0.52,1.959,0.156,1.932-0.518
					c-0.155-3.823-3.02-2.603-5.638-4.425c-1.823-1.269-2.89-3.907-3.558-5.939c-0.954-2.902,1.172-4.735,1.784-7.314
					C66.106,81.219,64.176,81.529,64.037,82.119L64.037,82.119z"/>
			</g>
		</g>
		<g>
			<g>
				<path d="M66.324,81.284c-3.606-4.47-8.668-8.149-14.36-4.915c-5.091,2.893-5.06,10.005-0.593,13.376
					c3.477,2.624,9.67-2.307,6.743-5.958c-1.994-2.487-7.04-1.984-6.223,1.852c0.176,0.826,2.112,0.328,1.932-0.518
					c-0.445-2.092,1.568-1.39,2.515-0.513c1.443,1.335,0.147,3.192-0.98,4.143c-2.156,1.817-4.353-1.878-4.939-3.26
					c-0.496-1.169-0.505-2.475-0.364-3.711c0.458-4.019,4.639-6.137,8.277-4.953c2.575,0.837,4.578,3.249,6.216,5.278
					C65.057,82.736,66.905,82.004,66.324,81.284L66.324,81.284z"/>
			</g>
		</g>
	</g>
	<g id="melon_3_">
		<path fill="#A0D6BB" stroke="#000000" stroke-width="0.75" stroke-miterlimit="10" d="M39.566,81.376
			c-0.412-5.834,20.435-17.581,28.951-3.893"/>
		<path fill="#A0D6BB" stroke="#000000" stroke-width="0.75" stroke-miterlimit="10" d="M37.042,87.99
			c-0.543-13.498,30.218-19.412,34.602-6.429"/>
		<path fill="#A0D6BB" stroke="#000000" stroke-width="0.75" stroke-miterlimit="10" d="M36.195,92.886
			c1.663-18.482,34.504-19.929,40.518-5.291"/>
		<path fill="#A0D6BB" stroke="#000000" stroke-width="0.75" stroke-miterlimit="10" d="M43.434,103.143
			c11.164,12.007,27.504,5.863,29.534-2.003"/>
		<path fill="#A0D6BB" stroke="#000000" stroke-width="0.75" stroke-miterlimit="10" d="M38.553,95.789
			c3.705,17.024,39.539,13.243,37.083-3.043"/>
		<path fill="#A0D6BB" stroke="#000000" stroke-width="0.75" stroke-miterlimit="10" d="M36.195,92.886
			c5.331,11.947,43.086,12.089,39.469-3.962"/>
		<path fill="#A0D6BB" stroke="#000000" stroke-width="0.75" stroke-miterlimit="10" d="M36.195,92.886
			c9.873-9.968,29.965-13.328,40.518-5.291"/>
		<path fill="#A0D6BB" stroke="#000000" stroke-width="0.75" stroke-miterlimit="10" d="M36.195,92.886
			c12.7,1.701,32.28,2.701,40.518-5.291"/>
	</g>
	<g id="grape_6_">
		
			<ellipse transform="matrix(0.7195 0.6945 -0.6945 0.7195 67.2694 18.3677)" fill="#673695" stroke="#000000" stroke-miterlimit="10" cx="10.898" cy="92.453" rx="3.82" ry="3.645"/>
		<g>
			<path fill="#016735" d="M53.194,96.236c1.094,2.288-0.017,9.062,0.781,11.514c0.35,0.965,2.008,3.908,1.753,4.83
				c-0.454,1.605-3.302,2.047-4.316,3.005c-0.358,0.394-1.26,0.512-1.617,0.911c-0.467,1.232,1.306,1.974,0.001,3.098
				c-1.617-2.187-1.636-2.563-3.958-0.489c-1.448,1.208-2.442,2.54-4.309,3.008c-0.349-0.964,0.269-2.276-0.312-3.308
				c-3.714,1.317-9.883,3.432-13.339,0.73c-3.295-2.409-7.074-10.157-8.288-13.347c2.665,1.985,5.72,5.69,8.939,6.59
				c2.297,0.642,5.239-1.015,7.233-1.944"/>
			<g>
				<path d="M52.469,96.431c1.578,4.66-0.23,9.321,1.884,13.945c1.367,2.99-1.958,4.168-4.206,5.428
					c-2.151,1.206,0.084,1.957-1.03,3.763c0.45-0.087,0.899-0.175,1.349-0.263c-0.676-0.91-1.426-2.307-2.802-1.938
					c-1.961,0.525-4.857,4.896-5.722,1.245c-0.093-0.393-0.787-0.206-1.017-0.125c-5.247,1.837-10.703,3.215-14.697-1.638
					c-2.587-3.145-4.412-7.088-5.914-10.853c-0.465,0.162-0.931,0.323-1.396,0.484c2.734,2.194,5.582,5.881,9.17,6.71
					c2.793,0.646,5.54-0.874,7.964-2.034c0.907-0.434,0.077-0.956-0.584-0.64c-2.763,1.321-5.844,2.419-8.748,0.772
					c-2.38-1.35-4.331-3.678-6.461-5.387c-0.296-0.238-1.617-0.071-1.396,0.484c1.993,4.992,4.716,11.214,9.445,14.136
					c1.877,1.16,4.693,0.766,6.712,0.473c1.38-0.201,2.73-0.633,4.059-1.038c2.167-0.658,1.54,0.548,1.722,2.353
					c0.04,0.394,0.828,0.201,1.017,0.125c2.333-0.923,5.425-5.076,7.303-2.549c0.277,0.374,1.153,0.054,1.349-0.263
					c0.607-0.983,0.607-0.687,0.36-1.729c-0.506-2.141,2.325-2.813,3.763-3.515c1.128-0.551,1.874-1.344,1.839-2.601
					c-0.032-1.159-0.986-2.565-1.467-3.59c-0.658-1.401-0.578-2.972-0.579-4.486c-0.001-2.524,0.353-5.225-0.471-7.658
					C53.736,95.505,52.296,95.918,52.469,96.431L52.469,96.431z"/>
			</g>
		</g>
		
			<ellipse transform="matrix(0.7196 0.6944 -0.6944 0.7196 67.1551 13.5615)" fill="#673695" stroke="#000000" stroke-miterlimit="10" cx="16.787" cy="89.925" rx="3.82" ry="3.645"/>
		
			<ellipse transform="matrix(0.7196 0.6944 -0.6944 0.7196 71.358 15.9689)" fill="#673695" stroke="#000000" stroke-miterlimit="10" cx="15.907" cy="96.338" rx="3.82" ry="3.646"/>
		
			<ellipse transform="matrix(0.7195 0.6945 -0.6945 0.7195 66.3952 7.9271)" fill="#673695" stroke="#000000" stroke-miterlimit="10" cx="23.384" cy="86.162" rx="3.82" ry="3.644"/>
		
			<ellipse transform="matrix(0.7195 0.6945 -0.6945 0.7195 71.7559 9.8227)" fill="#673695" stroke="#000000" stroke-miterlimit="10" cx="23.717" cy="93.746" rx="3.82" ry="3.646"/>
		
			<ellipse transform="matrix(0.7195 0.6945 -0.6945 0.7195 70.3415 4.4754)" fill="#673695" stroke="#000000" stroke-miterlimit="10" cx="29.63" cy="89.322" rx="3.82" ry="3.647"/>
		
			<ellipse transform="matrix(0.7195 0.6945 -0.6945 0.7195 75.4415 14.1612)" fill="#673695" stroke="#000000" stroke-miterlimit="10" cx="20.19" cy="100.472" rx="3.82" ry="3.646"/>
		
			<ellipse transform="matrix(0.7194 0.6946 -0.6946 0.7194 76.553 8.2567)" fill="#673695" stroke="#000000" stroke-miterlimit="10" cx="28.057" cy="98.884" rx="3.82" ry="3.645"/>
		
			<ellipse transform="matrix(0.7195 0.6945 -0.6945 0.7195 74.9691 2.9743)" fill="#673695" stroke="#000000" stroke-miterlimit="10" cx="33.802" cy="94.3" rx="3.82" ry="3.645"/>
		
			<ellipse transform="matrix(0.7195 0.6945 -0.6945 0.7195 80.0128 12.1198)" fill="#673695" stroke="#000000" stroke-miterlimit="10" cx="25.002" cy="105.117" rx="3.82" ry="3.645"/>
		
			<ellipse transform="matrix(0.7196 0.6944 -0.6944 0.7196 81.6489 7.1016)" fill="#673695" stroke="#000000" stroke-miterlimit="10" cx="32.032" cy="104.64" rx="3.82" ry="3.647"/>
		
			<ellipse transform="matrix(0.7196 0.6944 -0.6944 0.7196 79.6894 2.7136)" fill="#673695" stroke="#000000" stroke-miterlimit="10" cx="36.485" cy="100.026" rx="3.82" ry="3.645"/>
		
			<ellipse transform="matrix(0.7194 0.6946 -0.6946 0.7194 84.3709 2.9213)" fill="#673695" stroke="#000000" stroke-miterlimit="10" cx="38.57" cy="105.886" rx="3.82" ry="3.645"/>
		
			<ellipse transform="matrix(0.7194 0.6946 -0.6946 0.7194 81.4328 -0.4521)" fill="#673695" stroke="#000000" stroke-miterlimit="10" cx="41.276" cy="100.563" rx="3.82" ry="3.646"/>
		<path fill="#673695" stroke="#000000" stroke-miterlimit="10" d="M44.253,96.174c-1.399,1.449-3.761,1.434-5.28-0.031
			c-1.519-1.465-1.614-3.828-0.216-5.276c1.396-1.448,3.76-1.434,5.278,0.03C45.555,92.364,45.649,94.727,44.253,96.174z"/>
		
			<ellipse transform="matrix(0.7195 0.6945 -0.6945 0.7195 71.4714 -1.7706)" fill="#673695" stroke="#000000" stroke-miterlimit="10" cx="37.928" cy="87.597" rx="3.82" ry="3.645"/>
		
			<ellipse transform="matrix(0.7195 0.6945 -0.6945 0.7195 67.4064 0.048)" fill="#673695" stroke="#000000" stroke-miterlimit="10" cx="33.644" cy="83.463" rx="3.821" ry="3.645"/>
		
			<ellipse transform="matrix(0.7195 0.6945 -0.6945 0.7195 73.2547 -6.1599)" fill="#673695" stroke="#000000" stroke-miterlimit="10" cx="44.253" cy="87.604" rx="3.82" ry="3.645"/>
		
			<ellipse transform="matrix(0.7195 0.6945 -0.6945 0.7195 80.4765 -5.7832)" fill="#673695" stroke="#000000" stroke-miterlimit="10" cx="47.398" cy="96.739" rx="3.82" ry="3.645"/>
		
			<ellipse transform="matrix(0.7194 0.6946 -0.6946 0.7194 85.2492 -2.1484)" fill="#673695" stroke="#000000" stroke-miterlimit="10" cx="45.283" cy="104.431" rx="3.82" ry="3.646"/>
		
			<ellipse transform="matrix(0.7195 0.6945 -0.6945 0.7195 77.5993 -9.0199)" fill="#673695" stroke="#000000" stroke-miterlimit="10" cx="49.966" cy="91.559" rx="3.821" ry="3.644"/>
		<g>
			<g>
				<path d="M50.932,96.521c-1.989,2.342-2.316,4.899-2.794,7.854c-0.893,5.516-7.128,7.715-12.026,6.358
					c-0.737-0.204-2.287,0.878-1.144,1.194c4.125,1.143,8.237,0.277,11.721-2.163c4.52-3.167,2.545-8.91,5.832-12.78
					C53.294,96.071,51.434,95.929,50.932,96.521L50.932,96.521z"/>
			</g>
		</g>
		<g>
			<path fill="#016735" d="M36.994,74.498c2.657-4.94,2-8.39,0.002-13.367c5.911-3.208,6.913,6.204,9.354,9.264
				c1.168-1.454,1.733-3.254,2.303-4.816c2.902,2.096,3.835,7.691,3.29,10.684c-0.533,3.471,1.185,6.067,0.888,9.534"/>
			<g>
				<path d="M37.707,74.366c0.964-2.01,1.565-3.829,1.763-6.031c0.017-0.95-0.074-1.89-0.272-2.819
					c-0.037-0.241-2.197-6.124,1.217-4.181c2.854,1.624,3.431,6.685,5.21,9.254c0.224,0.323,1.263-0.065,1.438-0.326
					c1.033-1.531,1.678-3.085,2.303-4.816c-0.466,0.125-0.931,0.25-1.397,0.374c2.498,2.239,3.209,5.356,3.395,8.577
					c0.103,1.785-0.268,3.494-0.086,5.303c0.216,2.155,0.829,4.093,0.828,6.291c0,0.212,1.449,0.011,1.449-0.389
					c0-3.926-0.84-7.631-0.742-11.593c0.08-3.191-1.094-6.538-3.477-8.673c-0.23-0.207-1.293,0.087-1.397,0.374
					c-0.625,1.731-1.271,3.285-2.303,4.816c0.479-0.108,0.958-0.217,1.438-0.326c-2.984-4.308-3.632-12.184-10.493-9.152
					c-0.063,0.027-0.356,0.156-0.311,0.277c1.813,4.748,2.287,8.558,0.009,13.304C36.186,74.826,37.534,74.727,37.707,74.366
					L37.707,74.366z"/>
			</g>
		</g>
		<g>
			<path fill="#016735" d="M35.679,74.403c-1.691-1.164-3.618-2.084-5.765-2.047c1.118,2.487,0.929,5.356,3.581,6.74
				c2.772,1.502,5.625,0.976,8.247,0.691c6.075-0.706,5.633,8.016,11.917,5.636"/>
			<g>
				<path d="M36.259,74.066c-1.948-1.212-3.637-1.882-5.896-2.085c-0.226-0.02-1.345,0.115-1.173,0.569
					c0.86,2.267,1.135,5.779,3.725,6.882c3.65,1.555,7.413-0.192,10.927,1.086c2.313,0.841,3.031,3.82,5.101,4.983
					c1.644,0.923,3.051,0.778,4.807,0.257c0.854-0.253,0.682-0.926-0.18-0.671c-4.554,1.35-5.698-4.2-9.353-5.529
					c-1.141-0.415-2.542-0.127-3.698,0.005c-3.207,0.367-6.815,0.035-8.471-3.113c-0.68-1.292-0.891-2.92-1.41-4.29
					c-0.391,0.19-0.782,0.379-1.173,0.569c2.392,0.214,3.71,0.813,5.634,2.01C35.474,74.973,36.82,74.415,36.259,74.066
					L36.259,74.066z"/>
			</g>
		</g>
		<g>
			<g>
				<path d="M53.957,94.606c-0.022-2.491,1.185-4.672,1.066-7.182c-0.113-2.383-2.238-4.776-3.734-6.425
					c-1.258-1.386-2.957-3.031-4.868-3.447c-3.007-0.655-5.922,0.506-6.909-3.221c-0.156-0.591-2.089-0.075-1.932,0.518
					c1.36,5.138,5.319,2.15,9.244,4.489c2.62,1.561,4.847,4.678,5.958,7.411c1.122,2.76-0.781,5.579-0.756,8.375
					C52.03,95.628,53.963,95.286,53.957,94.606L53.957,94.606z"/>
			</g>
		</g>
	</g>
	<g id="grape_5_">
		
			<ellipse transform="matrix(0.9917 0.1283 -0.1283 0.9917 17.7758 -2.2953)" fill="#673695" stroke="#000000" stroke-miterlimit="10" cx="26.71" cy="136.875" rx="3.82" ry="3.645"/>
		<g>
			<path fill="#016735" d="M62.912,114.677c2.243,1.184,5.393,7.282,7.496,8.775c0.856,0.565,3.942,1.939,4.288,2.831
				c0.594,1.56-1.43,3.614-1.671,4.985c-0.052,0.53-0.706,1.163-0.754,1.697c0.359,1.267,2.226,0.805,1.849,2.485
				c-2.603-0.79-2.842-1.082-3.467,1.968c-0.442,1.834-0.445,3.496-1.664,4.984c-0.855-0.565-1.142-1.987-2.225-2.468
				c-2.194,3.271-5.882,8.649-10.269,8.543c-4.081,0.033-11.736-3.931-14.614-5.767c3.324,0.003,7.985,1.155,11.106-0.043
				c2.226-0.856,3.598-3.94,4.644-5.876"/>
			<g>
				<path d="M62.338,115.039c3.687,2.549,4.868,7.39,8.911,9.562c2.134,1.146,3.637,1.504,1.961,4.742
					c-0.777,1.502-0.41,0.884-1.241,2.745c-1,2.236,1.22,1.161,1.426,3.557c0.388-0.202,0.776-0.403,1.164-0.604
					c-5.685-1.74-3.857,3.477-6.248,7.335c0.45-0.087,0.899-0.175,1.349-0.263c-0.783-0.857-1.33-1.717-2.225-2.468
					c-0.363-0.305-1.096-0.111-1.349,0.263c-3.613,5.341-7.861,9.331-14.837,6.821c-3.067-1.104-6.023-2.674-8.795-4.38
					c-0.283,0.265-0.566,0.529-0.85,0.793c3.877,0.143,7.681,0.976,11.486-0.088c2.673-0.747,4.07-4.056,5.219-6.235
					c0.335-0.636-1.122-0.496-1.355-0.054c-1.692,3.209-2.748,5.915-7.699,6.013c-2.36,0.047-4.737-0.411-7.097-0.498
					c-0.289-0.011-1.461,0.417-0.85,0.793c4.033,2.482,10.104,6.257,15.095,5.828c5.209-0.448,8.325-4.927,11.039-8.94
					c-0.45,0.087-0.899,0.175-1.349,0.263c0.895,0.75,1.441,1.61,2.225,2.468c0.313,0.343,1.135,0.083,1.349-0.263
					c1.243-2.006,1.104-7.461,4.014-6.57c0.365,0.112,1.206-0.116,1.164-0.604c-0.079-0.914,0.045-1.086-0.8-1.565
					c-1.556-0.883,0.038-3.396,0.521-4.293c0.941-1.749,1.482-3.086-0.274-4.408c-2.229-1.678-4.097-2.498-5.828-4.824
					c-1.527-2.052-2.84-4.371-4.978-5.85C63.074,114.03,61.741,114.625,62.338,115.039L62.338,115.039z"/>
			</g>
		</g>
		
			<ellipse transform="matrix(0.9918 0.128 -0.128 0.9918 17.0512 -2.7499)" fill="#673695" stroke="#000000" stroke-miterlimit="10" cx="29.928" cy="131.332" rx="3.82" ry="3.646"/>
		
			<ellipse transform="matrix(0.9918 0.128 -0.128 0.9918 17.8092 -3.1032)" fill="#673695" stroke="#000000" stroke-miterlimit="10" cx="33.048" cy="137.004" rx="3.82" ry="3.646"/>
		
			<ellipse transform="matrix(0.9918 0.1281 -0.1281 0.9918 16.2014 -3.1993)" fill="#673695" stroke="#000000" stroke-miterlimit="10" cx="32.977" cy="124.377" rx="3.82" ry="3.644"/>
		
			<ellipse transform="matrix(0.9918 0.1281 -0.1281 0.9918 16.9949 -3.7646)" fill="#673695" stroke="#000000" stroke-miterlimit="10" cx="37.77" cy="130.264" rx="3.82" ry="3.645"/>
		
			<ellipse transform="matrix(0.9918 0.128 -0.128 0.9918 16.0997 -4.0914)" fill="#673695" stroke="#000000" stroke-miterlimit="10" cx="39.875" cy="123.186" rx="3.82" ry="3.646"/>
		
			<ellipse transform="matrix(0.9918 0.1281 -0.1281 0.9918 17.962 -3.8537)" fill="#673695" stroke="#000000" stroke-miterlimit="10" cx="38.951" cy="137.766" rx="3.821" ry="3.646"/>
		
			<ellipse transform="matrix(0.9917 0.1283 -0.1283 0.9917 17.2701 -4.5955)" fill="#673695" stroke="#000000" stroke-miterlimit="10" cx="44.317" cy="131.799" rx="3.82" ry="3.645"/>
		
			<ellipse transform="matrix(0.9918 0.1281 -0.1281 0.9918 16.3496 -4.8891)" fill="#673695" stroke="#000000" stroke-miterlimit="10" cx="46.194" cy="124.692" rx="3.82" ry="3.644"/>
		
			<ellipse transform="matrix(0.9918 0.1281 -0.1281 0.9918 18.1311 -4.6968)" fill="#673695" stroke="#000000" stroke-miterlimit="10" cx="45.584" cy="138.624" rx="3.82" ry="3.645"/>
		
			<ellipse transform="matrix(0.9918 0.128 -0.128 0.9918 17.5778 -5.418)" fill="#673695" stroke="#000000" stroke-miterlimit="10" cx="50.941" cy="134.046" rx="3.82" ry="3.647"/>
		
			<ellipse transform="matrix(0.9918 0.1281 -0.1281 0.9918 16.7811 -5.5783)" fill="#673695" stroke="#000000" stroke-miterlimit="10" cx="51.762" cy="127.687" rx="3.82" ry="3.644"/>
		
			<ellipse transform="matrix(0.9918 0.1281 -0.1281 0.9918 17.2755 -6.2144)" fill="#673695" stroke="#000000" stroke-miterlimit="10" cx="56.932" cy="131.146" rx="3.82" ry="3.645"/>
		<path fill="#673695" stroke="#000000" stroke-miterlimit="10" d="M59.716,125.75c-0.257,1.997-2.163,3.396-4.255,3.126
			c-2.093-0.27-3.58-2.108-3.321-4.106c0.257-1.994,2.162-3.395,4.255-3.124C58.487,121.916,59.976,123.754,59.716,125.75z"/>
		
			<ellipse transform="matrix(0.9918 0.1281 -0.1281 0.9918 15.738 -5.6672)" fill="#673695" stroke="#000000" stroke-miterlimit="10" cx="51.91" cy="119.471" rx="3.82" ry="3.646"/>
		
			<ellipse transform="matrix(0.9918 0.1281 -0.1281 0.9918 15.3398 -4.8655)" fill="#673695" stroke="#000000" stroke-miterlimit="10" cx="45.505" cy="116.852" rx="3.82" ry="3.645"/>
		
			<ellipse transform="matrix(0.9918 0.128 -0.128 0.9918 15.1859 -4.1141)" fill="#673695" stroke="#000000" stroke-miterlimit="10" cx="39.601" cy="116.089" rx="3.82" ry="3.645"/>
		
			<ellipse transform="matrix(0.9918 0.1281 -0.1281 0.9918 14.898 -5.547)" fill="#673695" stroke="#000000" stroke-miterlimit="10" cx="50.586" cy="113.083" rx="3.821" ry="3.645"/>
		
			<ellipse transform="matrix(0.9918 0.1281 -0.1281 0.9918 15.6722 -6.5267)" fill="#673695" stroke="#000000" stroke-miterlimit="10" cx="58.56" cy="118.538" rx="3.82" ry="3.645"/>
		
			<ellipse transform="matrix(0.9917 0.1283 -0.1283 0.9917 16.6656 -6.8416)" fill="#673695" stroke="#000000" stroke-miterlimit="10" cx="61.452" cy="125.973" rx="3.82" ry="3.646"/>
		
			<ellipse transform="matrix(0.9918 0.1281 -0.1281 0.9918 14.9242 -6.4379)" fill="#673695" stroke="#000000" stroke-miterlimit="10" cx="57.531" cy="112.849" rx="3.821" ry="3.645"/>
		<g>
			<g>
				<path d="M61.068,116.06c-0.166,3.104,1.162,5.34,2.524,8.022c2.601,5.121-1.501,10.837-6.254,12.744
					c-1.24,0.498-0.127,1.371,0.816,0.992c3.479-1.395,6.666-4.204,7.704-7.939c1.537-5.531-3.129-8.674-2.844-14.006
					C63.063,114.95,61.109,115.286,61.068,116.06L61.068,116.06z"/>
			</g>
		</g>
		<g>
			<path fill="#016735" d="M36.941,106.896c-0.815-5.55-3.401-7.926-7.973-10.729c2.829-6.102,9.249,0.854,13.034,1.854
				c0.07-1.864-0.55-3.645-1.025-5.239c3.578-0.049,7.665,3.884,9.015,6.611c1.643,3.104,4.568,4.163,6.399,7.123"/>
			<g>
				<path d="M37.666,106.702c-0.755-4.073-2.454-6.79-5.716-9.27c-1.956-0.802-1.576-1.89,1.141-3.263
					c1.299,0.256,2.649,1.156,3.794,1.814c1.486,0.854,2.894,1.749,4.519,2.312c0.236,0.082,1.347-0.114,1.322-0.468
					c-0.131-1.863-0.493-3.452-1.025-5.239c-0.441,0.156-0.881,0.312-1.322,0.468c3.919,0.403,6.982,3.233,8.888,6.532
					c1.629,2.819,4.497,4.501,6.399,7.123c0.25,0.344,1.547-0.253,1.449-0.389c-2.338-3.22-5.301-5.809-7.669-9.062
					c-1.87-2.568-4.721-4.427-7.873-4.751c-0.189-0.019-1.427,0.114-1.322,0.468c0.532,1.787,0.894,3.375,1.025,5.239
					c0.441-0.156,0.881-0.312,1.322-0.468c-4.606-1.595-10.667-7.772-14.344-1.449c-0.025,0.046-0.015,0.083,0.03,0.111
					c4.284,2.706,6.991,5.601,7.932,10.681C36.269,107.373,37.728,107.041,37.666,106.702L37.666,106.702z"/>
			</g>
		</g>
		<g>
			<path fill="#016735" d="M35.83,107.604c-2.053,0.075-4.147,0.486-5.849,1.797c2.381,1.329,3.94,3.744,6.895,3.273
				c3.121-0.449,5.097-2.574,7.031-4.367c4.455-4.189,9.303,3.073,12.927-2.585"/>
			<g>
				<path d="M35.936,107.229c-2.416,0.201-4.324,0.709-6.398,1.981c-0.095,0.058-0.447,0.328-0.231,0.468
					c2.491,1.62,4.193,3.414,7.281,3.384c2.214-0.021,4.262-1.521,5.906-2.825c2.104-1.67,3.653-3.268,6.782-2.549
					c1.329,0.305,2.536,0.638,3.902,0.677c1.899,0.053,3.259-1.265,4.327-2.641c0.38-0.49-1.071-0.352-1.342-0.003
					c-2.702,3.481-7.043,0.183-10.417,1.086c-0.997,0.267-1.616,0.792-2.415,1.401c-2.53,1.927-3.836,5.158-8.446,3.785
					c-2.923-0.87-5.375-3.497,0.84-4.014C36.413,107.921,36.943,107.145,35.936,107.229L35.936,107.229z"/>
			</g>
		</g>
		<g>
			<g>
				<path d="M62.831,113.338c-1.472-2.015-1.867-4.436-3.428-6.4c-1.512-1.903-4.583-2.494-6.811-2.967
					c-1.981-0.421-4.186-0.581-6.166-0.05c-2.479,0.665-4.508,3.856-7.283,1.763c-0.501-0.378-2.252,0.382-1.804,0.721
					c1.767,1.333,3.5,2.112,5.521,0.728c4.855-3.325,10.319-2.948,14.739,0.526c1.788,1.405,2.081,4.556,3.428,6.4
					C61.369,114.526,63.235,113.892,62.831,113.338L62.831,113.338z"/>
			</g>
		</g>
		<g>
			<g>
				<path d="M61.495,115.021c5.885,0.173,14.418-0.676,16.484-7.462c2.193-7.206-3.057-13.66-10.471-13.545
					c-5.662,0.088-8.911,8.269-3.01,10.678c3.671,1.499,10.041-3.501,5.026-6.294c-0.677-0.377-2.407,0.555-1.504,1.058
					c3.798,2.115-2.038,6.746-4.217,2.01c-1.307-2.84,0.071-5.735,3.504-6.146c4.153-0.498,7.699,2.938,8.958,6.538
					c3.195,9.138-7.39,12.055-14.075,11.858C61.321,113.688,60.186,114.982,61.495,115.021L61.495,115.021z"/>
			</g>
		</g>
		<g>
			<g>
				<path d="M78.379,105.353c3.514-5.649,12.389-7.088,18.508-6.312c3.597,0.456,4.232,3.684,3.545,6.657
					c-0.806,3.484-4.153,5.658-8.21,4.152c-0.943-0.35-4.494-5.007-1.385-4.914c0.745,0.022,2.053-1.081,0.744-1.12
					c-5.203-0.156-4.477,4.713-0.893,6.982c4.887,3.095,10.774-1.436,11.863-6.143c1.429-6.175-4.936-7.212-9.497-6.858
					c-5.854,0.455-13.151,2.151-16.479,7.5C76.09,106.081,78.037,105.902,78.379,105.353L78.379,105.353z"/>
			</g>
		</g>
	</g>
	<g id="grape_4_">
		<path fill="#673695" stroke="#000000" stroke-miterlimit="10" d="M106.084,127.078c1.892,0.688,2.842,2.85,2.124,4.833
			c-0.719,1.985-2.836,3.035-4.73,2.349c-1.89-0.686-2.843-2.849-2.123-4.833C102.073,127.443,104.191,126.393,106.084,127.078z"/>
		<g>
			<path fill="#016735" d="M90.989,90.507c1.644-1.933,8.28-3.679,10.196-5.408c0.738-0.712,2.75-3.426,3.695-3.569
				c1.651-0.24,3.217,2.182,4.503,2.715c0.507,0.166,0.981,0.942,1.491,1.105c1.316-0.076,1.27-1.997,2.828-1.263
				c-1.335,2.366-1.674,2.538,1.167,3.812c1.695,0.829,3.316,1.193,4.504,2.708c-0.739,0.712-2.188,0.683-2.894,1.632
				c2.717,2.854,7.163,7.626,6.105,11.883c-0.855,3.99-6.39,10.598-8.808,13.009c0.725-3.242,2.863-7.542,2.373-10.848
				c-0.352-2.359-3.062-4.371-4.725-5.812"/>
			<g>
				<path d="M91.574,90.642c2.812-2.602,7.613-2.617,10.196-5.408c2.059-2.224,3.028-3.899,6.139-1.21
					c0.165,0.143,2.147,1.735,2.689,1.757c0.51,0.021,1.108-0.275,1.509-0.528c1.456-0.92,0.02,0.01-0.112,1.234
					c-0.262,2.421,8.24,2.303,3.9,5.617c-0.123,0.094-0.208,0.296-0.086,0.425c3.229,3.423,7.24,7.536,5.773,12.643
					c-1.252,4.358-5.324,8.668-8.39,11.825c0.437,0.017,0.874,0.034,1.311,0.05c0.8-3.055,2.612-6.459,2.44-9.674
					c-0.179-3.352-2.411-5.121-4.847-7.19c-0.408-0.347-1.763,0.222-1.342,0.579c2.781,2.364,4.996,4.216,4.607,8.241
					c-0.27,2.787-1.605,5.518-2.311,8.214c-0.157,0.598,1.118,0.249,1.311,0.05c3.469-3.57,6.787-7.623,8.672-12.265
					c0.837-2.061,0.39-4.49-0.688-6.369c-0.991-1.727-2.124-3.247-3.416-4.76c-1.338-1.566-0.604-2.17,0.897-3.03
					c0.151-0.087,0.399-0.345,0.216-0.524c-2.007-1.964-7.619-2.747-5.664-6.204c0.115-0.205-0.006-0.405-0.238-0.437
					c-1.196-0.161-3.309,0.857-4.088,0.278c-1.287-0.958-3.335-3.331-5.277-2.811c-2.531,0.678-3.919,3.882-6.308,5.056
					c-2.699,1.326-5.813,2.086-8.065,4.17C89.775,90.954,91.207,90.982,91.574,90.642L91.574,90.642z"/>
			</g>
		</g>
		
			<ellipse transform="matrix(0.3408 -0.9401 0.9401 0.3408 -52.7926 177.3549)" fill="#673695" stroke="#000000" stroke-miterlimit="10" cx="100.07" cy="126.322" rx="3.82" ry="3.646"/>
		
			<ellipse transform="matrix(0.3407 -0.9402 0.9402 0.3407 -46.9898 182.0114)" fill="#673695" stroke="#000000" stroke-miterlimit="10" cx="106.286" cy="124.511" rx="3.82" ry="3.645"/>
		
			<ellipse transform="matrix(0.3408 -0.9402 0.9402 0.3408 -52.6096 168.6395)" fill="#673695" stroke="#000000" stroke-miterlimit="10" cx="93.944" cy="121.833" rx="3.82" ry="3.645"/>
		
			<ellipse transform="matrix(0.3408 -0.9401 0.9401 0.3408 -44.9409 172.778)" fill="#673695" stroke="#000000" stroke-miterlimit="10" cx="100.735" cy="118.436" rx="3.82" ry="3.644"/>
		<path fill="#673695" stroke="#000000" stroke-miterlimit="10" d="M95.585,111.251c1.893,0.686,2.847,2.849,2.126,4.834
			c-0.719,1.983-2.837,3.035-4.729,2.347c-1.892-0.684-2.842-2.848-2.123-4.832S93.693,110.565,95.585,111.251z"/>
		
			<ellipse transform="matrix(0.3408 -0.9402 0.9402 0.3408 -40.3929 180.226)" fill="#673695" stroke="#000000" stroke-miterlimit="10" cx="108.314" cy="118.915" rx="3.82" ry="3.645"/>
		
			<ellipse transform="matrix(0.341 -0.9401 0.9401 0.341 -37.3343 171.5021)" fill="#673695" stroke="#000000" stroke-miterlimit="10" cx="103.657" cy="112.38" rx="3.82" ry="3.644"/>
		
			<ellipse transform="matrix(0.3407 -0.9402 0.9402 0.3407 -38.4467 163.1769)" fill="#673695" stroke="#000000" stroke-miterlimit="10" cx="97.128" cy="109.002" rx="3.82" ry="3.645"/>
		<path fill="#673695" stroke="#000000" stroke-miterlimit="10" d="M111.895,109.036c1.895,0.688,2.845,2.851,2.127,4.833
			c-0.721,1.984-2.836,3.036-4.73,2.35c-1.89-0.687-2.843-2.851-2.122-4.834C107.887,109.401,110.002,108.35,111.895,109.036z"/>
		
			<ellipse transform="matrix(0.3407 -0.9402 0.9402 0.3407 -29.3029 171.017)" fill="#673695" stroke="#000000" stroke-miterlimit="10" cx="107.292" cy="106.403" rx="3.819" ry="3.646"/>
		
			<ellipse transform="matrix(0.3408 -0.9401 0.9401 0.3408 -31.2299 163.8947)" fill="#673695" stroke="#000000" stroke-miterlimit="10" cx="101.262" cy="104.218" rx="3.819" ry="3.645"/>
		<path fill="#673695" stroke="#000000" stroke-miterlimit="10" d="M107.064,96.335c1.896,0.687,2.846,2.85,2.125,4.833
			c-0.718,1.984-2.836,3.035-4.729,2.348c-1.891-0.687-2.842-2.85-2.124-4.832C103.055,96.701,105.174,95.648,107.064,96.335z"/>
		
			<ellipse transform="matrix(0.3408 -0.9401 0.9401 0.3408 -27.8733 159.4949)" fill="#673695" stroke="#000000" stroke-miterlimit="10" cx="99.8" cy="99.624" rx="3.819" ry="3.645"/>
		<path fill="#673695" stroke="#000000" stroke-miterlimit="10" d="M94.579,98.696c1.893,0.685,2.844,2.848,2.125,4.833
			c-0.719,1.984-2.836,3.037-4.73,2.349c-1.892-0.686-2.843-2.85-2.124-4.832C90.57,99.06,92.686,98.01,94.579,98.696z"/>
		
			<ellipse transform="matrix(0.3408 -0.9401 0.9401 0.3408 -42.6201 155.1524)" fill="#673695" stroke="#000000" stroke-miterlimit="10" cx="89.327" cy="107.968" rx="3.82" ry="3.644"/>
		
			<ellipse transform="matrix(0.3407 -0.9402 0.9402 0.3407 -49.216 156.9483)" fill="#673695" stroke="#000000" stroke-miterlimit="10" cx="87.297" cy="113.565" rx="3.821" ry="3.646"/>
		
			<ellipse transform="matrix(0.3407 -0.9402 0.9402 0.3407 -38.88 148.9331)" fill="#673695" stroke="#000000" stroke-miterlimit="10" cx="86.755" cy="102.189" rx="3.82" ry="3.644"/>
		
			<ellipse transform="matrix(0.3408 -0.9401 0.9401 0.3408 -28.0312 151.2082)" fill="#673695" stroke="#000000" stroke-miterlimit="10" cx="93.812" cy="95.593" rx="3.819" ry="3.645"/>
		<path fill="#673695" stroke="#000000" stroke-miterlimit="10" d="M103.001,90.796c1.893,0.687,2.844,2.849,2.125,4.833
			c-0.719,1.985-2.836,3.036-4.73,2.349c-1.89-0.685-2.843-2.85-2.125-4.833C98.991,91.162,101.109,90.109,103.001,90.796z"/>
		
			<ellipse transform="matrix(0.3407 -0.9402 0.9402 0.3407 -31.6114 145.6431)" fill="#673695" stroke="#000000" stroke-miterlimit="10" cx="88.036" cy="95.36" rx="3.821" ry="3.644"/>
		<g>
			<g>
				<path d="M91.486,92.234c2.81,0.786,5.22,0.271,7.979-0.511c5.975-1.692,10.678,3.571,11.539,9.01
					c0.126,0.796,2.064,0.32,1.932-0.518c-0.67-4.229-3.197-7.479-6.975-9.43c-4.446-2.297-8.772,1.529-13.33,0.254
					C91.894,90.833,90.344,91.915,91.486,92.234L91.486,92.234z"/>
			</g>
		</g>
		<g>
			<path fill="#156734" d="M77.748,114.161c-5.597-0.411-8.479,1.597-12.208,5.449c-5.341-4.089,2.845-8.842,4.645-12.319
				c-1.804-0.474-3.678-0.255-5.336-0.139c0.731-3.504,5.458-6.637,8.414-7.359c3.388-0.928,5.059-3.554,8.346-4.696"/>
			<g>
				<path d="M78.221,113.875c-3.958-0.143-7.203,0.71-10.4,3.067c-1.137,0.839-1.744,2.689-3.018,0.806
					c-0.91-1.345,0.078-3.075,0.788-4.232c1.447-2.36,3.847-3.99,5.309-6.357c0.052-0.084-0.054-0.132-0.116-0.142
					c-1.55-0.232-2.312-0.376-3.897-0.265c-3.657,0.257,4.846-6.168,4.851-6.171c1.083-0.561,2.356-0.694,3.434-1.271
					c2.372-1.27,4.363-3.055,6.852-4.132c0.875-0.378-0.499-0.308-0.828-0.165c-3.586,1.551-6.641,3.883-10.285,5.402
					c-3.016,1.258-5.768,3.737-6.773,6.867c-0.063,0.194,0.301,0.154,0.396,0.147c8.273-0.582,1.736,3.543-0.368,6.349
					c-1.687,2.249-1.256,4.271,0.694,6.073c0.251,0.232,1.14-0.105,1.337-0.305c3.133-3.152,5.499-5.303,11.082-5.102
					C77.568,114.457,78.928,113.901,78.221,113.875L78.221,113.875z"/>
			</g>
		</g>
		<g>
			<path fill="#156734" d="M78.194,115.401c-0.373,2.019-0.429,4.153,0.482,6.099c1.815-2.034,4.512-3.031,4.694-6.017
				c0.241-3.145-1.404-5.534-2.732-7.813c-3.121-5.258,5.023-8.411,0.289-13.18"/>
			<g>
				<path d="M77.472,115.499c-0.304,2.217-0.261,4.038,0.48,6.195c0.148,0.431,1.09,0.114,1.301-0.095
					c1.69-1.68,3.565-2.865,4.618-5.048c1.397-2.896-1.117-6.721-2.508-9.076c-2.85-4.825,4.254-8.473,0.239-13.262
					c-0.303-0.361-1.69,0.146-1.35,0.553c3.324,3.965-1.085,6.899-1.044,11.098c0.022,2.239,2.378,4.795,3.132,6.896
					c1.469,4.094-1.761,6.175-4.24,8.64c0.434-0.032,0.867-0.063,1.301-0.095c-0.755-2.195-0.816-3.587-0.484-6.002
					C78.99,114.767,77.535,115.038,77.472,115.499L77.472,115.499z"/>
			</g>
		</g>
		<g>
			<g>
				<path d="M89.457,90.92c-4.588,2.002-8.132,0.942-10.795,6.105c-1.078,2.09-2.674,5.025-2.292,7.47
					c0.503,3.219,3.252,5.495,0.065,8.101c-0.829,0.678,1.104,0.566,1.523,0.223c3.102-2.536,1.795-4.134,0.546-7.542
					c-1.071-2.922,1.187-7.075,2.659-9.455c1.997-3.224,5.971-2.905,9.021-4.236C91.429,91.042,90.273,90.563,89.457,90.92
					L89.457,90.92z"/>
			</g>
		</g>
		<g>
			<g>
				<path d="M91.43,91.394c1.778-6.962,1.795-15.09-6.11-17.917c-6.094-2.179-12.622,2.387-13.857,8.376
					c-1.252,6.065,7.149,9.133,10.529,4.402c2.785-3.899-2.276-9.299-5.898-5.141c-0.79,0.908,1.07,1.093,1.596,0.49
					c2.091-2.4,2.875,1.67,2.906,2.77c0.102,3.55-4.667,3.171-6.467,1.282c-1.533-1.61-0.728-4.63,0.039-6.362
					c1.063-2.406,3.263-4.048,5.735-4.761c4.75-1.369,9.05,2.342,10.282,6.629c0.96,3.338,0.133,7.135-0.704,10.41
					C89.259,92.438,91.229,92.181,91.43,91.394L91.43,91.394z"/>
			</g>
		</g>
	</g>
	<g id="yellowtomato_3_">
		<g>
			<path fill="#D8E02A" d="M98.507,77.466c-1.695-0.641-2.402-1.074-4.104-0.028c-0.942,0.651-1.6,1.395-1.77,2.605
				c-0.337,2.74,1.29,4.939,3.813,5.629c2.332,0.63,6.829,1.415,7.767-1.559c0.907-2.877-1.522-5.541-3.865-6.807
				c-0.287-0.09-0.545-0.276-0.833-0.367"/>
			<g>
				<path d="M98.792,77.163c-2.839-1.091-5.857-0.415-6.646,2.926c-0.818,3.471,2.487,5.594,5.336,6.197
					c1.966,0.416,5.459,0.787,6.752-1.275c2.173-3.464-1.331-7.005-4.342-8.333c-0.345-0.152-1.208,0.325-0.754,0.525
					c1.699,0.749,3.058,1.828,4.091,3.384c0.78,1.175,0.862,2.667,0.339,3.949c-0.63,1.543-2.788,1.446-4.104,1.35
					c-2.005-0.146-4.027-0.691-5.389-2.242c-0.727-0.829-0.956-1.96-0.998-3.023c-0.105-2.715,2.929-3.704,5.145-2.852
					C98.593,77.911,99.354,77.379,98.792,77.163L98.792,77.163z"/>
			</g>
		</g>
		<g>
			<g>
				<path d="M99.608,77.319c-0.731-0.634-0.112-1.84,0.247-2.511c0.392-0.73-1.08-0.753-1.389-0.178
					c-0.602,1.123-1.082,2.573,0.028,3.536C98.993,78.599,100.249,77.875,99.608,77.319L99.608,77.319z"/>
			</g>
		</g>
		<g>
			<g>
				<path d="M98.521,86.337c-0.103,0.274-0.258,0.504-0.427,0.741c-0.232,0.323,0.728,0.208,0.889-0.017
					c0.197-0.274,0.38-0.547,0.499-0.865C99.582,85.929,98.629,86.048,98.521,86.337L98.521,86.337z"/>
			</g>
		</g>
		<g>
			<g>
				<path d="M97.955,86.921c0.323,0.209,0.594,0.476,0.84,0.769c0.208,0.249,1.135-0.092,0.898-0.373
					c-0.283-0.337-0.599-0.615-0.967-0.854C98.471,86.297,97.574,86.674,97.955,86.921L97.955,86.921z"/>
			</g>
		</g>
	</g>
	<g id="pear_5_">
		<g>
			<path fill="#387547" d="M89.353,88.888c1.282,1.518,2.104,1.372,3.252,2.884c2.164,3.018,1.822,1.402,2.097,4.888
				c0.073,1.741,2.761,4.71,5.031,4.791c1.868,0.068,6.429-2.427,6.094-4.595c-0.301-1.949-0.186-6.257-1.761-6.982
				c-1.051-0.573-3.798-1.154-4.459-1.311c-1.191-0.31-3.335-2.142-4.106-2.973c-0.769-0.962-1.556-1.393-2.74-1.968
				C90.787,82.749,87.549,86.952,89.353,88.888z"/>
			<g>
				<path d="M88.91,89.099c1.997,2.045,4.997,3.605,5.235,6.704c0.216,2.802,1.943,4.808,4.539,5.842
					c1.843,0.734,4.149-0.721,5.596-1.685c2.243-1.494,2.009-3.084,1.813-5.464c-0.231-2.822-0.458-4.585-3.225-5.504
					c-1.886-0.626-3.426-0.791-5.101-1.997c-1.387-0.999-2.345-2.352-3.816-3.235C90.851,81.898,86.944,86.137,88.91,89.099
					c0.238,0.36,1.161-0.007,0.885-0.423c-0.957-1.443-0.225-2.75,0.699-3.894c1.537-1.902,3.633,0.015,4.563,1.019
					c1.017,1.098,2.233,2.003,3.512,2.768c1.055,0.631,2.574,0.741,3.74,1.067c2.788,0.781,2.694,3.615,2.886,5.944
					c0.303,3.673-3.882,6.813-7.388,4.702c-2.076-1.25-2.58-3.227-2.749-5.427c-0.208-2.694-3.598-4.473-5.264-6.179
					C89.492,88.367,88.577,88.759,88.91,89.099z"/>
			</g>
		</g>
		<g>
			<g>
				<path d="M90.181,84.839c-0.788-0.914-1.32-1.881-1.397-3.103c-0.02-0.3-1.477-0.039-1.449,0.389
					c0.081,1.272,0.669,2.274,1.485,3.22C89.069,85.635,90.434,85.131,90.181,84.839L90.181,84.839z"/>
			</g>
		</g>
		<g>
			<g>
				<path d="M103.636,97.011c0.012-0.013,0.022-0.025,0.034-0.039c0.196-0.048,0.71-0.248,0.632-0.54
					c-0.08-0.297-0.621-0.2-0.817-0.151c-0.485,0.12-0.857,0.35-1.192,0.716c-0.242,0.265,0.204,0.401,0.386,0.403
					C103.032,97.405,103.396,97.274,103.636,97.011L103.636,97.011z"/>
			</g>
		</g>
		<g>
			<g>
				<path d="M104.21,97.632c-0.138-0.467-0.257-0.929-0.301-1.416c-0.038-0.418-1.495-0.117-1.449,0.389
					c0.044,0.486,0.163,0.948,0.301,1.416C102.896,98.478,104.341,98.077,104.21,97.632L104.21,97.632z"/>
			</g>
		</g>
	</g>
	<g id="pear_4_">
		<g>
			<path fill="#387547" d="M65.045,97.326c1.721,2.105,2.849,1.923,4.388,4.018c2.898,4.178,2.463,1.958,2.765,6.737
				c0.062,2.384,3.675,6.507,6.778,6.667c2.559,0.133,8.855-3.183,8.444-6.158c-0.369-2.674-0.117-8.568-2.26-9.594
				c-1.424-0.807-5.171-1.661-6.074-1.893c-1.626-0.45-4.518-3.003-5.558-4.157c-1.031-1.333-2.099-1.94-3.705-2.753
				C67.142,88.955,62.619,94.637,65.045,97.326z"/>
			<g>
				<path d="M64.603,97.538c3.361,3.555,6.804,5.399,7.106,10.582c0.184,3.143,3.272,5.646,5.94,6.759
					c2.428,1.013,5.543-0.917,7.475-2.159c3.057-1.966,2.746-4.107,2.534-7.316c-0.254-3.833-0.496-6.223-4.225-7.527
					c-2.58-0.903-4.692-1.167-6.973-2.863c-1.876-1.396-3.159-3.269-5.152-4.51C67.219,87.956,62.096,93.625,64.603,97.538
					c0.232,0.363,1.155-0.002,0.885-0.423c-1.45-2.263-0.005-4.475,1.685-6.004c2.036-1.841,4.793,0.798,5.914,2.047
					c1.359,1.515,3.001,2.771,4.723,3.838c1.416,0.877,3.492,1.057,5.065,1.524c3.852,1.145,3.678,5.041,3.892,8.273
					c0.344,5.197-5.677,9.444-10.54,6.409c-2.882-1.799-3.349-4.479-3.682-7.546c-0.406-3.74-4.73-6.08-7.057-8.541
					C65.19,96.8,64.274,97.19,64.603,97.538z"/>
			</g>
		</g>
		<g>
			<g>
				<path d="M66.009,91.881c-1.065-1.273-1.78-2.616-1.858-4.298c-0.014-0.293-1.469-0.043-1.449,0.389
					c0.081,1.734,0.854,3.11,1.946,4.416C64.891,92.678,66.26,92.18,66.009,91.881L66.009,91.881z"/>
			</g>
		</g>
		<g>
			<g>
				<path d="M84.172,108.738c0.121-0.133,0.098-0.13,0.27-0.166c0.197-0.041,0.708-0.253,0.632-0.54
					c-0.081-0.302-0.619-0.192-0.817-0.151c-0.575,0.118-1.038,0.412-1.428,0.843c-0.241,0.266,0.202,0.401,0.387,0.403
					C83.567,109.132,83.934,109.001,84.172,108.738L84.172,108.738z"/>
			</g>
		</g>
		<g>
			<g>
				<path d="M84.919,109.674c-0.178-0.642-0.336-1.279-0.381-1.946c-0.028-0.411-1.483-0.121-1.449,0.389
					c0.045,0.667,0.203,1.304,0.381,1.946C83.596,110.518,85.044,110.125,84.919,109.674L84.919,109.674z"/>
			</g>
		</g>
	</g>
	<g id="apple_3_">
		<g>
			<path fill="#ED1B35" d="M85.706,86.943c-4.017-1.667-6.982,0.24-5.862,4.781c0.347,1.615,1.857,3.399,3.224,4.512
				c2.017,1.536,2.649,0.555,5.147-0.265c1.988-0.569,3.49,0.515,5.063-0.669c1.47-1.02,1.822-2.643,1.637-4.15
				c-0.474-2.853-4.207-9.084-7.327-6.583c-0.72,0.578-1.027,1.77-1.746,2.347"/>
			<g>
				<path d="M86.162,86.781c-3.213-1.175-6.945-0.595-7.036,3.495c-0.051,2.298,2.296,6.47,4.847,6.865
					c2.44,0.377,4.924-1.1,7.42-1.075c1.468,0.015,2.652-0.935,3.479-2.046c1.662-2.234-0.251-5.611-1.518-7.494
					c-0.824-1.225-2.381-2.939-4.048-2.723c-2.17,0.28-2.523,1.617-3.902,3.154c-0.19,0.213,0.723,0.085,0.873-0.082
					c1.083-1.207,2.486-3.204,4.358-1.958c1.088,0.724,1.834,1.936,2.493,3.033c1.699,2.828,2.432,8.033-2.752,7.667
					c-2.749-0.194-5.113,1.995-7.543-0.151c-3.017-2.665-4.718-10.971,2.416-8.36C85.518,87.203,86.234,86.808,86.162,86.781
					L86.162,86.781z"/>
			</g>
		</g>
		<g>
			<g>
				<path d="M85.835,86.469c-0.364-1.174-0.628-2.604,0.359-3.553c0.403-0.388-0.551-0.358-0.771-0.146
					c-1.13,1.087-0.984,2.569-0.555,3.958C84.971,87.057,85.933,86.787,85.835,86.469L85.835,86.469z"/>
			</g>
		</g>
		<g>
			<g>
				<path d="M88.402,96.298c-0.242,0.256-0.238,0.484-0.169,0.819c0.042,0.198,1.013-0.035,0.967-0.259
					c-0.049-0.229-0.106-0.448,0.075-0.64C89.471,96.012,88.558,96.134,88.402,96.298L88.402,96.298z"/>
			</g>
		</g>
		<g>
			<g>
				<path d="M88.58,96.679c0.193,0.24,0.387,0.479,0.579,0.719c0.186,0.23,1.112-0.1,0.902-0.36
					c-0.193-0.24-0.387-0.479-0.579-0.719C89.297,96.088,88.37,96.418,88.58,96.679L88.58,96.679z"/>
			</g>
		</g>
	</g>
	<g id="melon_2_">
		<path fill="#A0D6BB" stroke="#000000" stroke-width="0.75" stroke-miterlimit="10" d="M58.373,124.973
			c-3.939-4.325,5.149-26.461,20.314-20.992"/>
		<path fill="#A0D6BB" stroke="#000000" stroke-width="0.75" stroke-miterlimit="10" d="M60.488,131.729
			c-8.789-10.259,11.695-33.959,23.179-26.483"/>
		<path fill="#A0D6BB" stroke="#000000" stroke-width="0.75" stroke-miterlimit="10" d="M62.857,136.096
			c-10.145-15.539,14.737-37.02,28.526-29.255"/>
		<path fill="#A0D6BB" stroke="#000000" stroke-width="0.75" stroke-miterlimit="10" d="M74.894,139.664
			c16.201,2.508,25.223-12.438,21.942-19.87"/>
		<path fill="#A0D6BB" stroke="#000000" stroke-width="0.75" stroke-miterlimit="10" d="M66.505,136.914
			c13.455,11.068,39.242-14.1,27.224-25.362"/>
		<path fill="#A0D6BB" stroke="#000000" stroke-width="0.75" stroke-miterlimit="10" d="M62.857,136.096
			c11.586,6.076,41.311-17.204,28.526-27.562"/>
		<path fill="#A0D6BB" stroke="#000000" stroke-width="0.75" stroke-miterlimit="10" d="M62.857,136.096
			c1.575-13.941,15.266-29.026,28.526-29.255"/>
		<path fill="#A0D6BB" stroke="#000000" stroke-width="0.75" stroke-miterlimit="10" d="M62.857,136.096
			c11.022-6.533,27.012-17.879,28.526-29.255"/>
	</g>
	<g id="apple_2_">
		<g>
			<path fill="#ED1B35" d="M64.7,97.313c-2.785-3.34-6.296-3.028-7.413,1.514c-0.441,1.592,0.068,3.873,0.762,5.493
				c1.075,2.297,2.091,1.722,4.684,2.155c2.025,0.418,2.851,2.074,4.793,1.756c1.776-0.221,2.841-1.495,3.379-2.917
				c0.904-2.747,0.486-9.999-3.437-9.232c-0.906,0.178-1.729,1.091-2.635,1.269"/>
			<g>
				<path d="M65.156,97.151c-3.081-3.392-7.027-2.702-8.344,1.763c-0.638,2.163,0.126,5.942,2.148,7.194
					c0.882,0.546,2.422,0.415,3.375,0.549c1.51,0.214,2.605,1.503,4.112,1.789c4.181,0.793,5.446-4.182,5.312-7.236
					c-0.083-1.903-0.597-4.316-2.475-5.209c-1.62-0.77-3.245,0.738-4.616,1.248c-0.647,0.241-0.031,0.336,0.329,0.202
					c1.275-0.474,2.786-1.64,4.099-0.7c1.05,0.753,1.367,2.412,1.576,3.583c0.463,2.597-0.07,9.923-5.056,7.131
					c-1.117-0.625-1.933-1.096-3.217-1.278c-1.819-0.257-2.915-0.207-3.867-1.998c-0.998-1.877-1.12-4.263-0.532-6.253
					c0.461-1.563,1.847-3.208,4.069-2.273c0.872,0.367,1.557,1.13,2.176,1.812C64.403,97.65,65.294,97.303,65.156,97.151
					L65.156,97.151z"/>
			</g>
		</g>
		<g>
			<g>
				<path d="M65.028,96.781c0.19-1.051,0.554-2.49,1.728-2.82c0.575-0.161,0.453-0.628-0.125-0.466
					c-1.622,0.455-2.287,1.858-2.568,3.412C63.999,97.268,64.971,97.101,65.028,96.781L65.028,96.781z"/>
			</g>
		</g>
		<g>
			<g>
				<path d="M62.988,106.915c-0.428,0.139-0.638,0.349-0.76,0.78c-0.053,0.188,0.885,0.064,0.952-0.174
					c0.015-0.055,0.083-0.382,0.138-0.399c0.04-0.013,0.435-0.176,0.291-0.266C63.447,106.754,63.147,106.864,62.988,106.915
					L62.988,106.915z"/>
			</g>
		</g>
		<g>
			<g>
				<path d="M62.729,107.45c0.059,0.302,0.118,0.604,0.178,0.906c0.057,0.288,1.027,0.052,0.966-0.259
					c-0.06-0.302-0.119-0.604-0.178-0.906C63.639,106.903,62.668,107.138,62.729,107.45L62.729,107.45z"/>
			</g>
		</g>
	</g>
	<g id="pear_3_">
		<g>
			<path fill="#387547" d="M52.002,97.251c-1.727,2.101-1.33,3.17-3.083,5.089c-3.532,3.658-1.44,2.797-6.066,4.027
				c-2.326,0.525-5.665,4.875-5.215,7.951c0.37,2.534,4.852,8.062,7.689,7.078c2.549-0.884,8.38-1.789,8.966-4.091
				c0.514-1.554,0.621-5.396,0.67-6.327c0.125-1.682,2.065-5.017,2.992-6.261c1.106-1.273,1.492-2.438,1.977-4.172
				C60.622,97.673,54.166,94.349,52.002,97.251z"/>
			<g>
				<path d="M51.599,97.112c-2.751,3.886-3.911,7.645-8.834,8.929c-2.474,0.645-4.915,3.684-5.408,6.132
					c-0.634,3.15,1.117,6.069,3.609,8.025c3.026,2.376,5.041,1.35,8.536,0.365c2.417-0.68,4.825-1.47,5.476-4.087
					c0.439-1.77,0.391-3.723,0.474-5.537c0.138-3.024,2.844-5.555,4.186-8.083C62.308,97.828,55.345,93.509,51.599,97.112
					c-0.435,0.417,0.503,0.571,0.807,0.278c2.063-1.984,4.898-0.351,6.44,1.231c1.674,1.718-0.263,4.58-1.294,5.957
					c-1.165,1.556-2.479,3.568-2.877,5.477c-0.376,1.804-0.326,3.684-0.521,5.518c-0.391,3.663-8.383,6.677-11.626,4.712
					c-2.256-1.366-4.377-4.435-4.417-7.07c-0.069-4.553,4.368-5.972,7.638-7.288c3.331-1.34,4.768-5.868,6.657-8.537
					C52.76,96.89,51.851,96.756,51.599,97.112z"/>
			</g>
		</g>
		<g>
			<g>
				<path d="M57.809,96.473c0.893-1.113,1.883-2.077,3.308-2.426c0.137-0.033,0.722-0.206,0.658-0.442
					c-0.064-0.24-0.654-0.087-0.791-0.054c-1.877,0.46-3.297,1.516-4.494,3.007C56.178,96.948,57.583,96.755,57.809,96.473
					L57.809,96.473z"/>
			</g>
		</g>
		<g>
			<g>
				<path d="M43.841,117.92c0.239,0.143,0.407,0.329,0.516,0.586c0.208,0.488,1.631,0.041,1.449-0.389
					c-0.172-0.404-0.435-0.659-0.808-0.882C44.609,117.002,43.266,117.576,43.841,117.92L43.841,117.92z"/>
			</g>
		</g>
		<g>
			<g>
				<path d="M43.883,118.661c0.479-0.242,0.958-0.471,1.478-0.611c0.18-0.048,0.714-0.233,0.639-0.515
					c-0.076-0.281-0.631-0.175-0.811-0.126c-0.769,0.207-1.477,0.538-2.186,0.894c-0.182,0.092-0.453,0.383-0.142,0.509
					C43.185,118.943,43.591,118.808,43.883,118.661L43.883,118.661z"/>
			</g>
		</g>
	</g>
	<g id="yellowtomato_2_">
		<g>
			<path fill="#D8E02A" d="M53.126,96.781c0.669-2.355,1.172-3.355-0.428-5.526c-0.984-1.195-2.059-1.993-3.708-2.086
				c-3.727-0.141-6.502,2.296-7.145,5.772c-0.581,3.209-1.127,9.353,2.98,10.276c3.977,0.894,7.285-2.677,8.722-5.974
				c0.089-0.398,0.311-0.765,0.4-1.164"/>
			<g>
				<path d="M53.613,96.736c0.765-2.636,0.843-4.237-1.076-6.352c-1.393-1.535-3.364-1.664-5.275-1.4
					c-4.329,0.597-5.869,4.701-6.236,8.487c-0.359,3.702,0.355,7.603,4.529,8.198c4.356,0.622,7.676-4.135,8.878-7.635
					c0.139-0.403-0.844-0.287-0.974,0.091c-1.246,3.625-4.955,8.663-9.462,6.34c-2.083-1.074-2.102-4.455-2.043-6.39
					c0.073-2.416,0.529-4.81,2.117-6.706c2.182-2.606,6.05-2.259,8.182,0.091c1.516,1.671,0.925,3.506,0.386,5.367
					C52.518,97.246,53.501,97.121,53.613,96.736L53.613,96.736z"/>
			</g>
		</g>
		<g>
			<g>
				<path d="M53.423,97.769c0.705-0.974,2.17-0.306,3.057,0.079c0.622,0.27,1.683-0.624,0.832-0.993
					c-1.617-0.703-3.895-1.203-5.105,0.471C51.662,98.077,53.025,98.319,53.423,97.769L53.423,97.769z"/>
			</g>
		</g>
		<g>
			<g>
				<path d="M41.725,98.232c-0.389-0.107-0.726-0.291-1.071-0.498c-0.188-0.113-0.44-0.061-0.632,0.016
					c-0.057,0.022-0.452,0.233-0.27,0.342c0.383,0.231,0.76,0.451,1.195,0.57c0.225,0.062,0.479,0.008,0.68-0.104
					C41.721,98.507,41.952,98.295,41.725,98.232L41.725,98.232z"/>
			</g>
		</g>
		<g>
			<g>
				<path d="M40.241,97.6c-0.245,0.463-0.554,0.875-0.927,1.242c-0.399,0.393,0.553,0.36,0.771,0.146
					c0.417-0.41,0.778-0.857,1.052-1.375C41.349,97.211,40.384,97.331,40.241,97.6L40.241,97.6z"/>
			</g>
		</g>
	</g>
</g>
</svg>
