<?xml version="1.0" encoding="utf-8"?>
<!-- Generator: Adobe Illustrator 15.1.0, SVG Export Plug-In . SVG Version: 6.00 Build 0)  -->
<!DOCTYPE svg PUBLIC "-//W3C//DTD SVG 1.1//EN" "http://www.w3.org/Graphics/SVG/1.1/DTD/svg11.dtd">
<svg version="1.1" xmlns="http://www.w3.org/2000/svg" xmlns:xlink="http://www.w3.org/1999/xlink" x="0px" y="0px"
	 width="425.197px" height="425.197px" viewBox="0 0 425.197 425.197" enable-background="new 0 0 425.197 425.197"
	 xml:space="preserve">
<g id="Layer_1">
	<rect x="63.098" y="54.099" fill="#FFFFFF" stroke="#000000" stroke-miterlimit="10" width="299" height="39"/>
	<g>
		<g>
			<defs>
				<rect id="SVGID_1_" x="12.265" y="266.735" width="125.667" height="34.834"/>
			</defs>
			<clipPath id="SVGID_2_">
				<use xlink:href="#SVGID_1_"  overflow="visible"/>
			</clipPath>
			<g clip-path="url(#SVGID_2_)">
				<defs>
					<rect id="SVGID_3_" x="12.265" y="266.736" width="125.667" height="34.833"/>
				</defs>
				<clipPath id="SVGID_4_">
					<use xlink:href="#SVGID_3_"  overflow="visible"/>
				</clipPath>
				<path clip-path="url(#SVGID_4_)" fill="#FFFFFF" d="M111.824,267.869c-35.521,0-38.643,0.25-70.5,0.25
					c-5.375,8.625-17.038,18.989-22.897,18.989c-3.057,0-1.5,10.25-1.5,10.25h119.147c0,0-0.5-10.989-2-10.989
					C128.771,286.369,118.074,277.119,111.824,267.869"/>
				<path clip-path="url(#SVGID_4_)" fill="#231F20" d="M110.927,268.247c3.704,3.938,6.145,8.848,10.289,12.388
					c3.432,2.93,7.443,4.438,11.767,5.509c0.611,0.15,2.278-0.776,1.183-1.047c-4.736-1.174-8.468-2.923-12.194-6.105
					c-3.73-3.184-5.902-7.939-9.25-11.5C112.26,267.001,110.422,267.71,110.927,268.247"/>
				<path clip-path="url(#SVGID_4_)" fill="#231F20" d="M133.108,286.628c1.332,3.326,1.497,6.708,1.5,10.25
					c0,0.342,1.933,0.056,1.932-0.518c-0.003-3.542-0.167-6.923-1.5-10.25C134.845,285.625,132.954,286.241,133.108,286.628"/>
				<path clip-path="url(#SVGID_4_)" fill="#231F20" d="M39.863,268.303c-3.071,3.267-5.286,7.185-8.268,10.522
					c-3.386,3.791-8.054,5.655-12.853,6.843c-1.208,0.299-0.831,1.678,0.37,1.381c4.476-1.107,8.293-2.711,11.924-5.588
					c4.315-3.42,6.723-8.581,10.455-12.547C42.332,268.02,40.482,267.646,39.863,268.303"/>
				<path clip-path="url(#SVGID_4_)" fill="#231F20" d="M17.515,287.04c-1.357,3.389-1.558,6.804-1.561,10.414
					c0,0.924,1.945,0.564,1.946-0.19c0.002-3.471,0.132-6.825,1.439-10.086C19.727,286.209,17.792,286.35,17.515,287.04"/>
				
					<line clip-path="url(#SVGID_4_)" fill="none" stroke="#231F20" stroke-miterlimit="10" x1="16.927" y1="297.358" x2="136.824" y2="297.358"/>
				<path clip-path="url(#SVGID_4_)" fill="#231F20" d="M40.432,268.515c3.301,2.747,8.301,3.365,12.383,3.998
					c7.533,1.168,15.214,1.418,22.824,1.398c7.454-0.021,14.928-0.455,22.311-1.5c4.867-0.689,10.247-1.551,14.489-4.197
					c1.113-0.693-0.545-1.117-1.23-0.689c-4.328,2.699-10.075,3.306-15.018,3.96c-6.949,0.918-13.99,1.198-20.994,1.218
					c-6.535,0.017-13.084-0.308-19.571-1.108c-4.192-0.517-10.007-1.039-13.41-3.87C41.64,267.244,39.83,268.015,40.432,268.515"/>
			</g>
		</g>
	</g>
	<g>
		<g>
			<defs>
				<rect id="SVGID_5_" x="282.781" y="266.735" width="125.667" height="34.834"/>
			</defs>
			<clipPath id="SVGID_6_">
				<use xlink:href="#SVGID_5_"  overflow="visible"/>
			</clipPath>
			<g clip-path="url(#SVGID_6_)">
				<defs>
					<rect id="SVGID_7_" x="282.781" y="266.736" width="125.667" height="34.833"/>
				</defs>
				<clipPath id="SVGID_8_">
					<use xlink:href="#SVGID_7_"  overflow="visible"/>
				</clipPath>
				<path clip-path="url(#SVGID_8_)" fill="#FFFFFF" d="M382.34,267.869c-35.521,0-38.643,0.25-70.5,0.25
					c-5.375,8.625-17.038,18.989-22.897,18.989c-3.057,0-1.5,10.25-1.5,10.25H406.59c0,0-0.5-10.989-2-10.989
					C399.288,286.369,388.59,277.119,382.34,267.869"/>
				<path clip-path="url(#SVGID_8_)" fill="#231F20" d="M381.443,268.247c3.704,3.938,6.146,8.848,10.289,12.388
					c3.433,2.93,7.443,4.438,11.768,5.509c0.61,0.15,2.277-0.776,1.183-1.047c-4.736-1.174-8.468-2.923-12.194-6.105
					c-3.729-3.184-5.901-7.939-9.25-11.5C382.776,267.001,380.938,267.71,381.443,268.247"/>
				<path clip-path="url(#SVGID_8_)" fill="#231F20" d="M403.625,286.628c1.332,3.326,1.497,6.708,1.5,10.25
					c0,0.342,1.934,0.056,1.933-0.518c-0.003-3.542-0.167-6.923-1.5-10.25C405.362,285.625,403.47,286.241,403.625,286.628"/>
				<path clip-path="url(#SVGID_8_)" fill="#231F20" d="M310.379,268.303c-3.071,3.267-5.286,7.185-8.269,10.522
					c-3.386,3.791-8.054,5.655-12.853,6.843c-1.208,0.299-0.831,1.678,0.37,1.381c4.476-1.107,8.293-2.711,11.924-5.588
					c4.314-3.42,6.723-8.581,10.455-12.547C312.848,268.02,310.999,267.646,310.379,268.303"/>
				<path clip-path="url(#SVGID_8_)" fill="#231F20" d="M288.031,287.04c-1.356,3.389-1.558,6.804-1.561,10.414
					c0,0.924,1.944,0.564,1.946-0.19c0.002-3.471,0.132-6.825,1.438-10.086C290.243,286.209,288.308,286.35,288.031,287.04"/>
				
					<line clip-path="url(#SVGID_8_)" fill="none" stroke="#231F20" stroke-miterlimit="10" x1="287.443" y1="297.358" x2="407.34" y2="297.358"/>
				<path clip-path="url(#SVGID_8_)" fill="#231F20" d="M310.948,268.515c3.301,2.747,8.301,3.365,12.383,3.998
					c7.533,1.168,15.215,1.418,22.824,1.398c7.455-0.021,14.929-0.455,22.312-1.5c4.867-0.689,10.247-1.551,14.489-4.197
					c1.113-0.693-0.545-1.117-1.23-0.689c-4.328,2.699-10.074,3.306-15.018,3.96c-6.949,0.918-13.99,1.198-20.994,1.218
					c-6.535,0.017-13.084-0.308-19.571-1.108c-4.192-0.517-10.007-1.039-13.41-3.87
					C312.156,267.244,310.346,268.015,310.948,268.515"/>
			</g>
		</g>
	</g>
	<g>
		<g>
			<defs>
				<rect id="SVGID_9_" x="21.522" y="158.094" width="109.152" height="122.896"/>
			</defs>
			<clipPath id="SVGID_10_">
				<use xlink:href="#SVGID_9_"  overflow="visible"/>
			</clipPath>
			<rect x="43.611" y="158.376" clip-path="url(#SVGID_10_)" fill="#FFFFFF" width="68.425" height="109.151"/>
			<g clip-path="url(#SVGID_10_)">
				<defs>
					<rect id="SVGID_11_" x="21.522" y="158.094" width="109.152" height="122.896"/>
				</defs>
				<clipPath id="SVGID_12_">
					<use xlink:href="#SVGID_11_"  overflow="visible"/>
				</clipPath>
				
					<line clip-path="url(#SVGID_12_)" fill="none" stroke="#231F20" stroke-width="1.379" stroke-miterlimit="10" x1="98.228" y1="158.376" x2="98.228" y2="272.165"/>
				
					<line clip-path="url(#SVGID_12_)" fill="none" stroke="#231F20" stroke-width="1.379" stroke-miterlimit="10" x1="42.65" y1="158.376" x2="42.65" y2="267.527"/>
				
					<line clip-path="url(#SVGID_12_)" fill="none" stroke="#231F20" stroke-width="1.379" stroke-miterlimit="10" x1="70.96" y1="158.376" x2="70.96" y2="273.448"/>
				
					<line clip-path="url(#SVGID_12_)" fill="none" stroke="#231F20" stroke-width="1.379" stroke-miterlimit="10" x1="57.248" y1="158.376" x2="57.248" y2="272.165"/>
				
					<line clip-path="url(#SVGID_12_)" fill="none" stroke="#231F20" stroke-width="1.379" stroke-miterlimit="10" x1="110.773" y1="158.376" x2="110.773" y2="268.489"/>
				
					<line clip-path="url(#SVGID_12_)" fill="none" stroke="#231F20" stroke-width="1.379" stroke-miterlimit="10" x1="84.674" y1="157.414" x2="84.674" y2="273.448"/>
				<path clip-path="url(#SVGID_12_)" fill="#231F20" d="M42.407,211.681c2.359,1.666,4.69,3.215,7.661,3.199
					c2.877-0.018,5.555-1.958,7.757-3.57c1.082-0.792-1.493-0.528-1.987-0.166c-1.688,1.234-3.602,2.913-5.83,2.476
					c-1.906-0.374-3.646-1.753-5.194-2.846C44.189,210.333,41.945,211.354,42.407,211.681"/>
				<path clip-path="url(#SVGID_12_)" fill="#231F20" d="M56.482,212.431c2.279,1.608,4.636,3.213,7.522,3.194
					c2.823-0.014,5.346-1.837,7.517-3.424c1.403-1.027-0.78-1.408-1.604-0.806c-1.582,1.157-3.409,2.726-5.471,2.739
					c-2.104,0.01-4.317-1.83-5.932-2.97C57.809,210.665,55.444,211.697,56.482,212.431"/>
				<path clip-path="url(#SVGID_12_)" fill="#231F20" d="M70.229,211.988c2.123,1.499,4.603,3.315,7.335,3.299
					c2.969-0.015,5.418-1.752,7.727-3.439c1.404-1.027-0.662-2.015-1.721-1.241c-1.571,1.15-3.252,2.505-5.258,2.725
					c-2.181,0.237-4.477-1.705-6.119-2.865C71.222,209.78,69.005,211.124,70.229,211.988"/>
				<path clip-path="url(#SVGID_12_)" fill="#231F20" d="M83.931,211.947c2.136,1.506,4.583,3.279,7.324,3.261
					c2.964-0.017,5.427-1.746,7.73-3.432c1.408-1.029-0.698-1.817-1.681-1.098c-1.576,1.152-3.25,2.512-5.257,2.732
					c-2.159,0.234-4.496-1.748-6.13-2.903C85.034,209.883,82.76,211.119,83.931,211.947"/>
				<path clip-path="url(#SVGID_12_)" fill="#231F20" d="M96.943,211.721c2.154,1.648,4.369,3.306,7.103,3.29
					c2.695-0.017,5.094-1.956,7.161-3.593c1.074-0.849-1.31-0.84-1.891-0.381c-1.429,1.131-3.183,2.744-5.082,2.546
					c-1.838-0.194-3.654-1.754-5.088-2.85C98.478,210.221,96.324,211.25,96.943,211.721"/>
			</g>
		</g>
	</g>
	<g>
		<g>
			<defs>
				<rect id="SVGID_13_" x="292.039" y="158.094" width="109.152" height="122.896"/>
			</defs>
			<clipPath id="SVGID_14_">
				<use xlink:href="#SVGID_13_"  overflow="visible"/>
			</clipPath>
			<rect x="314.127" y="158.376" clip-path="url(#SVGID_14_)" fill="#FFFFFF" width="68.426" height="109.151"/>
			<g clip-path="url(#SVGID_14_)">
				<defs>
					<rect id="SVGID_15_" x="292.039" y="158.094" width="109.152" height="122.896"/>
				</defs>
				<clipPath id="SVGID_16_">
					<use xlink:href="#SVGID_15_"  overflow="visible"/>
				</clipPath>
				
					<line clip-path="url(#SVGID_16_)" fill="none" stroke="#231F20" stroke-width="1.379" stroke-miterlimit="10" x1="368.745" y1="158.376" x2="368.745" y2="272.165"/>
				
					<line clip-path="url(#SVGID_16_)" fill="none" stroke="#231F20" stroke-width="1.379" stroke-miterlimit="10" x1="313.167" y1="158.376" x2="313.167" y2="267.527"/>
				
					<line clip-path="url(#SVGID_16_)" fill="none" stroke="#231F20" stroke-width="1.379" stroke-miterlimit="10" x1="341.477" y1="158.376" x2="341.477" y2="273.448"/>
				
					<line clip-path="url(#SVGID_16_)" fill="none" stroke="#231F20" stroke-width="1.379" stroke-miterlimit="10" x1="327.765" y1="158.376" x2="327.765" y2="272.165"/>
				
					<line clip-path="url(#SVGID_16_)" fill="none" stroke="#231F20" stroke-width="1.379" stroke-miterlimit="10" x1="381.29" y1="158.376" x2="381.29" y2="268.489"/>
				
					<line clip-path="url(#SVGID_16_)" fill="none" stroke="#231F20" stroke-width="1.379" stroke-miterlimit="10" x1="355.19" y1="157.414" x2="355.19" y2="273.448"/>
				<path clip-path="url(#SVGID_16_)" fill="#231F20" d="M312.923,211.681c2.358,1.666,4.69,3.215,7.661,3.199
					c2.877-0.018,5.554-1.958,7.757-3.57c1.082-0.792-1.492-0.528-1.987-0.166c-1.688,1.234-3.602,2.913-5.829,2.476
					c-1.906-0.374-3.646-1.753-5.194-2.846C314.706,210.333,312.461,211.354,312.923,211.681"/>
				<path clip-path="url(#SVGID_16_)" fill="#231F20" d="M327,212.431c2.278,1.608,4.636,3.213,7.521,3.194
					c2.822-0.014,5.346-1.837,7.518-3.424c1.402-1.027-0.781-1.408-1.604-0.806c-1.581,1.157-3.408,2.726-5.471,2.739
					c-2.104,0.01-4.316-1.83-5.932-2.97C328.326,210.665,325.96,211.697,327,212.431"/>
				<path clip-path="url(#SVGID_16_)" fill="#231F20" d="M340.747,211.988c2.122,1.499,4.603,3.315,7.335,3.299
					c2.969-0.015,5.419-1.752,7.727-3.439c1.404-1.027-0.661-2.015-1.72-1.241c-1.571,1.15-3.253,2.505-5.259,2.725
					c-2.181,0.237-4.477-1.705-6.118-2.865C341.739,209.78,339.522,211.124,340.747,211.988"/>
				<path clip-path="url(#SVGID_16_)" fill="#231F20" d="M354.448,211.947c2.136,1.506,4.584,3.279,7.324,3.261
					c2.964-0.017,5.427-1.746,7.73-3.432c1.408-1.029-0.698-1.817-1.681-1.098c-1.576,1.152-3.251,2.512-5.257,2.732
					c-2.16,0.234-4.496-1.748-6.131-2.903C355.551,209.883,353.276,211.119,354.448,211.947"/>
				<path clip-path="url(#SVGID_16_)" fill="#231F20" d="M367.46,211.721c2.153,1.648,4.368,3.306,7.103,3.29
					c2.695-0.017,5.095-1.956,7.161-3.593c1.074-0.849-1.31-0.84-1.891-0.381c-1.43,1.131-3.183,2.744-5.081,2.546
					c-1.838-0.194-3.655-1.754-5.089-2.85C368.995,210.221,366.841,211.25,367.46,211.721"/>
			</g>
		</g>
	</g>
	<g>
		<g>
			<defs>
				<rect id="SVGID_17_" x="1.582" y="130.964" width="151.033" height="49.866"/>
			</defs>
			<clipPath id="SVGID_18_">
				<use xlink:href="#SVGID_17_"  overflow="visible"/>
			</clipPath>
			<rect x="26.313" y="137.333" clip-path="url(#SVGID_18_)" fill="#FFFFFF" width="101.066" height="24.231"/>
			<g clip-path="url(#SVGID_18_)">
				<defs>
					<rect id="SVGID_19_" x="1.582" y="130.964" width="151.033" height="49.866"/>
				</defs>
				<clipPath id="SVGID_20_">
					<use xlink:href="#SVGID_19_"  overflow="visible"/>
				</clipPath>
				<path clip-path="url(#SVGID_20_)" fill="#FFFFFF" d="M37.528,155.938c-4.967,4.777,6.269,7.01-8.334,19.623
					c-7.764,6.707-23.499-5.327-23.499-18.156c0-20.301,5.833-20.074,21.832-20.071C56.696,137.341,46.774,147.044,37.528,155.938"
					/>
				<path clip-path="url(#SVGID_20_)" fill="#FFFFFF" d="M116.165,156.118c4.967,4.777-7.176,7.81,7.426,20.424
					c7.763,6.706,24.408-6.128,24.408-18.958c0-20.301-5.834-20.074-21.832-20.07C96.998,137.521,106.918,147.224,116.165,156.118"
					/>
				<path clip-path="url(#SVGID_20_)" fill="#231F20" d="M20.489,164.412c0.574-3.188,1.428-6.099,3.516-8.647
					c2.883-3.521,7.029-1.917,9.403,0.85c5.407,6.304,0.466,17.236-6.116,20.302c-6.205,2.891-13.01-2.411-16.415-7.029
					c-2.921-3.96-4.414-8.935-5.029-13.759c-0.582-4.573-0.045-9.546,2.31-13.574c3.893-6.659,14.106-4.644,20.602-4.764
					c17.915-0.33,35.833-0.164,53.75-0.159c0.642,0,2.083-0.975,0.783-0.975c-13.168-0.004-26.337-0.083-39.505-0.008
					c-6.612,0.038-13.223,0.136-19.833,0.279c-4.075,0.089-8.391-0.306-12.279,1.133c-12.123,4.488-8.257,23.607-3.182,31.69
					c7.97,12.69,26.52,10.916,28.826-5.044c0.741-5.137-2.212-12.161-8.307-11.976c-6.6,0.201-9.401,6.161-10.446,11.96
					C18.451,165.337,20.384,164.995,20.489,164.412"/>
				<path clip-path="url(#SVGID_20_)" fill="#231F20" d="M134.128,164.293c-0.926-5.138-3.966-12.738-10.62-11.485
					c-4.568,0.86-8.019,4.564-8.175,9.341c-0.278,8.508,5.156,16.433,14.166,16.388c5.732-0.027,10.863-3.906,14.107-8.305
					c6.016-8.158,9.208-26.026-1.521-31.972c-3.031-1.679-7.139-1.198-10.416-1.287c-5.341-0.144-10.684-0.251-16.026-0.312
					c-10.784-0.122-21.568-0.007-32.351-0.004c-0.643,0-2.084,0.975-0.783,0.975c13.957-0.004,27.912-0.13,41.867,0.16
					c6.097,0.126,14.155-1.363,18.833,3.402c3.177,3.236,3.841,8.416,3.816,12.722c-0.06,10.983-9.719,29.882-23.284,21.811
					c-5.959-3.546-8.453-12.875-4.937-18.832c2.107-3.572,6.235-3.87,9.241-1.391c2.67,2.203,3.57,6.081,4.151,9.307
					C132.299,165.378,134.241,164.918,134.128,164.293"/>
				<path clip-path="url(#SVGID_20_)" fill="#231F20" d="M35.996,162.365c26.334-0.016,52.736-1.039,79.059,0
					c0.632,0.024,2.088-0.897,0.791-0.949c-26.323-1.039-52.726-0.016-79.059,0C36.162,161.417,34.698,162.365,35.996,162.365"/>
			</g>
		</g>
	</g>
	<g>
		<g>
			<defs>
				<rect id="SVGID_21_" x="272.098" y="130.964" width="151.033" height="49.866"/>
			</defs>
			<clipPath id="SVGID_22_">
				<use xlink:href="#SVGID_21_"  overflow="visible"/>
			</clipPath>
			<rect x="296.831" y="137.333" clip-path="url(#SVGID_22_)" fill="#FFFFFF" width="101.065" height="24.231"/>
			<g clip-path="url(#SVGID_22_)">
				<defs>
					<rect id="SVGID_23_" x="272.098" y="130.964" width="151.033" height="49.866"/>
				</defs>
				<clipPath id="SVGID_24_">
					<use xlink:href="#SVGID_23_"  overflow="visible"/>
				</clipPath>
				<path clip-path="url(#SVGID_24_)" fill="#FFFFFF" d="M308.044,155.938c-4.967,4.777,6.27,7.01-8.334,19.623
					c-7.764,6.707-23.499-5.327-23.499-18.156c0-20.301,5.833-20.074,21.832-20.071
					C327.212,137.341,317.291,147.044,308.044,155.938"/>
				<path clip-path="url(#SVGID_24_)" fill="#FFFFFF" d="M386.681,156.118c4.967,4.777-7.176,7.81,7.426,20.424
					c7.764,6.706,24.408-6.128,24.408-18.958c0-20.301-5.834-20.074-21.832-20.07C367.514,137.521,377.435,147.224,386.681,156.118"
					/>
				<path clip-path="url(#SVGID_24_)" fill="#231F20" d="M291.005,164.412c0.574-3.188,1.428-6.099,3.517-8.647
					c2.883-3.521,7.028-1.917,9.402,0.85c5.407,6.304,0.466,17.236-6.116,20.302c-6.204,2.891-13.01-2.411-16.415-7.029
					c-2.921-3.96-4.414-8.935-5.029-13.759c-0.582-4.573-0.045-9.546,2.311-13.574c3.893-6.659,14.106-4.644,20.603-4.764
					c17.915-0.33,35.833-0.164,53.75-0.159c0.642,0,2.083-0.975,0.783-0.975c-13.169-0.004-26.338-0.083-39.506-0.008
					c-6.611,0.038-13.223,0.136-19.833,0.279c-4.074,0.089-8.391-0.306-12.279,1.133c-12.123,4.488-8.256,23.607-3.182,31.69
					c7.971,12.69,26.521,10.916,28.826-5.044c0.741-5.137-2.212-12.161-8.307-11.976c-6.601,0.201-9.401,6.161-10.446,11.96
					C288.967,165.337,290.901,164.995,291.005,164.412"/>
				<path clip-path="url(#SVGID_24_)" fill="#231F20" d="M404.645,164.293c-0.926-5.138-3.966-12.738-10.62-11.485
					c-4.567,0.86-8.019,4.564-8.175,9.341c-0.277,8.508,5.156,16.433,14.166,16.388c5.732-0.027,10.863-3.906,14.107-8.305
					c6.016-8.158,9.208-26.026-1.521-31.972c-3.031-1.679-7.139-1.198-10.416-1.287c-5.341-0.144-10.684-0.251-16.025-0.312
					c-10.784-0.122-21.568-0.007-32.352-0.004c-0.643,0-2.084,0.975-0.783,0.975c13.957-0.004,27.912-0.13,41.867,0.16
					c6.098,0.126,14.155-1.363,18.833,3.402c3.177,3.236,3.841,8.416,3.816,12.722c-0.061,10.983-9.719,29.882-23.284,21.811
					c-5.959-3.546-8.453-12.875-4.938-18.832c2.107-3.572,6.235-3.87,9.241-1.391c2.67,2.203,3.57,6.081,4.151,9.307
					C402.816,165.378,404.758,164.918,404.645,164.293"/>
				<path clip-path="url(#SVGID_24_)" fill="#231F20" d="M306.512,162.365c26.334-0.016,52.736-1.039,79.06,0
					c0.632,0.024,2.088-0.897,0.791-0.949c-26.323-1.039-52.727-0.016-79.06,0C306.678,161.417,305.214,162.365,306.512,162.365"/>
			</g>
		</g>
	</g>
	<rect x="2.098" y="372.099" fill="#FFFFFF" stroke="#000000" stroke-miterlimit="10" width="421" height="45"/>
	<rect x="7.098" y="334.099" fill="#FFFFFF" stroke="#000000" stroke-miterlimit="10" width="411" height="29"/>
	<rect x="7.098" y="112.099" fill="#FFFFFF" stroke="#000000" stroke-miterlimit="10" width="411" height="19"/>
	<rect x="7.098" y="7.099" fill="#FFFFFF" stroke="#000000" stroke-miterlimit="10" width="411" height="30"/>
	<rect x="12.098" y="303.099" fill="#FFFFFF" stroke="#000000" stroke-miterlimit="10" width="401" height="23"/>
	<rect x="11.098" y="32.099" fill="#FFFFFF" stroke="#000000" stroke-miterlimit="10" width="16" height="84"/>
	<rect x="34.098" y="32.099" fill="#FFFFFF" stroke="#000000" stroke-miterlimit="10" width="16" height="84"/>
	<rect x="58.098" y="32.099" fill="#FFFFFF" stroke="#000000" stroke-miterlimit="10" width="16" height="84"/>
	<rect x="82.098" y="32.099" fill="#FFFFFF" stroke="#000000" stroke-miterlimit="10" width="16" height="84"/>
	<rect x="105.098" y="32.099" fill="#FFFFFF" stroke="#000000" stroke-miterlimit="10" width="16" height="84"/>
	<rect x="127.098" y="32.099" fill="#FFFFFF" stroke="#000000" stroke-miterlimit="10" width="16" height="84"/>
	<rect x="281.098" y="32.099" fill="#FFFFFF" stroke="#000000" stroke-miterlimit="10" width="16" height="84"/>
	<rect x="304.098" y="32.099" fill="#FFFFFF" stroke="#000000" stroke-miterlimit="10" width="16" height="84"/>
	<rect x="328.098" y="32.099" fill="#FFFFFF" stroke="#000000" stroke-miterlimit="10" width="16" height="84"/>
	<rect x="352.098" y="32.099" fill="#FFFFFF" stroke="#000000" stroke-miterlimit="10" width="16" height="84"/>
	<rect x="375.098" y="32.099" fill="#FFFFFF" stroke="#000000" stroke-miterlimit="10" width="16" height="84"/>
	<rect x="397.098" y="32.099" fill="#FFFFFF" stroke="#000000" stroke-miterlimit="10" width="16" height="84"/>
	<rect x="163.098" y="46.099" fill="#FFFFFF" stroke="#000000" stroke-miterlimit="10" width="98" height="56"/>
</g>
<g id="Layer_2">
</g>
</svg>
