<?xml version="1.0" encoding="utf-8"?>
<!-- Generator: Adobe Illustrator 15.1.0, SVG Export Plug-In . SVG Version: 6.00 Build 0)  -->
<!DOCTYPE svg PUBLIC "-//W3C//DTD SVG 1.1//EN" "http://www.w3.org/Graphics/SVG/1.1/DTD/svg11.dtd">
<svg version="1.1" xmlns="http://www.w3.org/2000/svg" xmlns:xlink="http://www.w3.org/1999/xlink" x="0px" y="0px" width="156px"
	 height="155.333px" viewBox="0 0 156 155.333" enable-background="new 0 0 156 155.333" xml:space="preserve">
<g id="Background">
	<circle fill="#F26739" stroke="#000000" stroke-width="4" stroke-miterlimit="10" cx="78.483" cy="78.798" r="73.983"/>
</g>
<g id="Hammoc">
	<path fill="none" stroke="#000000" stroke-width="3" stroke-miterlimit="10" d="M134.375,82.442
		c5.155-4.121,20.566-20.059,16.971-16.542"/>
	<path stroke="#FFFFFF" stroke-miterlimit="10" d="M106.083,88.918c3.859-3.45,5.204-3.679,6.892,0.571
		c1.295,3.262,3.137,4.453,4.188,7.688c1.004,3.091,1.532,12.295,1.563,15.375c0.029,3.147-3.25,2.813,0.375,5.063
		c0.637-0.544,1.733,3.807,1.952,2.955c1.188-4.625,1.647-2.777,1.188-6.75c-0.731-6.3,1.093-14.142,0.423-19.955
		c-0.389-3.37-4.43-8.16-6.662-11.322c-2.334-3.306-3.775-5.818-8.994-2.401c-5.365,3.513-1.887,0.524-6.943,4.463"/>
	<path stroke="#FFFFFF" stroke-miterlimit="10" d="M47.946,81.792c-2.946,8.5,2.083,2.504,1.743,11.388
		c-0.25,4.38,5.035,23.087,5.811,27.402c0.413,2.297,0.033,3.66-0.569,5.479c-0.612,1.684-0.981,3.186-1.138,4.969
		c1.1-2.291,2.221-2.083,2.717-3.349c0.509,0.777,1.259,0.861,3.122,4.423c-1.55-4.499-4.002-15.717-3.647-20.65
		c0.381-6.32,1.905-17.944,1.427-22.353c2.129,0.513,9.22,9.677,20.771,12.225"/>
	<path fill="none" stroke="#000000" stroke-width="3" stroke-miterlimit="10" d="M6.506,64.585
		c9.16,8.082,13.66,14.915,19.994,18.082"/>
	<path fill="#FCF9CE" stroke="#000000" stroke-miterlimit="10" d="M43,81.667c6.742,5.5,45.625,14.261,68.492,2.7
		c8.058-4.074,7.049-5.643,11.758,1.05c10.126,14.394,10.086,11.871,0.126,18.204c-9.959,6.333-28.634,11.733-44.3,11.796
		c-15.705,0.063-46.955-14.237-52.317-19.66"/>
	<path fill="#FFFFFF" stroke="#000000" stroke-miterlimit="10" d="M36.786,74.119c1.159,2.851,0.099,5.06-1.917,7.172
		c-1.993,2.21-4.371,4.093-6.726,6.073c-1.03,0.958-2.554,2.026-3.319,3.235c-0.842,1.33-0.258,2.547-0.342,4.018
		c-0.409,3.722-3.276,2.499-6.076,2.505c1.612-0.673,0.194-1.677,0.982-2.787c0.361-0.704,2.127-0.918,2.18-2.072
		c0.074-1.053-0.365-1.163-1.189-1.599c-0.968-0.613-3.327-0.498-2.826-1.959c0.403-1.438,2.678-0.083,3.885-0.25
		c0.614-0.035,2.908-0.446,3.049-1.204c0.161-1.592-2.67-1.267-3.252-1.551c-1.989-1.005-0.981-2.062,0.786-2.044
		c1.449-0.014,2.789,0.412,4.292,0.177c1.482-0.333,2.04-1.08,0.994-2.504c-0.947-1.447-3.132-1.475-4.462-2.317
		c2.807-1.356,3.106-0.49,5.654,0.701c1.604,0.677,1.735,0.336,1.919-1.157c0.208-0.461-0.123-1.009,0.084-1.471
		c0.284-0.583,1.042-0.441,1.205-1.1c0.446-2.174-0.777-3.924-1.778-5.152c-1.838-2.18-1.562-2.914,0.503-2.03
		C30.432,68.804,36.112,72.507,36.786,74.119z"/>
	<path fill="#FCF9CE" stroke="#000000" stroke-miterlimit="10" d="M26.759,95.756c-1.925,1.394-0.425-6.09-0.925-9.923
		s1.5-4.166,5.833-4.333s15.411-2.007,11.943,0.979C37.609,87.646,26.759,95.756,26.759,95.756z"/>
	<path fill="#FCF9CE" stroke="#000000" stroke-miterlimit="10" d="M118.276,82.19c-1.811-2.413-1.931-1.711,4.826-1.832
		c6.758-0.121,14.48-1.855,13.153,1.832c-1.328,3.687-3.709,20.512-6.665,15.311C126.634,92.301,118.276,82.19,118.276,82.19z"/>
</g>
<g id="TiredMoose">
	<path fill="#FFFFFF" stroke="#000000" stroke-miterlimit="10" d="M125.052,117.569c1.188-4.625,1.647-2.777,1.188-6.75"/>
	<path stroke="#FFFFFF" stroke-miterlimit="10" d="M37.25,83.542c4.907,8.855,1.636,5.705,0.595,14.534
		c-0.595,4.346,1.723,24.978,2.155,29.341c0.23,2.323-0.256,3.651-1,5.417c-0.744,1.63-1.23,3.098-1.528,4.864
		c1.278-2.197,2.379-1.901,2.974-3.124c0.446,0.815,1.188,0.958,2.763,4.656c-1.189-4.607-1.276-17.549-0.532-22.438
		c0.88-6.27,2.639-15.316,2.511-19.749c2.082,0.679,9.105,7.955,20.417,11.408c14.709,4.49,20.185,4.881,24.499,3.795
		c5.947-1.358,16.328-3.803,21.561-6.384c7.437-3.667,5.005-3.721,9.912-7.388c2.975-2.173,1.921-2.93,3.111,0.195
		c1.933,4.754,1.234,10.579,1.383,15.605c0,1.222-2.86,7.511-0.07,6.52c1.004-0.357,4.317,2.467,4.453,1.781
		c0.226-1.142-1.305-4.533-1.305-5.297c-0.298-5.569,1.486-11.002,1.19-16.572c-0.15-2.037-0.035-4.618-0.928-6.52
		c-0.594-1.223-0.892-3.396-1.784-4.347c-1.486-1.63-4.461-1.358-6.245-0.543c-2.23,1.086-5.711,1.762-8.069,2.935
		c-6.278,3.122-9.563,6.313-18.75,7.625c0,0,5.181-4.591,9.938-8.938c4.611-4.211,1.125-1.014,5.583-4.998
		c3.859-3.45,7.664-4.417,7.136-5.471l0,0c-2.772-4.66-7.232-2.957-9.59-1.651c-3.035,1.682-10.128,7.06-15.879,11.682
		c-3.864,3.124-3.724,3.339-8.04,3.699C79.43,94.536,63.252,87.952,61.319,87c-1.19-0.679,1.207-3.494-2.191-5.964
		c-3.69-2.683-5.69-2.245-8.202-0.493c-3.127,2.182-7.292,1.28-8.917-0.127"/>
	<path stroke="#FFFFFF" stroke-miterlimit="10" d="M35.172,64.354c-0.579,8.937-4.389,10.863-5.087,14.824
		c-0.603,3.418,0.603,6.152,2.485,7.589c4.93,3.456,7.895,1.511,11.094-2.331c3.485-4.081,2.624-4.647,1.393-9.837
		c-1.231-5.189,2.041-10.79-1.229-14.468C42.672,58.864,35.359,61.453,35.172,64.354z"/>
	<path fill="none" stroke="#FFFFFF" stroke-miterlimit="10" d="M61.686,87.171c-1.708-0.685-5.436-2.192-6.248-2.504"/>
	<path fill="#FFFFFF" stroke="#000000" stroke-miterlimit="10" d="M31.036,78.135c0.688-0.094,0.875-0.438,1.25,0
		s0.702,0.625,0.57,1.25s1.062,0.282-0.289,1s-2.875,1.188-3.25,0.438S31.036,78.135,31.036,78.135z"/>
	<path fill="#FFFFFF" stroke="#000000" stroke-miterlimit="10" d="M30.896,76.315c1.432,3.522,0.123,6.25-2.367,8.858
		c-2.461,2.731-5.398,5.056-8.308,7.502c-1.272,1.183-3.154,2.502-4.1,3.995c-1.04,1.643-0.318,3.146-0.423,4.963
		c-0.505,4.597-4.047,3.086-7.504,3.094c1.991-0.832,0.24-2.072,1.213-3.443c0.445-0.869,2.627-1.135,2.692-2.559
		c0.092-1.302-0.451-1.436-1.469-1.976c-1.195-0.757-4.109-0.615-3.49-2.419c0.498-1.777,3.308-0.102,4.799-0.309
		c0.759-0.042,3.592-0.55,3.766-1.486c0.199-1.966-3.298-1.565-4.018-1.917c-2.457-1.242-1.212-2.546,0.971-2.524
		c1.79-0.018,3.445,0.508,5.302,0.219c1.83-0.411,2.519-1.334,1.227-3.094c-1.17-1.787-3.868-1.822-5.511-2.862
		c3.467-1.675,3.836-0.605,6.984,0.866c1.981,0.836,2.143,0.416,2.37-1.429c0.256-0.57-0.152-1.247,0.104-1.817
		c0.351-0.719,1.287-0.545,1.488-1.359c0.55-2.686-1.22-4.771-2.458-6.287c-2.27-2.693-1.669-3.676,0.882-2.583
		C23.049,69.75,30.065,74.324,30.896,76.315z"/>
	<path fill="#FFFFFF" stroke="#000000" stroke-miterlimit="10" d="M46.604,82.125c3.167,5.208,4.062,2.625,7.562,8.792
		s1.917,6.833,6.5,10.5s3.667,7.833,7.333,10.25s4.968,10.75,7.083,12.5s5.5,2.5,9.167,3.917s4.25-3.667,6.833,0.583
		c2.395,3.939,10.417,0.27,11.167,3.437c0.536,2.262,5.392,6.714,4.583,1.98c-1.666-9.75-3.583-5.167-7.166-13.403
		c-3.001-6.899-2.916-8.207-2.25-12.373s4.333-3.724,4.5-7.891c0.164-4.099,7.947-2.688-3.75-5.833
		c-9.917-2.667-6.168-5.25-11.834-2.583s-1,2.333-7.083,1.167s-7.086-3.294-10.67-3.21c-3.583,0.083,3.67,0.377,0.67,2.627
		s0.833,8.583-3.5,4.333c-4.503-4.416-7.401-6.702-10.771-11.167c-3.208-4.25-2.979-3.585-4.813-5.063S46.604,82.125,46.604,82.125z
		"/>
	<g>
		<g>
			<path d="M48.524,83.006c4.298,3.714,7.322,8.375,10.178,13.242c0.93,1.585,1.782,3.158,2.875,4.636
				c1.286,1.738,3.988,2.588,5.6,4.171c1.921,1.887,4.219,3.403,6.225,5.204c2.073,1.863,3.419,4.355,4.909,6.668
				c1.427,2.214,2.931,4.196,4.89,5.963c1.89,1.704,4.317,2.533,6.156,4.365c0.107,0.106,0.561-0.071,0.451-0.18
				c-3.322-3.309-7.307-4.94-10.136-8.915c-1.644-2.309-2.915-4.712-4.697-6.918c-2.012-2.489-4.944-4.285-7.347-6.367
				c-1.371-1.188-2.402-2.371-4.07-3.114c-2.527-1.125-3.763-4.603-5.101-6.883c-2.61-4.448-5.56-8.663-9.482-12.053
				C48.859,82.727,48.414,82.911,48.524,83.006L48.524,83.006z"/>
		</g>
	</g>
	<g>
		<g>
			<path d="M66.632,98.314c1.83,2.716,3.516,4.989,6.646,6.18c4.294,1.634,10.056,1.022,13.545,4.242
				c1.157,1.068,2.002,3.27,2.938,4.659c0.912,1.354,2.638,2.522,3.876,3.583c1.682,1.439,3.901,0.56,3.715,4.175
				c-0.043,0.835,2.149,1.559,2.259,1.638c0.254,0.185,1.124-0.198,0.902-0.359c-0.913-0.664-2.017-1.298-2.138-2.64
				c-0.045-0.491-0.003-1.35-0.599-1.631c-4.638-2.195-6.309-4.612-9.246-8.67c-2.126-2.936-4.76-3.227-8.146-3.867
				c-6.013-1.136-9.482-2.669-12.851-7.669C67.376,97.72,66.438,98.026,66.632,98.314L66.632,98.314z"/>
		</g>
	</g>
	<g>
		<g>
			<path d="M82.926,113.398c0.851,3.823,4.291,6.305,7.592,8.007c2.232,1.152,4.431,0.865,5.927,3.231
				c1.243,1.964,1.694,4.385,2.814,6.429c0.063,0.114,0.519-0.065,0.482-0.13c-1.48-2.703-1.985-7.711-5.458-8.63
				c-4.518-1.194-9.773-4.083-10.875-9.036C83.387,113.171,82.901,113.291,82.926,113.398L82.926,113.398z"/>
		</g>
	</g>
	<g>
		<g>
			<path d="M73.34,96.359c0.01,2.606,1.942,3.665,4.209,4.361c4.032,1.238,9.04,0.971,11.562,4.963
				c0.098,0.155,0.564-0.01,0.445-0.198c-1.667-2.641-4.488-3.447-7.393-4.131c-3.053-0.719-8.321-0.84-8.337-5.045
				C73.825,96.083,73.34,96.178,73.34,96.359L73.34,96.359z"/>
		</g>
	</g>
	<g>
		<g>
			<path d="M88.315,95.227c2.009,1.914,4.096,3.777,5.714,6.048c0.134,0.188,0.592-0.005,0.441-0.217
				c-1.637-2.297-3.754-4.182-5.786-6.118C88.521,94.784,88.107,95.03,88.315,95.227L88.315,95.227z"/>
		</g>
	</g>
	<g>
		<g>
			<path d="M48.759,80.896c1.999,3.134,5.254,5.108,7.271,8.213c2.183,3.362,3.866,6.638,7.119,9.119
				c0.181,0.139,0.597-0.116,0.369-0.289c-3.195-2.438-5.045-5.65-7.048-9.048c-1.876-3.183-5.278-5.09-7.271-8.213
				C49.075,80.482,48.618,80.674,48.759,80.896L48.759,80.896z"/>
		</g>
	</g>
	<g>
		<g>
			<path d="M66.842,101.398c1.488,3.401,4.857,3.625,7.682,5.44c0.128,0.082,0.55-0.113,0.453-0.176
				c-2.786-1.791-6.179-2.028-7.651-5.393C67.263,101.128,66.792,101.284,66.842,101.398L66.842,101.398z"/>
		</g>
	</g>
	<g>
		<g>
			<path d="M87.842,98.815c0.487,1.915,1.845,3.098,3.479,4.098c0.978,0.599,2.042,1.059,3.075,1.553
				c1.475,0.705,2.5,1.929,3.55,3.137c0.134,0.154,0.594-0.033,0.443-0.206c-1.499-1.726-2.833-2.819-4.897-3.807
				c-2.211-1.057-4.52-2.365-5.167-4.905C88.271,98.478,87.788,98.606,87.842,98.815L87.842,98.815z"/>
		</g>
	</g>
	<g>
		<g>
			<path d="M117.198,81.015c-1.465,0.892-2.602,2.146-4.142,2.944c-0.593,0.307-0.047,0.64,0.387,0.416
				c0.856-0.444,1.666-0.933,2.413-1.545c0.643-0.526,1.231-1.076,1.945-1.511C118.36,80.978,117.519,80.82,117.198,81.015
				L117.198,81.015z"/>
		</g>
	</g>
</g>
<g id="ZZZ">
	
		<text transform="matrix(0.9973 0.0736 -0.0736 0.9973 47.5669 59.7207)" display="none" font-family="'GreekHouseSymbolized'" font-size="6.9196">Z</text>
	
		<text transform="matrix(0.9839 -0.1785 0.1785 0.9839 53.291 57.7207)" display="none" font-family="'GreekHouseSymbolized'" font-size="9.3852">Z</text>
	
		<text transform="matrix(0.964 0.2659 -0.2659 0.964 76.8018 36.4502)" display="none" font-family="'GreekHouseSymbolized'" font-size="23.7924">Z</text>
	
		<text transform="matrix(0.8607 -0.5091 0.5091 0.8607 59.9097 50.7822)" display="none" font-family="'GreekHouseSymbolized'" font-size="14.2595">Z</text>
	
		<text transform="matrix(0.9696 -0.2447 0.2447 0.9696 63.5303 38.2876)" display="none" font-family="'GreekHouseSymbolized'" font-size="15.5441">Z</text>
	<g>
		<g>
			<g>
				<path d="M42.774,51.988c0.946-0.049,1.869-0.099,2.687-0.5c0.217-0.105,0.251-0.383-0.092-0.518
					c-2.526-0.938-2.834,1.417-2.464,2.979c0.239,0.963,0.863,1.872,1.762,2.477c0.465,0.327,0.964,0.418,1.379,0.478
					c0.115,0.016,0.212,0.006,0.319-0.006c0.197-0.022,0.947,0.149,0.551,0.6c-0.296,0.354,0.502,0.724,0.699,0.499
					c0.271-0.302,0.354-1.022-0.161-1.497c-0.582-0.51-1.02-0.337-1.521-0.245c-1.048,0.179-1.924-1.315-2.121-2.374
					c-0.106-0.594-0.182-2.846,0.968-2.389c-0.036-0.17-0.072-0.341-0.108-0.511c-0.666,0.326-1.454,0.343-2.235,0.392
					C41.812,51.407,42.167,52.016,42.774,51.988L42.774,51.988z"/>
			</g>
		</g>
		<g>
			<g>
				<path d="M52.032,47.432c1.144,0.137,2.241,0.272,3.281,0.014c0.348-0.088,0.474-0.478,0.024-0.733
					c-2.641-1.393-3.608,1.106-3.575,2.656c0.051,0.956,0.613,2.081,1.598,2.906c0.427,0.377,0.87,0.592,1.288,0.769
					c0.186,0.079,0.368,0.145,0.546,0.175c-0.007-0.001,1.375,0.327,0.797,0.695c-0.451,0.292,0.319,1.021,0.65,0.806
					c0.453-0.288,0.465-0.851,0.096-1.63c-0.371-0.731-1.047-0.67-1.499-0.703c-3.414-0.359-2.406-6.043-0.557-5.018
					c0.001-0.241,0.003-0.483,0.005-0.725c-0.856,0.216-1.787,0.088-2.73-0.007C51.275,46.566,51.225,47.331,52.032,47.432
					L52.032,47.432z"/>
			</g>
		</g>
		<g>
			<g>
				<path d="M60.5,47.302c1.333,0.304,2.587,0.588,3.843,0.475c0.204-0.02,0.89-0.18,0.443-0.508
					c-2.607-1.757-4.361,0.549-4.716,2.029c-0.185,0.974,0.179,2.232,1.331,3.321c0.466,0.468,1.039,0.812,1.512,1.04
					c0.218,0.105,0.405,0.196,0.612,0.252c0.258,0.07,1.605,0.96,0.883,1.227c-0.539,0.196,0.358,0.713,0.64,0.609
					c0.425-0.156,0.757-0.723,0.269-1.55c-0.484-0.769-1.116-0.693-1.714-0.877c-3.974-1.269-1.872-7.021,0.103-5.667
					c0.142-0.166,0.285-0.333,0.43-0.502c-1.049,0.104-2.105-0.151-3.212-0.385C60.441,46.663,59.577,47.092,60.5,47.302
					L60.5,47.302z"/>
			</g>
		</g>
		<g>
			<g>
				<path d="M67.117,39.97c1.5,0.457,2.902,0.899,4.339,0.912c0.1,0,1.185-0.109,0.805-0.441c-2.524-2.029-5.031-0.045-5.658,1.454
					c-0.362,1.003-0.392,2.185,0.807,3.611c0.497,0.632,1.283,1.178,1.833,1.493c0.25,0.145,0.438,0.247,0.674,0.351
					c0.335,0.147,1.969,1.378,1.059,1.558c-0.618,0.115,0.394,0.663,0.688,0.608c0.567-0.112,0.721-0.592,0.431-1.517
					c-0.283-0.851-1.276-0.967-1.777-1.145c-1.668-0.597-2.827-2.484-2.646-3.967c0.145-0.932,1.539-3.533,3.197-2.194
					c0.262-0.144,0.527-0.29,0.796-0.437c-1.238,0.004-2.437-0.379-3.711-0.75C67.543,39.388,66.291,39.724,67.117,39.97
					L67.117,39.97z"/>
			</g>
		</g>
		<g>
			<g>
				<path d="M64.372,29.609c1.606,0.598,3.082,1.171,4.642,1.308c0.441,0.037,1.265-0.266,0.671-0.851
					c-2.962-2.645-5.875,0.095-6.645,1.745c-0.399,0.969-0.163,2.595,1.174,3.919c0.733,0.773,1.436,1.299,2.213,1.803
					c0.208,0.137,0.414,0.223,0.62,0.317c0.299,0.137,1.599,1.207,0.833,1.269c-0.732,0.049,0.046,1.115,0.609,1.082
					c0.505-0.035,0.984-0.467,0.731-1.398c-0.365-1.259-0.92-1.443-1.85-1.838c-5.801-2.385-1.404-8.514,1.093-6.269
					c0.215-0.28,0.435-0.561,0.659-0.845c-1.458-0.103-2.86-0.643-4.346-1.165C63.959,28.406,63.247,29.202,64.372,29.609
					L64.372,29.609z"/>
			</g>
		</g>
		<g>
			<g>
				<path d="M58.984,26.006c1.836,0.742,3.521,1.463,5.318,1.702c0.174,0.023,1.586-0.027,1.155-0.493
					c-3.027-2.97-6.723-0.142-7.683,1.532c-0.605,1.186-0.261,2.75,1.316,4.37c0.61,0.668,1.502,1.327,2.149,1.677
					c0.302,0.166,0.601,0.309,0.901,0.457c0.272,0.136,1.518,1.707,0.921,1.709c-0.708-0.003-0.487,0.7,0.218,0.71
					c0.472,0.002,1.113-0.002,1.068-0.833c-0.077-1.477-0.77-1.727-1.815-2.226c-6.79-3.046-1.406-9.697,1.308-7.086
					c0.378-0.162,0.762-0.325,1.149-0.491c-1.593-0.192-3.082-0.833-4.678-1.464C59.816,25.378,58.338,25.753,58.984,26.006
					L58.984,26.006z"/>
			</g>
		</g>
		<g>
			<g>
				<path d="M59.913,14.775c2.02,0.894,3.832,1.721,5.816,2.072c0.2,0.036,1.644-0.027,1.244-0.496
					c-2.956-3.165-7.102-0.53-8.391,1.03c-0.75,0.98-1.075,2.832,0.61,4.584c0.867,0.963,1.694,1.613,2.635,2.282
					c0.233,0.169,0.484,0.271,0.717,0.395c0.468,0.141,0.884,0.48,1.24,1.019c0.158,0.419,0.197,0.795,0.124,1.126
					c-0.776-0.053-0.539,0.627,0.222,0.687c0.512,0.036,1.208,0.032,1.184-0.823c-0.039-1.692-0.98-1.951-2.166-2.575
					c-7.238-3.507-0.925-10.532,2.093-7.404c0.408-0.163,0.821-0.328,1.239-0.494c-1.774-0.294-3.383-1.093-5.128-1.853
					C60.851,14.114,59.246,14.49,59.913,14.775L59.913,14.775z"/>
			</g>
		</g>
		<g>
			<g>
				<path d="M68.264,10.445c2.099,1.029,4.001,2.018,6.09,2.488c0.365,0.083,1.811-0.049,1.238-0.779
					c-3.296-3.804-7.996-0.907-9.463,0.939c-0.728,0.987-1.026,2.814,0.492,4.587c0.976,1.214,1.942,2.04,3.076,2.896
					c0.266,0.205,0.532,0.348,0.799,0.503c0.084,0.049,2.652,2.133,1.277,1.976c-0.887-0.11-0.455,1.059,0.392,1.178
					c1.776,0.228,1.615-2.454-0.439-3.682c-9.122-4.831-0.747-11.136,2.072-7.942c0.404-0.256,0.815-0.514,1.231-0.776
					c-1.973-0.413-3.787-1.359-5.737-2.288C68.499,9.18,67.015,9.857,68.264,10.445L68.264,10.445z"/>
			</g>
		</g>
		<g>
			<g>
				<path d="M79.877,8.11c2.324,1.203,4.462,2.388,6.793,2.987c0.409,0.105,1.881-0.051,1.316-0.817
					c-3.412-4.185-8.713-1.155-10.389,0.737c-0.849,1.023-1.234,2.962,0.374,4.893c1.038,1.326,2.091,2.244,3.316,3.201
					c0.28,0.225,0.586,0.39,0.866,0.561c0.438,0.271,2.47,2.286,1.323,2.177c-0.93-0.097-0.473,1.115,0.421,1.222
					c1.024,0.113,1.491-0.381,1.294-1.881c-0.178-1.339-1.323-1.805-2.227-2.342c-9.131-4.89-0.22-12.054,3.114-8.085
					c0.431-0.269,0.868-0.541,1.31-0.814c-2.09-0.505-3.924-1.525-5.977-2.57C80.633,6.994,78.833,7.59,79.877,8.11L79.877,8.11z"/>
			</g>
		</g>
		<g>
			<g>
				<path d="M89.508,7.87c2.489,1.36,4.771,2.688,7.28,3.409c0.47,0.137,1.955-0.06,1.384-0.88
					c-3.537-4.592-9.361-1.401-11.279,0.516c-0.997,1.056-1.445,3.092,0.261,5.195c1.094,1.432,2.228,2.451,3.52,3.525
					c0.292,0.249,0.65,0.438,0.941,0.621c0.104,0.066,2.981,2.641,1.568,2.377c-0.831-0.16-1.053,1.015,0.028,1.247
					c2.14,0.437,2.41-2.441-0.203-4.18c-2.727-1.704-5.936-4.658-4.738-7.33c0.886-1.73,5.331-4.741,7.894-1.454
					c0.454-0.29,0.913-0.582,1.378-0.877c-2.253-0.613-4.215-1.777-6.412-2.961C90.29,6.64,88.382,7.278,89.508,7.87L89.508,7.87z"
					/>
			</g>
		</g>
	</g>
</g>
</svg>
