<?xml version="1.0" encoding="utf-8"?>
<!-- Generator: Adobe Illustrator 15.1.0, SVG Export Plug-In . SVG Version: 6.00 Build 0)  -->
<!DOCTYPE svg PUBLIC "-//W3C//DTD SVG 1.1//EN" "http://www.w3.org/Graphics/SVG/1.1/DTD/svg11.dtd">
<svg version="1.1" id="Layer_1" xmlns="http://www.w3.org/2000/svg" xmlns:xlink="http://www.w3.org/1999/xlink" x="0px" y="0px"
	 width="426.347px" height="173px" viewBox="0 0 426.347 173" enable-background="new 0 0 426.347 173" xml:space="preserve">
<rect x="189.766" y="62.828" fill="#FFFFFF" stroke="#010101" stroke-miterlimit="10" width="9.791" height="67.241"/>
<rect x="172.982" y="62.828" fill="#FFFFFF" stroke="#010101" stroke-miterlimit="10" width="9.79" height="67.241"/>
<rect x="156.197" y="62.828" fill="#FFFFFF" stroke="#010101" stroke-miterlimit="10" width="9.792" height="67.241"/>
<rect x="138.014" y="62.828" fill="#FFFFFF" stroke="#010101" stroke-miterlimit="10" width="9.792" height="67.241"/>
<rect x="119.831" y="75.32" fill="#FFFFFF" stroke="#010101" stroke-miterlimit="10" width="9.792" height="54.749"/>
<rect x="100.25" y="87.733" fill="#FFFFFF" stroke="#010101" stroke-miterlimit="10" width="9.791" height="42.335"/>
<rect x="77.506" y="91.109" fill="#FFFFFF" stroke="#010101" stroke-miterlimit="10" width="9.791" height="38.959"/>
<rect x="231.589" y="62.828" fill="#FFFFFF" stroke="#010101" stroke-miterlimit="10" width="9.79" height="67.241"/>
<rect x="248.372" y="62.828" fill="#FFFFFF" stroke="#010101" stroke-miterlimit="10" width="9.792" height="67.241"/>
<rect x="265.157" y="62.828" fill="#FFFFFF" stroke="#010101" stroke-miterlimit="10" width="9.79" height="67.241"/>
<rect x="283.34" y="62.828" fill="#FFFFFF" stroke="#010101" stroke-miterlimit="10" width="9.791" height="67.241"/>
<rect x="301.522" y="75.32" fill="#FFFFFF" stroke="#010101" stroke-miterlimit="10" width="9.791" height="54.749"/>
<rect x="321.104" y="87.733" fill="#FFFFFF" stroke="#010101" stroke-miterlimit="10" width="9.79" height="42.335"/>
<rect x="343.848" y="91.109" fill="#FFFFFF" stroke="#010101" stroke-miterlimit="10" width="9.79" height="38.959"/>
<rect x="7.09" y="135.621" fill="#FFFFFF" stroke="#010101" stroke-miterlimit="10" width="403.754" height="17.351"/>
<polygon fill="#FFFFFF" stroke="#010101" stroke-miterlimit="10" points="419.172,156.442 210.61,60.25 217.785,25.777 
	426.347,121.969 "/>
<polygon fill="#FFFFFF" stroke="#010101" stroke-miterlimit="10" points="7.175,156.442 215.736,60.25 208.563,25.777 0,121.969 "/>
<rect x="205.946" y="7.225" fill="#FFFFFF" stroke="#010101" stroke-miterlimit="10" width="19.581" height="122.843"/>
</svg>
