<?xml version="1.0" encoding="utf-8"?>
<!-- Generator: Adobe Illustrator 15.1.0, SVG Export Plug-In . SVG Version: 6.00 Build 0)  -->
<!DOCTYPE svg PUBLIC "-//W3C//DTD SVG 1.1//EN" "http://www.w3.org/Graphics/SVG/1.1/DTD/svg11.dtd">
<svg version="1.1" xmlns="http://www.w3.org/2000/svg" xmlns:xlink="http://www.w3.org/1999/xlink" x="0px" y="0px" width="156px"
	 height="155.333px" viewBox="0 0 156 155.333" enable-background="new 0 0 156 155.333" xml:space="preserve">
<g id="Background">
	<circle fill="#EB7125" stroke="#000000" stroke-width="4" stroke-miterlimit="10" cx="78.483" cy="78.798" r="73.983"/>
</g>
<g id="Scroll">
	<g id="handle2">
		<path fill="#523614" stroke="#000000" stroke-miterlimit="10" d="M78.897,46.597c-1.615-0.414-3.956-1.739-4.313-2.018
			c-2.244-1.75-3.906-2.684,1.296-2.813c1.04-0.026,2.606,0.422,4.669,1.194C82.304,43.791,81.021,46.706,78.897,46.597z"/>
		<ellipse fill="#523614" stroke="#000000" stroke-miterlimit="10" cx="83.731" cy="45.521" rx="7.039" ry="9.854"/>
		<ellipse fill="#523614" stroke="#000000" stroke-miterlimit="10" cx="85.294" cy="46.146" rx="7.039" ry="9.854"/>
	</g>
	<polygon fill="#F1F1D5" stroke="#000000" stroke-miterlimit="10" points="73.334,120.667 17.461,101.792 87,50 144.158,66.604 	"/>
	<path fill="#F1F1D5" stroke="#000000" stroke-miterlimit="10" d="M143.965,55.374c0,0,0.375-1.667-56.59-16.708
		C81.27,36.292,76.692,50.792,83.546,53c14.687,4.267,55.761,17.074,55.761,17.074L143.965,55.374z"/>
	<g id="handle1">
		<ellipse fill="#523614" stroke="#000000" stroke-miterlimit="10" cx="140.834" cy="62.5" rx="7.5" ry="10.5"/>
		<ellipse fill="#523614" stroke="#000000" stroke-miterlimit="10" cx="142.5" cy="63.167" rx="7.5" ry="10.5"/>
		<path fill="#523614" stroke="#000000" stroke-miterlimit="10" d="M143.965,61.167c2.098,0.25,5.259,1.522,5.754,1.813
			c3.111,1.822,5.354,2.718-1.156,3.75c-1.303,0.207-3.344-0.094-6.063-0.719C140.156,65.26,141.281,61.385,143.965,61.167z"/>
	</g>
	<g id="handle2_1_">
		<path fill="#523614" stroke="#000000" stroke-miterlimit="10" d="M12.986,99.893c-1.615-0.414-3.956-1.739-4.313-2.018
			c-2.244-1.75-3.906-2.684,1.296-2.813c1.04-0.026,2.606,0.422,4.669,1.194C16.393,97.087,15.109,100.002,12.986,99.893z"/>
		<ellipse fill="#523614" stroke="#000000" stroke-miterlimit="10" cx="17.461" cy="100.271" rx="7.039" ry="9.854"/>
		<ellipse fill="#523614" stroke="#000000" stroke-miterlimit="10" cx="19.025" cy="100.896" rx="7.039" ry="9.854"/>
	</g>
	<path fill="#F1F1D5" stroke="#000000" stroke-miterlimit="10" d="M77.695,110.124c0,0,0.375-1.667-56.59-16.708
		C15,91.042,10.423,105.542,17.276,107.75c14.687,4.267,55.761,17.074,55.761,17.074L77.695,110.124z"/>
	<g id="handle1_1_">
		<ellipse fill="#523614" stroke="#000000" stroke-miterlimit="10" cx="74.564" cy="117.25" rx="7.5" ry="10.5"/>
		<ellipse fill="#523614" stroke="#000000" stroke-miterlimit="10" cx="76.23" cy="117.917" rx="7.5" ry="10.5"/>
		<path fill="#523614" stroke="#000000" stroke-miterlimit="10" d="M77.782,116.02c2.098,0.25,5.259,1.522,5.754,1.813
			c3.111,1.822,5.354,2.718-1.156,3.75c-1.303,0.207-3.344-0.094-6.063-0.719C73.974,120.113,75.099,116.238,77.782,116.02z"/>
	</g>
	<g>
		<g>
			<path d="M79.568,60.034c3.249-0.097,6.204-0.944,9.402-1.459c-0.185-0.38-0.368-0.76-0.553-1.14
				c-0.426,0.3-0.852,0.599-1.277,0.898c-0.699,0.492-0.164,1.207,0.553,1.14c0.775-0.105,1.555-0.141,2.337-0.107
				c-0.278-0.271-0.558-0.541-0.836-0.811c-0.235,0.377-0.47,0.753-0.705,1.13c-0.105,0.168-0.061,0.378,0.038,0.533
				c0.658,1.028-0.344,1.647-0.236,2.937c0.015,0.176,0.253,0.353,0.407,0.389c1.293,0.306,2.24,1.048,3.429,1.391
				c1.931,0.557,5.994,0.266,7.449,1.272c1.162,0.804,2.381,0.927,3.775,1.053c3.227,0.291,5.339,0.813,8.152,2.446
				c1.615,0.938,2.561,1.045,3.578,2.7c0.351,0.57,2.603,0.691,2.614,0.752c0.484,2.493,8.12,2.417,9.751,2.541
				c0.938,0.071,1.979-1.297,0.672-1.396c-1.705-0.13-8.177-0.044-8.587-2.155c-0.075-0.387-0.571-0.444-0.879-0.444
				c-1.954,0.001-2.321-0.908-3.192-2.214c-0.43-0.645-2.839-1.111-3.363-1.416c-1.984-1.153-3.507-1.917-5.88-2.1
				c-2.788-0.215-4.778-1.482-7.479-1.71c-1.505-0.127-9.122-0.669-7.74-3.671c0.109-0.237,0.055-0.521-0.178-0.664
				c-0.244-0.44-0.171-0.826,0.22-1.158c0.349-0.559-0.452-0.813-0.836-0.811c-0.782-0.034-1.562,0.001-2.337,0.107
				c0.185,0.38,0.368,0.76,0.553,1.14c0.426-0.3,0.852-0.599,1.277-0.898c0.671-0.472,0.184-1.258-0.553-1.14
				c-3.15,0.507-6.193,1.364-9.402,1.459C78.646,58.661,78.252,60.073,79.568,60.034L79.568,60.034z"/>
		</g>
	</g>
	<g>
		<g>
			<path d="M70.795,66.869c7.804,1.298,16.037,2.424,23.96,2.564c0.424,0.007,2.058-0.749,0.996-0.968
				c-5.181-1.067-14.681-2.514-19.481,0.715c-0.344,0.231-0.201,0.529,0.157,0.589c1.014,0.365,2.024,0.379,3.033,0.041
				c-0.347,0.104-1.392,0.731-0.493,0.894c0.482-0.01,0.906,0.137,1.27,0.439c0.021,0.154,0.25,0.194,0.361,0.219
				c5.203,1.123,10.74,1.541,15.269,4.19c0.431,0.252,2.148-0.46,1.679-0.794c-0.049-0.035-0.098-0.07-0.147-0.105
				c-0.502,0.279-1.004,0.559-1.506,0.838c0.654,0.146,1.373,0.37,1.971,0.681c0.46-0.304,0.921-0.607,1.382-0.911
				c-0.113-0.023-0.226-0.046-0.338-0.07c-0.403,0.318-0.806,0.637-1.209,0.955c1.881,0.375,3.734,0.52,5.642,0.683
				c0.157-0.718-0.234-0.891-1.173-0.518c-1.092-0.019-2.177-0.055-3.269-0.038c-0.415,0.006-2.058,0.852-0.996,0.968
				c1.937,0.211,3.845,0.534,5.769,0.831c2.249,0.348,4.242,0.389,6.307,0.33c-0.396,0.012-2.074,0.809-0.996,0.968
				c2.688,0.396,5.388,0.655,8.066,1.108c0.537,0.09,2.267-0.776,1.209-0.955c-2.679-0.453-5.38-0.712-8.066-1.108
				c-0.332,0.323-0.664,0.645-0.996,0.968c0.854-0.025,1.377-0.073,2.187-0.25c0.379-0.083,1.368-0.736,0.493-0.894
				c-4.224-0.761-8.496-1.486-12.763-1.952c-0.332,0.323-0.664,0.645-0.996,0.968c2.447-0.038,5.045,0.392,7.435-0.264
				c0.34-0.093,1.396-0.76,0.493-0.894c-2.383-0.352-4.771-0.432-7.136-0.904c-0.534-0.106-2.269,0.736-1.209,0.955
				c0.113,0.023,0.226,0.046,0.338,0.069c0.369,0.076,2.161-0.505,1.382-0.911c-0.711-0.371-1.535-0.595-2.317-0.769
				c-0.273-0.061-2.045,0.455-1.506,0.838c0.05,0.035,0.099,0.07,0.148,0.105c0.56-0.265,1.119-0.529,1.679-0.794
				c-0.504-0.489-1.008-0.977-1.512-1.466c-0.008-0.151-0.263-0.198-0.361-0.219c-1.536-0.318-13.163-0.891-13.438-2.776
				c-0.021-0.148-0.251-0.202-0.362-0.219c-1.669-0.244-1.516,1.063-0.511-0.246c0.195-0.254-0.029-0.433-0.286-0.464
				c-4.681-0.578,2.198-0.729,3.274-0.791c3.464-0.198,6.932,0.218,10.317,0.916c0.332-0.323,0.664-0.645,0.996-0.968
				c-7.761-0.137-15.887-1.266-23.535-2.539C71.467,65.824,69.737,66.692,70.795,66.869L70.795,66.869z"/>
		</g>
	</g>
	<g>
		<g>
			<g>
				<path d="M68.558,70.166c-0.554,1.85-2.632,3.442-4.315,4.218c-0.906,0.418-0.091,1.101,0.62,0.772
					c2.087-0.963,4.473-2.841,5.157-5.124C70.209,69.401,68.732,69.583,68.558,70.166L68.558,70.166z"/>
			</g>
		</g>
		<g>
			<g>
				<path d="M68.584,70.493c0.35-0.226,1.649,0.416,2.041,0.526c0.735,0.206,0.879,0.373,0.537,1.104
					c-0.35,0.749,1.114,0.74,1.385,0.162c0.211-0.452,0.442-0.997,0.188-1.478c-0.243-0.46-0.807-0.624-1.271-0.76
					c-1.275-0.376-2.598-1.012-3.838-0.209c-0.259,0.167-0.366,0.548-0.08,0.744C67.862,70.797,68.29,70.683,68.584,70.493
					L68.584,70.493z"/>
			</g>
		</g>
		<g>
			<g>
				<path d="M65.925,73.021c-0.342-0.08-0.403-0.057-0.184,0.07c0.117,0.097,0.22,0.217,0.329,0.324
					c0.251,0.246,0.574,0.411,0.9,0.534c0.646,0.243,1.353,0.167,2.025,0.114c0.721-0.056,1.195-0.9,0.192-0.822
					c-0.425,0.033-0.839,0.082-1.248-0.072c-0.403-0.151-0.646-0.476-0.964-0.741c-0.573-0.475-1.405-0.24-1.954,0.145
					C64.217,73.136,65.459,73.347,65.925,73.021L65.925,73.021z"/>
			</g>
		</g>
		<g>
			<g>
				<path d="M74.029,73.253c-0.478,0.365-0.892,0.824-1.342,1.222c-0.317,0.28-0.646,0.55-0.995,0.788
					c-0.117,0.079-0.245,0.17-0.377,0.221c0.543-0.21,0.318,0.062,0.146-0.316c-0.155-0.338-1.554,0.159-1.449,0.389
					c0.46,1.005,2.168,0.125,2.784-0.272c0.946-0.609,1.656-1.479,2.542-2.155c0.269-0.206-0.239-0.226-0.337-0.217
					C74.665,72.944,74.301,73.046,74.029,73.253L74.029,73.253z"/>
			</g>
		</g>
		<g>
			<g>
				<path d="M75.293,73.723c-1.002,0.493-2.532,1.095-2.519,2.425c0.025,0.069,0.074,0.117,0.145,0.143
					c0.621,0.192,1.25,0.127,1.845-0.131c0.149-0.064,0.628-0.321,0.396-0.548c-0.224-0.218-0.71-0.101-0.954,0.005
					c-0.042,0.04-0.084,0.04-0.126,0c0.048,0.048,0.097,0.095,0.145,0.143c-0.01-0.916,1.291-1.326,1.956-1.653
					c0.193-0.095,0.442-0.396,0.137-0.528C75.989,73.437,75.59,73.577,75.293,73.723L75.293,73.723z"/>
			</g>
		</g>
		<g>
			<g>
				<path d="M73.64,73.323c0.081-0.101,0.171-0.248,0.289-0.313c-0.179,0.098-0.129,0.035,0.063,0.154
					c0.303,0.187,0.566,0.44,0.85,0.654c0.672,0.505,1.459,0.663,2.27,0.438c0.887-0.247,0.636-1.194-0.254-0.946
					c-0.687,0.191-1.391-0.779-1.946-1.076c-0.909-0.486-1.874-0.054-2.475,0.694C71.864,73.64,73.246,73.813,73.64,73.323
					L73.64,73.323z"/>
			</g>
		</g>
		<g>
			<g>
				<path d="M76.854,75.252c-0.509,0.655-1.094,1.181-1.814,1.595c0.333,0.073,0.666,0.146,1,0.218
					c0.906-0.597,1.829-1.149,2.948-1.115c-0.14-0.079-0.28-0.158-0.42-0.237c-0.339,0.824-1.407,1.307-1.898,2.053
					c-0.744,1.13,1.444,0.845,1.94,0.772c0.253-0.037,0.736-0.158,0.837-0.44c0.102-0.286-0.479-0.238-0.601-0.22
					c-0.087,0.013-0.918,0.196-0.883-0.042c0.043-0.296,0.419-0.585,0.615-0.78c0.473-0.469,1.166-0.929,1.427-1.564
					c0.093-0.225-0.311-0.234-0.42-0.237c-1.735-0.052-3.27,0.748-4.681,1.677c-0.152,0.101-0.24,0.303-0.02,0.38
					c0.31,0.108,0.746-0.005,1.02-0.162c0.888-0.511,1.649-1.131,2.279-1.942C78.529,74.764,77.099,74.938,76.854,75.252
					L76.854,75.252z"/>
			</g>
		</g>
	</g>
	<g>
		<g>
			<path d="M81.999,79.427c3.476-1.268,7.019-0.833,10.436-2.333c-0.26-0.285-0.52-0.569-0.779-0.854
				c-1.378,0.671-2.449,1.35-3.557,2.413c-0.678,0.65,0.488,0.787,0.918,0.694c1.788-0.387,3.257-0.952,4.918-1.753
				c-0.431-0.154-0.862-0.309-1.293-0.462c-0.111,0.167-0.223,0.333-0.333,0.5c-0.13,0.195-0.067,0.413,0.139,0.519
				c1.022,0.522,1.751,0.665,1.464,1.963c-0.073,0.329,0.351,0.467,0.599,0.461c1.904-0.039,0.985,0.615,0.401,2.205
				c-0.119,0.325,0.39,0.461,0.599,0.461c1.986,0,1.689,2.603,3.875,3.312c3.238,1.05,6.811-1.086,10.074-0.173
				c0.649,0.182,2.28-0.782,1.172-1.093c-3.251-0.91-12.005,2.5-11.618-2.733c0.025-0.334-0.311-0.461-0.599-0.461
				c-1.65,0.365-1.806-0.376-0.466-2.224c0.237-0.519-0.377-0.651-0.779-0.6c-1.109,0.262-1.438-0.032-0.989-0.881
				c0.058-0.259-0.186-0.368-0.382-0.434c-0.45-0.25-0.899-0.501-1.35-0.751c0.478-0.716-0.994-0.606-1.293-0.462
				c-1.381,0.761-2.852,1.287-4.414,1.58c0.306,0.231,0.612,0.462,0.918,0.694c0.925-0.64,1.851-1.28,2.775-1.92
				c1.212-0.59,0.106-1.243-0.779-0.854c-3.35,1.471-7.012,1.084-10.436,2.333C79.953,79.035,81.105,79.752,81.999,79.427
				L81.999,79.427z"/>
		</g>
	</g>
	<g>
		<g>
			<path d="M55.213,78.756c1.305-0.539,2.692-0.792,4-1.333c-0.499,0.031-0.997,0.061-1.496,0.092
				c-0.507,0.716-1.736,2.224-0.99,3.148c0.542,0.671,1.925,0.436,2.643,0.339c2.481-0.333,4.87-1.317,7.177-2.246
				c1.173-0.472-0.675-0.348-1.094-0.18c-1.568,0.631-3.155,1.264-4.808,1.638c-2.892,0.654-2.233-1.363-1.029-3.063
				c0.212-0.3-1.381,0.044-1.496,0.092c-1.305,0.539-2.692,0.792-4,1.333C52.95,79.06,54.795,78.929,55.213,78.756L55.213,78.756z"
				/>
		</g>
	</g>
</g>
<g id="quill">
	<g>
		<path fill="#ABAAA8" d="M52.472,50.83c-0.494-0.456-0.884-0.771-1.303-1.042c-0.383-0.712-0.941-1.194-1.575-1.653
			c-0.037-0.726-0.5-1.424-1.622-1.938c-0.926-0.321-1.743-0.813-2.455-1.47c0.374-1.417,0.078-2.852-1.503-3.866
			c-3.492-2.239-6.711-6.336-9.894-9.103c-1.808-1.571-3.112-3.635-4.898-5.179c-2.084-1.801-4.425-3.282-6.591-4.988
			c-4.186-3.298-6.869-6.933-9.93-11.223c-2.074-2.906-9.425,0.125-7.067,3.429c2.109,2.956,3.771,5.956,6.481,8.416
			c2.704,2.455,5.61,4.751,8.58,6.873c3.213,2.295,5.813,5.729,8.833,8.354c0.768,0.667,7.812,7.996,8.479,7.054
			c-0.593,0.837-1.051,1.962-0.292,2.887c1.12,1.365,2.206,2.205,3.493,2.934c0.14,0.341,0.372,0.685,0.736,1.021
			c1.904,1.761,2.122,1.728,4.583,4C49.094,57.705,55.791,53.894,52.472,50.83z"/>
		<path fill="#ABAAA8" d="M56.444,60.681c-0.64-0.631-1.039-1.429-1.65-2.083c-0.564-0.605-1.279-1.059-1.853-1.66
			c-1.142-1.195-1.228-2.855-3.136-3.239c-0.956-0.193-2.036-0.014-2.732,0.732c-0.55,0.589-0.426,1.526,0.457,1.704
			c1,0.202,1.4,1.963,2.077,2.672c0.5,0.523,1.101,0.942,1.634,1.43c0.654,0.6,1.014,1.456,1.65,2.083
			C54.041,63.455,57.704,61.923,56.444,60.681z"/>
		<g>
			<path fill="#ABAAA8" d="M57.707,66.219c-3.061-8-4.463-17.271-8.288-25.104c-2.295-4.667-5.101-9.333-8.033-13.5
				c-2.678-3.833-5.483-8.667-8.671-11.833c1.147,2.833,8.049,14.375,8.687,17.375C34.771,21.323,26.1,8.51,15.389,8.844
				c5.355,2,11.253,9.917,14.823,15.75C20.027,10.219,11.372,6.781,3.626,11.219c5.116,1.813,10.711,7.75,15.445,11
				c3.315,2.167,2.939,0.763,6.254,3.097"/>
			<g>
				<path d="M58.19,66.089c-3.245-8.846-4.805-18.191-9.072-26.659c-4.152-8.241-9.625-17.111-15.953-23.832
					c-0.172-0.183-1.057,0.029-0.933,0.312c2.555,5.853,6.994,11.178,8.687,17.375c0.322-0.086,0.644-0.172,0.966-0.259
					C36.322,23.19,28.51,8.791,15.583,8.59c-0.143-0.002-0.984,0.297-0.581,0.476c5.344,2.363,9.081,7.381,12.362,12.025
					c0.285,0.42,0.569,0.84,0.853,1.261c0.411,1.47,0.851,1.64,1.32,0.507c-1.035-1.428-2.165-2.78-3.302-4.126
					c-1.872-2.214-3.996-4.185-6.291-5.948C14.903,8.911,8.938,8.109,3.332,11.096c-0.121,0.064-0.302,0.259-0.093,0.345
					c4.558,1.873,8.225,5.27,11.984,8.365c3.091,2.545,6.401,3.574,9.653,5.692c0.271,0.177,1.134-0.213,0.9-0.365
					c-3.21-2.092-6.562-3.209-9.653-5.692c-3.532-2.837-6.863-5.875-10.92-7.955c0.109-1.066,0.772-1.564,1.987-1.492
					c1.706-0.5,3.441-0.362,5.149-0.063c2.452,0.43,4.706,1.827,6.705,3.22c4.319,3.009,7.666,7.416,10.718,11.626
					c0.173,0.239,1.094-0.055,0.9-0.365c-2.453-3.93-5.143-7.643-8.32-11.022c-1.303-1.386-2.776-2.558-4.339-3.632
					c-2.617-1.798,1.791,0.034,2.951,0.474c9.308,3.528,15.395,14.975,19.964,23.054c0.154,0.273,1.053,0.06,0.966-0.259
					c-1.084-3.97-3.585-7.713-5.534-11.299c-0.91-1.672-1.822-3.343-2.678-5.044c-0.763-1.516,0.369,1.258,0.664,1.609
					c1.429,1.698,2.638,3.596,3.87,5.437c4.429,6.614,8.95,13.145,12.059,20.514c3.003,7.119,4.301,14.857,6.959,22.104
					C57.339,66.661,58.294,66.374,58.19,66.089L58.19,66.089z"/>
			</g>
		</g>
		<g>
			<path fill="#ABAAA8" d="M55.667,65.281c-2.933-4.167-6.121-7.667-9.819-10.5c-3.315-2.667-8.958-8.271-12.528-10.438
				c3.491,0,10.615,6.188,13.293,7.688c-1.275-0.667-5.977-5.5-7.794-6.625c-1.55-0.96-3.204-2.667-4.734-3.5
				c-2.55-1.667-1.243-1.875-5.595-5.188c-3.806-2.897-7.093-6.875-11.428-7.875c3.289,0.831,13.724,5.875,15.875,7
				c-7.268-4.938-18.17-8.563-25.438-14.688c2.439,1.375,3.778,1.313,8.75,3.563C6.16,19.656,5.013,14.594,4.869,12.156"/>
			<g>
				<path d="M56.11,65.072c-4.813-6.648-11.061-11.599-17.192-16.963c-1.38-1.208-2.808-2.349-4.291-3.428
					c0.83,0.604,2.595,1.519,3.735,2.209c2.728,1.654,5.151,3.761,7.877,5.414c0.343,0.208,1.206-0.247,0.748-0.545
					c-3.237-2.112-5.799-5.212-8.973-7.46c-3.782-2.679-6.792-5.969-10.402-8.853c-2.482-1.984-4.686-4.16-7.424-5.812
					c-2.783-1.678-0.254,0.434-2.795-0.297c0.841,0.242,1.658,0.592,2.47,0.913c4.327,1.705,8.566,3.742,12.7,5.867
					c0.334,0.172,1.221-0.236,0.748-0.545c-6.061-3.962-12.799-6.72-19.078-10.302c-1.361-0.776-2.66-1.646-3.953-2.53
					c-0.354-0.242-3.768-1.53-1.547-0.521c2.348,1.067,4.866,1.78,7.235,2.817c0.317,0.139,1.104-0.353,0.655-0.589
					c-4.96-2.622-10.767-6.257-11.271-12.419c-0.035-0.425-1.003-0.195-0.966,0.259c0.278,3.4,2.199,5.97,4.637,8.243
					c0.715,0.667,1.517,1.22,2.303,1.797c0.449,0.294,0.898,0.589,1.347,0.883c0.732,0.984,1.508,1.158,2.328,0.523
					c-2.351-1.029-4.852-1.65-7.128-2.849c-0.329-0.173-1.201,0.181-0.748,0.545c7.335,5.902,16.285,9.053,24.262,13.918
					c1.652,0.225,1.959,0.129,0.922-0.285c-0.495-0.247-0.992-0.491-1.489-0.732c-1.334-0.652-2.678-1.283-4.023-1.911
					c-3.066-1.433-6.191-2.953-9.452-3.892c-0.395-0.114-1.146,0.452-0.563,0.634c5.145,1.6,11.542,6.981,14.911,11.197
					c2.271,2.842,5.995,4.543,8.755,6.91c1.631,1.398,3.164,2.908,4.794,4.307c0.82,0.705,1.56,0.097,0.456-0.64
					c-0.875-0.584-1.719-1.22-2.572-1.835c-2.834-2.045-6.032-4.712-9.636-5.096c-0.258-0.028-0.975,0.332-0.544,0.613
					c3.885,2.538,7.229,5.829,10.697,8.889c4.288,3.783,8.209,7.328,11.581,11.985C55.473,65.834,56.396,65.466,56.11,65.072
					L56.11,65.072z"/>
			</g>
		</g>
		<path d="M63.901,76.356c-0.023-0.015-0.048-0.028-0.071-0.043c0,0,0,0,0.001-0.001c-1.453-0.871-2.705-3.546-3.148-5.475
			c-0.068-0.246-0.524-0.174-0.831,0.005c-0.086-0.417-0.199-0.816-0.38-1.171c-0.202-0.396-1.228,0.153-1.109,0.389
			c0.696,1.366,0.498,3.104,1.282,4.422c0.738,1.239,2.191,1.714,3.216,2.392c0.002-0.001,0.004-0.002,0.006-0.003
			c0.022,0.014,0.042,0.035,0.063,0.048C63.193,77.075,64.103,76.489,63.901,76.356z"/>
		<g>
			<g>
				<path d="M11.117,17.2c9.354,6.154,19.086,11.167,26.419,19.825c4.952,5.847,9.042,12.667,13.172,19.105
					c3.807,5.933,6.952,12.406,8.33,19.346c0.041,0.204,0.29,0.318,0.474,0.333c2.314,0.19,3.483,2.904,5.924,2.878
					c0.425-0.004,1.143-0.553,0.622-0.949c-2.585-1.968-4.396-6.144-6.089-8.832c-1.949-3.094-3.927-6.205-5.654-9.431
					c-0.306-0.572-1.687-0.035-1.326,0.639c1.9,3.549,4.096,6.957,6.24,10.361c1.595,2.532,3.277,6.245,5.714,8.101
					c0.208-0.316,0.415-0.633,0.622-0.949c-0.82,0.008-5.064-2.515-5.243-3.275c-0.575-2.445-1.043-5.306-2.191-7.555
					c-4.6-9.005-9.941-17.48-15.707-25.784c-7.9-11.379-18.913-17.229-30.19-24.648C11.698,16.01,10.428,16.746,11.117,17.2
					L11.117,17.2z"/>
			</g>
		</g>
	</g>
</g>
</svg>
