<?xml version="1.0" encoding="utf-8"?>
<!-- Generator: Adobe Illustrator 15.1.0, SVG Export Plug-In . SVG Version: 6.00 Build 0)  -->
<!DOCTYPE svg PUBLIC "-//W3C//DTD SVG 1.1//EN" "http://www.w3.org/Graphics/SVG/1.1/DTD/svg11.dtd">
<svg version="1.1" id="Layer_1" xmlns="http://www.w3.org/2000/svg" xmlns:xlink="http://www.w3.org/1999/xlink" x="0px" y="0px"
	 width="1672.439px" height="1307px" viewBox="0 0 1672.439 1307" enable-background="new 0 0 1672.439 1307" xml:space="preserve">
<radialGradient id="SVGID_1_" cx="779.75" cy="636.3428" r="638.9003" gradientTransform="matrix(-4.371139e-008 -1 2.5 -1.092785e-007 -811.1069 1416.0928)" gradientUnits="userSpaceOnUse">
	<stop  offset="0.1091" style="stop-color:#27AAE1"/>
	<stop  offset="0.4014" style="stop-color:#A8DDF3"/>
	<stop  offset="0.5939" style="stop-color:#FFFFFF"/>
</radialGradient>
<rect fill="url(#SVGID_1_)" width="1672.439" height="684.452"/>
<g>
	<path fill="#FFFFFF" d="M232.398,567.054c12.008-1.988,28.96-0.663,42.381-0.663c19.071,0,38.143,0.332,57.214,0.332
		c8.476,0,26.841-1.657,34.612,0c16.246,3.314-8.476,4.972-11.303,8.618c10.596,3.646,33.905-0.663,46.62-0.994
		c19.072-0.663,33.905,0.331,52.27,2.32c-33.905,6.299-81.23,5.636-117.254,6.961c-9.889,0.332-19.072,1.658-28.254,1.989
		c-2.825,0-9.182,0.663-11.301-0.331c-7.064-2.32,0.706-2.983-0.707-5.304c-4.238-8.619-36.73-2.984-50.151-2.652
		c-12.008,0.331-23.31-3.315-24.016-9.613L232.398,567.054z"/>
	<g>
		<path d="M232.207,567.369c16.304-2.491,33.395-0.658,49.829-0.598c17.812,0.065,35.696,0.791,53.501,0.228
			c6.331-0.2,12.651-0.583,18.987-0.646c5.131-0.052,11.337-0.254,16.047,2.148c2.017,1.028-2.684,2.192-3.263,2.354
			c-1.872,0.521-3.764,0.971-5.64,1.476c-2.342,0.631-5.496,1.262-7.234,3.105c-0.034,0.035-0.183,0.18-0.044,0.223
			c9.113,2.855,19.51,1.383,28.834,0.529c13.405-1.228,26.636-1.932,40.112-1.496c7.562,0.244,15.108,0.846,22.638,1.563
			c1.845,0.176,3.688,0.37,5.531,0.563c3.366,0.352-0.427,0.118-1.428,0.286c-3.933,0.658-7.889,1.17-11.848,1.644
			c-14.251,1.704-28.614,2.43-42.95,2.966c-14.031,0.525-28.072,0.752-42.109,1.09c-14.671,0.354-29.208,1.822-43.852,2.451
			c-2.404,0.103-4.815,0.2-7.221,0.215c-0.915,0.005-8.66-0.926-6.104-3.102c1.949-1.658,2.258-2.629,0.1-4.477
			c-5.231-4.478-16.04-3.15-22.249-2.878c-7.819,0.343-15.598,1.27-23.404,1.8c-7.5,0.509-25.007,0.687-26.965-9.354
			c-0.465,0.203-0.93,0.406-1.394,0.61c3.296-0.222,6.592-0.442,9.889-0.663c0.462-0.031,2.124-0.788,0.856-0.703
			c-3.296,0.222-6.592,0.442-9.889,0.663c-0.21,0.015-1.466,0.242-1.394,0.61c1.709,8.768,15.756,9.604,22.637,9.738
			c8.28,0.161,16.642-1.214,24.891-1.774c7.529-0.512,18.617-2.063,25.195,2.586c3.446,2.436-0.405,3.005-0.857,5.252
			c-0.456,2.266,7.632,2.417,8.725,2.411c12.935-0.076,25.804-1.932,38.729-2.353c13.141-0.429,26.288-0.624,39.431-0.969
			c24.598-0.645,49.445-1.471,73.707-5.885c0.135-0.024,1.577-0.605,0.99-0.668c-13.057-1.398-26.119-2.418-39.256-2.531
			c-11.623-0.1-23.013,0.945-34.57,1.964c-6.247,0.55-12.551,0.962-18.814,0.457c-1.045-0.085-6.793-0.739-5.27-1.694
			c1.61-1.008,3.727-1.4,5.538-1.888c1.034-0.278,11.193-2.079,10.352-4.251c-0.661-1.707-6.062-2.11-7.386-2.307
			c-4.588-0.684-9.352-0.478-13.969-0.368c-12.27,0.29-24.46,0.675-36.744,0.587c-15.287-0.11-30.588-0.041-45.872-0.333
			c-12.122-0.232-24.373-1.051-36.411,0.788C231.846,566.853,230.841,567.577,232.207,567.369z"/>
	</g>
</g>
<g>
	<path fill="#FFFFFF" d="M1450.371,626.557c-12.055,1.699-28.97-0.036-42.386-0.361c-19.065-0.461-38.123-1.254-57.189-1.715
		c-8.475-0.206-26.873,1.008-34.602-0.837c-16.161-3.707,8.595-4.766,11.508-8.342c-10.505-3.902-33.911-0.158-46.63-0.135
		c-19.083,0.201-33.889-1.15-52.199-3.583c34.046-5.478,81.344-3.67,117.389-4.124c9.895-0.093,19.106-1.196,28.295-1.306
		c2.823,0.068,9.195-0.44,11.29,0.605c7.005,2.49-0.779,2.966,0.578,5.319c4.028,8.718,36.646,3.87,50.07,3.863
		c12.014-0.04,23.224,3.879,23.776,10.191L1450.371,626.557z"/>
	<g>
		<path d="M1450.535,626.142c-16.366,2.1-33.386-0.133-49.823-0.591c-17.503-0.488-35.041-1.553-52.552-1.533
			c-6.255,0.007-12.505,0.258-18.761,0.215c-5.43-0.036-12.212,0.155-17.142-2.512c-1.816-0.983,2.679-1.95,3.368-2.124
			c1.884-0.476,3.786-0.879,5.674-1.338c2.398-0.584,5.475-1.169,7.285-2.999c0.146-0.148,0.086-0.3-0.098-0.362
			c-9.424-3.205-20.449-1.794-30.162-1.116c-13.518,0.942-26.877,1.17-40.424,0.326c-7.025-0.438-14.028-1.18-21.016-2.017
			c-1.84-0.221-3.678-0.459-5.516-0.695c-0.412,0.126-0.823,0.253-1.235,0.379c0.965-0.147,1.931-0.289,2.897-0.423
			c3.946-0.563,7.913-0.984,11.881-1.361c13.787-1.312,27.659-1.705,41.5-1.912c14.073-0.21,28.149-0.103,42.223-0.094
			c14.607,0.009,29.092-0.899,43.678-1.355c2.941-0.092,5.911-0.132,8.853-0.078c1.061,0.02,8.795,1.135,5.637,3.354
			c-2.035,1.431-1.56,2.777,0.169,4.329c4.97,4.468,15.084,3.554,21.17,3.481c8.166-0.098,16.304-0.895,24.459-1.25
			c7.482-0.326,24.996-0.135,26.705,9.928c0.457-0.233,0.914-0.466,1.37-0.699c-3.3,0.141-6.6,0.282-9.9,0.423
			c-0.572,0.024-2.098,0.936-0.809,0.881c3.3-0.141,6.6-0.282,9.9-0.423c0.292-0.013,1.452-0.216,1.37-0.699
			c-1.499-8.822-15.537-10.048-22.418-10.349c-8.274-0.361-16.667,0.8-24.93,1.161c-7.481,0.327-18.668,1.643-25.106-3.144
			c-3.696-2.748,1.763-3.551,0.992-5.203c-1.236-2.65-6.293-2.643-8.686-2.688c-12.496-0.229-24.96,1.274-37.453,1.399
			c-13.088,0.13-26.179,0.008-39.268,0.023c-25.104,0.03-50.475,0.188-75.332,4.093c-0.307,0.049-1.766,0.722-0.779,0.852
			c13.567,1.786,27.149,3.146,40.835,3.513c11.492,0.309,22.804-0.569,34.259-1.251c5.832-0.348,11.698-0.521,17.518,0.09
			c0.802,0.084,7.123,0.767,4.342,1.945c-1.563,0.662-3.278,1.022-4.923,1.423c-1.117,0.271-11.27,1.739-10.412,4.125
			c0.591,1.643,5.308,2.182,6.571,2.401c4.465,0.775,9.017,0.825,13.537,0.856c12.668,0.086,25.272-0.099,37.946,0.299
			c15.279,0.48,30.578,0.78,45.85,1.442c12.108,0.525,24.351,1.656,36.427,0.107C1451.04,626.864,1451.89,625.968,1450.535,626.142z
			"/>
	</g>
</g>
<g>
	<path fill="#FFFFFF" d="M912.563,548.883c14.514-6.831,37.567-5.55,53.79-7.685c31.591-3.841,64.463-5.549,96.48-2.135
		c27.322,2.988,54.646,3.416,81.967,5.123c13.662,0.854,35.435-1.279,47.813,3.843c-6.829,2.134-26.896,0.427-30.737,8.111
		c7.687,5.55,33.727,1.281,43.118,1.281c9.82,0,19.639,0.427,29.458,1.707c5.976,0.427,20.491-0.427,24.333,5.123
		c-5.977,5.551-21.345,2.988-29.03,2.561c-10.673-0.854-20.064-2.987-30.737-0.427c-13.233,2.989-26.469,4.696-40.129,6.404
		c-13.234,2.135-25.188,1.708-36.714,7.685c-5.977-16.649,28.702-9.156,32.545-15.134c-8.111-6.829-46.663,0.617-26.245-7.017
		c12.022-4.496-29.543,0.526-87.956,11.798c1.279-0.855,30.059-5.9,25.544-11.271c-14.94-2.135-20.731-3.137-36.101-2.283
		c-15.369,0.854-29.883-0.854-45.253-3.414L912.563,548.883z"/>
	<g>
		<path d="M912.977,549.397c9.275-4.162,19.617-5.042,29.642-5.762c10.453-0.75,20.821-1.507,31.239-2.664
			c26.216-2.912,52.671-4.029,79-2.129c12.983,0.938,25.903,2.473,38.903,3.271c13.002,0.799,26.021,1.308,39.031,1.962
			c10.665,0.536,21.233,0.979,31.911,1.006c9.748,0.024,20.131-0.018,29.343,3.56c0.136-0.406,0.271-0.812,0.406-1.217
			c-9.015,2.523-25.875-0.981-31.491,8.635c-0.132,0.226-0.045,0.475,0.164,0.611c5.02,3.273,11.974,3.012,17.71,2.96
			c7.916-0.071,15.783-1.07,23.681-1.489c11.49-0.609,22.774,1.387,34.193,1.757c3.87,0.125,7.723,0.203,11.57,0.672
			c2.435,0.298,4.815,0.877,7.033,1.935c3.551,1.694,1.436,2.673-1.265,3.582c-8.318,2.8-19.092,0.573-27.662-0.271
			c-5.425-0.534-10.866-1.382-16.332-1.301c-5.813,0.087-11.205,1.317-16.87,2.474c-13.049,2.663-26.339,4.202-39.538,5.903
			c-10.962,1.413-21.807,2.103-31.883,7.069c0.46,0.085,0.919,0.171,1.379,0.256c-5.433-16.698,26.448-6.826,32.377-14.63
			c0.21-0.277,0.255-0.545-0.046-0.774c-3.502-2.678-8.642-2.908-12.858-3.174c-5.356-0.337-10.723-0.055-16.082-0.175
			c-1.337-0.03-4.007,0.198-1.618-0.99c1.777-0.885,3.733-1.373,5.488-2.296c1.004-0.527,1.678-1.608,0.179-1.978
			c-2.665-0.655-5.912-0.033-8.583,0.205c-6.41,0.571-12.795,1.466-19.164,2.376c-20.917,2.989-41.73,6.745-62.477,10.736
			c0.191,0.374,0.383,0.747,0.575,1.12c3.026-1.518,30.608-5.666,26.02-12.196c-0.674-0.959-4.637-0.83-5.752-0.989
			c-2.904-0.414-5.811-0.805-8.725-1.14c-5.672-0.651-11.358-0.775-17.062-0.631c-16.455,0.416-32.157-0.256-48.439-2.865
			c-10.631-1.703-21.814-1.493-32.549-2.128c-13.268-0.786-26.536-1.571-39.805-2.356c-0.57-0.034-1.141-0.067-1.71-0.102
			c-0.876-0.052-2.005,1.229-0.695,1.307c23.239,1.375,46.478,2.751,69.716,4.127c8.382,0.496,16.677,2.374,25.058,3.131
			c13.638,1.233,27.22-0.537,40.837,0.447c2.711,0.196,5.412,0.537,8.107,0.885c1.472,0.19,8.985,0.345,9.579,1.714
			c1.044,2.407-7.128,4.749-8.382,5.165c-5.36,1.775-11.993,2.079-17.024,4.603c-1.054,0.528-0.354,1.299,0.575,1.12
			c25.225-4.854,50.593-9.549,76.124-12.5c2.964-0.343,5.935-0.641,8.913-0.815c0.962-0.057,1.926-0.088,2.889-0.058
			c0.776,0.024,1.208-0.333,0.743-0.089c-0.395,0.208-9.602,3.476-7.396,4.866c1.239,0.782,3.122,0.62,4.511,0.651
			c3.589,0.081,7.183-0.037,10.771,0.004c3.807,0.044,7.65,0.213,11.396,0.932c1.532,0.294,3.034,0.764,4.409,1.505
			c1.36,0.732-1.193,1.202-2.232,1.462c-7.335,1.835-30.381-1.447-30.288,10.766c0.009,1.128,0.343,2.221,0.688,3.282
			c0.173,0.532,0.993,0.446,1.379,0.256c11.722-5.778,25.378-6.191,38.149-7.791c14.108-1.768,27.905-4.499,41.897-6.879
			c11.214-1.907,23.401,0.88,34.66,1.783c7.082,0.567,16.239,1.39,22.118-3.459c0.228-0.188,0.501-0.504,0.261-0.802
			c-5.337-6.601-17.415-4.92-24.874-5.366c-13.634-0.815-26.84-2.134-40.503-1.03c-5.833,0.471-11.673,0.906-17.529,0.887
			c-2.682-0.01-5.355-0.196-8.01-0.58c-2.138-0.31-7.348-0.973-4.194-3.623c3.926-3.301,10.67-3.445,15.517-3.904
			c4.218-0.4,8.592-0.441,12.695-1.59c0.566-0.159,1.247-0.89,0.406-1.217c-8.438-3.276-17.781-3.486-26.72-3.619
			c-11.045-0.165-21.987-0.349-33.023-0.93c-13.66-0.719-27.329-1.252-40.983-2.063c-13.646-0.81-27.207-2.426-40.834-3.409
			c-26.474-1.911-53.128-0.445-79.469,2.48c-10.815,1.201-21.61,1.85-32.456,2.686c-9.353,0.721-18.916,1.932-27.547,5.805
			C910.936,548.913,912.025,549.824,912.977,549.397z"/>
	</g>
</g>
<g>
	<path fill="#FFFFFF" d="M541.039,615.824c-8.716-4.103-22.559-3.333-32.3-4.615c-18.969-2.306-38.707-3.332-57.932-1.281
		c-16.407,1.794-32.812,2.051-49.217,3.076c-8.204,0.513-21.277-0.769-28.711,2.307c4.101,1.282,16.149,0.257,18.457,4.871
		c-4.615,3.332-20.251,0.769-25.891,0.769c-5.896,0-11.792,0.257-17.688,1.026c-3.588,0.255-12.304-0.257-14.611,3.076
		c3.589,3.332,12.816,1.793,17.431,1.536c6.41-0.512,12.047-1.793,18.457-0.255c7.945,1.795,15.892,2.819,24.095,3.846
		c7.948,1.281,15.125,1.025,22.046,4.614c3.589-9.998-12.816-5.128-15.124-8.717c4.871-4.101,13.33-0.256,18.713,0.257
		c7.69,0.512,19.739-1.281,26.146-4.871c-0.769-0.513-1.794-1.024-2.818-1.024c8.971-1.281,19.226-0.514,28.453,0
		c9.228,0.512,17.943-0.514,27.173-2.052L541.039,615.824z"/>
	<g>
		<path d="M541.607,615.213c-11.123-4.833-24.473-3.748-36.324-5.101c-16.125-1.84-32.395-2.499-48.594-1.361
			c-16.375,1.149-32.692,2.405-49.093,3.261c-11.303,0.59-24.352-1.239-35.131,2.784c-0.496,0.185-0.861,0.94-0.155,1.126
			c5.433,1.422,11.583,0.246,16.637,3.066c3.472,1.937-7.481,2.242-8.532,2.221c-3.334-0.067-6.665-0.389-9.987-0.654
			c-7.871-0.63-15.575,0.399-23.415,0.814c-4.716,0.249-11.172-0.463-14.666,3.438c-0.233,0.261-0.238,0.558,0.045,0.774
			c3.462,2.644,8.181,2.345,12.311,2.115c7.906-0.439,15.892-2.327,23.762-0.752c7.448,1.49,14.889,2.691,22.427,3.65
			c7.887,1.004,16.257,1.244,23.53,4.728c0.596,0.285,1.517,0.066,1.727-0.618c1.01-3.292,0.224-5.57-3.092-6.755
			c-1.818-0.649-3.908-0.691-5.809-0.82c-1.729-0.117-10.04-1.009-2.762-2.2c3.841-0.628,7.898,1.033,11.628,1.701
			c3.109,0.557,6.201,0.479,9.343,0.29c6.738-0.404,13.847-1.802,19.866-4.943c0.328-0.171,0.902-0.742,0.339-1.044
			c-1.641-0.88-1.159-0.714-3.002-1.106c-0.223,0.422-0.446,0.843-0.669,1.264c14.291-1.826,28.613,0.89,42.936-0.338
			c6.663-0.57,13.156-1.741,19.832-2.137c12.06-0.713,24.12-1.427,36.179-2.14c1.05-0.063,1.525-1.383,0.201-1.305
			c-11.804,0.698-23.608,1.396-35.412,2.095c-6.356,0.376-12.465,1.28-18.804,2.002c-14.907,1.697-29.834-1.386-44.731,0.518
			c-0.503,0.064-1.753,1.033-0.669,1.264c0.878,0.313,1.756,0.628,2.634,0.942c0.113-0.349,0.226-0.696,0.339-1.044
			c-7.632,3.983-17.955,5.689-26.501,4.589c-6.302-0.812-12.766-3.936-18.572,0.148c-0.238,0.167-0.497,0.521-0.261,0.802
			c3.755,4.466,18.011-1.295,15.038,8.396c0.576-0.206,1.151-0.412,1.727-0.618c-5.05-2.418-10.299-3.265-15.815-3.891
			c-7.197-0.816-14.396-1.773-21.548-2.92c-7.024-1.127-13.314-2.834-20.467-2.271c-6.067,0.478-12.144,1.521-18.247,1.271
			c-1.82-0.075-3.545-0.478-5.163-1.327c-1.547-0.813,5.767-2.191,5.183-2.114c2.292-0.302,4.635-0.266,6.943-0.339
			c6.972-0.224,13.807-1.38,20.826-0.967c7.341,0.433,17.608,2.968,24.324-1.134c0.281-0.171,0.45-0.507,0.261-0.802
			c-3.579-5.586-13.278-3.633-18.777-5.072c-0.052,0.376-0.104,0.751-0.155,1.126c5.832-2.177,12.377-2.016,18.513-2.025
			c5.874-0.01,11.693-0.28,17.56-0.586c15.75-0.821,31.408-1.896,47.125-3.158c15.376-1.235,30.873-0.433,46.191,1.155
			c6.374,0.66,12.698,1.263,19.095,1.669c6.35,0.402,12.805,0.995,18.696,3.556C541.211,616.757,542.715,615.695,541.607,615.213z"
			/>
	</g>
</g>
<linearGradient id="SVGID_2_" gradientUnits="userSpaceOnUse" x1="1002.4834" y1="-60.4839" x2="1002.4602" y2="999.4116" gradientTransform="matrix(-7.546403e-006 -0.3719 1.2217 -1.633229e-005 -612.9873 1387.3433)">
	<stop  offset="0.4061" style="stop-color:#FFFFFF"/>
	<stop  offset="0.6419" style="stop-color:#A8DDF3"/>
	<stop  offset="1" style="stop-color:#27AAE1"/>
</linearGradient>
<polygon fill="url(#SVGID_2_)" points="787.207,633.999 787.218,1394.992 -48.988,1395.005 -49.002,634.012 "/>
<linearGradient id="SVGID_3_" gradientUnits="userSpaceOnUse" x1="1007.832" y1="752.3613" x2="1007.8101" y2="1755.9861" gradientTransform="matrix(7.546403e-006 0.3719 -1.2217 1.633229e-005 3121.6455 641.6601)">
	<stop  offset="0.4061" style="stop-color:#FFFFFF"/>
	<stop  offset="0.6419" style="stop-color:#A8DDF3"/>
	<stop  offset="1" style="stop-color:#27AAE1"/>
</linearGradient>
<polygon fill="url(#SVGID_3_)" points="780.655,1397.006 780.643,636.013 1673.424,636 1673.439,1396.993 "/>
</svg>
