<?xml version="1.0" encoding="utf-8"?>
<!-- Generator: Adobe Illustrator 15.1.0, SVG Export Plug-In . SVG Version: 6.00 Build 0)  -->
<!DOCTYPE svg PUBLIC "-//W3C//DTD SVG 1.1//EN" "http://www.w3.org/Graphics/SVG/1.1/DTD/svg11.dtd">
<svg version="1.1" xmlns="http://www.w3.org/2000/svg" xmlns:xlink="http://www.w3.org/1999/xlink" x="0px" y="0px"
	 width="432.667px" height="606.932px" viewBox="0 0 432.667 606.932" enable-background="new 0 0 432.667 606.932"
	 xml:space="preserve">
<g id="Layer_1">
	<rect x="66.833" y="235.833" fill="#FFFFFF" stroke="#000000" stroke-miterlimit="10" width="299" height="39"/>
	<g>
		<g>
			<defs>
				<rect id="SVGID_1_" x="16" y="448.47" width="125.667" height="34.834"/>
			</defs>
			<clipPath id="SVGID_2_">
				<use xlink:href="#SVGID_1_"  overflow="visible"/>
			</clipPath>
			<g clip-path="url(#SVGID_2_)">
				<defs>
					<rect id="SVGID_3_" x="16" y="448.471" width="125.667" height="34.833"/>
				</defs>
				<clipPath id="SVGID_4_">
					<use xlink:href="#SVGID_3_"  overflow="visible"/>
				</clipPath>
				<path clip-path="url(#SVGID_4_)" fill="#FFFFFF" d="M115.559,449.605c-35.521,0-38.643,0.25-70.5,0.25
					c-5.375,8.625-17.038,18.988-22.897,18.988c-3.057,0-1.5,10.25-1.5,10.25h119.147c0,0-0.5-10.988-2-10.988
					C132.506,468.105,121.809,458.855,115.559,449.605"/>
				<path clip-path="url(#SVGID_4_)" fill="#231F20" d="M114.662,449.982c3.704,3.938,6.145,8.848,10.289,12.388
					c3.432,2.93,7.443,4.438,11.767,5.509c0.611,0.15,2.278-0.775,1.183-1.047c-4.736-1.174-8.468-2.922-12.194-6.105
					c-3.73-3.184-5.902-7.939-9.25-11.5C115.995,448.736,114.157,449.445,114.662,449.982"/>
				<path clip-path="url(#SVGID_4_)" fill="#231F20" d="M136.843,468.363c1.332,3.326,1.497,6.709,1.5,10.25
					c0,0.342,1.933,0.056,1.932-0.518c-0.003-3.542-0.167-6.923-1.5-10.25C138.58,467.361,136.688,467.976,136.843,468.363"/>
				<path clip-path="url(#SVGID_4_)" fill="#231F20" d="M43.598,450.039c-3.071,3.266-5.286,7.184-8.268,10.521
					c-3.386,3.791-8.054,5.655-12.853,6.844c-1.208,0.299-0.831,1.678,0.37,1.381c4.476-1.108,8.293-2.711,11.924-5.588
					c4.315-3.421,6.723-8.582,10.455-12.548C46.067,449.755,44.217,449.38,43.598,450.039"/>
				<path clip-path="url(#SVGID_4_)" fill="#231F20" d="M21.25,468.775c-1.357,3.389-1.558,6.804-1.561,10.414
					c0,0.924,1.945,0.564,1.946-0.19c0.002-3.47,0.132-6.825,1.439-10.086C23.462,467.945,21.527,468.084,21.25,468.775"/>
				
					<line clip-path="url(#SVGID_4_)" fill="none" stroke="#231F20" stroke-miterlimit="10" x1="20.662" y1="479.093" x2="140.559" y2="479.093"/>
				<path clip-path="url(#SVGID_4_)" fill="#231F20" d="M44.167,450.25c3.301,2.748,8.301,3.365,12.383,3.998
					c7.533,1.168,15.214,1.418,22.824,1.398c7.454-0.021,14.928-0.455,22.311-1.5c4.867-0.689,10.247-1.551,14.489-4.197
					c1.113-0.693-0.545-1.117-1.23-0.689c-4.328,2.699-10.075,3.306-15.018,3.96c-6.949,0.918-13.99,1.198-20.994,1.218
					c-6.535,0.018-13.084-0.307-19.571-1.107c-4.192-0.518-10.007-1.039-13.41-3.871C45.375,448.979,43.565,449.75,44.167,450.25"/>
			</g>
		</g>
	</g>
	<g>
		<g>
			<defs>
				<rect id="SVGID_5_" x="286.516" y="448.47" width="125.667" height="34.834"/>
			</defs>
			<clipPath id="SVGID_6_">
				<use xlink:href="#SVGID_5_"  overflow="visible"/>
			</clipPath>
			<g clip-path="url(#SVGID_6_)">
				<defs>
					<rect id="SVGID_7_" x="286.516" y="448.471" width="125.667" height="34.833"/>
				</defs>
				<clipPath id="SVGID_8_">
					<use xlink:href="#SVGID_7_"  overflow="visible"/>
				</clipPath>
				<path clip-path="url(#SVGID_8_)" fill="#FFFFFF" d="M386.075,449.605c-35.521,0-38.643,0.25-70.5,0.25
					c-5.375,8.625-17.038,18.988-22.896,18.988c-3.058,0-1.5,10.25-1.5,10.25h119.146c0,0-0.5-10.988-2-10.988
					C403.022,468.105,392.325,458.855,386.075,449.605"/>
				<path clip-path="url(#SVGID_8_)" fill="#231F20" d="M385.178,449.982c3.704,3.938,6.146,8.848,10.289,12.388
					c3.433,2.93,7.442,4.438,11.767,5.509c0.611,0.15,2.278-0.775,1.184-1.047c-4.736-1.174-8.469-2.922-12.194-6.105
					c-3.729-3.184-5.901-7.939-9.25-11.5C386.511,448.736,384.673,449.445,385.178,449.982"/>
				<path clip-path="url(#SVGID_8_)" fill="#231F20" d="M407.359,468.363c1.332,3.326,1.497,6.709,1.5,10.25
					c0,0.342,1.933,0.056,1.933-0.518c-0.004-3.542-0.168-6.923-1.5-10.25C409.097,467.361,407.204,467.976,407.359,468.363"/>
				<path clip-path="url(#SVGID_8_)" fill="#231F20" d="M314.114,450.039c-3.07,3.266-5.286,7.184-8.268,10.521
					c-3.387,3.791-8.055,5.655-12.854,6.844c-1.208,0.299-0.831,1.678,0.37,1.381c4.476-1.108,8.293-2.711,11.924-5.588
					c4.315-3.421,6.724-8.582,10.455-12.548C316.583,449.755,314.733,449.38,314.114,450.039"/>
				<path clip-path="url(#SVGID_8_)" fill="#231F20" d="M291.767,468.775c-1.357,3.389-1.559,6.804-1.562,10.414
					c0,0.924,1.944,0.564,1.946-0.19c0.002-3.47,0.132-6.825,1.439-10.086C293.978,467.945,292.043,468.084,291.767,468.775"/>
				
					<line clip-path="url(#SVGID_8_)" fill="none" stroke="#231F20" stroke-miterlimit="10" x1="291.179" y1="479.093" x2="411.075" y2="479.093"/>
				<path clip-path="url(#SVGID_8_)" fill="#231F20" d="M314.683,450.25c3.301,2.748,8.301,3.365,12.383,3.998
					c7.533,1.168,15.215,1.418,22.824,1.398c7.455-0.021,14.929-0.455,22.312-1.5c4.867-0.689,10.247-1.551,14.489-4.197
					c1.113-0.693-0.545-1.117-1.23-0.689c-4.328,2.699-10.074,3.306-15.018,3.96c-6.949,0.918-13.99,1.198-20.994,1.218
					c-6.535,0.018-13.084-0.307-19.571-1.107c-4.192-0.518-10.007-1.039-13.409-3.871
					C315.892,448.979,314.081,449.75,314.683,450.25"/>
			</g>
		</g>
	</g>
	<g>
		<g>
			<defs>
				<rect id="SVGID_9_" x="25.258" y="339.831" width="109.152" height="122.896"/>
			</defs>
			<clipPath id="SVGID_10_">
				<use xlink:href="#SVGID_9_"  overflow="visible"/>
			</clipPath>
			<rect x="47.348" y="340.114" clip-path="url(#SVGID_10_)" fill="#FFFFFF" width="68.425" height="109.15"/>
			<g clip-path="url(#SVGID_10_)">
				<defs>
					<rect id="SVGID_11_" x="25.258" y="339.831" width="109.152" height="122.896"/>
				</defs>
				<clipPath id="SVGID_12_">
					<use xlink:href="#SVGID_11_"  overflow="visible"/>
				</clipPath>
				
					<line clip-path="url(#SVGID_12_)" fill="none" stroke="#231F20" stroke-width="1.379" stroke-miterlimit="10" x1="101.964" y1="340.114" x2="101.964" y2="453.902"/>
				
					<line clip-path="url(#SVGID_12_)" fill="none" stroke="#231F20" stroke-width="1.379" stroke-miterlimit="10" x1="46.386" y1="340.114" x2="46.386" y2="449.264"/>
				
					<line clip-path="url(#SVGID_12_)" fill="none" stroke="#231F20" stroke-width="1.379" stroke-miterlimit="10" x1="74.697" y1="340.114" x2="74.697" y2="455.185"/>
				
					<line clip-path="url(#SVGID_12_)" fill="none" stroke="#231F20" stroke-width="1.379" stroke-miterlimit="10" x1="60.984" y1="340.114" x2="60.984" y2="453.902"/>
				
					<line clip-path="url(#SVGID_12_)" fill="none" stroke="#231F20" stroke-width="1.379" stroke-miterlimit="10" x1="114.509" y1="340.114" x2="114.509" y2="450.226"/>
				
					<line clip-path="url(#SVGID_12_)" fill="none" stroke="#231F20" stroke-width="1.379" stroke-miterlimit="10" x1="88.41" y1="339.151" x2="88.41" y2="455.185"/>
			</g>
		</g>
	</g>
	<g>
		<g>
			<defs>
				<rect id="SVGID_13_" x="295.774" y="339.831" width="109.152" height="122.896"/>
			</defs>
			<clipPath id="SVGID_14_">
				<use xlink:href="#SVGID_13_"  overflow="visible"/>
			</clipPath>
			<rect x="317.863" y="340.114" clip-path="url(#SVGID_14_)" fill="#FFFFFF" width="68.426" height="109.15"/>
			<g clip-path="url(#SVGID_14_)">
				<defs>
					<rect id="SVGID_15_" x="295.774" y="339.831" width="109.152" height="122.896"/>
				</defs>
				<clipPath id="SVGID_16_">
					<use xlink:href="#SVGID_15_"  overflow="visible"/>
				</clipPath>
				
					<line clip-path="url(#SVGID_16_)" fill="none" stroke="#231F20" stroke-width="1.379" stroke-miterlimit="10" x1="372.479" y1="340.114" x2="372.479" y2="453.902"/>
				
					<line clip-path="url(#SVGID_16_)" fill="none" stroke="#231F20" stroke-width="1.379" stroke-miterlimit="10" x1="316.902" y1="340.114" x2="316.902" y2="449.264"/>
				
					<line clip-path="url(#SVGID_16_)" fill="none" stroke="#231F20" stroke-width="1.379" stroke-miterlimit="10" x1="345.213" y1="340.114" x2="345.213" y2="455.185"/>
				
					<line clip-path="url(#SVGID_16_)" fill="none" stroke="#231F20" stroke-width="1.379" stroke-miterlimit="10" x1="331.501" y1="340.114" x2="331.501" y2="453.902"/>
				
					<line clip-path="url(#SVGID_16_)" fill="none" stroke="#231F20" stroke-width="1.379" stroke-miterlimit="10" x1="385.025" y1="340.114" x2="385.025" y2="450.226"/>
				
					<line clip-path="url(#SVGID_16_)" fill="none" stroke="#231F20" stroke-width="1.379" stroke-miterlimit="10" x1="358.926" y1="339.151" x2="358.926" y2="455.185"/>
			</g>
		</g>
	</g>
	<g>
		<g>
			<defs>
				<rect id="SVGID_17_" x="5.316" y="312.699" width="151.033" height="49.866"/>
			</defs>
			<clipPath id="SVGID_18_">
				<use xlink:href="#SVGID_17_"  overflow="visible"/>
			</clipPath>
			<rect x="30.048" y="319.068" clip-path="url(#SVGID_18_)" fill="#FFFFFF" width="101.066" height="24.231"/>
			<g clip-path="url(#SVGID_18_)">
				<defs>
					<rect id="SVGID_19_" x="5.316" y="312.699" width="151.033" height="49.866"/>
				</defs>
				<clipPath id="SVGID_20_">
					<use xlink:href="#SVGID_19_"  overflow="visible"/>
				</clipPath>
				<path clip-path="url(#SVGID_20_)" fill="#FFFFFF" d="M41.263,337.672c-4.967,4.777,6.269,7.01-8.334,19.623
					c-7.764,6.707-23.499-5.327-23.499-18.156c0-20.301,5.833-20.074,21.832-20.071C60.431,319.076,50.509,328.779,41.263,337.672"
					/>
				<path clip-path="url(#SVGID_20_)" fill="#FFFFFF" d="M119.899,337.853c4.967,4.777-7.176,7.81,7.426,20.424
					c7.763,6.706,24.408-6.128,24.408-18.958c0-20.301-5.834-20.074-21.832-20.07C100.732,319.256,110.653,328.959,119.899,337.853"
					/>
				<path clip-path="url(#SVGID_20_)" fill="#231F20" d="M24.224,346.147c0.574-3.188,1.428-6.099,3.516-8.647
					c2.883-3.521,7.029-1.917,9.403,0.85c5.407,6.304,0.466,17.236-6.116,20.302c-6.205,2.891-13.01-2.411-16.415-7.029
					c-2.921-3.96-4.414-8.935-5.029-13.759c-0.582-4.573-0.045-9.546,2.31-13.574c3.893-6.659,14.106-4.644,20.602-4.764
					c17.915-0.33,35.833-0.164,53.75-0.159c0.642,0,2.083-0.975,0.783-0.975c-13.168-0.004-26.337-0.083-39.505-0.008
					c-6.612,0.038-13.223,0.136-19.833,0.279c-4.075,0.089-8.391-0.306-12.279,1.133c-12.123,4.488-8.257,23.607-3.182,31.69
					c7.97,12.69,26.52,10.916,28.826-5.044c0.741-5.137-2.212-12.161-8.307-11.976c-6.6,0.201-9.401,6.161-10.446,11.96
					C22.186,347.072,24.119,346.73,24.224,346.147"/>
				<path clip-path="url(#SVGID_20_)" fill="#231F20" d="M137.863,346.028c-0.926-5.138-3.966-12.738-10.62-11.485
					c-4.568,0.86-8.019,4.564-8.175,9.341c-0.278,8.508,5.156,16.433,14.166,16.388c5.732-0.027,10.863-3.906,14.107-8.305
					c6.016-8.158,9.208-26.026-1.521-31.972c-3.031-1.679-7.139-1.198-10.416-1.287c-5.341-0.144-10.684-0.251-16.026-0.312
					c-10.784-0.122-21.568-0.007-32.351-0.004c-0.643,0-2.084,0.975-0.783,0.975c13.957-0.004,27.912-0.13,41.867,0.16
					c6.097,0.126,14.155-1.363,18.833,3.402c3.177,3.236,3.841,8.416,3.816,12.722c-0.06,10.983-9.719,29.882-23.284,21.811
					c-5.959-3.546-8.453-12.875-4.937-18.832c2.107-3.572,6.235-3.87,9.241-1.391c2.67,2.203,3.57,6.081,4.151,9.307
					C136.034,347.113,137.976,346.653,137.863,346.028"/>
				<path clip-path="url(#SVGID_20_)" fill="#231F20" d="M39.73,344.1c26.334-0.016,52.736-1.039,79.059,0
					c0.632,0.024,2.088-0.897,0.791-0.949c-26.323-1.039-52.726-0.016-79.059,0C39.896,343.152,38.433,344.1,39.73,344.1"/>
			</g>
		</g>
	</g>
	<g>
		<g>
			<defs>
				<rect id="SVGID_21_" x="275.833" y="312.699" width="151.033" height="49.866"/>
			</defs>
			<clipPath id="SVGID_22_">
				<use xlink:href="#SVGID_21_"  overflow="visible"/>
			</clipPath>
			<rect x="300.565" y="319.068" clip-path="url(#SVGID_22_)" fill="#FFFFFF" width="101.065" height="24.231"/>
			<g clip-path="url(#SVGID_22_)">
				<defs>
					<rect id="SVGID_23_" x="275.833" y="312.699" width="151.033" height="49.866"/>
				</defs>
				<clipPath id="SVGID_24_">
					<use xlink:href="#SVGID_23_"  overflow="visible"/>
				</clipPath>
				<path clip-path="url(#SVGID_24_)" fill="#FFFFFF" d="M311.779,337.672c-4.967,4.777,6.27,7.01-8.334,19.623
					c-7.764,6.707-23.499-5.327-23.499-18.156c0-20.301,5.833-20.074,21.832-20.071
					C330.947,319.076,321.025,328.779,311.779,337.672"/>
				<path clip-path="url(#SVGID_24_)" fill="#FFFFFF" d="M390.416,337.853c4.967,4.777-7.176,7.81,7.426,20.424
					c7.764,6.706,24.408-6.128,24.408-18.958c0-20.301-5.834-20.074-21.832-20.07C371.249,319.256,381.17,328.959,390.416,337.853"
					/>
				<path clip-path="url(#SVGID_24_)" fill="#231F20" d="M294.74,346.147c0.574-3.188,1.428-6.099,3.517-8.647
					c2.883-3.521,7.028-1.917,9.402,0.85c5.407,6.304,0.466,17.236-6.116,20.302c-6.204,2.891-13.01-2.411-16.415-7.029
					c-2.921-3.96-4.414-8.935-5.029-13.759c-0.582-4.573-0.045-9.546,2.311-13.574c3.893-6.659,14.106-4.644,20.603-4.764
					c17.915-0.33,35.833-0.164,53.75-0.159c0.642,0,2.083-0.975,0.783-0.975c-13.169-0.004-26.338-0.083-39.506-0.008
					c-6.611,0.038-13.223,0.136-19.833,0.279c-4.074,0.089-8.391-0.306-12.279,1.133c-12.123,4.488-8.256,23.607-3.182,31.69
					c7.971,12.69,26.521,10.916,28.826-5.044c0.741-5.137-2.212-12.161-8.307-11.976c-6.601,0.201-9.401,6.161-10.446,11.96
					C292.702,347.072,294.636,346.73,294.74,346.147"/>
				<path clip-path="url(#SVGID_24_)" fill="#231F20" d="M408.38,346.028c-0.926-5.138-3.966-12.738-10.62-11.485
					c-4.567,0.86-8.019,4.564-8.175,9.341c-0.277,8.508,5.156,16.433,14.166,16.388c5.732-0.027,10.863-3.906,14.107-8.305
					c6.016-8.158,9.208-26.026-1.521-31.972c-3.031-1.679-7.139-1.198-10.416-1.287c-5.341-0.144-10.684-0.251-16.025-0.312
					c-10.784-0.122-21.568-0.007-32.352-0.004c-0.643,0-2.084,0.975-0.783,0.975c13.957-0.004,27.912-0.13,41.867,0.16
					c6.098,0.126,14.155-1.363,18.833,3.402c3.177,3.236,3.841,8.416,3.816,12.722c-0.061,10.983-9.719,29.882-23.284,21.811
					c-5.959-3.546-8.453-12.875-4.938-18.832c2.107-3.572,6.235-3.87,9.241-1.391c2.67,2.203,3.57,6.081,4.151,9.307
					C406.551,347.113,408.493,346.653,408.38,346.028"/>
				<path clip-path="url(#SVGID_24_)" fill="#231F20" d="M310.247,344.1c26.334-0.016,52.736-1.039,79.06,0
					c0.632,0.024,2.088-0.897,0.791-0.949c-26.323-1.039-52.727-0.016-79.06,0C310.413,343.152,308.949,344.1,310.247,344.1"/>
			</g>
		</g>
	</g>
	<rect x="5.833" y="553.833" fill="#FFFFFF" stroke="#000000" stroke-miterlimit="10" width="421" height="45"/>
	<rect x="10.833" y="515.833" fill="#FFFFFF" stroke="#000000" stroke-miterlimit="10" width="411" height="29"/>
	<rect x="10.833" y="293.833" fill="#FFFFFF" stroke="#000000" stroke-miterlimit="10" width="411" height="19"/>
	<rect x="10.833" y="188.833" fill="#FFFFFF" stroke="#000000" stroke-miterlimit="10" width="411" height="30"/>
	<rect x="15.833" y="484.833" fill="#FFFFFF" stroke="#000000" stroke-miterlimit="10" width="401" height="23"/>
	<rect x="14.833" y="213.833" fill="#FFFFFF" stroke="#000000" stroke-miterlimit="10" width="16" height="84"/>
	<rect x="37.833" y="213.833" fill="#FFFFFF" stroke="#000000" stroke-miterlimit="10" width="16" height="84"/>
	<rect x="61.833" y="213.833" fill="#FFFFFF" stroke="#000000" stroke-miterlimit="10" width="16" height="84"/>
	<rect x="85.833" y="213.833" fill="#FFFFFF" stroke="#000000" stroke-miterlimit="10" width="16" height="84"/>
	<rect x="108.833" y="213.833" fill="#FFFFFF" stroke="#000000" stroke-miterlimit="10" width="16" height="84"/>
	<rect x="130.833" y="213.833" fill="#FFFFFF" stroke="#000000" stroke-miterlimit="10" width="16" height="84"/>
	<rect x="284.833" y="213.833" fill="#FFFFFF" stroke="#000000" stroke-miterlimit="10" width="16" height="84"/>
	<rect x="307.833" y="213.833" fill="#FFFFFF" stroke="#000000" stroke-miterlimit="10" width="16" height="84"/>
	<rect x="331.833" y="213.833" fill="#FFFFFF" stroke="#000000" stroke-miterlimit="10" width="16" height="84"/>
	<rect x="355.833" y="213.833" fill="#FFFFFF" stroke="#000000" stroke-miterlimit="10" width="16" height="84"/>
	<rect x="378.833" y="213.833" fill="#FFFFFF" stroke="#000000" stroke-miterlimit="10" width="16" height="84"/>
	<rect x="400.833" y="213.833" fill="#FFFFFF" stroke="#000000" stroke-miterlimit="10" width="16" height="84"/>
	<rect x="166.833" y="227.833" fill="#FFFFFF" stroke="#000000" stroke-miterlimit="10" width="98" height="56"/>
</g>
<g id="Layer_2">
	<rect x="192.926" y="95.161" fill="#FFFFFF" stroke="#000000" stroke-miterlimit="10" width="9.791" height="67.241"/>
	<rect x="176.142" y="95.161" fill="#FFFFFF" stroke="#000000" stroke-miterlimit="10" width="9.79" height="67.241"/>
	<rect x="159.357" y="95.161" fill="#FFFFFF" stroke="#000000" stroke-miterlimit="10" width="9.792" height="67.241"/>
	<rect x="141.174" y="95.161" fill="#FFFFFF" stroke="#000000" stroke-miterlimit="10" width="9.792" height="67.241"/>
	<rect x="122.991" y="107.653" fill="#FFFFFF" stroke="#000000" stroke-miterlimit="10" width="9.792" height="54.749"/>
	<rect x="103.41" y="120.067" fill="#FFFFFF" stroke="#000000" stroke-miterlimit="10" width="9.791" height="42.335"/>
	<rect x="80.667" y="123.443" fill="#FFFFFF" stroke="#000000" stroke-miterlimit="10" width="9.791" height="38.959"/>
	<rect x="234.749" y="95.161" fill="#FFFFFF" stroke="#000000" stroke-miterlimit="10" width="9.79" height="67.241"/>
	<rect x="251.532" y="95.161" fill="#FFFFFF" stroke="#000000" stroke-miterlimit="10" width="9.792" height="67.241"/>
	<rect x="268.317" y="95.161" fill="#FFFFFF" stroke="#000000" stroke-miterlimit="10" width="9.79" height="67.241"/>
	<rect x="286.5" y="95.161" fill="#FFFFFF" stroke="#000000" stroke-miterlimit="10" width="9.791" height="67.241"/>
	<rect x="304.683" y="107.653" fill="#FFFFFF" stroke="#000000" stroke-miterlimit="10" width="9.791" height="54.749"/>
	<rect x="324.265" y="120.067" fill="#FFFFFF" stroke="#000000" stroke-miterlimit="10" width="9.79" height="42.335"/>
	<rect x="347.008" y="123.443" fill="#FFFFFF" stroke="#000000" stroke-miterlimit="10" width="9.79" height="38.959"/>
	<rect x="10.25" y="167.955" fill="#FFFFFF" stroke="#000000" stroke-miterlimit="10" width="403.754" height="17.351"/>
	<polygon fill="#FFFFFF" stroke="#000000" stroke-miterlimit="10" points="422.332,188.776 213.771,92.584 220.945,58.111 
		429.507,154.303 	"/>
	<polygon fill="#FFFFFF" stroke="#000000" stroke-miterlimit="10" points="10.335,188.776 218.896,92.584 211.723,58.111 
		3.16,154.303 	"/>
	<rect x="209.106" y="39.559" fill="#FFFFFF" stroke="#000000" stroke-miterlimit="10" width="19.581" height="122.844"/>
</g>
</svg>
