<?xml version="1.0" encoding="utf-8"?>
<!-- Generator: Adobe Illustrator 15.1.0, SVG Export Plug-In . SVG Version: 6.00 Build 0)  -->
<!DOCTYPE svg PUBLIC "-//W3C//DTD SVG 1.1//EN" "http://www.w3.org/Graphics/SVG/1.1/DTD/svg11.dtd">
<svg version="1.1" id="Layer_1" xmlns="http://www.w3.org/2000/svg" xmlns:xlink="http://www.w3.org/1999/xlink" x="0px" y="0px"
	 width="426px" height="140px" viewBox="0 0 426 140" enable-background="new 0 0 426 140" xml:space="preserve">
<rect x="65.5" y="58.5" fill="#FFFFFF" stroke="#010101" stroke-miterlimit="10" width="299" height="39"/>
<rect x="9.5" y="116.5" fill="#FFFFFF" stroke="#010101" stroke-miterlimit="10" width="411" height="19"/>
<rect x="9.5" y="11.5" fill="#FFFFFF" stroke="#010101" stroke-miterlimit="10" width="411" height="30"/>
<rect x="13.5" y="36.5" fill="#FFFFFF" stroke="#010101" stroke-miterlimit="10" width="16" height="84"/>
<rect x="36.5" y="36.5" fill="#FFFFFF" stroke="#010101" stroke-miterlimit="10" width="16" height="84"/>
<rect x="60.5" y="36.5" fill="#FFFFFF" stroke="#010101" stroke-miterlimit="10" width="16" height="84"/>
<rect x="84.5" y="36.5" fill="#FFFFFF" stroke="#010101" stroke-miterlimit="10" width="16" height="84"/>
<rect x="107.5" y="36.5" fill="#FFFFFF" stroke="#010101" stroke-miterlimit="10" width="16" height="84"/>
<rect x="129.5" y="36.5" fill="#FFFFFF" stroke="#010101" stroke-miterlimit="10" width="16" height="84"/>
<rect x="283.5" y="36.5" fill="#FFFFFF" stroke="#010101" stroke-miterlimit="10" width="16" height="84"/>
<rect x="306.5" y="36.5" fill="#FFFFFF" stroke="#010101" stroke-miterlimit="10" width="16" height="84"/>
<rect x="330.5" y="36.5" fill="#FFFFFF" stroke="#010101" stroke-miterlimit="10" width="16" height="84"/>
<rect x="354.5" y="36.5" fill="#FFFFFF" stroke="#010101" stroke-miterlimit="10" width="16" height="84"/>
<rect x="377.5" y="36.5" fill="#FFFFFF" stroke="#010101" stroke-miterlimit="10" width="16" height="84"/>
<rect x="399.5" y="36.5" fill="#FFFFFF" stroke="#010101" stroke-miterlimit="10" width="16" height="84"/>
<rect x="165.5" y="50.5" fill="#FFFFFF" stroke="#010101" stroke-miterlimit="10" width="98" height="56"/>
</svg>
