<?xml version="1.0" standalone="no"?>
<!DOCTYPE svg PUBLIC "-//W3C//DTD SVG 20010904//EN"
 "http://www.w3.org/TR/2001/REC-SVG-20010904/DTD/svg10.dtd">
<svg version="1.0" xmlns="http://www.w3.org/2000/svg"
 width="842.000000pt" height="842.000000pt" viewBox="0 0 842.000000 842.000000"
 preserveAspectRatio="xMidYMid meet">
<metadata>
Created by potrace 1.11, written by Peter Selinger 2001-2013
</metadata>
<g transform="translate(0.000000,842.000000) scale(0.100000,-0.100000)"
fill="#000000" stroke="none">
<path d="M2326 7323 c-1 -1 -205 -3 -454 -5 -407 -2 -486 -6 -398 -22 41 -7
99 -27 114 -39 6 -5 12 -7 12 -3 0 9 90 -43 149 -86 167 -125 294 -311 369
-543 31 -95 49 -160 56 -210 3 -16 7 -40 10 -52 16 -74 19 -310 18 -1613 -1
-795 -2 -1463 -2 -1485 0 -22 1 -113 2 -203 0 -89 -2 -165 -5 -168 -3 -3 -4
-11 -2 -17 9 -25 12 -88 5 -92 -5 -3 -5 -17 -1 -33 4 -15 4 -42 0 -60 -4 -17
-3 -34 2 -37 4 -3 5 -15 0 -27 -4 -11 -4 -40 -1 -64 4 -24 3 -47 -1 -51 -5 -5
-5 -21 -1 -37 5 -16 5 -51 2 -78 -4 -27 -3 -51 2 -54 5 -3 5 -10 2 -16 -3 -5
-6 -98 -6 -206 l0 -197 -285 -190 c-157 -104 -291 -192 -297 -194 -6 -2 -13
-7 -16 -11 -3 -4 -52 -38 -110 -76 -58 -37 -109 -72 -115 -77 -5 -4 -19 -14
-30 -22 -17 -12 40 -14 412 -13 237 0 436 -2 440 -5 6 -4 9 -256 9 -587 -1
-320 1 -585 4 -589 3 -4 272 -7 598 -7 530 0 592 1 593 15 0 9 0 43 -1 76 -1
65 -1 65 0 144 0 29 -2 56 -5 59 -2 3 0 11 6 19 9 10 8 13 0 13 -8 0 -9 5 -3
16 5 9 7 31 3 48 -3 17 -6 204 -6 416 l0 385 1190 -2 c655 -1 1197 1 1205 4 8
4 17 7 20 8 3 1 23 10 45 20 22 10 42 19 45 20 7 2 96 43 288 131 41 19 78 34
83 34 5 0 9 5 9 12 0 6 3 8 6 5 4 -4 23 2 43 13 20 10 88 42 151 71 63 28 151
68 195 89 44 20 98 45 120 55 22 10 72 33 112 52 40 18 93 42 118 53 25 11 45
23 45 27 0 4 -23 54 -52 109 l-51 102 -31 -10 c-17 -5 -37 -10 -43 -11 -7 0
-13 -4 -13 -9 0 -4 -3 -7 -7 -6 -5 1 -37 -7 -73 -19 -77 -26 -234 -66 -300
-79 -14 -2 -36 -7 -50 -10 -14 -3 -36 -8 -50 -10 -14 -2 -34 -6 -45 -9 -11 -2
-42 -7 -70 -10 -27 -3 -66 -8 -85 -11 -76 -12 -99 -13 -478 -27 -28 -1 -52 2
-52 6 0 5 -4 6 -9 3 -7 -5 -128 -8 -191 -5 -8 0 -49 -1 -90 -2 -41 -1 -79 0
-85 1 -5 1 -12 2 -15 0 -3 -1 -429 -2 -947 -4 l-942 -2 4 1861 c1 1023 5 1871
8 1885 3 14 8 43 11 65 17 119 80 285 157 413 36 59 118 162 178 222 53 52
174 150 187 150 3 0 20 10 37 22 65 47 266 129 344 141 17 3 36 8 41 11 40 25
361 24 462 -1 14 -3 34 -8 45 -10 44 -7 183 -57 240 -85 103 -52 221 -136 305
-217 44 -43 80 -81 80 -85 0 -6 30 -43 58 -72 6 -7 12 -15 12 -18 0 -3 15 -29
34 -59 19 -29 43 -73 54 -97 11 -25 29 -65 40 -90 11 -25 23 -61 27 -80 14
-66 20 -70 88 -69 34 1 67 0 72 -1 6 -1 15 -2 20 -1 6 1 102 2 215 1 113 -1
211 -1 218 -1 6 0 113 0 237 0 124 0 233 0 243 0 9 0 45 1 80 1 48 0 61 3 55
13 -4 6 -9 21 -11 32 -5 29 -10 50 -12 50 -1 0 -3 6 -14 50 -24 100 -140 388
-200 494 -20 34 -36 65 -36 68 0 2 -21 34 -47 71 -183 262 -398 435 -678 546
-38 16 -79 32 -90 37 -11 5 -29 10 -40 12 -11 1 -24 5 -30 8 -5 4 -23 10 -40
14 -16 5 -32 9 -35 10 -15 4 -68 16 -88 20 -13 2 -31 6 -40 9 -9 3 -37 8 -62
11 -24 4 -47 8 -50 10 -3 2 -33 7 -65 10 -33 4 -73 9 -90 11 -16 2 -55 6 -85
9 -30 4 -80 9 -110 12 -49 6 -2788 11 -2794 6z"/>
</g>
</svg>
